<?xml version='1.0' encoding='UTF-8' standalone='no'?>
<svg height="320pt" viewBox="0 0 374 320" width="374pt" xmlns="http://www.w3.org/2000/svg" xmlns:xlink="http://www.w3.org/1999/xlink">
 <title>Figure 3</title>
 <desc>
Creator: GL2PS 1.4.2, (C) 1999-2020 C. Geuzaine
For: Octave
CreationDate: Thu Mar 12 11:46:25 2026
</desc>
 <defs/>
 <polygon fill="#ffffff" points="0,0 374,0 374,320 0,320"/>
 <g>
  <polygon fill="#ffffff" points="0,320 374,320 374,0 0,0" shape-rendering="crispEdges"/>
  <clipPath id="cp00374320">
   <polygon points="0,320 374,320 374,0 0,0"/>
  </clipPath>
  <g clip-path="url(#cp00374320)">
   <polygon fill="#ffffff" points="48.7287,285.565 339.226,285.565 339.226,24.0645 48.7287,24.0645" shape-rendering="crispEdges"/>
   <polyline fill="none" points="48.7287,285.565 48.7287,24.0645" stroke="#262626" stroke-dasharray="16,0" stroke-linecap="butt" stroke-linejoin="miter" stroke-opacity="0.15" stroke-width="0.5"/>
   <polyline fill="none" points="106.828,285.565 106.828,24.0645" stroke="#262626" stroke-dasharray="16,0" stroke-linecap="butt" stroke-linejoin="miter" stroke-opacity="0.15" stroke-width="0.5"/>
   <polyline fill="none" points="164.928,285.565 164.928,24.0645" stroke="#262626" stroke-dasharray="16,0" stroke-linecap="butt" stroke-linejoin="miter" stroke-opacity="0.15" stroke-width="0.5"/>
   <polyline fill="none" points="223.027,285.565 223.027,24.0645" stroke="#262626" stroke-dasharray="16,0" stroke-linecap="butt" stroke-linejoin="miter" stroke-opacity="0.15" stroke-width="0.5"/>
   <polyline fill="none" points="281.127,285.565 281.127,24.0645" stroke="#262626" stroke-dasharray="16,0" stroke-linecap="butt" stroke-linejoin="miter" stroke-opacity="0.15" stroke-width="0.5"/>
   <polyline fill="none" points="339.226,285.565 339.226,24.0645" stroke="#262626" stroke-dasharray="16,0" stroke-linecap="butt" stroke-linejoin="miter" stroke-opacity="0.15" stroke-width="0.5"/>
   <polyline fill="none" points="48.7287,285.565 48.7287,282.666" stroke="#262626" stroke-linecap="butt" stroke-linejoin="miter" stroke-width="0.5"/>
   <polyline fill="none" points="48.7287,24.0645 48.7287,26.9639" stroke="#262626" stroke-linecap="butt" stroke-linejoin="miter" stroke-width="0.5"/>
   <polyline fill="none" points="106.828,285.565 106.828,282.666" stroke="#262626" stroke-linecap="butt" stroke-linejoin="miter" stroke-width="0.5"/>
   <polyline fill="none" points="106.828,24.0645 106.828,26.9639" stroke="#262626" stroke-linecap="butt" stroke-linejoin="miter" stroke-width="0.5"/>
   <polyline fill="none" points="164.928,285.565 164.928,282.666" stroke="#262626" stroke-linecap="butt" stroke-linejoin="miter" stroke-width="0.5"/>
   <polyline fill="none" points="164.928,24.0645 164.928,26.9639" stroke="#262626" stroke-linecap="butt" stroke-linejoin="miter" stroke-width="0.5"/>
   <polyline fill="none" points="223.027,285.565 223.027,282.666" stroke="#262626" stroke-linecap="butt" stroke-linejoin="miter" stroke-width="0.5"/>
   <polyline fill="none" points="223.027,24.0645 223.027,26.9639" stroke="#262626" stroke-linecap="butt" stroke-linejoin="miter" stroke-width="0.5"/>
   <polyline fill="none" points="281.127,285.565 281.127,282.666" stroke="#262626" stroke-linecap="butt" stroke-linejoin="miter" stroke-width="0.5"/>
   <polyline fill="none" points="281.127,24.0645 281.127,26.9639" stroke="#262626" stroke-linecap="butt" stroke-linejoin="miter" stroke-width="0.5"/>
   <polyline fill="none" points="339.226,285.565 339.226,282.666" stroke="#262626" stroke-linecap="butt" stroke-linejoin="miter" stroke-width="0.5"/>
   <polyline fill="none" points="339.226,24.0645 339.226,26.9639" stroke="#262626" stroke-linecap="butt" stroke-linejoin="miter" stroke-width="0.5"/>
   <g font-family="FreeSans" font-size="10" font-style="normal" font-weight="normal" transform="translate(45.7287,301.051) rotate(-0,3,-8)" xml:space="preserve">
    <text fill="rgb(38,38,38)" x="0 " y="-0">0</text>
   </g>
   <g font-family="FreeSans" font-size="10" font-style="normal" font-weight="normal" transform="translate(99.3282,301.051) rotate(-0,7.5,-8)" xml:space="preserve">
    <text fill="rgb(38,38,38)" x="0 6 9 " y="-0">0.2</text>
   </g>
   <g font-family="FreeSans" font-size="10" font-style="normal" font-weight="normal" transform="translate(157.428,301.051) rotate(-0,7.5,-8)" xml:space="preserve">
    <text fill="rgb(38,38,38)" x="0 6 9 " y="-0">0.4</text>
   </g>
   <g font-family="FreeSans" font-size="10" font-style="normal" font-weight="normal" transform="translate(215.527,301.051) rotate(-0,7.5,-8)" xml:space="preserve">
    <text fill="rgb(38,38,38)" x="0 6 9 " y="-0">0.6</text>
   </g>
   <g font-family="FreeSans" font-size="10" font-style="normal" font-weight="normal" transform="translate(273.627,301.051) rotate(-0,7.5,-8)" xml:space="preserve">
    <text fill="rgb(38,38,38)" x="0 6 9 " y="-0">0.8</text>
   </g>
   <g font-family="FreeSans" font-size="10" font-style="normal" font-weight="normal" transform="translate(336.226,301.051) rotate(-0,3,-8)" xml:space="preserve">
    <text fill="rgb(38,38,38)" x="0 " y="-0">1</text>
   </g>
   <polyline fill="none" points="48.7287,285.565 339.226,285.565" stroke="#262626" stroke-dasharray="16,0" stroke-linecap="butt" stroke-linejoin="miter" stroke-opacity="0.15" stroke-width="0.5"/>
   <polyline fill="none" points="48.7287,233.265 339.226,233.265" stroke="#262626" stroke-dasharray="16,0" stroke-linecap="butt" stroke-linejoin="miter" stroke-opacity="0.15" stroke-width="0.5"/>
   <polyline fill="none" points="48.7287,180.965 339.226,180.965" stroke="#262626" stroke-dasharray="16,0" stroke-linecap="butt" stroke-linejoin="miter" stroke-opacity="0.15" stroke-width="0.5"/>
   <polyline fill="none" points="48.7287,128.665 339.226,128.665" stroke="#262626" stroke-dasharray="16,0" stroke-linecap="butt" stroke-linejoin="miter" stroke-opacity="0.15" stroke-width="0.5"/>
   <polyline fill="none" points="48.7287,76.3645 339.226,76.3645" stroke="#262626" stroke-dasharray="16,0" stroke-linecap="butt" stroke-linejoin="miter" stroke-opacity="0.15" stroke-width="0.5"/>
   <polyline fill="none" points="48.7287,24.0645 339.226,24.0645" stroke="#262626" stroke-dasharray="16,0" stroke-linecap="butt" stroke-linejoin="miter" stroke-opacity="0.15" stroke-width="0.5"/>
   <polyline fill="none" points="48.7287,285.565 51.6386,285.565" stroke="#262626" stroke-linecap="butt" stroke-linejoin="miter" stroke-width="0.5"/>
   <polyline fill="none" points="339.226,285.565 336.316,285.565" stroke="#262626" stroke-linecap="butt" stroke-linejoin="miter" stroke-width="0.5"/>
   <polyline fill="none" points="48.7287,233.265 51.6386,233.265" stroke="#262626" stroke-linecap="butt" stroke-linejoin="miter" stroke-width="0.5"/>
   <polyline fill="none" points="339.226,233.265 336.316,233.265" stroke="#262626" stroke-linecap="butt" stroke-linejoin="miter" stroke-width="0.5"/>
   <polyline fill="none" points="48.7287,180.965 51.6386,180.965" stroke="#262626" stroke-linecap="butt" stroke-linejoin="miter" stroke-width="0.5"/>
   <polyline fill="none" points="339.226,180.965 336.316,180.965" stroke="#262626" stroke-linecap="butt" stroke-linejoin="miter" stroke-width="0.5"/>
   <polyline fill="none" points="48.7287,128.665 51.6386,128.665" stroke="#262626" stroke-linecap="butt" stroke-linejoin="miter" stroke-width="0.5"/>
   <polyline fill="none" points="339.226,128.665 336.316,128.665" stroke="#262626" stroke-linecap="butt" stroke-linejoin="miter" stroke-width="0.5"/>
   <polyline fill="none" points="48.7287,76.3645 51.6386,76.3645" stroke="#262626" stroke-linecap="butt" stroke-linejoin="miter" stroke-width="0.5"/>
   <polyline fill="none" points="339.226,76.3645 336.316,76.3645" stroke="#262626" stroke-linecap="butt" stroke-linejoin="miter" stroke-width="0.5"/>
   <polyline fill="none" points="48.7287,24.0645 51.6386,24.0645" stroke="#262626" stroke-linecap="butt" stroke-linejoin="miter" stroke-width="0.5"/>
   <polyline fill="none" points="339.226,24.0645 336.316,24.0645" stroke="#262626" stroke-linecap="butt" stroke-linejoin="miter" stroke-width="0.5"/>
   <g font-family="FreeSans" font-size="10" font-style="normal" font-weight="normal" transform="translate(37.7201,289.565) rotate(-0,6,-4)" xml:space="preserve">
    <text fill="rgb(38,38,38)" x="0 " y="-0">0</text>
   </g>
   <g font-family="FreeSans" font-size="10" font-style="normal" font-weight="normal" transform="translate(31.7201,237.265) rotate(-0,12,-4)" xml:space="preserve">
    <text fill="rgb(38,38,38)" x="0 6 " y="-0">10</text>
   </g>
   <g font-family="FreeSans" font-size="10" font-style="normal" font-weight="normal" transform="translate(31.7201,184.965) rotate(-0,12,-4)" xml:space="preserve">
    <text fill="rgb(38,38,38)" x="0 6 " y="-0">20</text>
   </g>
   <g font-family="FreeSans" font-size="10" font-style="normal" font-weight="normal" transform="translate(31.7201,132.665) rotate(-0,12,-4)" xml:space="preserve">
    <text fill="rgb(38,38,38)" x="0 6 " y="-0">30</text>
   </g>
   <g font-family="FreeSans" font-size="10" font-style="normal" font-weight="normal" transform="translate(31.7201,80.3646) rotate(-0,12,-4)" xml:space="preserve">
    <text fill="rgb(38,38,38)" x="0 6 " y="-0">40</text>
   </g>
   <g font-family="FreeSans" font-size="10" font-style="normal" font-weight="normal" transform="translate(31.7201,28.0645) rotate(-0,12,-4)" xml:space="preserve">
    <text fill="rgb(38,38,38)" x="0 6 " y="-0">50</text>
   </g>
   <polyline fill="none" points="48.7287,285.565 339.226,285.565" stroke="#262626" stroke-dasharray="16,0" stroke-linecap="square" stroke-linejoin="miter" stroke-width="0.5"/>
   <polyline fill="none" points="48.7287,24.0645 339.226,24.0645" stroke="#262626" stroke-dasharray="16,0" stroke-linecap="square" stroke-linejoin="miter" stroke-width="0.5"/>
   <polyline fill="none" points="48.7287,285.565 48.7287,24.0645" stroke="#262626" stroke-dasharray="16,0" stroke-linecap="square" stroke-linejoin="miter" stroke-width="0.5"/>
   <polyline fill="none" points="339.226,285.565 339.226,24.0645" stroke="#262626" stroke-dasharray="16,0" stroke-linecap="square" stroke-linejoin="miter" stroke-width="0.5"/>
   <g font-family="FreeSans" font-size="11" font-style="normal" font-weight="normal" transform="translate(101.978,318.051) rotate(-0,92,-12)" xml:space="preserve">
    <text fill="rgb(38,38,38)" x="0 8 14 18 27 33 35 37 42 48 54 57 64 68 74 80 86 92 98 104 109 112 116 122 124 127 131 137 143 146 151 157 166 172 174 180 " y="-3">Normalized Frequency (pi rad/sample)</text>
   </g>
   <g font-family="FreeSans" font-size="11" font-style="normal" font-weight="normal" transform="translate(-3.27992,154.815) rotate(-90,30,0)" xml:space="preserve">
    <text fill="rgb(38,38,38)" x="0 8 12 18 24 30 33 41 47 49 55 " y="-3">Group Delay</text>
   </g>
   <g font-family="FreeSans" font-size="11" font-style="normal" font-weight="bold" transform="translate(94.9776,14.0645) rotate(-0,99,0)" xml:space="preserve">
    <text fill="rgb(0,0,0)" x="0 8 15 21 28 34 37 45 52 55 58 64 71 78 81 88 92 99 105 109 112 118 121 124 128 135 141 147 153 156 160 163 166 170 176 180 186 189 192 " y="-3">Cheby BP, 2nd order all-pass filters: 8</text>
   </g>
   <polyline fill="none" points="77.7785,281.169 79.3382,281.068 80.8979,280.958 82.4576,280.84 84.0173,280.711 85.577,280.572 87.1368,280.422 88.6965,280.259 90.2562,280.082 91.8159,279.891 93.3757,279.684 94.9354,279.458 96.4951,279.213 98.0548,278.946 99.6145,278.655 101.174,278.337 102.734,277.989 104.294,277.606 105.853,277.186 107.413,276.722 108.973,276.209 110.533,275.639 112.092,275.004 113.652,274.296 115.212,273.497 116.771,272.597 118.331,271.577 119.891,270.412 121.451,269.07 123.01,267.517 124.57,265.705 126.13,263.563 127.689,260.996 129.249,257.89 130.809,254.069 132.369,249.254 133.928,243.053 135.488,234.904 137.048,223.97 138.608,209.028 140.167,189.369 141.727,166.832 143.287,149.063 144.846,146.939 146.406,158.492 147.966,173.359 149.526,185.197 151.085,193.01 152.645,197.908 154.205,200.858 155.764,202.471 157.324,203.071 158.884,202.815 160.444,201.717 162.003,199.639 163.563,196.266 165.123,191.102 166.682,183.62 168.242,173.96 169.802,164.775 171.362,161.605 172.921,168.813 174.481,184.318 176.041,201.624 177.601,216.851 179.16,228.976 180.72,238.256 182.28,245.427 183.839,251.034 185.399,255.48 186.959,259.054 188.519,261.99 190.078,264.433 191.638,266.486 193.198,268.23 194.757,269.729 196.317,271.03 197.877,272.163 199.437,273.157 200.996,274.037 202.556,274.82 204.116,275.518 205.675,276.143 207.235,276.708 208.795,277.218 210.355,277.68 211.914,278.102 213.474,278.486 215.034,278.839 216.594,279.162 218.153,279.459 219.713,279.733 221.273,279.987 222.832,280.222 224.392,280.44 225.952,280.643 227.512,280.831 229.071,281.007 230.631,281.172 232.191,281.326 233.75,281.47 235.31,281.605 236.87,281.732 238.43,281.852 239.989,281.964 241.549,282.07 243.109,282.17 244.668,282.265 246.228,282.354 247.788,282.438 249.348,282.518 250.907,282.594 252.467,282.666 254.027,282.734 255.587,282.799 257.146,282.86 258.706,282.918 260.266,282.974 261.825,283.027 263.385,283.077 264.945,283.125 266.505,283.171 268.064,283.215 269.624,283.256 271.184,283.296 272.743,283.333 274.303,283.37 275.863,283.404 277.423,283.437 278.982,283.468 280.542,283.498 282.102,283.527 283.661,283.554 285.221,283.58 286.781,283.605 288.341,283.628 289.9,283.651 291.46,283.672 293.02,283.693 294.579,283.712 296.139,283.731 297.699,283.749 299.259,283.766 300.818,283.782 302.378,283.797 303.938,283.811 305.498,283.825 307.057,283.838 308.617,283.85 310.177,283.861" stroke="#0071bc" stroke-linecap="butt" stroke-linejoin="round" stroke-width="0.5"/>
   <polyline fill="none" points="77.7785,255.31 79.3382,251.596 80.8979,246.808 82.4576,240.506 84.0173,232.022 85.577,220.338 87.1368,203.949 88.6965,180.876 90.2562,149.538 91.8159,112.308 93.3757,81.9966 94.9354,78.1732 96.4951,102.592 98.0548,136.339 99.6145,164.844 101.174,184.555 102.734,196.589 104.294,202.649 105.853,203.882 107.413,200.744 108.973,193.062 110.533,180.106 112.092,160.797 113.652,134.563 115.212,103.76 116.771,77.2048 118.331,67.7709 119.891,78.65 121.451,98.5285 123.01,115.028 124.57,122.645 126.13,120.809 127.689,111.596 129.249,99.8132 130.809,93.0371 132.369,97.8157 133.928,113.964 135.488,135.301 137.048,155.713 138.608,172.224 140.167,184.255 141.727,192.225 143.287,196.742 144.846,198.314 146.406,197.293 147.966,193.922 149.526,188.423 151.085,181.147 152.645,172.751 154.205,164.372 155.764,157.604 157.324,154.08 158.884,154.73 160.444,159.242 162.003,166.245 163.563,174.033 165.123,181.192 166.682,186.813 168.242,190.402 169.802,191.696 171.362,190.508 172.921,186.631 174.481,179.816 176.041,169.831 177.601,156.68 179.16,141.037 180.72,124.814 182.28,111.286 183.839,103.768 185.399,103.131 186.959,106.781 188.519,110.492 190.078,110.845 191.638,106.365 193.198,97.8402 194.757,88.4984 196.317,83.1843 197.877,85.3481 199.437,93.9425 200.996,104.21 202.556,111.152 204.116,111.62 205.675,104.736 207.235,92.5755 208.795,81.5541 210.355,81.0225 211.914,95.7116 213.474,120.69 215.034,147.387 216.594,170.536 218.153,188.721 219.713,202.37 221.273,212.374 222.832,219.541 224.392,224.474 225.952,227.57 227.512,229.061 229.071,229.036 230.631,227.457 232.191,224.168 233.75,218.89 235.31,211.245 236.87,200.834 238.43,187.483 239.989,171.792 241.549,155.996 243.109,144.4 244.668,141.763 246.228,149.673 247.788,165.048 249.348,182.956 250.907,199.816 252.467,214.116 254.027,225.661 255.587,234.803 257.146,242.018 258.706,247.742 260.266,252.323 261.825,256.03 263.385,259.064 264.945,261.574 266.505,263.673 268.064,265.447 269.624,266.958 271.184,268.258 272.743,269.384 274.303,270.367 275.863,271.23 277.423,271.992 278.982,272.67 280.542,273.275 282.102,273.817 283.661,274.305 285.221,274.746 286.781,275.146 288.341,275.51 289.9,275.842 291.46,276.145 293.02,276.423 294.579,276.678 296.139,276.912 297.699,277.128 299.259,277.328 300.818,277.511 302.378,277.681 303.938,277.838 305.498,277.983 307.057,278.117 308.617,278.24 310.177,278.355" stroke="#d85218" stroke-linecap="butt" stroke-linejoin="round" stroke-width="0.5"/>
   <polyline fill="none" points="77.7785,250.914 79.3382,247.099 80.8979,242.202 82.4576,235.781 84.0173,227.168 85.577,215.345 87.1368,198.806 88.6965,175.569 90.2562,144.056 91.8159,106.634 93.3757,76.1152 94.9354,72.0666 96.4951,96.24 98.0548,129.72 99.6145,157.935 101.174,177.327 102.734,189.012 104.294,194.69 105.853,195.502 107.413,191.901 108.973,183.706 110.533,170.18 112.092,150.237 113.652,123.294 115.212,91.6924 116.771,64.237 118.331,53.7827 119.891,63.4973 121.451,82.0338 123.01,96.9803 124.57,102.785 126.13,98.8064 127.689,87.0273 129.249,72.1378 130.809,61.5407 132.369,61.5045 133.928,71.4518 135.488,84.6394 137.048,94.1181 138.608,95.6868 140.167,88.0593 141.727,73.4918 143.287,60.2396 144.846,59.6879 146.406,70.2201 147.966,81.7157 149.526,88.0556 151.085,88.5919 152.645,85.0937 154.205,79.6655 155.764,74.5105 157.324,71.5859 158.884,71.9804 160.444,75.3934 162.003,80.3195 163.563,84.7346 165.123,86.7293 166.682,84.8678 168.242,78.7968 169.802,70.9066 171.362,66.5486 172.921,69.8796 174.481,78.5685 176.041,85.8897 177.601,87.9665 179.16,84.4477 180.72,77.5048 182.28,71.1485 183.839,69.2379 185.399,73.0464 186.959,80.27 188.519,86.9164 190.078,89.7126 191.638,87.2857 193.198,80.5049 194.757,72.6628 196.317,68.6491 197.877,71.9457 199.437,81.5347 200.996,92.6827 202.556,100.407 204.116,101.573 205.675,95.3147 207.235,83.7182 208.795,73.2075 210.355,73.138 211.914,88.2482 213.474,113.612 215.034,140.661 216.594,164.133 218.153,182.614 219.713,196.539 221.273,206.796 222.832,214.198 224.392,219.349 225.952,222.648 227.512,224.328 229.071,224.478 230.631,223.064 232.191,219.929 233.75,214.795 235.31,207.285 236.87,197.001 238.43,183.77 239.989,168.191 241.549,152.501 243.109,141.005 244.668,138.463 246.228,146.462 247.788,161.921 249.348,179.909 250.907,196.845 252.467,211.216 254.027,222.829 255.587,232.036 257.146,239.313 258.706,245.095 260.266,249.732 261.825,253.492 263.385,256.576 264.945,259.134 266.505,261.279 268.064,263.096 269.624,264.649 271.184,265.989 272.743,267.153 274.303,268.171 275.863,269.069 277.423,269.864 278.982,270.573 280.542,271.208 282.102,271.778 283.661,272.294 285.221,272.761 286.781,273.186 288.341,273.573 289.9,273.928 291.46,274.252 293.02,274.551 294.579,274.825 296.139,275.079 297.699,275.312 299.259,275.528 300.818,275.728 302.378,275.913 303.938,276.084 305.498,276.242 307.057,276.389 308.617,276.525 310.177,276.651" stroke="#ecb01f" stroke-linecap="butt" stroke-linejoin="round" stroke-width="0.5"/>
   <polyline fill="none" points="77.7785,285.472 79.3382,285.293 80.8979,285.133 82.4576,285.002 84.0173,284.917 85.577,284.895 87.1368,284.958 88.6965,285.116 90.2562,285.337 91.8159,285.519 93.3757,285.565 94.9354,285.563 96.4951,285.545 98.0548,285.415 99.6145,285.251 101.174,285.19 102.734,285.302 104.294,285.533 105.853,285.086 107.413,284.552 108.973,284.051 110.533,283.775 112.092,283.956 113.652,284.673 115.212,285.453 116.771,285.41 118.331,284.926 119.891,285.26 121.451,285.535 123.01,284.668 124.57,283.548 126.13,283.692 127.689,285.102 129.249,285.297 130.809,282.774 132.369,281.782 133.928,284.744 135.488,284.439 137.048,276.214 138.608,269.68 140.167,278.333 141.727,283.475 143.287,243.5 144.846,231.597 146.406,274.756 147.966,283.113 149.526,267.068 151.085,264.945 152.645,276.329 154.205,285.078 155.764,283.201 157.324,277.637 158.884,278.529 160.444,284.207 162.003,284.573 163.563,276.904 165.123,270.928 166.682,276.569 168.242,285.46 169.802,276.324 171.362,264.007 172.921,276.437 174.481,285.536 176.041,280.548 177.601,279.556 179.16,283.692 180.72,285.555 182.28,284.307 183.839,283.983 185.399,285.167 186.959,285.504 188.519,284.787 190.078,284.489 191.638,285.022 193.198,285.534 194.757,285.443 196.317,285.263 197.877,285.461 199.437,285.537 200.996,285.162 202.556,284.792 204.116,284.861 205.675,285.254 207.235,285.537 208.795,285.549 210.355,285.551 211.914,285.517 213.474,285.097 215.034,284.411 216.594,283.856 218.153,283.628 219.713,283.705 221.273,283.988 222.832,284.379 224.392,284.806 225.952,285.219 227.512,285.54 229.071,285.229 230.631,284.989 232.191,284.824 233.75,284.738 235.31,284.731 236.87,284.798 238.43,284.926 239.989,285.084 241.549,285.231 243.109,285.325 244.668,285.346 246.228,285.288 247.788,285.159 249.348,284.985 250.907,284.806 252.467,284.655 254.027,284.545 255.587,284.478 257.146,284.45 258.706,284.455 260.266,284.486 261.825,284.538 263.385,284.607 264.945,284.688 266.505,284.778 268.064,284.876 269.624,284.98 271.184,285.087 272.743,285.197 274.303,285.309 275.863,285.421 277.423,285.534 278.982,285.484 280.542,285.372 282.102,285.262 283.661,285.153 285.221,285.047 286.781,284.942 288.341,284.84 289.9,284.74 291.46,284.642 293.02,284.548 294.579,284.456 296.139,284.367 297.699,284.281 299.259,284.199 300.818,284.119 302.378,284.042 303.938,283.969 305.498,283.898 307.057,283.831 308.617,283.767 310.177,283.706" stroke="#7d2e8d" stroke-linecap="butt" stroke-linejoin="round" stroke-width="0.5"/>
   <polyline fill="none" points="77.7785,78.0533 79.3382,78.0533 80.8979,78.0533 82.4576,78.0533 84.0173,78.0533 85.577,78.0533 87.1368,78.0533 88.6965,78.0533 90.2562,78.0533 91.8159,78.0533 93.3757,78.0533 94.9354,78.0533 96.4951,78.0533 98.0548,78.0533 99.6145,78.0533 101.174,78.0533 102.734,78.0533 104.294,78.0533 105.853,78.0533 107.413,78.0533 108.973,78.0533 110.533,78.0533 112.092,78.0533 113.652,78.0533 115.212,78.0533 116.771,78.0533 118.331,78.0533 119.891,78.0533 121.451,78.0533 123.01,78.0533 124.57,78.0533 126.13,78.0533 127.689,78.0533 129.249,78.0533 130.809,78.0533 132.369,78.0533 133.928,78.0533 135.488,78.0533 137.048,78.0533 138.608,78.0533 140.167,78.0533 141.727,78.0533 143.287,78.0533 144.846,78.0533 146.406,78.0533 147.966,78.0533 149.526,78.0533 151.085,78.0533 152.645,78.0533 154.205,78.0533 155.764,78.0533 157.324,78.0533 158.884,78.0533 160.444,78.0533 162.003,78.0533 163.563,78.0533 165.123,78.0533 166.682,78.0533 168.242,78.0533 169.802,78.0533 171.362,78.0533 172.921,78.0533 174.481,78.0533 176.041,78.0533 177.601,78.0533 179.16,78.0533 180.72,78.0533 182.28,78.0533 183.839,78.0533 185.399,78.0533 186.959,78.0533 188.519,78.0533 190.078,78.0533 191.638,78.0533 193.198,78.0533 194.757,78.0533 196.317,78.0533 197.877,78.0533 199.437,78.0533 200.996,78.0533 202.556,78.0533 204.116,78.0533 205.675,78.0533 207.235,78.0533 208.795,78.0533 210.355,78.0533 211.914,78.0533 213.474,78.0533 215.034,78.0533 216.594,78.0533 218.153,78.0533 219.713,78.0533 221.273,78.0533 222.832,78.0533 224.392,78.0533 225.952,78.0533 227.512,78.0533 229.071,78.0533 230.631,78.0533 232.191,78.0533 233.75,78.0533 235.31,78.0533 236.87,78.0533 238.43,78.0533 239.989,78.0533 241.549,78.0533 243.109,78.0533 244.668,78.0533 246.228,78.0533 247.788,78.0533 249.348,78.0533 250.907,78.0533 252.467,78.0533 254.027,78.0533 255.587,78.0533 257.146,78.0533 258.706,78.0533 260.266,78.0533 261.825,78.0533 263.385,78.0533 264.945,78.0533 266.505,78.0533 268.064,78.0533 269.624,78.0533 271.184,78.0533 272.743,78.0533 274.303,78.0533 275.863,78.0533 277.423,78.0533 278.982,78.0533 280.542,78.0533 282.102,78.0533 283.661,78.0533 285.221,78.0533 286.781,78.0533 288.341,78.0533 289.9,78.0533 291.46,78.0533 293.02,78.0533 294.579,78.0533 296.139,78.0533 297.699,78.0533 299.259,78.0533 300.818,78.0533 302.378,78.0533 303.938,78.0533 305.498,78.0533 307.057,78.0533 308.617,78.0533 310.177,78.0533" stroke="#76ab2f" stroke-linecap="butt" stroke-linejoin="round" stroke-width="0.5"/>
   <polyline fill="none" points="77.7785,285.565 79.3382,285.565 80.8979,285.565 82.4576,285.564 84.0173,285.564 85.577,285.564 87.1368,285.564 88.6965,285.564 90.2562,285.564 91.8159,285.563 93.3757,285.563 94.9354,285.563 96.4951,285.563 98.0548,285.563 99.6145,285.564 101.174,285.564 102.734,285.564 104.294,285.565 105.853,285.564 107.413,285.563 108.973,285.561 110.533,285.559 112.092,285.557 113.652,285.553 115.212,285.549 116.771,285.543 118.331,285.535 119.891,285.526 121.451,285.513 123.01,285.496 124.57,285.475 126.13,285.446 127.689,285.408 129.249,285.356 130.809,285.285 132.369,285.187 133.928,285.05 135.488,284.855 137.048,284.574 138.608,284.168 140.167,283.589 141.727,282.818 143.287,281.939 144.846,281.188 146.406,280.747 147.966,280.565 149.526,280.508 151.085,280.487 152.645,280.468 154.205,280.444 155.764,280.414 157.324,280.381 158.884,280.346 160.444,280.313 162.003,280.283 163.563,280.258 165.123,280.246 166.682,280.266 168.242,280.362 169.802,280.616 171.362,281.11 172.921,281.828 174.481,282.62 176.041,283.33 177.601,283.892 179.16,284.312 180.72,284.619 182.28,284.843 183.839,285.008 185.399,285.131 186.959,285.224 188.519,285.294 190.078,285.349 191.638,285.391 193.198,285.424 194.757,285.451 196.317,285.472 197.877,285.489 199.437,285.502 200.996,285.513 202.556,285.523 204.116,285.53 205.675,285.536 207.235,285.542 208.795,285.546 210.355,285.549 211.914,285.552 213.474,285.555 215.034,285.557 216.594,285.559 218.153,285.56 219.713,285.561 221.273,285.562 222.832,285.563 224.392,285.564 225.952,285.565 227.512,285.565 229.071,285.565 230.631,285.564 232.191,285.564 233.75,285.564 235.31,285.564 236.87,285.564 238.43,285.563 239.989,285.563 241.549,285.563 243.109,285.563 244.668,285.563 246.228,285.563 247.788,285.563 249.348,285.563 250.907,285.564 252.467,285.564 254.027,285.564 255.587,285.564 257.146,285.564 258.706,285.564 260.266,285.564 261.825,285.564 263.385,285.564 264.945,285.564 266.505,285.564 268.064,285.564 269.624,285.565 271.184,285.565 272.743,285.565 274.303,285.565 275.863,285.565 277.423,285.565 278.982,285.565 280.542,285.565 282.102,285.565 283.661,285.565 285.221,285.565 286.781,285.565 288.341,285.564 289.9,285.564 291.46,285.564 293.02,285.564 294.579,285.564 296.139,285.564 297.699,285.564 299.259,285.564 300.818,285.564 302.378,285.564 303.938,285.564 305.498,285.564 307.057,285.564 308.617,285.564 310.177,285.564" stroke="#4cbded" stroke-linecap="butt" stroke-linejoin="round" stroke-width="0.5"/>
  </g>
  <clipPath id="cp00374320">
   <polygon points="0,320 374,320 374,0 0,0"/>
  </clipPath>
  <g clip-path="url(#cp00374320)">
   <polygon fill="#ffffff" points="245.209,277.561 331.223,277.561 331.223,193.146 245.209,193.146" shape-rendering="crispEdges"/>
   <polyline fill="none" points="245.209,277.561 331.223,277.561" stroke="#262626" stroke-dasharray="16,0" stroke-linecap="square" stroke-linejoin="miter" stroke-width="0.5"/>
   <polyline fill="none" points="245.209,193.146 331.223,193.146" stroke="#262626" stroke-dasharray="16,0" stroke-linecap="square" stroke-linejoin="miter" stroke-width="0.5"/>
   <polyline fill="none" points="245.209,277.561 245.209,193.146" stroke="#262626" stroke-dasharray="16,0" stroke-linecap="square" stroke-linejoin="miter" stroke-width="0.5"/>
   <polyline fill="none" points="331.223,277.561 331.223,193.146" stroke="#262626" stroke-dasharray="16,0" stroke-linecap="square" stroke-linejoin="miter" stroke-width="0.5"/>
   <polyline fill="none" points="249.211,202.147 269.219,202.147" stroke="#0071bc" stroke-linecap="butt" stroke-linejoin="round" stroke-width="0.5"/>
   <g font-family="FreeSans" font-size="9" font-style="normal" font-weight="normal" transform="translate(273.221,207.147) rotate(-0,-0,-5)" xml:space="preserve">
    <text fill="rgb(0,0,0)" x="0 5 8 13 15 18 23 " y="-2">grd ref</text>
   </g>
   <polyline fill="none" points="249.211,215.649 269.219,215.649" stroke="#d85218" stroke-linecap="butt" stroke-linejoin="round" stroke-width="0.5"/>
   <g font-family="FreeSans" font-size="9" font-style="normal" font-weight="normal" transform="translate(273.221,220.149) rotate(-0,-0,-4.5)" xml:space="preserve">
    <text fill="rgb(0,0,0)" x="0 5 10 " y="-2">opt</text>
   </g>
   <polyline fill="none" points="249.211,229.151 269.219,229.151" stroke="#ecb01f" stroke-linecap="butt" stroke-linejoin="round" stroke-width="0.5"/>
   <g font-family="FreeSans" font-size="9" font-style="normal" font-weight="normal" transform="translate(273.221,234.151) rotate(-0,-0,-5)" xml:space="preserve">
    <text fill="rgb(0,0,0)" x="0 3 8 11 16 21 26 " y="-2">ref+opt</text>
   </g>
   <polyline fill="none" points="249.211,242.354 269.219,242.354" stroke="#7d2e8d" stroke-linecap="butt" stroke-linejoin="round" stroke-width="0.5"/>
   <g font-family="FreeSans" font-size="9" font-style="normal" font-weight="normal" transform="translate(273.221,245.354) rotate(-0,-0,-3)" xml:space="preserve">
    <text fill="rgb(0,0,0)" x="0 5 8 " y="-0">err</text>
   </g>
   <polyline fill="none" points="249.211,255.058 269.219,255.058" stroke="#76ab2f" stroke-linecap="butt" stroke-linejoin="round" stroke-width="0.5"/>
   <g font-family="FreeSans" font-size="9" font-style="normal" font-weight="normal" transform="translate(273.221,259.558) rotate(-0,-0,-4.5)" xml:space="preserve">
    <text fill="rgb(0,0,0)" x="0 3 8 11 16 21 " y="-2">target</text>
   </g>
   <polyline fill="none" points="249.211,268.56 269.219,268.56" stroke="#4cbded" stroke-linecap="butt" stroke-linejoin="round" stroke-width="0.5"/>
   <g font-family="FreeSans" font-size="9" font-style="normal" font-weight="normal" transform="translate(273.221,273.56) rotate(-0,-0,-5)" xml:space="preserve">
    <text fill="rgb(0,0,0)" x="0 5 8 11 13 20 25 27 32 37 40 44 46 48 50 52 " y="-2">err weights     </text>
   </g>
  </g>
 </g>
</svg>
