<?xml version='1.0' encoding='UTF-8' standalone='no'?>
<svg height="581pt" xmlns="http://www.w3.org/2000/svg" width="1170pt" xmlns:xlink="http://www.w3.org/1999/xlink" viewBox="0 0 1170 581">
 <title>Figure 1</title>
 <desc>
Creator: GL2PS 1.4.2, (C) 1999-2020 C. Geuzaine
For: Octave
CreationDate: Tue Sep 10 14:15:26 2024
</desc>
 <defs/>
 <polygon fill="#ffffff" points="0,0 1170,0 1170,581 0,581"/>
 <g>
  <polygon shape-rendering="crispEdges" fill="#ffffff" points="0,581 1170,581 1170,0 0,0"/>
  <clipPath id="cp001170581">
   <polygon points="0,581 1170,581 1170,0 0,0"/>
  </clipPath>
  <g clip-path="url(#cp001170581)">
   <polygon shape-rendering="crispEdges" fill="#ffffff" points="152.173,517.559 1059.36,517.559 1059.36,43.6145 152.173,43.6145"/>
   <polyline stroke-linejoin="miter" stroke-opacity="0.15" fill="none" stroke="#262626" stroke-width="0.5" points="152.173,517.559 152.173,43.6145" stroke-dasharray="16,0" stroke-linecap="butt"/>
   <polyline stroke-linejoin="miter" stroke-opacity="0.15" fill="none" stroke="#262626" stroke-width="0.5" points="333.609,517.559 333.609,43.6145" stroke-dasharray="16,0" stroke-linecap="butt"/>
   <polyline stroke-linejoin="miter" stroke-opacity="0.15" fill="none" stroke="#262626" stroke-width="0.5" points="515.046,517.559 515.046,43.6145" stroke-dasharray="16,0" stroke-linecap="butt"/>
   <polyline stroke-linejoin="miter" stroke-opacity="0.15" fill="none" stroke="#262626" stroke-width="0.5" points="696.482,517.559 696.482,43.6145" stroke-dasharray="16,0" stroke-linecap="butt"/>
   <polyline stroke-linejoin="miter" stroke-opacity="0.15" fill="none" stroke="#262626" stroke-width="0.5" points="877.919,517.559 877.919,43.6145" stroke-dasharray="16,0" stroke-linecap="butt"/>
   <polyline stroke-linejoin="miter" stroke-opacity="0.15" fill="none" stroke="#262626" stroke-width="0.5" points="1059.36,517.559 1059.36,43.6145" stroke-dasharray="16,0" stroke-linecap="butt"/>
   <polyline stroke-linejoin="miter" fill="none" stroke="#262626" stroke-width="0.5" points="152.173,517.559 152.173,508.489" stroke-linecap="butt"/>
   <polyline stroke-linejoin="miter" fill="none" stroke="#262626" stroke-width="0.5" points="152.173,43.6145 152.173,52.6853" stroke-linecap="butt"/>
   <polyline stroke-linejoin="miter" fill="none" stroke="#262626" stroke-width="0.5" points="333.609,517.559 333.609,508.489" stroke-linecap="butt"/>
   <polyline stroke-linejoin="miter" fill="none" stroke="#262626" stroke-width="0.5" points="333.609,43.6145 333.609,52.6853" stroke-linecap="butt"/>
   <polyline stroke-linejoin="miter" fill="none" stroke="#262626" stroke-width="0.5" points="515.046,517.559 515.046,508.489" stroke-linecap="butt"/>
   <polyline stroke-linejoin="miter" fill="none" stroke="#262626" stroke-width="0.5" points="515.046,43.6145 515.046,52.6853" stroke-linecap="butt"/>
   <polyline stroke-linejoin="miter" fill="none" stroke="#262626" stroke-width="0.5" points="696.482,517.559 696.482,508.489" stroke-linecap="butt"/>
   <polyline stroke-linejoin="miter" fill="none" stroke="#262626" stroke-width="0.5" points="696.482,43.6145 696.482,52.6853" stroke-linecap="butt"/>
   <polyline stroke-linejoin="miter" fill="none" stroke="#262626" stroke-width="0.5" points="877.919,517.559 877.919,508.489" stroke-linecap="butt"/>
   <polyline stroke-linejoin="miter" fill="none" stroke="#262626" stroke-width="0.5" points="877.919,43.6145 877.919,52.6853" stroke-linecap="butt"/>
   <polyline stroke-linejoin="miter" fill="none" stroke="#262626" stroke-width="0.5" points="1059.36,517.559 1059.36,508.489" stroke-linecap="butt"/>
   <polyline stroke-linejoin="miter" fill="none" stroke="#262626" stroke-width="0.5" points="1059.36,43.6145 1059.36,52.6853" stroke-linecap="butt"/>
   <g font-size="10" xml:space="preserve" font-weight="normal" transform="translate(149.173,533.058) rotate(-0,3,-8)" font-style="normal" font-family="FreeSans">
    <text y="-0" fill="rgb(38,38,38)" x="0 ">0</text>
   </g>
   <g font-size="10" xml:space="preserve" font-weight="normal" transform="translate(326.109,533.058) rotate(-0,7.5,-8)" font-style="normal" font-family="FreeSans">
    <text y="-0" fill="rgb(38,38,38)" x="0 6 9 ">0.2</text>
   </g>
   <g font-size="10" xml:space="preserve" font-weight="normal" transform="translate(507.546,533.058) rotate(-0,7.5,-8)" font-style="normal" font-family="FreeSans">
    <text y="-0" fill="rgb(38,38,38)" x="0 6 9 ">0.4</text>
   </g>
   <g font-size="10" xml:space="preserve" font-weight="normal" transform="translate(688.982,533.058) rotate(-0,7.5,-8)" font-style="normal" font-family="FreeSans">
    <text y="-0" fill="rgb(38,38,38)" x="0 6 9 ">0.6</text>
   </g>
   <g font-size="10" xml:space="preserve" font-weight="normal" transform="translate(870.419,533.058) rotate(-0,7.5,-8)" font-style="normal" font-family="FreeSans">
    <text y="-0" fill="rgb(38,38,38)" x="0 6 9 ">0.8</text>
   </g>
   <g font-size="10" xml:space="preserve" font-weight="normal" transform="translate(1056.36,533.058) rotate(-0,3,-8)" font-style="normal" font-family="FreeSans">
    <text y="-0" fill="rgb(38,38,38)" x="0 ">1</text>
   </g>
   <polyline stroke-linejoin="miter" stroke-opacity="0.15" fill="none" stroke="#262626" stroke-width="0.5" points="152.173,517.559 1059.36,517.559" stroke-dasharray="16,0" stroke-linecap="butt"/>
   <polyline stroke-linejoin="miter" stroke-opacity="0.15" fill="none" stroke="#262626" stroke-width="0.5" points="152.173,422.77 1059.36,422.77" stroke-dasharray="16,0" stroke-linecap="butt"/>
   <polyline stroke-linejoin="miter" stroke-opacity="0.15" fill="none" stroke="#262626" stroke-width="0.5" points="152.173,327.981 1059.36,327.981" stroke-dasharray="16,0" stroke-linecap="butt"/>
   <polyline stroke-linejoin="miter" stroke-opacity="0.15" fill="none" stroke="#262626" stroke-width="0.5" points="152.173,233.192 1059.36,233.192" stroke-dasharray="16,0" stroke-linecap="butt"/>
   <polyline stroke-linejoin="miter" stroke-opacity="0.15" fill="none" stroke="#262626" stroke-width="0.5" points="152.173,138.403 1059.36,138.403" stroke-dasharray="16,0" stroke-linecap="butt"/>
   <polyline stroke-linejoin="miter" stroke-opacity="0.15" fill="none" stroke="#262626" stroke-width="0.5" points="152.173,43.6145 1059.36,43.6145" stroke-dasharray="16,0" stroke-linecap="butt"/>
   <polyline stroke-linejoin="miter" fill="none" stroke="#262626" stroke-width="0.5" points="152.173,517.559 161.246,517.559" stroke-linecap="butt"/>
   <polyline stroke-linejoin="miter" fill="none" stroke="#262626" stroke-width="0.5" points="1059.36,517.559 1050.28,517.559" stroke-linecap="butt"/>
   <polyline stroke-linejoin="miter" fill="none" stroke="#262626" stroke-width="0.5" points="152.173,422.77 161.246,422.77" stroke-linecap="butt"/>
   <polyline stroke-linejoin="miter" fill="none" stroke="#262626" stroke-width="0.5" points="1059.36,422.77 1050.28,422.77" stroke-linecap="butt"/>
   <polyline stroke-linejoin="miter" fill="none" stroke="#262626" stroke-width="0.5" points="152.173,327.981 161.246,327.981" stroke-linecap="butt"/>
   <polyline stroke-linejoin="miter" fill="none" stroke="#262626" stroke-width="0.5" points="1059.36,327.981 1050.28,327.981" stroke-linecap="butt"/>
   <polyline stroke-linejoin="miter" fill="none" stroke="#262626" stroke-width="0.5" points="152.173,233.192 161.246,233.192" stroke-linecap="butt"/>
   <polyline stroke-linejoin="miter" fill="none" stroke="#262626" stroke-width="0.5" points="1059.36,233.192 1050.28,233.192" stroke-linecap="butt"/>
   <polyline stroke-linejoin="miter" fill="none" stroke="#262626" stroke-width="0.5" points="152.173,138.403 161.246,138.403" stroke-linecap="butt"/>
   <polyline stroke-linejoin="miter" fill="none" stroke="#262626" stroke-width="0.5" points="1059.36,138.403 1050.28,138.403" stroke-linecap="butt"/>
   <polyline stroke-linejoin="miter" fill="none" stroke="#262626" stroke-width="0.5" points="152.173,43.6145 161.246,43.6145" stroke-linecap="butt"/>
   <polyline stroke-linejoin="miter" fill="none" stroke="#262626" stroke-width="0.5" points="1059.36,43.6145 1050.28,43.6145" stroke-linecap="butt"/>
   <g font-size="10" xml:space="preserve" font-weight="normal" transform="translate(141.172,521.559) rotate(-0,6,-4)" font-style="normal" font-family="FreeSans">
    <text y="-0" fill="rgb(38,38,38)" x="0 ">0</text>
   </g>
   <g font-size="10" xml:space="preserve" font-weight="normal" transform="translate(129.172,426.77) rotate(-0,18,-4)" font-style="normal" font-family="FreeSans">
    <text y="-0" fill="rgb(38,38,38)" x="0 6 12 ">100</text>
   </g>
   <g font-size="10" xml:space="preserve" font-weight="normal" transform="translate(129.172,331.981) rotate(-0,18,-4)" font-style="normal" font-family="FreeSans">
    <text y="-0" fill="rgb(38,38,38)" x="0 6 12 ">200</text>
   </g>
   <g font-size="10" xml:space="preserve" font-weight="normal" transform="translate(129.172,237.192) rotate(-0,18,-4)" font-style="normal" font-family="FreeSans">
    <text y="-0" fill="rgb(38,38,38)" x="0 6 12 ">300</text>
   </g>
   <g font-size="10" xml:space="preserve" font-weight="normal" transform="translate(129.172,142.404) rotate(-0,18,-4)" font-style="normal" font-family="FreeSans">
    <text y="-0" fill="rgb(38,38,38)" x="0 6 12 ">400</text>
   </g>
   <g font-size="10" xml:space="preserve" font-weight="normal" transform="translate(129.172,47.6146) rotate(-0,18,-4)" font-style="normal" font-family="FreeSans">
    <text y="-0" fill="rgb(38,38,38)" x="0 6 12 ">500</text>
   </g>
   <polyline stroke-linejoin="miter" fill="none" stroke="#262626" stroke-width="0.5" points="152.173,517.559 1059.36,517.559" stroke-dasharray="16,0" stroke-linecap="square"/>
   <polyline stroke-linejoin="miter" fill="none" stroke="#262626" stroke-width="0.5" points="152.173,43.6145 1059.36,43.6145" stroke-dasharray="16,0" stroke-linecap="square"/>
   <polyline stroke-linejoin="miter" fill="none" stroke="#262626" stroke-width="0.5" points="152.173,517.559 152.173,43.6145" stroke-dasharray="16,0" stroke-linecap="square"/>
   <polyline stroke-linejoin="miter" fill="none" stroke="#262626" stroke-width="0.5" points="1059.36,517.559 1059.36,43.6145" stroke-dasharray="16,0" stroke-linecap="square"/>
   <polyline stroke-linejoin="round" fill="none" stroke="#0071bc" stroke-width="0.5" points="242.891,515.074 245.805,515.039 248.72,515.004 251.635,514.967 254.549,514.929 257.464,514.889 260.379,514.846 263.293,514.802 266.208,514.755 269.123,514.707 272.037,514.656 274.952,514.602 277.867,514.546 280.781,514.487 283.696,514.425 286.61,514.36 289.525,514.292 292.44,514.22 295.354,514.145 298.269,514.065 301.184,513.982 304.098,513.894 307.013,513.802 309.928,513.699 312.842,513.597 315.757,513.494 318.672,513.38 321.586,513.259 324.501,513.132 327.415,512.997 330.33,512.854 333.245,512.702 336.159,512.541 339.074,512.37 341.989,512.189 344.903,511.995 347.818,511.788 350.733,511.568 353.647,511.332 356.562,511.08 359.477,510.809 362.391,510.518 365.306,510.204 368.22,509.866 371.135,509.501 374.05,509.105 376.964,508.674 379.879,508.206 382.794,507.694 385.708,507.134 388.623,506.518 391.538,505.838 394.452,505.085 397.367,504.247 400.282,503.31 403.196,502.257 406.111,501.066 409.025,499.71 411.94,498.155 414.855,496.358 417.769,494.265 420.684,491.805 423.599,488.887 426.513,485.402 429.428,481.217 432.343,476.192 435.257,470.218 438.172,463.308 441.087,455.754 444.001,448.318 446.916,442.253 449.831,438.904 452.745,438.943 455.66,441.907 458.574,446.538 461.489,451.555 464.404,456.134 467.318,459.936 470.233,462.932 473.148,465.225 476.062,466.952 478.977,468.237 481.892,469.178 484.806,469.844 487.721,470.282 490.636,470.522 493.55,470.58 496.465,470.464 499.379,470.172 502.294,469.693 505.209,469.004 508.123,468.068 511.038,466.829 513.953,465.22 516.867,463.165 519.782,460.611 522.697,457.571 525.611,454.203 528.526,450.891 531.44,448.278 534.355,447.137 537.27,448.066 540.184,451.164 543.099,455.966 546.014,461.695 548.928,467.611 551.843,473.205 554.758,478.225 557.672,482.598 560.587,486.352 563.502,489.556 566.416,492.292 569.331,494.636 572.245,496.654 575.16,498.403 578.075,499.926 580.989,501.263 583.904,502.441 586.819,503.487 589.733,504.42 592.648,505.255 595.563,506.007 598.477,506.687 601.392,507.304 604.307,507.865 607.221,508.378 610.136,508.849 613.051,509.281 615.965,509.679 618.88,510.046 621.794,510.387 624.709,510.703 627.624,510.996 630.538,511.27 633.453,511.525 636.368,511.764 639.282,511.987 642.197,512.197 645.112,512.394 648.026,512.579 650.941,512.753 653.856,512.917 656.77,513.072 659.685,513.219 662.599,513.358 665.514,513.489 668.429,513.614 671.343,513.732 674.258,513.844 677.173,513.951 680.087,514.052 683.002,514.149 685.917,514.241 688.831,514.329 691.746,514.413 694.661,514.494 697.575,514.57 700.49,514.644 703.404,514.714 706.319,514.781 709.234,514.843 712.148,514.905 715.063,514.967 717.978,515.024 720.892,515.078 723.807,515.131 726.722,515.181 729.636,515.23 732.551,515.277 735.466,515.322 738.38,515.365 741.295,515.407 744.209,515.447 747.124,515.486 750.039,515.523 752.953,515.56 755.868,515.595 758.783,515.628 761.697,515.661 764.612,515.692 767.527,515.723 770.441,515.752 773.356,515.781 776.271,515.808 779.185,515.835 782.1,515.861 785.014,515.886 787.929,515.91 790.844,515.934 793.758,515.957 796.673,515.979 799.588,516 802.502,516.021 805.417,516.041 808.332,516.06 811.246,516.079 814.161,516.098 817.076,516.116 819.99,516.133 822.905,516.15 825.819,516.166 828.734,516.182 831.649,516.198 834.563,516.213 837.478,516.227 840.393,516.241 843.307,516.255 846.222,516.268 849.137,516.281 852.051,516.294 854.966,516.306 857.88,516.318 860.795,516.33 863.71,516.341 866.625,516.352 869.539,516.363 872.454,516.373 875.368,516.384 878.283,516.393 881.198,516.403 884.112,516.412 887.027,516.421 889.942,516.43 892.856,516.439 895.771,516.447 898.686,516.455 901.6,516.463 904.515,516.47 907.429,516.478 910.344,516.485 913.259,516.492 916.173,516.499 919.088,516.505 922.003,516.512 924.917,516.518 927.832,516.524 930.747,516.53 933.661,516.536 936.576,516.541 939.491,516.546 942.405,516.552 945.32,516.557 948.234,516.561 951.149,516.566 954.064,516.571 956.978,516.575 959.893,516.579 962.808,516.583 965.722,516.587 968.637,516.591" stroke-linecap="butt"/>
   <polyline stroke-linejoin="round" fill="none" stroke="#d85218" stroke-width="0.5" points="242.891,515.975 245.805,515.933 248.72,515.887 251.635,515.837 254.549,515.783 257.464,515.725 260.379,515.661 263.293,515.592 266.208,515.517 269.123,515.434 272.037,515.343 274.952,515.243 277.867,515.132 280.781,515.009 283.696,514.872 286.61,514.718 289.525,514.546 292.44,514.35 295.354,514.128 298.269,513.873 301.184,513.578 304.098,513.234 307.013,512.829 309.928,512.347 312.842,511.766 315.757,511.055 318.672,510.171 321.586,509.048 324.501,507.59 327.415,505.648 330.33,502.98 333.245,499.192 336.159,493.626 339.074,485.243 341.989,472.751 344.903,456.298 347.818,442.495 350.733,443.073 353.647,455.929 356.562,468.934 359.477,477.007 362.391,480.219 365.306,479.314 368.22,474.573 371.135,466.202 374.05,455.924 376.964,449.001 379.879,451.056 382.794,460.209 385.708,470.063 388.623,477.084 391.538,480.674 394.452,481.081 397.367,478.514 400.282,473.185 403.196,466.067 406.111,460.065 409.025,459.42 411.94,465.417 414.855,474.749 417.769,483.764 420.684,490.983 423.599,496.371 426.513,500.321 429.428,503.233 432.343,505.41 435.257,507.067 438.172,508.348 441.087,509.354 444.001,510.156 446.916,510.801 449.831,511.325 452.745,511.755 455.66,512.107 458.574,512.398 461.489,512.638 464.404,512.835 467.318,512.995 470.233,513.123 473.148,513.224 476.062,513.299 478.977,513.353 481.892,513.385 484.806,513.398 487.721,513.393 490.636,513.369 493.55,513.327 496.465,513.267 499.379,513.188 502.294,513.089 505.209,512.969 508.123,512.826 511.038,512.658 513.953,512.463 516.867,512.236 519.782,511.973 522.697,511.669 525.611,511.317 528.526,510.908 531.44,510.431 534.355,509.872 537.27,509.211 540.184,508.426 543.099,507.483 546.014,506.34 548.928,504.939 551.843,503.202 554.758,501.024 557.672,498.267 560.587,494.757 563.502,490.311 566.416,484.812 569.331,478.416 572.245,471.885 575.16,466.765 578.075,464.701 580.989,465.985 583.904,469.179 586.819,472.381 589.733,474.314 592.648,474.409 595.563,472.511 598.477,468.773 601.392,463.846 604.307,459.183 607.221,456.772 610.136,457.733 613.051,461.193 615.965,465.15 618.88,467.986 621.794,468.908 624.709,467.693 627.624,464.495 630.538,459.976 633.453,455.595 636.368,453.354 639.282,454.45 642.197,458.143 645.112,462.562 648.026,466.209 650.941,468.44 653.856,469.179 656.77,468.602 659.685,466.961 662.599,464.54 665.514,461.652 668.429,458.701 671.343,456.283 674.258,455.228 677.173,456.355 680.087,459.932 683.002,465.387 685.917,471.67 688.831,477.857 691.746,483.424 694.661,488.194 697.575,492.184 700.49,495.49 703.404,498.228 706.319,500.504 709.234,502.405 712.148,504.006 715.063,505.363 717.978,506.522 720.892,507.518 723.807,508.381 726.722,509.132 729.636,509.791 732.551,510.371 735.466,510.885 738.38,511.342 741.295,511.75 744.209,512.117 747.124,512.447 750.039,512.746 752.953,513.017 755.868,513.264 758.783,513.489 761.697,513.695 764.612,513.884 767.527,514.058 770.441,514.219 773.356,514.368 776.271,514.505 779.185,514.633 782.1,514.751 785.014,514.862 787.929,514.965 790.844,515.062 793.758,515.152 796.673,515.236 799.588,515.316 802.502,515.391 805.417,515.461 808.332,515.527 811.246,515.59 814.161,515.649 817.076,515.705 819.99,515.757 822.905,515.807 825.819,515.855 828.734,515.9 831.649,515.943 834.563,515.983 837.478,516.022 840.393,516.059 843.307,516.094 846.222,516.128 849.137,516.159 852.051,516.19 854.966,516.219 857.88,516.247 860.795,516.274 863.71,516.299 866.625,516.323 869.539,516.347 872.454,516.369 875.368,516.391 878.283,516.411 881.198,516.431 884.112,516.45 887.027,516.468 889.942,516.485 892.856,516.502 895.771,516.518 898.686,516.534 901.6,516.549 904.515,516.563 907.429,516.577 910.344,516.59 913.259,516.603 916.173,516.615 919.088,516.627 922.003,516.638 924.917,516.649 927.832,516.659 930.747,516.669 933.661,516.679 936.576,516.688 939.491,516.697 942.405,516.706 945.32,516.714 948.234,516.722 951.149,516.73 954.064,516.737 956.978,516.745 959.893,516.751 962.808,516.758 965.722,516.764 968.637,516.77" stroke-linecap="butt"/>
   <polyline stroke-linejoin="round" fill="none" stroke="#ecb01f" stroke-width="0.5" points="242.891,513.49 245.805,513.413 248.72,513.332 251.635,513.245 254.549,513.153 257.464,513.054 260.379,512.948 263.293,512.835 266.208,512.713 269.123,512.581 272.037,512.439 274.952,512.285 277.867,512.118 280.781,511.936 283.696,511.737 286.61,511.519 289.525,511.278 292.44,511.011 295.354,510.713 298.269,510.378 301.184,510 304.098,509.569 307.013,509.072 309.928,508.487 312.842,507.804 315.757,506.99 318.672,505.991 321.586,504.748 324.501,503.163 327.415,501.085 330.33,498.275 333.245,494.335 336.159,488.608 339.074,480.054 341.989,467.38 344.903,450.734 347.818,436.724 350.733,437.082 353.647,449.702 356.562,462.454 359.477,470.256 362.391,473.177 365.306,471.959 368.22,466.88 371.135,458.143 374.05,447.469 376.964,440.116 379.879,441.702 382.794,450.344 385.708,459.638 388.623,466.043 391.538,468.952 394.452,468.607 397.367,465.201 400.282,458.936 403.196,450.764 406.111,443.572 409.025,441.57 411.94,446.012 414.855,453.548 417.769,460.47 420.684,465.228 423.599,467.699 426.513,468.164 429.428,466.89 432.343,464.043 435.257,459.726 438.172,454.097 441.087,447.549 444.001,440.914 446.916,435.495 449.831,432.67 452.745,433.139 455.66,436.455 458.574,441.377 461.489,446.634 464.404,451.409 467.318,455.372 470.233,458.496 473.148,460.889 476.062,462.692 478.977,464.03 481.892,465.004 484.806,465.683 487.721,466.116 490.636,466.332 493.55,466.348 496.465,466.172 499.379,465.801 502.294,465.223 505.209,464.414 508.123,463.335 511.038,461.929 513.953,460.123 516.867,457.842 519.782,455.025 522.697,451.681 525.611,447.961 528.526,444.24 531.44,441.15 534.355,439.45 537.27,439.718 540.184,442.03 543.099,445.889 546.014,450.476 548.928,454.99 551.843,458.848 554.758,461.69 557.672,463.305 560.587,463.55 563.502,462.308 566.416,459.545 569.331,455.492 572.245,450.98 575.16,447.608 578.075,447.068 580.989,449.688 583.904,454.061 586.819,458.309 589.733,461.174 592.648,462.104 595.563,460.959 598.477,457.901 601.392,453.59 604.307,449.489 607.221,447.591 610.136,449.023 613.051,452.914 615.965,457.27 618.88,460.473 621.794,461.736 624.709,460.837 627.624,457.932 630.538,453.687 633.453,449.561 636.368,447.559 639.282,448.878 642.197,452.78 645.112,457.396 648.026,461.229 650.941,463.633 653.856,464.537 656.77,464.115 659.685,462.621 662.599,460.339 665.514,457.582 668.429,454.755 671.343,452.455 674.258,451.512 677.173,452.746 680.087,456.426 683.002,461.977 685.917,468.352 688.831,474.627 691.746,480.278 694.661,485.128 697.575,489.195 700.49,492.575 703.404,495.383 706.319,497.725 709.234,499.689 712.148,501.351 715.063,502.77 717.978,503.986 720.892,505.037 723.807,505.952 726.722,506.754 729.636,507.461 732.551,508.088 735.466,508.647 738.38,509.147 741.295,509.598 744.209,510.005 747.124,510.374 750.039,510.71 752.953,511.017 755.868,511.299 758.783,511.558 761.697,511.797 764.612,512.017 767.527,512.222 770.441,512.412 773.356,512.589 776.271,512.754 779.185,512.908 782.1,513.053 785.014,513.189 787.929,513.316 790.844,513.436 793.758,513.549 796.673,513.656 799.588,513.757 802.502,513.852 805.417,513.943 808.332,514.028 811.246,514.11 814.161,514.187 817.076,514.261 819.99,514.331 822.905,514.398 825.819,514.462 828.734,514.523 831.649,514.581 834.563,514.637 837.478,514.69 840.393,514.741 843.307,514.79 846.222,514.837 849.137,514.882 852.051,514.925 854.966,514.966 857.88,515.006 860.795,515.044 863.71,515.081 866.625,515.116 869.539,515.15 872.454,515.183 875.368,515.215 878.283,515.245 881.198,515.274 884.112,515.303 887.027,515.33 889.942,515.356 892.856,515.381 895.771,515.406 898.686,515.429 901.6,515.452 904.515,515.474 907.429,515.495 910.344,515.516 913.259,515.535 916.173,515.554 919.088,515.573 922.003,515.59 924.917,515.608 927.832,515.624 930.747,515.64 933.661,515.655 936.576,515.67 939.491,515.685 942.405,515.698 945.32,515.712 948.234,515.724 951.149,515.737 954.064,515.749 956.978,515.76 959.893,515.771 962.808,515.782 965.722,515.792 968.637,515.802" stroke-linecap="butt"/>
   <polyline stroke-linejoin="round" fill="none" stroke="#7d2e8d" stroke-width="0.5" points="242.891,517.518 245.805,517.463 248.72,517.409 251.635,517.355 254.549,517.303 257.464,517.252 260.379,517.203 263.293,517.157 266.208,517.114 269.123,517.075 272.037,517.04 274.952,517.011 277.867,516.989 280.781,516.973 283.696,516.966 286.61,516.968 289.525,516.981 292.44,517.006 295.354,517.044 298.269,517.098 301.184,517.168 304.098,517.257 307.013,517.365 309.928,517.494 312.842,517.474 315.757,517.302 318.672,517.111 321.586,516.905 324.501,516.694 327.415,516.495 330.33,516.34 333.245,516.28 336.159,516.392 339.074,516.757 341.989,517.314 344.903,517.531 347.818,516.857 350.733,516.756 353.647,517.484 356.562,517.338 359.477,516.517 362.391,515.834 365.306,515.795 368.22,516.529 371.135,517.461 374.05,517.074 376.964,515.24 379.879,515.411 382.794,517.282 385.708,517.125 388.623,514.91 391.538,512.672 394.452,512.104 397.367,513.899 400.282,516.849 403.196,516.868 406.111,510.927 409.025,506.593 411.94,511.865 414.855,517.448 417.769,513.863 420.684,502.838 423.599,490.451 426.513,482.215 429.428,482.161 432.343,492.028 435.257,508.417 438.172,517.424 441.087,490.788 444.001,397.275 446.916,242.94 449.831,106.082 452.745,84.548 455.66,188.205 458.574,335.941 461.489,450.062 464.404,506.419 467.318,517.012 470.233,501.872 473.148,476.227 476.062,448.842 478.977,423.967 481.892,403.373 484.806,387.667 487.721,376.989 490.636,371.312 493.55,370.556 496.465,374.614 499.379,383.359 502.294,396.636 505.209,414.216 508.123,435.655 511.038,459.959 513.953,484.977 516.867,506.498 519.782,517.41 522.697,508.047 525.611,470.031 528.526,405.46 531.44,336.946 534.355,302.931 537.27,328.284 540.184,397.137 543.099,467.011 546.014,507.727 548.928,517.505 551.843,510.504 554.758,500.886 557.672,496.379 560.587,498.702 563.502,505.765 566.416,513.475 569.331,517.457 572.245,515.883 575.16,512.273 578.075,512.282 580.989,515.606 583.904,517.535 586.819,516.762 589.733,515.346 592.648,515.034 595.563,515.975 598.477,517.19 601.392,517.525 604.307,516.835 607.221,516.364 610.136,516.888 613.051,517.503 615.965,517.446 618.88,517.06 621.794,516.903 624.709,517.115 627.624,517.448 630.538,517.551 633.453,517.348 636.368,517.194 639.282,517.344 642.197,517.539 645.112,517.521 648.026,517.364 650.941,517.237 653.856,517.214 656.77,517.28 659.685,517.385 662.599,517.481 665.514,517.541 668.429,517.559 671.343,517.552 674.258,517.546 677.173,517.555 680.087,517.556 683.002,517.513 685.917,517.424 688.831,517.322 691.746,517.244 694.661,517.209 697.575,517.218 700.49,517.266 703.404,517.342 706.319,517.437 709.234,517.543 712.148,517.464 715.063,517.353 717.978,517.245 720.892,517.142 723.807,517.046 726.722,516.957 729.636,516.877 732.551,516.804 735.466,516.74 738.38,516.684 741.295,516.635 744.209,516.594 747.124,516.559 750.039,516.531 752.953,516.51 755.868,516.494 758.783,516.483 761.697,516.477 764.612,516.476 767.527,516.478 770.441,516.485 773.356,516.495 776.271,516.509 779.185,516.525 782.1,516.544 785.014,516.566 787.929,516.589 790.844,516.615 793.758,516.643 796.673,516.672 799.588,516.702 802.502,516.734 805.417,516.767 808.332,516.801 811.246,516.836 814.161,516.872 817.076,516.908 819.99,516.945 822.905,516.982 825.819,517.02 828.734,517.058 831.649,517.096 834.563,517.135 837.478,517.173 840.393,517.212 843.307,517.25 846.222,517.289 849.137,517.327 852.051,517.365 854.966,517.403 857.88,517.441 860.795,517.478 863.71,517.515 866.625,517.552 869.539,517.53 872.454,517.494 875.368,517.459 878.283,517.423 881.198,517.389 884.112,517.354 887.027,517.32 889.942,517.287 892.856,517.254 895.771,517.222 898.686,517.19 901.6,517.158 904.515,517.128 907.429,517.097 910.344,517.068 913.259,517.038 916.173,517.01 919.088,516.982 922.003,516.954 924.917,516.927 927.832,516.901 930.747,516.875 933.661,516.85 936.576,516.825 939.491,516.801 942.405,516.778 945.32,516.755 948.234,516.733 951.149,516.711 954.064,516.69 956.978,516.669 959.893,516.649 962.808,516.63 965.722,516.611 968.637,516.593" stroke-linecap="butt"/>
   <polyline stroke-linejoin="round" fill="none" stroke="#76ab2f" stroke-width="0.5" points="242.891,454.654 245.805,454.654 248.72,454.654 251.635,454.654 254.549,454.654 257.464,454.654 260.379,454.654 263.293,454.654 266.208,454.654 269.123,454.654 272.037,454.654 274.952,454.654 277.867,454.654 280.781,454.654 283.696,454.654 286.61,454.654 289.525,454.654 292.44,454.654 295.354,454.654 298.269,454.654 301.184,454.654 304.098,454.654 307.013,454.654 309.928,454.654 312.842,454.654 315.757,454.654 318.672,454.654 321.586,454.654 324.501,454.654 327.415,454.654 330.33,454.654 333.245,454.654 336.159,454.654 339.074,454.654 341.989,454.654 344.903,454.654 347.818,454.654 350.733,454.654 353.647,454.654 356.562,454.654 359.477,454.654 362.391,454.654 365.306,454.654 368.22,454.654 371.135,454.654 374.05,454.654 376.964,454.654 379.879,454.654 382.794,454.654 385.708,454.654 388.623,454.654 391.538,454.654 394.452,454.654 397.367,454.654 400.282,454.654 403.196,454.654 406.111,454.654 409.025,454.654 411.94,454.654 414.855,454.654 417.769,454.654 420.684,454.654 423.599,454.654 426.513,454.654 429.428,454.654 432.343,454.654 435.257,454.654 438.172,454.654 441.087,454.654 444.001,454.654 446.916,454.654 449.831,454.654 452.745,454.654 455.66,454.654 458.574,454.654 461.489,454.654 464.404,454.654 467.318,454.654 470.233,454.654 473.148,454.654 476.062,454.654 478.977,454.654 481.892,454.654 484.806,454.654 487.721,454.654 490.636,454.654 493.55,454.654 496.465,454.654 499.379,454.654 502.294,454.654 505.209,454.654 508.123,454.654 511.038,454.654 513.953,454.654 516.867,454.654 519.782,454.654 522.697,454.654 525.611,454.654 528.526,454.654 531.44,454.654 534.355,454.654 537.27,454.654 540.184,454.654 543.099,454.654 546.014,454.654 548.928,454.654 551.843,454.654 554.758,454.654 557.672,454.654 560.587,454.654 563.502,454.654 566.416,454.654 569.331,454.654 572.245,454.654 575.16,454.654 578.075,454.654 580.989,454.654 583.904,454.654 586.819,454.654 589.733,454.654 592.648,454.654 595.563,454.654 598.477,454.654 601.392,454.654 604.307,454.654 607.221,454.654 610.136,454.654 613.051,454.654 615.965,454.654 618.88,454.654 621.794,454.654 624.709,454.654 627.624,454.654 630.538,454.654 633.453,454.654 636.368,454.654 639.282,454.654 642.197,454.654 645.112,454.654 648.026,454.654 650.941,454.654 653.856,454.654 656.77,454.654 659.685,454.654 662.599,454.654 665.514,454.654 668.429,454.654 671.343,454.654 674.258,454.654 677.173,454.654 680.087,454.654 683.002,454.654 685.917,454.654 688.831,454.654 691.746,454.654 694.661,454.654 697.575,454.654 700.49,454.654 703.404,454.654 706.319,454.654 709.234,454.654 712.148,454.654 715.063,454.654 717.978,454.654 720.892,454.654 723.807,454.654 726.722,454.654 729.636,454.654 732.551,454.654 735.466,454.654 738.38,454.654 741.295,454.654 744.209,454.654 747.124,454.654 750.039,454.654 752.953,454.654 755.868,454.654 758.783,454.654 761.697,454.654 764.612,454.654 767.527,454.654 770.441,454.654 773.356,454.654 776.271,454.654 779.185,454.654 782.1,454.654 785.014,454.654 787.929,454.654 790.844,454.654 793.758,454.654 796.673,454.654 799.588,454.654 802.502,454.654 805.417,454.654 808.332,454.654 811.246,454.654 814.161,454.654 817.076,454.654 819.99,454.654 822.905,454.654 825.819,454.654 828.734,454.654 831.649,454.654 834.563,454.654 837.478,454.654 840.393,454.654 843.307,454.654 846.222,454.654 849.137,454.654 852.051,454.654 854.966,454.654 857.88,454.654 860.795,454.654 863.71,454.654 866.625,454.654 869.539,454.654 872.454,454.654 875.368,454.654 878.283,454.654 881.198,454.654 884.112,454.654 887.027,454.654 889.942,454.654 892.856,454.654 895.771,454.654 898.686,454.654 901.6,454.654 904.515,454.654 907.429,454.654 910.344,454.654 913.259,454.654 916.173,454.654 919.088,454.654 922.003,454.654 924.917,454.654 927.832,454.654 930.747,454.654 933.661,454.654 936.576,454.654 939.491,454.654 942.405,454.654 945.32,454.654 948.234,454.654 951.149,454.654 954.064,454.654 956.978,454.654 959.893,454.654 962.808,454.654 965.722,454.654 968.637,454.654" stroke-linecap="butt"/>
  </g>
  <clipPath id="cp001170581">
   <polygon points="0,581 1170,581 1170,0 0,0"/>
  </clipPath>
  <g clip-path="url(#cp001170581)">
   <polygon shape-rendering="crispEdges" fill="#ffffff" points="990.374,121.995 1051.36,121.995 1051.36,51.6107 990.374,51.6107"/>
   <polyline stroke-linejoin="miter" fill="none" stroke="#262626" stroke-width="0.5" points="990.374,121.995 1051.36,121.995" stroke-dasharray="16,0" stroke-linecap="square"/>
   <polyline stroke-linejoin="miter" fill="none" stroke="#262626" stroke-width="0.5" points="990.374,51.6107 1051.36,51.6107" stroke-dasharray="16,0" stroke-linecap="square"/>
   <polyline stroke-linejoin="miter" fill="none" stroke="#262626" stroke-width="0.5" points="990.374,121.995 990.374,51.6107" stroke-dasharray="16,0" stroke-linecap="square"/>
   <polyline stroke-linejoin="miter" fill="none" stroke="#262626" stroke-width="0.5" points="1051.36,121.995 1051.36,51.6107" stroke-dasharray="16,0" stroke-linecap="square"/>
   <polyline stroke-linejoin="round" fill="none" stroke="#0071bc" stroke-width="0.5" points="994.372,60.6088 1014.36,60.6088" stroke-linecap="butt"/>
   <g font-size="9" xml:space="preserve" font-weight="normal" transform="translate(1018.36,65.6088) rotate(-0,-0,-5)" font-style="normal" font-family="FreeSans">
    <text y="-2" fill="rgb(0,0,0)" x="0 5 8 13 15 18 23 ">grd ref</text>
   </g>
   <polyline stroke-linejoin="round" fill="none" stroke="#d85218" stroke-width="0.5" points="994.372,74.1069 1014.36,74.1069" stroke-linecap="butt"/>
   <g font-size="9" xml:space="preserve" font-weight="normal" transform="translate(1018.36,78.6069) rotate(-0,-0,-4.5)" font-style="normal" font-family="FreeSans">
    <text y="-2" fill="rgb(0,0,0)" x="0 5 10 ">opt</text>
   </g>
   <polyline stroke-linejoin="round" fill="none" stroke="#ecb01f" stroke-width="0.5" points="994.372,87.605 1014.36,87.605" stroke-linecap="butt"/>
   <g font-size="9" xml:space="preserve" font-weight="normal" transform="translate(1018.36,92.605) rotate(-0,-0,-5)" font-style="normal" font-family="FreeSans">
    <text y="-2" fill="rgb(0,0,0)" x="0 3 8 11 16 21 26 ">ref+opt</text>
   </g>
   <polyline stroke-linejoin="round" fill="none" stroke="#7d2e8d" stroke-width="0.5" points="994.372,100.801 1014.36,100.801" stroke-linecap="butt"/>
   <g font-size="9" xml:space="preserve" font-weight="normal" transform="translate(1018.36,103.801) rotate(-0,-0,-3)" font-style="normal" font-family="FreeSans">
    <text y="-0" fill="rgb(0,0,0)" x="0 5 8 ">err</text>
   </g>
   <polyline stroke-linejoin="round" fill="none" stroke="#76ab2f" stroke-width="0.5" points="994.372,113.497 1014.36,113.497" stroke-linecap="butt"/>
   <g font-size="9" xml:space="preserve" font-weight="normal" transform="translate(1018.36,117.997) rotate(-0,-0,-4.5)" font-style="normal" font-family="FreeSans">
    <text y="-2" fill="rgb(0,0,0)" x="0 3 8 11 16 21 ">target</text>
   </g>
  </g>
 </g>
</svg>
