<?xml version='1.0' encoding='UTF-8' standalone='no'?>
<svg height="320pt" viewBox="0 0 374 320" width="374pt" xmlns="http://www.w3.org/2000/svg" xmlns:xlink="http://www.w3.org/1999/xlink">
 <title>Figure 3</title>
 <desc>
Creator: GL2PS 1.4.2, (C) 1999-2020 C. Geuzaine
For: Octave
CreationDate: Thu Mar 12 11:05:05 2026
</desc>
 <defs/>
 <polygon fill="#ffffff" points="0,0 374,0 374,320 0,320"/>
 <g>
  <polygon fill="#ffffff" points="0,320 374,320 374,0 0,0" shape-rendering="crispEdges"/>
  <clipPath id="cp00374320">
   <polygon points="0,320 374,320 374,0 0,0"/>
  </clipPath>
  <g clip-path="url(#cp00374320)">
   <polygon fill="#ffffff" points="48.7287,285.565 339.227,285.565 339.227,24.0645 48.7287,24.0645" shape-rendering="crispEdges"/>
   <polyline fill="none" points="48.7287,285.565 48.7287,24.0645" stroke="#262626" stroke-dasharray="16,0" stroke-linecap="butt" stroke-linejoin="miter" stroke-opacity="0.15" stroke-width="0.5"/>
   <polyline fill="none" points="90.2284,285.565 90.2284,24.0645" stroke="#262626" stroke-dasharray="16,0" stroke-linecap="butt" stroke-linejoin="miter" stroke-opacity="0.15" stroke-width="0.5"/>
   <polyline fill="none" points="131.728,285.565 131.728,24.0645" stroke="#262626" stroke-dasharray="16,0" stroke-linecap="butt" stroke-linejoin="miter" stroke-opacity="0.15" stroke-width="0.5"/>
   <polyline fill="none" points="173.228,285.565 173.228,24.0645" stroke="#262626" stroke-dasharray="16,0" stroke-linecap="butt" stroke-linejoin="miter" stroke-opacity="0.15" stroke-width="0.5"/>
   <polyline fill="none" points="214.727,285.565 214.727,24.0645" stroke="#262626" stroke-dasharray="16,0" stroke-linecap="butt" stroke-linejoin="miter" stroke-opacity="0.15" stroke-width="0.5"/>
   <polyline fill="none" points="256.227,285.565 256.227,24.0645" stroke="#262626" stroke-dasharray="16,0" stroke-linecap="butt" stroke-linejoin="miter" stroke-opacity="0.15" stroke-width="0.5"/>
   <polyline fill="none" points="297.727,285.565 297.727,24.0645" stroke="#262626" stroke-dasharray="16,0" stroke-linecap="butt" stroke-linejoin="miter" stroke-opacity="0.15" stroke-width="0.5"/>
   <polyline fill="none" points="339.227,285.565 339.227,24.0645" stroke="#262626" stroke-dasharray="16,0" stroke-linecap="butt" stroke-linejoin="miter" stroke-opacity="0.15" stroke-width="0.5"/>
   <polyline fill="none" points="48.7287,285.565 48.7287,282.666" stroke="#262626" stroke-linecap="butt" stroke-linejoin="miter" stroke-width="0.5"/>
   <polyline fill="none" points="48.7287,24.0645 48.7287,26.9639" stroke="#262626" stroke-linecap="butt" stroke-linejoin="miter" stroke-width="0.5"/>
   <polyline fill="none" points="90.2284,285.565 90.2284,282.666" stroke="#262626" stroke-linecap="butt" stroke-linejoin="miter" stroke-width="0.5"/>
   <polyline fill="none" points="90.2284,24.0645 90.2284,26.9639" stroke="#262626" stroke-linecap="butt" stroke-linejoin="miter" stroke-width="0.5"/>
   <polyline fill="none" points="131.728,285.565 131.728,282.666" stroke="#262626" stroke-linecap="butt" stroke-linejoin="miter" stroke-width="0.5"/>
   <polyline fill="none" points="131.728,24.0645 131.728,26.9639" stroke="#262626" stroke-linecap="butt" stroke-linejoin="miter" stroke-width="0.5"/>
   <polyline fill="none" points="173.228,285.565 173.228,282.666" stroke="#262626" stroke-linecap="butt" stroke-linejoin="miter" stroke-width="0.5"/>
   <polyline fill="none" points="173.228,24.0645 173.228,26.9639" stroke="#262626" stroke-linecap="butt" stroke-linejoin="miter" stroke-width="0.5"/>
   <polyline fill="none" points="214.727,285.565 214.727,282.666" stroke="#262626" stroke-linecap="butt" stroke-linejoin="miter" stroke-width="0.5"/>
   <polyline fill="none" points="214.727,24.0645 214.727,26.9639" stroke="#262626" stroke-linecap="butt" stroke-linejoin="miter" stroke-width="0.5"/>
   <polyline fill="none" points="256.227,285.565 256.227,282.666" stroke="#262626" stroke-linecap="butt" stroke-linejoin="miter" stroke-width="0.5"/>
   <polyline fill="none" points="256.227,24.0645 256.227,26.9639" stroke="#262626" stroke-linecap="butt" stroke-linejoin="miter" stroke-width="0.5"/>
   <polyline fill="none" points="297.727,285.565 297.727,282.666" stroke="#262626" stroke-linecap="butt" stroke-linejoin="miter" stroke-width="0.5"/>
   <polyline fill="none" points="297.727,24.0645 297.727,26.9639" stroke="#262626" stroke-linecap="butt" stroke-linejoin="miter" stroke-width="0.5"/>
   <polyline fill="none" points="339.227,285.565 339.227,282.666" stroke="#262626" stroke-linecap="butt" stroke-linejoin="miter" stroke-width="0.5"/>
   <polyline fill="none" points="339.227,24.0645 339.227,26.9639" stroke="#262626" stroke-linecap="butt" stroke-linejoin="miter" stroke-width="0.5"/>
   <g font-family="FreeSans" font-size="10" font-style="normal" font-weight="normal" transform="translate(45.7287,301.051) rotate(-0,3,-8)" xml:space="preserve">
    <text fill="rgb(38,38,38)" x="0 " y="-0">0</text>
   </g>
   <g font-family="FreeSans" font-size="10" font-style="normal" font-weight="normal" transform="translate(82.7284,301.051) rotate(-0,7.5,-8)" xml:space="preserve">
    <text fill="rgb(38,38,38)" x="0 6 9 " y="-0">0.1</text>
   </g>
   <g font-family="FreeSans" font-size="10" font-style="normal" font-weight="normal" transform="translate(124.228,301.051) rotate(-0,7.5,-8)" xml:space="preserve">
    <text fill="rgb(38,38,38)" x="0 6 9 " y="-0">0.2</text>
   </g>
   <g font-family="FreeSans" font-size="10" font-style="normal" font-weight="normal" transform="translate(165.728,301.051) rotate(-0,7.5,-8)" xml:space="preserve">
    <text fill="rgb(38,38,38)" x="0 6 9 " y="-0">0.3</text>
   </g>
   <g font-family="FreeSans" font-size="10" font-style="normal" font-weight="normal" transform="translate(207.227,301.051) rotate(-0,7.5,-8)" xml:space="preserve">
    <text fill="rgb(38,38,38)" x="0 6 9 " y="-0">0.4</text>
   </g>
   <g font-family="FreeSans" font-size="10" font-style="normal" font-weight="normal" transform="translate(248.727,301.051) rotate(-0,7.5,-8)" xml:space="preserve">
    <text fill="rgb(38,38,38)" x="0 6 9 " y="-0">0.5</text>
   </g>
   <g font-family="FreeSans" font-size="10" font-style="normal" font-weight="normal" transform="translate(290.227,301.051) rotate(-0,7.5,-8)" xml:space="preserve">
    <text fill="rgb(38,38,38)" x="0 6 9 " y="-0">0.6</text>
   </g>
   <g font-family="FreeSans" font-size="10" font-style="normal" font-weight="normal" transform="translate(331.726,301.051) rotate(-0,7.5,-8)" xml:space="preserve">
    <text fill="rgb(38,38,38)" x="0 6 9 " y="-0">0.7</text>
   </g>
   <polyline fill="none" points="48.7287,285.565 339.227,285.565" stroke="#262626" stroke-dasharray="16,0" stroke-linecap="butt" stroke-linejoin="miter" stroke-opacity="0.15" stroke-width="0.5"/>
   <polyline fill="none" points="48.7287,241.982 339.227,241.982" stroke="#262626" stroke-dasharray="16,0" stroke-linecap="butt" stroke-linejoin="miter" stroke-opacity="0.15" stroke-width="0.5"/>
   <polyline fill="none" points="48.7287,198.398 339.227,198.398" stroke="#262626" stroke-dasharray="16,0" stroke-linecap="butt" stroke-linejoin="miter" stroke-opacity="0.15" stroke-width="0.5"/>
   <polyline fill="none" points="48.7287,154.815 339.227,154.815" stroke="#262626" stroke-dasharray="16,0" stroke-linecap="butt" stroke-linejoin="miter" stroke-opacity="0.15" stroke-width="0.5"/>
   <polyline fill="none" points="48.7287,111.231 339.227,111.231" stroke="#262626" stroke-dasharray="16,0" stroke-linecap="butt" stroke-linejoin="miter" stroke-opacity="0.15" stroke-width="0.5"/>
   <polyline fill="none" points="48.7287,67.6479 339.227,67.6479" stroke="#262626" stroke-dasharray="16,0" stroke-linecap="butt" stroke-linejoin="miter" stroke-opacity="0.15" stroke-width="0.5"/>
   <polyline fill="none" points="48.7287,24.0645 339.227,24.0645" stroke="#262626" stroke-dasharray="16,0" stroke-linecap="butt" stroke-linejoin="miter" stroke-opacity="0.15" stroke-width="0.5"/>
   <polyline fill="none" points="48.7287,285.565 51.6386,285.565" stroke="#262626" stroke-linecap="butt" stroke-linejoin="miter" stroke-width="0.5"/>
   <polyline fill="none" points="339.227,285.565 336.317,285.565" stroke="#262626" stroke-linecap="butt" stroke-linejoin="miter" stroke-width="0.5"/>
   <polyline fill="none" points="48.7287,241.982 51.6386,241.982" stroke="#262626" stroke-linecap="butt" stroke-linejoin="miter" stroke-width="0.5"/>
   <polyline fill="none" points="339.227,241.982 336.317,241.982" stroke="#262626" stroke-linecap="butt" stroke-linejoin="miter" stroke-width="0.5"/>
   <polyline fill="none" points="48.7287,198.398 51.6386,198.398" stroke="#262626" stroke-linecap="butt" stroke-linejoin="miter" stroke-width="0.5"/>
   <polyline fill="none" points="339.227,198.398 336.317,198.398" stroke="#262626" stroke-linecap="butt" stroke-linejoin="miter" stroke-width="0.5"/>
   <polyline fill="none" points="48.7287,154.815 51.6386,154.815" stroke="#262626" stroke-linecap="butt" stroke-linejoin="miter" stroke-width="0.5"/>
   <polyline fill="none" points="339.227,154.815 336.317,154.815" stroke="#262626" stroke-linecap="butt" stroke-linejoin="miter" stroke-width="0.5"/>
   <polyline fill="none" points="48.7287,111.231 51.6386,111.231" stroke="#262626" stroke-linecap="butt" stroke-linejoin="miter" stroke-width="0.5"/>
   <polyline fill="none" points="339.227,111.231 336.317,111.231" stroke="#262626" stroke-linecap="butt" stroke-linejoin="miter" stroke-width="0.5"/>
   <polyline fill="none" points="48.7287,67.6479 51.6386,67.6479" stroke="#262626" stroke-linecap="butt" stroke-linejoin="miter" stroke-width="0.5"/>
   <polyline fill="none" points="339.227,67.6479 336.317,67.6479" stroke="#262626" stroke-linecap="butt" stroke-linejoin="miter" stroke-width="0.5"/>
   <polyline fill="none" points="48.7287,24.0645 51.6386,24.0645" stroke="#262626" stroke-linecap="butt" stroke-linejoin="miter" stroke-width="0.5"/>
   <polyline fill="none" points="339.227,24.0645 336.317,24.0645" stroke="#262626" stroke-linecap="butt" stroke-linejoin="miter" stroke-width="0.5"/>
   <g font-family="FreeSans" font-size="10" font-style="normal" font-weight="normal" transform="translate(37.7201,289.565) rotate(-0,6,-4)" xml:space="preserve">
    <text fill="rgb(38,38,38)" x="0 " y="-0">0</text>
   </g>
   <g font-family="FreeSans" font-size="10" font-style="normal" font-weight="normal" transform="translate(37.7201,245.982) rotate(-0,6,-4)" xml:space="preserve">
    <text fill="rgb(38,38,38)" x="0 " y="-0">5</text>
   </g>
   <g font-family="FreeSans" font-size="10" font-style="normal" font-weight="normal" transform="translate(31.7201,202.398) rotate(-0,12,-4)" xml:space="preserve">
    <text fill="rgb(38,38,38)" x="0 6 " y="-0">10</text>
   </g>
   <g font-family="FreeSans" font-size="10" font-style="normal" font-weight="normal" transform="translate(31.7201,158.815) rotate(-0,12,-4)" xml:space="preserve">
    <text fill="rgb(38,38,38)" x="0 6 " y="-0">15</text>
   </g>
   <g font-family="FreeSans" font-size="10" font-style="normal" font-weight="normal" transform="translate(31.7201,115.231) rotate(-0,12,-4)" xml:space="preserve">
    <text fill="rgb(38,38,38)" x="0 6 " y="-0">20</text>
   </g>
   <g font-family="FreeSans" font-size="10" font-style="normal" font-weight="normal" transform="translate(31.7201,71.6479) rotate(-0,12,-4)" xml:space="preserve">
    <text fill="rgb(38,38,38)" x="0 6 " y="-0">25</text>
   </g>
   <g font-family="FreeSans" font-size="10" font-style="normal" font-weight="normal" transform="translate(31.7201,28.0645) rotate(-0,12,-4)" xml:space="preserve">
    <text fill="rgb(38,38,38)" x="0 6 " y="-0">30</text>
   </g>
   <polyline fill="none" points="48.7287,285.565 339.227,285.565" stroke="#262626" stroke-dasharray="16,0" stroke-linecap="square" stroke-linejoin="miter" stroke-width="0.5"/>
   <polyline fill="none" points="48.7287,24.0645 339.227,24.0645" stroke="#262626" stroke-dasharray="16,0" stroke-linecap="square" stroke-linejoin="miter" stroke-width="0.5"/>
   <polyline fill="none" points="48.7287,285.565 48.7287,24.0645" stroke="#262626" stroke-dasharray="16,0" stroke-linecap="square" stroke-linejoin="miter" stroke-width="0.5"/>
   <polyline fill="none" points="339.227,285.565 339.227,24.0645" stroke="#262626" stroke-dasharray="16,0" stroke-linecap="square" stroke-linejoin="miter" stroke-width="0.5"/>
   <g font-family="FreeSans" font-size="11" font-style="normal" font-weight="normal" transform="translate(101.978,318.051) rotate(-0,92,-12)" xml:space="preserve">
    <text fill="rgb(38,38,38)" x="0 8 14 18 27 33 35 37 42 48 54 57 64 68 74 80 86 92 98 104 109 112 116 122 124 127 131 137 143 146 151 157 166 172 174 180 " y="-3">Normalized Frequency (pi rad/sample)</text>
   </g>
   <g font-family="FreeSans" font-size="11" font-style="normal" font-weight="normal" transform="translate(-3.27992,154.815) rotate(-90,30,0)" xml:space="preserve">
    <text fill="rgb(38,38,38)" x="0 8 12 18 24 30 33 41 47 49 55 " y="-3">Group Delay</text>
   </g>
   <g font-family="FreeSans" font-size="11" font-style="normal" font-weight="bold" transform="translate(95.4776,14.0645) rotate(-0,98.5,0)" xml:space="preserve">
    <text fill="rgb(0,0,0)" x="0 8 15 21 28 34 37 44 51 54 57 63 70 77 80 87 91 98 104 108 111 117 120 123 127 134 140 146 152 155 159 162 165 169 175 179 185 188 191 " y="-3">Cheby LP, 2nd order all-pass filters: 6</text>
   </g>
   <polyline fill="none" points="48.7287,243.313 50.3998,243.298 52.0709,243.269 53.7421,243.226 55.4132,243.167 57.0843,243.094 58.7554,243.006 60.4266,242.902 62.0977,242.783 63.7688,242.648 65.4399,242.496 67.1111,242.328 68.7822,242.143 70.4533,241.94 72.1245,241.719 73.7956,241.478 75.4667,241.218 77.1379,240.938 78.809,240.636 80.4801,240.311 82.1512,239.962 83.8224,239.587 85.4935,239.186 87.1646,238.756 88.8357,238.296 90.5069,237.802 92.178,237.273 93.8491,236.706 95.5203,236.097 97.1914,235.442 98.8625,234.737 100.534,233.977 102.205,233.157 103.876,232.27 105.547,231.308 107.218,230.265 108.889,229.13 110.56,227.896 112.232,226.55 113.903,225.083 115.574,223.485 117.245,221.747 118.916,219.863 120.587,217.829 122.258,215.648 123.929,213.332 125.601,210.904 127.272,208.401 128.943,205.881 130.614,203.422 132.285,201.12 133.956,199.092 135.627,197.46 137.298,196.343 138.97,195.841 140.641,196.016 142.312,196.888 143.983,198.428 145.654,200.55 147.325,203.146 148.996,206.09 150.668,209.259 152.339,212.539 154.01,215.838 155.681,219.081 157.352,222.217 159.023,225.211 160.694,228.042 162.365,230.702 164.037,233.188 165.708,235.506 167.379,237.663 169.05,239.668 170.721,241.532 172.392,243.266 174.063,244.879 175.734,246.383 177.406,247.786 179.077,249.098 180.748,250.327 182.419,251.48 184.09,252.563 185.761,253.583 187.432,254.544 189.103,255.452 190.775,256.311 192.446,257.124 194.117,257.895 195.788,258.628 197.459,259.325 199.13,259.988 200.801,260.621 202.472,261.224 204.144,261.801 205.815,262.352 207.486,262.88 209.157,263.385 210.828,263.87 212.499,264.335 214.17,264.782 215.842,265.212 217.513,265.625 219.184,266.022 220.855,266.405 222.526,266.774 224.197,267.13 225.868,267.474 227.539,267.805 229.211,268.125 230.882,268.434 232.553,268.733 234.224,269.022 235.895,269.302 237.566,269.573 239.237,269.835 240.908,270.089 242.58,270.335 244.251,270.573 245.922,270.805 247.593,271.029 249.264,271.247 250.935,271.458 252.606,271.664 254.277,271.863 255.949,272.057 257.62,272.245 259.291,272.428 260.962,272.606 262.633,272.779 264.304,272.947 265.975,273.111 267.646,273.271 269.318,273.426 270.989,273.577 272.66,273.724 274.331,273.867 276.002,274.007 277.673,274.143 279.344,274.276 281.016,274.405 282.687,274.531 284.358,274.654 286.029,274.773 287.7,274.89 289.371,275.004 291.042,275.115 292.713,275.224 294.385,275.33 296.056,275.433 297.727,275.534" stroke="#0071bc" stroke-linecap="butt" stroke-linejoin="round" stroke-width="0.5"/>
   <polyline fill="none" points="48.7287,130.943 50.3998,130.905 52.0709,130.792 53.7421,130.615 55.4132,130.391 57.0843,130.141 58.7554,129.89 60.4266,129.665 62.0977,129.494 63.7688,129.399 65.4399,129.401 67.1111,129.515 68.7822,129.746 70.4533,130.093 72.1245,130.548 73.7956,131.093 75.4667,131.707 77.1379,132.364 78.809,133.036 80.4801,133.695 82.1512,134.315 83.8224,134.876 85.4935,135.362 87.1646,135.765 88.8357,136.087 90.5069,136.335 92.178,136.527 93.8491,136.688 95.5203,136.852 97.1914,137.056 98.8625,137.34 100.534,137.747 102.205,138.314 103.876,139.076 105.547,140.057 107.218,141.274 108.889,142.73 110.56,144.415 112.232,146.311 113.903,148.386 115.574,150.603 117.245,152.918 118.916,155.285 120.587,157.657 122.258,159.987 123.929,162.233 125.601,164.355 127.272,166.318 128.943,168.093 130.614,169.651 132.285,170.971 133.956,172.032 135.627,172.82 137.298,173.318 138.97,173.516 140.641,173.402 142.312,172.967 143.983,172.205 145.654,171.109 147.325,169.677 148.996,167.908 150.668,165.807 152.339,163.384 154.01,160.656 155.681,157.651 157.352,154.404 159.023,150.966 160.694,147.4 162.365,143.781 164.037,140.198 165.708,136.745 167.379,133.521 169.05,130.617 170.721,128.111 172.392,126.058 174.063,124.483 175.734,123.377 177.406,122.695 179.077,122.363 180.748,122.285 182.419,122.348 184.09,122.436 185.761,122.439 187.432,122.26 189.103,121.82 190.775,121.065 192.446,119.971 194.117,118.541 195.788,116.811 197.459,114.849 199.13,112.752 200.801,110.642 202.472,108.657 204.144,106.938 205.815,105.614 207.486,104.786 209.157,104.513 210.828,104.797 212.499,105.587 214.17,106.779 215.842,108.226 217.513,109.761 219.184,111.203 220.855,112.379 222.526,113.136 224.197,113.346 225.868,112.915 227.539,111.793 229.211,109.98 230.882,107.532 232.553,104.571 234.224,101.295 235.895,97.972 237.566,94.933 239.237,92.5407 240.908,91.1445 242.58,91.0246 244.251,92.3377 245.922,95.0842 247.593,99.1063 249.264,104.119 250.935,109.758 252.606,115.641 254.277,121.403 255.949,126.728 257.62,131.357 259.291,135.082 260.962,137.74 262.633,139.195 264.304,139.332 265.975,138.046 267.646,135.247 269.318,130.869 270.989,124.896 272.66,117.405 274.331,108.633 276.002,99.0565 277.673,89.4617 279.344,80.9516 281.016,74.8283 282.687,72.3155 284.358,74.1911 286.029,80.5119 287.7,90.5983 289.371,103.291 291.042,117.319 292.713,131.591 294.385,145.33 296.056,158.073 297.727,169.606" stroke="#d85218" stroke-linecap="butt" stroke-linejoin="round" stroke-width="0.5"/>
   <polyline fill="none" points="48.7287,88.6911 50.3998,88.6378 52.0709,88.4958 53.7421,88.2754 55.4132,87.9929 57.0843,87.6696 58.7554,87.3306 60.4266,87.0024 62.0977,86.7115 63.7688,86.4817 65.4399,86.3327 67.1111,86.278 68.7822,86.3238 70.4533,86.4681 72.1245,86.7014 73.7956,87.0066 75.4667,87.3608 77.1379,87.7372 78.809,88.1067 80.4801,88.4404 82.1512,88.7115 83.8224,88.8978 85.4935,88.9826 87.1646,88.9563 88.8357,88.8172 90.5069,88.5718 92.178,88.235 93.8491,87.8294 95.5203,87.3841 97.1914,86.933 98.8625,86.5125 100.534,86.159 102.205,85.9059 103.876,85.7803 105.547,85.8006 107.218,85.9739 108.889,86.295 110.56,86.7459 112.232,87.2954 113.903,87.9036 115.574,88.5228 117.245,89.1004 118.916,89.5832 120.587,89.9209 122.258,90.0704 123.929,90 125.601,89.6936 127.272,89.1545 128.943,88.4088 130.614,87.5074 132.285,86.5258 133.956,85.5593 135.627,84.7146 137.298,84.0965 138.97,83.7917 140.641,83.8532 142.312,84.2901 143.983,85.0676 145.654,86.0941 147.325,87.2572 148.996,88.4326 150.668,89.5005 152.339,90.3583 154.01,90.9293 155.681,91.1671 157.352,91.0563 159.023,90.6119 160.694,89.8767 162.365,88.9176 164.037,87.8208 165.708,86.686 167.379,85.6184 169.05,84.7196 170.721,84.078 172.392,83.7591 174.063,83.7976 175.734,84.1944 177.406,84.916 179.077,85.8969 180.748,87.0473 182.419,88.263 184.09,89.4346 185.761,90.4574 187.432,91.2392 189.103,91.7069 190.775,91.8111 192.446,91.5298 194.117,90.871 195.788,89.8737 197.459,88.6085 199.13,87.1752 200.801,85.6978 202.472,84.3161 204.144,83.1735 205.815,82.4008 207.486,82.101 209.157,82.3331 210.828,83.1025 212.499,84.3578 214.17,85.9959 215.842,87.8731 217.513,89.8204 219.184,91.66 220.855,93.2198 222.526,94.3457 224.197,94.9109 225.868,94.8235 227.539,94.0334 229.211,92.5402 230.882,90.4009 232.553,87.7393 234.224,84.7521 235.895,81.709 237.566,78.9408 239.237,76.8105 240.908,75.6683 242.58,75.7945 244.251,77.3461 245.922,80.324 247.593,84.5706 249.264,89.8006 250.935,95.6518 252.606,101.74 254.277,107.701 255.949,113.22 257.62,118.037 259.291,121.945 260.962,124.781 262.633,126.41 264.304,126.714 265.975,125.592 267.646,122.953 269.318,118.73 270.989,112.908 272.66,105.564 274.331,96.9351 276.002,87.4984 277.673,78.0396 279.344,69.6621 281.016,63.6681 282.687,61.2812 284.358,63.2797 286.029,69.7204 287.7,79.9236 289.371,92.7304 291.042,106.87 292.713,121.25 294.385,135.095 296.056,147.941 297.727,159.575" stroke="#ecb01f" stroke-linecap="butt" stroke-linejoin="round" stroke-width="0.5"/>
   <polyline fill="none" points="48.7287,285.403 50.3998,285.418 52.0709,285.452 53.7421,285.497 55.4132,285.538 57.0843,285.562 58.7554,285.561 60.4266,285.536 62.0977,285.493 63.7688,285.445 65.4399,285.407 67.1111,285.392 68.7822,285.405 70.4533,285.442 72.1245,285.491 73.7956,285.537 75.4667,285.563 77.1379,285.559 78.809,285.523 80.4801,285.464 82.1512,285.398 83.8224,285.342 85.4935,285.314 87.1646,285.323 88.8357,285.367 90.5069,285.434 92.178,285.504 93.8491,285.553 95.5203,285.563 97.1914,285.527 98.8625,285.452 100.534,285.357 102.205,285.272 103.876,285.224 105.547,285.232 107.218,285.296 108.889,285.397 110.56,285.499 112.232,285.56 113.903,285.547 115.574,285.447 117.245,285.275 118.916,285.074 120.587,284.904 122.258,284.823 123.929,284.868 125.601,285.033 127.272,285.266 128.943,285.476 130.614,285.565 132.285,285.465 133.956,285.18 135.627,284.797 137.298,284.461 138.97,284.312 140.641,284.414 142.312,284.724 143.983,285.112 145.654,285.424 147.325,285.561 148.996,285.513 150.668,285.346 152.339,285.157 154.01,285.031 155.681,285.013 157.352,285.096 159.023,285.242 160.694,285.395 162.365,285.511 164.037,285.563 165.708,285.55 167.379,285.495 169.05,285.428 170.721,285.379 172.392,285.365 174.063,285.389 175.734,285.439 177.406,285.496 179.077,285.541 180.748,285.563 182.419,285.561 184.09,285.54 185.761,285.512 187.432,285.489 189.103,285.479 190.775,285.484 192.446,285.501 194.117,285.525 195.788,285.547 197.459,285.561 199.13,285.565 200.801,285.557 202.472,285.544 204.144,285.53 205.815,285.522 207.486,285.522 209.157,285.53 210.828,285.542 212.499,285.555 214.17,285.563 215.842,285.565 217.513,285.561 219.184,285.554 220.855,285.546 222.526,285.541 224.197,285.54 225.868,285.544 227.539,285.55 229.211,285.557 230.882,285.563 232.553,285.565 234.224,285.563 235.895,285.559 237.566,285.554 239.237,285.55 240.908,285.55 242.58,285.552 244.251,285.557 245.922,285.562 247.593,285.565 249.264,285.565 250.935,285.563 252.606,285.56 254.277,285.558 255.949,285.557 257.62,285.558 259.291,285.561 260.962,285.565 262.633,285.56 264.304,285.556 265.975,285.554 267.646,285.554 269.318,285.555 270.989,285.558 272.66,285.561 274.331,285.564 276.002,285.565 277.673,285.564 279.344,285.561 281.016,285.559 282.687,285.558 284.358,285.56 286.029,285.562 287.7,285.565 289.371,285.565 291.042,285.563 292.713,285.56 294.385,285.556 296.056,285.555 297.727,285.555" stroke="#7d2e8d" stroke-linecap="butt" stroke-linejoin="round" stroke-width="0.5"/>
   <polyline fill="none" points="48.7287,87.5044 50.3998,87.5044 52.0709,87.5044 53.7421,87.5044 55.4132,87.5044 57.0843,87.5044 58.7554,87.5044 60.4266,87.5044 62.0977,87.5044 63.7688,87.5044 65.4399,87.5044 67.1111,87.5044 68.7822,87.5044 70.4533,87.5044 72.1245,87.5044 73.7956,87.5044 75.4667,87.5044 77.1379,87.5044 78.809,87.5044 80.4801,87.5044 82.1512,87.5044 83.8224,87.5044 85.4935,87.5044 87.1646,87.5044 88.8357,87.5044 90.5069,87.5044 92.178,87.5044 93.8491,87.5044 95.5203,87.5044 97.1914,87.5044 98.8625,87.5044 100.534,87.5044 102.205,87.5044 103.876,87.5044 105.547,87.5044 107.218,87.5044 108.889,87.5044 110.56,87.5044 112.232,87.5044 113.903,87.5044 115.574,87.5044 117.245,87.5044 118.916,87.5044 120.587,87.5044 122.258,87.5044 123.929,87.5044 125.601,87.5044 127.272,87.5044 128.943,87.5044 130.614,87.5044 132.285,87.5044 133.956,87.5044 135.627,87.5044 137.298,87.5044 138.97,87.5044 140.641,87.5044 142.312,87.5044 143.983,87.5044 145.654,87.5044 147.325,87.5044 148.996,87.5044 150.668,87.5044 152.339,87.5044 154.01,87.5044 155.681,87.5044 157.352,87.5044 159.023,87.5044 160.694,87.5044 162.365,87.5044 164.037,87.5044 165.708,87.5044 167.379,87.5044 169.05,87.5044 170.721,87.5044 172.392,87.5044 174.063,87.5044 175.734,87.5044 177.406,87.5044 179.077,87.5044 180.748,87.5044 182.419,87.5044 184.09,87.5044 185.761,87.5044 187.432,87.5044 189.103,87.5044 190.775,87.5044 192.446,87.5044 194.117,87.5044 195.788,87.5044 197.459,87.5044 199.13,87.5044 200.801,87.5044 202.472,87.5044 204.144,87.5044 205.815,87.5044 207.486,87.5044 209.157,87.5044 210.828,87.5044 212.499,87.5044 214.17,87.5044 215.842,87.5044 217.513,87.5044 219.184,87.5044 220.855,87.5044 222.526,87.5044 224.197,87.5044 225.868,87.5044 227.539,87.5044 229.211,87.5044 230.882,87.5044 232.553,87.5044 234.224,87.5044 235.895,87.5044 237.566,87.5044 239.237,87.5044 240.908,87.5044 242.58,87.5044 244.251,87.5044 245.922,87.5044 247.593,87.5044 249.264,87.5044 250.935,87.5044 252.606,87.5044 254.277,87.5044 255.949,87.5044 257.62,87.5044 259.291,87.5044 260.962,87.5044 262.633,87.5044 264.304,87.5044 265.975,87.5044 267.646,87.5044 269.318,87.5044 270.989,87.5044 272.66,87.5044 274.331,87.5044 276.002,87.5044 277.673,87.5044 279.344,87.5044 281.016,87.5044 282.687,87.5044 284.358,87.5044 286.029,87.5044 287.7,87.5044 289.371,87.5044 291.042,87.5044 292.713,87.5044 294.385,87.5044 296.056,87.5044 297.727,87.5044" stroke="#76ab2f" stroke-linecap="butt" stroke-linejoin="round" stroke-width="0.5"/>
   <polyline fill="none" points="48.7287,276.848 50.3998,276.848 52.0709,276.848 53.7421,276.848 55.4132,276.848 57.0843,276.848 58.7554,276.848 60.4266,276.848 62.0977,276.848 63.7688,276.848 65.4399,276.848 67.1111,276.848 68.7822,276.848 70.4533,276.848 72.1245,276.848 73.7956,276.848 75.4667,276.848 77.1379,276.848 78.809,276.848 80.4801,276.848 82.1512,276.848 83.8224,276.848 85.4935,276.848 87.1646,276.848 88.8357,276.848 90.5069,276.848 92.178,276.849 93.8491,276.849 95.5203,276.849 97.1914,276.849 98.8625,276.85 100.534,276.85 102.205,276.851 103.876,276.852 105.547,276.854 107.218,276.857 108.889,276.86 110.56,276.866 112.232,276.872 113.903,276.882 115.574,276.895 117.245,276.912 118.916,276.935 120.587,276.966 122.258,277.006 123.929,277.059 125.601,277.127 127.272,277.214 128.943,277.324 130.614,277.46 132.285,277.628 133.956,277.83 135.627,278.068 137.298,278.345 138.97,278.658 140.641,279.005 142.312,279.379 143.983,279.773 145.654,280.179 147.325,280.588 148.996,280.992 150.668,281.383 152.339,281.757 154.01,282.109 155.681,282.438 157.352,282.741 159.023,283.02 160.694,283.274 162.365,283.504 164.037,283.713 165.708,283.901 167.379,284.07 169.05,284.223 170.721,284.36 172.392,284.483 174.063,284.593 175.734,284.692 177.406,284.781 179.077,284.861 180.748,284.932 182.419,284.996 184.09,285.054 185.761,285.106 187.432,285.153 189.103,285.195 190.775,285.232 192.446,285.266 194.117,285.297 195.788,285.324 197.459,285.349 199.13,285.371 200.801,285.391 202.472,285.409 204.144,285.425 205.815,285.44 207.486,285.453 209.157,285.465 210.828,285.476 212.499,285.485 214.17,285.494 215.842,285.502 217.513,285.509 219.184,285.515 220.855,285.521 222.526,285.526 224.197,285.53 225.868,285.535 227.539,285.538 229.211,285.542 230.882,285.544 232.553,285.547 234.224,285.549 235.895,285.552 237.566,285.553 239.237,285.555 240.908,285.557 242.58,285.558 244.251,285.559 245.922,285.56 247.593,285.561 249.264,285.562 250.935,285.562 252.606,285.563 254.277,285.564 255.949,285.564 257.62,285.564 259.291,285.565 260.962,285.565 262.633,285.565 264.304,285.565 265.975,285.564 267.646,285.564 269.318,285.564 270.989,285.564 272.66,285.564 274.331,285.564 276.002,285.564 277.673,285.564 279.344,285.564 281.016,285.564 282.687,285.564 284.358,285.564 286.029,285.564 287.7,285.564 289.371,285.564 291.042,285.565 292.713,285.565 294.385,285.565 296.056,285.565 297.727,285.565" stroke="#4cbded" stroke-linecap="butt" stroke-linejoin="round" stroke-width="0.5"/>
  </g>
  <clipPath id="cp00374320">
   <polygon points="0,320 374,320 374,0 0,0"/>
  </clipPath>
  <g clip-path="url(#cp00374320)">
   <polygon fill="#ffffff" points="245.209,277.561 331.223,277.561 331.223,193.146 245.209,193.146" shape-rendering="crispEdges"/>
   <polyline fill="none" points="245.209,277.561 331.223,277.561" stroke="#262626" stroke-dasharray="16,0" stroke-linecap="square" stroke-linejoin="miter" stroke-width="0.5"/>
   <polyline fill="none" points="245.209,193.146 331.223,193.146" stroke="#262626" stroke-dasharray="16,0" stroke-linecap="square" stroke-linejoin="miter" stroke-width="0.5"/>
   <polyline fill="none" points="245.209,277.561 245.209,193.146" stroke="#262626" stroke-dasharray="16,0" stroke-linecap="square" stroke-linejoin="miter" stroke-width="0.5"/>
   <polyline fill="none" points="331.223,277.561 331.223,193.146" stroke="#262626" stroke-dasharray="16,0" stroke-linecap="square" stroke-linejoin="miter" stroke-width="0.5"/>
   <polyline fill="none" points="249.211,202.147 269.219,202.147" stroke="#0071bc" stroke-linecap="butt" stroke-linejoin="round" stroke-width="0.5"/>
   <g font-family="FreeSans" font-size="9" font-style="normal" font-weight="normal" transform="translate(273.221,207.147) rotate(-0,-0,-5)" xml:space="preserve">
    <text fill="rgb(0,0,0)" x="0 5 8 13 15 18 23 " y="-2">grd ref</text>
   </g>
   <polyline fill="none" points="249.211,215.649 269.219,215.649" stroke="#d85218" stroke-linecap="butt" stroke-linejoin="round" stroke-width="0.5"/>
   <g font-family="FreeSans" font-size="9" font-style="normal" font-weight="normal" transform="translate(273.221,220.149) rotate(-0,-0,-4.5)" xml:space="preserve">
    <text fill="rgb(0,0,0)" x="0 5 10 " y="-2">opt</text>
   </g>
   <polyline fill="none" points="249.211,229.151 269.219,229.151" stroke="#ecb01f" stroke-linecap="butt" stroke-linejoin="round" stroke-width="0.5"/>
   <g font-family="FreeSans" font-size="9" font-style="normal" font-weight="normal" transform="translate(273.221,234.151) rotate(-0,-0,-5)" xml:space="preserve">
    <text fill="rgb(0,0,0)" x="0 3 8 11 16 21 26 " y="-2">ref+opt</text>
   </g>
   <polyline fill="none" points="249.211,242.354 269.219,242.354" stroke="#7d2e8d" stroke-linecap="butt" stroke-linejoin="round" stroke-width="0.5"/>
   <g font-family="FreeSans" font-size="9" font-style="normal" font-weight="normal" transform="translate(273.221,245.354) rotate(-0,-0,-3)" xml:space="preserve">
    <text fill="rgb(0,0,0)" x="0 5 8 " y="-0">err</text>
   </g>
   <polyline fill="none" points="249.211,255.058 269.219,255.058" stroke="#76ab2f" stroke-linecap="butt" stroke-linejoin="round" stroke-width="0.5"/>
   <g font-family="FreeSans" font-size="9" font-style="normal" font-weight="normal" transform="translate(273.221,259.558) rotate(-0,-0,-4.5)" xml:space="preserve">
    <text fill="rgb(0,0,0)" x="0 3 8 11 16 21 " y="-2">target</text>
   </g>
   <polyline fill="none" points="249.211,268.56 269.219,268.56" stroke="#4cbded" stroke-linecap="butt" stroke-linejoin="round" stroke-width="0.5"/>
   <g font-family="FreeSans" font-size="9" font-style="normal" font-weight="normal" transform="translate(273.221,273.56) rotate(-0,-0,-5)" xml:space="preserve">
    <text fill="rgb(0,0,0)" x="0 5 8 11 13 20 25 27 32 37 40 44 46 48 50 52 " y="-2">err weights     </text>
   </g>
  </g>
 </g>
</svg>
