<?xml version='1.0' encoding='UTF-8' standalone='no'?>
<svg height="320pt" viewBox="0 0 374 320" width="374pt" xmlns="http://www.w3.org/2000/svg" xmlns:xlink="http://www.w3.org/1999/xlink">
 <title>Figure 5</title>
 <desc>
Creator: GL2PS 1.4.2, (C) 1999-2020 C. Geuzaine
For: Octave
CreationDate: Thu Feb 19 12:08:06 2026
</desc>
 <defs/>
 <polygon fill="#ffffff" points="0,0 374,0 374,320 0,320"/>
 <g>
  <polygon fill="#ffffff" points="0,320 374,320 374,0 0,0" shape-rendering="crispEdges"/>
  <clipPath id="cp00374320">
   <polygon points="0,320 374,320 374,0 0,0"/>
  </clipPath>
  <g clip-path="url(#cp00374320)">
   <polygon fill="#ffffff" points="55.0086,132.657 339.226,132.657 339.226,27.9502 55.0086,27.9502" shape-rendering="crispEdges"/>
   <polyline fill="none" points="55.0086,132.657 55.0086,129.823" stroke="#262626" stroke-linecap="butt" stroke-linejoin="miter" stroke-width="0.5"/>
   <polyline fill="none" points="55.0086,27.9502 55.0086,30.7845" stroke="#262626" stroke-linecap="butt" stroke-linejoin="miter" stroke-width="0.5"/>
   <polyline fill="none" points="111.852,132.657 111.852,129.823" stroke="#262626" stroke-linecap="butt" stroke-linejoin="miter" stroke-width="0.5"/>
   <polyline fill="none" points="111.852,27.9502 111.852,30.7845" stroke="#262626" stroke-linecap="butt" stroke-linejoin="miter" stroke-width="0.5"/>
   <polyline fill="none" points="168.696,132.657 168.696,129.823" stroke="#262626" stroke-linecap="butt" stroke-linejoin="miter" stroke-width="0.5"/>
   <polyline fill="none" points="168.696,27.9502 168.696,30.7845" stroke="#262626" stroke-linecap="butt" stroke-linejoin="miter" stroke-width="0.5"/>
   <polyline fill="none" points="225.539,132.657 225.539,129.823" stroke="#262626" stroke-linecap="butt" stroke-linejoin="miter" stroke-width="0.5"/>
   <polyline fill="none" points="225.539,27.9502 225.539,30.7845" stroke="#262626" stroke-linecap="butt" stroke-linejoin="miter" stroke-width="0.5"/>
   <polyline fill="none" points="282.383,132.657 282.383,129.823" stroke="#262626" stroke-linecap="butt" stroke-linejoin="miter" stroke-width="0.5"/>
   <polyline fill="none" points="282.383,27.9502 282.383,30.7845" stroke="#262626" stroke-linecap="butt" stroke-linejoin="miter" stroke-width="0.5"/>
   <polyline fill="none" points="339.226,132.657 339.226,129.823" stroke="#262626" stroke-linecap="butt" stroke-linejoin="miter" stroke-width="0.5"/>
   <polyline fill="none" points="339.226,27.9502 339.226,30.7845" stroke="#262626" stroke-linecap="butt" stroke-linejoin="miter" stroke-width="0.5"/>
   <g font-family="FreeSans" font-size="10" font-style="normal" font-weight="normal" transform="translate(52.0086,148.137) rotate(-0,3,-8)" xml:space="preserve">
    <text fill="rgb(38,38,38)" x="0 " y="-0">0</text>
   </g>
   <g font-family="FreeSans" font-size="10" font-style="normal" font-weight="normal" transform="translate(104.352,148.137) rotate(-0,7.5,-8)" xml:space="preserve">
    <text fill="rgb(38,38,38)" x="0 6 9 " y="-0">0.2</text>
   </g>
   <g font-family="FreeSans" font-size="10" font-style="normal" font-weight="normal" transform="translate(161.196,148.137) rotate(-0,7.5,-8)" xml:space="preserve">
    <text fill="rgb(38,38,38)" x="0 6 9 " y="-0">0.4</text>
   </g>
   <g font-family="FreeSans" font-size="10" font-style="normal" font-weight="normal" transform="translate(218.039,148.137) rotate(-0,7.5,-8)" xml:space="preserve">
    <text fill="rgb(38,38,38)" x="0 6 9 " y="-0">0.6</text>
   </g>
   <g font-family="FreeSans" font-size="10" font-style="normal" font-weight="normal" transform="translate(274.883,148.137) rotate(-0,7.5,-8)" xml:space="preserve">
    <text fill="rgb(38,38,38)" x="0 6 9 " y="-0">0.8</text>
   </g>
   <g font-family="FreeSans" font-size="10" font-style="normal" font-weight="normal" transform="translate(336.226,148.137) rotate(-0,3,-8)" xml:space="preserve">
    <text fill="rgb(38,38,38)" x="0 " y="-0">1</text>
   </g>
   <polyline fill="none" points="55.0086,132.657 57.8529,132.657" stroke="#262626" stroke-linecap="butt" stroke-linejoin="miter" stroke-width="0.5"/>
   <polyline fill="none" points="339.226,132.657 336.382,132.657" stroke="#262626" stroke-linecap="butt" stroke-linejoin="miter" stroke-width="0.5"/>
   <polyline fill="none" points="55.0086,111.716 57.8529,111.716" stroke="#262626" stroke-linecap="butt" stroke-linejoin="miter" stroke-width="0.5"/>
   <polyline fill="none" points="339.226,111.716 336.382,111.716" stroke="#262626" stroke-linecap="butt" stroke-linejoin="miter" stroke-width="0.5"/>
   <polyline fill="none" points="55.0086,90.7746 57.8529,90.7746" stroke="#262626" stroke-linecap="butt" stroke-linejoin="miter" stroke-width="0.5"/>
   <polyline fill="none" points="339.226,90.7746 336.382,90.7746" stroke="#262626" stroke-linecap="butt" stroke-linejoin="miter" stroke-width="0.5"/>
   <polyline fill="none" points="55.0086,69.8331 57.8529,69.8331" stroke="#262626" stroke-linecap="butt" stroke-linejoin="miter" stroke-width="0.5"/>
   <polyline fill="none" points="339.226,69.8331 336.382,69.8331" stroke="#262626" stroke-linecap="butt" stroke-linejoin="miter" stroke-width="0.5"/>
   <polyline fill="none" points="55.0086,48.8916 57.8529,48.8916" stroke="#262626" stroke-linecap="butt" stroke-linejoin="miter" stroke-width="0.5"/>
   <polyline fill="none" points="339.226,48.8916 336.382,48.8916" stroke="#262626" stroke-linecap="butt" stroke-linejoin="miter" stroke-width="0.5"/>
   <polyline fill="none" points="55.0086,27.9502 57.8529,27.9502" stroke="#262626" stroke-linecap="butt" stroke-linejoin="miter" stroke-width="0.5"/>
   <polyline fill="none" points="339.226,27.9502 336.382,27.9502" stroke="#262626" stroke-linecap="butt" stroke-linejoin="miter" stroke-width="0.5"/>
   <g font-family="FreeSans" font-size="10" font-style="normal" font-weight="normal" transform="translate(20.0047,136.657) rotate(-0,30,-4)" xml:space="preserve">
    <text fill="rgb(38,38,38)" x="0 3 9 12 18 24 " y="-0">-0.015</text>
   </g>
   <g font-family="FreeSans" font-size="10" font-style="normal" font-weight="normal" transform="translate(26.0047,115.716) rotate(-0,24,-4)" xml:space="preserve">
    <text fill="rgb(38,38,38)" x="0 3 9 12 18 " y="-0">-0.01</text>
   </g>
   <g font-family="FreeSans" font-size="10" font-style="normal" font-weight="normal" transform="translate(20.0047,94.7745) rotate(-0,30,-4)" xml:space="preserve">
    <text fill="rgb(38,38,38)" x="0 3 9 12 18 24 " y="-0">-0.005</text>
   </g>
   <g font-family="FreeSans" font-size="10" font-style="normal" font-weight="normal" transform="translate(44.0047,73.8331) rotate(-0,6,-4)" xml:space="preserve">
    <text fill="rgb(38,38,38)" x="0 " y="-0">0</text>
   </g>
   <g font-family="FreeSans" font-size="10" font-style="normal" font-weight="normal" transform="translate(23.0047,52.8916) rotate(-0,27,-4)" xml:space="preserve">
    <text fill="rgb(38,38,38)" x="0 6 9 15 21 " y="-0">0.005</text>
   </g>
   <g font-family="FreeSans" font-size="10" font-style="normal" font-weight="normal" transform="translate(29.0047,31.9502) rotate(-0,21,-4)" xml:space="preserve">
    <text fill="rgb(38,38,38)" x="0 6 9 15 " y="-0">0.01</text>
   </g>
   <polyline fill="none" points="55.0086,132.657 339.226,132.657" stroke="#262626" stroke-dasharray="16,0" stroke-linecap="square" stroke-linejoin="miter" stroke-width="0.5"/>
   <polyline fill="none" points="55.0086,27.9502 339.226,27.9502" stroke="#262626" stroke-dasharray="16,0" stroke-linecap="square" stroke-linejoin="miter" stroke-width="0.5"/>
   <polyline fill="none" points="55.0086,132.657 55.0086,27.9502" stroke="#262626" stroke-dasharray="16,0" stroke-linecap="square" stroke-linejoin="miter" stroke-width="0.5"/>
   <polyline fill="none" points="339.226,132.657 339.226,27.9502" stroke="#262626" stroke-dasharray="16,0" stroke-linecap="square" stroke-linejoin="miter" stroke-width="0.5"/>
   <g font-family="FreeSans" font-size="11" font-style="normal" font-weight="bold" transform="translate(57.1175,17.9502) rotate(-0,140,0)" xml:space="preserve">
    <text fill="rgb(0,0,0)" x="0 8 15 22 28 31 39 42 48 55 59 65 75 78 85 89 92 99 102 110 113 120 123 126 130 136 140 143 146 153 157 164 170 174 180 186 192 198 201 204 213 216 223 230 237 246 252 260 267 274 " y="-3">Bode Diagram of FIR Filter, order=241, window=None</text>
   </g>
   <g font-family="FreeSans" font-size="11" font-style="normal" font-weight="normal" transform="translate(-20.9953,80.3038) rotate(-90,36,0)" xml:space="preserve">
    <text fill="rgb(38,38,38)" x="0 9 15 21 27 29 32 38 44 50 53 56 62 69 " y="-2">Magnitude [dB]</text>
   </g>
   <polyline fill="none" points="55.0086,69.8331 55.5637,69.8472 56.1188,69.8748 56.6739,69.8832 57.229,69.8484 57.7841,69.778 58.3393,69.7124 58.8944,69.7022 59.4495,69.773 60.0046,69.9012 60.5597,70.0199 61.1148,70.0534 61.6699,69.9641 62.225,69.7828 62.7802,69.6006 63.3353,69.5233 63.8904,69.6105 64.4455,69.8342 65.0006,70.0844 65.5557,70.2233 66.1108,70.1607 66.666,69.9108 67.2211,69.5941 67.7762,69.3798 68.3313,69.3952 68.8864,69.6512 69.4415,70.0264 69.9966,70.3244 70.5518,70.377 71.1069,70.1385 71.662,69.719 72.2171,69.3348 72.7722,69.1963 73.3273,69.3928 73.8824,69.8372 74.4375,70.3031 74.9927,70.5406 75.5478,70.4104 76.1029,69.9648 76.658,69.4282 77.2131,69.0846 77.7682,69.1262 78.3233,69.5468 78.8784,70.1366 79.4335,70.5867 79.9887,70.6519 80.5438,70.2837 81.0989,69.6637 81.654,69.1139 82.2091,68.929 82.7642,69.2184 83.3194,69.8417 83.8745,70.477 84.4296,70.7874 84.9847,70.6005 85.5398,70.0035 86.0949,69.3036 86.65,68.869 87.2051,68.935 87.7603,69.4758 88.3154,70.2137 88.8705,70.7623 89.4256,70.8293 89.9807,70.3733 90.5358,69.6281 91.0909,68.9832 91.646,68.7791 92.2012,69.1265 92.7563,69.8462 93.3114,70.5617 93.8665,70.8975 94.4216,70.6769 94.9767,70.0155 95.5318,69.2605 96.0869,68.8076 96.6421,68.8922 97.1972,69.4661 97.7523,70.2248 98.3074,70.7701 98.8625,70.8206 99.4176,70.3581 99.9727,69.633 100.528,69.0279 101.083,68.8546 101.638,69.1915 102.193,69.8477 102.748,70.4721 103.303,70.7428 103.859,70.535 104.414,69.9786 104.969,69.3788 105.524,69.0473 106.079,69.1378 106.634,69.5737 107.189,70.103 107.744,70.4456 108.299,70.4443 108.855,70.1381 109.41,69.7223 109.965,69.4263 110.52,69.3843 111.075,69.5714 111.63,69.8393 112.185,70.0221 112.74,70.0413 113.295,69.9421 113.851,69.8437 114.406,69.8407 114.961,69.9273 115.516,69.9981 116.071,69.9293 116.626,69.6884 117.181,69.3927 117.736,69.2601 118.291,69.4679 118.847,70.0051 119.402,70.6235 119.957,70.9419 120.512,70.6656 121.067,69.8025 121.622,68.7346 122.177,68.0662 122.732,68.2955 123.287,69.4836 123.843,71.1258 124.398,72.3443 124.953,72.3402 125.508,70.8822 126.063,68.5481 126.618,66.5332 127.173,66.0605 127.728,67.67 128.284,70.7893 128.839,73.8805 129.394,75.17 129.949,73.6286 130.504,69.6801 131.059,65.1904 131.614,62.6302 132.169,63.7585 132.724,68.508 133.28,74.743 133.835,79.1563 134.39,78.9669 134.945,73.5746 135.5,65.2341 136.055,58.2157 136.61,56.6971 137.165,62.3854 137.72,73.1726 138.276,83.739 138.831,88.0644 139.386,82.7268 139.941,69.2472 140.496,54.0008 141.051,45.3599 141.606,49.2554 142.161,65.4212 142.716,86.5579 143.272,101.386 143.827,100.515 144.382,82.208 144.937,54.58 145.492,32.2558 146.047,28.5685 146.602,47.3754 147.157,79.6137 147.712,107.623 148.268,115.504 148.823,99.0888 149.378,68.5089 149.933,41.4426 150.488,31.9848 151.043,42.7907 151.598,65.0491 152.153,85.1966 152.708,93.3256 153.264,88.0412 153.819,75.53 154.374,64.4281 154.929,60.2629 155.484,62.8442 156.039,67.71 156.594,70.115 157.149,68.5891 157.704,65.6555 158.26,65.4481 158.815,70.1427 159.37,77.8332 159.925,83.4082 160.48,81.9518 161.035,72.4465 161.59,59.1969 162.145,49.7577 162.701,50.4466 163.256,62.196 163.811,79.4142 164.366,92.7722 164.921,94.4693 165.476,82.919 166.031,63.9765 166.586,47.8212 167.141,43.2444 167.697,52.6689 168.252,70.7942 168.807,87.6609 169.362,94.3543 169.917,87.9961 170.472,73.0728 171.027,58.4041 171.582,51.7361 172.137,55.3315 172.693,65.2222 173.248,74.4337 173.803,77.8813 174.358,75.4773 174.913,71.3146 175.468,69.8071 176.023,72.0021 176.578,74.9817 177.133,74.6482 177.689,69.456 178.244,62.0204 178.799,57.3845 179.354,59.3754 179.909,67.7725 180.464,78.2074 181.019,84.7574 181.574,83.5108 182.129,74.9106 182.685,63.5262 183.24,55.4687 183.795,55.0002 184.35,62.255 184.905,73.2669 185.46,82.1932 186.015,84.4598 186.57,79.1225 187.125,69.2239 187.681,60.0459 188.236,56.2741 188.791,59.6053 189.346,68.0111 189.901,76.9532 190.456,81.8313 191.011,80.3483 191.566,73.5767 192.122,65.2393 192.677,59.669 193.232,59.5631 193.787,64.6934 194.342,72.1738 194.897,78.07 195.452,79.4611 196.007,75.8774 196.562,69.4099 197.118,63.506 197.673,61.1401 198.228,63.3243 198.783,68.7006 199.338,74.3596 199.893,77.4063 200.448,76.434 201.003,72.1592 201.558,66.9398 202.114,63.4828 202.669,63.4472 203.224,66.6591 203.779,71.3021 204.334,74.9345 204.889,75.7674 205.444,73.5379 205.999,69.556 206.554,65.9469 207.11,64.5225 207.665,65.8781 208.22,69.1603 208.775,72.587 209.33,74.4093 209.885,73.7994 210.44,71.2158 210.995,68.0915 211.55,66.0457 212.106,66.0486 212.661,67.9685 213.216,70.7081 213.771,72.8248 214.326,73.287 214.881,71.971 215.436,69.6635 215.991,67.601 216.546,66.8109 217.102,67.6036 217.657,69.4641 218.212,71.3733 218.767,72.3622 219.322,72.001 219.877,70.5763 220.432,68.8909 220.987,67.8167 221.542,67.8455 222.098,68.87 222.653,70.2874 223.208,71.3488 223.763,71.5526 224.318,70.8771 224.873,69.7466 225.428,68.7744 225.983,68.4326 226.539,68.8253 227.094,69.6736 227.649,70.4995 228.204,70.8922 228.759,70.7104 229.314,70.1213 229.869,69.476 230.424,69.1054 230.979,69.1519 231.535,69.5225 232.09,69.9729 232.645,70.2614 233.2,70.2768 233.755,70.0747 234.31,69.8145 234.865,69.6492 235.42,69.6384 235.975,69.7316 236.531,69.824 237.086,69.8406 237.641,69.7885 238.196,69.7435 238.751,69.7843 239.306,69.9229 239.861,70.0821 240.416,70.1397 240.971,70.0126 241.527,69.7282 242.082,69.4298 242.637,69.3039 243.192,69.4656 243.747,69.8721 244.302,70.3245 244.857,70.5656 245.412,70.4259 245.967,69.9345 246.523,69.3271 247.078,68.9333 247.633,68.9969 248.188,69.5279 248.743,70.2751 249.298,70.8447 249.853,70.9082 250.408,70.3908 250.964,69.5318 251.519,68.7758 252.074,68.5419 252.629,68.9913 253.184,69.9224 253.739,70.8594 254.294,71.2965 254.849,70.9705 255.404,70.0169 255.96,68.9171 256.515,68.2552 257.07,68.4075 257.625,69.329 258.18,70.5592 258.735,71.4528 259.29,71.5182 259.845,70.6879 260.4,69.3707 260.956,68.2515 261.511,67.9342 262.066,68.6158 262.621,69.9671 263.176,71.2908 263.731,71.8821 264.286,71.4042 264.841,70.0786 265.396,68.5843 265.952,67.7097 266.507,67.9361 267.062,69.1732 267.617,70.7917 268.172,71.944 268.727,72.0081 269.282,70.9235 269.837,69.2368 270.392,67.8264 270.948,67.4445 271.503,68.3161 272.058,70.0074 272.613,71.642 273.168,72.3552 273.723,71.7519 274.278,70.1245 274.833,68.3121 275.388,67.2679 275.944,67.5571 276.499,69.051 277.054,70.9833 277.609,72.3426 278.164,72.4028 278.719,71.1105 279.274,69.1247 279.829,67.4806 280.384,67.0494 280.94,68.0769 281.495,70.0438 282.05,71.9284 282.605,72.7375 283.16,72.0302 283.715,70.1577 284.27,68.0894 284.825,66.9108 285.381,67.2533 285.936,68.9562 286.491,71.141 287.046,72.6651 287.601,72.7192 288.156,71.2577 288.711,69.0311 289.266,67.2007 289.821,66.7328 290.377,67.8879 290.932,70.0766 291.487,72.1603 292.042,73.0435 292.597,72.2503 293.152,70.1806 293.707,67.9087 294.262,66.6253 294.817,67.0132 295.373,68.8842 295.928,71.2697 296.483,72.9224 297.038,72.9689 297.593,71.371 298.148,68.9535 298.703,66.9778 299.258,66.4837 299.813,67.7419 300.369,70.106 300.924,72.3448 301.479,73.2833 302.034,72.42 302.589,70.1949 303.144,67.7649 303.699,66.4025 304.254,66.8287 304.809,68.8318 305.365,71.3724 305.92,73.1223 306.475,73.1597 307.03,71.4547 307.585,68.8906 308.14,66.8056 308.695,66.2946 309.25,67.6339 309.806,70.132 310.361,72.4867 310.916,73.4639 311.471,72.545 312.026,70.2018 312.581,67.6547 313.136,66.2363 313.691,66.6941 314.246,68.797 314.802,71.4512 315.357,73.2698 315.912,73.2972 316.467,71.5119 317.022,68.8414 317.577,66.6799 318.132,66.1604 318.687,67.5605 319.242,70.1544 319.798,72.589 320.353,73.5899 320.908,72.6288 321.463,70.2024 322.018,67.576 322.573,66.1226 323.128,66.6057 323.683,68.7779 324.238,71.5075 324.794,73.3683 325.349,73.3851 325.904,71.5446 326.459,68.8055 327.014,66.5981 327.569,66.0775 328.124,67.5191 328.679,70.173 329.234,72.6539 329.79,73.6644 330.345,72.674 330.9,70.1974 331.455,67.5273 332.01,66.059 332.565,66.561 333.12,68.7734 333.675,71.5418 334.23,73.42 334.786,73.4256 335.341,71.5543 335.896,68.7828 336.451,66.5586 337.006,66.044 337.561,67.5083 338.116,70.1874 338.671,72.6821" stroke="#0071bc" stroke-linecap="butt" stroke-linejoin="round" stroke-width="0.5"/>
  </g>
  <clipPath id="cp00374320">
   <polygon points="0,320 374,320 374,0 0,0"/>
  </clipPath>
  <g clip-path="url(#cp00374320)">
   <polygon fill="#ffffff" points="55.0086,285.565 339.226,285.565 339.226,180.858 55.0086,180.858" shape-rendering="crispEdges"/>
   <polyline fill="none" points="55.0086,285.565 55.0086,282.731" stroke="#262626" stroke-linecap="butt" stroke-linejoin="miter" stroke-width="0.5"/>
   <polyline fill="none" points="55.0086,180.858 55.0086,183.692" stroke="#262626" stroke-linecap="butt" stroke-linejoin="miter" stroke-width="0.5"/>
   <polyline fill="none" points="111.852,285.565 111.852,282.731" stroke="#262626" stroke-linecap="butt" stroke-linejoin="miter" stroke-width="0.5"/>
   <polyline fill="none" points="111.852,180.858 111.852,183.692" stroke="#262626" stroke-linecap="butt" stroke-linejoin="miter" stroke-width="0.5"/>
   <polyline fill="none" points="168.696,285.565 168.696,282.731" stroke="#262626" stroke-linecap="butt" stroke-linejoin="miter" stroke-width="0.5"/>
   <polyline fill="none" points="168.696,180.858 168.696,183.692" stroke="#262626" stroke-linecap="butt" stroke-linejoin="miter" stroke-width="0.5"/>
   <polyline fill="none" points="225.539,285.565 225.539,282.731" stroke="#262626" stroke-linecap="butt" stroke-linejoin="miter" stroke-width="0.5"/>
   <polyline fill="none" points="225.539,180.858 225.539,183.692" stroke="#262626" stroke-linecap="butt" stroke-linejoin="miter" stroke-width="0.5"/>
   <polyline fill="none" points="282.383,285.565 282.383,282.731" stroke="#262626" stroke-linecap="butt" stroke-linejoin="miter" stroke-width="0.5"/>
   <polyline fill="none" points="282.383,180.858 282.383,183.692" stroke="#262626" stroke-linecap="butt" stroke-linejoin="miter" stroke-width="0.5"/>
   <polyline fill="none" points="339.226,285.565 339.226,282.731" stroke="#262626" stroke-linecap="butt" stroke-linejoin="miter" stroke-width="0.5"/>
   <polyline fill="none" points="339.226,180.858 339.226,183.692" stroke="#262626" stroke-linecap="butt" stroke-linejoin="miter" stroke-width="0.5"/>
   <g font-family="FreeSans" font-size="10" font-style="normal" font-weight="normal" transform="translate(52.0086,301.044) rotate(-0,3,-8)" xml:space="preserve">
    <text fill="rgb(38,38,38)" x="0 " y="-0">0</text>
   </g>
   <g font-family="FreeSans" font-size="10" font-style="normal" font-weight="normal" transform="translate(104.352,301.044) rotate(-0,7.5,-8)" xml:space="preserve">
    <text fill="rgb(38,38,38)" x="0 6 9 " y="-0">0.2</text>
   </g>
   <g font-family="FreeSans" font-size="10" font-style="normal" font-weight="normal" transform="translate(161.196,301.044) rotate(-0,7.5,-8)" xml:space="preserve">
    <text fill="rgb(38,38,38)" x="0 6 9 " y="-0">0.4</text>
   </g>
   <g font-family="FreeSans" font-size="10" font-style="normal" font-weight="normal" transform="translate(218.039,301.044) rotate(-0,7.5,-8)" xml:space="preserve">
    <text fill="rgb(38,38,38)" x="0 6 9 " y="-0">0.6</text>
   </g>
   <g font-family="FreeSans" font-size="10" font-style="normal" font-weight="normal" transform="translate(274.883,301.044) rotate(-0,7.5,-8)" xml:space="preserve">
    <text fill="rgb(38,38,38)" x="0 6 9 " y="-0">0.8</text>
   </g>
   <g font-family="FreeSans" font-size="10" font-style="normal" font-weight="normal" transform="translate(336.226,301.044) rotate(-0,3,-8)" xml:space="preserve">
    <text fill="rgb(38,38,38)" x="0 " y="-0">1</text>
   </g>
   <polyline fill="none" points="55.0086,285.565 57.8529,285.565" stroke="#262626" stroke-linecap="butt" stroke-linejoin="miter" stroke-width="0.5"/>
   <polyline fill="none" points="339.226,285.565 336.382,285.565" stroke="#262626" stroke-linecap="butt" stroke-linejoin="miter" stroke-width="0.5"/>
   <polyline fill="none" points="55.0086,268.114 57.8529,268.114" stroke="#262626" stroke-linecap="butt" stroke-linejoin="miter" stroke-width="0.5"/>
   <polyline fill="none" points="339.226,268.114 336.382,268.114" stroke="#262626" stroke-linecap="butt" stroke-linejoin="miter" stroke-width="0.5"/>
   <polyline fill="none" points="55.0086,250.663 57.8529,250.663" stroke="#262626" stroke-linecap="butt" stroke-linejoin="miter" stroke-width="0.5"/>
   <polyline fill="none" points="339.226,250.663 336.382,250.663" stroke="#262626" stroke-linecap="butt" stroke-linejoin="miter" stroke-width="0.5"/>
   <polyline fill="none" points="55.0086,233.211 57.8529,233.211" stroke="#262626" stroke-linecap="butt" stroke-linejoin="miter" stroke-width="0.5"/>
   <polyline fill="none" points="339.226,233.211 336.382,233.211" stroke="#262626" stroke-linecap="butt" stroke-linejoin="miter" stroke-width="0.5"/>
   <polyline fill="none" points="55.0086,215.76 57.8529,215.76" stroke="#262626" stroke-linecap="butt" stroke-linejoin="miter" stroke-width="0.5"/>
   <polyline fill="none" points="339.226,215.76 336.382,215.76" stroke="#262626" stroke-linecap="butt" stroke-linejoin="miter" stroke-width="0.5"/>
   <polyline fill="none" points="55.0086,198.309 57.8529,198.309" stroke="#262626" stroke-linecap="butt" stroke-linejoin="miter" stroke-width="0.5"/>
   <polyline fill="none" points="339.226,198.309 336.382,198.309" stroke="#262626" stroke-linecap="butt" stroke-linejoin="miter" stroke-width="0.5"/>
   <polyline fill="none" points="55.0086,180.858 57.8529,180.858" stroke="#262626" stroke-linecap="butt" stroke-linejoin="miter" stroke-width="0.5"/>
   <polyline fill="none" points="339.226,180.858 336.382,180.858" stroke="#262626" stroke-linecap="butt" stroke-linejoin="miter" stroke-width="0.5"/>
   <g font-family="FreeSans" font-size="10" font-style="normal" font-weight="normal" transform="translate(17.0047,289.565) rotate(-0,33,-4)" xml:space="preserve">
    <text fill="rgb(38,38,38)" x="0 3 9 15 21 27 " y="-0">-25000</text>
   </g>
   <g font-family="FreeSans" font-size="10" font-style="normal" font-weight="normal" transform="translate(17.0047,272.114) rotate(-0,33,-4)" xml:space="preserve">
    <text fill="rgb(38,38,38)" x="0 3 9 15 21 27 " y="-0">-20000</text>
   </g>
   <g font-family="FreeSans" font-size="10" font-style="normal" font-weight="normal" transform="translate(17.0047,254.663) rotate(-0,33,-4)" xml:space="preserve">
    <text fill="rgb(38,38,38)" x="0 3 9 15 21 27 " y="-0">-15000</text>
   </g>
   <g font-family="FreeSans" font-size="10" font-style="normal" font-weight="normal" transform="translate(17.0047,237.211) rotate(-0,33,-4)" xml:space="preserve">
    <text fill="rgb(38,38,38)" x="0 3 9 15 21 27 " y="-0">-10000</text>
   </g>
   <g font-family="FreeSans" font-size="10" font-style="normal" font-weight="normal" transform="translate(23.0047,219.76) rotate(-0,27,-4)" xml:space="preserve">
    <text fill="rgb(38,38,38)" x="0 3 9 15 21 " y="-0">-5000</text>
   </g>
   <g font-family="FreeSans" font-size="10" font-style="normal" font-weight="normal" transform="translate(44.0047,202.309) rotate(-0,6,-4)" xml:space="preserve">
    <text fill="rgb(38,38,38)" x="0 " y="-0">0</text>
   </g>
   <g font-family="FreeSans" font-size="10" font-style="normal" font-weight="normal" transform="translate(26.0047,184.858) rotate(-0,24,-4)" xml:space="preserve">
    <text fill="rgb(38,38,38)" x="0 6 12 18 " y="-0">5000</text>
   </g>
   <polyline fill="none" points="55.0086,285.565 339.226,285.565" stroke="#262626" stroke-dasharray="16,0" stroke-linecap="square" stroke-linejoin="miter" stroke-width="0.5"/>
   <polyline fill="none" points="55.0086,180.858 339.226,180.858" stroke="#262626" stroke-dasharray="16,0" stroke-linecap="square" stroke-linejoin="miter" stroke-width="0.5"/>
   <polyline fill="none" points="55.0086,285.565 55.0086,180.858" stroke="#262626" stroke-dasharray="16,0" stroke-linecap="square" stroke-linejoin="miter" stroke-width="0.5"/>
   <polyline fill="none" points="339.226,285.565 339.226,180.858" stroke="#262626" stroke-dasharray="16,0" stroke-linecap="square" stroke-linejoin="miter" stroke-width="0.5"/>
   <g font-family="FreeSans" font-size="11" font-style="normal" font-weight="normal" transform="translate(-17.4953,233.211) rotate(-90,29.5,0)" xml:space="preserve">
    <text fill="rgb(38,38,38)" x="0 7 13 19 24 30 33 37 43 49 55 " y="-3">Phase (deg)</text>
   </g>
   <g font-family="FreeSans" font-size="11" font-style="normal" font-weight="normal" transform="translate(105.118,318.044) rotate(-0,92,-12)" xml:space="preserve">
    <text fill="rgb(38,38,38)" x="0 8 14 18 27 33 35 37 42 48 54 57 64 68 74 80 86 92 98 104 109 112 116 122 124 127 131 137 143 146 151 157 166 172 174 180 " y="-3">Normalized Frequency (pi rad/sample)</text>
   </g>
   <polyline fill="none" points="55.0086,198.309 55.5637,198.454 56.1188,198.599 56.6739,198.744 57.229,198.89 57.7841,199.035 58.3393,199.18 58.8944,199.325 59.4495,199.47 60.0046,199.615 60.5597,199.761 61.1148,199.906 61.6699,200.051 62.225,200.196 62.7802,200.341 63.3353,200.487 63.8904,200.632 64.4455,200.777 65.0006,200.922 65.5557,201.067 66.1108,201.212 66.666,201.357 67.2211,201.503 67.7762,201.648 68.3313,201.793 68.8864,201.938 69.4415,202.083 69.9966,202.228 70.5518,202.373 71.1069,202.519 71.662,202.664 72.2171,202.809 72.7722,202.954 73.3273,203.099 73.8824,203.244 74.4375,203.389 74.9927,203.534 75.5478,203.679 76.1029,203.824 76.658,203.97 77.2131,204.115 77.7682,204.26 78.3233,204.405 78.8784,204.55 79.4335,204.695 79.9887,204.84 80.5438,204.985 81.0989,205.13 81.654,205.275 82.2091,205.42 82.7642,205.565 83.3194,205.71 83.8745,205.855 84.4296,206 84.9847,206.145 85.5398,206.29 86.0949,206.435 86.65,206.58 87.2051,206.725 87.7603,206.87 88.3154,207.015 88.8705,207.16 89.4256,207.304 89.9807,207.449 90.5358,207.594 91.0909,207.739 91.646,207.884 92.2012,208.029 92.7563,208.174 93.3114,208.318 93.8665,208.463 94.4216,208.608 94.9767,208.753 95.5318,208.898 96.0869,209.042 96.6421,209.187 97.1972,209.332 97.7523,209.476 98.3074,209.621 98.8625,209.766 99.4176,209.91 99.9727,210.055 100.528,210.2 101.083,210.344 101.638,210.489 102.193,210.633 102.748,210.778 103.303,210.922 103.859,211.067 104.414,211.211 104.969,211.356 105.524,211.5 106.079,211.645 106.634,211.789 107.189,211.933 107.744,212.077 108.299,212.222 108.855,212.366 109.41,212.51 109.965,212.654 110.52,212.799 111.075,212.943 111.63,213.087 112.185,213.231 112.74,213.375 113.295,213.519 113.851,213.662 114.406,213.806 114.961,213.95 115.516,214.094 116.071,214.238 116.626,214.381 117.181,214.525 117.736,214.668 118.291,214.812 118.847,214.955 119.402,215.099 119.957,215.242 120.512,215.385 121.067,215.528 121.622,215.671 122.177,215.814 122.732,215.957 123.287,216.1 123.843,216.243 124.398,216.385 124.953,216.528 125.508,216.67 126.063,216.812 126.618,216.955 127.173,217.097 127.728,217.239 128.284,217.38 128.839,217.522 129.394,217.664 129.949,217.805 130.504,217.946 131.059,218.087 131.614,218.228 132.169,218.368 132.724,218.508 133.28,218.649 133.835,218.788 134.39,218.928 134.945,219.067 135.5,219.206 136.055,219.344 136.61,219.482 137.165,219.62 137.72,219.757 138.276,219.894 138.831,220.03 139.386,220.166 139.941,220.3 140.496,220.434 141.051,220.567 141.606,220.699 142.161,220.831 142.716,220.96 143.272,221.089 143.827,221.216 144.382,221.341 144.937,221.465 145.492,221.586 146.047,221.706 146.602,221.823 147.157,221.939 147.712,222.054 148.268,222.167 148.823,222.281 149.378,222.394 149.933,222.508 150.488,222.623 151.043,222.739 151.598,222.857 152.153,222.975 152.708,223.095 153.264,223.216 153.819,223.339 154.374,223.462 154.929,223.585 155.484,223.709 156.039,223.834 156.594,223.959 157.149,224.084 157.704,224.21 158.26,224.336 158.815,224.462 159.37,224.589 159.925,224.715 160.48,224.842 161.035,224.968 161.59,225.095 162.145,225.221 162.701,225.348 163.256,225.475 163.811,225.601 164.366,225.728 164.921,225.854 165.476,225.98 166.031,226.106 166.586,226.232 167.141,226.357 167.697,226.482 168.252,226.607 168.807,226.731 169.362,226.855 169.917,226.978 170.472,227.101 171.027,227.222 171.582,227.343 172.137,227.463 172.693,227.583 173.248,227.701 173.803,227.818 174.358,227.936 174.913,228.053 175.468,228.17 176.023,228.287 176.578,228.405 177.133,228.524 177.689,228.644 178.244,228.766 178.799,228.889 179.354,229.014 179.909,229.141 180.464,229.268 181.019,229.397 181.574,229.528 182.129,229.659 182.685,229.791 183.24,229.924 183.795,230.058 184.35,230.193 184.905,230.329 185.46,230.465 186.015,230.601 186.57,230.738 187.125,230.876 187.681,231.014 188.236,231.152 188.791,231.291 189.346,231.43 189.901,231.57 190.456,231.71 191.011,231.85 191.566,231.99 192.122,232.131 192.677,232.271 193.232,232.412 193.787,232.553 194.342,232.695 194.897,232.836 195.452,232.978 196.007,233.12 196.562,233.262 197.118,233.404 197.673,233.546 198.228,233.688 198.783,233.831 199.338,233.973 199.893,234.116 200.448,234.259 201.003,234.401 201.558,234.544 202.114,234.687 202.669,234.831 203.224,234.974 203.779,235.117 204.334,235.26 204.889,235.404 205.444,235.547 205.999,235.691 206.554,235.834 207.11,235.978 207.665,236.122 208.22,236.265 208.775,236.409 209.33,236.553 209.885,236.697 210.44,236.841 210.995,236.985 211.55,237.129 212.106,237.273 212.661,237.417 213.216,237.561 213.771,237.706 214.326,237.85 214.881,237.994 215.436,238.138 215.991,238.283 216.546,238.427 217.102,238.572 217.657,238.716 218.212,238.861 218.767,239.005 219.322,239.15 219.877,239.294 220.432,239.439 220.987,239.583 221.542,239.728 222.098,239.873 222.653,240.017 223.208,240.162 223.763,240.307 224.318,240.451 224.873,240.596 225.428,240.741 225.983,240.886 226.539,241.03 227.094,241.175 227.649,241.32 228.204,241.465 228.759,241.61 229.314,241.755 229.869,241.9 230.424,242.045 230.979,242.19 231.535,242.334 232.09,242.479 232.645,242.624 233.2,242.769 233.755,242.914 234.31,243.059 234.865,243.204 235.42,243.35 235.975,243.495 236.531,243.64 237.086,243.785 237.641,243.93 238.196,244.075 238.751,244.22 239.306,244.365 239.861,244.51 240.416,244.655 240.971,244.801 241.527,244.946 242.082,245.091 242.637,245.236 243.192,245.381 243.747,245.526 244.302,245.672 244.857,245.817 245.412,245.962 245.967,246.107 246.523,246.253 247.078,246.398 247.633,246.543 248.188,246.688 248.743,246.834 249.298,246.979 249.853,247.124 250.408,247.269 250.964,247.415 251.519,247.56 252.074,247.705 252.629,247.851 253.184,247.996 253.739,248.141 254.294,248.287 254.849,248.432 255.404,248.577 255.96,248.723 256.515,248.868 257.07,249.013 257.625,249.159 258.18,249.304 258.735,249.45 259.29,249.595 259.845,249.74 260.4,249.886 260.956,250.031 261.511,250.177 262.066,250.322 262.621,250.467 263.176,250.613 263.731,250.758 264.286,250.904 264.841,251.049 265.396,251.195 265.952,251.34 266.507,251.485 267.062,251.631 267.617,251.776 268.172,251.922 268.727,252.067 269.282,252.213 269.837,252.358 270.392,252.504 270.948,252.649 271.503,252.795 272.058,252.94 272.613,253.086 273.168,253.231 273.723,253.377 274.278,253.522 274.833,253.668 275.388,253.813 275.944,253.959 276.499,254.104 277.054,254.25 277.609,254.395 278.164,254.541 278.719,254.686 279.274,254.832 279.829,254.977 280.384,255.123 280.94,255.268 281.495,255.414 282.05,255.559 282.605,255.705 283.16,255.85 283.715,255.996 284.27,256.141 284.825,256.287 285.381,256.432 285.936,256.578 286.491,256.724 287.046,256.869 287.601,257.015 288.156,257.16 288.711,257.306 289.266,257.451 289.821,257.597 290.377,257.743 290.932,257.888 291.487,258.034 292.042,258.179 292.597,258.325 293.152,258.47 293.707,258.616 294.262,258.762 294.817,258.907 295.373,259.053 295.928,259.198 296.483,259.344 297.038,259.49 297.593,259.635 298.148,259.781 298.703,259.926 299.258,260.072 299.813,260.217 300.369,260.363 300.924,260.509 301.479,260.654 302.034,260.8 302.589,260.945 303.144,261.091 303.699,261.237 304.254,261.382 304.809,261.528 305.365,261.673 305.92,261.819 306.475,261.965 307.03,262.11 307.585,262.256 308.14,262.402 308.695,262.547 309.25,262.693 309.806,262.838 310.361,262.984 310.916,263.13 311.471,263.275 312.026,263.421 312.581,263.566 313.136,263.712 313.691,263.858 314.246,264.003 314.802,264.149 315.357,264.295 315.912,264.44 316.467,264.586 317.022,264.731 317.577,264.877 318.132,265.023 318.687,265.168 319.242,265.314 319.798,265.46 320.353,265.605 320.908,265.751 321.463,265.897 322.018,266.042 322.573,266.188 323.128,266.333 323.683,266.479 324.238,266.625 324.794,266.77 325.349,266.916 325.904,267.062 326.459,267.207 327.014,267.353 327.569,267.499 328.124,267.644 328.679,267.79 329.234,267.935 329.79,268.081 330.345,268.227 330.9,268.372 331.455,268.518 332.01,268.664 332.565,268.809 333.12,268.955 333.675,269.101 334.23,269.246 334.786,269.392 335.341,269.537 335.896,269.683 336.451,269.829 337.006,269.974 337.561,270.12 338.116,270.266 338.671,270.411" stroke="#0071bc" stroke-linecap="butt" stroke-linejoin="round" stroke-width="0.5"/>
  </g>
 </g>
</svg>
