<?xml version='1.0' encoding='UTF-8' standalone='no'?>
<svg height="470pt" viewBox="0 0 524 470" width="524pt" xmlns="http://www.w3.org/2000/svg" xmlns:xlink="http://www.w3.org/1999/xlink">
 <title>Figure 5</title>
 <desc>
Creator: GL2PS 1.4.2, (C) 1999-2020 C. Geuzaine
For: Octave
CreationDate: Thu Feb 12 12:40:40 2026
</desc>
 <defs/>
 <polygon fill="#ffffff" points="0,0 524,0 524,470 0,470"/>
 <g>
  <polygon fill="#ffffff" points="0,470 524,470 524,0 0,0" shape-rendering="crispEdges"/>
  <clipPath id="cp00524470">
   <polygon points="0,470 524,470 524,0 0,0"/>
  </clipPath>
  <g clip-path="url(#cp00524470)">
   <polygon fill="#ffffff" points="68.2201,194.647 474.917,194.647 474.917,36.3381 68.2201,36.3381" shape-rendering="crispEdges"/>
   <polyline fill="none" points="68.2201,194.647 68.2201,190.572" stroke="#262626" stroke-linecap="butt" stroke-linejoin="miter" stroke-width="0.5"/>
   <polyline fill="none" points="68.2201,36.3381 68.2201,40.413" stroke="#262626" stroke-linecap="butt" stroke-linejoin="miter" stroke-width="0.5"/>
   <polyline fill="none" points="149.56,194.647 149.56,190.572" stroke="#262626" stroke-linecap="butt" stroke-linejoin="miter" stroke-width="0.5"/>
   <polyline fill="none" points="149.56,36.3381 149.56,40.413" stroke="#262626" stroke-linecap="butt" stroke-linejoin="miter" stroke-width="0.5"/>
   <polyline fill="none" points="230.899,194.647 230.899,190.572" stroke="#262626" stroke-linecap="butt" stroke-linejoin="miter" stroke-width="0.5"/>
   <polyline fill="none" points="230.899,36.3381 230.899,40.413" stroke="#262626" stroke-linecap="butt" stroke-linejoin="miter" stroke-width="0.5"/>
   <polyline fill="none" points="312.238,194.647 312.238,190.572" stroke="#262626" stroke-linecap="butt" stroke-linejoin="miter" stroke-width="0.5"/>
   <polyline fill="none" points="312.238,36.3381 312.238,40.413" stroke="#262626" stroke-linecap="butt" stroke-linejoin="miter" stroke-width="0.5"/>
   <polyline fill="none" points="393.578,194.647 393.578,190.572" stroke="#262626" stroke-linecap="butt" stroke-linejoin="miter" stroke-width="0.5"/>
   <polyline fill="none" points="393.578,36.3381 393.578,40.413" stroke="#262626" stroke-linecap="butt" stroke-linejoin="miter" stroke-width="0.5"/>
   <polyline fill="none" points="474.917,194.647 474.917,190.572" stroke="#262626" stroke-linecap="butt" stroke-linejoin="miter" stroke-width="0.5"/>
   <polyline fill="none" points="474.917,36.3381 474.917,40.413" stroke="#262626" stroke-linecap="butt" stroke-linejoin="miter" stroke-width="0.5"/>
   <g font-family="FreeSans" font-size="10" font-style="normal" font-weight="normal" transform="translate(65.2201,210.162) rotate(-0,3,-8)" xml:space="preserve">
    <text fill="rgb(38,38,38)" x="0 " y="-0">0</text>
   </g>
   <g font-family="FreeSans" font-size="10" font-style="normal" font-weight="normal" transform="translate(142.06,210.162) rotate(-0,7.5,-8)" xml:space="preserve">
    <text fill="rgb(38,38,38)" x="0 6 9 " y="-0">0.2</text>
   </g>
   <g font-family="FreeSans" font-size="10" font-style="normal" font-weight="normal" transform="translate(223.399,210.162) rotate(-0,7.5,-8)" xml:space="preserve">
    <text fill="rgb(38,38,38)" x="0 6 9 " y="-0">0.4</text>
   </g>
   <g font-family="FreeSans" font-size="10" font-style="normal" font-weight="normal" transform="translate(304.738,210.162) rotate(-0,7.5,-8)" xml:space="preserve">
    <text fill="rgb(38,38,38)" x="0 6 9 " y="-0">0.6</text>
   </g>
   <g font-family="FreeSans" font-size="10" font-style="normal" font-weight="normal" transform="translate(386.078,210.162) rotate(-0,7.5,-8)" xml:space="preserve">
    <text fill="rgb(38,38,38)" x="0 6 9 " y="-0">0.8</text>
   </g>
   <g font-family="FreeSans" font-size="10" font-style="normal" font-weight="normal" transform="translate(471.917,210.162) rotate(-0,3,-8)" xml:space="preserve">
    <text fill="rgb(38,38,38)" x="0 " y="-0">1</text>
   </g>
   <polyline fill="none" points="68.2201,194.647 72.2841,194.647" stroke="#262626" stroke-linecap="butt" stroke-linejoin="miter" stroke-width="0.5"/>
   <polyline fill="none" points="474.917,194.647 470.853,194.647" stroke="#262626" stroke-linecap="butt" stroke-linejoin="miter" stroke-width="0.5"/>
   <polyline fill="none" points="68.2201,162.985 72.2841,162.985" stroke="#262626" stroke-linecap="butt" stroke-linejoin="miter" stroke-width="0.5"/>
   <polyline fill="none" points="474.917,162.985 470.853,162.985" stroke="#262626" stroke-linecap="butt" stroke-linejoin="miter" stroke-width="0.5"/>
   <polyline fill="none" points="68.2201,131.323 72.2841,131.323" stroke="#262626" stroke-linecap="butt" stroke-linejoin="miter" stroke-width="0.5"/>
   <polyline fill="none" points="474.917,131.323 470.853,131.323" stroke="#262626" stroke-linecap="butt" stroke-linejoin="miter" stroke-width="0.5"/>
   <polyline fill="none" points="68.2201,99.6616 72.2841,99.6616" stroke="#262626" stroke-linecap="butt" stroke-linejoin="miter" stroke-width="0.5"/>
   <polyline fill="none" points="474.917,99.6616 470.853,99.6616" stroke="#262626" stroke-linecap="butt" stroke-linejoin="miter" stroke-width="0.5"/>
   <polyline fill="none" points="68.2201,67.9999 72.2841,67.9999" stroke="#262626" stroke-linecap="butt" stroke-linejoin="miter" stroke-width="0.5"/>
   <polyline fill="none" points="474.917,67.9999 470.853,67.9999" stroke="#262626" stroke-linecap="butt" stroke-linejoin="miter" stroke-width="0.5"/>
   <polyline fill="none" points="68.2201,36.3381 72.2841,36.3381" stroke="#262626" stroke-linecap="butt" stroke-linejoin="miter" stroke-width="0.5"/>
   <polyline fill="none" points="474.917,36.3381 470.853,36.3381" stroke="#262626" stroke-linecap="butt" stroke-linejoin="miter" stroke-width="0.5"/>
   <g font-family="FreeSans" font-size="10" font-style="normal" font-weight="normal" transform="translate(54.2239,198.647) rotate(-0,9,-4)" xml:space="preserve">
    <text fill="rgb(38,38,38)" x="0 3 " y="-0">-1</text>
   </g>
   <g font-family="FreeSans" font-size="10" font-style="normal" font-weight="normal" transform="translate(45.2239,166.985) rotate(-0,18,-4)" xml:space="preserve">
    <text fill="rgb(38,38,38)" x="0 3 9 12 " y="-0">-0.8</text>
   </g>
   <g font-family="FreeSans" font-size="10" font-style="normal" font-weight="normal" transform="translate(45.2239,135.323) rotate(-0,18,-4)" xml:space="preserve">
    <text fill="rgb(38,38,38)" x="0 3 9 12 " y="-0">-0.6</text>
   </g>
   <g font-family="FreeSans" font-size="10" font-style="normal" font-weight="normal" transform="translate(45.2239,103.662) rotate(-0,18,-4)" xml:space="preserve">
    <text fill="rgb(38,38,38)" x="0 3 9 12 " y="-0">-0.4</text>
   </g>
   <g font-family="FreeSans" font-size="10" font-style="normal" font-weight="normal" transform="translate(45.2239,71.9999) rotate(-0,18,-4)" xml:space="preserve">
    <text fill="rgb(38,38,38)" x="0 3 9 12 " y="-0">-0.2</text>
   </g>
   <g font-family="FreeSans" font-size="10" font-style="normal" font-weight="normal" transform="translate(57.2239,40.3381) rotate(-0,6,-4)" xml:space="preserve">
    <text fill="rgb(38,38,38)" x="0 " y="-0">0</text>
   </g>
   <polyline fill="none" points="68.2201,194.647 474.917,194.647" stroke="#262626" stroke-dasharray="16,0" stroke-linecap="square" stroke-linejoin="miter" stroke-width="0.5"/>
   <polyline fill="none" points="68.2201,36.3381 474.917,36.3381" stroke="#262626" stroke-dasharray="16,0" stroke-linecap="square" stroke-linejoin="miter" stroke-width="0.5"/>
   <polyline fill="none" points="68.2201,194.647 68.2201,36.3381" stroke="#262626" stroke-dasharray="16,0" stroke-linecap="square" stroke-linejoin="miter" stroke-width="0.5"/>
   <polyline fill="none" points="474.917,194.647 474.917,36.3381" stroke="#262626" stroke-dasharray="16,0" stroke-linecap="square" stroke-linejoin="miter" stroke-width="0.5"/>
   <g font-family="FreeSans" font-size="11" font-style="normal" font-weight="bold" transform="translate(203.069,26.3381) rotate(-0,68.5,0)" xml:space="preserve">
    <text fill="rgb(0,0,0)" x="0 8 15 22 28 31 39 42 48 55 59 65 75 78 85 89 92 99 102 110 113 117 120 123 127 133 " y="-3">Bode Diagram of FIR filter</text>
   </g>
   <g font-family="FreeSans" font-size="11" font-style="normal" font-weight="normal" transform="translate(4.22385,115.493) rotate(-90,36,0)" xml:space="preserve">
    <text fill="rgb(38,38,38)" x="0 9 15 21 27 29 32 38 44 50 53 56 62 69 " y="-2">Magnitude [dB]</text>
   </g>
   <polyline fill="none" points="68.2201,36.9536 69.0145,36.9537 69.8088,36.9539 70.6031,36.9541 71.3975,36.9543 72.1918,36.9544 72.9861,36.9546 73.7804,36.955 74.5748,36.9557 75.3691,36.9568 76.1635,36.9579 76.9578,36.9587 77.7521,36.9594 78.5464,36.9598 79.3408,36.9602 80.1351,36.9611 80.9294,36.9625 81.7238,36.9644 82.5181,36.9665 83.3124,36.9683 84.1067,36.9697 84.9011,36.9705 85.6954,36.9713 86.4897,36.9724 87.2841,36.9742 88.0784,36.9769 88.8727,36.98 89.6671,36.9831 90.4614,36.9855 91.2557,36.9871 92.05,36.9883 92.8444,36.9896 93.6387,36.9918 94.433,36.9951 95.2274,36.9992 96.0217,37.0036 96.816,37.0073 97.6104,37.0101 98.4047,37.0121 99.199,37.0139 99.9933,37.0164 100.788,37.0201 101.582,37.0251 102.376,37.0308 103.171,37.0362 103.965,37.0406 104.759,37.0439 105.554,37.0466 106.348,37.0496 107.142,37.0538 107.937,37.0596 108.731,37.0665 109.525,37.0737 110.32,37.0801 111.114,37.0852 111.908,37.0893 112.703,37.0933 113.497,37.0983 114.291,37.1049 115.086,37.1131 115.88,37.1222 116.674,37.1309 117.469,37.1385 118.263,37.1448 119.057,37.1505 119.852,37.1567 120.646,37.1645 121.44,37.1742 122.235,37.1852 123.029,37.1966 123.823,37.2072 124.618,37.2165 125.412,37.2249 126.206,37.2333 127.001,37.243 127.795,37.2546 128.589,37.268 129.384,37.2823 130.178,37.2965 130.972,37.3097 131.767,37.3219 132.561,37.3337 133.355,37.3464 134.15,37.3608 134.944,37.3772 135.738,37.3951 136.533,37.4136 137.327,37.4317 138.121,37.4492 138.916,37.4668 139.71,37.4851 140.504,37.5053 141.299,37.5279 142.093,37.5526 142.887,37.5788 143.681,37.6058 144.476,37.6331 145.27,37.6608 146.064,37.6897 146.859,37.7202 147.653,37.7529 148.447,37.7876 149.242,37.824 150.036,37.8618 150.83,37.901 151.625,37.9419 152.419,37.985 153.213,38.0307 154.008,38.079 154.802,38.1298 155.596,38.1828 156.391,38.238 157.185,38.2963 157.979,38.3586 158.774,38.4257 159.568,38.4979 160.362,38.5748 161.157,38.6554 161.951,38.7391 162.745,38.8263 163.54,38.9187 164.334,39.0188 165.128,39.1286 165.923,39.2492 166.717,39.3798 167.511,39.5184 168.306,39.6633 169.1,39.8148 169.894,39.9756 170.689,40.1507 171.483,40.3454 172.277,40.563 173.072,40.8041 173.866,41.066 174.66,41.3459 175.455,41.6432 176.249,41.9625 177.043,42.3132 177.838,42.7073 178.632,43.156 179.426,43.6655 180.221,44.2371 181.015,44.8697 181.809,45.5649 182.604,46.3329 183.398,47.1947 184.192,48.1814 184.987,49.3282 185.781,50.6687 186.575,52.2314 187.37,54.0427 188.164,56.1355 188.958,58.5613 189.753,61.4008 190.547,64.768 191.341,68.8063 192.136,73.6768 192.93,79.5428 193.724,86.5534 194.519,94.826 195.313,104.423 196.107,115.321 196.902,127.358 197.696,140.19 198.49,153.242 199.285,165.719 200.079,176.68 200.873,185.184 201.668,190.489 202.462,192.221 203.256,190.454 204.051,185.666 204.845,178.605 205.639,170.107 206.434,160.959 207.228,151.811 208.022,143.145 208.817,135.28 209.611,128.389 210.405,122.522 211.2,117.631 211.994,113.602 212.788,110.294 213.583,107.569 214.377,105.32 215.171,103.474 215.966,101.983 216.76,100.807 217.554,99.9048 218.349,99.2289 219.143,98.7394 219.937,98.4131 220.731,98.249 221.526,98.263 222.32,98.473 223.114,98.8853 223.909,99.4907 224.703,100.272 225.497,101.222 226.292,102.357 227.086,103.724 227.88,105.389 228.675,107.424 229.469,109.886 230.263,112.814 231.058,116.232 231.852,120.162 232.646,124.62 233.441,129.607 234.235,135.073 235.029,140.878 235.824,146.769 236.618,152.371 237.412,157.227 238.207,160.855 239.001,162.819 239.795,162.8 240.59,160.637 241.384,156.359 242.178,150.175 242.973,142.456 243.767,133.678 244.561,124.363 245.356,115.004 246.15,106.007 246.944,97.6565 247.739,90.1087 248.533,83.4154 249.327,77.5561 250.122,72.4727 250.916,68.0937 251.71,64.3443 252.505,61.149 253.299,58.4294 254.093,56.1061 254.888,54.1034 255.682,52.3576 256.476,50.8226 257.271,49.4703 258.065,48.2851 258.859,47.2553 259.654,46.3656 260.448,45.5933 261.242,44.9117 262.037,44.2956 262.831,43.7282 263.625,43.2036 264.42,42.7252 265.214,42.2988 266.008,41.927 266.803,41.6046 267.597,41.3191 268.391,41.0557 269.186,40.803 269.98,40.5569 270.774,40.3212 271.569,40.1041 272.363,39.9127 273.157,39.7484 273.952,39.6059 274.746,39.4757 275.54,39.348 276.335,39.218 277.129,39.0867 277.923,38.9605 278.718,38.8467 279.512,38.7495 280.306,38.668 281.101,38.5963 281.895,38.5267 282.689,38.4536 283.484,38.3757 284.278,38.2966 285.072,38.2225 285.867,38.1583 286.661,38.1056 287.455,38.0616 288.25,38.0208 289.044,37.9778 289.838,37.93 290.633,37.8786 291.427,37.8277 292.221,37.782 293.016,37.7443 293.81,37.714 294.604,37.6877 295.399,37.6611 296.193,37.631 296.987,37.597 297.781,37.5613 298.576,37.5277 299.37,37.4992 300.164,37.4766 300.959,37.4584 301.753,37.4414 302.547,37.4228 303.342,37.4011 304.136,37.3771 304.93,37.3533 305.725,37.332 306.519,37.3148 307.313,37.3012 308.108,37.2894 308.902,37.2771 309.696,37.2628 310.491,37.2462 311.285,37.2289 312.079,37.2124 312.874,37.1983 313.668,37.1868 314.462,37.1771 315.257,37.1677 316.051,37.1573 316.845,37.1456 317.64,37.1331 318.434,37.1206 319.228,37.1093 320.023,37.0996 320.817,37.0912 321.611,37.0833 322.406,37.0752 323.2,37.0665 323.994,37.0574 324.789,37.0484 325.583,37.0399 326.377,37.0321 327.172,37.0248 327.966,37.0177 328.76,37.0107 329.555,37.0036 330.349,36.9967 331.143,36.9902 331.938,36.9843 332.732,36.9785 333.526,36.9727 334.321,36.9663 335.115,36.9597 335.909,36.9532 336.704,36.9474 337.498,36.9426 338.292,36.9387 339.087,36.9349 339.881,36.9308 340.675,36.9255 341.47,36.9194 342.264,36.9129 343.058,36.9073 343.853,36.9031 344.647,36.9005 345.441,36.8986 346.236,36.8962 347.03,36.8925 347.824,36.8871 348.619,36.8807 349.413,36.8747 350.207,36.8704 351.002,36.8682 351.796,36.8676 352.59,36.867 353.385,36.8651 354.179,36.8608 354.973,36.8548 355.768,36.8484 356.562,36.8434 357.356,36.8409 358.151,36.8408 358.945,36.8417 359.739,36.8416 360.534,36.8391 361.328,36.8339 362.122,36.8273 362.917,36.8214 363.711,36.818 364.505,36.8176 365.3,36.8192 366.094,36.8209 366.888,36.8204 367.683,36.8167 368.477,36.8105 369.271,36.8038 370.066,36.799 370.86,36.7976 371.654,36.7993 372.449,36.8022 373.243,36.8037 374.037,36.802 374.832,36.7968 375.626,36.7899 376.42,36.7838 377.215,36.7809 378.009,36.7818 378.803,36.7852 379.597,36.7885 380.392,36.7889 381.186,36.7855 381.98,36.779 382.775,36.772 383.569,36.7673 384.363,36.7667 385.158,36.7697 385.952,36.7741 386.746,36.7768 387.541,36.7756 388.335,36.7703 389.129,36.763 389.924,36.7567 390.718,36.7541 391.512,36.756 392.307,36.7607 393.101,36.7651 393.895,36.7664 394.69,36.763 395.484,36.7562 396.278,36.7488 397.073,36.7442 397.867,36.7441 398.661,36.7482 399.456,36.7538 400.25,36.7573 401.044,36.7564 401.839,36.751 402.633,36.7433 403.427,36.7368 404.222,36.7345 405.016,36.737 405.81,36.7427 406.605,36.7481 407.399,36.7499 408.193,36.7467 408.988,36.7396 409.782,36.7319 410.576,36.7272 411.371,36.7276 412.165,36.7325 412.959,36.7389 413.754,36.7431 414.548,36.7425 415.342,36.737 416.137,36.7289 416.931,36.7223 417.725,36.7201 418.52,36.7232 419.314,36.7297 420.108,36.7358 420.903,36.738 421.697,36.7348 422.491,36.7275 423.286,36.7195 424.08,36.7148 424.874,36.7155 425.669,36.7211 426.463,36.7282 427.257,36.7329 428.052,36.7325 428.846,36.7269 429.64,36.7186 430.435,36.7118 431.229,36.7098 432.023,36.7133 432.818,36.7205 433.612,36.7271 434.406,36.7296 435.201,36.7264 435.995,36.7189 436.789,36.7108 437.584,36.7061 438.378,36.7071 439.172,36.7131 439.967,36.7208 440.761,36.7259 441.555,36.7256 442.35,36.7199 443.144,36.7115 443.938,36.7046 444.733,36.7027 445.527,36.7067 446.321,36.7142 447.116,36.7213 447.91,36.724 448.704,36.7209 449.499,36.7133 450.293,36.7051 451.087,36.7004 451.882,36.7017 452.676,36.708 453.47,36.716 454.264,36.7214 455.059,36.7213 455.853,36.7155 456.647,36.7071 457.442,36.7002 458.236,36.6985 459.03,36.7027 459.825,36.7105 460.619,36.7179 461.413,36.7208 462.208,36.7177 463.002,36.7101 463.796,36.7019 464.591,36.6974 465.385,36.6988 466.179,36.7054 466.974,36.7137 467.768,36.7193 468.562,36.7192 469.357,36.7135 470.151,36.7051 470.945,36.6983 471.74,36.6967 472.534,36.7011 473.328,36.7092 474.123,36.7167" stroke="#0071bc" stroke-linecap="butt" stroke-linejoin="round" stroke-width="0.5"/>
  </g>
  <clipPath id="cp00524470">
   <polygon points="0,470 524,470 524,0 0,0"/>
  </clipPath>
  <g clip-path="url(#cp00524470)">
   <polygon fill="#ffffff" points="68.2201,419.007 474.917,419.007 474.917,260.698 68.2201,260.698" shape-rendering="crispEdges"/>
   <polyline fill="none" points="68.2201,419.007 68.2201,414.932" stroke="#262626" stroke-linecap="butt" stroke-linejoin="miter" stroke-width="0.5"/>
   <polyline fill="none" points="68.2201,260.698 68.2201,264.773" stroke="#262626" stroke-linecap="butt" stroke-linejoin="miter" stroke-width="0.5"/>
   <polyline fill="none" points="149.56,419.007 149.56,414.932" stroke="#262626" stroke-linecap="butt" stroke-linejoin="miter" stroke-width="0.5"/>
   <polyline fill="none" points="149.56,260.698 149.56,264.773" stroke="#262626" stroke-linecap="butt" stroke-linejoin="miter" stroke-width="0.5"/>
   <polyline fill="none" points="230.899,419.007 230.899,414.932" stroke="#262626" stroke-linecap="butt" stroke-linejoin="miter" stroke-width="0.5"/>
   <polyline fill="none" points="230.899,260.698 230.899,264.773" stroke="#262626" stroke-linecap="butt" stroke-linejoin="miter" stroke-width="0.5"/>
   <polyline fill="none" points="312.238,419.007 312.238,414.932" stroke="#262626" stroke-linecap="butt" stroke-linejoin="miter" stroke-width="0.5"/>
   <polyline fill="none" points="312.238,260.698 312.238,264.773" stroke="#262626" stroke-linecap="butt" stroke-linejoin="miter" stroke-width="0.5"/>
   <polyline fill="none" points="393.578,419.007 393.578,414.932" stroke="#262626" stroke-linecap="butt" stroke-linejoin="miter" stroke-width="0.5"/>
   <polyline fill="none" points="393.578,260.698 393.578,264.773" stroke="#262626" stroke-linecap="butt" stroke-linejoin="miter" stroke-width="0.5"/>
   <polyline fill="none" points="474.917,419.007 474.917,414.932" stroke="#262626" stroke-linecap="butt" stroke-linejoin="miter" stroke-width="0.5"/>
   <polyline fill="none" points="474.917,260.698 474.917,264.773" stroke="#262626" stroke-linecap="butt" stroke-linejoin="miter" stroke-width="0.5"/>
   <g font-family="FreeSans" font-size="10" font-style="normal" font-weight="normal" transform="translate(65.2201,434.521) rotate(-0,3,-8)" xml:space="preserve">
    <text fill="rgb(38,38,38)" x="0 " y="-0">0</text>
   </g>
   <g font-family="FreeSans" font-size="10" font-style="normal" font-weight="normal" transform="translate(142.06,434.521) rotate(-0,7.5,-8)" xml:space="preserve">
    <text fill="rgb(38,38,38)" x="0 6 9 " y="-0">0.2</text>
   </g>
   <g font-family="FreeSans" font-size="10" font-style="normal" font-weight="normal" transform="translate(223.399,434.521) rotate(-0,7.5,-8)" xml:space="preserve">
    <text fill="rgb(38,38,38)" x="0 6 9 " y="-0">0.4</text>
   </g>
   <g font-family="FreeSans" font-size="10" font-style="normal" font-weight="normal" transform="translate(304.738,434.521) rotate(-0,7.5,-8)" xml:space="preserve">
    <text fill="rgb(38,38,38)" x="0 6 9 " y="-0">0.6</text>
   </g>
   <g font-family="FreeSans" font-size="10" font-style="normal" font-weight="normal" transform="translate(386.078,434.521) rotate(-0,7.5,-8)" xml:space="preserve">
    <text fill="rgb(38,38,38)" x="0 6 9 " y="-0">0.8</text>
   </g>
   <g font-family="FreeSans" font-size="10" font-style="normal" font-weight="normal" transform="translate(471.917,434.521) rotate(-0,3,-8)" xml:space="preserve">
    <text fill="rgb(38,38,38)" x="0 " y="-0">1</text>
   </g>
   <polyline fill="none" points="68.2201,419.007 72.2841,419.007" stroke="#262626" stroke-linecap="butt" stroke-linejoin="miter" stroke-width="0.5"/>
   <polyline fill="none" points="474.917,419.007 470.853,419.007" stroke="#262626" stroke-linecap="butt" stroke-linejoin="miter" stroke-width="0.5"/>
   <polyline fill="none" points="68.2201,387.345 72.2841,387.345" stroke="#262626" stroke-linecap="butt" stroke-linejoin="miter" stroke-width="0.5"/>
   <polyline fill="none" points="474.917,387.345 470.853,387.345" stroke="#262626" stroke-linecap="butt" stroke-linejoin="miter" stroke-width="0.5"/>
   <polyline fill="none" points="68.2201,355.683 72.2841,355.683" stroke="#262626" stroke-linecap="butt" stroke-linejoin="miter" stroke-width="0.5"/>
   <polyline fill="none" points="474.917,355.683 470.853,355.683" stroke="#262626" stroke-linecap="butt" stroke-linejoin="miter" stroke-width="0.5"/>
   <polyline fill="none" points="68.2201,324.021 72.2841,324.021" stroke="#262626" stroke-linecap="butt" stroke-linejoin="miter" stroke-width="0.5"/>
   <polyline fill="none" points="474.917,324.021 470.853,324.021" stroke="#262626" stroke-linecap="butt" stroke-linejoin="miter" stroke-width="0.5"/>
   <polyline fill="none" points="68.2201,292.359 72.2841,292.359" stroke="#262626" stroke-linecap="butt" stroke-linejoin="miter" stroke-width="0.5"/>
   <polyline fill="none" points="474.917,292.359 470.853,292.359" stroke="#262626" stroke-linecap="butt" stroke-linejoin="miter" stroke-width="0.5"/>
   <polyline fill="none" points="68.2201,260.698 72.2841,260.698" stroke="#262626" stroke-linecap="butt" stroke-linejoin="miter" stroke-width="0.5"/>
   <polyline fill="none" points="474.917,260.698 470.853,260.698" stroke="#262626" stroke-linecap="butt" stroke-linejoin="miter" stroke-width="0.5"/>
   <g font-family="FreeSans" font-size="10" font-style="normal" font-weight="normal" transform="translate(30.2239,423.007) rotate(-0,33,-4)" xml:space="preserve">
    <text fill="rgb(38,38,38)" x="0 3 9 15 21 27 " y="-0">-25000</text>
   </g>
   <g font-family="FreeSans" font-size="10" font-style="normal" font-weight="normal" transform="translate(30.2239,391.345) rotate(-0,33,-4)" xml:space="preserve">
    <text fill="rgb(38,38,38)" x="0 3 9 15 21 27 " y="-0">-20000</text>
   </g>
   <g font-family="FreeSans" font-size="10" font-style="normal" font-weight="normal" transform="translate(30.2239,359.683) rotate(-0,33,-4)" xml:space="preserve">
    <text fill="rgb(38,38,38)" x="0 3 9 15 21 27 " y="-0">-15000</text>
   </g>
   <g font-family="FreeSans" font-size="10" font-style="normal" font-weight="normal" transform="translate(30.2239,328.021) rotate(-0,33,-4)" xml:space="preserve">
    <text fill="rgb(38,38,38)" x="0 3 9 15 21 27 " y="-0">-10000</text>
   </g>
   <g font-family="FreeSans" font-size="10" font-style="normal" font-weight="normal" transform="translate(36.2239,296.359) rotate(-0,27,-4)" xml:space="preserve">
    <text fill="rgb(38,38,38)" x="0 3 9 15 21 " y="-0">-5000</text>
   </g>
   <g font-family="FreeSans" font-size="10" font-style="normal" font-weight="normal" transform="translate(57.2239,264.698) rotate(-0,6,-4)" xml:space="preserve">
    <text fill="rgb(38,38,38)" x="0 " y="-0">0</text>
   </g>
   <polyline fill="none" points="68.2201,419.007 474.917,419.007" stroke="#262626" stroke-dasharray="16,0" stroke-linecap="square" stroke-linejoin="miter" stroke-width="0.5"/>
   <polyline fill="none" points="68.2201,260.698 474.917,260.698" stroke="#262626" stroke-dasharray="16,0" stroke-linecap="square" stroke-linejoin="miter" stroke-width="0.5"/>
   <polyline fill="none" points="68.2201,419.007 68.2201,260.698" stroke="#262626" stroke-dasharray="16,0" stroke-linecap="square" stroke-linejoin="miter" stroke-width="0.5"/>
   <polyline fill="none" points="474.917,419.007 474.917,260.698" stroke="#262626" stroke-dasharray="16,0" stroke-linecap="square" stroke-linejoin="miter" stroke-width="0.5"/>
   <g font-family="FreeSans" font-size="11" font-style="normal" font-weight="normal" transform="translate(-4.27615,339.852) rotate(-90,29.5,0)" xml:space="preserve">
    <text fill="rgb(38,38,38)" x="0 7 13 19 24 30 33 37 43 49 55 " y="-3">Phase (deg)</text>
   </g>
   <g font-family="FreeSans" font-size="11" font-style="normal" font-weight="normal" transform="translate(177.069,451.521) rotate(-0,94.5,-12)" xml:space="preserve">
    <text fill="rgb(38,38,38)" x="0 8 14 18 27 33 35 37 42 48 54 57 64 68 74 80 86 92 98 104 109 112 116 122 129 132 136 142 148 151 156 162 171 177 179 185 " y="-3">Normalized Frequency (×π rad/sample)</text>
   </g>
   <polyline fill="none" points="68.2201,260.698 69.0145,260.961 69.8088,261.225 70.6031,261.488 71.3975,261.751 72.1918,262.015 72.9861,262.278 73.7804,262.541 74.5748,262.805 75.3691,263.068 76.1635,263.332 76.9578,263.595 77.7521,263.858 78.5464,264.122 79.3408,264.385 80.1351,264.648 80.9294,264.912 81.7238,265.175 82.5181,265.439 83.3124,265.702 84.1067,265.965 84.9011,266.229 85.6954,266.492 86.4897,266.755 87.2841,267.019 88.0784,267.282 88.8727,267.545 89.6671,267.809 90.4614,268.072 91.2557,268.335 92.05,268.599 92.8444,268.862 93.6387,269.125 94.433,269.388 95.2274,269.652 96.0217,269.915 96.816,270.178 97.6104,270.441 98.4047,270.705 99.199,270.968 99.9933,271.231 100.788,271.494 101.582,271.757 102.376,272.021 103.171,272.284 103.965,272.547 104.759,272.81 105.554,273.073 106.348,273.336 107.142,273.599 107.937,273.862 108.731,274.126 109.525,274.389 110.32,274.652 111.114,274.915 111.908,275.178 112.703,275.441 113.497,275.704 114.291,275.967 115.086,276.23 115.88,276.492 116.674,276.755 117.469,277.018 118.263,277.281 119.057,277.544 119.852,277.807 120.646,278.07 121.44,278.332 122.235,278.595 123.029,278.858 123.823,279.121 124.618,279.383 125.412,279.646 126.206,279.909 127.001,280.171 127.795,280.434 128.589,280.696 129.384,280.959 130.178,281.221 130.972,281.484 131.767,281.746 132.561,282.009 133.355,282.271 134.15,282.533 134.944,282.795 135.738,283.058 136.533,283.32 137.327,283.582 138.121,283.844 138.916,284.106 139.71,284.368 140.504,284.63 141.299,284.892 142.093,285.154 142.887,285.416 143.681,285.678 144.476,285.94 145.27,286.201 146.064,286.463 146.859,286.724 147.653,286.986 148.447,287.247 149.242,287.509 150.036,287.77 150.83,288.031 151.625,288.292 152.419,288.553 153.213,288.814 154.008,289.075 154.802,289.336 155.596,289.597 156.391,289.857 157.185,290.118 157.979,290.378 158.774,290.638 159.568,290.899 160.362,291.159 161.157,291.419 161.951,291.678 162.745,291.938 163.54,292.198 164.334,292.457 165.128,292.716 165.923,292.975 166.717,293.234 167.511,293.493 168.306,293.751 169.1,294.01 169.894,294.268 170.689,294.526 171.483,294.784 172.277,295.041 173.072,295.298 173.866,295.555 174.66,295.812 175.455,296.068 176.249,296.324 177.043,296.579 177.838,296.835 178.632,297.09 179.426,297.344 180.221,297.598 181.015,297.851 181.809,298.104 182.604,298.357 183.398,298.608 184.192,298.859 184.987,299.11 185.781,299.359 186.575,299.608 187.37,299.855 188.164,300.102 188.958,300.347 189.753,300.591 190.547,300.833 191.341,301.074 192.136,301.313 192.93,301.55 193.724,301.784 194.519,302.017 195.313,302.246 196.107,302.473 196.902,302.696 197.696,302.917 198.49,303.135 199.285,303.35 200.079,303.562 200.873,303.773 201.668,303.982 202.462,304.19 203.256,304.399 204.051,304.608 204.845,304.818 205.639,305.029 206.434,305.243 207.228,305.458 208.022,305.675 208.817,305.894 209.611,306.115 210.405,306.337 211.2,306.56 211.994,306.785 212.788,307.011 213.583,307.237 214.377,307.464 215.171,307.692 215.966,307.92 216.76,308.149 217.554,308.378 218.349,308.607 219.143,308.837 219.937,309.066 220.731,309.296 221.526,309.525 222.32,309.755 223.114,309.984 223.909,310.214 224.703,310.443 225.497,310.672 226.292,310.9 227.086,311.128 227.88,311.356 228.675,311.583 229.469,311.81 230.263,312.036 231.058,312.26 231.852,312.485 232.646,312.708 233.441,312.929 234.235,313.15 235.029,313.369 235.824,313.587 236.618,313.804 237.412,314.02 238.207,314.234 239.001,314.448 239.795,314.662 240.59,314.877 241.384,315.091 242.178,315.307 242.973,315.525 243.767,315.745 244.561,315.966 245.356,316.19 246.15,316.417 246.944,316.646 247.739,316.877 248.533,317.11 249.327,317.346 250.122,317.583 250.916,317.823 251.71,318.064 252.505,318.306 253.299,318.55 254.093,318.796 254.888,319.042 255.682,319.29 256.476,319.538 257.271,319.787 258.065,320.038 258.859,320.289 259.654,320.54 260.448,320.793 261.242,321.045 262.037,321.299 262.831,321.553 263.625,321.807 264.42,322.062 265.214,322.317 266.008,322.573 266.803,322.829 267.597,323.085 268.391,323.342 269.186,323.599 269.98,323.856 270.774,324.113 271.569,324.371 272.363,324.629 273.157,324.887 273.952,325.146 274.746,325.404 275.54,325.663 276.335,325.922 277.129,326.181 277.923,326.44 278.718,326.7 279.512,326.959 280.306,327.219 281.101,327.479 281.895,327.739 282.689,327.999 283.484,328.26 284.278,328.52 285.072,328.78 285.867,329.041 286.661,329.302 287.455,329.563 288.25,329.824 289.044,330.085 289.838,330.346 290.633,330.607 291.427,330.868 292.221,331.129 293.016,331.391 293.81,331.652 294.604,331.914 295.399,332.175 296.193,332.437 296.987,332.699 297.781,332.961 298.576,333.223 299.37,333.485 300.164,333.747 300.959,334.009 301.753,334.271 302.547,334.533 303.342,334.795 304.136,335.057 304.93,335.32 305.725,335.582 306.519,335.844 307.313,336.107 308.108,336.369 308.902,336.632 309.696,336.894 310.491,337.157 311.285,337.42 312.079,337.682 312.874,337.945 313.668,338.208 314.462,338.47 315.257,338.733 316.051,338.996 316.845,339.259 317.64,339.522 318.434,339.785 319.228,340.047 320.023,340.31 320.817,340.573 321.611,340.836 322.406,341.099 323.2,341.362 323.994,341.626 324.789,341.889 325.583,342.152 326.377,342.415 327.172,342.678 327.966,342.941 328.76,343.205 329.555,343.468 330.349,343.731 331.143,343.994 331.938,344.258 332.732,344.521 333.526,344.784 334.321,345.048 335.115,345.311 335.909,345.574 336.704,345.838 337.498,346.101 338.292,346.365 339.087,346.628 339.881,346.891 340.675,347.155 341.47,347.418 342.264,347.682 343.058,347.945 343.853,348.209 344.647,348.473 345.441,348.736 346.236,349 347.03,349.263 347.824,349.527 348.619,349.791 349.413,350.054 350.207,350.318 351.002,350.581 351.796,350.845 352.59,351.109 353.385,351.372 354.179,351.636 354.973,351.9 355.768,352.164 356.562,352.427 357.356,352.691 358.151,352.955 358.945,353.219 359.739,353.482 360.534,353.746 361.328,354.01 362.122,354.274 362.917,354.537 363.711,354.801 364.505,355.065 365.3,355.329 366.094,355.593 366.888,355.857 367.683,356.12 368.477,356.384 369.271,356.648 370.066,356.912 370.86,357.176 371.654,357.44 372.449,357.704 373.243,357.968 374.037,358.232 374.832,358.495 375.626,358.759 376.42,359.023 377.215,359.287 378.009,359.551 378.803,359.815 379.597,360.079 380.392,360.343 381.186,360.607 381.98,360.871 382.775,361.135 383.569,361.399 384.363,361.663 385.158,361.927 385.952,362.191 386.746,362.455 387.541,362.719 388.335,362.983 389.129,363.247 389.924,363.511 390.718,363.775 391.512,364.039 392.307,364.303 393.101,364.567 393.895,364.831 394.69,365.095 395.484,365.359 396.278,365.623 397.073,365.887 397.867,366.151 398.661,366.416 399.456,366.68 400.25,366.944 401.044,367.208 401.839,367.472 402.633,367.736 403.427,368 404.222,368.264 405.016,368.528 405.81,368.792 406.605,369.056 407.399,369.321 408.193,369.585 408.988,369.849 409.782,370.113 410.576,370.377 411.371,370.641 412.165,370.905 412.959,371.169 413.754,371.434 414.548,371.698 415.342,371.962 416.137,372.226 416.931,372.49 417.725,372.754 418.52,373.018 419.314,373.283 420.108,373.547 420.903,373.811 421.697,374.075 422.491,374.339 423.286,374.603 424.08,374.868 424.874,375.132 425.669,375.396 426.463,375.66 427.257,375.924 428.052,376.188 428.846,376.453 429.64,376.717 430.435,376.981 431.229,377.245 432.023,377.509 432.818,377.774 433.612,378.038 434.406,378.302 435.201,378.566 435.995,378.83 436.789,379.095 437.584,379.359 438.378,379.623 439.172,379.887 439.967,380.151 440.761,380.416 441.555,380.68 442.35,380.944 443.144,381.208 443.938,381.472 444.733,381.737 445.527,382.001 446.321,382.265 447.116,382.529 447.91,382.794 448.704,383.058 449.499,383.322 450.293,383.586 451.087,383.85 451.882,384.115 452.676,384.379 453.47,384.643 454.264,384.907 455.059,385.172 455.853,385.436 456.647,385.7 457.442,385.964 458.236,386.228 459.03,386.493 459.825,386.757 460.619,387.021 461.413,387.285 462.208,387.55 463.002,387.814 463.796,388.078 464.591,388.342 465.385,388.607 466.179,388.871 466.974,389.135 467.768,389.399 468.562,389.664 469.357,389.928 470.151,390.192 470.945,390.456 471.74,390.72 472.534,390.985 473.328,391.249 474.123,391.513" stroke="#0071bc" stroke-linecap="butt" stroke-linejoin="round" stroke-width="0.5"/>
  </g>
 </g>
</svg>
