<?xml version='1.0' encoding='UTF-8' standalone='no'?>
<svg height="320pt" viewBox="0 0 374 320" width="374pt" xmlns="http://www.w3.org/2000/svg" xmlns:xlink="http://www.w3.org/1999/xlink">
 <title>Figure 9</title>
 <desc>
Creator: GL2PS 1.4.2, (C) 1999-2020 C. Geuzaine
For: Octave
CreationDate: Thu Feb 19 11:57:32 2026
</desc>
 <defs/>
 <polygon fill="#ffffff" points="0,0 374,0 374,320 0,320"/>
 <g>
  <polygon fill="#ffffff" points="0,320 374,320 374,0 0,0" shape-rendering="crispEdges"/>
  <clipPath id="cp00374320">
   <polygon points="0,320 374,320 374,0 0,0"/>
  </clipPath>
  <g clip-path="url(#cp00374320)">
   <polygon fill="#ffffff" points="48.7287,285.565 339.226,285.565 339.226,24.0645 48.7287,24.0645" shape-rendering="crispEdges"/>
   <polyline fill="none" points="48.7287,285.565 48.7287,282.666" stroke="#262626" stroke-linecap="butt" stroke-linejoin="miter" stroke-width="0.5"/>
   <polyline fill="none" points="48.7287,24.0645 48.7287,26.9639" stroke="#262626" stroke-linecap="butt" stroke-linejoin="miter" stroke-width="0.5"/>
   <polyline fill="none" points="106.828,285.565 106.828,282.666" stroke="#262626" stroke-linecap="butt" stroke-linejoin="miter" stroke-width="0.5"/>
   <polyline fill="none" points="106.828,24.0645 106.828,26.9639" stroke="#262626" stroke-linecap="butt" stroke-linejoin="miter" stroke-width="0.5"/>
   <polyline fill="none" points="164.928,285.565 164.928,282.666" stroke="#262626" stroke-linecap="butt" stroke-linejoin="miter" stroke-width="0.5"/>
   <polyline fill="none" points="164.928,24.0645 164.928,26.9639" stroke="#262626" stroke-linecap="butt" stroke-linejoin="miter" stroke-width="0.5"/>
   <polyline fill="none" points="223.027,285.565 223.027,282.666" stroke="#262626" stroke-linecap="butt" stroke-linejoin="miter" stroke-width="0.5"/>
   <polyline fill="none" points="223.027,24.0645 223.027,26.9639" stroke="#262626" stroke-linecap="butt" stroke-linejoin="miter" stroke-width="0.5"/>
   <polyline fill="none" points="281.127,285.565 281.127,282.666" stroke="#262626" stroke-linecap="butt" stroke-linejoin="miter" stroke-width="0.5"/>
   <polyline fill="none" points="281.127,24.0645 281.127,26.9639" stroke="#262626" stroke-linecap="butt" stroke-linejoin="miter" stroke-width="0.5"/>
   <polyline fill="none" points="339.226,285.565 339.226,282.666" stroke="#262626" stroke-linecap="butt" stroke-linejoin="miter" stroke-width="0.5"/>
   <polyline fill="none" points="339.226,24.0645 339.226,26.9639" stroke="#262626" stroke-linecap="butt" stroke-linejoin="miter" stroke-width="0.5"/>
   <g font-family="FreeSans" font-size="10" font-style="normal" font-weight="normal" transform="translate(45.7287,301.051) rotate(-0,3,-8)" xml:space="preserve">
    <text fill="rgb(38,38,38)" x="0 " y="-0">0</text>
   </g>
   <g font-family="FreeSans" font-size="10" font-style="normal" font-weight="normal" transform="translate(99.3282,301.051) rotate(-0,7.5,-8)" xml:space="preserve">
    <text fill="rgb(38,38,38)" x="0 6 9 " y="-0">0.2</text>
   </g>
   <g font-family="FreeSans" font-size="10" font-style="normal" font-weight="normal" transform="translate(157.428,301.051) rotate(-0,7.5,-8)" xml:space="preserve">
    <text fill="rgb(38,38,38)" x="0 6 9 " y="-0">0.4</text>
   </g>
   <g font-family="FreeSans" font-size="10" font-style="normal" font-weight="normal" transform="translate(215.527,301.051) rotate(-0,7.5,-8)" xml:space="preserve">
    <text fill="rgb(38,38,38)" x="0 6 9 " y="-0">0.6</text>
   </g>
   <g font-family="FreeSans" font-size="10" font-style="normal" font-weight="normal" transform="translate(273.627,301.051) rotate(-0,7.5,-8)" xml:space="preserve">
    <text fill="rgb(38,38,38)" x="0 6 9 " y="-0">0.8</text>
   </g>
   <g font-family="FreeSans" font-size="10" font-style="normal" font-weight="normal" transform="translate(336.226,301.051) rotate(-0,3,-8)" xml:space="preserve">
    <text fill="rgb(38,38,38)" x="0 " y="-0">1</text>
   </g>
   <polyline fill="none" points="48.7287,285.565 51.6386,285.565" stroke="#262626" stroke-linecap="butt" stroke-linejoin="miter" stroke-width="0.5"/>
   <polyline fill="none" points="339.226,285.565 336.316,285.565" stroke="#262626" stroke-linecap="butt" stroke-linejoin="miter" stroke-width="0.5"/>
   <polyline fill="none" points="48.7287,220.19 51.6386,220.19" stroke="#262626" stroke-linecap="butt" stroke-linejoin="miter" stroke-width="0.5"/>
   <polyline fill="none" points="339.226,220.19 336.316,220.19" stroke="#262626" stroke-linecap="butt" stroke-linejoin="miter" stroke-width="0.5"/>
   <polyline fill="none" points="48.7287,154.815 51.6386,154.815" stroke="#262626" stroke-linecap="butt" stroke-linejoin="miter" stroke-width="0.5"/>
   <polyline fill="none" points="339.226,154.815 336.316,154.815" stroke="#262626" stroke-linecap="butt" stroke-linejoin="miter" stroke-width="0.5"/>
   <polyline fill="none" points="48.7287,89.4396 51.6386,89.4396" stroke="#262626" stroke-linecap="butt" stroke-linejoin="miter" stroke-width="0.5"/>
   <polyline fill="none" points="339.226,89.4396 336.316,89.4396" stroke="#262626" stroke-linecap="butt" stroke-linejoin="miter" stroke-width="0.5"/>
   <polyline fill="none" points="48.7287,24.0645 51.6386,24.0645" stroke="#262626" stroke-linecap="butt" stroke-linejoin="miter" stroke-width="0.5"/>
   <polyline fill="none" points="339.226,24.0645 336.316,24.0645" stroke="#262626" stroke-linecap="butt" stroke-linejoin="miter" stroke-width="0.5"/>
   <g font-family="FreeSans" font-size="10" font-style="normal" font-weight="normal" transform="translate(37.7201,289.565) rotate(-0,6,-4)" xml:space="preserve">
    <text fill="rgb(38,38,38)" x="0 " y="-0">0</text>
   </g>
   <g font-family="FreeSans" font-size="10" font-style="normal" font-weight="normal" transform="translate(28.7201,224.19) rotate(-0,15,-4)" xml:space="preserve">
    <text fill="rgb(38,38,38)" x="0 6 9 " y="-0">0.5</text>
   </g>
   <g font-family="FreeSans" font-size="10" font-style="normal" font-weight="normal" transform="translate(37.7201,158.815) rotate(-0,6,-4)" xml:space="preserve">
    <text fill="rgb(38,38,38)" x="0 " y="-0">1</text>
   </g>
   <g font-family="FreeSans" font-size="10" font-style="normal" font-weight="normal" transform="translate(28.7201,93.4396) rotate(-0,15,-4)" xml:space="preserve">
    <text fill="rgb(38,38,38)" x="0 6 9 " y="-0">1.5</text>
   </g>
   <g font-family="FreeSans" font-size="10" font-style="normal" font-weight="normal" transform="translate(37.7201,28.0645) rotate(-0,6,-4)" xml:space="preserve">
    <text fill="rgb(38,38,38)" x="0 " y="-0">2</text>
   </g>
   <polyline fill="none" points="48.7287,285.565 339.226,285.565" stroke="#262626" stroke-dasharray="16,0" stroke-linecap="square" stroke-linejoin="miter" stroke-width="0.5"/>
   <polyline fill="none" points="48.7287,24.0645 339.226,24.0645" stroke="#262626" stroke-dasharray="16,0" stroke-linecap="square" stroke-linejoin="miter" stroke-width="0.5"/>
   <polyline fill="none" points="48.7287,285.565 48.7287,24.0645" stroke="#262626" stroke-dasharray="16,0" stroke-linecap="square" stroke-linejoin="miter" stroke-width="0.5"/>
   <polyline fill="none" points="339.226,285.565 339.226,24.0645" stroke="#262626" stroke-dasharray="16,0" stroke-linecap="square" stroke-linejoin="miter" stroke-width="0.5"/>
   <g font-family="FreeSans" font-size="11" font-style="normal" font-weight="normal" transform="translate(101.978,318.051) rotate(-0,92,-12)" xml:space="preserve">
    <text fill="rgb(38,38,38)" x="0 8 14 18 27 33 35 37 42 48 54 57 64 68 74 80 86 92 98 104 109 112 116 122 124 127 131 137 143 146 151 157 166 172 174 180 " y="-3">Normalized Frequency (pi rad/sample)</text>
   </g>
   <g font-family="FreeSans" font-size="11" font-style="normal" font-weight="normal" transform="translate(11.2201,154.815) rotate(-90,12.5,0)" xml:space="preserve">
    <text fill="rgb(38,38,38)" x="0 7 11 15 21 " y="-0">Error</text>
   </g>
   <g font-family="FreeSans" font-size="11" font-style="normal" font-weight="bold" transform="translate(16.4776,14.0645) rotate(-0,177.5,0)" xml:space="preserve">
    <text fill="rgb(0,0,0)" x="0 8 12 19 22 25 32 36 40 43 46 49 56 60 67 73 77 83 89 95 101 104 107 117 123 129 136 139 145 149 153 156 160 163 169 173 179 185 188 194 200 206 212 215 218 228 234 240 247 250 256 260 264 267 276 282 285 292 299 303 309 316 322 328 331 337 343 349 " y="-3">Grd. Err., order=241, mean err flat=0.0347, mean err weighted=0.0337</text>
   </g>
   <polyline fill="none" points="48.7287,285.565 49.2961,285.565 49.8634,285.565 50.4308,285.565 50.9982,285.565 51.5656,285.565 52.1329,285.565 52.7003,285.565 53.2677,285.565 53.8351,285.565 54.4025,285.565 54.9698,285.565 55.5372,285.565 56.1046,285.565 56.672,285.565 57.2394,285.565 57.8067,285.565 58.3741,285.565 58.9415,285.565 59.5089,285.565 60.0762,285.565 60.6436,285.565 61.211,285.565 61.7784,285.565 62.3458,285.565 62.9131,285.565 63.4805,285.565 64.0479,285.565 64.6153,285.565 65.1827,285.565 65.75,285.565 66.3174,285.565 66.8848,285.565 67.4522,285.565 68.0195,285.565 68.5869,285.565 69.1543,285.565 69.7217,285.565 70.2891,285.565 70.8564,285.565 71.4238,285.565 71.9912,285.565 72.5586,285.565 73.1259,285.565 73.6933,285.565 74.2607,285.565 74.8281,285.565 75.3955,285.565 75.9628,285.565 76.5302,285.565 77.0976,285.565 77.665,285.565 78.2324,285.565 78.7997,285.565 79.3671,285.565 79.9345,285.565 80.5019,285.565 81.0692,285.565 81.6366,285.565 82.204,285.565 82.7714,285.565 83.3388,285.565 83.9061,285.565 84.4735,285.565 85.0409,285.564 85.6083,285.565 86.1757,285.565 86.743,285.565 87.3104,285.565 87.8778,285.565 88.4452,285.565 89.0126,285.564 89.5799,285.564 90.1473,285.564 90.7147,285.564 91.2821,285.564 91.8494,285.564 92.4168,285.564 92.9842,285.563 93.5516,285.562 94.1189,285.561 94.6863,285.559 95.2537,285.559 95.8211,285.559 96.3885,285.559 96.9558,285.558 97.5232,285.556 98.0906,285.552 98.658,285.548 99.2254,285.545 99.7927,285.543 100.36,285.545 100.927,285.548 101.495,285.551 102.062,285.552 102.63,285.552 103.197,285.551 103.764,285.551 104.332,285.552 104.899,285.555 105.467,285.559 106.034,285.562 106.601,285.563 107.169,285.563 107.736,285.563 108.303,285.562 108.871,285.562 109.438,285.563 110.006,285.564 110.573,285.565 111.14,285.565 111.708,285.565 112.275,285.565 112.842,285.565 113.41,285.565 113.977,285.565 114.545,285.565 115.112,285.564 115.679,285.562 116.247,285.559 116.814,285.559 117.381,285.56 117.949,285.561 118.516,285.561 119.084,285.559 119.651,285.555 120.218,285.547 120.786,285.537 121.353,285.531 121.921,285.529 122.488,285.529 123.055,285.529 123.623,285.523 124.19,285.507 124.757,285.481 125.325,285.446 125.892,285.409 126.46,285.377 127.027,285.349 127.594,285.314 128.162,285.258 128.729,285.163 129.296,285.014 129.864,284.806 130.431,284.543 130.999,284.235 131.566,283.874 132.133,283.427 132.701,282.829 133.268,281.997 133.835,280.845 134.403,279.308 134.97,277.346 135.538,274.936 136.105,272.065 136.672,268.765 137.24,265.248 137.807,262.121 138.374,260.556 138.942,262.139 139.509,268.01 140.077,277.211 140.644,284.862 141.211,281.733 141.779,257.166 142.346,206.058 142.914,136.95 143.481,73.9186 144.048,45.8163 144.616,67.2205 145.183,127.224 145.75,197.503 146.318,251.847 146.885,279.647 147.453,285.454 148.02,280.232 148.587,273.27 149.155,269.025 149.722,268.042 150.289,269.192 150.857,271.29 151.424,273.653 151.992,276.001 152.559,278.201 153.126,280.113 153.694,281.606 154.261,282.625 154.828,283.223 155.396,283.518 155.963,283.649 156.531,283.74 157.098,283.866 157.665,284.032 158.233,284.183 158.8,284.254 159.367,284.208 159.935,284.039 160.502,283.77 161.07,283.44 161.637,283.068 162.204,282.62 162.772,282.018 163.339,281.18 163.907,280.1 164.474,278.932 165.041,278.026 165.609,277.839 166.176,278.735 166.743,280.759 167.311,283.411 167.878,285.409 168.446,284.446 169.013,277.312 169.58,261.085 170.148,235.665 170.715,206.262 171.282,182.955 171.85,175.739 172.417,188.027 172.985,214.241 173.552,243.73 174.119,267.265 174.687,280.872 175.254,285.457 175.821,284.267 176.389,280.641 176.956,276.942 177.524,274.417 178.091,273.429 178.658,273.775 179.226,274.986 179.793,276.567 180.36,278.15 180.928,279.543 181.495,280.694 182.063,281.634 182.63,282.413 183.197,283.067 183.765,283.615 184.332,284.06 184.9,284.409 185.467,284.675 186.034,284.874 186.602,285.026 187.169,285.146 187.736,285.241 188.304,285.315 188.871,285.37 189.439,285.41 190.006,285.437 190.573,285.458 191.141,285.476 191.708,285.492 192.275,285.508 192.843,285.521 193.41,285.53 193.978,285.536 194.545,285.539 195.112,285.542 195.68,285.544 196.247,285.548 196.814,285.553 197.382,285.558 197.949,285.56 198.517,285.562 199.084,285.562 199.651,285.562 200.219,285.562 200.786,285.562 201.354,285.564 201.921,285.565 202.488,285.565 203.056,285.565 203.623,285.565 204.19,285.565 204.758,285.565 205.325,285.565 205.893,285.565 206.46,285.564 207.027,285.563 207.595,285.562 208.162,285.561 208.729,285.561 209.297,285.562 209.864,285.562 210.432,285.562 210.999,285.56 211.566,285.557 212.134,285.553 212.701,285.551 213.268,285.55 213.836,285.552 214.403,285.554 214.971,285.555 215.538,285.555 216.105,285.553 216.673,285.551 217.24,285.55 217.807,285.551 218.375,285.555 218.942,285.559 219.51,285.561 220.077,285.562 220.644,285.562 221.212,285.561 221.779,285.56 222.346,285.56 222.914,285.562 223.481,285.563 224.049,285.564 224.616,285.565 225.183,285.565 225.751,285.564 226.318,285.564 226.886,285.563 227.453,285.564 228.02,285.564 228.588,285.565 229.155,285.565 229.722,285.565 230.29,285.565 230.857,285.565 231.425,285.564 231.992,285.564 232.559,285.564 233.127,285.565 233.694,285.565 234.261,285.565 234.829,285.565 235.396,285.565 235.964,285.565 236.531,285.564 237.098,285.565 237.666,285.565 238.233,285.565 238.8,285.565 239.368,285.565 239.935,285.565 240.503,285.565 241.07,285.565 241.637,285.565 242.205,285.565 242.772,285.565 243.339,285.565 243.907,285.565 244.474,285.565 245.042,285.565 245.609,285.565 246.176,285.565 246.744,285.565 247.311,285.565 247.879,285.565 248.446,285.565 249.013,285.565 249.581,285.565 250.148,285.565 250.715,285.565 251.283,285.565 251.85,285.565 252.418,285.565 252.985,285.565 253.552,285.565 254.12,285.565 254.687,285.565 255.254,285.565 255.822,285.565 256.389,285.565 256.957,285.565 257.524,285.565 258.091,285.565 258.659,285.565 259.226,285.565 259.793,285.565 260.361,285.565 260.928,285.565 261.496,285.565 262.063,285.565 262.63,285.565 263.198,285.565 263.765,285.565 264.333,285.565 264.9,285.565 265.467,285.565 266.035,285.565 266.602,285.565 267.169,285.565 267.737,285.565 268.304,285.565 268.872,285.565 269.439,285.565 270.006,285.565 270.574,285.565 271.141,285.565 271.708,285.565 272.276,285.565 272.843,285.565 273.411,285.565 273.978,285.565 274.545,285.565 275.113,285.565 275.68,285.565 276.247,285.565 276.815,285.565 277.382,285.565 277.95,285.565 278.517,285.565 279.084,285.565 279.652,285.565 280.219,285.565 280.786,285.565 281.354,285.565 281.921,285.565 282.489,285.565 283.056,285.565 283.623,285.565 284.191,285.565 284.758,285.565 285.326,285.565 285.893,285.565 286.46,285.565 287.028,285.565 287.595,285.565 288.162,285.565 288.73,285.565 289.297,285.565 289.865,285.565 290.432,285.565 290.999,285.565 291.567,285.565 292.134,285.565 292.701,285.565 293.269,285.565 293.836,285.565 294.404,285.565 294.971,285.565 295.538,285.565 296.106,285.565 296.673,285.565 297.24,285.565 297.808,285.565 298.375,285.565 298.943,285.565 299.51,285.565 300.077,285.565 300.645,285.565 301.212,285.565 301.779,285.565 302.347,285.565 302.914,285.565 303.482,285.565 304.049,285.565 304.616,285.565 305.184,285.565 305.751,285.565 306.319,285.565 306.886,285.565 307.453,285.565 308.021,285.565 308.588,285.565 309.155,285.565 309.723,285.565 310.29,285.565 310.858,285.565 311.425,285.565 311.992,285.565 312.56,285.565 313.127,285.565 313.694,285.565 314.262,285.565 314.829,285.565 315.397,285.565 315.964,285.565 316.531,285.565 317.099,285.565 317.666,285.565 318.233,285.565 318.801,285.565 319.368,285.565 319.936,285.565 320.503,285.565 321.07,285.565 321.638,285.565 322.205,285.565 322.772,285.565 323.34,285.565 323.907,285.565 324.475,285.565 325.042,285.565 325.609,285.565 326.177,285.565 326.744,285.565 327.312,285.565 327.879,285.565 328.446,285.565 329.014,285.565 329.581,285.565 330.148,285.565 330.716,285.565 331.283,285.565 331.851,285.565 332.418,285.565 332.985,285.565 333.553,285.565 334.12,285.565 334.687,285.565 335.255,285.565 335.822,285.565 336.39,285.565 336.957,285.565 337.524,285.565 338.092,285.565 338.659,285.565" stroke="#0071bc" stroke-linecap="butt" stroke-linejoin="round" stroke-width="0.5"/>
   <polyline fill="none" points="77.7785,285.565 79.3382,285.565 80.8979,285.565 82.4576,285.565 84.0173,285.565 85.577,285.565 87.1368,285.565 88.6965,285.565 90.2562,285.565 91.8159,285.565 93.3757,285.565 94.9354,285.565 96.4951,285.565 98.0548,285.565 99.6145,285.565 101.174,285.565 102.734,285.565 104.294,285.565 105.853,285.565 107.413,285.565 108.973,285.565 110.533,285.565 112.092,285.565 113.652,285.565 115.212,285.565 116.771,285.565 118.331,285.565 119.891,285.563 121.451,285.56 123.01,285.558 124.57,285.544 126.13,285.505 127.689,285.443 129.249,285.233 130.809,284.655 132.369,283.517 133.928,280.903 135.488,275.444 137.048,266.832 138.608,262.255 140.167,280.222 141.727,258.074 143.287,96.601 144.846,99.1767 146.406,259.114 147.966,281.014 149.526,268.515 151.085,272.255 152.645,278.428 154.205,282.47 155.764,283.586 157.324,283.91 158.884,284.25 160.444,283.84 162.003,282.901 163.563,281.198 165.123,279.009 166.682,281.395 168.242,285.528 169.802,270.235 171.362,241.699 172.921,257.269 174.481,282.089 176.041,285.233 177.601,283.696 179.16,283.996 180.72,284.759 182.28,285.197 183.839,285.405 185.399,285.5 186.959,285.538 188.519,285.554 190.078,285.56 191.638,285.563 193.198,285.564 194.757,285.564 196.317,285.565 197.877,285.565 199.437,285.565 200.996,285.565 202.556,285.565 204.116,285.565 205.675,285.565 207.235,285.565 208.795,285.565 210.355,285.565 211.914,285.565 213.474,285.565 215.034,285.565 216.594,285.565 218.153,285.565 219.713,285.565 221.273,285.565 222.832,285.565 224.392,285.565 225.952,285.565 227.512,285.565 229.071,285.565 230.631,285.565 232.191,285.565 233.75,285.565 235.31,285.565 236.87,285.565 238.43,285.565 239.989,285.565 241.549,285.565 243.109,285.565 244.668,285.565 246.228,285.565 247.788,285.565 249.348,285.565 250.907,285.565 252.467,285.565 254.027,285.565 255.587,285.565 257.146,285.565 258.706,285.565 260.266,285.565 261.825,285.565 263.385,285.565 264.945,285.565 266.505,285.565 268.064,285.565 269.624,285.565 271.184,285.565 272.743,285.565 274.303,285.565 275.863,285.565 277.423,285.565 278.982,285.565 280.542,285.565 282.102,285.565 283.661,285.565 285.221,285.565 286.781,285.565 288.341,285.565 289.9,285.565 291.46,285.565 293.02,285.565 294.579,285.565 296.139,285.565 297.699,285.565 299.259,285.565 300.818,285.565 302.378,285.565 303.938,285.565 305.498,285.565 307.057,285.565 308.617,285.565 310.177,285.565" stroke="#d85218" stroke-linecap="butt" stroke-linejoin="round" stroke-width="0.5"/>
   <polyline fill="none" points="77.7785,285.539 79.3382,285.548 80.8979,285.558 82.4576,285.555 84.0173,285.535 85.577,285.512 87.1368,285.48 88.6965,285.442 90.2562,285.395 91.8159,285.338 93.3757,285.268 94.9354,285.179 96.4951,285.071 98.0548,284.939 99.6145,284.779 101.174,284.585 102.734,284.335 104.294,284.027 105.853,283.648 107.413,283.184 108.973,282.61 110.533,281.85 112.092,280.891 113.652,279.681 115.212,278.155 116.771,276.201 118.331,273.495 119.891,269.939 121.451,265.266 123.01,259.152 124.57,251.04 126.13,239.665 127.689,225.424 129.249,209.066 130.809,192.02 132.369,177.03 133.928,167.849 135.488,162.614 137.048,160.074 138.608,159.059 140.167,158.635 141.727,158.26 143.287,157.81 144.846,157.277 146.406,156.669 147.966,156.006 149.526,155.323 151.085,154.65 152.645,154.009 154.205,153.423 155.764,152.934 157.324,152.677 158.884,152.857 160.444,153.878 162.003,156.299 163.563,161.368 165.123,170.789 166.682,183.584 168.242,198.52 169.802,214.095 171.362,228.272 172.921,239.791 174.481,249.171 176.041,256.659 177.601,262.55 179.16,267.027 180.72,270.453 182.28,273.211 183.839,275.43 185.399,277.219 186.959,278.628 188.519,279.752 190.078,280.686 191.638,281.463 193.198,282.11 194.757,282.637 196.317,283.072 197.877,283.441 199.437,283.756 200.996,284.025 202.556,284.248 204.116,284.436 205.675,284.599 207.235,284.74 208.795,284.862 210.355,284.964 211.914,285.052 213.474,285.129 215.034,285.196 216.594,285.254 218.153,285.304 219.713,285.347 221.273,285.384 222.832,285.417 224.392,285.446 225.952,285.47 227.512,285.492 229.071,285.51 230.631,285.526 232.191,285.54 233.75,285.552 235.31,285.561 236.87,285.56 238.43,285.552 239.989,285.546 241.549,285.541 243.109,285.536 244.668,285.533 246.228,285.53 247.788,285.528 249.348,285.526 250.907,285.525 252.467,285.524 254.027,285.524 255.587,285.524 257.146,285.524 258.706,285.524 260.266,285.525 261.825,285.526 263.385,285.527 264.945,285.528 266.505,285.529 268.064,285.531 269.624,285.532 271.184,285.534 272.743,285.535 274.303,285.537 275.863,285.539 277.423,285.54 278.982,285.542 280.542,285.544 282.102,285.546 283.661,285.548 285.221,285.549 286.781,285.551 288.341,285.553 289.9,285.555 291.46,285.557 293.02,285.558 294.579,285.56 296.139,285.562 297.699,285.564 299.259,285.564 300.818,285.563 302.378,285.561 303.938,285.56 305.498,285.558 307.057,285.557 308.617,285.555 310.177,285.554" stroke="#ecb01f" stroke-linecap="butt" stroke-linejoin="round" stroke-width="0.5"/>
  </g>
  <clipPath id="cp00374320">
   <polygon points="0,320 374,320 374,0 0,0"/>
  </clipPath>
  <g clip-path="url(#cp00374320)">
   <polygon fill="#ffffff" points="225.209,76.4787 331.223,76.4787 331.223,32.068 225.209,32.068" shape-rendering="crispEdges"/>
   <polyline fill="none" points="225.209,76.4787 331.223,76.4787" stroke="#262626" stroke-dasharray="16,0" stroke-linecap="square" stroke-linejoin="miter" stroke-width="0.5"/>
   <polyline fill="none" points="225.209,32.068 331.223,32.068" stroke="#262626" stroke-dasharray="16,0" stroke-linecap="square" stroke-linejoin="miter" stroke-width="0.5"/>
   <polyline fill="none" points="225.209,76.4787 225.209,32.068" stroke="#262626" stroke-dasharray="16,0" stroke-linecap="square" stroke-linejoin="miter" stroke-width="0.5"/>
   <polyline fill="none" points="331.223,76.4787 331.223,32.068" stroke="#262626" stroke-dasharray="16,0" stroke-linecap="square" stroke-linejoin="miter" stroke-width="0.5"/>
   <polyline fill="none" points="229.211,40.2715 249.219,40.2715" stroke="#0071bc" stroke-linecap="butt" stroke-linejoin="round" stroke-width="0.5"/>
   <g font-family="FreeSans" font-size="9" font-style="normal" font-weight="normal" transform="translate(253.221,44.2716) rotate(-0,-0,-4)" xml:space="preserve">
    <text fill="rgb(0,0,0)" x="0 6 9 12 14 19 21 26 " y="-0">Err Flat</text>
   </g>
   <polyline fill="none" points="229.211,53.4752 249.219,53.4752" stroke="#d85218" stroke-linecap="butt" stroke-linejoin="round" stroke-width="0.5"/>
   <g font-family="FreeSans" font-size="9" font-style="normal" font-weight="normal" transform="translate(253.221,58.4751) rotate(-0,-0,-5)" xml:space="preserve">
    <text fill="rgb(0,0,0)" x="0 6 9 12 14 22 27 29 34 39 42 47 52 54 56 58 60 62 64 66 68 70 72 " y="-2">Err Weighted           </text>
   </g>
   <polyline fill="none" points="229.211,67.4769 249.219,67.4769" stroke="#ecb01f" stroke-linecap="butt" stroke-linejoin="round" stroke-width="0.5"/>
   <g font-family="FreeSans" font-size="9" font-style="normal" font-weight="normal" transform="translate(253.221,72.4769) rotate(-0,-0,-5)" xml:space="preserve">
    <text fill="rgb(0,0,0)" x="0 6 9 12 14 22 27 29 34 39 42 " y="-2">Err Weights</text>
   </g>
  </g>
 </g>
</svg>
