<?xml version='1.0' encoding='UTF-8' standalone='no'?>
<svg height="470pt" viewBox="0 0 524 470" width="524pt" xmlns="http://www.w3.org/2000/svg" xmlns:xlink="http://www.w3.org/1999/xlink">
 <title>Figure 9</title>
 <desc>
Creator: GL2PS 1.4.2, (C) 1999-2020 C. Geuzaine
For: Octave
CreationDate: Thu Feb 12 12:38:04 2026
</desc>
 <defs/>
 <polygon fill="#ffffff" points="0,0 524,0 524,470 0,470"/>
 <g>
  <polygon fill="#ffffff" points="0,470 524,470 524,0 0,0" shape-rendering="crispEdges"/>
  <clipPath id="cp00524470">
   <polygon points="0,470 524,470 524,0 0,0"/>
  </clipPath>
  <g clip-path="url(#cp00524470)">
   <polygon fill="#ffffff" points="68.2201,419.007 474.917,419.007 474.917,35.3095 68.2201,35.3095" shape-rendering="crispEdges"/>
   <polyline fill="none" points="68.2201,419.007 68.2201,414.943" stroke="#262626" stroke-linecap="butt" stroke-linejoin="miter" stroke-width="0.5"/>
   <polyline fill="none" points="68.2201,35.3095 68.2201,39.3733" stroke="#262626" stroke-linecap="butt" stroke-linejoin="miter" stroke-width="0.5"/>
   <polyline fill="none" points="149.56,419.007 149.56,414.943" stroke="#262626" stroke-linecap="butt" stroke-linejoin="miter" stroke-width="0.5"/>
   <polyline fill="none" points="149.56,35.3095 149.56,39.3733" stroke="#262626" stroke-linecap="butt" stroke-linejoin="miter" stroke-width="0.5"/>
   <polyline fill="none" points="230.899,419.007 230.899,414.943" stroke="#262626" stroke-linecap="butt" stroke-linejoin="miter" stroke-width="0.5"/>
   <polyline fill="none" points="230.899,35.3095 230.899,39.3733" stroke="#262626" stroke-linecap="butt" stroke-linejoin="miter" stroke-width="0.5"/>
   <polyline fill="none" points="312.238,419.007 312.238,414.943" stroke="#262626" stroke-linecap="butt" stroke-linejoin="miter" stroke-width="0.5"/>
   <polyline fill="none" points="312.238,35.3095 312.238,39.3733" stroke="#262626" stroke-linecap="butt" stroke-linejoin="miter" stroke-width="0.5"/>
   <polyline fill="none" points="393.578,419.007 393.578,414.943" stroke="#262626" stroke-linecap="butt" stroke-linejoin="miter" stroke-width="0.5"/>
   <polyline fill="none" points="393.578,35.3095 393.578,39.3733" stroke="#262626" stroke-linecap="butt" stroke-linejoin="miter" stroke-width="0.5"/>
   <polyline fill="none" points="474.917,419.007 474.917,414.943" stroke="#262626" stroke-linecap="butt" stroke-linejoin="miter" stroke-width="0.5"/>
   <polyline fill="none" points="474.917,35.3095 474.917,39.3733" stroke="#262626" stroke-linecap="butt" stroke-linejoin="miter" stroke-width="0.5"/>
   <g font-family="FreeSans" font-size="10" font-style="normal" font-weight="normal" transform="translate(65.2201,434.501) rotate(-0,3,-8)" xml:space="preserve">
    <text fill="rgb(38,38,38)" x="0 " y="-0">0</text>
   </g>
   <g font-family="FreeSans" font-size="10" font-style="normal" font-weight="normal" transform="translate(142.06,434.501) rotate(-0,7.5,-8)" xml:space="preserve">
    <text fill="rgb(38,38,38)" x="0 6 9 " y="-0">0.2</text>
   </g>
   <g font-family="FreeSans" font-size="10" font-style="normal" font-weight="normal" transform="translate(223.399,434.501) rotate(-0,7.5,-8)" xml:space="preserve">
    <text fill="rgb(38,38,38)" x="0 6 9 " y="-0">0.4</text>
   </g>
   <g font-family="FreeSans" font-size="10" font-style="normal" font-weight="normal" transform="translate(304.738,434.501) rotate(-0,7.5,-8)" xml:space="preserve">
    <text fill="rgb(38,38,38)" x="0 6 9 " y="-0">0.6</text>
   </g>
   <g font-family="FreeSans" font-size="10" font-style="normal" font-weight="normal" transform="translate(386.078,434.501) rotate(-0,7.5,-8)" xml:space="preserve">
    <text fill="rgb(38,38,38)" x="0 6 9 " y="-0">0.8</text>
   </g>
   <g font-family="FreeSans" font-size="10" font-style="normal" font-weight="normal" transform="translate(471.917,434.501) rotate(-0,3,-8)" xml:space="preserve">
    <text fill="rgb(38,38,38)" x="0 " y="-0">1</text>
   </g>
   <polyline fill="none" points="68.2201,419.007 72.2841,419.007" stroke="#262626" stroke-linecap="butt" stroke-linejoin="miter" stroke-width="0.5"/>
   <polyline fill="none" points="474.917,419.007 470.853,419.007" stroke="#262626" stroke-linecap="butt" stroke-linejoin="miter" stroke-width="0.5"/>
   <polyline fill="none" points="68.2201,323.082 72.2841,323.082" stroke="#262626" stroke-linecap="butt" stroke-linejoin="miter" stroke-width="0.5"/>
   <polyline fill="none" points="474.917,323.082 470.853,323.082" stroke="#262626" stroke-linecap="butt" stroke-linejoin="miter" stroke-width="0.5"/>
   <polyline fill="none" points="68.2201,227.158 72.2841,227.158" stroke="#262626" stroke-linecap="butt" stroke-linejoin="miter" stroke-width="0.5"/>
   <polyline fill="none" points="474.917,227.158 470.853,227.158" stroke="#262626" stroke-linecap="butt" stroke-linejoin="miter" stroke-width="0.5"/>
   <polyline fill="none" points="68.2201,131.234 72.2841,131.234" stroke="#262626" stroke-linecap="butt" stroke-linejoin="miter" stroke-width="0.5"/>
   <polyline fill="none" points="474.917,131.234 470.853,131.234" stroke="#262626" stroke-linecap="butt" stroke-linejoin="miter" stroke-width="0.5"/>
   <polyline fill="none" points="68.2201,35.3095 72.2841,35.3095" stroke="#262626" stroke-linecap="butt" stroke-linejoin="miter" stroke-width="0.5"/>
   <polyline fill="none" points="474.917,35.3095 470.853,35.3095" stroke="#262626" stroke-linecap="butt" stroke-linejoin="miter" stroke-width="0.5"/>
   <g font-family="FreeSans" font-size="10" font-style="normal" font-weight="normal" transform="translate(57.2239,423.007) rotate(-0,6,-4)" xml:space="preserve">
    <text fill="rgb(38,38,38)" x="0 " y="-0">0</text>
   </g>
   <g font-family="FreeSans" font-size="10" font-style="normal" font-weight="normal" transform="translate(48.2239,327.082) rotate(-0,15,-4)" xml:space="preserve">
    <text fill="rgb(38,38,38)" x="0 6 9 " y="-0">0.5</text>
   </g>
   <g font-family="FreeSans" font-size="10" font-style="normal" font-weight="normal" transform="translate(57.2239,231.158) rotate(-0,6,-4)" xml:space="preserve">
    <text fill="rgb(38,38,38)" x="0 " y="-0">1</text>
   </g>
   <g font-family="FreeSans" font-size="10" font-style="normal" font-weight="normal" transform="translate(48.2239,135.234) rotate(-0,15,-4)" xml:space="preserve">
    <text fill="rgb(38,38,38)" x="0 6 9 " y="-0">1.5</text>
   </g>
   <g font-family="FreeSans" font-size="10" font-style="normal" font-weight="normal" transform="translate(57.2239,39.3095) rotate(-0,6,-4)" xml:space="preserve">
    <text fill="rgb(38,38,38)" x="0 " y="-0">2</text>
   </g>
   <polyline fill="none" points="68.2201,419.007 474.917,419.007" stroke="#262626" stroke-dasharray="16,0" stroke-linecap="square" stroke-linejoin="miter" stroke-width="0.5"/>
   <polyline fill="none" points="68.2201,35.3095 474.917,35.3095" stroke="#262626" stroke-dasharray="16,0" stroke-linecap="square" stroke-linejoin="miter" stroke-width="0.5"/>
   <polyline fill="none" points="68.2201,419.007 68.2201,35.3095" stroke="#262626" stroke-dasharray="16,0" stroke-linecap="square" stroke-linejoin="miter" stroke-width="0.5"/>
   <polyline fill="none" points="474.917,419.007 474.917,35.3095" stroke="#262626" stroke-dasharray="16,0" stroke-linecap="square" stroke-linejoin="miter" stroke-width="0.5"/>
   <g font-family="FreeSans" font-size="11" font-style="normal" font-weight="bold" transform="translate(53.5686,25.3095) rotate(-0,218,0)" xml:space="preserve">
    <text fill="rgb(0,0,0)" x="0 8 12 19 26 33 36 44 50 53 59 65 68 75 79 83 90 94 97 100 107 111 118 124 128 134 140 146 152 155 158 168 174 180 187 190 196 200 204 207 211 214 220 224 230 236 239 245 251 257 263 269 275 281 284 287 297 303 309 316 319 325 329 333 336 345 351 354 361 368 372 378 385 391 397 400 406 412 418 424 430 " y="-3">Group Delay Error, order=241, mean err flat=0.0347462, mean err weighted=0.033691</text>
   </g>
   <polyline fill="none" points="68.2201,419.007 69.0145,419.007 69.8088,419.007 70.6031,419.007 71.3975,419.007 72.1918,419.007 72.9861,419.007 73.7804,419.007 74.5748,419.007 75.3691,419.007 76.1635,419.007 76.9578,419.007 77.7521,419.007 78.5464,419.007 79.3408,419.007 80.1351,419.007 80.9294,419.007 81.7238,419.007 82.5181,419.007 83.3124,419.007 84.1067,419.007 84.9011,419.007 85.6954,419.007 86.4897,419.007 87.2841,419.007 88.0784,419.007 88.8727,419.007 89.6671,419.007 90.4614,419.007 91.2557,419.007 92.05,419.006 92.8444,419.007 93.6387,419.007 94.433,419.007 95.2274,419.007 96.0217,419.007 96.816,419.007 97.6104,419.007 98.4047,419.006 99.199,419.006 99.9933,419.007 100.788,419.007 101.582,419.007 102.376,419.007 103.171,419.007 103.965,419.007 104.759,419.006 105.554,419.006 106.348,419.006 107.142,419.007 107.937,419.007 108.731,419.007 109.525,419.007 110.32,419.007 111.114,419.006 111.908,419.006 112.703,419.006 113.497,419.006 114.291,419.007 115.086,419.007 115.88,419.007 116.674,419.006 117.469,419.006 118.263,419.006 119.057,419.006 119.852,419.006 120.646,419.006 121.44,419.006 122.235,419.006 123.029,419.006 123.823,419.006 124.618,419.005 125.412,419.005 126.206,419.004 127.001,419.005 127.795,419.005 128.589,419.005 129.384,419.005 130.178,419.004 130.972,419.002 131.767,419 132.561,418.998 133.355,418.998 134.15,418.998 134.944,418.998 135.738,418.997 136.533,418.993 137.327,418.988 138.121,418.982 138.916,418.977 139.71,418.975 140.504,418.977 141.299,418.982 142.093,418.985 142.887,418.987 143.681,418.987 144.476,418.986 145.27,418.985 146.064,418.987 146.859,418.992 147.653,418.998 148.447,419.002 149.242,419.004 150.036,419.004 150.83,419.003 151.625,419.002 152.419,419.002 153.213,419.003 154.008,419.005 154.802,419.006 155.596,419.006 156.391,419.006 157.185,419.006 157.979,419.007 158.774,419.006 159.568,419.007 160.362,419.006 161.157,419.005 161.951,419.002 162.745,418.998 163.54,418.997 164.334,418.999 165.128,419 165.923,419.001 166.717,418.998 167.511,418.991 168.306,418.98 169.1,418.966 169.894,418.956 170.689,418.953 171.483,418.954 172.277,418.954 173.072,418.944 173.866,418.922 174.66,418.883 175.455,418.832 176.249,418.778 177.043,418.731 177.838,418.689 178.632,418.639 179.426,418.557 180.221,418.417 181.015,418.198 181.809,417.893 182.604,417.508 183.398,417.055 184.192,416.526 184.987,415.87 185.781,414.993 186.575,413.771 187.37,412.081 188.164,409.826 188.958,406.947 189.753,403.411 190.547,399.198 191.341,394.356 192.136,389.196 192.93,384.607 193.724,382.311 194.519,384.634 195.313,393.248 196.107,406.749 196.902,417.975 197.696,413.384 198.49,377.337 199.285,302.346 200.079,200.945 200.873,108.46 201.668,67.2258 202.462,98.632 203.256,186.675 204.051,289.794 204.845,369.533 205.639,410.323 206.434,418.843 207.228,411.181 208.022,400.966 208.817,394.738 209.611,393.296 210.405,394.983 211.2,398.061 211.994,401.528 212.788,404.973 213.583,408.201 214.377,411.007 215.171,413.197 215.966,414.693 216.76,415.57 217.554,416.003 218.349,416.196 219.143,416.329 219.937,416.514 220.731,416.757 221.526,416.978 222.32,417.084 223.114,417.016 223.909,416.767 224.703,416.373 225.497,415.889 226.292,415.342 227.086,414.686 227.88,413.802 228.675,412.572 229.469,410.987 230.263,409.274 231.058,407.945 231.852,407.67 232.646,408.986 233.441,411.954 234.235,415.845 235.029,418.778 235.824,417.365 236.618,406.897 237.412,383.088 238.207,345.789 239.001,302.647 239.795,268.448 240.59,257.86 241.384,275.89 242.178,314.353 242.973,357.622 243.767,392.155 244.561,412.121 245.356,418.848 246.15,417.102 246.944,411.781 247.739,406.355 248.533,402.65 249.327,401.199 250.122,401.707 250.916,403.484 251.71,405.804 252.505,408.127 253.299,410.17 254.093,411.86 254.888,413.239 255.682,414.381 256.476,415.342 257.271,416.145 258.065,416.799 258.859,417.311 259.654,417.7 260.448,417.993 261.242,418.216 262.037,418.392 262.831,418.531 263.625,418.64 264.42,418.721 265.214,418.779 266.008,418.819 266.803,418.85 267.597,418.876 268.391,418.9 269.186,418.923 269.98,418.942 270.774,418.956 271.569,418.964 272.363,418.969 273.157,418.972 273.952,418.976 274.746,418.982 275.54,418.989 276.335,418.996 277.129,419 277.923,419.002 278.718,419.002 279.512,419.002 280.306,419.002 281.101,419.003 281.895,419.005 282.689,419.006 283.484,419.007 284.278,419.006 285.072,419.006 285.867,419.007 286.661,419.007 287.455,419.007 288.25,419.006 289.044,419.006 289.838,419.004 290.633,419.002 291.427,419.001 292.221,419.001 293.016,419.002 293.81,419.003 294.604,419.002 295.399,418.999 296.193,418.994 296.987,418.989 297.781,418.985 298.576,418.985 299.37,418.988 300.164,418.991 300.959,418.992 301.753,418.991 302.547,418.989 303.342,418.985 304.136,418.984 304.93,418.987 305.725,418.992 306.519,418.997 307.313,419.001 308.108,419.002 308.902,419.002 309.696,419.001 310.491,419 311.285,419 312.079,419.002 312.874,419.004 313.668,419.006 314.462,419.006 315.257,419.006 316.051,419.006 316.845,419.005 317.64,419.004 318.434,419.004 319.228,419.005 320.023,419.006 320.817,419.007 321.611,419.007 322.406,419.007 323.2,419.006 323.994,419.006 324.789,419.005 325.583,419.006 326.377,419.006 327.172,419.007 327.966,419.006 328.76,419.007 329.555,419.007 330.349,419.006 331.143,419.006 331.938,419.006 332.732,419.006 333.526,419.007 334.321,419.006 335.115,419.006 335.909,419.007 336.704,419.006 337.498,419.006 338.292,419.006 339.087,419.006 339.881,419.007 340.675,419.007 341.47,419.006 342.264,419.006 343.058,419.007 343.853,419.006 344.647,419.006 345.441,419.006 346.236,419.006 347.03,419.007 347.824,419.006 348.619,419.006 349.413,419.007 350.207,419.007 351.002,419.006 351.796,419.006 352.59,419.006 353.385,419.007 354.179,419.006 354.973,419.006 355.768,419.006 356.562,419.007 357.356,419.006 358.151,419.006 358.945,419.006 359.739,419.007 360.534,419.007 361.328,419.006 362.122,419.006 362.917,419.007 363.711,419.007 364.505,419.006 365.3,419.006 366.094,419.006 366.888,419.007 367.683,419.006 368.477,419.006 369.271,419.006 370.066,419.007 370.86,419.006 371.654,419.006 372.449,419.006 373.243,419.007 374.037,419.007 374.832,419.006 375.626,419.006 376.42,419.007 377.215,419.007 378.009,419.006 378.803,419.006 379.597,419.006 380.392,419.007 381.186,419.006 381.98,419.006 382.775,419.006 383.569,419.007 384.363,419.007 385.158,419.006 385.952,419.006 386.746,419.007 387.541,419.007 388.335,419.006 389.129,419.006 389.924,419.007 390.718,419.007 391.512,419.006 392.307,419.006 393.101,419.007 393.895,419.007 394.69,419.007 395.484,419.006 396.278,419.006 397.073,419.007 397.867,419.007 398.661,419.006 399.456,419.006 400.25,419.007 401.044,419.007 401.839,419.006 402.633,419.006 403.427,419.007 404.222,419.007 405.016,419.007 405.81,419.006 406.605,419.007 407.399,419.007 408.193,419.007 408.988,419.006 409.782,419.007 410.576,419.007 411.371,419.007 412.165,419.006 412.959,419.007 413.754,419.007 414.548,419.007 415.342,419.007 416.137,419.007 416.931,419.007 417.725,419.007 418.52,419.007 419.314,419.007 420.108,419.007 420.903,419.007 421.697,419.007 422.491,419.007 423.286,419.007 424.08,419.007 424.874,419.007 425.669,419.007 426.463,419.007 427.257,419.007 428.052,419.007 428.846,419.007 429.64,419.007 430.435,419.007 431.229,419.007 432.023,419.007 432.818,419.007 433.612,419.007 434.406,419.007 435.201,419.007 435.995,419.007 436.789,419.007 437.584,419.007 438.378,419.007 439.172,419.007 439.967,419.007 440.761,419.007 441.555,419.007 442.35,419.007 443.144,419.007 443.938,419.007 444.733,419.007 445.527,419.007 446.321,419.007 447.116,419.007 447.91,419.007 448.704,419.007 449.499,419.007 450.293,419.007 451.087,419.007 451.882,419.007 452.676,419.007 453.47,419.007 454.264,419.007 455.059,419.007 455.853,419.007 456.647,419.007 457.442,419.007 458.236,419.007 459.03,419.007 459.825,419.007 460.619,419.007 461.413,419.007 462.208,419.007 463.002,419.007 463.796,419.007 464.591,419.007 465.385,419.007 466.179,419.007 466.974,419.007 467.768,419.007 468.562,419.007 469.357,419.007 470.151,419.007 470.945,419.007 471.74,419.007 472.534,419.007 473.328,419.007 474.123,419.007" stroke="#0071bc" stroke-linecap="butt" stroke-linejoin="round" stroke-width="0.5"/>
   <polyline fill="none" points="108.89,419.007 111.073,419.007 113.257,419.007 115.441,419.007 117.624,419.007 119.808,419.007 121.991,419.007 124.175,419.007 126.359,419.007 128.542,419.007 130.726,419.007 132.91,419.007 135.093,419.007 137.277,419.006 139.46,419.006 141.644,419.006 143.828,419.006 146.011,419.006 148.195,419.006 150.378,419.006 152.562,419.006 154.746,419.007 156.929,419.007 159.113,419.007 161.296,419.006 163.48,419.006 165.664,419.006 167.847,419.004 170.031,418.999 172.214,418.996 174.398,418.976 176.582,418.918 178.765,418.827 180.949,418.52 183.133,417.671 185.316,416.002 187.5,412.165 189.683,404.156 191.867,391.52 194.051,384.804 196.234,411.167 198.418,378.669 200.601,141.742 202.785,145.521 204.969,380.196 207.152,412.329 209.336,393.989 211.519,399.477 213.703,408.535 215.887,414.466 218.07,416.104 220.254,416.579 222.437,417.077 224.621,416.475 226.805,415.098 228.988,412.599 231.172,409.387 233.355,412.888 235.539,418.952 237.723,396.513 239.906,354.643 242.09,377.488 244.274,413.906 246.457,418.519 248.641,416.264 250.824,416.704 253.008,417.825 255.192,418.467 257.375,418.772 259.559,418.912 261.742,418.967 263.926,418.99 266.11,418.999 268.293,419.003 270.477,419.005 272.66,419.006 274.844,419.006 277.028,419.006 279.211,419.007 281.395,419.007 283.578,419.007 285.762,419.007 287.946,419.007 290.129,419.007 292.313,419.007 294.496,419.007 296.68,419.007 298.864,419.006 301.047,419.007 303.231,419.007 305.415,419.007 307.598,419.007 309.782,419.007 311.965,419.007 314.149,419.007 316.333,419.007 318.516,419.007 320.7,419.007 322.883,419.007 325.067,419.007 327.251,419.007 329.434,419.007 331.618,419.007 333.801,419.007 335.985,419.007 338.169,419.007 340.352,419.007 342.536,419.007 344.719,419.007 346.903,419.007 349.087,419.007 351.27,419.007 353.454,419.007 355.638,419.007 357.821,419.007 360.005,419.007 362.188,419.007 364.372,419.007 366.556,419.007 368.739,419.007 370.923,419.007 373.106,419.007 375.29,419.007 377.474,419.007 379.657,419.007 381.841,419.007 384.024,419.007 386.208,419.007 388.392,419.007 390.575,419.007 392.759,419.007 394.942,419.007 397.126,419.007 399.31,419.007 401.493,419.007 403.677,419.007 405.86,419.007 408.044,419.007 410.228,419.007 412.411,419.007 414.595,419.007 416.779,419.007 418.962,419.007 421.146,419.007 423.329,419.007 425.513,419.007 427.697,419.007 429.88,419.007 432.064,419.007 434.247,419.007" stroke="#d85218" stroke-linecap="butt" stroke-linejoin="round" stroke-width="0.5"/>
   <polyline fill="none" points="108.89,418.968 111.073,418.982 113.257,418.997 115.441,418.991 117.624,418.963 119.808,418.928 121.991,418.882 124.175,418.826 126.359,418.757 128.542,418.673 130.726,418.571 132.91,418.44 135.093,418.281 137.277,418.088 139.46,417.854 141.644,417.569 143.828,417.202 146.011,416.75 148.195,416.194 150.378,415.513 152.562,414.671 154.746,413.555 156.929,412.149 159.113,410.374 161.296,408.134 163.48,405.267 165.664,401.296 167.847,396.078 170.031,389.222 172.214,380.251 174.398,368.348 176.582,351.658 178.765,330.762 180.949,306.761 183.133,281.749 185.316,259.754 187.5,246.283 189.683,238.602 191.867,234.876 194.051,233.385 196.234,232.764 198.418,232.213 200.601,231.553 202.785,230.771 204.969,229.879 207.152,228.907 209.336,227.903 211.519,226.916 213.703,225.976 215.887,225.115 218.07,224.399 220.254,224.021 222.437,224.286 224.621,225.783 226.805,229.337 228.988,236.773 231.172,250.596 233.355,269.371 235.539,291.287 237.723,314.139 239.906,334.941 242.09,351.843 244.274,365.607 246.457,376.593 248.641,385.237 250.824,391.807 253.008,396.832 255.192,400.879 257.375,404.136 259.559,406.761 261.742,408.828 263.926,410.477 266.11,411.848 268.293,412.988 270.477,413.938 272.66,414.711 274.844,415.348 277.028,415.891 279.211,416.353 281.395,416.746 283.578,417.074 285.762,417.35 287.946,417.589 290.129,417.796 292.313,417.974 294.496,418.125 296.68,418.254 298.864,418.367 301.047,418.465 303.231,418.551 305.415,418.624 307.598,418.687 309.782,418.742 311.965,418.79 314.149,418.832 316.333,418.868 318.516,418.899 320.7,418.926 322.883,418.949 325.067,418.97 327.251,418.987 329.434,419 331.618,418.999 333.801,418.988 335.985,418.978 338.169,418.971 340.352,418.965 342.536,418.96 344.719,418.955 346.903,418.952 349.087,418.95 351.27,418.948 353.454,418.947 355.638,418.946 357.821,418.946 360.005,418.946 362.188,418.947 364.372,418.948 366.556,418.949 368.739,418.951 370.923,418.952 373.106,418.954 375.29,418.956 377.474,418.958 379.657,418.961 381.841,418.963 384.024,418.965 386.208,418.968 388.392,418.971 390.575,418.973 392.759,418.976 394.942,418.978 397.126,418.981 399.31,418.984 401.493,418.986 403.677,418.989 405.86,418.992 408.044,418.994 410.228,418.997 412.411,418.999 414.595,419.002 416.779,419.005 418.962,419.005 421.146,419.004 423.329,419.001 425.513,418.999 427.697,418.997 429.88,418.995 432.064,418.992 434.247,418.99" stroke="#ecb01f" stroke-linecap="butt" stroke-linejoin="round" stroke-width="0.5"/>
  </g>
  <clipPath id="cp00524470">
   <polygon points="0,470 524,470 524,0 0,0"/>
  </clipPath>
  <g clip-path="url(#cp00524470)">
   <polygon fill="#ffffff" points="384.9,87.7237 466.914,87.7237 466.914,43.313 384.9,43.313" shape-rendering="crispEdges"/>
   <polyline fill="none" points="384.9,87.7237 466.914,87.7237" stroke="#262626" stroke-dasharray="16,0" stroke-linecap="square" stroke-linejoin="miter" stroke-width="0.5"/>
   <polyline fill="none" points="384.9,43.313 466.914,43.313" stroke="#262626" stroke-dasharray="16,0" stroke-linecap="square" stroke-linejoin="miter" stroke-width="0.5"/>
   <polyline fill="none" points="384.9,87.7237 384.9,43.313" stroke="#262626" stroke-dasharray="16,0" stroke-linecap="square" stroke-linejoin="miter" stroke-width="0.5"/>
   <polyline fill="none" points="466.914,87.7237 466.914,43.313" stroke="#262626" stroke-dasharray="16,0" stroke-linecap="square" stroke-linejoin="miter" stroke-width="0.5"/>
   <polyline fill="none" points="388.901,51.5166 408.91,51.5166" stroke="#0071bc" stroke-linecap="butt" stroke-linejoin="round" stroke-width="0.5"/>
   <g font-family="FreeSans" font-size="9" font-style="normal" font-weight="normal" transform="translate(412.912,55.5166) rotate(-0,-0,-4)" xml:space="preserve">
    <text fill="rgb(0,0,0)" x="0 5 8 11 13 16 18 23 " y="-0">err flat</text>
   </g>
   <polyline fill="none" points="388.901,64.7202 408.91,64.7202" stroke="#d85218" stroke-linecap="butt" stroke-linejoin="round" stroke-width="0.5"/>
   <g font-family="FreeSans" font-size="9" font-style="normal" font-weight="normal" transform="translate(412.912,69.7202) rotate(-0,-0,-5)" xml:space="preserve">
    <text fill="rgb(0,0,0)" x="0 5 8 11 13 20 25 27 32 37 40 45 " y="-2">err weighted</text>
   </g>
   <polyline fill="none" points="388.901,78.722 408.91,78.722" stroke="#ecb01f" stroke-linecap="butt" stroke-linejoin="round" stroke-width="0.5"/>
   <g font-family="FreeSans" font-size="9" font-style="normal" font-weight="normal" transform="translate(412.912,83.722) rotate(-0,-0,-5)" xml:space="preserve">
    <text fill="rgb(0,0,0)" x="0 5 8 11 13 20 25 27 32 37 40 " y="-2">err weights</text>
   </g>
  </g>
 </g>
</svg>
