<?xml version='1.0' encoding='UTF-8' standalone='no'?>
<svg height="470pt" viewBox="0 0 524 470" width="524pt" xmlns="http://www.w3.org/2000/svg" xmlns:xlink="http://www.w3.org/1999/xlink">
 <title>Figure 8</title>
 <desc>
Creator: GL2PS 1.4.2, (C) 1999-2020 C. Geuzaine
For: Octave
CreationDate: Thu Feb 12 11:00:16 2026
</desc>
 <defs/>
 <polygon fill="#ffffff" points="0,0 524,0 524,470 0,470"/>
 <g>
  <polygon fill="#ffffff" points="0,470 524,470 524,0 0,0" shape-rendering="crispEdges"/>
  <clipPath id="cp00524470">
   <polygon points="0,470 524,470 524,0 0,0"/>
  </clipPath>
  <g clip-path="url(#cp00524470)">
   <polygon fill="#ff0000" points="66.3487,419.636 66.3487,419.636 0,441.953 0,441.953 0,441.953" shape-rendering="crispEdges"/>
   <polyline fill="none" points="0,225.239 41.7153,343.724" stroke="#ff0000" stroke-linecap="butt" stroke-linejoin="miter" stroke-opacity="0" stroke-width="0.5"/>
   <polyline fill="none" points="67.9394,418.209 67.9364,418.201" stroke="#ff0000" stroke-linecap="butt" stroke-linejoin="miter" stroke-opacity="0" stroke-width="0.5"/>
   <polyline fill="none" points="0,225.239 41.7153,343.724" stroke="#ff0000" stroke-linecap="butt" stroke-linejoin="miter" stroke-opacity="0" stroke-width="0.5"/>
   <polyline fill="none" points="67.9394,418.209 67.9364,418.201" stroke="#ff0000" stroke-linecap="butt" stroke-linejoin="miter" stroke-opacity="0" stroke-width="0.5"/>
   <polyline fill="none" points="0,225.239 41.7153,343.724" stroke="#ff0000" stroke-linecap="butt" stroke-linejoin="miter" stroke-opacity="0" stroke-width="0.5"/>
   <polyline fill="none" points="67.9394,418.209 67.9364,418.201" stroke="#ff0000" stroke-linecap="butt" stroke-linejoin="miter" stroke-opacity="0" stroke-width="0.5"/>
   <polyline fill="none" points="0,225.239 41.7153,343.724" stroke="#ff0000" stroke-linecap="butt" stroke-linejoin="miter" stroke-opacity="0" stroke-width="0.5"/>
   <polyline fill="none" points="67.9394,418.209 67.9364,418.201" stroke="#ff0000" stroke-linecap="butt" stroke-linejoin="miter" stroke-opacity="0" stroke-width="0.5"/>
   <polyline fill="none" points="0,225.239 41.7153,343.724" stroke="#ff0000" stroke-linecap="butt" stroke-linejoin="miter" stroke-opacity="0" stroke-width="0.5"/>
   <polyline fill="none" points="67.9394,418.209 67.9364,418.201" stroke="#ff0000" stroke-linecap="butt" stroke-linejoin="miter" stroke-opacity="0" stroke-width="0.5"/>
   <polyline fill="none" points="0,225.239 41.7153,343.724" stroke="#ff0000" stroke-linecap="butt" stroke-linejoin="miter" stroke-opacity="0" stroke-width="0.5"/>
   <polyline fill="none" points="67.9394,418.209 67.9364,418.201" stroke="#ff0000" stroke-linecap="butt" stroke-linejoin="miter" stroke-opacity="0" stroke-width="0.5"/>
   <g font-family="FreeSans" font-size="10" font-style="normal" font-weight="normal" transform="translate(65.2201,434.501) rotate(-0,3,-8)" xml:space="preserve">
    <text fill="rgb(38,38,38)" x="0 " y="-0">0</text>
   </g>
   <g font-family="FreeSans" font-size="10" font-style="normal" font-weight="normal" transform="translate(142.06,434.501) rotate(-0,7.5,-8)" xml:space="preserve">
    <text fill="rgb(38,38,38)" x="0 6 9 " y="-0">0.2</text>
   </g>
   <g font-family="FreeSans" font-size="10" font-style="normal" font-weight="normal" transform="translate(223.399,434.501) rotate(-0,7.5,-8)" xml:space="preserve">
    <text fill="rgb(38,38,38)" x="0 6 9 " y="-0">0.4</text>
   </g>
   <g font-family="FreeSans" font-size="10" font-style="normal" font-weight="normal" transform="translate(304.738,434.501) rotate(-0,7.5,-8)" xml:space="preserve">
    <text fill="rgb(38,38,38)" x="0 6 9 " y="-0">0.6</text>
   </g>
   <g font-family="FreeSans" font-size="10" font-style="normal" font-weight="normal" transform="translate(386.078,434.501) rotate(-0,7.5,-8)" xml:space="preserve">
    <text fill="rgb(38,38,38)" x="0 6 9 " y="-0">0.8</text>
   </g>
   <g font-family="FreeSans" font-size="10" font-style="normal" font-weight="normal" transform="translate(471.917,434.501) rotate(-0,3,-8)" xml:space="preserve">
    <text fill="rgb(38,38,38)" x="0 " y="-0">1</text>
   </g>
   <polyline fill="none" points="66.2551,413.425 66.2551,413.425" stroke="#ff0000" stroke-linecap="butt" stroke-linejoin="miter" stroke-opacity="0" stroke-width="0.5"/>
   <polyline fill="none" points="66.2551,413.425 66.2551,413.425" stroke="#ff0000" stroke-linecap="butt" stroke-linejoin="miter" stroke-opacity="0" stroke-width="0.5"/>
   <polyline fill="none" points="67.2376,416.216 67.2376,416.216" stroke="#ff0000" stroke-linecap="butt" stroke-linejoin="miter" stroke-opacity="0" stroke-width="0.5"/>
   <polyline fill="none" points="67.2376,416.216 67.2376,416.216" stroke="#ff0000" stroke-linecap="butt" stroke-linejoin="miter" stroke-opacity="0" stroke-width="0.5"/>
   <polyline fill="none" points="67.5651,417.146 67.5651,417.146" stroke="#ff0000" stroke-linecap="butt" stroke-linejoin="miter" stroke-opacity="0" stroke-width="0.5"/>
   <polyline fill="none" points="67.5651,417.146 67.5651,417.146" stroke="#ff0000" stroke-linecap="butt" stroke-linejoin="miter" stroke-opacity="0" stroke-width="0.5"/>
   <polyline fill="none" points="67.7289,417.611 67.7289,417.611" stroke="#ff0000" stroke-linecap="butt" stroke-linejoin="miter" stroke-opacity="0" stroke-width="0.5"/>
   <polyline fill="none" points="67.7289,417.611 67.7289,417.611" stroke="#ff0000" stroke-linecap="butt" stroke-linejoin="miter" stroke-opacity="0" stroke-width="0.5"/>
   <polyline fill="none" points="67.8271,417.89 67.8271,417.89" stroke="#ff0000" stroke-linecap="butt" stroke-linejoin="miter" stroke-opacity="0" stroke-width="0.5"/>
   <polyline fill="none" points="67.8271,417.89 67.8271,417.89" stroke="#ff0000" stroke-linecap="butt" stroke-linejoin="miter" stroke-opacity="0" stroke-width="0.5"/>
   <polyline fill="none" points="67.8926,418.076 67.8926,418.076" stroke="#ff0000" stroke-linecap="butt" stroke-linejoin="miter" stroke-opacity="0" stroke-width="0.5"/>
   <polyline fill="none" points="67.8926,418.076 67.8926,418.076" stroke="#ff0000" stroke-linecap="butt" stroke-linejoin="miter" stroke-opacity="0" stroke-width="0.5"/>
   <polyline fill="none" points="67.9394,418.209 67.9394,418.209" stroke="#ff0000" stroke-linecap="butt" stroke-linejoin="miter" stroke-opacity="0" stroke-width="0.5"/>
   <polyline fill="none" points="67.9394,418.209 67.9394,418.209" stroke="#ff0000" stroke-linecap="butt" stroke-linejoin="miter" stroke-opacity="0" stroke-width="0.5"/>
   <g font-family="FreeSans" font-size="10" font-style="normal" font-weight="normal" transform="translate(57.2239,423.007) rotate(-0,6,-4)" xml:space="preserve">
    <text fill="rgb(38,38,38)" x="0 " y="-0">0</text>
   </g>
   <g font-family="FreeSans" font-size="10" font-style="normal" font-weight="normal" transform="translate(51.2239,368.193) rotate(-0,12,-4)" xml:space="preserve">
    <text fill="rgb(38,38,38)" x="0 6 " y="-0">20</text>
   </g>
   <g font-family="FreeSans" font-size="10" font-style="normal" font-weight="normal" transform="translate(51.2239,313.379) rotate(-0,12,-4)" xml:space="preserve">
    <text fill="rgb(38,38,38)" x="0 6 " y="-0">40</text>
   </g>
   <g font-family="FreeSans" font-size="10" font-style="normal" font-weight="normal" transform="translate(51.2239,258.565) rotate(-0,12,-4)" xml:space="preserve">
    <text fill="rgb(38,38,38)" x="0 6 " y="-0">60</text>
   </g>
   <g font-family="FreeSans" font-size="10" font-style="normal" font-weight="normal" transform="translate(51.2239,203.751) rotate(-0,12,-4)" xml:space="preserve">
    <text fill="rgb(38,38,38)" x="0 6 " y="-0">80</text>
   </g>
   <g font-family="FreeSans" font-size="10" font-style="normal" font-weight="normal" transform="translate(45.2239,148.937) rotate(-0,18,-4)" xml:space="preserve">
    <text fill="rgb(38,38,38)" x="0 6 12 " y="-0">100</text>
   </g>
   <g font-family="FreeSans" font-size="10" font-style="normal" font-weight="normal" transform="translate(45.2239,94.1234) rotate(-0,18,-4)" xml:space="preserve">
    <text fill="rgb(38,38,38)" x="0 6 12 " y="-0">120</text>
   </g>
   <g font-family="FreeSans" font-size="10" font-style="normal" font-weight="normal" transform="translate(45.2239,39.3095) rotate(-0,18,-4)" xml:space="preserve">
    <text fill="rgb(38,38,38)" x="0 6 12 " y="-0">140</text>
   </g>
   <g font-family="FreeSans" font-size="11" font-style="normal" font-weight="normal" transform="translate(177.069,451.501) rotate(-0,94.5,-12)" xml:space="preserve">
    <text fill="rgb(38,38,38)" x="0 8 14 18 27 33 35 37 42 48 54 57 64 68 74 80 86 92 98 104 109 112 116 122 129 132 136 142 148 151 156 162 171 177 179 185 " y="-3">Normalized Frequency (×π rad/sample)</text>
   </g>
   <g font-family="FreeSans" font-size="11" font-style="normal" font-weight="normal" transform="translate(-14.7761,227.158) rotate(-90,55,0)" xml:space="preserve">
    <text fill="rgb(38,38,38)" x="0 8 12 18 24 30 33 41 47 49 55 60 63 67 72 78 87 93 95 101 106 " y="-3">Group Delay (samples)</text>
   </g>
   <g font-family="FreeSans" font-size="11" font-style="normal" font-weight="bold" transform="translate(35.5686,25.3095) rotate(-0,236,0)" xml:space="preserve">
    <text fill="rgb(0,0,0)" x="0 8 12 19 26 33 36 44 50 53 59 65 68 75 79 82 89 92 100 103 110 113 116 120 126 130 133 136 143 147 154 160 164 170 176 182 188 191 194 204 210 216 223 226 232 236 240 243 247 250 256 260 266 272 275 281 287 293 299 305 311 317 320 323 333 339 345 352 355 361 365 369 372 381 387 390 397 404 408 414 421 427 433 436 442 448 454 460 466 " y="-3">Group Delay of FIR Filter, order=241, mean err flat=0.0347462, mean err weighted=0.033691</text>
   </g>
   <polyline fill="none" points="183.206,222.667 183.202,222.673 183.192,222.691 183.175,222.72 183.151,222.761 183.12,222.814 183.082,222.879 183.037,222.955 182.986,223.043 182.927,223.143 182.861,223.255 182.789,223.379 182.709,223.515 182.623,223.662 182.53,223.822 182.429,223.993 182.322,224.176 182.207,224.372 182.086,224.579 181.957,224.799 181.821,225.031 181.679,225.275 181.528,225.531 181.371,225.8 181.207,226.081 181.035,226.374 180.856,226.68 180.67,226.998 180.476,227.329 180.275,227.672 180.066,228.028 179.85,228.397 179.627,228.779 179.395,229.173 179.157,229.581 178.91,230.002 178.656,230.435 178.395,230.882 178.125,231.342 177.848,231.816 177.563,232.303 177.27,232.803 176.968,233.318 176.659,233.845 176.342,234.387 176.017,234.943 175.683,235.512 175.341,236.096 174.991,236.693 174.633,237.305 174.266,237.932 173.891,238.573 173.507,239.228 173.114,239.898 172.713,240.583 172.303,241.283 171.885,241.998 171.457,242.728 171.021,243.473 170.575,244.234 170.121,245.01 169.657,245.801 169.185,246.608 168.703,247.431 168.211,248.27 167.711,249.125 167.2,249.996 166.681,250.884 166.152,251.787 165.613,252.707 165.064,253.644 164.506,254.598 163.938,255.568 163.36,256.555 162.771,257.559 162.173,258.58 161.565,259.619 160.947,260.674 160.318,261.748 159.68,262.838 159.031,263.947 158.371,265.073 157.701,266.216 157.021,267.378 156.33,268.558 155.629,269.755 154.917,270.971 154.194,272.205 153.461,273.457 152.717,274.728 151.962,276.017 151.196,277.324 150.42,278.649 149.633,279.993 148.835,281.356 148.026,282.737 147.207,284.136 146.376,285.554 145.535,286.99 144.683,288.445 143.821,289.918 142.947,291.409 142.063,292.919 141.168,294.447 140.263,295.993 139.347,297.557 138.42,299.139 137.483,300.739 136.536,302.356 135.579,303.991 134.611,305.643 133.633,307.313 132.646,308.999 131.648,310.702 130.641,312.422 129.625,314.158 128.599,315.909 127.564,317.677 126.52,319.46 125.467,321.257 124.405,323.07 123.335,324.896 122.257,326.737 121.172,328.591 120.078,330.458 118.977,332.338 117.869,334.23 116.755,336.133 115.633,338.048 114.506,339.973 113.373,341.908 112.234,343.852 111.09,345.806 109.941,347.767 108.788,349.736 107.631,351.712 106.47,353.694 105.307,355.681 104.14,357.673 102.971,359.669 101.8,361.668 100.628,363.67 99.4552,365.672 98.2821,367.675 97.1094,369.678 95.9377,371.678 94.7678,373.676 93.6005,375.669 92.4367,377.656 91.2776,379.636 90.1245,381.605 88.9789,383.561 87.8427,385.501 86.7182,387.421 85.6081,389.316 84.516,391.181 83.446,393.008 82.4032,394.789 81.3938,396.512 80.4252,398.166 79.506,399.736 78.6463,401.204 77.857,402.551 77.1502,403.758 76.538,404.804 76.0317,405.668 75.6408,406.336 75.3717,406.795 75.2264,407.043 75.2014,407.086 75.2873,406.939 75.4698,406.628 75.7302,406.183 76.0477,405.641 76.4011,405.037 76.7709,404.406 77.1406,403.775 77.4971,403.166 77.8316,402.595 78.1383,402.071 78.4145,401.6 78.6597,401.181 78.8748,400.814 79.0615,400.495 79.222,400.221 79.3583,399.988 79.4725,399.793 79.5666,399.632 79.6419,399.504 79.6997,399.405 79.741,399.335 79.7664,399.291 79.7766,399.274 79.7719,399.282 79.7527,399.315 79.7189,399.372 79.6706,399.455 79.6075,399.562 79.5291,399.696 79.4347,399.858 79.3234,400.048 79.1938,400.269 79.0447,400.523 78.8748,400.814 78.6829,401.141 78.4684,401.508 78.2317,401.912 77.9744,402.351 77.7,402.819 77.4145,403.307 77.1258,403.8 76.845,404.28 76.5849,404.724 76.3602,405.107 76.1862,405.404 76.0776,405.59 76.0476,405.641 76.1067,405.54 76.262,405.275 76.5171,404.839 76.8721,404.233 77.3242,403.461 77.8681,402.533 78.4971,401.459 79.2033,400.253 79.9787,398.929 80.8152,397.5 81.7051,395.981 82.6415,394.382 83.6178,392.715 84.6286,390.989 85.6689,389.213 86.7345,387.393 87.8216,385.537 88.927,383.649 90.0481,381.735 91.1826,379.798 92.3283,377.841 93.4836,375.869 94.6469,373.883 95.8169,371.885 96.9924,369.878 98.1723,367.863 99.3557,365.842 100.542,363.817 101.73,361.789 102.919,359.759 104.108,357.728 105.297,355.697 106.486,353.667 107.673,351.64 108.859,349.616 110.042,347.596 111.222,345.58 112.4,343.57 113.573,341.566 114.743,339.568 115.908,337.578 117.069,335.596 118.225,333.623 119.375,331.659 120.52,329.705 121.658,327.76 122.791,325.827 123.917,323.904 125.036,321.993 126.148,320.094 127.253,318.207 128.351,316.333 129.441,314.471 130.523,312.623 131.598,310.789 132.664,308.968 133.722,307.161 134.772,305.369 135.813,303.591 136.846,301.828 137.869,300.079 138.885,298.346 139.891,296.628 140.888,294.925 141.876,293.238 142.855,291.566 143.825,289.91 144.786,288.27 145.737,286.645 146.679,285.036 147.612,283.443 148.536,281.866 149.45,280.305 150.355,278.76 151.251,277.23 152.137,275.717 153.014,274.219 153.882,272.738 154.741,271.272 155.59,269.822 156.43,268.387 157.261,266.969 158.082,265.566 158.895,264.178 159.698,262.806 160.493,261.45 161.278,260.109 162.055,258.783 162.822,257.472 163.581,256.176 164.331,254.895 165.073,253.629 165.806,252.378 166.53,251.142 167.245,249.92 167.953,248.712 168.651,247.519 169.342,246.34 170.024,245.175 170.698,244.024 171.364,242.887 172.022,241.763 172.672,240.653 173.315,239.557 173.949,238.473 174.576,237.403 175.195,236.346 175.806,235.302 176.41,234.271 177.006,233.253 177.596,232.247 178.177,231.253 178.752,230.272 179.32,229.303 179.88,228.346 180.434,227.401 180.98,226.467 181.52,225.545 182.053,224.635 182.58,223.736 183.1,222.848 183.613,221.972 184.12,221.106 184.62,220.252 185.115,219.408 185.603,218.575 186.084,217.752 186.56,216.94 187.03,216.137 187.494,215.345 187.952,214.564 188.404,213.792 188.85,213.029 189.291,212.277 189.726,211.534 190.156,210.8 190.58,210.076 190.998,209.361 191.412,208.655 191.82,207.958 192.223,207.27 192.621,206.591 193.013,205.921 193.401,205.259 193.784,204.605 194.161,203.96 194.534,203.324 194.902,202.695 195.266,202.075 195.624,201.462 195.979,200.857 196.328,200.261 196.673,199.672 197.014,199.09 197.35,198.516 197.682,197.95 198.009,197.39 198.332,196.839 198.651,196.294 198.966,195.756 199.277,195.225 199.584,194.702 199.886,194.185 200.185,193.675 200.48,193.171 200.771,192.674 201.058,192.184 201.342,191.7 201.621,191.223 201.897,190.751 202.17,190.286 202.438,189.827 202.703,189.375 202.965,188.928 203.223,188.487 203.478,188.052 203.729,187.623 203.977,187.2 204.222,186.782 204.463,186.37 204.701,185.964 204.936,185.563 205.168,185.167 205.396,184.777 205.621,184.392 205.844,184.013 206.063,183.638 206.279,183.269 206.492,182.905 206.703,182.546 206.91,182.192 207.115,181.842 207.316,181.498 207.515,181.159 207.711,180.824 207.904,180.494 208.095,180.169 208.283,179.848 208.468,179.532 208.65,179.221 208.83,178.914 209.007,178.611 209.182,178.313 209.354,178.019 209.523,177.73 209.69,177.444 209.855,177.163 210.017,176.887 210.177,176.614 210.334,176.346 210.489,176.081 210.641,175.821 210.791,175.565 210.939,175.312 211.085,175.064 211.228,174.819 211.369,174.579 211.507,174.342 211.644,174.109 211.778,173.879 211.91,173.654 212.04,173.432 212.168,173.214 212.294,172.999 212.417,172.788 212.539,172.581 212.658,172.377 212.775,172.177 212.89,171.98 213.004,171.787 213.115,171.597 213.224,171.411 213.331,171.228 213.436,171.048 213.54,170.872 213.641,170.699 213.74,170.529 213.838,170.363 213.933,170.199 214.027,170.04 214.119,169.883 214.209,169.729 214.297,169.579 214.383,169.432 214.467,169.287 214.55,169.146 214.631,169.009 214.71,168.874 214.787,168.742 214.862,168.613 214.936,168.487 215.008,168.365 215.078,168.245 215.146,168.128 215.213,168.014 215.278,167.903 215.341,167.795 215.403,167.69 215.463,167.588 215.521,167.489 215.577,167.392 215.632,167.299 215.685,167.208 215.737,167.12 215.786,167.035 215.835,166.953 215.881,166.873 215.926,166.797 215.969,166.723 216.011,166.652 216.051,166.583 216.09,166.518 216.126,166.455 216.162,166.395 216.195,166.337 216.227,166.283 216.258,166.231 216.286,166.181 216.314,166.135 216.339,166.091 216.364,166.05 216.386,166.011 216.407,165.975 216.427,165.942 216.444,165.912 216.461,165.884 216.475,165.859 216.489,165.836 216.5,165.816 216.51,165.799 216.519,165.785 216.526,165.773 216.531,165.763 216.535,165.757 216.537,165.753" stroke="#ff0000" stroke-linecap="butt" stroke-linejoin="round" stroke-opacity="0" stroke-width="0.5"/>
   <polyline fill="none" points="69.8443,416.233 69.8443,416.233 69.8443,416.233 69.8443,416.233 69.8442,416.233 69.8443,416.233 69.8443,416.233 69.8443,416.233 69.8443,416.233 69.8443,416.233 69.8443,416.233 69.8443,416.233 69.8443,416.233 69.8444,416.233 69.8444,416.233 69.8444,416.233 69.8444,416.233 69.8445,416.233 69.8445,416.233 69.8445,416.233 69.8445,416.233 69.8446,416.233 69.8446,416.233 69.8446,416.233 69.8447,416.233 69.8447,416.233 69.8447,416.233 69.8448,416.232 69.8448,416.232 69.8448,416.232 69.8449,416.232 69.8449,416.232 69.845,416.232 69.845,416.232 69.8451,416.232 69.8451,416.232 69.8452,416.232 69.8453,416.232 69.8453,416.232 69.8454,416.231 69.8454,416.231 69.8455,416.231 69.8456,416.231 69.8456,416.231 69.8457,416.231 69.8458,416.231 69.8459,416.231 69.8459,416.231 69.846,416.23 69.8461,416.23 69.8462,416.23 69.8463,416.23 69.8464,416.23 69.8465,416.23 69.8465,416.229 69.8466,416.229 69.8467,416.229 69.8468,416.229 69.847,416.229 69.8471,416.229 69.8472,416.228 69.8473,416.228 69.8474,416.228 69.8475,416.228 69.8477,416.228 69.8478,416.227 69.848,416.227 69.8481,416.227 69.8483,416.227 69.8484,416.226 69.8485,416.226 69.8487,416.226 69.8488,416.226 69.849,416.225 69.8492,416.225 69.8494,416.225 69.8495,416.224 69.8497,416.224 69.8499,416.224 69.8501,416.223 69.8503,416.223 69.8505,416.223 69.8507,416.222 69.8509,416.222 69.8512,416.222 69.8514,416.221 69.8517,416.221 69.8519,416.22 69.8521,416.22 69.8524,416.219 69.8527,416.219 69.853,416.218 69.8533,416.218 69.8536,416.217 69.854,416.217 69.8543,416.216 69.8546,416.216 69.855,416.215 69.8554,416.214 69.8558,416.214 69.8562,416.213 69.8566,416.212 69.8571,416.211 69.8575,416.211 69.858,416.21 69.8585,416.209 69.8589,416.208 69.8595,416.207 69.86,416.206 69.8606,416.205 69.8612,416.204 69.8618,416.203 69.8625,416.202 69.8631,416.201 69.8638,416.2 69.8645,416.199 69.8653,416.197 69.8661,416.196 69.8669,416.195 69.8678,416.193 69.8687,416.192 69.8697,416.19 69.8706,416.188 69.8716,416.187 69.8727,416.185 69.8739,416.183 69.8752,416.181 69.8765,416.178 69.8778,416.176 69.8793,416.174 69.8808,416.171 69.8823,416.168 69.884,416.165 69.8859,416.162 69.8878,416.159 69.8899,416.155 69.8921,416.152 69.8945,416.148 69.897,416.143 69.8996,416.139 69.9025,416.134 69.9057,416.128 69.9091,416.123 69.9129,416.116 69.9169,416.109 69.9213,416.102 69.9261,416.094 69.9314,416.085 69.9372,416.075 69.9437,416.064 69.9509,416.051 69.9589,416.038 69.9679,416.022 69.9779,416.005 69.9893,415.986 70.002,415.964 70.0164,415.939 70.0326,415.912 70.0508,415.881 70.071,415.846 70.0931,415.808 70.1169,415.768 70.1422,415.725 70.1682,415.68 70.1941,415.636 70.2184,415.594 70.2397,415.558 70.2561,415.53 70.2665,415.512 70.27,415.506 70.2668,415.512 70.258,415.527 70.2449,415.549 70.2291,415.576 70.2121,415.605 70.1947,415.635 70.1781,415.663 70.1627,415.69 70.1488,415.713 70.1367,415.734 70.1263,415.752 70.1174,415.767 70.1099,415.78 70.1036,415.791 70.0982,415.8 70.0937,415.807 70.0901,415.814 70.0872,415.818 70.085,415.822 70.0834,415.825 70.0823,415.827 70.0816,415.828 70.0812,415.829 70.0812,415.829 70.0817,415.828 70.0826,415.826 70.084,415.824 70.0858,415.821 70.0881,415.817 70.0909,415.812 70.0943,415.806 70.0983,415.8 70.1031,415.791 70.1087,415.782 70.1152,415.771 70.1227,415.758 70.1312,415.743 70.1406,415.727 70.1508,415.71 70.1619,415.691 70.1734,415.671 70.185,415.652 70.1958,415.633 70.205,415.617 70.2119,415.606 70.2155,415.599 70.2152,415.6 70.2108,415.608 70.2022,415.622 70.1898,415.643 70.1742,415.67 70.1562,415.701 70.1368,415.734 70.1167,415.768 70.0968,415.802 70.0776,415.835 70.0594,415.866 70.0424,415.895 70.0268,415.922 70.0125,415.946 69.9995,415.968 69.9877,415.988 69.9771,416.007 69.9675,416.023 69.9589,416.038 69.9511,416.051 69.9441,416.063 69.9377,416.074 69.9319,416.084 69.9266,416.093 69.9217,416.101 69.9173,416.109 69.9132,416.116 69.9094,416.122 69.906,416.128 69.9027,416.134 69.8998,416.139 69.897,416.143 69.8944,416.148 69.892,416.152 69.8898,416.156 69.8877,416.159 69.8857,416.163 69.8839,416.166 69.8821,416.169 69.8805,416.172 69.8789,416.174 69.8775,416.177 69.8761,416.179 69.8748,416.181 69.8736,416.183 69.8724,416.185 69.8712,416.187 69.8701,416.189 69.8691,416.191 69.8682,416.193 69.8672,416.194 69.8664,416.196 69.8655,416.197 69.8647,416.198 69.8639,416.2 69.8632,416.201 69.8624,416.202 69.8618,416.203 69.8611,416.205 69.8605,416.206 69.8599,416.207 69.8593,416.208 69.8587,416.209 69.8582,416.21 69.8577,416.21 69.8572,416.211 69.8567,416.212 69.8562,416.213 69.8558,416.214 69.8553,416.214 69.8549,416.215 69.8545,416.216 69.8541,416.217 69.8537,416.217 69.8533,416.218 69.853,416.218 69.8527,416.219 69.8523,416.22 69.852,416.22 69.8517,416.221 69.8514,416.221 69.8511,416.222 69.8508,416.222 69.8506,416.223 69.8503,416.223 69.8501,416.223 69.8499,416.224 69.8496,416.224 69.8494,416.225 69.8491,416.225 69.8489,416.225 69.8487,416.226 69.8485,416.226 69.8483,416.226 69.8481,416.227 69.8479,416.227 69.8477,416.227 69.8475,416.228 69.8473,416.228 69.8472,416.228 69.847,416.229 69.8469,416.229 69.8467,416.229 69.8466,416.229 69.8464,416.23 69.8462,416.23 69.8461,416.23 69.8459,416.23 69.8458,416.231 69.8457,416.231 69.8456,416.231 69.8454,416.231 69.8453,416.232 69.8452,416.232 69.845,416.232 69.8449,416.232 69.8448,416.232 69.8447,416.233 69.8446,416.233 69.8445,416.233 69.8444,416.233 69.8443,416.233 69.8442,416.234 69.8441,416.234 69.844,416.234 69.8439,416.234 69.8438,416.234 69.8437,416.234 69.8436,416.234 69.8435,416.235 69.8434,416.235 69.8433,416.235 69.8433,416.235 69.8432,416.235 69.8431,416.235 69.843,416.235 69.8429,416.236 69.8429,416.236 69.8428,416.236 69.8427,416.236 69.8426,416.236 69.8426,416.236 69.8425,416.236 69.8424,416.236 69.8424,416.237 69.8423,416.237 69.8423,416.237 69.8422,416.237 69.8421,416.237 69.8421,416.237 69.842,416.237 69.842,416.237 69.8419,416.237 69.8419,416.237 69.8418,416.238 69.8418,416.238 69.8417,416.238 69.8416,416.238 69.8416,416.238 69.8415,416.238 69.8415,416.238 69.8414,416.238 69.8414,416.238 69.8413,416.238 69.8413,416.238 69.8413,416.238 69.8412,416.239 69.8412,416.239 69.8411,416.239 69.8411,416.239 69.8411,416.239 69.841,416.239 69.841,416.239 69.8409,416.239 69.8409,416.239 69.8409,416.239 69.8408,416.239 69.8408,416.239 69.8408,416.239 69.8407,416.239 69.8407,416.239 69.8406,416.24 69.8406,416.24 69.8406,416.24 69.8405,416.24 69.8405,416.24 69.8405,416.24 69.8405,416.24 69.8404,416.24 69.8404,416.24 69.8403,416.24 69.8403,416.24 69.8403,416.24 69.8403,416.24 69.8403,416.24 69.8402,416.24 69.8402,416.24 69.8402,416.24 69.8402,416.24 69.8401,416.24 69.8401,416.24 69.8401,416.241 69.8401,416.241 69.84,416.241 69.84,416.241 69.84,416.241 69.84,416.241 69.8399,416.241 69.8399,416.241 69.8399,416.241 69.8399,416.241 69.8399,416.241 69.8399,416.241 69.8399,416.241 69.8398,416.241 69.8398,416.241 69.8398,416.241 69.8398,416.241 69.8397,416.241 69.8397,416.241 69.8397,416.241 69.8397,416.241 69.8397,416.241 69.8397,416.241 69.8396,416.241 69.8396,416.241 69.8396,416.241 69.8396,416.241 69.8396,416.241 69.8396,416.241 69.8396,416.241 69.8395,416.241 69.8395,416.241 69.8395,416.241 69.8395,416.242 69.8395,416.242 69.8395,416.242 69.8394,416.242 69.8394,416.242 69.8394,416.242 69.8394,416.242 69.8394,416.242 69.8394,416.242 69.8394,416.242 69.8394,416.242 69.8393,416.242 69.8393,416.242 69.8393,416.242 69.8393,416.242 69.8393,416.242 69.8393,416.242 69.8393,416.242 69.8393,416.242 69.8393,416.242 69.8393,416.242 69.8393,416.242 69.8393,416.242 69.8393,416.242 69.8393,416.242 69.8392,416.242 69.8392,416.242 69.8392,416.242 69.8392,416.242 69.8392,416.242 69.8392,416.242 69.8392,416.242 69.8392,416.242 69.8392,416.242 69.8392,416.242 69.8392,416.242 69.8392,416.242 69.8392,416.242 69.8392,416.242 69.8392,416.242 69.8392,416.242 69.8392,416.242 69.8391,416.242 69.8391,416.242 69.8391,416.242 69.8391,416.242 69.8391,416.242 69.8391,416.242 69.8391,416.242 69.8391,416.242 69.8391,416.242 69.8391,416.242 69.8391,416.242 69.8391,416.242 69.8391,416.242 69.8391,416.242 69.8391,416.242 69.8391,416.242 69.8391,416.242 69.8391,416.242 69.8391,416.242 69.8391,416.242" stroke="#ff0000" stroke-linecap="butt" stroke-linejoin="round" stroke-opacity="0" stroke-width="0.5"/>
   <polyline fill="none" points="69.835,416.249 69.835,416.249 69.835,416.249 69.835,416.249 69.835,416.249 69.835,416.249 69.835,416.249 69.835,416.249 69.835,416.249 69.835,416.249 69.835,416.249 69.835,416.249 69.835,416.249 69.835,416.249 69.835,416.249 69.835,416.249 69.835,416.249 69.835,416.249 69.835,416.249 69.835,416.249 69.835,416.249 69.835,416.249 69.835,416.249 69.835,416.249 69.835,416.249 69.835,416.249 69.835,416.249 69.835,416.249 69.835,416.249 69.835,416.249 69.835,416.249 69.835,416.249 69.835,416.249 69.835,416.249 69.835,416.249 69.835,416.249 69.835,416.249 69.835,416.249 69.835,416.249 69.835,416.249 69.835,416.249 69.835,416.249 69.835,416.249 69.835,416.249 69.835,416.249 69.835,416.249 69.835,416.249 69.835,416.249 69.835,416.249 69.835,416.249 69.835,416.249 69.835,416.249 69.835,416.249 69.835,416.249 69.8349,416.249 69.835,416.249 69.835,416.249 69.835,416.249 69.835,416.249 69.835,416.249 69.835,416.249 69.835,416.249 69.835,416.249 69.835,416.249 69.835,416.249 69.8349,416.249 69.835,416.249 69.835,416.249 69.835,416.249 69.835,416.249 69.8349,416.249 69.8349,416.249 69.8349,416.249 69.8349,416.249 69.8349,416.249 69.8349,416.249 69.835,416.249 69.8349,416.249 69.8349,416.249 69.8349,416.249 69.8349,416.249 69.8349,416.249 69.8349,416.249 69.8349,416.249 69.8349,416.249 69.8349,416.249 69.8349,416.249 69.8348,416.249 69.8348,416.249 69.8348,416.25 69.8348,416.25 69.8348,416.249 69.8348,416.249 69.8348,416.249 69.8349,416.249 69.8349,416.249 69.8348,416.249 69.8348,416.249 69.8348,416.249 69.8349,416.249 69.8349,416.249 69.8349,416.249 69.8349,416.249 69.8349,416.249 69.8349,416.249 69.8349,416.249 69.8349,416.249 69.8349,416.249 69.8349,416.249 69.835,416.249 69.835,416.249 69.835,416.249 69.835,416.249 69.835,416.249 69.835,416.249 69.835,416.249 69.835,416.249 69.835,416.249 69.835,416.249 69.8351,416.249 69.8351,416.249 69.8351,416.249 69.8351,416.249 69.835,416.249 69.8351,416.249 69.8351,416.249 69.8351,416.249 69.8352,416.249 69.8352,416.249 69.8352,416.249 69.8352,416.249 69.8352,416.249 69.8352,416.249 69.8353,416.249 69.8353,416.249 69.8354,416.249 69.8354,416.248 69.8355,416.248 69.8355,416.248 69.8356,416.248 69.8356,416.248 69.8357,416.248 69.8359,416.248 69.836,416.247 69.8362,416.247 69.8363,416.247 69.8365,416.247 69.8367,416.246 69.8369,416.246 69.8372,416.245 69.8375,416.245 69.8379,416.244 69.8383,416.243 69.8388,416.243 69.8393,416.242 69.8398,416.241 69.8403,416.24 69.8407,416.239 69.8409,416.239 69.8407,416.239 69.8399,416.241 69.8384,416.243 69.836,416.248 69.8327,416.253 69.8287,416.26 69.8245,416.267 69.8207,416.273 69.818,416.278 69.817,416.28 69.8178,416.279 69.8203,416.274 69.824,416.268 69.8282,416.261 69.8321,416.254 69.8354,416.249 69.8377,416.245 69.8391,416.242 69.8398,416.241 69.8399,416.241 69.8398,416.241 69.8394,416.242 69.8391,416.242 69.8386,416.243 69.8382,416.244 69.8377,416.245 69.8373,416.245 69.837,416.246 69.8368,416.246 69.8367,416.246 69.8366,416.246 69.8366,416.246 69.8365,416.247 69.8364,416.247 69.8363,416.247 69.8363,416.247 69.8363,416.247 69.8364,416.247 69.8366,416.246 69.8367,416.246 69.8368,416.246 69.837,416.246 69.8372,416.245 69.8374,416.245 69.8377,416.245 69.838,416.244 69.8382,416.244 69.8383,416.244 69.8381,416.244 69.8376,416.245 69.8367,416.246 69.8354,416.248 69.8337,416.251 69.8316,416.255 69.8292,416.259 69.8267,416.263 69.8246,416.267 69.8231,416.269 69.8227,416.27 69.8234,416.269 69.8251,416.266 69.8274,416.262 69.83,416.258 69.8324,416.254 69.8346,416.25 69.8363,416.247 69.8376,416.245 69.8384,416.243 69.8389,416.242 69.8391,416.242 69.839,416.242 69.8388,416.243 69.8385,416.243 69.8382,416.244 69.8379,416.244 69.8376,416.245 69.8373,416.245 69.8371,416.246 69.8369,416.246 69.8366,416.246 69.8364,416.247 69.8363,416.247 69.8361,416.247 69.836,416.248 69.8358,416.248 69.8357,416.248 69.8356,416.248 69.8356,416.248 69.8355,416.248 69.8354,416.248 69.8354,416.248 69.8354,416.249 69.8353,416.249 69.8353,416.249 69.8353,416.249 69.8352,416.249 69.8352,416.249 69.8352,416.249 69.8352,416.249 69.8352,416.249 69.8352,416.249 69.8351,416.249 69.8351,416.249 69.8351,416.249 69.8351,416.249 69.835,416.249 69.835,416.249 69.8351,416.249 69.8351,416.249 69.8351,416.249 69.835,416.249 69.835,416.249 69.835,416.249 69.835,416.249 69.8349,416.249 69.835,416.249 69.835,416.249 69.835,416.249 69.835,416.249 69.8349,416.249 69.8349,416.249 69.8349,416.249 69.8349,416.249 69.8349,416.249 69.8349,416.249 69.8349,416.249 69.8349,416.249 69.8349,416.249 69.8349,416.249 69.8348,416.249 69.8348,416.249 69.8348,416.249 69.8349,416.249 69.8349,416.249 69.8349,416.249 69.8349,416.249 69.8348,416.249 69.8348,416.249 69.8348,416.249 69.8349,416.249 69.8349,416.249 69.8349,416.249 69.8349,416.249 69.8349,416.249 69.8349,416.249 69.8349,416.249 69.8349,416.249 69.8349,416.249 69.8349,416.249 69.8349,416.249 69.8349,416.249 69.835,416.249 69.8349,416.249 69.8349,416.249 69.8349,416.249 69.8349,416.249 69.8349,416.249 69.8349,416.249 69.835,416.249 69.835,416.249 69.835,416.249 69.835,416.249 69.8349,416.249 69.8349,416.249 69.8349,416.249 69.835,416.249 69.835,416.249 69.835,416.249 69.835,416.249 69.835,416.249 69.835,416.249 69.835,416.249 69.835,416.249 69.8349,416.249 69.835,416.249 69.835,416.249 69.835,416.249 69.835,416.249 69.835,416.249 69.835,416.249 69.835,416.249 69.8349,416.249 69.8349,416.249 69.835,416.249 69.835,416.249 69.835,416.249 69.835,416.249 69.835,416.249 69.835,416.249 69.835,416.249 69.835,416.249 69.835,416.249 69.835,416.249 69.835,416.249 69.835,416.249 69.835,416.249 69.835,416.249 69.835,416.249 69.835,416.249 69.835,416.249 69.835,416.249 69.835,416.249 69.835,416.249 69.835,416.249 69.835,416.249 69.835,416.249 69.835,416.249 69.8349,416.249 69.835,416.249 69.835,416.249 69.835,416.249 69.835,416.249 69.835,416.249 69.835,416.249 69.835,416.249 69.835,416.249 69.835,416.249 69.835,416.249 69.835,416.249 69.835,416.249 69.835,416.249 69.835,416.249 69.835,416.249 69.835,416.249 69.835,416.249 69.835,416.249 69.835,416.249 69.835,416.249 69.835,416.249 69.835,416.249 69.835,416.249 69.835,416.249 69.8349,416.249 69.835,416.249 69.835,416.249 69.835,416.249 69.835,416.249 69.835,416.249 69.835,416.249 69.835,416.249 69.835,416.249 69.835,416.249 69.835,416.249 69.835,416.249 69.835,416.249 69.835,416.249 69.835,416.249 69.835,416.249 69.835,416.249 69.835,416.249 69.835,416.249 69.835,416.249 69.835,416.249 69.835,416.249 69.835,416.249 69.835,416.249 69.835,416.249 69.835,416.249 69.835,416.249 69.835,416.249 69.835,416.249 69.835,416.249 69.835,416.249 69.835,416.249 69.835,416.249 69.835,416.249 69.835,416.249 69.835,416.249 69.835,416.249 69.835,416.249 69.835,416.249 69.835,416.249 69.835,416.249 69.835,416.249 69.835,416.249 69.835,416.249 69.835,416.249 69.835,416.249 69.835,416.249 69.835,416.249 69.835,416.249 69.835,416.249 69.835,416.249 69.835,416.249 69.835,416.249 69.835,416.249 69.835,416.249 69.835,416.249 69.835,416.249 69.835,416.249 69.835,416.249 69.835,416.249 69.835,416.249 69.835,416.249 69.835,416.249 69.835,416.249 69.835,416.249 69.835,416.249 69.835,416.249 69.835,416.249 69.835,416.249 69.835,416.249 69.835,416.249 69.835,416.249 69.835,416.249 69.835,416.249 69.835,416.249 69.835,416.249 69.835,416.249 69.835,416.249 69.835,416.249 69.835,416.249 69.835,416.249 69.835,416.249 69.835,416.249 69.835,416.249 69.835,416.249 69.835,416.249 69.835,416.249 69.835,416.249 69.835,416.249 69.835,416.249 69.835,416.249 69.835,416.249 69.835,416.249 69.835,416.249 69.835,416.249 69.835,416.249 69.835,416.249 69.835,416.249 69.835,416.249 69.835,416.249 69.835,416.249 69.835,416.249 69.835,416.249 69.835,416.249 69.835,416.249 69.835,416.249 69.835,416.249 69.835,416.249 69.835,416.249 69.835,416.249 69.835,416.249 69.835,416.249 69.835,416.249 69.835,416.249 69.835,416.249 69.835,416.249 69.835,416.249 69.835,416.249 69.835,416.249 69.835,416.249 69.835,416.249" stroke="#ff0000" stroke-linecap="butt" stroke-linejoin="round" stroke-opacity="0" stroke-width="0.5"/>
   <polyline fill="none" points="69.835,416.249 69.835,416.249 69.835,416.249 69.835,416.249 69.835,416.249 69.835,416.249 69.835,416.249 69.835,416.249 69.835,416.249 69.835,416.249 69.835,416.249 69.835,416.249 69.835,416.249 69.835,416.249 69.835,416.249 69.835,416.249 69.835,416.249 69.835,416.249 69.835,416.249 69.835,416.249 69.835,416.249 69.835,416.249 69.835,416.249 69.835,416.249 69.835,416.249 69.835,416.249 69.835,416.249 69.835,416.249 69.835,416.249 69.835,416.249 69.835,416.249 69.835,416.249 69.835,416.249 69.835,416.249 69.835,416.249 69.835,416.249 69.835,416.249 69.835,416.249 69.835,416.249 69.835,416.249 69.835,416.249 69.835,416.249 69.835,416.249 69.835,416.249 69.835,416.249 69.835,416.249 69.835,416.249 69.835,416.249 69.835,416.249 69.835,416.249 69.835,416.249 69.835,416.249 69.835,416.249 69.835,416.249 69.835,416.249 69.835,416.249 69.835,416.249 69.835,416.249 69.835,416.249 69.835,416.249 69.835,416.249 69.835,416.249 69.835,416.249 69.835,416.249 69.835,416.249 69.835,416.249 69.835,416.249 69.835,416.249 69.835,416.249 69.835,416.249 69.835,416.249 69.835,416.249 69.835,416.249 69.835,416.249 69.835,416.249 69.835,416.249 69.835,416.249 69.835,416.249 69.835,416.249 69.835,416.249 69.835,416.249 69.835,416.249 69.835,416.249 69.835,416.249 69.835,416.249 69.835,416.249 69.835,416.249 69.835,416.249 69.835,416.249 69.835,416.249 69.835,416.249 69.835,416.249 69.835,416.249 69.835,416.249 69.835,416.249 69.835,416.249 69.835,416.249 69.835,416.249 69.835,416.249 69.835,416.249 69.835,416.249 69.835,416.249 69.835,416.249 69.835,416.249 69.835,416.249 69.835,416.249 69.835,416.249 69.835,416.249 69.835,416.249 69.835,416.249 69.835,416.249 69.835,416.249 69.835,416.249 69.835,416.249 69.835,416.249 69.835,416.249 69.835,416.249 69.835,416.249 69.835,416.249 69.835,416.249 69.835,416.249 69.835,416.249 69.835,416.249 69.835,416.249 69.835,416.249 69.835,416.249 69.835,416.249 69.835,416.249 69.835,416.249 69.835,416.249 69.835,416.249 69.835,416.249 69.835,416.249 69.835,416.249 69.835,416.249 69.835,416.249 69.835,416.249 69.835,416.249 69.835,416.249 69.835,416.249 69.835,416.249 69.835,416.249 69.835,416.249 69.835,416.249 69.835,416.249 69.835,416.249 69.835,416.249 69.835,416.249 69.835,416.249 69.835,416.249 69.835,416.249 69.835,416.249 69.835,416.249 69.835,416.249 69.835,416.249 69.835,416.249 69.835,416.249 69.835,416.249 69.835,416.249 69.835,416.249 69.835,416.249 69.835,416.249 69.835,416.249 69.835,416.249 69.835,416.249 69.835,416.249 69.835,416.249 69.835,416.249 69.835,416.249 69.835,416.249 69.835,416.249 69.835,416.249 69.835,416.249 69.835,416.249 69.835,416.249 69.835,416.249 69.835,416.249 69.835,416.249 69.835,416.249 69.835,416.249 69.835,416.249 69.835,416.249 69.835,416.249 69.835,416.249 69.835,416.249 69.835,416.249 69.835,416.249 69.835,416.249 69.835,416.249 69.835,416.249 69.835,416.249 69.835,416.249 69.835,416.249 69.835,416.249 69.835,416.249 69.835,416.249 69.835,416.249 69.835,416.249 69.835,416.249 69.835,416.249 69.835,416.249 69.835,416.249 69.835,416.249 69.835,416.249 69.835,416.249 69.835,416.249 69.835,416.249 69.835,416.249 69.835,416.249 69.835,416.249 69.835,416.249 69.835,416.249 69.835,416.249 69.835,416.249 69.835,416.249 69.835,416.249 69.835,416.249 69.835,416.249 69.835,416.249 69.835,416.249 69.835,416.249 69.835,416.249 69.835,416.249 69.835,416.249 69.835,416.249 69.835,416.249 69.835,416.249 69.835,416.249 69.835,416.249 69.835,416.249 69.835,416.249 69.835,416.249 69.835,416.249 69.835,416.249 69.835,416.249 69.835,416.249 69.835,416.249 69.835,416.249 69.835,416.249 69.835,416.249 69.835,416.249 69.835,416.249 69.835,416.249 69.835,416.249 69.835,416.249 69.835,416.249 69.835,416.249 69.835,416.249 69.835,416.249 69.835,416.249 69.835,416.249 69.835,416.249 69.835,416.249 69.835,416.249 69.835,416.249 69.835,416.249 69.835,416.249 69.835,416.249 69.835,416.249 69.835,416.249 69.835,416.249 69.835,416.249 69.835,416.249 69.835,416.249 69.835,416.249 69.835,416.249 69.835,416.249 69.835,416.249 69.835,416.249 69.835,416.249 69.835,416.249 69.835,416.249 69.835,416.249 69.835,416.249 69.835,416.249 69.835,416.249 69.835,416.249 69.835,416.249 69.835,416.249 69.835,416.249 69.835,416.249 69.835,416.249 69.835,416.249 69.835,416.249 69.835,416.249 69.835,416.249 69.835,416.249 69.835,416.249 69.835,416.249 69.835,416.249 69.835,416.249 69.835,416.249 69.835,416.249 69.835,416.249 69.835,416.249 69.835,416.249 69.835,416.249 69.835,416.249 69.835,416.249 69.835,416.249 69.835,416.249 69.835,416.249 69.835,416.249 69.835,416.249 69.835,416.249 69.835,416.249 69.835,416.249 69.835,416.249 69.835,416.249 69.835,416.249 69.835,416.249 69.835,416.249 69.835,416.249 69.835,416.249 69.835,416.249 69.835,416.249 69.835,416.249 69.835,416.249 69.835,416.249 69.835,416.249 69.835,416.249 69.835,416.249 69.835,416.249 69.835,416.249 69.835,416.249 69.835,416.249 69.835,416.249 69.835,416.249 69.835,416.249 69.835,416.249 69.835,416.249 69.835,416.249 69.835,416.249 69.835,416.249 69.835,416.249 69.835,416.249 69.835,416.249 69.835,416.249 69.835,416.249 69.835,416.249 69.835,416.249 69.835,416.249 69.835,416.249 69.835,416.249 69.835,416.249 69.835,416.249 69.835,416.249 69.835,416.249 69.835,416.249 69.835,416.249 69.835,416.249 69.835,416.249 69.835,416.249 69.835,416.249 69.835,416.249 69.835,416.249 69.835,416.249 69.835,416.249 69.835,416.249 69.835,416.249 69.835,416.249 69.835,416.249 69.835,416.249 69.835,416.249 69.835,416.249 69.835,416.249 69.835,416.249 69.835,416.249 69.835,416.249 69.835,416.249 69.835,416.249 69.835,416.249 69.835,416.249 69.835,416.249 69.835,416.249 69.835,416.249 69.835,416.249 69.835,416.249 69.835,416.249 69.835,416.249 69.835,416.249 69.835,416.249 69.835,416.249 69.835,416.249 69.835,416.249 69.835,416.249 69.835,416.249 69.835,416.249 69.835,416.249 69.835,416.249 69.835,416.249 69.835,416.249 69.835,416.249 69.835,416.249 69.835,416.249 69.835,416.249 69.835,416.249 69.835,416.249 69.835,416.249 69.835,416.249 69.835,416.249 69.835,416.249 69.835,416.249 69.835,416.249 69.835,416.249 69.835,416.249 69.835,416.249 69.835,416.249 69.835,416.249 69.835,416.249 69.835,416.249 69.835,416.249 69.835,416.249 69.835,416.249 69.835,416.249 69.835,416.249 69.835,416.249 69.835,416.249 69.835,416.249 69.835,416.249 69.835,416.249 69.835,416.249 69.835,416.249 69.835,416.249 69.835,416.249 69.835,416.249 69.835,416.249 69.835,416.249 69.835,416.249 69.835,416.249 69.835,416.249 69.835,416.249 69.835,416.249 69.835,416.249 69.835,416.249 69.835,416.249 69.835,416.249 69.835,416.249 69.835,416.249 69.835,416.249 69.835,416.249 69.835,416.249 69.835,416.249 69.835,416.249 69.835,416.249 69.835,416.249 69.835,416.249 69.835,416.249 69.835,416.249 69.835,416.249 69.835,416.249 69.835,416.249 69.835,416.249 69.835,416.249 69.835,416.249 69.835,416.249 69.835,416.249 69.835,416.249 69.835,416.249 69.835,416.249 69.835,416.249 69.835,416.249 69.835,416.249 69.835,416.249 69.835,416.249 69.835,416.249 69.835,416.249 69.835,416.249 69.835,416.249 69.835,416.249 69.835,416.249 69.835,416.249 69.835,416.249 69.835,416.249 69.835,416.249 69.835,416.249 69.835,416.249 69.835,416.249 69.835,416.249 69.835,416.249 69.835,416.249 69.835,416.249 69.835,416.249 69.835,416.249 69.835,416.249 69.835,416.249 69.835,416.249 69.835,416.249 69.835,416.249 69.835,416.249 69.835,416.249 69.835,416.249 69.835,416.249 69.835,416.249 69.835,416.249 69.835,416.249 69.835,416.249 69.835,416.249 69.835,416.249 69.835,416.249 69.835,416.249 69.835,416.249 69.835,416.249 69.835,416.249 69.835,416.249 69.835,416.249 69.835,416.249 69.835,416.249 69.835,416.249 69.835,416.249 69.835,416.249 69.835,416.249" stroke="#ff0000" stroke-linecap="butt" stroke-linejoin="round" stroke-opacity="0" stroke-width="0.5"/>
   <polyline fill="none" points="261.961,88.1908 261.975,88.1677 261.99,88.1422 261.985,88.1512 261.956,88.1997 261.921,88.2597 261.875,88.3389 261.818,88.4364 261.748,88.5554 261.663,88.6996 261.561,88.8741 261.43,89.0985 261.27,89.3715 261.076,89.7023 260.842,90.1017 260.559,90.5855 260.194,91.2092 259.747,91.9724 259.201,92.9051 258.535,94.0419 257.718,95.437 256.646,97.2671 255.312,99.5444 253.656,102.373 251.607,105.872 249.049,110.238 245.623,116.089 241.313,123.448 235.958,132.591 229.433,143.733 221.52,157.245 211.649,174.1 200.949,192.371 190.473,210.258 181.182,226.123 174.105,238.206 170.193,244.887 168.089,248.48 167.099,250.17 166.708,250.836 166.547,251.113 166.404,251.357 166.233,251.649 166.031,251.993 165.802,252.384 165.554,252.808 165.299,253.244 165.049,253.67 164.812,254.074 164.597,254.442 164.418,254.747 164.324,254.907 164.39,254.795 164.764,254.156 165.663,252.621 167.6,249.314 171.414,242.802 177.087,233.115 184.553,220.366 193.513,205.068 202.959,188.938 211.752,173.925 219.807,160.171 226.916,148.031 232.996,137.649 237.938,129.212 241.923,122.406 245.271,116.69 248.06,111.927 250.374,107.977 252.237,104.795 253.751,102.21 255.029,100.027 256.106,98.1894 257.012,96.6423 257.756,95.3718 258.374,94.3169 258.903,93.4132 259.356,92.6398 259.744,91.978 260.067,91.4249 260.341,90.9573 260.579,90.5517 260.785,90.2001 260.963,89.8955 261.114,89.638 261.243,89.4174 261.356,89.2245 261.455,89.056 261.541,88.9089 261.614,88.7838 261.677,88.6758 261.733,88.5811 261.781,88.4982 261.824,88.4257 261.86,88.364 261.891,88.3108 261.918,88.2643 261.942,88.2236 261.963,88.1883 261.98,88.1586 261.994,88.1359 261.992,88.1386 261.981,88.1574 261.972,88.1734 261.964,88.1864 261.958,88.1971 261.953,88.206 261.948,88.2133 261.945,88.2191 261.942,88.2232 261.941,88.2262 261.94,88.2281 261.939,88.2292 261.939,88.2296 261.939,88.229 261.94,88.2279 261.941,88.2262 261.942,88.2241 261.943,88.2215 261.945,88.2186 261.947,88.2153 261.949,88.2118 261.951,88.2081 261.954,88.2042 261.956,88.2 261.959,88.1958 261.961,88.1914 261.964,88.187 261.966,88.1826 261.969,88.178 261.972,88.1735 261.974,88.1689 261.977,88.1643 261.98,88.1597 261.982,88.1551 261.985,88.1506 261.988,88.1461 261.99,88.1416 261.993,88.1372 261.995,88.1328 261.998,88.1285 261.999,88.1274 261.997,88.1299 261.995,88.134 261.992,88.138 261.99,88.1419 261.988,88.1458 261.986,88.1496 261.983,88.1533" stroke="#ff0000" stroke-linecap="butt" stroke-linejoin="round" stroke-opacity="0" stroke-width="0.5"/>
  </g>
  <clipPath id="cp00524470">
   <polygon points="0,470 524,470 524,0 0,0"/>
  </clipPath>
  <g clip-path="url(#cp00524470)">
   <polygon fill="#010000" points="351.046,44.9455 93.8996,131.438 95.9191,130.759 170.887,105.543 351.046,44.9455" shape-rendering="crispEdges"/>
   <g font-family="FreeSans" font-size="9" font-style="normal" font-weight="normal" transform="translate(383.912,57.3148) rotate(-0,-0,-5)" xml:space="preserve">
    <text fill="rgb(0,0,0)" x="0 3 8 13 18 " y="-2">Input</text>
   </g>
   <g font-family="FreeSans" font-size="9" font-style="normal" font-weight="normal" transform="translate(383.912,71.3165) rotate(-0,-0,-5)" xml:space="preserve">
    <text fill="rgb(0,0,0)" x="0 6 11 18 23 28 33 37 42 45 47 52 57 59 64 66 68 71 76 " y="-2">Compensation Filter</text>
   </g>
   <g font-family="FreeSans" font-size="9" font-style="normal" font-weight="normal" transform="translate(383.912,84.3183) rotate(-0,-0,-4.5)" xml:space="preserve">
    <text fill="rgb(0,0,0)" x="0 6 11 18 23 25 30 35 " y="-1">Combined</text>
   </g>
   <g font-family="FreeSans" font-size="9" font-style="normal" font-weight="normal" transform="translate(383.912,97.32) rotate(-0,-0,-4.5)" xml:space="preserve">
    <text fill="rgb(0,0,0)" x="0 3 8 11 16 21 " y="-2">target</text>
   </g>
   <g font-family="FreeSans" font-size="9" font-style="normal" font-weight="normal" transform="translate(383.912,111.322) rotate(-0,-0,-5)" xml:space="preserve">
    <text fill="rgb(0,0,0)" x="0 5 8 11 13 20 25 27 32 37 40 " y="-2">err weights</text>
   </g>
  </g>
 </g>
</svg>
