<?xml version='1.0' encoding='UTF-8' standalone='no'?>
<svg height="320pt" viewBox="0 0 374 320" width="374pt" xmlns="http://www.w3.org/2000/svg" xmlns:xlink="http://www.w3.org/1999/xlink">
 <title>Figure 5</title>
 <desc>
Creator: GL2PS 1.4.2, (C) 1999-2020 C. Geuzaine
For: Octave
CreationDate: Thu Feb 19 12:09:27 2026
</desc>
 <defs/>
 <polygon fill="#ffffff" points="0,0 374,0 374,320 0,320"/>
 <g>
  <polygon fill="#ffffff" points="0,320 374,320 374,0 0,0" shape-rendering="crispEdges"/>
  <clipPath id="cp00374320">
   <polygon points="0,320 374,320 374,0 0,0"/>
  </clipPath>
  <g clip-path="url(#cp00374320)">
   <polygon fill="#ffffff" points="49.0086,132.657 339.226,132.657 339.226,27.9502 49.0086,27.9502" shape-rendering="crispEdges"/>
   <polyline fill="none" points="49.0086,132.657 49.0086,129.763" stroke="#262626" stroke-linecap="butt" stroke-linejoin="miter" stroke-width="0.5"/>
   <polyline fill="none" points="49.0086,27.9502 49.0086,30.8443" stroke="#262626" stroke-linecap="butt" stroke-linejoin="miter" stroke-width="0.5"/>
   <polyline fill="none" points="107.052,132.657 107.052,129.763" stroke="#262626" stroke-linecap="butt" stroke-linejoin="miter" stroke-width="0.5"/>
   <polyline fill="none" points="107.052,27.9502 107.052,30.8443" stroke="#262626" stroke-linecap="butt" stroke-linejoin="miter" stroke-width="0.5"/>
   <polyline fill="none" points="165.096,132.657 165.096,129.763" stroke="#262626" stroke-linecap="butt" stroke-linejoin="miter" stroke-width="0.5"/>
   <polyline fill="none" points="165.096,27.9502 165.096,30.8443" stroke="#262626" stroke-linecap="butt" stroke-linejoin="miter" stroke-width="0.5"/>
   <polyline fill="none" points="223.139,132.657 223.139,129.763" stroke="#262626" stroke-linecap="butt" stroke-linejoin="miter" stroke-width="0.5"/>
   <polyline fill="none" points="223.139,27.9502 223.139,30.8443" stroke="#262626" stroke-linecap="butt" stroke-linejoin="miter" stroke-width="0.5"/>
   <polyline fill="none" points="281.183,132.657 281.183,129.763" stroke="#262626" stroke-linecap="butt" stroke-linejoin="miter" stroke-width="0.5"/>
   <polyline fill="none" points="281.183,27.9502 281.183,30.8443" stroke="#262626" stroke-linecap="butt" stroke-linejoin="miter" stroke-width="0.5"/>
   <polyline fill="none" points="339.226,132.657 339.226,129.763" stroke="#262626" stroke-linecap="butt" stroke-linejoin="miter" stroke-width="0.5"/>
   <polyline fill="none" points="339.226,27.9502 339.226,30.8443" stroke="#262626" stroke-linecap="butt" stroke-linejoin="miter" stroke-width="0.5"/>
   <g font-family="FreeSans" font-size="10" font-style="normal" font-weight="normal" transform="translate(46.0086,148.137) rotate(-0,3,-8)" xml:space="preserve">
    <text fill="rgb(38,38,38)" x="0 " y="-0">0</text>
   </g>
   <g font-family="FreeSans" font-size="10" font-style="normal" font-weight="normal" transform="translate(99.5522,148.137) rotate(-0,7.5,-8)" xml:space="preserve">
    <text fill="rgb(38,38,38)" x="0 6 9 " y="-0">0.2</text>
   </g>
   <g font-family="FreeSans" font-size="10" font-style="normal" font-weight="normal" transform="translate(157.596,148.137) rotate(-0,7.5,-8)" xml:space="preserve">
    <text fill="rgb(38,38,38)" x="0 6 9 " y="-0">0.4</text>
   </g>
   <g font-family="FreeSans" font-size="10" font-style="normal" font-weight="normal" transform="translate(215.639,148.137) rotate(-0,7.5,-8)" xml:space="preserve">
    <text fill="rgb(38,38,38)" x="0 6 9 " y="-0">0.6</text>
   </g>
   <g font-family="FreeSans" font-size="10" font-style="normal" font-weight="normal" transform="translate(273.683,148.137) rotate(-0,7.5,-8)" xml:space="preserve">
    <text fill="rgb(38,38,38)" x="0 6 9 " y="-0">0.8</text>
   </g>
   <g font-family="FreeSans" font-size="10" font-style="normal" font-weight="normal" transform="translate(336.226,148.137) rotate(-0,3,-8)" xml:space="preserve">
    <text fill="rgb(38,38,38)" x="0 " y="-0">1</text>
   </g>
   <polyline fill="none" points="49.0086,132.657 51.9129,132.657" stroke="#262626" stroke-linecap="butt" stroke-linejoin="miter" stroke-width="0.5"/>
   <polyline fill="none" points="339.226,132.657 336.322,132.657" stroke="#262626" stroke-linecap="butt" stroke-linejoin="miter" stroke-width="0.5"/>
   <polyline fill="none" points="49.0086,115.206 51.9129,115.206" stroke="#262626" stroke-linecap="butt" stroke-linejoin="miter" stroke-width="0.5"/>
   <polyline fill="none" points="339.226,115.206 336.322,115.206" stroke="#262626" stroke-linecap="butt" stroke-linejoin="miter" stroke-width="0.5"/>
   <polyline fill="none" points="49.0086,97.755 51.9129,97.755" stroke="#262626" stroke-linecap="butt" stroke-linejoin="miter" stroke-width="0.5"/>
   <polyline fill="none" points="339.226,97.755 336.322,97.755" stroke="#262626" stroke-linecap="butt" stroke-linejoin="miter" stroke-width="0.5"/>
   <polyline fill="none" points="49.0086,80.3038 51.9129,80.3038" stroke="#262626" stroke-linecap="butt" stroke-linejoin="miter" stroke-width="0.5"/>
   <polyline fill="none" points="339.226,80.3038 336.322,80.3038" stroke="#262626" stroke-linecap="butt" stroke-linejoin="miter" stroke-width="0.5"/>
   <polyline fill="none" points="49.0086,62.8526 51.9129,62.8526" stroke="#262626" stroke-linecap="butt" stroke-linejoin="miter" stroke-width="0.5"/>
   <polyline fill="none" points="339.226,62.8526 336.322,62.8526" stroke="#262626" stroke-linecap="butt" stroke-linejoin="miter" stroke-width="0.5"/>
   <polyline fill="none" points="49.0086,45.4014 51.9129,45.4014" stroke="#262626" stroke-linecap="butt" stroke-linejoin="miter" stroke-width="0.5"/>
   <polyline fill="none" points="339.226,45.4014 336.322,45.4014" stroke="#262626" stroke-linecap="butt" stroke-linejoin="miter" stroke-width="0.5"/>
   <polyline fill="none" points="49.0086,27.9502 51.9129,27.9502" stroke="#262626" stroke-linecap="butt" stroke-linejoin="miter" stroke-width="0.5"/>
   <polyline fill="none" points="339.226,27.9502 336.322,27.9502" stroke="#262626" stroke-linecap="butt" stroke-linejoin="miter" stroke-width="0.5"/>
   <g font-family="FreeSans" font-size="10" font-style="normal" font-weight="normal" transform="translate(35.0048,136.657) rotate(-0,9,-4)" xml:space="preserve">
    <text fill="rgb(38,38,38)" x="0 3 " y="-0">-2</text>
   </g>
   <g font-family="FreeSans" font-size="10" font-style="normal" font-weight="normal" transform="translate(26.0048,119.206) rotate(-0,18,-4)" xml:space="preserve">
    <text fill="rgb(38,38,38)" x="0 3 9 12 " y="-0">-1.5</text>
   </g>
   <g font-family="FreeSans" font-size="10" font-style="normal" font-weight="normal" transform="translate(35.0048,101.755) rotate(-0,9,-4)" xml:space="preserve">
    <text fill="rgb(38,38,38)" x="0 3 " y="-0">-1</text>
   </g>
   <g font-family="FreeSans" font-size="10" font-style="normal" font-weight="normal" transform="translate(26.0048,84.3038) rotate(-0,18,-4)" xml:space="preserve">
    <text fill="rgb(38,38,38)" x="0 3 9 12 " y="-0">-0.5</text>
   </g>
   <g font-family="FreeSans" font-size="10" font-style="normal" font-weight="normal" transform="translate(38.0048,66.8526) rotate(-0,6,-4)" xml:space="preserve">
    <text fill="rgb(38,38,38)" x="0 " y="-0">0</text>
   </g>
   <g font-family="FreeSans" font-size="10" font-style="normal" font-weight="normal" transform="translate(29.0048,49.4014) rotate(-0,15,-4)" xml:space="preserve">
    <text fill="rgb(38,38,38)" x="0 6 9 " y="-0">0.5</text>
   </g>
   <g font-family="FreeSans" font-size="10" font-style="normal" font-weight="normal" transform="translate(38.0048,31.9502) rotate(-0,6,-4)" xml:space="preserve">
    <text fill="rgb(38,38,38)" x="0 " y="-0">1</text>
   </g>
   <polyline fill="none" points="49.0086,132.657 339.226,132.657" stroke="#262626" stroke-dasharray="16,0" stroke-linecap="square" stroke-linejoin="miter" stroke-width="0.5"/>
   <polyline fill="none" points="49.0086,27.9502 339.226,27.9502" stroke="#262626" stroke-dasharray="16,0" stroke-linecap="square" stroke-linejoin="miter" stroke-width="0.5"/>
   <polyline fill="none" points="49.0086,132.657 49.0086,27.9502" stroke="#262626" stroke-dasharray="16,0" stroke-linecap="square" stroke-linejoin="miter" stroke-width="0.5"/>
   <polyline fill="none" points="339.226,132.657 339.226,27.9502" stroke="#262626" stroke-dasharray="16,0" stroke-linecap="square" stroke-linejoin="miter" stroke-width="0.5"/>
   <g font-family="FreeSans" font-size="11" font-style="normal" font-weight="bold" transform="translate(57.1175,17.9502) rotate(-0,137,0)" xml:space="preserve">
    <text fill="rgb(0,0,0)" x="0 8 15 22 28 31 39 42 48 55 59 65 75 78 85 89 92 99 102 110 113 120 123 126 130 136 140 143 146 153 157 164 170 174 180 186 192 195 198 207 210 217 224 231 240 246 254 261 268 " y="-3">Bode Diagram of FIR Filter, order=79, window=None</text>
   </g>
   <g font-family="FreeSans" font-size="11" font-style="normal" font-weight="normal" transform="translate(-14.9952,80.3038) rotate(-90,36,0)" xml:space="preserve">
    <text fill="rgb(38,38,38)" x="0 9 15 21 27 29 32 38 44 50 53 56 62 69 " y="-2">Magnitude [dB]</text>
   </g>
   <polyline fill="none" points="49.0086,62.8526 49.5754,62.8737 50.1422,62.9363 50.7091,63.0375 51.2759,63.1716 51.8427,63.3283 52.4096,63.4917 52.9764,63.6404 53.5432,63.7479 54.1101,63.786 54.6769,63.7281 55.2437,63.5541 55.8106,63.2546 56.3774,62.8347 56.9442,62.3151 57.5111,61.7319 58.0779,61.133 58.6447,60.5729 59.2116,60.1073 59.7784,59.7862 60.3452,59.649 60.912,59.7205 61.4789,60.0084 62.0457,60.5037 62.6125,61.1815 63.1794,62.0042 63.7462,62.9248 64.313,63.8902 64.8799,64.8447 65.4467,65.7329 66.0135,66.5013 66.5804,67.1002 67.1472,67.4852 67.714,67.6193 68.2809,67.4749 68.8477,67.0375 69.4145,66.3087 69.9813,65.3096 70.5482,64.0818 71.115,62.6878 71.6818,61.2079 72.2487,59.7349 72.8155,58.368 73.3823,57.2043 73.9492,56.3314 74.516,55.8201 75.0828,55.7194 75.6497,56.0523 76.2165,56.8141 76.7833,57.973 77.3502,59.4714 77.917,61.2296 78.4838,63.1507 79.0507,65.1253 79.6175,67.0383 80.1843,68.7746 80.7512,70.2253 81.318,71.2937 81.8848,71.9009 82.4517,71.9909 83.0185,71.5358 83.5853,70.5392 84.1521,69.0386 84.719,67.1052 85.2858,64.8415 85.8526,62.3754 86.4195,59.8522 86.9863,57.4254 87.5531,55.246 88.12,53.4532 88.6868,52.1653 89.2536,51.4732 89.8205,51.4348 90.3873,52.0719 90.9541,53.3688 91.521,55.2719 92.0878,57.6914 92.6546,60.5049 93.2215,63.5619 93.7883,66.6907 94.3551,69.7067 94.922,72.4231 95.4888,74.6618 96.0556,76.2659 96.6225,77.1118 97.1893,77.1199 97.7561,76.2628 98.3229,74.5696 98.8898,72.126 99.4566,69.0686 100.023,65.5754 100.59,61.8531 101.157,58.1224 101.724,54.6039 102.291,51.5049 102.858,49.0084 103.424,47.2649 103.991,46.3859 104.558,46.4398 105.125,47.4485 105.692,49.3862 106.259,52.1783 106.825,55.7017 107.392,59.7872 107.959,64.2232 108.526,68.7631 109.093,73.1363 109.66,77.0631 110.226,80.2738 110.793,82.5305 111.36,83.6493 111.927,83.5199 112.494,82.1182 113.061,79.5113 113.627,75.852 114.194,71.3644 114.761,66.3245 115.328,61.0372 115.895,55.8147 116.462,50.9569 117.028,46.737 117.595,43.3899 118.162,41.1046 118.729,40.0191 119.296,40.216 119.863,41.7194 120.429,44.4919 120.996,48.4312 121.563,53.3681 122.13,59.0658 122.697,65.2237 123.264,71.4864 123.83,77.4613 124.397,82.7447 124.964,86.9568 125.531,89.7785 126.098,90.9868 126.665,90.4782 127.231,88.2778 127.798,84.5316 128.365,79.4868 128.932,73.4657 129.499,66.8372 130.066,59.9923 130.632,53.3214 131.199,47.1973 131.766,41.9608 132.333,37.9082 132.9,35.2811 133.467,34.2545 134.033,34.9244 134.6,37.2917 135.167,41.243 135.734,46.5298 136.301,52.7503 136.868,59.3463 137.434,65.63 138.001,70.8602 138.568,74.3705 139.135,75.7268 139.702,74.8547 140.268,72.0766 140.835,68.0389 141.402,63.5664 141.969,59.5083 142.536,56.624 143.103,55.5176 143.669,56.611 144.236,60.1309 144.803,66.0935 145.37,74.2735 145.937,84.1553 146.504,94.8777 147.07,105.211 147.637,113.642 148.204,118.631 148.771,119.05 149.338,114.596 149.905,105.912 150.471,94.325 151.038,81.3927 151.605,68.5305 152.172,56.8292 152.739,47.0304 153.306,39.5751 153.872,34.6677 154.439,32.3274 155.006,32.42 155.573,34.6707 156.14,38.6669 156.707,43.8572 157.273,49.5645 157.84,55.026 158.407,59.4763 158.974,62.2698 159.541,63.0144 160.108,61.6646 160.674,58.5303 161.241,54.1965 161.808,49.3922 162.375,44.8615 162.942,41.2705 163.509,39.1578 164.075,38.9163 164.642,40.79 165.209,44.8736 165.776,51.1025 166.343,59.2334 166.91,68.8135 167.476,79.1519 168.043,89.3165 168.61,98.1953 169.177,104.659 169.744,107.82 170.311,107.295 170.877,103.333 171.444,96.7281 172.011,88.5674 172.578,79.9592 173.145,71.8472 173.712,64.9281 174.278,59.6436 174.845,56.2053 175.412,54.6274 175.979,54.7543 176.546,56.2835 177.113,58.7893 177.679,61.7544 178.246,64.6197 178.813,66.8529 179.38,68.0292 179.947,67.9036 180.514,66.451 181.08,63.8581 181.647,60.4703 182.214,56.7153 182.781,53.0276 183.348,49.7911 183.915,47.3068 184.481,45.779 185.048,45.317 185.615,45.9435 186.182,47.6064 186.749,50.1914 187.316,53.5341 187.882,57.4313 188.449,61.6526 189.016,65.9509 189.583,70.0746 190.15,73.779 190.717,76.8398 191.283,79.0673 191.85,80.3203 192.417,80.5193 192.984,79.6552 193.551,77.7934 194.118,75.0684 194.684,71.6728 195.251,67.8389 195.818,63.8189 196.385,59.8642 196.952,56.208 197.519,53.0522 198.085,50.5585 198.652,48.8432 199.219,47.9751 199.786,47.976 200.353,48.8223 200.919,50.4474 201.486,52.7465 202.053,55.5801 202.62,58.7815 203.187,62.1633 203.754,65.5278 204.32,68.677 204.887,71.4258 205.454,73.6135 206.021,75.116 206.588,75.8551 207.155,75.8041 207.721,74.989 208.288,73.4852 208.855,71.4097 209.422,68.9107 209.989,66.155 210.556,63.316 211.122,60.562 211.689,58.0469 212.256,55.9028 212.823,54.2345 213.39,53.1161 213.957,52.5898 214.523,52.6644 215.09,53.3174 215.657,54.496 216.224,56.1206 216.791,58.0887 217.358,60.2802 217.924,62.5638 218.491,64.8045 219.058,66.8714 219.625,68.6459 220.192,70.0297 220.759,70.9505 221.325,71.3671 221.892,71.2709 222.459,70.6858 223.026,69.6652 223.593,68.2869 224.16,66.6469 224.726,64.8522 225.293,63.0139 225.86,61.24 226.427,59.6297 226.994,58.2682 227.561,57.223 228.127,56.541 228.694,56.2471 229.261,56.3437 229.828,56.8111 230.395,57.6096 230.962,58.6816 231.528,59.9557 232.095,61.3508 232.662,62.7808 233.229,64.1607 233.796,65.411 234.363,66.4629 234.929,67.2622 235.496,67.7721 236.063,67.9749 236.63,67.8721 237.197,67.483 237.764,66.8433 238.33,66.0013 238.897,65.0151 239.464,63.9482 240.031,62.8661 240.598,61.8321 241.165,60.904 241.731,60.1311 242.298,59.5516 242.865,59.1906 243.432,59.0595 243.999,59.1554 244.566,59.4619 245.132,59.9505 245.699,60.5827 246.266,61.3133 246.833,62.0929 247.4,62.8719 247.967,63.6038 248.533,64.2475 249.1,64.7702 249.667,65.1489 250.234,65.3706 250.801,65.4326 251.368,65.3419 251.934,65.1136 252.501,64.7697 253.068,64.3375 253.635,63.8474 254.202,63.3313 254.769,62.8211 255.335,62.3466 255.902,61.934 256.469,61.6044 257.036,61.3729 257.603,61.2472 258.17,61.228 258.736,61.3085 259.303,61.4755 259.87,61.7105 260.437,61.9917 261.004,62.2953 261.571,62.5982 262.137,62.8796 262.704,63.1224 263.271,63.3145 263.838,63.4491 264.405,63.5249 264.971,63.5451 265.538,63.5166 266.105,63.4492 266.672,63.354 267.239,63.2427 267.806,63.1266 268.372,63.016 268.939,62.9194 269.506,62.8435 270.073,62.7927 270.64,62.7691 271.207,62.7719 271.773,62.7981 272.34,62.8421 272.907,62.8961 273.474,62.951 274.041,62.997 274.608,63.0246 275.174,63.0259 275.741,62.9952 276.308,62.9305 276.875,62.8332 277.442,62.7091 278.009,62.5673 278.575,62.4198 279.142,62.2802 279.709,62.1626 280.276,62.0797 280.843,62.0424 281.41,62.0581 281.976,62.1303 282.543,62.2582 283.11,62.437 283.677,62.6577 284.244,62.9084 284.811,63.1742 285.377,63.439 285.944,63.6856 286.511,63.8973 287.078,64.0584 287.645,64.1555 288.212,64.1783 288.778,64.1207 289.345,63.981 289.912,63.7629 290.479,63.4756 291.046,63.1331 291.613,62.7545 292.179,62.3621 292.746,61.9803 293.313,61.6341 293.88,61.3473 294.447,61.1406 295.014,61.0302 295.58,61.0266 296.147,61.1337 296.714,61.3484 297.281,61.6609 297.848,62.0549 298.415,62.5087 298.981,62.9965 299.548,63.4897 300.115,63.9588 300.682,64.375 301.249,64.7118 301.816,64.9468 302.382,65.0633 302.949,65.0511 303.516,64.9074 304.083,64.6376 304.65,64.2547 305.217,63.7792 305.783,63.2376 306.35,62.6611 306.917,62.0838 307.484,61.5406 308.051,61.0647 308.618,60.6861 309.184,60.4292 309.751,60.3114 310.318,60.3421 310.885,60.5219 311.452,60.8426 312.019,61.2873 312.585,61.8316 313.152,62.4448 313.719,63.0916 314.286,63.7341 314.853,64.3339 315.42,64.8549 315.986,65.2646 316.553,65.5371 317.12,65.6543 317.687,65.6071 318.254,65.3964 318.821,65.033 319.387,64.537 319.954,63.937 320.521,63.2677 321.088,62.5684 321.655,61.8804 322.222,61.2444 322.788,60.6984 323.355,60.275 323.922,59.9998 324.489,59.8899 325.056,59.9529 325.623,60.1863 326.189,60.5778 326.756,61.1057 327.323,61.7401 327.89,62.4447 328.457,63.1786 329.023,63.8986 329.59,64.562 330.157,65.1288 330.724,65.5648 331.291,65.843 331.858,65.9462 332.424,65.8672 332.991,65.6105 333.558,65.1908 334.125,64.6331 334.692,63.9705 335.259,63.2422 335.825,62.4915 336.392,61.7623 336.959,61.0975 337.526,60.5357 338.093,60.1096 338.66,59.8437" stroke="#0071bc" stroke-linecap="butt" stroke-linejoin="round" stroke-width="0.5"/>
  </g>
  <clipPath id="cp00374320">
   <polygon points="0,320 374,320 374,0 0,0"/>
  </clipPath>
  <g clip-path="url(#cp00374320)">
   <polygon fill="#ffffff" points="49.0086,285.565 339.226,285.565 339.226,180.858 49.0086,180.858" shape-rendering="crispEdges"/>
   <polyline fill="none" points="49.0086,285.565 49.0086,282.671" stroke="#262626" stroke-linecap="butt" stroke-linejoin="miter" stroke-width="0.5"/>
   <polyline fill="none" points="49.0086,180.858 49.0086,183.752" stroke="#262626" stroke-linecap="butt" stroke-linejoin="miter" stroke-width="0.5"/>
   <polyline fill="none" points="107.052,285.565 107.052,282.671" stroke="#262626" stroke-linecap="butt" stroke-linejoin="miter" stroke-width="0.5"/>
   <polyline fill="none" points="107.052,180.858 107.052,183.752" stroke="#262626" stroke-linecap="butt" stroke-linejoin="miter" stroke-width="0.5"/>
   <polyline fill="none" points="165.096,285.565 165.096,282.671" stroke="#262626" stroke-linecap="butt" stroke-linejoin="miter" stroke-width="0.5"/>
   <polyline fill="none" points="165.096,180.858 165.096,183.752" stroke="#262626" stroke-linecap="butt" stroke-linejoin="miter" stroke-width="0.5"/>
   <polyline fill="none" points="223.139,285.565 223.139,282.671" stroke="#262626" stroke-linecap="butt" stroke-linejoin="miter" stroke-width="0.5"/>
   <polyline fill="none" points="223.139,180.858 223.139,183.752" stroke="#262626" stroke-linecap="butt" stroke-linejoin="miter" stroke-width="0.5"/>
   <polyline fill="none" points="281.183,285.565 281.183,282.671" stroke="#262626" stroke-linecap="butt" stroke-linejoin="miter" stroke-width="0.5"/>
   <polyline fill="none" points="281.183,180.858 281.183,183.752" stroke="#262626" stroke-linecap="butt" stroke-linejoin="miter" stroke-width="0.5"/>
   <polyline fill="none" points="339.226,285.565 339.226,282.671" stroke="#262626" stroke-linecap="butt" stroke-linejoin="miter" stroke-width="0.5"/>
   <polyline fill="none" points="339.226,180.858 339.226,183.752" stroke="#262626" stroke-linecap="butt" stroke-linejoin="miter" stroke-width="0.5"/>
   <g font-family="FreeSans" font-size="10" font-style="normal" font-weight="normal" transform="translate(46.0086,301.044) rotate(-0,3,-8)" xml:space="preserve">
    <text fill="rgb(38,38,38)" x="0 " y="-0">0</text>
   </g>
   <g font-family="FreeSans" font-size="10" font-style="normal" font-weight="normal" transform="translate(99.5522,301.044) rotate(-0,7.5,-8)" xml:space="preserve">
    <text fill="rgb(38,38,38)" x="0 6 9 " y="-0">0.2</text>
   </g>
   <g font-family="FreeSans" font-size="10" font-style="normal" font-weight="normal" transform="translate(157.596,301.044) rotate(-0,7.5,-8)" xml:space="preserve">
    <text fill="rgb(38,38,38)" x="0 6 9 " y="-0">0.4</text>
   </g>
   <g font-family="FreeSans" font-size="10" font-style="normal" font-weight="normal" transform="translate(215.639,301.044) rotate(-0,7.5,-8)" xml:space="preserve">
    <text fill="rgb(38,38,38)" x="0 6 9 " y="-0">0.6</text>
   </g>
   <g font-family="FreeSans" font-size="10" font-style="normal" font-weight="normal" transform="translate(273.683,301.044) rotate(-0,7.5,-8)" xml:space="preserve">
    <text fill="rgb(38,38,38)" x="0 6 9 " y="-0">0.8</text>
   </g>
   <g font-family="FreeSans" font-size="10" font-style="normal" font-weight="normal" transform="translate(336.226,301.044) rotate(-0,3,-8)" xml:space="preserve">
    <text fill="rgb(38,38,38)" x="0 " y="-0">1</text>
   </g>
   <polyline fill="none" points="49.0086,285.565 51.9129,285.565" stroke="#262626" stroke-linecap="butt" stroke-linejoin="miter" stroke-width="0.5"/>
   <polyline fill="none" points="339.226,285.565 336.322,285.565" stroke="#262626" stroke-linecap="butt" stroke-linejoin="miter" stroke-width="0.5"/>
   <polyline fill="none" points="49.0086,264.624 51.9129,264.624" stroke="#262626" stroke-linecap="butt" stroke-linejoin="miter" stroke-width="0.5"/>
   <polyline fill="none" points="339.226,264.624 336.322,264.624" stroke="#262626" stroke-linecap="butt" stroke-linejoin="miter" stroke-width="0.5"/>
   <polyline fill="none" points="49.0086,243.682 51.9129,243.682" stroke="#262626" stroke-linecap="butt" stroke-linejoin="miter" stroke-width="0.5"/>
   <polyline fill="none" points="339.226,243.682 336.322,243.682" stroke="#262626" stroke-linecap="butt" stroke-linejoin="miter" stroke-width="0.5"/>
   <polyline fill="none" points="49.0086,222.741 51.9129,222.741" stroke="#262626" stroke-linecap="butt" stroke-linejoin="miter" stroke-width="0.5"/>
   <polyline fill="none" points="339.226,222.741 336.322,222.741" stroke="#262626" stroke-linecap="butt" stroke-linejoin="miter" stroke-width="0.5"/>
   <polyline fill="none" points="49.0086,201.799 51.9129,201.799" stroke="#262626" stroke-linecap="butt" stroke-linejoin="miter" stroke-width="0.5"/>
   <polyline fill="none" points="339.226,201.799 336.322,201.799" stroke="#262626" stroke-linecap="butt" stroke-linejoin="miter" stroke-width="0.5"/>
   <polyline fill="none" points="49.0086,180.858 51.9129,180.858" stroke="#262626" stroke-linecap="butt" stroke-linejoin="miter" stroke-width="0.5"/>
   <polyline fill="none" points="339.226,180.858 336.322,180.858" stroke="#262626" stroke-linecap="butt" stroke-linejoin="miter" stroke-width="0.5"/>
   <g font-family="FreeSans" font-size="10" font-style="normal" font-weight="normal" transform="translate(17.0048,289.565) rotate(-0,27,-4)" xml:space="preserve">
    <text fill="rgb(38,38,38)" x="0 3 9 15 21 " y="-0">-8000</text>
   </g>
   <g font-family="FreeSans" font-size="10" font-style="normal" font-weight="normal" transform="translate(17.0048,268.624) rotate(-0,27,-4)" xml:space="preserve">
    <text fill="rgb(38,38,38)" x="0 3 9 15 21 " y="-0">-6000</text>
   </g>
   <g font-family="FreeSans" font-size="10" font-style="normal" font-weight="normal" transform="translate(17.0048,247.682) rotate(-0,27,-4)" xml:space="preserve">
    <text fill="rgb(38,38,38)" x="0 3 9 15 21 " y="-0">-4000</text>
   </g>
   <g font-family="FreeSans" font-size="10" font-style="normal" font-weight="normal" transform="translate(17.0048,226.741) rotate(-0,27,-4)" xml:space="preserve">
    <text fill="rgb(38,38,38)" x="0 3 9 15 21 " y="-0">-2000</text>
   </g>
   <g font-family="FreeSans" font-size="10" font-style="normal" font-weight="normal" transform="translate(38.0048,205.799) rotate(-0,6,-4)" xml:space="preserve">
    <text fill="rgb(38,38,38)" x="0 " y="-0">0</text>
   </g>
   <g font-family="FreeSans" font-size="10" font-style="normal" font-weight="normal" transform="translate(20.0048,184.858) rotate(-0,24,-4)" xml:space="preserve">
    <text fill="rgb(38,38,38)" x="0 6 12 18 " y="-0">2000</text>
   </g>
   <polyline fill="none" points="49.0086,285.565 339.226,285.565" stroke="#262626" stroke-dasharray="16,0" stroke-linecap="square" stroke-linejoin="miter" stroke-width="0.5"/>
   <polyline fill="none" points="49.0086,180.858 339.226,180.858" stroke="#262626" stroke-dasharray="16,0" stroke-linecap="square" stroke-linejoin="miter" stroke-width="0.5"/>
   <polyline fill="none" points="49.0086,285.565 49.0086,180.858" stroke="#262626" stroke-dasharray="16,0" stroke-linecap="square" stroke-linejoin="miter" stroke-width="0.5"/>
   <polyline fill="none" points="339.226,285.565 339.226,180.858" stroke="#262626" stroke-dasharray="16,0" stroke-linecap="square" stroke-linejoin="miter" stroke-width="0.5"/>
   <g font-family="FreeSans" font-size="11" font-style="normal" font-weight="normal" transform="translate(-17.4952,233.211) rotate(-90,29.5,0)" xml:space="preserve">
    <text fill="rgb(38,38,38)" x="0 7 13 19 24 30 33 37 43 49 55 " y="-3">Phase (deg)</text>
   </g>
   <g font-family="FreeSans" font-size="11" font-style="normal" font-weight="normal" transform="translate(102.118,318.044) rotate(-0,92,-12)" xml:space="preserve">
    <text fill="rgb(38,38,38)" x="0 8 14 18 27 33 35 37 42 48 54 57 64 68 74 80 86 92 98 104 109 112 116 122 124 127 131 137 143 146 151 157 166 172 174 180 " y="-3">Normalized Frequency (pi rad/sample)</text>
   </g>
   <polyline fill="none" points="49.0086,201.799 49.5754,201.942 50.1422,202.085 50.7091,202.228 51.2759,202.369 51.8427,202.509 52.4096,202.648 52.9764,202.785 53.5432,202.921 54.1101,203.056 54.6769,203.189 55.2437,203.322 55.8106,203.453 56.3774,203.585 56.9442,203.716 57.5111,203.848 58.0779,203.981 58.6447,204.114 59.2116,204.249 59.7784,204.385 60.3452,204.523 60.912,204.661 61.4789,204.802 62.0457,204.943 62.6125,205.085 63.1794,205.228 63.7462,205.371 64.313,205.514 64.8799,205.656 65.4467,205.798 66.0135,205.939 66.5804,206.079 67.1472,206.217 67.714,206.354 68.2809,206.49 68.8477,206.624 69.4145,206.757 69.9813,206.89 70.5482,207.021 71.115,207.153 71.6818,207.285 72.2487,207.417 72.8155,207.549 73.3823,207.683 73.9492,207.818 74.516,207.954 75.0828,208.091 75.6497,208.23 76.2165,208.369 76.7833,208.51 77.3502,208.651 77.917,208.793 78.4838,208.935 79.0507,209.077 79.6175,209.219 80.1843,209.36 80.7512,209.5 81.318,209.639 81.8848,209.776 82.4517,209.913 83.0185,210.048 83.5853,210.182 84.1521,210.314 84.719,210.447 85.2858,210.578 85.8526,210.71 86.4195,210.842 86.9863,210.974 87.5531,211.107 88.12,211.241 88.6868,211.376 89.2536,211.511 89.8205,211.648 90.3873,211.786 90.9541,211.924 91.521,212.063 92.0878,212.203 92.6546,212.343 93.2215,212.483 93.7883,212.623 94.3551,212.762 94.922,212.901 95.4888,213.039 96.0556,213.176 96.6225,213.313 97.1893,213.448 97.7561,213.582 98.3229,213.715 98.8898,213.848 99.4566,213.98 100.023,214.113 100.59,214.245 101.157,214.377 101.724,214.51 102.291,214.643 102.858,214.777 103.424,214.911 103.991,215.046 104.558,215.181 105.125,215.316 105.692,215.452 106.259,215.588 106.825,215.724 107.392,215.86 107.959,215.996 108.526,216.131 109.093,216.266 109.66,216.4 110.226,216.534 110.793,216.667 111.36,216.799 111.927,216.931 112.494,217.063 113.061,217.195 113.627,217.327 114.194,217.46 114.761,217.592 115.328,217.725 115.895,217.858 116.462,217.991 117.028,218.124 117.595,218.257 118.162,218.389 118.729,218.521 119.296,218.653 119.863,218.784 120.429,218.914 120.996,219.042 121.563,219.169 122.13,219.295 122.697,219.42 123.264,219.543 123.83,219.665 124.397,219.786 124.964,219.907 125.531,220.029 126.098,220.15 126.665,220.274 127.231,220.398 127.798,220.525 128.365,220.653 128.932,220.783 129.499,220.914 130.066,221.046 130.632,221.177 131.199,221.308 131.766,221.438 132.333,221.566 132.9,221.691 133.467,221.813 134.033,221.931 134.6,222.044 135.167,222.152 135.734,222.254 136.301,222.349 136.868,222.437 137.434,222.519 138.001,222.594 138.568,222.665 139.135,222.732 139.702,222.798 140.268,222.864 140.835,222.933 141.402,223.005 141.969,223.08 142.536,223.158 143.103,223.238 143.669,223.319 144.236,223.398 144.803,223.476 145.37,223.55 145.937,223.619 146.504,223.681 147.07,223.735 147.637,223.782 148.204,223.824 148.771,223.862 149.338,223.902 149.905,223.946 150.471,223.998 151.038,224.059 151.605,224.127 152.172,224.203 152.739,224.284 153.306,224.369 153.872,224.457 154.439,224.546 155.006,224.635 155.573,224.722 156.14,224.806 156.707,224.888 157.273,224.965 157.84,225.038 158.407,225.108 158.974,225.175 159.541,225.241 160.108,225.308 160.674,225.377 161.241,225.449 161.808,225.525 162.375,225.605 162.942,225.688 163.509,225.773 164.075,225.86 164.642,225.948 165.209,226.034 165.776,226.118 166.343,226.199 166.91,226.275 167.476,226.345 168.043,226.409 168.61,226.466 169.177,226.518 169.744,226.566 170.311,226.614 170.877,226.664 171.444,226.719 172.011,226.779 172.578,226.845 173.145,226.917 173.712,226.993 174.278,227.073 174.845,227.154 175.412,227.237 175.979,227.32 176.546,227.402 177.113,227.483 177.679,227.562 178.246,227.64 178.813,227.717 179.38,227.794 179.947,227.872 180.514,227.952 181.08,228.036 181.647,228.125 182.214,228.218 182.781,228.317 183.348,228.421 183.915,228.531 184.481,228.645 185.048,228.763 185.615,228.884 186.182,229.009 186.749,229.136 187.316,229.264 187.882,229.394 188.449,229.524 189.016,229.655 189.583,229.785 190.15,229.914 190.717,230.041 191.283,230.168 191.85,230.293 192.417,230.417 192.984,230.54 193.551,230.663 194.118,230.785 194.684,230.908 195.251,231.031 195.818,231.155 196.385,231.281 196.952,231.407 197.519,231.534 198.085,231.663 198.652,231.793 199.219,231.924 199.786,232.055 200.353,232.188 200.919,232.321 201.486,232.454 202.053,232.587 202.62,232.721 203.187,232.855 203.754,232.989 204.32,233.122 204.887,233.255 205.454,233.389 206.021,233.521 206.588,233.654 207.155,233.787 207.721,233.92 208.288,234.053 208.855,234.186 209.422,234.32 209.989,234.454 210.556,234.588 211.122,234.723 211.689,234.858 212.256,234.993 212.823,235.128 213.39,235.263 213.957,235.399 214.523,235.534 215.09,235.669 215.657,235.804 216.224,235.939 216.791,236.074 217.358,236.208 217.924,236.342 218.491,236.477 219.058,236.611 219.625,236.746 220.192,236.88 220.759,237.015 221.325,237.151 221.892,237.286 222.459,237.423 223.026,237.559 223.593,237.697 224.16,237.834 224.726,237.972 225.293,238.11 225.86,238.248 226.427,238.386 226.994,238.524 227.561,238.662 228.127,238.8 228.694,238.937 229.261,239.074 229.828,239.21 230.395,239.346 230.962,239.481 231.528,239.616 232.095,239.751 232.662,239.886 233.229,240.021 233.796,240.156 234.363,240.291 234.929,240.426 235.496,240.562 236.063,240.699 236.63,240.836 237.197,240.973 237.764,241.112 238.33,241.25 238.897,241.389 239.464,241.529 240.031,241.668 240.598,241.808 241.165,241.948 241.731,242.087 242.298,242.226 242.865,242.364 243.432,242.502 243.999,242.64 244.566,242.777 245.132,242.913 245.699,243.049 246.266,243.185 246.833,243.32 247.4,243.456 247.967,243.591 248.533,243.726 249.1,243.862 249.667,243.998 250.234,244.135 250.801,244.272 251.368,244.41 251.934,244.548 252.501,244.687 253.068,244.827 253.635,244.966 254.202,245.107 254.769,245.247 255.335,245.387 255.902,245.527 256.469,245.667 257.036,245.806 257.603,245.945 258.17,246.084 258.736,246.222 259.303,246.359 259.87,246.496 260.437,246.632 261.004,246.769 261.571,246.904 262.137,247.04 262.704,247.176 263.271,247.312 263.838,247.448 264.405,247.585 264.971,247.722 265.538,247.86 266.105,247.998 266.672,248.137 267.239,248.276 267.806,248.416 268.372,248.556 268.939,248.697 269.506,248.837 270.073,248.977 270.64,249.118 271.207,249.258 271.773,249.397 272.34,249.536 272.907,249.675 273.474,249.813 274.041,249.951 274.608,250.088 275.174,250.225 275.741,250.362 276.308,250.498 276.875,250.634 277.442,250.771 278.009,250.907 278.575,251.044 279.142,251.181 279.709,251.319 280.276,251.457 280.843,251.596 281.41,251.735 281.976,251.874 282.543,252.014 283.11,252.154 283.677,252.294 284.244,252.434 284.811,252.575 285.377,252.715 285.944,252.855 286.511,252.994 287.078,253.134 287.645,253.272 288.212,253.411 288.778,253.549 289.345,253.686 289.912,253.823 290.479,253.96 291.046,254.097 291.613,254.234 292.179,254.371 292.746,254.508 293.313,254.646 293.88,254.783 294.447,254.921 295.014,255.06 295.58,255.198 296.147,255.338 296.714,255.477 297.281,255.617 297.848,255.757 298.415,255.897 298.981,256.037 299.548,256.177 300.115,256.317 300.682,256.456 301.249,256.596 301.816,256.735 302.382,256.874 302.949,257.012 303.516,257.15 304.083,257.288 304.65,257.426 305.217,257.563 305.783,257.701 306.35,257.838 306.917,257.976 307.484,258.113 308.051,258.251 308.618,258.389 309.184,258.527 309.751,258.666 310.318,258.805 310.885,258.944 311.452,259.083 312.019,259.223 312.585,259.362 313.152,259.502 313.719,259.642 314.286,259.781 314.853,259.921 315.42,260.06 315.986,260.2 316.553,260.339 317.12,260.478 317.687,260.616 318.254,260.754 318.821,260.893 319.387,261.031 319.954,261.169 320.521,261.307 321.088,261.444 321.655,261.582 322.222,261.721 322.788,261.859 323.355,261.997 323.922,262.136 324.489,262.274 325.056,262.413 325.623,262.552 326.189,262.691 326.756,262.831 327.323,262.97 327.89,263.109 328.457,263.249 329.023,263.388 329.59,263.527 330.157,263.667 330.724,263.806 331.291,263.945 331.858,264.083 332.424,264.222 332.991,264.361 333.558,264.499 334.125,264.637 334.692,264.776 335.259,264.914 335.825,265.052 336.392,265.19 336.959,265.328 337.526,265.466 338.093,265.604 338.66,265.742" stroke="#0071bc" stroke-linecap="butt" stroke-linejoin="round" stroke-width="0.5"/>
  </g>
 </g>
</svg>
