<?xml version='1.0' encoding='UTF-8' standalone='no'?>
<svg height="320pt" viewBox="0 0 374 320" width="374pt" xmlns="http://www.w3.org/2000/svg" xmlns:xlink="http://www.w3.org/1999/xlink">
 <title>Figure 9</title>
 <desc>
Creator: GL2PS 1.4.2, (C) 1999-2020 C. Geuzaine
For: Octave
CreationDate: Thu Feb 19 12:08:48 2026
</desc>
 <defs/>
 <polygon fill="#ffffff" points="0,0 374,0 374,320 0,320"/>
 <g>
  <polygon fill="#ffffff" points="0,320 374,320 374,0 0,0" shape-rendering="crispEdges"/>
  <clipPath id="cp00374320">
   <polygon points="0,320 374,320 374,0 0,0"/>
  </clipPath>
  <g clip-path="url(#cp00374320)">
   <polygon fill="#ffffff" points="48.7287,285.565 339.226,285.565 339.226,24.0645 48.7287,24.0645" shape-rendering="crispEdges"/>
   <polyline fill="none" points="48.7287,285.565 48.7287,282.666" stroke="#262626" stroke-linecap="butt" stroke-linejoin="miter" stroke-width="0.5"/>
   <polyline fill="none" points="48.7287,24.0645 48.7287,26.9639" stroke="#262626" stroke-linecap="butt" stroke-linejoin="miter" stroke-width="0.5"/>
   <polyline fill="none" points="106.828,285.565 106.828,282.666" stroke="#262626" stroke-linecap="butt" stroke-linejoin="miter" stroke-width="0.5"/>
   <polyline fill="none" points="106.828,24.0645 106.828,26.9639" stroke="#262626" stroke-linecap="butt" stroke-linejoin="miter" stroke-width="0.5"/>
   <polyline fill="none" points="164.928,285.565 164.928,282.666" stroke="#262626" stroke-linecap="butt" stroke-linejoin="miter" stroke-width="0.5"/>
   <polyline fill="none" points="164.928,24.0645 164.928,26.9639" stroke="#262626" stroke-linecap="butt" stroke-linejoin="miter" stroke-width="0.5"/>
   <polyline fill="none" points="223.027,285.565 223.027,282.666" stroke="#262626" stroke-linecap="butt" stroke-linejoin="miter" stroke-width="0.5"/>
   <polyline fill="none" points="223.027,24.0645 223.027,26.9639" stroke="#262626" stroke-linecap="butt" stroke-linejoin="miter" stroke-width="0.5"/>
   <polyline fill="none" points="281.127,285.565 281.127,282.666" stroke="#262626" stroke-linecap="butt" stroke-linejoin="miter" stroke-width="0.5"/>
   <polyline fill="none" points="281.127,24.0645 281.127,26.9639" stroke="#262626" stroke-linecap="butt" stroke-linejoin="miter" stroke-width="0.5"/>
   <polyline fill="none" points="339.226,285.565 339.226,282.666" stroke="#262626" stroke-linecap="butt" stroke-linejoin="miter" stroke-width="0.5"/>
   <polyline fill="none" points="339.226,24.0645 339.226,26.9639" stroke="#262626" stroke-linecap="butt" stroke-linejoin="miter" stroke-width="0.5"/>
   <g font-family="FreeSans" font-size="10" font-style="normal" font-weight="normal" transform="translate(45.7287,301.051) rotate(-0,3,-8)" xml:space="preserve">
    <text fill="rgb(38,38,38)" x="0 " y="-0">0</text>
   </g>
   <g font-family="FreeSans" font-size="10" font-style="normal" font-weight="normal" transform="translate(99.3282,301.051) rotate(-0,7.5,-8)" xml:space="preserve">
    <text fill="rgb(38,38,38)" x="0 6 9 " y="-0">0.2</text>
   </g>
   <g font-family="FreeSans" font-size="10" font-style="normal" font-weight="normal" transform="translate(157.428,301.051) rotate(-0,7.5,-8)" xml:space="preserve">
    <text fill="rgb(38,38,38)" x="0 6 9 " y="-0">0.4</text>
   </g>
   <g font-family="FreeSans" font-size="10" font-style="normal" font-weight="normal" transform="translate(215.527,301.051) rotate(-0,7.5,-8)" xml:space="preserve">
    <text fill="rgb(38,38,38)" x="0 6 9 " y="-0">0.6</text>
   </g>
   <g font-family="FreeSans" font-size="10" font-style="normal" font-weight="normal" transform="translate(273.627,301.051) rotate(-0,7.5,-8)" xml:space="preserve">
    <text fill="rgb(38,38,38)" x="0 6 9 " y="-0">0.8</text>
   </g>
   <g font-family="FreeSans" font-size="10" font-style="normal" font-weight="normal" transform="translate(336.226,301.051) rotate(-0,3,-8)" xml:space="preserve">
    <text fill="rgb(38,38,38)" x="0 " y="-0">1</text>
   </g>
   <polyline fill="none" points="48.7287,285.565 51.6386,285.565" stroke="#262626" stroke-linecap="butt" stroke-linejoin="miter" stroke-width="0.5"/>
   <polyline fill="none" points="339.226,285.565 336.316,285.565" stroke="#262626" stroke-linecap="butt" stroke-linejoin="miter" stroke-width="0.5"/>
   <polyline fill="none" points="48.7287,241.982 51.6386,241.982" stroke="#262626" stroke-linecap="butt" stroke-linejoin="miter" stroke-width="0.5"/>
   <polyline fill="none" points="339.226,241.982 336.316,241.982" stroke="#262626" stroke-linecap="butt" stroke-linejoin="miter" stroke-width="0.5"/>
   <polyline fill="none" points="48.7287,198.398 51.6386,198.398" stroke="#262626" stroke-linecap="butt" stroke-linejoin="miter" stroke-width="0.5"/>
   <polyline fill="none" points="339.226,198.398 336.316,198.398" stroke="#262626" stroke-linecap="butt" stroke-linejoin="miter" stroke-width="0.5"/>
   <polyline fill="none" points="48.7287,154.815 51.6386,154.815" stroke="#262626" stroke-linecap="butt" stroke-linejoin="miter" stroke-width="0.5"/>
   <polyline fill="none" points="339.226,154.815 336.316,154.815" stroke="#262626" stroke-linecap="butt" stroke-linejoin="miter" stroke-width="0.5"/>
   <polyline fill="none" points="48.7287,111.231 51.6386,111.231" stroke="#262626" stroke-linecap="butt" stroke-linejoin="miter" stroke-width="0.5"/>
   <polyline fill="none" points="339.226,111.231 336.316,111.231" stroke="#262626" stroke-linecap="butt" stroke-linejoin="miter" stroke-width="0.5"/>
   <polyline fill="none" points="48.7287,67.6479 51.6386,67.6479" stroke="#262626" stroke-linecap="butt" stroke-linejoin="miter" stroke-width="0.5"/>
   <polyline fill="none" points="339.226,67.6479 336.316,67.6479" stroke="#262626" stroke-linecap="butt" stroke-linejoin="miter" stroke-width="0.5"/>
   <polyline fill="none" points="48.7287,24.0645 51.6386,24.0645" stroke="#262626" stroke-linecap="butt" stroke-linejoin="miter" stroke-width="0.5"/>
   <polyline fill="none" points="339.226,24.0645 336.316,24.0645" stroke="#262626" stroke-linecap="butt" stroke-linejoin="miter" stroke-width="0.5"/>
   <g font-family="FreeSans" font-size="10" font-style="normal" font-weight="normal" transform="translate(37.7201,289.565) rotate(-0,6,-4)" xml:space="preserve">
    <text fill="rgb(38,38,38)" x="0 " y="-0">0</text>
   </g>
   <g font-family="FreeSans" font-size="10" font-style="normal" font-weight="normal" transform="translate(31.7201,245.982) rotate(-0,12,-4)" xml:space="preserve">
    <text fill="rgb(38,38,38)" x="0 6 " y="-0">20</text>
   </g>
   <g font-family="FreeSans" font-size="10" font-style="normal" font-weight="normal" transform="translate(31.7201,202.398) rotate(-0,12,-4)" xml:space="preserve">
    <text fill="rgb(38,38,38)" x="0 6 " y="-0">40</text>
   </g>
   <g font-family="FreeSans" font-size="10" font-style="normal" font-weight="normal" transform="translate(31.7201,158.815) rotate(-0,12,-4)" xml:space="preserve">
    <text fill="rgb(38,38,38)" x="0 6 " y="-0">60</text>
   </g>
   <g font-family="FreeSans" font-size="10" font-style="normal" font-weight="normal" transform="translate(31.7201,115.231) rotate(-0,12,-4)" xml:space="preserve">
    <text fill="rgb(38,38,38)" x="0 6 " y="-0">80</text>
   </g>
   <g font-family="FreeSans" font-size="10" font-style="normal" font-weight="normal" transform="translate(25.7201,71.6479) rotate(-0,18,-4)" xml:space="preserve">
    <text fill="rgb(38,38,38)" x="0 6 12 " y="-0">100</text>
   </g>
   <g font-family="FreeSans" font-size="10" font-style="normal" font-weight="normal" transform="translate(25.7201,28.0645) rotate(-0,18,-4)" xml:space="preserve">
    <text fill="rgb(38,38,38)" x="0 6 12 " y="-0">120</text>
   </g>
   <polyline fill="none" points="48.7287,285.565 339.226,285.565" stroke="#262626" stroke-dasharray="16,0" stroke-linecap="square" stroke-linejoin="miter" stroke-width="0.5"/>
   <polyline fill="none" points="48.7287,24.0645 339.226,24.0645" stroke="#262626" stroke-dasharray="16,0" stroke-linecap="square" stroke-linejoin="miter" stroke-width="0.5"/>
   <polyline fill="none" points="48.7287,285.565 48.7287,24.0645" stroke="#262626" stroke-dasharray="16,0" stroke-linecap="square" stroke-linejoin="miter" stroke-width="0.5"/>
   <polyline fill="none" points="339.226,285.565 339.226,24.0645" stroke="#262626" stroke-dasharray="16,0" stroke-linecap="square" stroke-linejoin="miter" stroke-width="0.5"/>
   <g font-family="FreeSans" font-size="11" font-style="normal" font-weight="normal" transform="translate(101.978,318.051) rotate(-0,92,-12)" xml:space="preserve">
    <text fill="rgb(38,38,38)" x="0 8 14 18 27 33 35 37 42 48 54 57 64 68 74 80 86 92 98 104 109 112 116 122 124 127 131 137 143 146 151 157 166 172 174 180 " y="-3">Normalized Frequency (pi rad/sample)</text>
   </g>
   <g font-family="FreeSans" font-size="11" font-style="normal" font-weight="normal" transform="translate(8.22008,154.815) rotate(-90,12.5,0)" xml:space="preserve">
    <text fill="rgb(38,38,38)" x="0 7 11 15 21 " y="-0">Error</text>
   </g>
   <g font-family="FreeSans" font-size="11" font-style="normal" font-weight="bold" transform="translate(31.4776,14.0645) rotate(-0,162.5,0)" xml:space="preserve">
    <text fill="rgb(0,0,0)" x="0 8 12 19 22 25 32 36 40 43 46 49 56 60 67 73 77 83 89 95 98 101 111 117 123 130 133 139 143 147 150 154 157 163 167 173 179 182 188 194 197 200 210 216 222 229 232 238 242 246 249 258 264 267 274 281 285 291 298 304 310 313 319 " y="-3">Grd. Err., order=79, mean err flat=3.39, mean err weighted=2.86</text>
   </g>
   <polyline fill="none" points="48.7287,279.777 49.2961,280.108 49.8634,281.025 50.4308,282.319 50.9982,283.695 51.5656,284.838 52.1329,285.482 52.7003,285.478 53.2677,284.827 53.8351,283.681 54.4025,282.313 54.9698,281.049 55.5372,280.191 56.1046,279.941 56.672,280.352 57.2394,281.321 57.8067,282.614 58.3741,283.931 58.9415,284.974 59.5089,285.517 60.0762,285.449 60.6436,284.792 61.211,283.697 61.7784,282.407 62.3458,281.208 62.9131,280.371 63.4805,280.087 64.0479,280.43 64.6153,281.327 65.1827,282.578 65.75,283.892 66.3174,284.956 66.8848,285.516 67.4522,285.442 68.0195,284.76 68.5869,283.651 69.1543,282.401 69.7217,281.326 70.2891,280.687 70.8564,280.625 71.4238,281.138 71.9912,282.088 72.5586,283.245 73.1259,284.35 73.6933,285.171 74.2607,285.549 74.8281,285.422 75.3955,284.831 75.9628,283.909 76.5302,282.855 77.0976,281.896 77.665,281.245 78.2324,281.052 78.7997,281.375 79.3671,282.15 79.9345,283.205 80.5019,284.288 81.0692,285.137 81.6366,285.545 82.204,285.423 82.7714,284.826 83.3388,283.936 83.9061,283.006 84.4735,282.287 85.0409,281.954 85.6083,282.069 86.1757,282.578 86.743,283.341 87.3104,284.176 87.8778,284.907 88.4452,285.395 89.0126,285.565 89.5799,285.406 90.1473,284.971 90.7147,284.358 91.2821,283.698 91.8494,283.131 92.4168,282.78 92.9842,282.727 93.5516,282.992 94.1189,283.522 94.6863,284.197 95.2537,284.858 95.8211,285.347 96.3885,285.559 96.9558,285.473 97.5232,285.156 98.0906,284.74 98.658,284.372 99.2254,284.164 99.7927,284.163 100.36,284.352 100.927,284.662 101.495,285.005 102.062,285.301 102.63,285.495 103.197,285.565 103.764,285.518 104.332,285.386 104.899,285.214 105.467,285.048 106.034,284.932 106.601,284.893 107.169,284.939 107.736,285.058 108.303,285.217 108.871,285.376 109.438,285.497 110.006,285.557 110.573,285.561 111.14,285.536 111.708,285.514 112.275,285.517 112.842,285.543 113.41,285.564 113.977,285.547 114.545,285.466 115.112,285.319 115.679,285.132 116.247,284.948 116.814,284.816 117.381,284.775 117.949,284.847 118.516,285.02 119.084,285.253 119.651,285.468 120.218,285.565 120.786,285.431 121.353,284.973 121.921,284.159 122.488,283.065 123.055,281.908 123.623,281.034 124.19,280.816 124.757,281.48 125.325,282.907 125.892,284.545 126.46,285.527 127.027,284.997 127.594,282.482 128.162,278.123 128.729,272.642 129.296,267.099 129.864,262.571 130.431,259.889 130.999,259.507 131.566,261.471 132.133,265.471 132.701,270.885 133.268,276.813 133.835,282.082 134.403,285.25 134.97,284.684 135.538,278.843 136.105,266.888 136.672,249.691 137.24,230.865 137.807,216.859 138.374,214.812 138.942,228.162 139.509,252.64 140.077,276.457 140.644,285.459 141.211,269.873 141.779,228.707 142.346,170.548 142.914,111.385 143.481,70.0307 144.048,61.6978 144.616,91.496 145.183,150.846 145.75,219.108 146.318,270.521 146.885,285.022 147.453,260.024 148.02,215.694 148.587,183.895 149.155,184.426 149.722,211.914 150.289,246.55 150.857,272.274 151.424,284.088 151.992,284.926 152.559,280.311 153.126,275.082 153.694,272.245 154.261,272.915 154.828,276.591 155.396,281.51 155.963,285.104 156.531,284.742 157.098,278.83 157.665,268.049 158.233,255.906 158.8,247.609 159.367,247.246 159.935,255.091 160.502,267.347 161.07,278.598 161.637,284.817 162.204,284.842 162.772,280.034 163.339,273.067 163.907,266.755 164.474,263.286 165.041,263.807 165.609,268.219 166.176,275.092 166.743,281.838 167.311,285.433 167.878,283.979 168.446,278.639 169.013,274.026 169.58,274.901 170.148,280.893 170.715,285.481 171.282,281.837 171.85,269.263 172.417,253.505 172.985,242.044 173.552,239.545 174.119,246.278 174.687,259.035 175.254,272.918 175.821,282.958 176.389,285.273 176.956,277.914 177.524,261.494 178.091,239.405 178.658,217.203 179.226,200.949 179.793,194.971 180.36,200.234 180.928,214.295 181.495,232.774 182.063,251.258 182.63,266.616 183.197,277.372 183.765,283.423 184.332,285.522 184.9,284.808 185.467,282.493 186.034,279.671 186.602,277.224 187.169,275.761 187.736,275.587 188.304,276.69 188.871,278.758 189.439,281.254 190.006,283.549 190.573,285.09 191.141,285.561 191.708,284.978 192.275,283.666 192.843,282.131 193.41,280.872 193.978,280.224 194.545,280.287 195.112,280.944 195.68,281.96 196.247,283.073 196.814,284.073 197.382,284.833 197.949,285.311 198.517,285.531 199.084,285.556 199.651,285.465 200.219,285.331 200.786,285.215 201.354,285.154 201.921,285.16 202.488,285.226 203.056,285.328 203.623,285.435 204.19,285.517 204.758,285.56 205.325,285.561 205.893,285.533 206.46,285.497 207.027,285.472 207.595,285.469 208.162,285.486 208.729,285.516 209.297,285.544 209.864,285.562 210.432,285.564 210.999,285.555 211.566,285.541 212.134,285.53 212.701,285.527 213.268,285.535 213.836,285.548 214.403,285.561 214.971,285.564 215.538,285.549 216.105,285.513 216.673,285.457 217.24,285.391 217.807,285.331 218.375,285.294 218.942,285.291 219.51,285.327 220.077,285.394 220.644,285.473 221.212,285.538 221.779,285.565 222.346,285.54 222.914,285.462 223.481,285.349 224.049,285.227 224.616,285.126 225.183,285.07 225.751,285.074 226.318,285.136 226.886,285.242 227.453,285.366 228.02,285.479 228.588,285.551 229.155,285.56 229.722,285.499 230.29,285.372 230.857,285.202 231.425,285.021 231.992,284.87 232.559,284.784 233.127,284.787 233.694,284.881 234.261,285.046 234.829,285.243 235.396,285.423 235.964,285.539 236.531,285.561 237.098,285.481 237.666,285.32 238.233,285.117 238.8,284.923 239.368,284.784 239.935,284.732 240.503,284.779 241.07,284.913 241.637,285.101 242.205,285.3 242.772,285.464 243.339,285.555 243.907,285.55 244.474,285.447 245.042,285.265 245.609,285.044 246.176,284.831 246.744,284.675 247.311,284.612 247.879,284.659 248.446,284.806 249.013,285.019 249.581,285.249 250.148,285.442 250.715,285.55 251.283,285.551 251.85,285.446 252.418,285.262 252.985,285.046 253.552,284.849 254.12,284.718 254.687,284.683 255.254,284.751 255.822,284.905 256.389,285.109 256.957,285.316 257.524,285.478 258.091,285.56 258.659,285.542 259.226,285.429 259.793,285.246 260.361,285.036 260.928,284.847 261.496,284.721 262.063,284.689 262.63,284.757 263.198,284.91 263.765,285.112 264.333,285.317 264.9,285.477 265.467,285.559 266.035,285.545 266.602,285.443 267.169,285.279 267.737,285.094 268.304,284.932 268.872,284.831 269.439,284.814 270.006,284.883 270.574,285.023 271.141,285.2 271.708,285.373 272.276,285.504 272.843,285.563 273.411,285.539 273.978,285.438 274.545,285.287 275.113,285.121 275.68,284.979 276.247,284.895 276.815,284.887 277.382,284.956 277.95,285.086 278.517,285.245 279.084,285.398 279.652,285.512 280.219,285.563 280.786,285.544 281.354,285.461 281.921,285.338 282.489,285.204 283.056,285.091 283.623,285.025 284.191,285.022 284.758,285.081 285.326,285.188 285.893,285.318 286.46,285.441 287.028,285.529 287.595,285.565 288.162,285.541 288.73,285.465 289.297,285.358 289.865,285.247 290.432,285.158 290.999,285.112 291.567,285.118 292.134,285.174 292.701,285.266 293.269,285.372 293.836,285.47 294.404,285.538 294.971,285.565 295.538,285.546 296.106,285.49 296.673,285.412 297.24,285.33 297.808,285.264 298.375,285.23 298.943,285.235 299.51,285.277 300.077,285.346 300.645,285.426 301.212,285.499 301.779,285.549 302.347,285.565 302.914,285.546 303.482,285.499 304.049,285.437 304.616,285.376 305.184,285.331 305.751,285.312 306.319,285.322 306.886,285.359 307.453,285.413 308.021,285.471 308.588,285.522 309.155,285.555 309.723,285.565 310.29,285.552 310.858,285.521 311.425,285.481 311.992,285.441 312.56,285.411 313.127,285.399 313.694,285.406 314.262,285.43 314.829,285.466 315.397,285.505 315.964,285.539 316.531,285.56 317.099,285.565 317.666,285.554 318.233,285.531 318.801,285.504 319.368,285.479 319.936,285.462 320.503,285.457 321.07,285.465 321.638,285.483 322.205,285.507 322.772,285.531 323.34,285.55 323.907,285.562 324.475,285.565 325.042,285.558 325.609,285.546 326.177,285.53 326.744,285.515 327.312,285.505 327.879,285.5 328.446,285.503 329.014,285.512 329.581,285.526 330.148,285.54 330.716,285.553 331.283,285.562 331.851,285.565 332.418,285.562 332.985,285.554 333.553,285.542 334.12,285.528 334.687,285.514 335.255,285.501 335.822,285.491 336.39,285.482 336.957,285.476 337.524,285.472 338.092,285.47 338.659,285.469" stroke="#0071bc" stroke-linecap="butt" stroke-linejoin="round" stroke-width="0.5"/>
   <polyline fill="none" points="77.7785,285.564 79.3382,285.565 80.8979,285.565 82.4576,285.565 84.0173,285.564 85.577,285.563 87.1368,285.564 88.6965,285.565 90.2562,285.564 91.8159,285.562 93.3757,285.562 94.9354,285.564 96.4951,285.564 98.0548,285.556 99.6145,285.551 101.174,285.556 102.734,285.563 104.294,285.565 105.853,285.562 107.413,285.562 108.973,285.565 110.533,285.559 112.092,285.554 113.652,285.562 115.212,285.562 116.771,285.545 118.331,285.551 119.891,285.556 121.451,285.297 123.01,284.494 124.57,284.078 126.13,285.34 127.689,284.058 129.249,276.093 130.809,269.38 132.369,273.919 133.928,284.506 135.488,276.804 137.048,232.203 138.608,218.711 140.167,279.563 141.727,235.472 143.287,95.9862 144.846,131.605 146.406,278.549 147.966,215.041 149.526,196.791 151.085,276.192 152.645,281.31 154.205,275.038 155.764,284.744 157.324,273.61 158.884,242.607 160.444,261.406 162.003,285.447 163.563,274.714 165.123,269.162 166.682,282.504 168.242,282.365 169.802,279.129 171.362,284.768 172.921,273.37 174.481,277.063 176.041,285.306 177.601,281.404 179.16,273.763 180.72,275.446 182.28,281.955 183.839,285.202 185.399,285.508 186.959,285.208 188.519,285.254 190.078,285.503 191.638,285.55 193.198,285.433 194.757,285.409 196.317,285.485 197.877,285.546 199.437,285.564 200.996,285.564 202.556,285.564 204.116,285.565 205.675,285.564 207.235,285.562 208.795,285.563 210.355,285.564 211.914,285.565 213.474,285.565 215.034,285.565 216.594,285.564 218.153,285.564 219.713,285.564 221.273,285.564 222.832,285.565 224.392,285.565 225.952,285.565 227.512,285.565 229.071,285.565 230.631,285.565 232.191,285.565 233.75,285.565 235.31,285.565 236.87,285.565 238.43,285.565 239.989,285.565 241.549,285.565 243.109,285.565 244.668,285.565 246.228,285.565 247.788,285.564 249.348,285.565 250.907,285.565 252.467,285.565 254.027,285.565 255.587,285.565 257.146,285.565 258.706,285.565 260.266,285.565 261.825,285.565 263.385,285.565 264.945,285.565 266.505,285.565 268.064,285.565 269.624,285.565 271.184,285.565 272.743,285.565 274.303,285.565 275.863,285.565 277.423,285.565 278.982,285.565 280.542,285.565 282.102,285.565 283.661,285.565 285.221,285.565 286.781,285.565 288.341,285.565 289.9,285.565 291.46,285.565 293.02,285.565 294.579,285.565 296.139,285.565 297.699,285.565 299.259,285.565 300.818,285.565 302.378,285.565 303.938,285.565 305.498,285.565 307.057,285.565 308.617,285.565 310.177,285.565" stroke="#d85218" stroke-linecap="butt" stroke-linejoin="round" stroke-width="0.5"/>
   <polyline fill="none" points="77.7785,285.565 79.3382,285.565 80.8979,285.565 82.4576,285.565 84.0173,285.564 85.577,285.564 87.1368,285.564 88.6965,285.563 90.2562,285.562 91.8159,285.561 93.3757,285.56 94.9354,285.559 96.4951,285.557 98.0548,285.555 99.6145,285.552 101.174,285.549 102.734,285.544 104.294,285.539 105.853,285.533 107.413,285.525 108.973,285.516 110.533,285.503 112.092,285.487 113.652,285.467 115.212,285.441 116.771,285.409 118.331,285.364 119.891,285.305 121.451,285.227 123.01,285.125 124.57,284.99 126.13,284.8 127.689,284.563 129.249,284.29 130.809,284.006 132.369,283.756 133.928,283.603 135.488,283.516 137.048,283.473 138.608,283.457 140.167,283.449 141.727,283.443 143.287,283.436 144.846,283.427 146.406,283.417 147.966,283.406 149.526,283.394 151.085,283.383 152.645,283.372 154.205,283.363 155.764,283.354 157.324,283.35 158.884,283.353 160.444,283.37 162.003,283.411 163.563,283.495 165.123,283.652 166.682,283.865 168.242,284.114 169.802,284.374 171.362,284.61 172.921,284.802 174.481,284.958 176.041,285.083 177.601,285.181 179.16,285.256 180.72,285.313 182.28,285.359 183.839,285.396 185.399,285.426 186.959,285.449 188.519,285.468 190.078,285.484 191.638,285.497 193.198,285.507 194.757,285.516 196.317,285.523 197.877,285.53 199.437,285.535 200.996,285.539 202.556,285.543 204.116,285.546 205.675,285.549 207.235,285.551 208.795,285.553 210.355,285.555 211.914,285.556 213.474,285.558 215.034,285.559 216.594,285.56 218.153,285.561 219.713,285.561 221.273,285.562 222.832,285.562 224.392,285.563 225.952,285.563 227.512,285.564 229.071,285.564 230.631,285.564 232.191,285.565 233.75,285.565 235.31,285.565 236.87,285.565 238.43,285.565 239.989,285.565 241.549,285.565 243.109,285.565 244.668,285.564 246.228,285.564 247.788,285.564 249.348,285.564 250.907,285.564 252.467,285.564 254.027,285.564 255.587,285.564 257.146,285.564 258.706,285.564 260.266,285.564 261.825,285.564 263.385,285.564 264.945,285.564 266.505,285.564 268.064,285.564 269.624,285.564 271.184,285.564 272.743,285.564 274.303,285.565 275.863,285.565 277.423,285.565 278.982,285.565 280.542,285.565 282.102,285.565 283.661,285.565 285.221,285.565 286.781,285.565 288.341,285.565 289.9,285.565 291.46,285.565 293.02,285.565 294.579,285.565 296.139,285.565 297.699,285.565 299.259,285.565 300.818,285.565 302.378,285.565 303.938,285.565 305.498,285.565 307.057,285.565 308.617,285.565 310.177,285.565" stroke="#ecb01f" stroke-linecap="butt" stroke-linejoin="round" stroke-width="0.5"/>
  </g>
  <clipPath id="cp00374320">
   <polygon points="0,320 374,320 374,0 0,0"/>
  </clipPath>
  <g clip-path="url(#cp00374320)">
   <polygon fill="#ffffff" points="225.209,76.4787 331.223,76.4787 331.223,32.068 225.209,32.068" shape-rendering="crispEdges"/>
   <polyline fill="none" points="225.209,76.4787 331.223,76.4787" stroke="#262626" stroke-dasharray="16,0" stroke-linecap="square" stroke-linejoin="miter" stroke-width="0.5"/>
   <polyline fill="none" points="225.209,32.068 331.223,32.068" stroke="#262626" stroke-dasharray="16,0" stroke-linecap="square" stroke-linejoin="miter" stroke-width="0.5"/>
   <polyline fill="none" points="225.209,76.4787 225.209,32.068" stroke="#262626" stroke-dasharray="16,0" stroke-linecap="square" stroke-linejoin="miter" stroke-width="0.5"/>
   <polyline fill="none" points="331.223,76.4787 331.223,32.068" stroke="#262626" stroke-dasharray="16,0" stroke-linecap="square" stroke-linejoin="miter" stroke-width="0.5"/>
   <polyline fill="none" points="229.211,40.2715 249.219,40.2715" stroke="#0071bc" stroke-linecap="butt" stroke-linejoin="round" stroke-width="0.5"/>
   <g font-family="FreeSans" font-size="9" font-style="normal" font-weight="normal" transform="translate(253.221,44.2716) rotate(-0,-0,-4)" xml:space="preserve">
    <text fill="rgb(0,0,0)" x="0 6 9 12 14 19 21 26 " y="-0">Err Flat</text>
   </g>
   <polyline fill="none" points="229.211,53.4752 249.219,53.4752" stroke="#d85218" stroke-linecap="butt" stroke-linejoin="round" stroke-width="0.5"/>
   <g font-family="FreeSans" font-size="9" font-style="normal" font-weight="normal" transform="translate(253.221,58.4751) rotate(-0,-0,-5)" xml:space="preserve">
    <text fill="rgb(0,0,0)" x="0 6 9 12 14 22 27 29 34 39 42 47 52 54 56 58 60 62 64 66 68 70 72 " y="-2">Err Weighted           </text>
   </g>
   <polyline fill="none" points="229.211,67.4769 249.219,67.4769" stroke="#ecb01f" stroke-linecap="butt" stroke-linejoin="round" stroke-width="0.5"/>
   <g font-family="FreeSans" font-size="9" font-style="normal" font-weight="normal" transform="translate(253.221,72.4769) rotate(-0,-0,-5)" xml:space="preserve">
    <text fill="rgb(0,0,0)" x="0 6 9 12 14 22 27 29 34 39 42 " y="-2">Err Weights</text>
   </g>
  </g>
 </g>
</svg>
