<?xml version='1.0' encoding='UTF-8' standalone='no'?>
<svg height="320pt" viewBox="0 0 374 320" width="374pt" xmlns="http://www.w3.org/2000/svg" xmlns:xlink="http://www.w3.org/1999/xlink">
 <title>Figure 9</title>
 <desc>
Creator: GL2PS 1.4.2, (C) 1999-2020 C. Geuzaine
For: Octave
CreationDate: Tue Mar  3 15:21:12 2026
</desc>
 <defs/>
 <polygon fill="#ffffff" points="0,0 374,0 374,320 0,320"/>
 <g>
  <polygon fill="#ffffff" points="0,320 374,320 374,0 0,0" shape-rendering="crispEdges"/>
  <clipPath id="cp00374320">
   <polygon points="0,320 374,320 374,0 0,0"/>
  </clipPath>
  <g clip-path="url(#cp00374320)">
   <polygon fill="#ffffff" points="48.7287,285.565 339.226,285.565 339.226,24.0645 48.7287,24.0645" shape-rendering="crispEdges"/>
   <polyline fill="none" points="48.7287,285.565 48.7287,282.666" stroke="#262626" stroke-linecap="butt" stroke-linejoin="miter" stroke-width="0.5"/>
   <polyline fill="none" points="48.7287,24.0645 48.7287,26.9639" stroke="#262626" stroke-linecap="butt" stroke-linejoin="miter" stroke-width="0.5"/>
   <polyline fill="none" points="106.828,285.565 106.828,282.666" stroke="#262626" stroke-linecap="butt" stroke-linejoin="miter" stroke-width="0.5"/>
   <polyline fill="none" points="106.828,24.0645 106.828,26.9639" stroke="#262626" stroke-linecap="butt" stroke-linejoin="miter" stroke-width="0.5"/>
   <polyline fill="none" points="164.928,285.565 164.928,282.666" stroke="#262626" stroke-linecap="butt" stroke-linejoin="miter" stroke-width="0.5"/>
   <polyline fill="none" points="164.928,24.0645 164.928,26.9639" stroke="#262626" stroke-linecap="butt" stroke-linejoin="miter" stroke-width="0.5"/>
   <polyline fill="none" points="223.027,285.565 223.027,282.666" stroke="#262626" stroke-linecap="butt" stroke-linejoin="miter" stroke-width="0.5"/>
   <polyline fill="none" points="223.027,24.0645 223.027,26.9639" stroke="#262626" stroke-linecap="butt" stroke-linejoin="miter" stroke-width="0.5"/>
   <polyline fill="none" points="281.127,285.565 281.127,282.666" stroke="#262626" stroke-linecap="butt" stroke-linejoin="miter" stroke-width="0.5"/>
   <polyline fill="none" points="281.127,24.0645 281.127,26.9639" stroke="#262626" stroke-linecap="butt" stroke-linejoin="miter" stroke-width="0.5"/>
   <polyline fill="none" points="339.226,285.565 339.226,282.666" stroke="#262626" stroke-linecap="butt" stroke-linejoin="miter" stroke-width="0.5"/>
   <polyline fill="none" points="339.226,24.0645 339.226,26.9639" stroke="#262626" stroke-linecap="butt" stroke-linejoin="miter" stroke-width="0.5"/>
   <g font-family="FreeSans" font-size="10" font-style="normal" font-weight="normal" transform="translate(45.7287,301.051) rotate(-0,3,-8)" xml:space="preserve">
    <text fill="rgb(38,38,38)" x="0 " y="-0">0</text>
   </g>
   <g font-family="FreeSans" font-size="10" font-style="normal" font-weight="normal" transform="translate(99.3282,301.051) rotate(-0,7.5,-8)" xml:space="preserve">
    <text fill="rgb(38,38,38)" x="0 6 9 " y="-0">0.2</text>
   </g>
   <g font-family="FreeSans" font-size="10" font-style="normal" font-weight="normal" transform="translate(157.428,301.051) rotate(-0,7.5,-8)" xml:space="preserve">
    <text fill="rgb(38,38,38)" x="0 6 9 " y="-0">0.4</text>
   </g>
   <g font-family="FreeSans" font-size="10" font-style="normal" font-weight="normal" transform="translate(215.527,301.051) rotate(-0,7.5,-8)" xml:space="preserve">
    <text fill="rgb(38,38,38)" x="0 6 9 " y="-0">0.6</text>
   </g>
   <g font-family="FreeSans" font-size="10" font-style="normal" font-weight="normal" transform="translate(273.627,301.051) rotate(-0,7.5,-8)" xml:space="preserve">
    <text fill="rgb(38,38,38)" x="0 6 9 " y="-0">0.8</text>
   </g>
   <g font-family="FreeSans" font-size="10" font-style="normal" font-weight="normal" transform="translate(336.226,301.051) rotate(-0,3,-8)" xml:space="preserve">
    <text fill="rgb(38,38,38)" x="0 " y="-0">1</text>
   </g>
   <polyline fill="none" points="48.7287,285.565 51.6386,285.565" stroke="#262626" stroke-linecap="butt" stroke-linejoin="miter" stroke-width="0.5"/>
   <polyline fill="none" points="339.226,285.565 336.316,285.565" stroke="#262626" stroke-linecap="butt" stroke-linejoin="miter" stroke-width="0.5"/>
   <polyline fill="none" points="48.7287,217.712 51.6386,217.712" stroke="#262626" stroke-linecap="butt" stroke-linejoin="miter" stroke-width="0.5"/>
   <polyline fill="none" points="339.226,217.712 336.316,217.712" stroke="#262626" stroke-linecap="butt" stroke-linejoin="miter" stroke-width="0.5"/>
   <polyline fill="none" points="48.7287,149.859 51.6386,149.859" stroke="#262626" stroke-linecap="butt" stroke-linejoin="miter" stroke-width="0.5"/>
   <polyline fill="none" points="339.226,149.859 336.316,149.859" stroke="#262626" stroke-linecap="butt" stroke-linejoin="miter" stroke-width="0.5"/>
   <polyline fill="none" points="48.7287,82.0061 51.6386,82.0061" stroke="#262626" stroke-linecap="butt" stroke-linejoin="miter" stroke-width="0.5"/>
   <polyline fill="none" points="339.226,82.0061 336.316,82.0061" stroke="#262626" stroke-linecap="butt" stroke-linejoin="miter" stroke-width="0.5"/>
   <g font-family="FreeSans" font-size="10" font-style="normal" font-weight="normal" transform="translate(37.7201,289.565) rotate(-0,6,-4)" xml:space="preserve">
    <text fill="rgb(38,38,38)" x="0 " y="-0">0</text>
   </g>
   <g font-family="FreeSans" font-size="10" font-style="normal" font-weight="normal" transform="translate(31.7201,221.712) rotate(-0,12,-4)" xml:space="preserve">
    <text fill="rgb(38,38,38)" x="0 6 " y="-0">10</text>
   </g>
   <g font-family="FreeSans" font-size="10" font-style="normal" font-weight="normal" transform="translate(31.7201,153.859) rotate(-0,12,-4)" xml:space="preserve">
    <text fill="rgb(38,38,38)" x="0 6 " y="-0">20</text>
   </g>
   <g font-family="FreeSans" font-size="10" font-style="normal" font-weight="normal" transform="translate(31.7201,86.0061) rotate(-0,12,-4)" xml:space="preserve">
    <text fill="rgb(38,38,38)" x="0 6 " y="-0">30</text>
   </g>
   <polyline fill="none" points="48.7287,285.565 339.226,285.565" stroke="#262626" stroke-dasharray="16,0" stroke-linecap="square" stroke-linejoin="miter" stroke-width="0.5"/>
   <polyline fill="none" points="48.7287,24.0645 339.226,24.0645" stroke="#262626" stroke-dasharray="16,0" stroke-linecap="square" stroke-linejoin="miter" stroke-width="0.5"/>
   <polyline fill="none" points="48.7287,285.565 48.7287,24.0645" stroke="#262626" stroke-dasharray="16,0" stroke-linecap="square" stroke-linejoin="miter" stroke-width="0.5"/>
   <polyline fill="none" points="339.226,285.565 339.226,24.0645" stroke="#262626" stroke-dasharray="16,0" stroke-linecap="square" stroke-linejoin="miter" stroke-width="0.5"/>
   <g font-family="FreeSans" font-size="11" font-style="normal" font-weight="normal" transform="translate(101.978,318.051) rotate(-0,92,-12)" xml:space="preserve">
    <text fill="rgb(38,38,38)" x="0 8 14 18 27 33 35 37 42 48 54 57 64 68 74 80 86 92 98 104 109 112 116 122 124 127 131 137 143 146 151 157 166 172 174 180 " y="-3">Normalized Frequency (pi rad/sample)</text>
   </g>
   <g font-family="FreeSans" font-size="11" font-style="normal" font-weight="normal" transform="translate(14.2201,154.815) rotate(-90,12.5,0)" xml:space="preserve">
    <text fill="rgb(38,38,38)" x="0 7 11 15 21 " y="-0">Error</text>
   </g>
   <g font-family="FreeSans" font-size="11" font-style="normal" font-weight="bold" transform="translate(25.4776,14.0645) rotate(-0,168.5,0)" xml:space="preserve">
    <text fill="rgb(0,0,0)" x="0 8 12 19 22 25 32 36 40 43 46 49 56 60 67 73 77 83 89 95 98 101 111 117 123 130 133 139 143 147 150 154 157 163 167 173 179 182 188 194 200 203 206 216 222 228 235 238 244 248 252 255 264 270 273 280 287 291 297 304 310 316 319 325 331 " y="-3">Grd. Err., order=79, mean err flat=0.859, mean err weighted=0.868</text>
   </g>
   <polyline fill="none" points="48.7287,285.449 49.2961,285.456 49.8634,285.474 50.4308,285.499 50.9982,285.527 51.5656,285.549 52.1329,285.563 52.7003,285.564 53.2677,285.553 53.8351,285.532 54.4025,285.507 54.9698,285.484 55.5372,285.468 56.1046,285.463 56.672,285.47 57.2394,285.487 57.8067,285.511 58.3741,285.536 58.9415,285.555 59.5089,285.564 60.0762,285.562 60.6436,285.548 61.211,285.525 61.7784,285.499 62.3458,285.476 62.9131,285.46 63.4805,285.455 64.0479,285.463 64.6153,285.481 65.1827,285.506 65.75,285.531 66.3174,285.552 66.8848,285.563 67.4522,285.564 68.0195,285.553 68.5869,285.534 69.1543,285.513 69.7217,285.494 70.2891,285.481 70.8564,285.479 71.4238,285.487 71.9912,285.503 72.5586,285.524 73.1259,285.544 73.6933,285.559 74.2607,285.565 74.8281,285.561 75.3955,285.547 75.9628,285.527 76.5302,285.505 77.0976,285.486 77.665,285.474 78.2324,285.472 78.7997,285.48 79.3671,285.496 79.9345,285.517 80.5019,285.538 81.0692,285.554 81.6366,285.564 82.204,285.564 82.7714,285.557 83.3388,285.544 83.9061,285.531 84.4735,285.519 85.0409,285.513 85.6083,285.514 86.1757,285.521 86.743,285.533 87.3104,285.547 87.8778,285.558 88.4452,285.564 89.0126,285.564 89.5799,285.555 90.1473,285.541 90.7147,285.523 91.2821,285.506 91.8494,285.492 92.4168,285.484 92.9842,285.484 93.5516,285.49 94.1189,285.503 94.6863,285.518 95.2537,285.534 95.8211,285.548 96.3885,285.558 96.9558,285.563 97.5232,285.565 98.0906,285.564 98.658,285.562 99.2254,285.56 99.7927,285.56 100.36,285.561 100.927,285.563 101.495,285.564 102.062,285.565 102.63,285.564 103.197,285.56 103.764,285.555 104.332,285.549 104.899,285.544 105.467,285.539 106.034,285.537 106.601,285.537 107.169,285.54 107.736,285.544 108.303,285.548 108.871,285.553 109.438,285.557 110.006,285.56 110.573,285.562 111.14,285.563 111.708,285.563 112.275,285.562 112.842,285.561 113.41,285.559 113.977,285.556 114.545,285.552 115.112,285.548 115.679,285.545 116.247,285.544 116.814,285.546 117.381,285.551 117.949,285.558 118.516,285.564 119.084,285.564 119.651,285.555 120.218,285.532 120.786,285.492 121.353,285.435 121.921,285.365 122.488,285.29 123.055,285.219 123.623,285.165 124.19,285.137 124.757,285.142 125.325,285.18 125.892,285.245 126.46,285.326 127.027,285.41 127.594,285.483 128.162,285.534 128.729,285.56 129.296,285.564 129.864,285.555 130.431,285.543 130.999,285.537 131.566,285.543 132.133,285.556 132.701,285.565 133.268,285.553 133.835,285.506 134.403,285.426 134.97,285.333 135.538,285.276 136.105,285.311 136.672,285.451 137.24,285.565 137.807,285.208 138.374,283.397 138.942,278.382 139.509,267.533 140.077,247.57 140.644,215.399 141.211,169.811 141.779,113.887 142.346,57.1632 142.801,23.8029" stroke="#0071bc" stroke-linecap="butt" stroke-linejoin="round" stroke-width="0.5"/>
   <polyline fill="none" points="143.771,23.8029 144.048,40.3668 144.616,110.954 145.183,194.705 145.75,260.471 146.318,285.523 146.885,267.269 147.453,223.143 148.02,179.19 148.587,155.491 149.155,158.01 149.722,180.301 150.289,210.885 150.857,239.909 151.424,262.002 151.992,275.939 152.559,283.003 153.126,285.41 153.694,285.302 154.261,284.281 154.828,283.312 155.396,282.815 155.963,282.837 156.531,283.219 157.098,283.75 157.665,284.253 158.233,284.63 158.8,284.853 159.367,284.93 159.935,284.87 160.502,284.663 161.07,284.295 161.637,283.775 162.204,283.168 162.772,282.603 163.339,282.25 163.907,282.27 164.474,282.734 165.041,283.572 165.609,284.545 166.176,285.311 166.743,285.562 167.311,285.229 167.878,284.619 168.446,284.317 169.013,284.733 169.58,285.472 170.148,285.105 170.715,281.901 171.282,275.294 171.85,266.855 172.417,259.73 172.985,256.814 173.552,259.131 174.119,265.511 174.687,273.465 175.254,280.427 175.821,284.639 176.389,285.453 176.956,283.184 177.524,278.758 178.091,273.333 178.658,267.998 179.226,263.584 179.793,260.584 180.36,259.165 180.928,259.224 181.495,260.489 182.063,262.607 182.63,265.216 183.197,268.004 183.765,270.727 184.332,273.221 184.9,275.396 185.467,277.217 186.034,278.689 186.602,279.845 187.169,280.727 187.736,281.383 188.304,281.859 188.871,282.193 189.439,282.423 190.006,282.578 190.573,282.686 191.141,282.769 191.708,282.849 192.275,282.941 192.843,283.058 193.41,283.206 193.978,283.386 194.545,283.595 195.112,283.824 195.68,284.062 196.247,284.299 196.814,284.524 197.382,284.727 197.949,284.904 198.517,285.052 199.084,285.171 199.651,285.263 200.219,285.332 200.786,285.381 201.354,285.416 201.921,285.44 202.488,285.455 203.056,285.464 203.623,285.468 204.19,285.471 204.758,285.471 205.325,285.472 205.893,285.473 206.46,285.476 207.027,285.48 207.595,285.487 208.162,285.495 208.729,285.504 209.297,285.513 209.864,285.522 210.432,285.53 210.999,285.536 211.566,285.542 212.134,285.545 212.701,285.548 213.268,285.549 213.836,285.55 214.403,285.55 214.971,285.548 215.538,285.547 216.105,285.545 216.673,285.543 217.24,285.542 217.807,285.541 218.375,285.541 218.942,285.543 219.51,285.545 220.077,285.549 220.644,285.553 221.212,285.557 221.779,285.561 222.346,285.563 222.914,285.565 223.481,285.565 224.049,285.565 224.616,285.564 225.183,285.564 225.751,285.564 226.318,285.564 226.886,285.565 227.453,285.565 228.02,285.565 228.588,285.563 229.155,285.56 229.722,285.556 230.29,285.551 230.857,285.545 231.425,285.54 231.992,285.536 232.559,285.534 233.127,285.535 233.694,285.538 234.261,285.543 234.829,285.549 235.396,285.555 235.964,285.56 236.531,285.563 237.098,285.565 237.666,285.565 238.233,285.563 238.8,285.561 239.368,285.56 239.935,285.559 240.503,285.559 241.07,285.561 241.637,285.562 242.205,285.564 242.772,285.565 243.339,285.564 243.907,285.561 244.474,285.557 245.042,285.552 245.609,285.546 246.176,285.541 246.744,285.537 247.311,285.537 247.879,285.538 248.446,285.542 249.013,285.548 249.581,285.553 250.148,285.559 250.715,285.563 251.283,285.565 251.85,285.565 252.418,285.563 252.985,285.56 253.552,285.557 254.12,285.555 254.687,285.555 255.254,285.556 255.822,285.558 256.389,285.561 256.957,285.563 257.524,285.565 258.091,285.565 258.659,285.563 259.226,285.559 259.793,285.554 260.361,285.549 260.928,285.545 261.496,285.543 262.063,285.542 262.63,285.544 263.198,285.548 263.765,285.553 264.333,285.557 264.9,285.562 265.467,285.564 266.035,285.565 266.602,285.564 267.169,285.562 267.737,285.559 268.304,285.556 268.872,285.555 269.439,285.555 270.006,285.556 270.574,285.558 271.141,285.561 271.708,285.563 272.276,285.565 272.843,285.565 273.411,285.563 273.978,285.561 274.545,285.557 275.113,285.553 275.68,285.551 276.247,285.549 276.815,285.549 277.382,285.551 277.95,285.553 278.517,285.557 279.084,285.56 279.652,285.563 280.219,285.565 280.786,285.565 281.354,285.564 281.921,285.562 282.489,285.56 283.056,285.558 283.623,285.557 284.191,285.557 284.758,285.558 285.326,285.559 285.893,285.562 286.46,285.564 287.028,285.565 287.595,285.565 288.162,285.564 288.73,285.562 289.297,285.56 289.865,285.557 290.432,285.556 290.999,285.555 291.567,285.555 292.134,285.556 292.701,285.558 293.269,285.56 293.836,285.563 294.404,285.564 294.971,285.565 295.538,285.565 296.106,285.564 296.673,285.562 297.24,285.561 297.808,285.56 298.375,285.559 298.943,285.56 299.51,285.56 300.077,285.562 300.645,285.563 301.212,285.564 301.779,285.565 302.347,285.565 302.914,285.564 303.482,285.563 304.049,285.562 304.616,285.561 305.184,285.56 305.751,285.56 306.319,285.56 306.886,285.561 307.453,285.562 308.021,285.563 308.588,285.564 309.155,285.565 309.723,285.565 310.29,285.565 310.858,285.564 311.425,285.563 311.992,285.563 312.56,285.562 313.127,285.562 313.694,285.562 314.262,285.563 314.829,285.563 315.397,285.564 315.964,285.565 316.531,285.565 317.099,285.565 317.666,285.565 318.233,285.564 318.801,285.564 319.368,285.564 319.936,285.563 320.503,285.563 321.07,285.564 321.638,285.564 322.205,285.564 322.772,285.565 323.34,285.565 323.907,285.565 324.475,285.565 325.042,285.565 325.609,285.565 326.177,285.564 326.744,285.565 327.312,285.565 327.879,285.565 328.446,285.565 329.014,285.565 329.581,285.564 330.148,285.562 330.716,285.56 331.283,285.556 331.851,285.551 332.418,285.545 332.985,285.538 333.553,285.531 334.12,285.523 334.687,285.515 335.255,285.508 335.822,285.501 336.39,285.494 336.957,285.489 337.524,285.484 338.092,285.481 338.659,285.479" stroke="#0071bc" stroke-linecap="butt" stroke-linejoin="round" stroke-width="0.5"/>
   <polyline fill="none" points="77.7785,285.565 79.3382,285.565 80.8979,285.565 82.4576,285.565 84.0173,285.565 85.577,285.564 87.1368,285.564 88.6965,285.564 90.2562,285.564 91.8159,285.564 93.3757,285.564 94.9354,285.563 96.4951,285.561 98.0548,285.559 99.6145,285.558 101.174,285.557 102.734,285.556 104.294,285.555 105.853,285.554 107.413,285.551 108.973,285.545 110.533,285.538 112.092,285.531 113.652,285.525 115.212,285.519 116.771,285.507 118.331,285.473 119.891,285.395 121.451,285.246 123.01,285.029 124.57,284.817 126.13,284.727 127.689,284.819 129.249,284.985 130.809,285.026 132.369,284.747 133.928,284.001 135.488,283.256 137.048,284.424 138.608,284.434 140.167,253.898 141.727,144.068 143.287,47.8372 144.846,177.351 146.406,282.816 147.966,162.348 149.526,150.312 151.085,235.648 152.645,279.303 154.205,285.565 155.764,285.172 157.324,285.5 158.884,285.528 160.444,285.553 162.003,285.397 163.563,284.976 165.123,285.432 166.682,284.91 168.242,282.722 169.802,284.807 171.362,283.751 172.921,279.315 174.481,282.906 176.041,285.558 177.601,283.473 179.16,281.281 180.72,281.167 182.28,282.365 183.839,283.65 185.399,284.504 186.959,284.958 188.519,285.174 190.078,285.278 191.638,285.337 193.198,285.385 194.757,285.431 196.317,285.473 197.877,285.506 199.437,285.527 200.996,285.539 202.556,285.546 204.116,285.549 205.675,285.552 207.235,285.554 208.795,285.556 210.355,285.558 211.914,285.559 213.474,285.56 215.034,285.561 216.594,285.562 218.153,285.562 219.713,285.563 221.273,285.563 222.832,285.564 224.392,285.564 225.952,285.564 227.512,285.564 229.071,285.564 230.631,285.565 232.191,285.565 233.75,285.565 235.31,285.565 236.87,285.565 238.43,285.565 239.989,285.565 241.549,285.565 243.109,285.565 244.668,285.565 246.228,285.565 247.788,285.565 249.348,285.565 250.907,285.565 252.467,285.565 254.027,285.565 255.587,285.565 257.146,285.565 258.706,285.565 260.266,285.565 261.825,285.565 263.385,285.565 264.945,285.565 266.505,285.565 268.064,285.565 269.624,285.565 271.184,285.565 272.743,285.565 274.303,285.565 275.863,285.565 277.423,285.565 278.982,285.565 280.542,285.565 282.102,285.565 283.661,285.565 285.221,285.565 286.781,285.565 288.341,285.565 289.9,285.565 291.46,285.565 293.02,285.565 294.579,285.565 296.139,285.565 297.699,285.565 299.259,285.565 300.818,285.565 302.378,285.565 303.938,285.565 305.498,285.565 307.057,285.565 308.617,285.565 310.177,285.565" stroke="#d85218" stroke-linecap="butt" stroke-linejoin="round" stroke-width="0.5"/>
   <polyline fill="none" points="77.7785,285.564 79.3382,285.564 80.8979,285.565 82.4576,285.564 84.0173,285.563 85.577,285.562 87.1368,285.561 88.6965,285.559 90.2562,285.556 91.8159,285.553 93.3757,285.55 94.9354,285.545 96.4951,285.539 98.0548,285.532 99.6145,285.524 101.174,285.514 102.734,285.501 104.294,285.485 105.853,285.466 107.413,285.441 108.973,285.412 110.533,285.372 112.092,285.322 113.652,285.26 115.212,285.18 116.771,285.079 118.331,284.939 119.891,284.754 121.451,284.512 123.01,284.194 124.57,283.773 126.13,283.183 127.689,282.444 129.249,281.595 130.809,280.71 132.369,279.933 133.928,279.456 135.488,279.184 137.048,279.053 138.608,279 140.167,278.978 141.727,278.958 143.287,278.935 144.846,278.907 146.406,278.876 147.966,278.842 149.526,278.806 151.085,278.771 152.645,278.738 154.205,278.707 155.764,278.682 157.324,278.669 158.884,278.678 160.444,278.731 162.003,278.857 163.563,279.12 165.123,279.609 166.682,280.273 168.242,281.048 169.802,281.856 171.362,282.592 172.921,283.19 174.481,283.676 176.041,284.065 177.601,284.371 179.16,284.603 180.72,284.781 182.28,284.924 183.839,285.039 185.399,285.132 186.959,285.205 188.519,285.263 190.078,285.312 191.638,285.352 193.198,285.386 194.757,285.413 196.317,285.436 197.877,285.455 199.437,285.471 200.996,285.485 202.556,285.497 204.116,285.506 205.675,285.515 207.235,285.522 208.795,285.528 210.355,285.534 211.914,285.538 213.474,285.542 215.034,285.546 216.594,285.549 218.153,285.551 219.713,285.554 221.273,285.556 222.832,285.557 224.392,285.559 225.952,285.56 227.512,285.561 229.071,285.562 230.631,285.563 232.191,285.564 233.75,285.564 235.31,285.565 236.87,285.565 238.43,285.564 239.989,285.564 241.549,285.564 243.109,285.564 244.668,285.563 246.228,285.563 247.788,285.563 249.348,285.563 250.907,285.563 252.467,285.563 254.027,285.563 255.587,285.563 257.146,285.563 258.706,285.563 260.266,285.563 261.825,285.563 263.385,285.563 264.945,285.563 266.505,285.563 268.064,285.563 269.624,285.563 271.184,285.563 272.743,285.563 274.303,285.564 275.863,285.564 277.423,285.564 278.982,285.564 280.542,285.564 282.102,285.564 283.661,285.564 285.221,285.564 286.781,285.564 288.341,285.564 289.9,285.564 291.46,285.565 293.02,285.565 294.579,285.565 296.139,285.565 297.699,285.565 299.259,285.565 300.818,285.565 302.378,285.565 303.938,285.565 305.498,285.565 307.057,285.565 308.617,285.564 310.177,285.564" stroke="#ecb01f" stroke-linecap="butt" stroke-linejoin="round" stroke-width="0.5"/>
  </g>
  <clipPath id="cp00374320">
   <polygon points="0,320 374,320 374,0 0,0"/>
  </clipPath>
  <g clip-path="url(#cp00374320)">
   <polygon fill="#ffffff" points="225.209,76.4787 331.223,76.4787 331.223,32.068 225.209,32.068" shape-rendering="crispEdges"/>
   <polyline fill="none" points="225.209,76.4787 331.223,76.4787" stroke="#262626" stroke-dasharray="16,0" stroke-linecap="square" stroke-linejoin="miter" stroke-width="0.5"/>
   <polyline fill="none" points="225.209,32.068 331.223,32.068" stroke="#262626" stroke-dasharray="16,0" stroke-linecap="square" stroke-linejoin="miter" stroke-width="0.5"/>
   <polyline fill="none" points="225.209,76.4787 225.209,32.068" stroke="#262626" stroke-dasharray="16,0" stroke-linecap="square" stroke-linejoin="miter" stroke-width="0.5"/>
   <polyline fill="none" points="331.223,76.4787 331.223,32.068" stroke="#262626" stroke-dasharray="16,0" stroke-linecap="square" stroke-linejoin="miter" stroke-width="0.5"/>
   <polyline fill="none" points="229.211,40.2715 249.219,40.2715" stroke="#0071bc" stroke-linecap="butt" stroke-linejoin="round" stroke-width="0.5"/>
   <g font-family="FreeSans" font-size="9" font-style="normal" font-weight="normal" transform="translate(253.221,44.2716) rotate(-0,-0,-4)" xml:space="preserve">
    <text fill="rgb(0,0,0)" x="0 6 9 12 14 19 21 26 " y="-0">Err Flat</text>
   </g>
   <polyline fill="none" points="229.211,53.4752 249.219,53.4752" stroke="#d85218" stroke-linecap="butt" stroke-linejoin="round" stroke-width="0.5"/>
   <g font-family="FreeSans" font-size="9" font-style="normal" font-weight="normal" transform="translate(253.221,58.4751) rotate(-0,-0,-5)" xml:space="preserve">
    <text fill="rgb(0,0,0)" x="0 6 9 12 14 22 27 29 34 39 42 47 52 54 56 58 60 62 64 66 68 70 72 " y="-2">Err Weighted           </text>
   </g>
   <polyline fill="none" points="229.211,67.4769 249.219,67.4769" stroke="#ecb01f" stroke-linecap="butt" stroke-linejoin="round" stroke-width="0.5"/>
   <g font-family="FreeSans" font-size="9" font-style="normal" font-weight="normal" transform="translate(253.221,72.4769) rotate(-0,-0,-5)" xml:space="preserve">
    <text fill="rgb(0,0,0)" x="0 6 9 12 14 22 27 29 34 39 42 " y="-2">Err Weights</text>
   </g>
  </g>
 </g>
</svg>
