<?xml version='1.0' encoding='UTF-8' standalone='no'?>
<svg height="470pt" viewBox="0 0 524 470" width="524pt" xmlns="http://www.w3.org/2000/svg" xmlns:xlink="http://www.w3.org/1999/xlink">
 <title>Figure 9</title>
 <desc>
Creator: GL2PS 1.4.2, (C) 1999-2020 C. Geuzaine
For: Octave
CreationDate: Thu Feb 12 10:59:56 2026
</desc>
 <defs/>
 <polygon fill="#ffffff" points="0,0 524,0 524,470 0,470"/>
 <g>
  <polygon fill="#ffffff" points="0,470 524,470 524,0 0,0" shape-rendering="crispEdges"/>
  <clipPath id="cp00524470">
   <polygon points="0,470 524,470 524,0 0,0"/>
  </clipPath>
  <g clip-path="url(#cp00524470)">
   <polyline fill="none" points="48.5701,363.194 48.3598,362.597" stroke="#ff0000" stroke-linecap="butt" stroke-linejoin="miter" stroke-opacity="0" stroke-width="0.5"/>
   <polyline fill="none" points="48.5701,363.194 48.3598,362.597" stroke="#ff0000" stroke-linecap="butt" stroke-linejoin="miter" stroke-opacity="0" stroke-width="0.5"/>
   <polyline fill="none" points="48.5701,363.194 48.3598,362.597" stroke="#ff0000" stroke-linecap="butt" stroke-linejoin="miter" stroke-opacity="0" stroke-width="0.5"/>
   <polyline fill="none" points="48.5701,363.194 48.3598,362.597" stroke="#ff0000" stroke-linecap="butt" stroke-linejoin="miter" stroke-opacity="0" stroke-width="0.5"/>
   <polyline fill="none" points="48.5701,363.194 48.3598,362.597" stroke="#ff0000" stroke-linecap="butt" stroke-linejoin="miter" stroke-opacity="0" stroke-width="0.5"/>
   <polyline fill="none" points="48.5701,363.194 48.3598,362.597" stroke="#ff0000" stroke-linecap="butt" stroke-linejoin="miter" stroke-opacity="0" stroke-width="0.5"/>
   <g font-family="FreeSans" font-size="10" font-style="normal" font-weight="normal" transform="translate(65.2201,434.501) rotate(-0,3,-8)" xml:space="preserve">
    <text fill="rgb(38,38,38)" x="0 " y="-0">0</text>
   </g>
   <g font-family="FreeSans" font-size="10" font-style="normal" font-weight="normal" transform="translate(142.06,434.501) rotate(-0,7.5,-8)" xml:space="preserve">
    <text fill="rgb(38,38,38)" x="0 6 9 " y="-0">0.2</text>
   </g>
   <g font-family="FreeSans" font-size="10" font-style="normal" font-weight="normal" transform="translate(223.399,434.501) rotate(-0,7.5,-8)" xml:space="preserve">
    <text fill="rgb(38,38,38)" x="0 6 9 " y="-0">0.4</text>
   </g>
   <g font-family="FreeSans" font-size="10" font-style="normal" font-weight="normal" transform="translate(304.738,434.501) rotate(-0,7.5,-8)" xml:space="preserve">
    <text fill="rgb(38,38,38)" x="0 6 9 " y="-0">0.6</text>
   </g>
   <g font-family="FreeSans" font-size="10" font-style="normal" font-weight="normal" transform="translate(386.078,434.501) rotate(-0,7.5,-8)" xml:space="preserve">
    <text fill="rgb(38,38,38)" x="0 6 9 " y="-0">0.8</text>
   </g>
   <g font-family="FreeSans" font-size="10" font-style="normal" font-weight="normal" transform="translate(471.917,434.501) rotate(-0,3,-8)" xml:space="preserve">
    <text fill="rgb(38,38,38)" x="0 " y="-0">1</text>
   </g>
   <polyline fill="none" points="28.9201,307.382 28.9201,307.382" stroke="#ff0000" stroke-linecap="butt" stroke-linejoin="miter" stroke-opacity="0" stroke-width="0.5"/>
   <polyline fill="none" points="28.9201,307.382 28.9201,307.382" stroke="#ff0000" stroke-linecap="butt" stroke-linejoin="miter" stroke-opacity="0" stroke-width="0.5"/>
   <polyline fill="none" points="42.0202,344.59 42.0202,344.59" stroke="#ff0000" stroke-linecap="butt" stroke-linejoin="miter" stroke-opacity="0" stroke-width="0.5"/>
   <polyline fill="none" points="42.0202,344.59 42.0202,344.59" stroke="#ff0000" stroke-linecap="butt" stroke-linejoin="miter" stroke-opacity="0" stroke-width="0.5"/>
   <polyline fill="none" points="48.5701,363.194 48.5701,363.194" stroke="#ff0000" stroke-linecap="butt" stroke-linejoin="miter" stroke-opacity="0" stroke-width="0.5"/>
   <polyline fill="none" points="48.5701,363.194 48.5701,363.194" stroke="#ff0000" stroke-linecap="butt" stroke-linejoin="miter" stroke-opacity="0" stroke-width="0.5"/>
   <g font-family="FreeSans" font-size="10" font-style="normal" font-weight="normal" transform="translate(57.2239,423.007) rotate(-0,6,-4)" xml:space="preserve">
    <text fill="rgb(38,38,38)" x="0 " y="-0">0</text>
   </g>
   <g font-family="FreeSans" font-size="10" font-style="normal" font-weight="normal" transform="translate(48.2239,327.082) rotate(-0,15,-4)" xml:space="preserve">
    <text fill="rgb(38,38,38)" x="0 6 9 " y="-0">0.5</text>
   </g>
   <g font-family="FreeSans" font-size="10" font-style="normal" font-weight="normal" transform="translate(57.2239,231.158) rotate(-0,6,-4)" xml:space="preserve">
    <text fill="rgb(38,38,38)" x="0 " y="-0">1</text>
   </g>
   <g font-family="FreeSans" font-size="10" font-style="normal" font-weight="normal" transform="translate(48.2239,135.234) rotate(-0,15,-4)" xml:space="preserve">
    <text fill="rgb(38,38,38)" x="0 6 9 " y="-0">1.5</text>
   </g>
   <g font-family="FreeSans" font-size="10" font-style="normal" font-weight="normal" transform="translate(57.2239,39.3095) rotate(-0,6,-4)" xml:space="preserve">
    <text fill="rgb(38,38,38)" x="0 " y="-0">2</text>
   </g>
   <g font-family="FreeSans" font-size="11" font-style="normal" font-weight="normal" transform="translate(177.069,451.501) rotate(-0,94.5,-12)" xml:space="preserve">
    <text fill="rgb(38,38,38)" x="0 8 14 18 27 33 35 37 42 48 54 57 64 68 74 80 86 92 98 104 109 112 116 122 129 132 136 142 148 151 156 162 171 177 179 185 " y="-3">Normalized Frequency (×π rad/sample)</text>
   </g>
   <g font-family="FreeSans" font-size="11" font-style="normal" font-weight="normal" transform="translate(30.7239,227.158) rotate(-90,12.5,0)" xml:space="preserve">
    <text fill="rgb(38,38,38)" x="0 7 11 15 21 " y="-0">Error</text>
   </g>
   <g font-family="FreeSans" font-size="11" font-style="normal" font-weight="bold" transform="translate(53.5686,25.3095) rotate(-0,218,0)" xml:space="preserve">
    <text fill="rgb(0,0,0)" x="0 8 12 19 26 33 36 44 50 53 59 65 68 75 79 83 90 94 97 100 107 111 118 124 128 134 140 146 152 155 158 168 174 180 187 190 196 200 204 207 211 214 220 224 230 236 239 245 251 257 263 269 275 281 284 287 297 303 309 316 319 325 329 333 336 345 351 354 361 368 372 378 385 391 397 400 406 412 418 424 430 " y="-3">Group Delay Error, order=241, mean err flat=0.0347462, mean err weighted=0.033691</text>
   </g>
   <polyline fill="none" points="262,88.125 262,88.125 262,88.125 262,88.125 262,88.1251 262,88.125 262,88.125 262,88.125 262,88.125 262,88.125 262,88.125 262,88.125 262,88.125 262,88.1251 262,88.125 262,88.125 262,88.125 262,88.125 262,88.125 262,88.125 262,88.125 262,88.1251 262,88.1251 262,88.125 262,88.125 262,88.125 262,88.125 262,88.125 262,88.125 262,88.1251 262,88.1251 262,88.1251 262,88.125 262,88.125 262,88.125 262,88.125 262,88.125 262,88.1251 262,88.1252 262,88.1252 262,88.1251 262,88.125 262,88.125 262,88.125 262,88.125 262,88.1251 262,88.1252 262,88.1253 262,88.1252 262,88.125 262,88.125 262,88.125 262,88.125 262,88.1251 262,88.1253 262,88.1255 262,88.1255 262,88.1253 262,88.1251 262,88.125 262,88.125 262,88.1251 262,88.1255 261.999,88.126 261.999,88.1263 261.999,88.1261 262,88.1256 262,88.1253 262,88.1252 262,88.1254 261.999,88.1261 261.999,88.1272 261.998,88.1283 261.998,88.1285 261.998,88.128 261.999,88.1272 261.999,88.1269 261.999,88.1274 261.998,88.1292 261.996,88.1324 261.993,88.1363 261.992,88.1393 261.991,88.1404 261.991,88.1401 261.991,88.1401 261.99,88.1422 261.987,88.1477 261.981,88.1569 261.975,88.1679 261.97,88.1768 261.968,88.1795 261.97,88.1756 261.975,88.1682 261.979,88.1617 261.98,88.1584 261.98,88.1588 261.979,88.1609 261.979,88.1616 261.981,88.158 261.985,88.1499 261.991,88.1405 261.995,88.1335 261.997,88.1299 261.998,88.1292 261.997,88.1303 261.996,88.1322 261.995,88.1329 261.996,88.131 261.999,88.1275 262,88.1253 262,88.1251 262,88.1255 262,88.1253 262,88.125 262,88.1251 262,88.1251 262,88.1252 261.998,88.1277 261.995,88.1334 261.992,88.1392 261.991,88.1409 261.992,88.1385 261.994,88.1354 261.994,88.1349 261.992,88.1393 261.985,88.1513 261.973,88.1716 261.959,88.1949 261.949,88.2117 261.946,88.2169 261.947,88.2149 261.946,88.2164 261.937,88.2322 261.914,88.2712 261.875,88.3378 261.824,88.4258 261.77,88.5181 261.722,88.5992 261.68,88.671 261.629,88.7578 261.547,88.8992 261.406,89.1389 261.187,89.5132 260.881,90.0352 260.498,90.6902 260.049,91.4568 259.526,92.3485 258.883,93.4474 258.029,94.9056 256.852,96.9146 255.249,99.6531 253.15,103.236 250.539,107.694 247.432,113 243.864,119.092 239.936,125.799 235.939,132.625 232.537,138.433 230.886,141.252 232.557,138.4 239.062,127.291 250.362,107.996 260.964,89.8948 256.482,97.5468 227.422,147.168 188.724,213.245 158.914,264.145 142.218,292.654 136.606,302.237 140.799,295.078 155.863,269.355 184.012,221.29 222.273,155.959 253.609,102.453 261.835,88.4066 254.405,101.093 245.344,116.566 240.239,125.281 239.1,127.228 240.435,124.947 242.926,120.694 245.819,115.754 248.792,110.679 251.667,105.768 254.244,101.369 256.305,97.8496 257.739,95.4014 258.59,93.948 259.013,93.225 259.202,92.903 259.333,92.6797 259.515,92.3682 259.754,91.9597 259.973,91.5869 260.077,91.4088 260.01,91.5229 259.764,91.9427 259.376,92.606 258.901,93.4164 258.368,94.3267 257.732,95.4133 256.882,96.864 255.712,98.862 254.225,101.401 252.644,104.1 251.436,106.163 251.188,106.587 252.381,104.55 255.129,99.8567 258.859,93.4886 261.77,88.5185 260.356,90.9316 250.495,107.771 231.441,140.305 208.473,179.523 188.841,213.045 176.794,233.616 173.537,239.176 179.206,229.497 193.603,204.913 215.027,168.332 238.208,128.75 255.286,99.5891 261.84,88.3985 260.095,91.377 254.967,100.134 250.011,108.596 246.776,114.12 245.541,116.229 245.972,115.493 247.495,112.892 249.524,109.429 251.601,105.882 253.467,102.695 255.04,100.009 256.345,97.7818 257.438,95.9142 258.368,94.3273 259.152,92.9879 259.795,91.8897 260.302,91.024 260.689,90.3632 260.981,89.8643 261.205,89.4822 261.381,89.1818 261.521,88.9428 261.63,88.7562 261.712,88.6168 261.77,88.5174 261.811,88.4475 261.842,88.3952 261.868,88.3505 261.893,88.3084 261.916,88.2692 261.935,88.2363 261.949,88.2125 261.957,88.1979 261.962,88.1899 261.965,88.1844 261.969,88.1773 261.975,88.1669 261.983,88.1547 261.989,88.1438 261.993,88.1367 261.995,88.1334 261.995,88.1328 261.995,88.1333 261.995,88.1334 261.996,88.1317 261.998,88.1285 262,88.1259 262,88.125 262,88.1252 262,88.1253 262,88.1251 262,88.125 262,88.125 262,88.1252 261.999,88.1266 261.997,88.1299 261.995,88.1336 261.994,88.1353 261.995,88.1343 261.996,88.1325 261.996,88.1316 261.995,88.1331 261.992,88.1379 261.988,88.1461 261.982,88.1555 261.979,88.1616 261.978,88.1617 261.981,88.1573 261.984,88.1522 261.986,88.1497 261.985,88.1512 261.982,88.156 261.979,88.1615 261.977,88.1635 261.98,88.1594 261.985,88.1506 261.99,88.1414 261.994,88.1353 261.995,88.1327 261.995,88.1331 261.994,88.1351 261.993,88.137 261.993,88.1366 261.995,88.1334 261.997,88.1294 261.999,88.1267 262,88.1257 262,88.1257 261.999,88.1266 261.998,88.1281 261.998,88.1292 261.998,88.1287 261.999,88.1269 262,88.1254 262,88.125 262,88.125 262,88.1251 262,88.1257 261.999,88.1267 261.999,88.1271 261.999,88.1263 262,88.1253 262,88.125 262,88.1251 262,88.125 262,88.125 262,88.1256 261.999,88.1263 261.999,88.1262 262,88.1254 262,88.125 262,88.1252 262,88.1253 262,88.125 262,88.1251 262,88.1257 261.999,88.126 262,88.1255 262,88.125 262,88.1251 262,88.1253 262,88.1252 262,88.125 262,88.1253 262,88.1257 262,88.1256 262,88.1252 262,88.125 262,88.1253 262,88.1253 262,88.1251 262,88.125 262,88.1254 262,88.1256 262,88.1253 262,88.125 262,88.1252 262,88.1254 262,88.1252 262,88.125 262,88.1252 262,88.1255 262,88.1254 262,88.1251 262,88.125 262,88.1253 262,88.1253 262,88.1251 262,88.125 262,88.1253 262,88.1255 262,88.1252 262,88.125 262,88.1252 262,88.1253 262,88.1252 262,88.125 262,88.1251 262,88.1253 262,88.1253 262,88.125 262,88.125 262,88.1252 262,88.1253 262,88.1251 262,88.125 262,88.1252 262,88.1253 262,88.1252 262,88.125 262,88.1251 262,88.1253 262,88.1252 262,88.125 262,88.1251 262,88.1253 262,88.1252 262,88.125 262,88.125 262,88.1252 262,88.1252 262,88.1251 262,88.125 262,88.1252 262,88.1252 262,88.1251 262,88.125 262,88.1251 262,88.1252 262,88.1251 262,88.125 262,88.125 262,88.1252 262,88.1252 262,88.125 262,88.125 262,88.1252 262,88.1252 262,88.125 262,88.125 262,88.1251 262,88.1252 262,88.1251 262,88.125 262,88.1251 262,88.1252 262,88.1251 262,88.125 262,88.125 262,88.1251 262,88.1251 262,88.125 262,88.125 262,88.1251 262,88.1251 262,88.125 262,88.125 262,88.1251 262,88.1251 262,88.125 262,88.125 262,88.125 262,88.1251 262,88.125 262,88.125 262,88.125 262,88.1251 262,88.1251 262,88.125 262,88.125 262,88.125 262,88.1251 262,88.125 262,88.125 262,88.125 262,88.125 262,88.125 262,88.125 262,88.125 262,88.125 262,88.125 262,88.125 262,88.125 262,88.125 262,88.125 262,88.125 262,88.125 262,88.125 262,88.125 262,88.125 262,88.125 262,88.125 262,88.125 262,88.125 262,88.125 262,88.125 262,88.125 262,88.125 262,88.125 262,88.125 262,88.125 262,88.125 262,88.125 262,88.125 262,88.125 262,88.125 262,88.125 262,88.125 262,88.125 262,88.125 262,88.125 262,88.125 262,88.125 262,88.125 262,88.125 262,88.125 262,88.125 262,88.125 262,88.125 262,88.125 262,88.125 262,88.125 262,88.125 262,88.125 262,88.125 262,88.125 262,88.125 262,88.125" stroke="#ff0000" stroke-linecap="butt" stroke-linejoin="round" stroke-opacity="0" stroke-width="0.5"/>
   <polyline fill="none" points="262,88.125 262,88.125 262,88.125 262,88.125 262,88.125 262,88.125 262,88.125 262,88.125 262,88.125 262,88.125 262,88.125 262,88.125 262,88.1251 262,88.1252 262,88.1253 262,88.1253 262,88.1254 262,88.1254 262,88.1252 262,88.1251 262,88.1252 262,88.125 262,88.125 262,88.125 262,88.1252 261.999,88.1259 262,88.1257 261.997,88.1294 261.992,88.1378 261.99,88.1427 261.969,88.1775 261.911,88.2768 261.819,88.4336 261.509,88.9628 260.661,90.4122 259.012,93.2279 255.328,99.5175 248.077,111.898 237.716,129.59 232.68,138.189 254.392,101.116 228.335,145.608 147.468,283.689 148.112,282.59 229.395,143.799 255.482,99.2543 239.646,126.295 244.096,118.696 251.97,105.251 257.52,95.7755 259.111,93.0572 259.578,92.2601 260.07,91.4206 259.477,92.4337 258.131,94.7314 255.737,98.8185 252.748,103.923 256.011,98.3519 261.945,88.2191 241.664,122.849 213.32,171.247 227.525,146.992 256.981,96.6943 261.509,88.9641 259.269,92.7885 259.702,92.0487 260.813,90.151 261.457,89.0528 261.763,88.5291 261.904,88.2881 261.961,88.1924 261.984,88.1528 261.993,88.1374 261.996,88.1312 261.998,88.1277 261.999,88.1263 262,88.1258 262,88.1252 262,88.1251 262,88.1251 262,88.125 262,88.125 262,88.125 262,88.125 262,88.1251 262,88.125 262,88.1251 262,88.1251 262,88.1251 262,88.1251 262,88.1251 262,88.125 262,88.125 262,88.125 262,88.125 262,88.125 262,88.125 262,88.125 262,88.125 262,88.125 262,88.125 262,88.125 262,88.125 262,88.125 262,88.125 262,88.125 262,88.125 262,88.125 262,88.125 262,88.125 262,88.125 262,88.125 262,88.125 262,88.125 262,88.125 262,88.125 262,88.125 262,88.125 262,88.125 262,88.125 262,88.125 262,88.125 262,88.125 262,88.125 262,88.125 262,88.125 262,88.125 262,88.125 262,88.125 262,88.125 262,88.125 262,88.125 262,88.125 262,88.125 262,88.125 262,88.125 262,88.125 262,88.125 262,88.125 262,88.125 262,88.125 262,88.125 262,88.125 262,88.125 262,88.125 262,88.125 262,88.125 262,88.125 262,88.125 262,88.125" stroke="#ff0000" stroke-linecap="butt" stroke-linejoin="round" stroke-opacity="0" stroke-width="0.5"/>
   <polyline fill="none" points="261.961,88.1908 261.975,88.1677 261.99,88.1422 261.985,88.1512 261.956,88.1997 261.921,88.2597 261.875,88.3389 261.818,88.4364 261.748,88.5554 261.663,88.6996 261.561,88.8741 261.43,89.0985 261.27,89.3715 261.076,89.7023 260.842,90.1017 260.559,90.5855 260.194,91.2092 259.747,91.9724 259.201,92.9051 258.535,94.0419 257.718,95.437 256.646,97.2671 255.312,99.5444 253.656,102.373 251.607,105.872 249.049,110.238 245.623,116.089 241.313,123.448 235.958,132.591 229.433,143.733 221.52,157.245 211.649,174.1 200.949,192.371 190.473,210.258 181.182,226.123 174.105,238.206 170.193,244.887 168.089,248.48 167.099,250.17 166.708,250.836 166.547,251.113 166.404,251.357 166.233,251.649 166.031,251.993 165.802,252.384 165.554,252.808 165.299,253.244 165.049,253.67 164.812,254.074 164.597,254.442 164.418,254.747 164.324,254.907 164.39,254.795 164.764,254.156 165.663,252.621 167.6,249.314 171.414,242.802 177.087,233.115 184.553,220.366 193.513,205.068 202.959,188.938 211.752,173.925 219.807,160.171 226.916,148.031 232.996,137.649 237.938,129.212 241.923,122.406 245.271,116.69 248.06,111.927 250.374,107.977 252.237,104.795 253.751,102.21 255.029,100.027 256.106,98.1894 257.012,96.6423 257.756,95.3718 258.374,94.3169 258.903,93.4132 259.356,92.6398 259.744,91.978 260.067,91.4249 260.341,90.9573 260.579,90.5517 260.785,90.2001 260.963,89.8955 261.114,89.638 261.243,89.4174 261.356,89.2245 261.455,89.056 261.541,88.9089 261.614,88.7838 261.677,88.6758 261.733,88.5811 261.781,88.4982 261.824,88.4257 261.86,88.364 261.891,88.3108 261.918,88.2643 261.942,88.2236 261.963,88.1883 261.98,88.1586 261.994,88.1359 261.992,88.1386 261.981,88.1574 261.972,88.1734 261.964,88.1864 261.958,88.1971 261.953,88.206 261.948,88.2133 261.945,88.2191 261.942,88.2232 261.941,88.2262 261.94,88.2281 261.939,88.2292 261.939,88.2296 261.939,88.229 261.94,88.2279 261.941,88.2262 261.942,88.2241 261.943,88.2215 261.945,88.2186 261.947,88.2153 261.949,88.2118 261.951,88.2081 261.954,88.2042 261.956,88.2 261.959,88.1958 261.961,88.1914 261.964,88.187 261.966,88.1826 261.969,88.178 261.972,88.1735 261.974,88.1689 261.977,88.1643 261.98,88.1597 261.982,88.1551 261.985,88.1506 261.988,88.1461 261.99,88.1416 261.993,88.1372 261.995,88.1328 261.998,88.1285 261.999,88.1274 261.997,88.1299 261.995,88.134 261.992,88.138 261.99,88.1419 261.988,88.1458 261.986,88.1496 261.983,88.1533" stroke="#ff0000" stroke-linecap="butt" stroke-linejoin="round" stroke-opacity="0" stroke-width="0.5"/>
  </g>
  <clipPath id="cp00524470">
   <polygon points="0,470 524,470 524,0 0,0"/>
  </clipPath>
  <g clip-path="url(#cp00524470)">
   <polygon fill="#010000" points="377.03,45.96 122.9,131.438 125.319,130.624 184.505,110.717 377.03,45.96" shape-rendering="crispEdges"/>
   <g font-family="FreeSans" font-size="9" font-style="normal" font-weight="normal" transform="translate(412.912,55.5166) rotate(-0,-0,-4)" xml:space="preserve">
    <text fill="rgb(0,0,0)" x="0 5 8 11 13 16 18 23 " y="-0">err flat</text>
   </g>
   <g font-family="FreeSans" font-size="9" font-style="normal" font-weight="normal" transform="translate(412.912,69.7202) rotate(-0,-0,-5)" xml:space="preserve">
    <text fill="rgb(0,0,0)" x="0 5 8 11 13 20 25 27 32 37 40 45 " y="-2">err weighted</text>
   </g>
   <g font-family="FreeSans" font-size="9" font-style="normal" font-weight="normal" transform="translate(412.912,83.722) rotate(-0,-0,-5)" xml:space="preserve">
    <text fill="rgb(0,0,0)" x="0 5 8 11 13 20 25 27 32 37 40 " y="-2">err weights</text>
   </g>
  </g>
 </g>
</svg>
