<?xml version='1.0' encoding='UTF-8' standalone='no'?>
<svg height="320pt" viewBox="0 0 374 320" width="374pt" xmlns="http://www.w3.org/2000/svg" xmlns:xlink="http://www.w3.org/1999/xlink">
 <title>Figure 8</title>
 <desc>
Creator: GL2PS 1.4.2, (C) 1999-2020 C. Geuzaine
For: Octave
CreationDate: Tue Mar  3 15:21:27 2026
</desc>
 <defs/>
 <polygon fill="#ffffff" points="0,0 374,0 374,320 0,320"/>
 <g>
  <polygon fill="#ffffff" points="0,320 374,320 374,0 0,0" shape-rendering="crispEdges"/>
  <clipPath id="cp00374320">
   <polygon points="0,320 374,320 374,0 0,0"/>
  </clipPath>
  <g clip-path="url(#cp00374320)">
   <polygon fill="#ffffff" points="48.7287,285.565 339.226,285.565 339.226,24.0645 48.7287,24.0645" shape-rendering="crispEdges"/>
   <polyline fill="none" points="48.7287,285.565 48.7287,282.666" stroke="#262626" stroke-linecap="butt" stroke-linejoin="miter" stroke-width="0.5"/>
   <polyline fill="none" points="48.7287,24.0645 48.7287,26.9639" stroke="#262626" stroke-linecap="butt" stroke-linejoin="miter" stroke-width="0.5"/>
   <polyline fill="none" points="106.828,285.565 106.828,282.666" stroke="#262626" stroke-linecap="butt" stroke-linejoin="miter" stroke-width="0.5"/>
   <polyline fill="none" points="106.828,24.0645 106.828,26.9639" stroke="#262626" stroke-linecap="butt" stroke-linejoin="miter" stroke-width="0.5"/>
   <polyline fill="none" points="164.928,285.565 164.928,282.666" stroke="#262626" stroke-linecap="butt" stroke-linejoin="miter" stroke-width="0.5"/>
   <polyline fill="none" points="164.928,24.0645 164.928,26.9639" stroke="#262626" stroke-linecap="butt" stroke-linejoin="miter" stroke-width="0.5"/>
   <polyline fill="none" points="223.027,285.565 223.027,282.666" stroke="#262626" stroke-linecap="butt" stroke-linejoin="miter" stroke-width="0.5"/>
   <polyline fill="none" points="223.027,24.0645 223.027,26.9639" stroke="#262626" stroke-linecap="butt" stroke-linejoin="miter" stroke-width="0.5"/>
   <polyline fill="none" points="281.127,285.565 281.127,282.666" stroke="#262626" stroke-linecap="butt" stroke-linejoin="miter" stroke-width="0.5"/>
   <polyline fill="none" points="281.127,24.0645 281.127,26.9639" stroke="#262626" stroke-linecap="butt" stroke-linejoin="miter" stroke-width="0.5"/>
   <polyline fill="none" points="339.226,285.565 339.226,282.666" stroke="#262626" stroke-linecap="butt" stroke-linejoin="miter" stroke-width="0.5"/>
   <polyline fill="none" points="339.226,24.0645 339.226,26.9639" stroke="#262626" stroke-linecap="butt" stroke-linejoin="miter" stroke-width="0.5"/>
   <g font-family="FreeSans" font-size="10" font-style="normal" font-weight="normal" transform="translate(45.7287,301.051) rotate(-0,3,-8)" xml:space="preserve">
    <text fill="rgb(38,38,38)" x="0 " y="-0">0</text>
   </g>
   <g font-family="FreeSans" font-size="10" font-style="normal" font-weight="normal" transform="translate(99.3282,301.051) rotate(-0,7.5,-8)" xml:space="preserve">
    <text fill="rgb(38,38,38)" x="0 6 9 " y="-0">0.2</text>
   </g>
   <g font-family="FreeSans" font-size="10" font-style="normal" font-weight="normal" transform="translate(157.428,301.051) rotate(-0,7.5,-8)" xml:space="preserve">
    <text fill="rgb(38,38,38)" x="0 6 9 " y="-0">0.4</text>
   </g>
   <g font-family="FreeSans" font-size="10" font-style="normal" font-weight="normal" transform="translate(215.527,301.051) rotate(-0,7.5,-8)" xml:space="preserve">
    <text fill="rgb(38,38,38)" x="0 6 9 " y="-0">0.6</text>
   </g>
   <g font-family="FreeSans" font-size="10" font-style="normal" font-weight="normal" transform="translate(273.627,301.051) rotate(-0,7.5,-8)" xml:space="preserve">
    <text fill="rgb(38,38,38)" x="0 6 9 " y="-0">0.8</text>
   </g>
   <g font-family="FreeSans" font-size="10" font-style="normal" font-weight="normal" transform="translate(336.226,301.051) rotate(-0,3,-8)" xml:space="preserve">
    <text fill="rgb(38,38,38)" x="0 " y="-0">1</text>
   </g>
   <polyline fill="none" points="48.7287,285.565 51.6386,285.565" stroke="#262626" stroke-linecap="butt" stroke-linejoin="miter" stroke-width="0.5"/>
   <polyline fill="none" points="339.226,285.565 336.316,285.565" stroke="#262626" stroke-linecap="butt" stroke-linejoin="miter" stroke-width="0.5"/>
   <polyline fill="none" points="48.7287,233.265 51.6386,233.265" stroke="#262626" stroke-linecap="butt" stroke-linejoin="miter" stroke-width="0.5"/>
   <polyline fill="none" points="339.226,233.265 336.316,233.265" stroke="#262626" stroke-linecap="butt" stroke-linejoin="miter" stroke-width="0.5"/>
   <polyline fill="none" points="48.7287,180.965 51.6386,180.965" stroke="#262626" stroke-linecap="butt" stroke-linejoin="miter" stroke-width="0.5"/>
   <polyline fill="none" points="339.226,180.965 336.316,180.965" stroke="#262626" stroke-linecap="butt" stroke-linejoin="miter" stroke-width="0.5"/>
   <polyline fill="none" points="48.7287,128.665 51.6386,128.665" stroke="#262626" stroke-linecap="butt" stroke-linejoin="miter" stroke-width="0.5"/>
   <polyline fill="none" points="339.226,128.665 336.316,128.665" stroke="#262626" stroke-linecap="butt" stroke-linejoin="miter" stroke-width="0.5"/>
   <polyline fill="none" points="48.7287,76.3645 51.6386,76.3645" stroke="#262626" stroke-linecap="butt" stroke-linejoin="miter" stroke-width="0.5"/>
   <polyline fill="none" points="339.226,76.3645 336.316,76.3645" stroke="#262626" stroke-linecap="butt" stroke-linejoin="miter" stroke-width="0.5"/>
   <polyline fill="none" points="48.7287,24.0645 51.6386,24.0645" stroke="#262626" stroke-linecap="butt" stroke-linejoin="miter" stroke-width="0.5"/>
   <polyline fill="none" points="339.226,24.0645 336.316,24.0645" stroke="#262626" stroke-linecap="butt" stroke-linejoin="miter" stroke-width="0.5"/>
   <g font-family="FreeSans" font-size="10" font-style="normal" font-weight="normal" transform="translate(37.7201,289.565) rotate(-0,6,-4)" xml:space="preserve">
    <text fill="rgb(38,38,38)" x="0 " y="-0">0</text>
   </g>
   <g font-family="FreeSans" font-size="10" font-style="normal" font-weight="normal" transform="translate(31.7201,237.265) rotate(-0,12,-4)" xml:space="preserve">
    <text fill="rgb(38,38,38)" x="0 6 " y="-0">10</text>
   </g>
   <g font-family="FreeSans" font-size="10" font-style="normal" font-weight="normal" transform="translate(31.7201,184.965) rotate(-0,12,-4)" xml:space="preserve">
    <text fill="rgb(38,38,38)" x="0 6 " y="-0">20</text>
   </g>
   <g font-family="FreeSans" font-size="10" font-style="normal" font-weight="normal" transform="translate(31.7201,132.665) rotate(-0,12,-4)" xml:space="preserve">
    <text fill="rgb(38,38,38)" x="0 6 " y="-0">30</text>
   </g>
   <g font-family="FreeSans" font-size="10" font-style="normal" font-weight="normal" transform="translate(31.7201,80.3646) rotate(-0,12,-4)" xml:space="preserve">
    <text fill="rgb(38,38,38)" x="0 6 " y="-0">40</text>
   </g>
   <g font-family="FreeSans" font-size="10" font-style="normal" font-weight="normal" transform="translate(31.7201,28.0645) rotate(-0,12,-4)" xml:space="preserve">
    <text fill="rgb(38,38,38)" x="0 6 " y="-0">50</text>
   </g>
   <polyline fill="none" points="48.7287,285.565 339.226,285.565" stroke="#262626" stroke-dasharray="16,0" stroke-linecap="square" stroke-linejoin="miter" stroke-width="0.5"/>
   <polyline fill="none" points="48.7287,24.0645 339.226,24.0645" stroke="#262626" stroke-dasharray="16,0" stroke-linecap="square" stroke-linejoin="miter" stroke-width="0.5"/>
   <polyline fill="none" points="48.7287,285.565 48.7287,24.0645" stroke="#262626" stroke-dasharray="16,0" stroke-linecap="square" stroke-linejoin="miter" stroke-width="0.5"/>
   <polyline fill="none" points="339.226,285.565 339.226,24.0645" stroke="#262626" stroke-dasharray="16,0" stroke-linecap="square" stroke-linejoin="miter" stroke-width="0.5"/>
   <g font-family="FreeSans" font-size="11" font-style="normal" font-weight="normal" transform="translate(101.978,318.051) rotate(-0,92,-12)" xml:space="preserve">
    <text fill="rgb(38,38,38)" x="0 8 14 18 27 33 35 37 42 48 54 57 64 68 74 80 86 92 98 104 109 112 116 122 124 127 131 137 143 146 151 157 166 172 174 180 " y="-3">Normalized Frequency (pi rad/sample)</text>
   </g>
   <g font-family="FreeSans" font-size="11" font-style="normal" font-weight="normal" transform="translate(-3.27992,154.815) rotate(-90,30,0)" xml:space="preserve">
    <text fill="rgb(38,38,38)" x="0 8 12 18 24 30 33 41 47 49 55 " y="-3">Group Delay</text>
   </g>
   <g font-family="FreeSans" font-size="11" font-style="normal" font-weight="bold" transform="translate(50.4776,14.0645) rotate(-0,143.5,0)" xml:space="preserve">
    <text fill="rgb(0,0,0)" x="0 8 12 19 26 33 36 44 50 53 59 65 68 75 79 82 89 92 100 103 110 113 116 120 126 130 133 136 143 147 154 160 164 170 176 182 185 188 197 200 207 214 221 230 236 244 250 260 270 273 280 " y="-3">Group Delay of FIR Filter, order=79, window=Hamming</text>
   </g>
   <polyline fill="none" points="48.7287,281.981 49.2961,281.981 49.8634,281.98 50.4308,281.979 50.9982,281.977 51.5656,281.975 52.1329,281.972 52.7003,281.968 53.2677,281.964 53.8351,281.96 54.4025,281.955 54.9698,281.949 55.5372,281.943 56.1046,281.936 56.672,281.929 57.2394,281.921 57.8067,281.913 58.3741,281.904 58.9415,281.894 59.5089,281.884 60.0762,281.874 60.6436,281.862 61.211,281.851 61.7784,281.838 62.3458,281.825 62.9131,281.811 63.4805,281.797 64.0479,281.782 64.6153,281.767 65.1827,281.751 65.75,281.734 66.3174,281.716 66.8848,281.698 67.4522,281.679 68.0195,281.659 68.5869,281.639 69.1543,281.618 69.7217,281.596 70.2891,281.574 70.8564,281.55 71.4238,281.526 71.9912,281.501 72.5586,281.476 73.1259,281.449 73.6933,281.422 74.2607,281.393 74.8281,281.364 75.3955,281.334 75.9628,281.303 76.5302,281.271 77.0976,281.238 77.665,281.204 78.2324,281.169 78.7997,281.133 79.3671,281.096 79.9345,281.058 80.5019,281.019 81.0692,280.978 81.6366,280.936 82.204,280.893 82.7714,280.849 83.3388,280.804 83.9061,280.757 84.4735,280.709 85.0409,280.659 85.6083,280.608 86.1757,280.556 86.743,280.502 87.3104,280.446 87.8778,280.389 88.4452,280.33 89.0126,280.269 89.5799,280.207 90.1473,280.143 90.7147,280.076 91.2821,280.008 91.8494,279.938 92.4168,279.865 92.9842,279.791 93.5516,279.714 94.1189,279.635 94.6863,279.553 95.2537,279.469 95.8211,279.382 96.3885,279.293 96.9558,279.2 97.5232,279.105 98.0906,279.007 98.658,278.905 99.2254,278.801 99.7927,278.693 100.36,278.581 100.927,278.466 101.495,278.346 102.062,278.223 102.63,278.096 103.197,277.964 103.764,277.828 104.332,277.687 104.899,277.541 105.467,277.389 106.034,277.233 106.601,277.07 107.169,276.902 107.736,276.727 108.303,276.546 108.871,276.358 109.438,276.163 110.006,275.96 110.573,275.749 111.14,275.53 111.708,275.302 112.275,275.064 112.842,274.817 113.41,274.559 113.977,274.29 114.545,274.01 115.112,273.717 115.679,273.411 116.247,273.091 116.814,272.757 117.381,272.407 117.949,272.04 118.516,271.655 119.084,271.252 119.651,270.828 120.218,270.382 120.786,269.914 121.353,269.42 121.921,268.899 122.488,268.35 123.055,267.769 123.623,267.154 124.19,266.504 124.757,265.813 125.325,265.08 125.892,264.299 126.46,263.468 127.027,262.58 127.594,261.631 128.162,260.614 128.729,259.523 129.296,258.348 129.864,257.082 130.431,255.714 130.999,254.231 131.566,252.619 132.133,250.864 132.701,248.945 133.268,246.841 133.835,244.527 134.403,241.974 134.97,239.147 135.538,236.007 136.105,232.509 136.672,228.603 137.24,224.233 137.807,219.339 138.374,213.863 138.942,207.758 139.509,200.995 140.077,193.59 140.644,185.629 141.211,177.306 141.779,168.952 142.346,161.054 142.914,154.22 143.481,149.082 144.048,146.143 144.616,145.624 145.183,147.39 145.75,151 146.318,155.847 146.885,161.321 147.453,166.914 148.02,172.271 148.587,177.183 149.155,181.549 149.722,185.35 150.289,188.611 150.857,191.38 151.424,193.716 151.992,195.675 152.559,197.313 153.126,198.676 153.694,199.804 154.261,200.728 154.828,201.474 155.396,202.063 155.963,202.51 156.531,202.826 157.098,203.02 157.665,203.098 158.233,203.062 158.8,202.916 159.367,202.658 159.935,202.286 160.502,201.795 161.07,201.178 161.637,200.424 162.204,199.518 162.772,198.44 163.339,197.168 163.907,195.675 164.474,193.93 165.041,191.903 165.609,189.564 166.176,186.894 166.743,183.888 167.311,180.567 167.878,176.994 168.446,173.288 169.013,169.635 169.58,166.29 170.148,163.571 170.715,161.813 171.282,161.319 171.85,162.289 172.417,164.77 172.985,168.645 173.552,173.657 174.119,179.474 174.687,185.75 175.254,192.179 175.821,198.52 176.389,204.605 176.956,210.329 177.524,215.639 178.091,220.519 178.658,224.975 179.226,229.03 179.793,232.712 180.36,236.055 180.928,239.091 181.495,241.851 182.063,244.365 182.63,246.659 183.197,248.757 183.765,250.679 184.332,252.445 184.9,254.071 185.467,255.571 186.034,256.959 186.602,258.245 187.169,259.439 187.736,260.551 188.304,261.587 188.871,262.555 189.439,263.461 190.006,264.31 190.573,265.107 191.141,265.856 191.708,266.562 192.275,267.227 192.843,267.855 193.41,268.449 193.978,269.011 194.545,269.543 195.112,270.048 195.68,270.527 196.247,270.983 196.814,271.417 197.382,271.83 197.949,272.223 198.517,272.599 199.084,272.957 199.651,273.3 200.219,273.627 200.786,273.941 201.354,274.241 201.921,274.528 202.488,274.804 203.056,275.069 203.623,275.323 204.19,275.567 204.758,275.801 205.325,276.027 205.893,276.244 206.46,276.453 207.027,276.654 207.595,276.848 208.162,277.035 208.729,277.216 209.297,277.39 209.864,277.558 210.432,277.721 210.999,277.878 211.566,278.03 212.134,278.176 212.701,278.318 213.268,278.456 213.836,278.589 214.403,278.718 214.971,278.843 215.538,278.964 216.105,279.081 216.673,279.195 217.24,279.306 217.807,279.413 218.375,279.517 218.942,279.618 219.51,279.716 220.077,279.812 220.644,279.904 221.212,279.994 221.779,280.082 222.346,280.167 222.914,280.25 223.481,280.331 224.049,280.41 224.616,280.486 225.183,280.561 225.751,280.633 226.318,280.704 226.886,280.773 227.453,280.84 228.02,280.905 228.588,280.969 229.155,281.031 229.722,281.092 230.29,281.152 230.857,281.209 231.425,281.266 231.992,281.321 232.559,281.375 233.127,281.427 233.694,281.479 234.261,281.529 234.829,281.578 235.396,281.626 235.964,281.673 236.531,281.719 237.098,281.763 237.666,281.807 238.233,281.85 238.8,281.892 239.368,281.933 239.935,281.973 240.503,282.012 241.07,282.051 241.637,282.088 242.205,282.125 242.772,282.161 243.339,282.196 243.907,282.231 244.474,282.265 245.042,282.298 245.609,282.33 246.176,282.362 246.744,282.393 247.311,282.424 247.879,282.454 248.446,282.483 249.013,282.512 249.581,282.541 250.148,282.568 250.715,282.595 251.283,282.622 251.85,282.648 252.418,282.674 252.985,282.699 253.552,282.724 254.12,282.748 254.687,282.772 255.254,282.795 255.822,282.818 256.389,282.84 256.957,282.862 257.524,282.884 258.091,282.905 258.659,282.926 259.226,282.947 259.793,282.967 260.361,282.986 260.928,283.006 261.496,283.025 262.063,283.044 262.63,283.062 263.198,283.08 263.765,283.098 264.333,283.115 264.9,283.132 265.467,283.149 266.035,283.166 266.602,283.182 267.169,283.198 267.737,283.214 268.304,283.229 268.872,283.244 269.439,283.259 270.006,283.274 270.574,283.288 271.141,283.302 271.708,283.316 272.276,283.33 272.843,283.343 273.411,283.356 273.978,283.369 274.545,283.382 275.113,283.395 275.68,283.407 276.247,283.419 276.815,283.431 277.382,283.443 277.95,283.454 278.517,283.465 279.084,283.477 279.652,283.488 280.219,283.498 280.786,283.509 281.354,283.519 281.921,283.529 282.489,283.54 283.056,283.549 283.623,283.559 284.191,283.569 284.758,283.578 285.326,283.587 285.893,283.596 286.46,283.605 287.028,283.614 287.595,283.623 288.162,283.631 288.73,283.639 289.297,283.648 289.865,283.656 290.432,283.664 290.999,283.671 291.567,283.679 292.134,283.686 292.701,283.694 293.269,283.701 293.836,283.708 294.404,283.715 294.971,283.722 295.538,283.729 296.106,283.735 296.673,283.742 297.24,283.748 297.808,283.754 298.375,283.761 298.943,283.767 299.51,283.773 300.077,283.778 300.645,283.784 301.212,283.79 301.779,283.795 302.347,283.8 302.914,283.806 303.482,283.811 304.049,283.816 304.616,283.821 305.184,283.826 305.751,283.831 306.319,283.835 306.886,283.84 307.453,283.844 308.021,283.849 308.588,283.853 309.155,283.857 309.723,283.861 310.29,283.865 310.858,283.869 311.425,283.873 311.992,283.877 312.56,283.88 313.127,283.884 313.694,283.887 314.262,283.891 314.829,283.894 315.397,283.897 315.964,283.9 316.531,283.903 317.099,283.906 317.666,283.909 318.233,283.912 318.801,283.915 319.368,283.917 319.936,283.92 320.503,283.922 321.07,283.925 321.638,283.927 322.205,283.929 322.772,283.931 323.34,283.934 323.907,283.936 324.475,283.938 325.042,283.939 325.609,283.941 326.177,283.943 326.744,283.945 327.312,283.946 327.879,283.948 328.446,283.949 329.014,283.95 329.581,283.952 330.148,283.953 330.716,283.954 331.283,283.955 331.851,283.956 332.418,283.957 332.985,283.958 333.553,283.958 334.12,283.959 334.687,283.96 335.255,283.96 335.822,283.961 336.39,283.961 336.957,283.961 337.524,283.962 338.092,283.962 338.659,283.962" stroke="#0071bc" stroke-linecap="butt" stroke-linejoin="round" stroke-width="0.5"/>
   <polyline fill="none" points="48.7287,89.7247 49.2961,89.7444 49.8634,89.8025 50.4308,89.8956 50.9982,90.0183 51.5656,90.1634 52.1329,90.3226 52.7003,90.4867 53.2677,90.6462 53.8351,90.792 54.4025,90.9156 54.9698,91.0102 55.5372,91.0706 56.1046,91.0936 56.672,91.0785 57.2394,91.0265 57.8067,90.9414 58.3741,90.8289 58.9415,90.696 59.5089,90.5513 60.0762,90.4038 60.6436,90.2629 61.211,90.1373 61.7784,90.0352 62.3458,89.963 62.9131,89.9257 63.4805,89.926 64.0479,89.9648 64.6153,90.0404 65.1827,90.1492 65.75,90.2855 66.3174,90.4423 66.8848,90.6111 67.4522,90.7829 68.0195,90.9487 68.5869,91.0998 69.1543,91.2286 69.7217,91.3288 70.2891,91.396 70.8564,91.4279 71.4238,91.4244 71.9912,91.3874 72.5586,91.3208 73.1259,91.2305 73.6933,91.1235 74.2607,91.0078 74.8281,90.892 75.3955,90.7845 75.9628,90.6932 76.5302,90.6251 77.0976,90.5858 77.665,90.5791 78.2324,90.6073 78.7997,90.6703 79.3671,90.7661 79.9345,90.8909 80.5019,91.0391 81.0692,91.2039 81.6366,91.3777 82.204,91.5522 82.7714,91.7194 83.3388,91.8721 83.9061,92.0038 84.4735,92.1098 85.0409,92.187 85.6083,92.2341 86.1757,92.2519 86.743,92.243 87.3104,92.2116 87.8778,92.1633 88.4452,92.1043 89.0126,92.0419 89.5799,91.983 90.1473,91.9347 90.7147,91.903 91.2821,91.8931 91.8494,91.9089 92.4168,91.9528 92.9842,92.0255 93.5516,92.1263 94.1189,92.2528 94.6863,92.401 95.2537,92.5662 95.8211,92.7426 96.3885,92.9241 96.9558,93.1049 97.5232,93.2791 98.0906,93.4424 98.658,93.591 99.2254,93.7228 99.7927,93.8372 100.36,93.9351 100.927,94.0186 101.495,94.0912 102.062,94.1571 102.63,94.2211 103.197,94.2883 103.764,94.3636 104.332,94.4513 104.899,94.5551 105.467,94.6776 106.034,94.8204 106.601,94.9838 107.169,95.167 107.736,95.368 108.303,95.5838 108.871,95.811 109.438,96.0457 110.006,96.284 110.573,96.5226 111.14,96.7591 111.708,96.9919 112.275,97.2212 112.842,97.4482 113.41,97.676 113.977,97.9088 114.545,98.1522 115.112,98.4122 115.679,98.6955 116.247,99.0085 116.814,99.3572 117.381,99.7466 117.949,100.18 118.516,100.66 119.084,101.187 119.651,101.758 120.218,102.37 120.786,103.017 121.353,103.692 121.921,104.386 122.488,105.092 123.055,105.8 123.623,106.504 124.19,107.198 124.757,107.882 125.325,108.555 125.892,109.225 126.46,109.902 127.027,110.598 127.594,111.333 128.162,112.128 128.729,113.004 129.296,113.988 129.864,115.103 130.431,116.374 130.999,117.824 131.566,119.473 132.133,121.339 132.701,123.435 133.268,125.77 133.835,128.348 134.403,131.164 134.97,134.208 135.538,137.46 136.105,140.891 136.672,144.463 137.24,148.133 137.807,151.85 138.374,155.569 138.942,159.249 139.509,162.867 140.077,166.422 140.644,169.941 141.211,173.481 141.779,177.129 142.346,180.99 142.914,185.174 143.481,189.767 144.048,194.806 144.616,200.234 145.183,205.86 145.75,211.331 146.318,216.132 146.885,219.656 147.453,221.338 148.02,220.825 148.587,218.105 149.155,213.515 149.722,207.638 150.289,201.128 150.857,194.575 151.424,188.419 151.992,182.942 152.559,178.289 153.126,174.501 153.694,171.556 154.261,169.386 154.828,167.9 155.396,166.996 155.963,166.562 156.531,166.487 157.098,166.663 157.665,166.991 158.233,167.385 158.8,167.779 159.367,168.131 159.935,168.428 160.502,168.686 161.07,168.947 161.637,169.278 162.204,169.762 162.772,170.492 163.339,171.565 163.907,173.069 164.474,175.08 165.041,177.651 165.609,180.796 166.176,184.482 166.743,188.606 167.311,192.985 167.878,197.347 168.446,201.343 169.013,204.585 169.58,206.709 170.148,207.456 170.715,206.732 171.282,204.634 171.85,201.415 172.417,197.413 172.985,192.977 173.552,188.408 174.119,183.923 174.687,179.654 175.254,175.658 175.821,171.936 176.389,168.454 176.956,165.157 177.524,161.987 178.091,158.891 178.658,155.828 179.226,152.772 179.793,149.711 180.36,146.649 180.928,143.602 181.495,140.591 182.063,137.643 182.63,134.786 183.197,132.046 183.765,129.443 184.332,126.998 184.9,124.72 185.467,122.618 186.034,120.694 186.602,118.946 187.169,117.365 187.736,115.943 188.304,114.667 188.871,113.52 189.439,112.486 190.006,111.548 190.573,110.688 191.141,109.889 191.708,109.135 192.275,108.413 192.843,107.712 193.41,107.023 193.978,106.341 194.545,105.664 195.112,104.99 195.68,104.322 196.247,103.664 196.814,103.02 197.382,102.396 197.949,101.797 198.517,101.228 199.084,100.692 199.651,100.193 200.219,99.7313 200.786,99.308 201.354,98.9218 201.921,98.5705 202.488,98.2507 203.056,97.9585 203.623,97.6894 204.19,97.4386 204.758,97.2017 205.325,96.9743 205.893,96.7529 206.46,96.5348 207.027,96.3179 207.595,96.1013 208.162,95.885 208.729,95.6696 209.297,95.4566 209.864,95.2477 210.432,95.0449 210.999,94.8503 211.566,94.6656 212.134,94.4922 212.701,94.331 213.268,94.1822 213.836,94.0455 214.403,93.9199 214.971,93.8038 215.538,93.6951 216.105,93.5916 216.673,93.4907 217.24,93.3901 217.807,93.2874 218.375,93.181 218.942,93.0696 219.51,92.9524 220.077,92.8297 220.644,92.7021 221.212,92.5711 221.779,92.4388 222.346,92.3075 222.914,92.1799 223.481,92.0588 224.049,91.9466 224.616,91.8455 225.183,91.7573 225.751,91.6829 226.318,91.6228 226.886,91.5764 227.453,91.5425 228.02,91.5193 228.588,91.5041 229.155,91.4941 229.722,91.486 230.29,91.4764 230.857,91.4621 231.425,91.4403 231.992,91.4084 232.559,91.3647 233.127,91.3083 233.694,91.239 234.261,91.1576 234.829,91.0656 235.396,90.9655 235.964,90.8601 236.531,90.7529 237.098,90.6475 237.666,90.5474 238.233,90.456 238.8,90.3761 239.368,90.3101 239.935,90.2594 240.503,90.2246 241.07,90.2054 241.637,90.2006 242.205,90.2082 242.772,90.2255 243.339,90.2493 243.907,90.2759 244.474,90.3016 245.042,90.3227 245.609,90.3359 246.176,90.3383 246.744,90.3277 247.311,90.3027 247.879,90.2629 248.446,90.2086 249.013,90.1412 249.581,90.063 250.148,89.9767 250.715,89.8859 251.283,89.7941 251.85,89.7052 252.418,89.6228 252.985,89.5503 253.552,89.4902 254.12,89.4446 254.687,89.4147 255.254,89.4006 255.822,89.4017 256.389,89.4165 256.957,89.4427 257.524,89.4772 258.091,89.5168 258.659,89.5577 259.226,89.5962 259.793,89.6288 260.361,89.6523 260.928,89.6642 261.496,89.6626 262.063,89.6465 262.63,89.6158 263.198,89.5712 263.765,89.5144 264.333,89.4476 264.9,89.3737 265.467,89.2962 266.035,89.2186 266.602,89.1444 267.169,89.0769 267.737,89.0191 268.304,88.9734 268.872,88.9413 269.439,88.9238 270.006,88.9207 270.574,88.9312 271.141,88.9537 271.708,88.9859 272.276,89.0249 272.843,89.0676 273.411,89.1105 273.978,89.1504 274.545,89.184 275.113,89.2088 275.68,89.2225 276.247,89.2238 276.815,89.212 277.382,89.1871 277.95,89.1502 278.517,89.1027 279.084,89.0469 279.652,88.9856 280.219,88.9217 280.786,88.8583 281.354,88.7985 281.921,88.7452 282.489,88.7007 283.056,88.6668 283.623,88.6449 284.191,88.6354 284.758,88.6381 285.326,88.6521 285.893,88.6759 286.46,88.7072 287.028,88.7437 287.595,88.7826 288.162,88.8209 288.73,88.856 289.297,88.8852 289.865,88.9065 290.432,88.9183 290.999,88.9195 291.567,88.9099 292.134,88.8896 292.701,88.8597 293.269,88.8216 293.836,88.7773 294.404,88.729 294.971,88.6794 295.538,88.6307 296.106,88.5856 296.673,88.5461 297.24,88.5141 297.808,88.4908 298.375,88.4772 298.943,88.4733 299.51,88.4788 300.077,88.4928 300.645,88.514 301.212,88.5406 301.779,88.5704 302.347,88.6014 302.914,88.6314 303.482,88.6582 304.049,88.68 304.616,88.6953 305.184,88.7031 305.751,88.7029 306.319,88.6946 306.886,88.6786 307.453,88.6558 308.021,88.6274 308.588,88.5951 309.155,88.5607 309.723,88.5259 310.29,88.4926 310.858,88.4625 311.425,88.437 311.992,88.4173 312.56,88.4041 313.127,88.3976 313.694,88.398 314.262,88.4046 314.829,88.4166 315.397,88.4329 315.964,88.4521 316.531,88.4727 317.099,88.493 317.666,88.5118 318.233,88.5276 318.801,88.5393 319.368,88.5461 319.936,88.5478 320.503,88.5441 321.07,88.5353 321.638,88.5222 322.205,88.5056 322.772,88.4866 323.34,88.4667 323.907,88.4473 324.475,88.4296 325.042,88.4151 325.609,88.405 326.177,88.4002 326.744,88.4015 327.312,88.4092 327.879,88.4237 328.446,88.4447 329.014,88.4717 329.581,88.5042 330.148,88.5413 330.716,88.582 331.283,88.6251 331.851,88.6695 332.418,88.7142 332.985,88.7579 333.553,88.8 334.12,88.8395 334.687,88.8757 335.255,88.9083 335.822,88.9368 336.39,88.961 336.957,88.9809 337.524,88.9962 338.092,89.0072 338.659,89.0138" stroke="#d85218" stroke-linecap="butt" stroke-linejoin="round" stroke-width="0.5"/>
   <polyline fill="none" points="48.7287,86.1408 49.2961,86.1603 49.8634,86.2176 50.4308,86.3094 50.9982,86.4302 51.5656,86.573 52.1329,86.7293 52.7003,86.8899 53.2677,87.0454 53.8351,87.1867 54.4025,87.3053 54.9698,87.3943 55.5372,87.4485 56.1046,87.4649 56.672,87.4425 57.2394,87.3827 57.8067,87.2893 58.3741,87.1678 58.9415,87.0254 59.5089,86.8706 60.0762,86.7125 60.6436,86.5604 61.211,86.423 61.7784,86.3084 62.3458,86.2232 62.9131,86.1722 63.4805,86.1583 64.0479,86.1821 64.6153,86.2422 65.1827,86.3347 65.75,86.4542 66.3174,86.5934 66.8848,86.744 67.4522,86.897 68.0195,87.0431 68.5869,87.1739 69.1543,87.2816 69.7217,87.36 70.2891,87.4047 70.8564,87.4133 71.4238,87.3857 71.9912,87.3237 72.5586,87.2314 73.1259,87.1145 73.6933,86.9801 74.2607,86.8362 74.8281,86.6911 75.3955,86.5536 75.9628,86.4312 76.5302,86.3311 77.0976,86.2589 77.665,86.2183 78.2324,86.2115 78.7997,86.2385 79.3671,86.2972 79.9345,86.3837 80.5019,86.4927 81.0692,86.617 81.6366,86.7491 82.204,86.8807 82.7714,87.0038 83.3388,87.111 83.9061,87.196 84.4735,87.2538 85.0409,87.2814 85.6083,87.2775 86.1757,87.2428 86.743,87.1799 87.3104,87.0929 87.8778,86.9872 88.4452,86.8694 89.0126,86.7462 89.5799,86.6249 90.1473,86.5122 90.7147,86.4143 91.2821,86.3361 91.8494,86.2816 92.4168,86.2531 92.9842,86.2513 93.5516,86.2753 94.1189,86.3225 94.6863,86.3891 95.2537,86.4701 95.8211,86.5597 96.3885,86.6518 96.9558,86.7402 97.5232,86.8193 98.0906,86.8842 98.658,86.9314 99.2254,86.9586 99.7927,86.9649 100.36,86.9511 100.927,86.9193 101.495,86.8727 102.062,86.8153 102.63,86.752 103.197,86.6874 103.764,86.6264 104.332,86.573 104.899,86.5307 105.467,86.502 106.034,86.4881 106.601,86.4891 107.169,86.504 107.736,86.5303 108.303,86.565 108.871,86.6041 109.438,86.6435 110.006,86.6789 110.573,86.7067 111.14,86.7239 111.708,86.7286 112.275,86.7203 112.842,86.6999 113.41,86.6699 113.977,86.634 114.545,86.5969 115.112,86.5642 115.679,86.5416 116.247,86.5349 116.814,86.5492 117.381,86.5884 117.949,86.6554 118.516,86.7509 119.084,86.8739 119.651,87.0212 120.218,87.1876 120.786,87.3658 121.353,87.5468 121.921,87.7206 122.488,87.8764 123.055,88.0038 123.623,88.0931 124.19,88.1367 124.757,88.1296 125.325,88.0699 125.892,87.9596 126.46,87.8043 127.027,87.6135 127.594,87.3994 128.162,87.1769 128.729,86.9621 129.296,86.7714 129.864,86.6205 130.431,86.5231 130.999,86.4899 131.566,86.5276 132.133,86.6375 132.701,86.8146 133.268,87.046 133.835,87.3098 134.403,87.5729 134.97,87.7902 135.538,87.9024 136.105,87.8356 136.672,87.5016 137.24,86.8 137.807,85.6236 138.374,83.8671 138.942,81.4421 139.509,78.2975 140.077,74.4472 140.644,70.005 141.211,65.2217 141.779,60.5161 142.346,56.4797 142.914,53.829 143.481,53.2841 144.048,55.3837 144.616,60.2923 145.183,67.6849 145.75,76.7656 146.318,86.4141 146.885,95.4113 147.453,102.686 148.02,107.531 148.587,109.722 149.155,109.499 149.722,107.423 150.289,104.174 150.857,100.39 151.424,96.5694 151.992,93.0527 152.559,90.0372 153.126,87.6128 153.694,85.7946 154.261,84.5485 154.828,83.8096 155.396,83.4941 155.963,83.507 156.531,83.7484 157.098,84.1186 157.665,84.5239 158.233,84.8824 158.8,85.1295 159.367,85.2237 159.935,85.149 160.502,84.9162 161.07,84.5606 161.637,84.1374 162.204,83.7149 162.772,83.3676 163.339,83.1679 163.907,83.1785 164.474,83.4452 165.041,83.9886 165.609,84.7958 166.176,85.8114 166.743,86.9288 167.311,87.9868 167.878,88.7763 168.446,89.0664 169.013,88.6545 169.58,87.4343 170.148,85.4613 170.715,82.9803 171.282,80.3885 171.85,78.1387 172.417,76.6182 172.985,76.0575 173.552,76.5005 174.119,77.8321 174.687,79.8392 175.254,82.2722 175.821,84.8917 176.389,87.494 176.956,89.9212 177.524,92.0616 178.091,93.8455 178.658,95.2387 179.226,96.2367 179.793,96.8584 180.36,97.1396 180.928,97.128 181.495,96.8774 182.063,96.4436 182.63,95.8803 183.197,95.2372 183.765,94.5575 184.332,93.8774 184.9,93.2259 185.467,92.6245 186.034,92.0881 186.602,91.6254 187.169,91.2395 187.736,90.929 188.304,90.6887 188.871,90.5099 189.439,90.3822 190.006,90.2932 190.573,90.2301 191.141,90.1803 191.708,90.1322 192.275,90.0755 192.843,90.0024 193.41,89.9072 193.978,89.7871 194.545,89.6416 195.112,89.4727 195.68,89.2844 196.247,89.082 196.814,88.872 197.382,88.661 197.949,88.4555 198.517,88.2616 199.084,88.0842 199.651,87.9274 200.219,87.7935 200.786,87.6836 201.354,87.5975 201.921,87.5338 202.488,87.4898 203.056,87.4621 203.623,87.447 204.19,87.4403 204.758,87.4379 205.325,87.4362 205.893,87.4319 206.46,87.4228 207.027,87.4072 207.595,87.3847 208.162,87.3555 208.729,87.3206 209.297,87.2818 209.864,87.2411 210.432,87.2008 210.999,87.1632 211.566,87.1302 212.134,87.1036 212.701,87.0845 213.268,87.0732 213.836,87.0696 214.403,87.0729 214.971,87.0817 215.538,87.0941 216.105,87.1079 216.673,87.1209 217.24,87.1307 217.807,87.1353 218.375,87.133 218.942,87.1226 219.51,87.1036 220.077,87.0763 220.644,87.0414 221.212,87.0006 221.779,86.9559 222.346,86.9098 222.914,86.8652 223.481,86.8247 224.049,86.7911 224.616,86.7665 225.183,86.7528 225.751,86.751 226.318,86.7616 226.886,86.7841 227.453,86.8174 228.02,86.8596 228.588,86.9083 229.155,86.9606 229.722,87.0132 230.29,87.063 230.857,87.1066 231.425,87.1412 231.992,87.1645 232.559,87.1747 233.127,87.1708 233.694,87.1529 234.261,87.1216 234.829,87.0787 235.396,87.0265 235.964,86.9679 236.531,86.9065 237.098,86.8459 237.666,86.7896 238.233,86.741 238.8,86.703 239.368,86.678 239.935,86.6674 240.503,86.6718 241.07,86.691 241.637,86.7238 242.205,86.7682 242.772,86.8216 243.339,86.8806 243.907,86.9418 244.474,87.0014 245.042,87.0557 245.609,87.1014 246.176,87.1356 246.744,87.1562 247.311,87.1618 247.879,87.1519 248.446,87.1271 249.013,87.0885 249.581,87.0385 250.148,86.98 250.715,86.9163 251.283,86.8512 251.85,86.7884 252.418,86.7317 252.985,86.6842 253.552,86.6488 254.12,86.6274 254.687,86.6212 255.254,86.6305 255.822,86.6545 256.389,86.6918 256.957,86.74 257.524,86.7962 258.091,86.857 258.659,86.9187 259.226,86.9777 259.793,87.0304 260.361,87.0737 260.928,87.105 261.496,87.1225 262.063,87.1251 262.63,87.1128 263.198,87.0862 263.765,87.0471 264.333,86.9977 264.9,86.941 265.467,86.8803 266.035,86.8192 266.602,86.7612 267.169,86.7097 267.737,86.6677 268.304,86.6373 268.872,86.6204 269.439,86.6177 270.006,86.6293 270.574,86.6542 271.141,86.6908 271.708,86.7369 272.276,86.7896 272.843,86.8457 273.411,86.9018 273.978,86.9546 274.545,87.001 275.113,87.0384 275.68,87.0644 276.247,87.0779 276.815,87.0779 277.382,87.0648 277.95,87.0393 278.517,87.0032 279.084,86.9585 279.652,86.9082 280.219,86.855 280.786,86.8022 281.354,86.7528 281.921,86.7097 282.489,86.6752 283.056,86.6513 283.623,86.639 284.191,86.6391 284.758,86.6512 285.326,86.6744 285.893,86.7072 286.46,86.7476 287.028,86.7928 287.595,86.8403 288.162,86.8871 288.73,86.9305 289.297,86.9679 289.865,86.9972 290.432,87.0169 290.999,87.0259 291.567,87.0238 292.134,87.0111 292.701,86.9885 293.269,86.9577 293.836,86.9205 294.404,86.8792 294.971,86.8364 295.538,86.7945 296.106,86.756 296.673,86.723 297.24,86.6973 297.808,86.6803 298.375,86.6728 298.943,86.6749 299.51,86.6863 300.077,86.7062 300.645,86.7331 301.212,86.7652 301.779,86.8005 302.347,86.8369 302.914,86.8721 303.482,86.9041 304.049,86.9309 304.616,86.9512 305.184,86.9639 305.751,86.9685 306.319,86.9648 306.886,86.9533 307.453,86.935 308.021,86.911 308.588,86.883 309.155,86.8528 309.723,86.8221 310.29,86.7928 310.858,86.7666 311.425,86.7449 311.992,86.7289 312.56,86.7193 313.127,86.7165 313.694,86.7203 314.262,86.7303 314.829,86.7456 315.397,86.7651 315.964,86.7874 316.531,86.811 317.099,86.8344 317.666,86.856 318.233,86.8746 318.801,86.889 319.368,86.8985 319.936,86.9027 320.503,86.9015 321.07,86.8951 321.638,86.8843 322.205,86.8699 322.772,86.8532 323.34,86.8353 323.907,86.8179 324.475,86.8021 325.042,86.7895 325.609,86.7812 326.177,86.7781 326.744,86.781 327.312,86.7903 327.879,86.8063 328.446,86.8286 329.014,86.857 329.581,86.8908 330.148,86.9291 330.716,86.9708 331.283,87.015 331.851,87.0604 332.418,87.1059 332.985,87.1506 333.553,87.1933 334.12,87.2335 334.687,87.2704 335.255,87.3035 335.822,87.3324 336.39,87.357 336.957,87.3772 337.524,87.3928 338.092,87.404 338.659,87.4107" stroke="#ecb01f" stroke-linecap="butt" stroke-linejoin="round" stroke-width="0.5"/>
   <polyline fill="none" points="48.7287,84.7518 49.2961,84.7518 49.8634,84.7518 50.4308,84.7518 50.9982,84.7518 51.5656,84.7518 52.1329,84.7518 52.7003,84.7518 53.2677,84.7518 53.8351,84.7518 54.4025,84.7518 54.9698,84.7518 55.5372,84.7518 56.1046,84.7518 56.672,84.7518 57.2394,84.7518 57.8067,84.7518 58.3741,84.7518 58.9415,84.7518 59.5089,84.7518 60.0762,84.7518 60.6436,84.7518 61.211,84.7518 61.7784,84.7518 62.3458,84.7518 62.9131,84.7518 63.4805,84.7518 64.0479,84.7518 64.6153,84.7518 65.1827,84.7518 65.75,84.7518 66.3174,84.7518 66.8848,84.7518 67.4522,84.7518 68.0195,84.7518 68.5869,84.7518 69.1543,84.7518 69.7217,84.7518 70.2891,84.7518 70.8564,84.7518 71.4238,84.7518 71.9912,84.7518 72.5586,84.7518 73.1259,84.7518 73.6933,84.7518 74.2607,84.7518 74.8281,84.7518 75.3955,84.7518 75.9628,84.7518 76.5302,84.7518 77.0976,84.7518 77.665,84.7518 78.2324,84.7518 78.7997,84.7518 79.3671,84.7518 79.9345,84.7518 80.5019,84.7518 81.0692,84.7518 81.6366,84.7518 82.204,84.7518 82.7714,84.7518 83.3388,84.7518 83.9061,84.7518 84.4735,84.7518 85.0409,84.7518 85.6083,84.7518 86.1757,84.7518 86.743,84.7518 87.3104,84.7518 87.8778,84.7518 88.4452,84.7518 89.0126,84.7518 89.5799,84.7518 90.1473,84.7518 90.7147,84.7518 91.2821,84.7518 91.8494,84.7518 92.4168,84.7518 92.9842,84.7518 93.5516,84.7518 94.1189,84.7518 94.6863,84.7518 95.2537,84.7518 95.8211,84.7518 96.3885,84.7518 96.9558,84.7518 97.5232,84.7518 98.0906,84.7518 98.658,84.7518 99.2254,84.7518 99.7927,84.7518 100.36,84.7518 100.927,84.7518 101.495,84.7518 102.062,84.7518 102.63,84.7518 103.197,84.7518 103.764,84.7518 104.332,84.7518 104.899,84.7518 105.467,84.7518 106.034,84.7518 106.601,84.7518 107.169,84.7518 107.736,84.7518 108.303,84.7518 108.871,84.7518 109.438,84.7518 110.006,84.7518 110.573,84.7518 111.14,84.7518 111.708,84.7518 112.275,84.7518 112.842,84.7518 113.41,84.7518 113.977,84.7518 114.545,84.7518 115.112,84.7518 115.679,84.7518 116.247,84.7518 116.814,84.7518 117.381,84.7518 117.949,84.7518 118.516,84.7518 119.084,84.7518 119.651,84.7518 120.218,84.7518 120.786,84.7518 121.353,84.7518 121.921,84.7518 122.488,84.7518 123.055,84.7518 123.623,84.7518 124.19,84.7518 124.757,84.7518 125.325,84.7518 125.892,84.7518 126.46,84.7518 127.027,84.7518 127.594,84.7518 128.162,84.7518 128.729,84.7518 129.296,84.7518 129.864,84.7518 130.431,84.7518 130.999,84.7518 131.566,84.7518 132.133,84.7518 132.701,84.7518 133.268,84.7518 133.835,84.7518 134.403,84.7518 134.97,84.7518 135.538,84.7518 136.105,84.7518 136.672,84.7518 137.24,84.7518 137.807,84.7518 138.374,84.7518 138.942,84.7518 139.509,84.7518 140.077,84.7518 140.644,84.7518 141.211,84.7518 141.779,84.7518 142.346,84.7518 142.914,84.7518 143.481,84.7518 144.048,84.7518 144.616,84.7518 145.183,84.7518 145.75,84.7518 146.318,84.7518 146.885,84.7518 147.453,84.7518 148.02,84.7518 148.587,84.7518 149.155,84.7518 149.722,84.7518 150.289,84.7518 150.857,84.7518 151.424,84.7518 151.992,84.7518 152.559,84.7518 153.126,84.7518 153.694,84.7518 154.261,84.7518 154.828,84.7518 155.396,84.7518 155.963,84.7518 156.531,84.7518 157.098,84.7518 157.665,84.7518 158.233,84.7518 158.8,84.7518 159.367,84.7518 159.935,84.7518 160.502,84.7518 161.07,84.7518 161.637,84.7518 162.204,84.7518 162.772,84.7518 163.339,84.7518 163.907,84.7518 164.474,84.7518 165.041,84.7518 165.609,84.7518 166.176,84.7518 166.743,84.7518 167.311,84.7518 167.878,84.7518 168.446,84.7518 169.013,84.7518 169.58,84.7518 170.148,84.7518 170.715,84.7518 171.282,84.7518 171.85,84.7518 172.417,84.7518 172.985,84.7518 173.552,84.7518 174.119,84.7518 174.687,84.7518 175.254,84.7518 175.821,84.7518 176.389,84.7518 176.956,84.7518 177.524,84.7518 178.091,84.7518 178.658,84.7518 179.226,84.7518 179.793,84.7518 180.36,84.7518 180.928,84.7518 181.495,84.7518 182.063,84.7518 182.63,84.7518 183.197,84.7518 183.765,84.7518 184.332,84.7518 184.9,84.7518 185.467,84.7518 186.034,84.7518 186.602,84.7518 187.169,84.7518 187.736,84.7518 188.304,84.7518 188.871,84.7518 189.439,84.7518 190.006,84.7518 190.573,84.7518 191.141,84.7518 191.708,84.7518 192.275,84.7518 192.843,84.7518 193.41,84.7518 193.978,84.7518 194.545,84.7518 195.112,84.7518 195.68,84.7518 196.247,84.7518 196.814,84.7518 197.382,84.7518 197.949,84.7518 198.517,84.7518 199.084,84.7518 199.651,84.7518 200.219,84.7518 200.786,84.7518 201.354,84.7518 201.921,84.7518 202.488,84.7518 203.056,84.7518 203.623,84.7518 204.19,84.7518 204.758,84.7518 205.325,84.7518 205.893,84.7518 206.46,84.7518 207.027,84.7518 207.595,84.7518 208.162,84.7518 208.729,84.7518 209.297,84.7518 209.864,84.7518 210.432,84.7518 210.999,84.7518 211.566,84.7518 212.134,84.7518 212.701,84.7518 213.268,84.7518 213.836,84.7518 214.403,84.7518 214.971,84.7518 215.538,84.7518 216.105,84.7518 216.673,84.7518 217.24,84.7518 217.807,84.7518 218.375,84.7518 218.942,84.7518 219.51,84.7518 220.077,84.7518 220.644,84.7518 221.212,84.7518 221.779,84.7518 222.346,84.7518 222.914,84.7518 223.481,84.7518 224.049,84.7518 224.616,84.7518 225.183,84.7518 225.751,84.7518 226.318,84.7518 226.886,84.7518 227.453,84.7518 228.02,84.7518 228.588,84.7518 229.155,84.7518 229.722,84.7518 230.29,84.7518 230.857,84.7518 231.425,84.7518 231.992,84.7518 232.559,84.7518 233.127,84.7518 233.694,84.7518 234.261,84.7518 234.829,84.7518 235.396,84.7518 235.964,84.7518 236.531,84.7518 237.098,84.7518 237.666,84.7518 238.233,84.7518 238.8,84.7518 239.368,84.7518 239.935,84.7518 240.503,84.7518 241.07,84.7518 241.637,84.7518 242.205,84.7518 242.772,84.7518 243.339,84.7518 243.907,84.7518 244.474,84.7518 245.042,84.7518 245.609,84.7518 246.176,84.7518 246.744,84.7518 247.311,84.7518 247.879,84.7518 248.446,84.7518 249.013,84.7518 249.581,84.7518 250.148,84.7518 250.715,84.7518 251.283,84.7518 251.85,84.7518 252.418,84.7518 252.985,84.7518 253.552,84.7518 254.12,84.7518 254.687,84.7518 255.254,84.7518 255.822,84.7518 256.389,84.7518 256.957,84.7518 257.524,84.7518 258.091,84.7518 258.659,84.7518 259.226,84.7518 259.793,84.7518 260.361,84.7518 260.928,84.7518 261.496,84.7518 262.063,84.7518 262.63,84.7518 263.198,84.7518 263.765,84.7518 264.333,84.7518 264.9,84.7518 265.467,84.7518 266.035,84.7518 266.602,84.7518 267.169,84.7518 267.737,84.7518 268.304,84.7518 268.872,84.7518 269.439,84.7518 270.006,84.7518 270.574,84.7518 271.141,84.7518 271.708,84.7518 272.276,84.7518 272.843,84.7518 273.411,84.7518 273.978,84.7518 274.545,84.7518 275.113,84.7518 275.68,84.7518 276.247,84.7518 276.815,84.7518 277.382,84.7518 277.95,84.7518 278.517,84.7518 279.084,84.7518 279.652,84.7518 280.219,84.7518 280.786,84.7518 281.354,84.7518 281.921,84.7518 282.489,84.7518 283.056,84.7518 283.623,84.7518 284.191,84.7518 284.758,84.7518 285.326,84.7518 285.893,84.7518 286.46,84.7518 287.028,84.7518 287.595,84.7518 288.162,84.7518 288.73,84.7518 289.297,84.7518 289.865,84.7518 290.432,84.7518 290.999,84.7518 291.567,84.7518 292.134,84.7518 292.701,84.7518 293.269,84.7518 293.836,84.7518 294.404,84.7518 294.971,84.7518 295.538,84.7518 296.106,84.7518 296.673,84.7518 297.24,84.7518 297.808,84.7518 298.375,84.7518 298.943,84.7518 299.51,84.7518 300.077,84.7518 300.645,84.7518 301.212,84.7518 301.779,84.7518 302.347,84.7518 302.914,84.7518 303.482,84.7518 304.049,84.7518 304.616,84.7518 305.184,84.7518 305.751,84.7518 306.319,84.7518 306.886,84.7518 307.453,84.7518 308.021,84.7518 308.588,84.7518 309.155,84.7518 309.723,84.7518 310.29,84.7518 310.858,84.7518 311.425,84.7518 311.992,84.7518 312.56,84.7518 313.127,84.7518 313.694,84.7518 314.262,84.7518 314.829,84.7518 315.397,84.7518 315.964,84.7518 316.531,84.7518 317.099,84.7518 317.666,84.7518 318.233,84.7518 318.801,84.7518 319.368,84.7518 319.936,84.7518 320.503,84.7518 321.07,84.7518 321.638,84.7518 322.205,84.7518 322.772,84.7518 323.34,84.7518 323.907,84.7518 324.475,84.7518 325.042,84.7518 325.609,84.7518 326.177,84.7518 326.744,84.7518 327.312,84.7518 327.879,84.7518 328.446,84.7518 329.014,84.7518 329.581,84.7518 330.148,84.7518 330.716,84.7518 331.283,84.7518 331.851,84.7518 332.418,84.7518 332.985,84.7518 333.553,84.7518 334.12,84.7518 334.687,84.7518 335.255,84.7518 335.822,84.7518 336.39,84.7518 336.957,84.7518 337.524,84.7518 338.092,84.7518 338.659,84.7518" stroke="#7d2e8d" stroke-linecap="butt" stroke-linejoin="round" stroke-width="0.5"/>
   <polyline fill="none" points="77.7785,285.564 79.3382,285.564 80.8979,285.565 82.4576,285.565 84.0173,285.564 85.577,285.563 87.1368,285.562 88.6965,285.56 90.2562,285.558 91.8159,285.556 93.3757,285.553 94.9354,285.55 96.4951,285.545 98.0548,285.54 99.6145,285.534 101.174,285.526 102.734,285.516 104.294,285.503 105.853,285.488 107.413,285.47 108.973,285.447 110.533,285.416 112.092,285.378 113.652,285.33 115.212,285.269 116.771,285.19 118.331,285.082 119.891,284.94 121.451,284.753 123.01,284.508 124.57,284.184 126.13,283.729 127.689,283.159 129.249,282.505 130.809,281.823 132.369,281.224 133.928,280.856 135.488,280.647 137.048,280.545 138.608,280.505 140.167,280.488 141.727,280.473 143.287,280.455 144.846,280.433 146.406,280.409 147.966,280.383 149.526,280.355 151.085,280.328 152.645,280.303 154.205,280.279 155.764,280.26 157.324,280.249 158.884,280.257 160.444,280.297 162.003,280.394 163.563,280.597 165.123,280.974 166.682,281.486 168.242,282.083 169.802,282.706 171.362,283.273 172.921,283.734 174.481,284.109 176.041,284.409 177.601,284.644 179.16,284.823 180.72,284.96 182.28,285.071 183.839,285.16 185.399,285.231 186.959,285.288 188.519,285.332 190.078,285.37 191.638,285.401 193.198,285.427 194.757,285.448 196.317,285.465 197.877,285.48 199.437,285.493 200.996,285.503 202.556,285.512 204.116,285.52 205.675,285.526 207.235,285.532 208.795,285.537 210.355,285.541 211.914,285.544 213.474,285.548 215.034,285.55 216.594,285.553 218.153,285.555 219.713,285.556 221.273,285.558 222.832,285.559 224.392,285.56 225.952,285.561 227.512,285.562 229.071,285.563 230.631,285.563 232.191,285.564 233.75,285.564 235.31,285.565 236.87,285.565 238.43,285.564 239.989,285.564 241.549,285.564 243.109,285.564 244.668,285.564 246.228,285.564 247.788,285.563 249.348,285.563 250.907,285.563 252.467,285.563 254.027,285.563 255.587,285.563 257.146,285.563 258.706,285.563 260.266,285.563 261.825,285.563 263.385,285.563 264.945,285.564 266.505,285.564 268.064,285.564 269.624,285.564 271.184,285.564 272.743,285.564 274.303,285.564 275.863,285.564 277.423,285.564 278.982,285.564 280.542,285.564 282.102,285.564 283.661,285.564 285.221,285.564 286.781,285.564 288.341,285.565 289.9,285.565 291.46,285.565 293.02,285.565 294.579,285.565 296.139,285.565 297.699,285.565 299.259,285.565 300.818,285.565 302.378,285.565 303.938,285.565 305.498,285.565 307.057,285.565 308.617,285.565 310.177,285.565" stroke="#76ab2f" stroke-linecap="butt" stroke-linejoin="round" stroke-width="0.5"/>
  </g>
  <clipPath id="cp00374320">
   <polygon points="0,320 374,320 374,0 0,0"/>
  </clipPath>
  <g clip-path="url(#cp00374320)">
   <polygon fill="#ffffff" points="204.209,277.561 331.223,277.561 331.223,204.551 204.209,204.551" shape-rendering="crispEdges"/>
   <polyline fill="none" points="204.209,277.561 331.223,277.561" stroke="#262626" stroke-dasharray="16,0" stroke-linecap="square" stroke-linejoin="miter" stroke-width="0.5"/>
   <polyline fill="none" points="204.209,204.551 331.223,204.551" stroke="#262626" stroke-dasharray="16,0" stroke-linecap="square" stroke-linejoin="miter" stroke-width="0.5"/>
   <polyline fill="none" points="204.209,277.561 204.209,204.551" stroke="#262626" stroke-dasharray="16,0" stroke-linecap="square" stroke-linejoin="miter" stroke-width="0.5"/>
   <polyline fill="none" points="331.223,277.561 331.223,204.551" stroke="#262626" stroke-dasharray="16,0" stroke-linecap="square" stroke-linejoin="miter" stroke-width="0.5"/>
   <polyline fill="none" points="208.211,213.553 228.219,213.553" stroke="#0071bc" stroke-linecap="butt" stroke-linejoin="round" stroke-width="0.5"/>
   <g font-family="FreeSans" font-size="9" font-style="normal" font-weight="normal" transform="translate(232.221,218.553) rotate(-0,-0,-5)" xml:space="preserve">
    <text fill="rgb(0,0,0)" x="0 3 8 13 18 " y="-2">Input</text>
   </g>
   <polyline fill="none" points="208.211,227.554 228.219,227.554" stroke="#d85218" stroke-linecap="butt" stroke-linejoin="round" stroke-width="0.5"/>
   <g font-family="FreeSans" font-size="9" font-style="normal" font-weight="normal" transform="translate(232.221,232.554) rotate(-0,-0,-5)" xml:space="preserve">
    <text fill="rgb(0,0,0)" x="0 6 11 18 23 28 33 37 42 45 47 52 57 59 64 66 68 71 76 79 81 83 85 87 89 91 93 " y="-2">Compensation Filter        </text>
   </g>
   <polyline fill="none" points="208.211,241.056 228.219,241.056" stroke="#ecb01f" stroke-linecap="butt" stroke-linejoin="round" stroke-width="0.5"/>
   <g font-family="FreeSans" font-size="9" font-style="normal" font-weight="normal" transform="translate(232.221,245.556) rotate(-0,-0,-4.5)" xml:space="preserve">
    <text fill="rgb(0,0,0)" x="0 6 11 18 23 25 30 35 " y="-1">Combined</text>
   </g>
   <polyline fill="none" points="208.211,254.558 228.219,254.558" stroke="#7d2e8d" stroke-linecap="butt" stroke-linejoin="round" stroke-width="0.5"/>
   <g font-family="FreeSans" font-size="9" font-style="normal" font-weight="normal" transform="translate(232.221,259.558) rotate(-0,-0,-5)" xml:space="preserve">
    <text fill="rgb(0,0,0)" x="0 6 11 14 19 24 27 29 36 39 " y="-2">Target Grd</text>
   </g>
   <polyline fill="none" points="208.211,268.56 228.219,268.56" stroke="#76ab2f" stroke-linecap="butt" stroke-linejoin="round" stroke-width="0.5"/>
   <g font-family="FreeSans" font-size="9" font-style="normal" font-weight="normal" transform="translate(232.221,273.56) rotate(-0,-0,-5)" xml:space="preserve">
    <text fill="rgb(0,0,0)" x="0 6 9 12 14 22 27 29 34 39 42 " y="-2">Err Weights</text>
   </g>
  </g>
 </g>
</svg>
