<?xml version='1.0' encoding='UTF-8' standalone='no'?>
<svg height="470pt" viewBox="0 0 524 470" width="524pt" xmlns="http://www.w3.org/2000/svg" xmlns:xlink="http://www.w3.org/1999/xlink">
 <title>Figure 8</title>
 <desc>
Creator: GL2PS 1.4.2, (C) 1999-2020 C. Geuzaine
For: Octave
CreationDate: Thu Feb 12 12:53:22 2026
</desc>
 <defs/>
 <polygon fill="#ffffff" points="0,0 524,0 524,470 0,470"/>
 <g>
  <polygon fill="#ffffff" points="0,470 524,470 524,0 0,0" shape-rendering="crispEdges"/>
  <clipPath id="cp00524470">
   <polygon points="0,470 524,470 524,0 0,0"/>
  </clipPath>
  <g clip-path="url(#cp00524470)">
   <polygon fill="#ffffff" points="68.2201,419.007 474.917,419.007 474.917,35.3095 68.2201,35.3095" shape-rendering="crispEdges"/>
   <polyline fill="none" points="68.2201,419.007 68.2201,414.943" stroke="#262626" stroke-linecap="butt" stroke-linejoin="miter" stroke-width="0.5"/>
   <polyline fill="none" points="68.2201,35.3095 68.2201,39.3733" stroke="#262626" stroke-linecap="butt" stroke-linejoin="miter" stroke-width="0.5"/>
   <polyline fill="none" points="149.56,419.007 149.56,414.943" stroke="#262626" stroke-linecap="butt" stroke-linejoin="miter" stroke-width="0.5"/>
   <polyline fill="none" points="149.56,35.3095 149.56,39.3733" stroke="#262626" stroke-linecap="butt" stroke-linejoin="miter" stroke-width="0.5"/>
   <polyline fill="none" points="230.899,419.007 230.899,414.943" stroke="#262626" stroke-linecap="butt" stroke-linejoin="miter" stroke-width="0.5"/>
   <polyline fill="none" points="230.899,35.3095 230.899,39.3733" stroke="#262626" stroke-linecap="butt" stroke-linejoin="miter" stroke-width="0.5"/>
   <polyline fill="none" points="312.238,419.007 312.238,414.943" stroke="#262626" stroke-linecap="butt" stroke-linejoin="miter" stroke-width="0.5"/>
   <polyline fill="none" points="312.238,35.3095 312.238,39.3733" stroke="#262626" stroke-linecap="butt" stroke-linejoin="miter" stroke-width="0.5"/>
   <polyline fill="none" points="393.578,419.007 393.578,414.943" stroke="#262626" stroke-linecap="butt" stroke-linejoin="miter" stroke-width="0.5"/>
   <polyline fill="none" points="393.578,35.3095 393.578,39.3733" stroke="#262626" stroke-linecap="butt" stroke-linejoin="miter" stroke-width="0.5"/>
   <polyline fill="none" points="474.917,419.007 474.917,414.943" stroke="#262626" stroke-linecap="butt" stroke-linejoin="miter" stroke-width="0.5"/>
   <polyline fill="none" points="474.917,35.3095 474.917,39.3733" stroke="#262626" stroke-linecap="butt" stroke-linejoin="miter" stroke-width="0.5"/>
   <g font-family="FreeSans" font-size="10" font-style="normal" font-weight="normal" transform="translate(65.2201,434.501) rotate(-0,3,-8)" xml:space="preserve">
    <text fill="rgb(38,38,38)" x="0 " y="-0">0</text>
   </g>
   <g font-family="FreeSans" font-size="10" font-style="normal" font-weight="normal" transform="translate(142.06,434.501) rotate(-0,7.5,-8)" xml:space="preserve">
    <text fill="rgb(38,38,38)" x="0 6 9 " y="-0">0.2</text>
   </g>
   <g font-family="FreeSans" font-size="10" font-style="normal" font-weight="normal" transform="translate(223.399,434.501) rotate(-0,7.5,-8)" xml:space="preserve">
    <text fill="rgb(38,38,38)" x="0 6 9 " y="-0">0.4</text>
   </g>
   <g font-family="FreeSans" font-size="10" font-style="normal" font-weight="normal" transform="translate(304.738,434.501) rotate(-0,7.5,-8)" xml:space="preserve">
    <text fill="rgb(38,38,38)" x="0 6 9 " y="-0">0.6</text>
   </g>
   <g font-family="FreeSans" font-size="10" font-style="normal" font-weight="normal" transform="translate(386.078,434.501) rotate(-0,7.5,-8)" xml:space="preserve">
    <text fill="rgb(38,38,38)" x="0 6 9 " y="-0">0.8</text>
   </g>
   <g font-family="FreeSans" font-size="10" font-style="normal" font-weight="normal" transform="translate(471.917,434.501) rotate(-0,3,-8)" xml:space="preserve">
    <text fill="rgb(38,38,38)" x="0 " y="-0">1</text>
   </g>
   <polyline fill="none" points="68.2201,419.007 72.2841,419.007" stroke="#262626" stroke-linecap="butt" stroke-linejoin="miter" stroke-width="0.5"/>
   <polyline fill="none" points="474.917,419.007 470.853,419.007" stroke="#262626" stroke-linecap="butt" stroke-linejoin="miter" stroke-width="0.5"/>
   <polyline fill="none" points="68.2201,342.267 72.2841,342.267" stroke="#262626" stroke-linecap="butt" stroke-linejoin="miter" stroke-width="0.5"/>
   <polyline fill="none" points="474.917,342.267 470.853,342.267" stroke="#262626" stroke-linecap="butt" stroke-linejoin="miter" stroke-width="0.5"/>
   <polyline fill="none" points="68.2201,265.528 72.2841,265.528" stroke="#262626" stroke-linecap="butt" stroke-linejoin="miter" stroke-width="0.5"/>
   <polyline fill="none" points="474.917,265.528 470.853,265.528" stroke="#262626" stroke-linecap="butt" stroke-linejoin="miter" stroke-width="0.5"/>
   <polyline fill="none" points="68.2201,188.788 72.2841,188.788" stroke="#262626" stroke-linecap="butt" stroke-linejoin="miter" stroke-width="0.5"/>
   <polyline fill="none" points="474.917,188.788 470.853,188.788" stroke="#262626" stroke-linecap="butt" stroke-linejoin="miter" stroke-width="0.5"/>
   <polyline fill="none" points="68.2201,112.049 72.2841,112.049" stroke="#262626" stroke-linecap="butt" stroke-linejoin="miter" stroke-width="0.5"/>
   <polyline fill="none" points="474.917,112.049 470.853,112.049" stroke="#262626" stroke-linecap="butt" stroke-linejoin="miter" stroke-width="0.5"/>
   <polyline fill="none" points="68.2201,35.3095 72.2841,35.3095" stroke="#262626" stroke-linecap="butt" stroke-linejoin="miter" stroke-width="0.5"/>
   <polyline fill="none" points="474.917,35.3095 470.853,35.3095" stroke="#262626" stroke-linecap="butt" stroke-linejoin="miter" stroke-width="0.5"/>
   <g font-family="FreeSans" font-size="10" font-style="normal" font-weight="normal" transform="translate(57.2239,423.007) rotate(-0,6,-4)" xml:space="preserve">
    <text fill="rgb(38,38,38)" x="0 " y="-0">0</text>
   </g>
   <g font-family="FreeSans" font-size="10" font-style="normal" font-weight="normal" transform="translate(51.2239,346.267) rotate(-0,12,-4)" xml:space="preserve">
    <text fill="rgb(38,38,38)" x="0 6 " y="-0">10</text>
   </g>
   <g font-family="FreeSans" font-size="10" font-style="normal" font-weight="normal" transform="translate(51.2239,269.528) rotate(-0,12,-4)" xml:space="preserve">
    <text fill="rgb(38,38,38)" x="0 6 " y="-0">20</text>
   </g>
   <g font-family="FreeSans" font-size="10" font-style="normal" font-weight="normal" transform="translate(51.2239,192.788) rotate(-0,12,-4)" xml:space="preserve">
    <text fill="rgb(38,38,38)" x="0 6 " y="-0">30</text>
   </g>
   <g font-family="FreeSans" font-size="10" font-style="normal" font-weight="normal" transform="translate(51.2239,116.049) rotate(-0,12,-4)" xml:space="preserve">
    <text fill="rgb(38,38,38)" x="0 6 " y="-0">40</text>
   </g>
   <g font-family="FreeSans" font-size="10" font-style="normal" font-weight="normal" transform="translate(51.2239,39.3095) rotate(-0,12,-4)" xml:space="preserve">
    <text fill="rgb(38,38,38)" x="0 6 " y="-0">50</text>
   </g>
   <polyline fill="none" points="68.2201,419.007 474.917,419.007" stroke="#262626" stroke-dasharray="16,0" stroke-linecap="square" stroke-linejoin="miter" stroke-width="0.5"/>
   <polyline fill="none" points="68.2201,35.3095 474.917,35.3095" stroke="#262626" stroke-dasharray="16,0" stroke-linecap="square" stroke-linejoin="miter" stroke-width="0.5"/>
   <polyline fill="none" points="68.2201,419.007 68.2201,35.3095" stroke="#262626" stroke-dasharray="16,0" stroke-linecap="square" stroke-linejoin="miter" stroke-width="0.5"/>
   <polyline fill="none" points="474.917,419.007 474.917,35.3095" stroke="#262626" stroke-dasharray="16,0" stroke-linecap="square" stroke-linejoin="miter" stroke-width="0.5"/>
   <g font-family="FreeSans" font-size="11" font-style="normal" font-weight="bold" transform="translate(44.5686,25.3095) rotate(-0,227,0)" xml:space="preserve">
    <text fill="rgb(0,0,0)" x="0 8 12 19 26 33 36 44 50 53 59 65 68 75 79 82 89 92 100 103 110 113 116 120 126 130 133 136 143 147 154 160 164 170 176 182 185 188 198 204 210 217 220 226 230 234 237 241 244 250 254 260 266 269 275 281 287 293 299 302 305 315 321 327 334 337 343 347 351 354 363 369 372 379 386 390 396 403 409 415 418 424 430 436 442 448 " y="-3">Group Delay of FIR Filter, order=79, mean err flat=0.85924, mean err weighted=0.868369</text>
   </g>
   <polyline fill="none" points="68.2201,413.748 69.0145,413.748 69.8088,413.746 70.6031,413.744 71.3975,413.742 72.1918,413.738 72.9861,413.734 73.7804,413.729 74.5748,413.723 75.3691,413.717 76.1635,413.709 76.9578,413.701 77.7521,413.692 78.5464,413.682 79.3408,413.671 80.1351,413.66 80.9294,413.648 81.7238,413.635 82.5181,413.621 83.3124,413.606 84.1067,413.59 84.9011,413.574 85.6954,413.557 86.4897,413.538 87.2841,413.519 88.0784,413.499 88.8727,413.478 89.6671,413.456 90.4614,413.433 91.2557,413.41 92.05,413.385 92.8444,413.359 93.6387,413.332 94.433,413.305 95.2274,413.276 96.0217,413.246 96.816,413.215 97.6104,413.183 98.4047,413.15 99.199,413.116 99.9933,413.081 100.788,413.044 101.582,413.006 102.376,412.967 103.171,412.927 103.965,412.885 104.759,412.843 105.554,412.799 106.348,412.753 107.142,412.706 107.937,412.658 108.731,412.608 109.525,412.557 110.32,412.504 111.114,412.449 111.908,412.393 112.703,412.336 113.497,412.276 114.291,412.215 115.086,412.152 115.88,412.087 116.674,412.021 117.469,411.952 118.263,411.881 119.057,411.809 119.852,411.734 120.646,411.657 121.44,411.577 122.235,411.496 123.029,411.412 123.823,411.325 124.618,411.236 125.412,411.145 126.206,411.05 127.001,410.953 127.795,410.853 128.589,410.75 129.384,410.644 130.178,410.534 130.972,410.421 131.767,410.305 132.561,410.185 133.355,410.062 134.15,409.935 134.944,409.803 135.738,409.668 136.533,409.528 137.327,409.384 138.121,409.235 138.916,409.081 139.71,408.923 140.504,408.759 141.299,408.59 142.093,408.415 142.887,408.234 143.681,408.047 144.476,407.854 145.27,407.654 146.064,407.447 146.859,407.232 147.653,407.011 148.447,406.781 149.242,406.542 150.036,406.295 150.83,406.039 151.625,405.773 152.419,405.497 153.213,405.211 154.008,404.913 154.802,404.604 155.596,404.282 156.391,403.947 157.185,403.599 157.979,403.236 158.774,402.858 159.568,402.463 160.362,402.052 161.157,401.622 161.951,401.173 162.745,400.704 163.54,400.213 164.334,399.7 165.128,399.161 165.923,398.597 166.717,398.005 167.511,397.383 168.306,396.729 169.1,396.041 169.894,395.317 170.689,394.553 171.483,393.746 172.277,392.894 173.072,391.993 173.866,391.038 174.66,390.025 175.455,388.949 176.249,387.804 177.043,386.583 177.838,385.281 178.632,383.889 179.426,382.397 180.221,380.795 181.015,379.072 181.809,377.214 182.604,375.206 183.398,373.03 184.192,370.666 184.987,368.09 185.781,365.274 186.575,362.187 187.37,358.792 188.164,355.045 188.958,350.898 189.753,346.291 190.547,341.159 191.341,335.427 192.136,329.014 192.93,321.833 193.724,313.799 194.519,304.841 195.313,294.918 196.107,284.053 196.902,272.372 197.696,260.159 198.49,247.902 199.285,236.313 200.079,226.286 200.873,218.747 201.668,214.434 202.462,213.672 203.256,216.263 204.051,221.56 204.845,228.673 205.639,236.704 206.434,244.911 207.228,252.772 208.022,259.978 208.817,266.385 209.611,271.963 210.405,276.747 211.2,280.81 211.994,284.237 212.788,287.113 213.583,289.516 214.377,291.516 215.171,293.17 215.966,294.526 216.76,295.621 217.554,296.485 218.349,297.141 219.143,297.605 219.937,297.889 220.731,298.003 221.526,297.951 222.32,297.736 223.114,297.358 223.909,296.812 224.703,296.092 225.497,295.187 226.292,294.08 227.086,292.75 227.88,291.169 228.675,289.303 229.469,287.112 230.263,284.552 231.058,281.577 231.852,278.146 232.646,274.228 233.441,269.816 234.235,264.944 235.029,259.702 235.824,254.264 236.618,248.903 237.412,243.996 238.207,240.006 239.001,237.427 239.795,236.702 240.59,238.125 241.384,241.766 242.178,247.451 242.973,254.805 243.767,263.34 244.561,272.549 245.356,281.982 246.15,291.287 246.944,300.215 247.739,308.614 248.533,316.406 249.327,323.565 250.122,330.104 250.916,336.053 251.71,341.457 252.505,346.361 253.299,350.816 254.093,354.866 254.888,358.555 255.682,361.92 256.476,364.998 257.271,367.819 258.065,370.41 258.859,372.795 259.654,374.997 260.448,377.033 261.242,378.92 262.037,380.672 262.831,382.303 263.625,383.824 264.42,385.244 265.214,386.573 266.008,387.819 266.803,388.989 267.597,390.088 268.391,391.123 269.186,392.1 269.98,393.021 270.774,393.892 271.569,394.717 272.363,395.498 273.157,396.239 273.952,396.942 274.746,397.611 275.54,398.247 276.335,398.853 277.129,399.43 277.923,399.981 278.718,400.507 279.512,401.01 280.306,401.49 281.101,401.95 281.895,402.391 282.689,402.812 283.484,403.217 284.278,403.605 285.072,403.978 285.867,404.336 286.661,404.68 287.455,405.011 288.25,405.33 289.044,405.637 289.838,405.932 290.633,406.217 291.427,406.491 292.221,406.756 293.016,407.012 293.81,407.259 294.604,407.497 295.399,407.727 296.193,407.95 296.987,408.165 297.781,408.374 298.576,408.576 299.37,408.771 300.164,408.96 300.959,409.143 301.753,409.321 302.547,409.493 303.342,409.66 304.136,409.822 304.93,409.98 305.725,410.132 306.519,410.281 307.313,410.425 308.108,410.565 308.902,410.701 309.696,410.833 310.491,410.961 311.285,411.087 312.079,411.208 312.874,411.327 313.668,411.442 314.462,411.554 315.257,411.664 316.051,411.77 316.845,411.874 317.64,411.975 318.434,412.073 319.228,412.17 320.023,412.263 320.817,412.355 321.611,412.444 322.406,412.531 323.2,412.616 323.994,412.699 324.789,412.779 325.583,412.858 326.377,412.936 327.172,413.011 327.966,413.085 328.76,413.157 329.555,413.227 330.349,413.296 331.143,413.363 331.938,413.428 332.732,413.493 333.526,413.556 334.321,413.617 335.115,413.677 335.909,413.736 336.704,413.794 337.498,413.85 338.292,413.905 339.087,413.959 339.881,414.012 340.675,414.064 341.47,414.115 342.264,414.164 343.058,414.213 343.853,414.261 344.647,414.307 345.441,414.353 346.236,414.398 347.03,414.442 347.824,414.485 348.619,414.527 349.413,414.569 350.207,414.609 351.002,414.649 351.796,414.688 352.59,414.727 353.385,414.764 354.179,414.801 354.973,414.837 355.768,414.873 356.562,414.908 357.356,414.942 358.151,414.976 358.945,415.009 359.739,415.041 360.534,415.073 361.328,415.104 362.122,415.134 362.917,415.164 363.711,415.194 364.505,415.223 365.3,415.251 366.094,415.279 366.888,415.307 367.683,415.334 368.477,415.36 369.271,415.386 370.066,415.412 370.86,415.437 371.654,415.462 372.449,415.486 373.243,415.51 374.037,415.533 374.832,415.556 375.626,415.579 376.42,415.601 377.215,415.623 378.009,415.644 378.803,415.666 379.597,415.686 380.392,415.707 381.186,415.727 381.98,415.746 382.775,415.766 383.569,415.785 384.363,415.803 385.158,415.822 385.952,415.84 386.746,415.858 387.541,415.875 388.335,415.892 389.129,415.909 389.924,415.926 390.718,415.942 391.512,415.958 392.307,415.974 393.101,415.99 393.895,416.005 394.69,416.02 395.484,416.035 396.278,416.049 397.073,416.063 397.867,416.077 398.661,416.091 399.456,416.105 400.25,416.118 401.044,416.131 401.839,416.144 402.633,416.157 403.427,416.169 404.222,416.181 405.016,416.193 405.81,416.205 406.605,416.217 407.399,416.228 408.193,416.239 408.988,416.25 409.782,416.261 410.576,416.272 411.371,416.282 412.165,416.292 412.959,416.302 413.754,416.312 414.548,416.322 415.342,416.331 416.137,416.341 416.931,416.35 417.725,416.359 418.52,416.368 419.314,416.377 420.108,416.385 420.903,416.393 421.697,416.402 422.491,416.41 423.286,416.417 424.08,416.425 424.874,416.433 425.669,416.44 426.463,416.447 427.257,416.455 428.052,416.462 428.846,416.468 429.64,416.475 430.435,416.482 431.229,416.488 432.023,416.494 432.818,416.501 433.612,416.507 434.406,416.512 435.201,416.518 435.995,416.524 436.789,416.529 437.584,416.535 438.378,416.54 439.172,416.545 439.967,416.55 440.761,416.555 441.555,416.559 442.35,416.564 443.144,416.568 443.938,416.573 444.733,416.577 445.527,416.581 446.321,416.585 447.116,416.589 447.91,416.593 448.704,416.596 449.499,416.6 450.293,416.603 451.087,416.607 451.882,416.61 452.676,416.613 453.47,416.616 454.264,416.619 455.059,416.621 455.853,416.624 456.647,416.626 457.442,416.629 458.236,416.631 459.03,416.633 459.825,416.635 460.619,416.637 461.413,416.639 462.208,416.641 463.002,416.643 463.796,416.644 464.591,416.646 465.385,416.647 466.179,416.648 466.974,416.649 467.768,416.65 468.562,416.651 469.357,416.652 470.151,416.652 470.945,416.653 471.74,416.654 472.534,416.654 473.328,416.654 474.123,416.654" stroke="#0071bc" stroke-linecap="butt" stroke-linejoin="round" stroke-width="0.5"/>
   <polyline fill="none" points="68.2201,131.652 69.0145,131.681 69.8088,131.766 70.6031,131.903 71.3975,132.083 72.1918,132.296 72.9861,132.53 73.7804,132.77 74.5748,133.004 75.3691,133.218 76.1635,133.4 76.9578,133.538 77.7521,133.627 78.5464,133.661 79.3408,133.639 80.1351,133.562 80.9294,133.437 81.7238,133.272 82.5181,133.077 83.3124,132.865 84.1067,132.649 84.9011,132.442 85.6954,132.258 86.4897,132.108 87.2841,132.002 88.0784,131.947 88.8727,131.948 89.6671,132.004 90.4614,132.115 91.2557,132.275 92.05,132.475 92.8444,132.705 93.6387,132.953 94.433,133.205 95.2274,133.448 96.0217,133.67 96.816,133.859 97.6104,134.006 98.4047,134.104 99.199,134.151 99.9933,134.146 100.788,134.092 101.582,133.994 102.376,133.862 103.171,133.705 103.965,133.535 104.759,133.365 105.554,133.207 106.348,133.073 107.142,132.973 107.937,132.916 108.731,132.906 109.525,132.947 110.32,133.04 111.114,133.18 111.908,133.363 112.703,133.581 113.497,133.823 114.291,134.078 115.086,134.334 115.88,134.579 116.674,134.803 117.469,134.996 118.263,135.152 119.057,135.265 119.852,135.334 120.646,135.36 121.44,135.347 122.235,135.301 123.029,135.23 123.823,135.144 124.618,135.052 125.412,134.966 126.206,134.895 127.001,134.848 127.795,134.834 128.589,134.857 129.384,134.921 130.178,135.028 130.972,135.176 131.767,135.362 132.561,135.579 133.355,135.821 134.15,136.08 134.944,136.347 135.738,136.612 136.533,136.868 137.327,137.107 138.121,137.325 138.916,137.519 139.71,137.686 140.504,137.83 141.299,137.953 142.093,138.059 142.887,138.156 143.681,138.25 144.476,138.348 145.27,138.459 146.064,138.587 146.859,138.74 147.653,138.919 148.447,139.129 149.242,139.369 150.036,139.638 150.83,139.932 151.625,140.249 152.419,140.582 153.213,140.927 154.008,141.277 154.802,141.627 155.596,141.974 156.391,142.315 157.185,142.652 157.979,142.985 158.774,143.319 159.568,143.661 160.362,144.018 161.157,144.399 161.951,144.815 162.745,145.274 163.54,145.786 164.334,146.357 165.128,146.994 165.923,147.698 166.717,148.471 167.511,149.309 168.306,150.207 169.1,151.156 169.894,152.146 170.689,153.165 171.483,154.2 172.277,155.239 173.072,156.272 173.866,157.291 174.66,158.293 175.455,159.282 176.249,160.265 177.043,161.258 177.838,162.28 178.632,163.358 179.426,164.524 180.221,165.81 181.015,167.253 181.809,168.89 182.604,170.755 183.398,172.882 184.192,175.302 184.987,178.039 185.781,181.115 186.575,184.541 187.37,188.323 188.164,192.456 188.958,196.923 189.753,201.694 190.547,206.728 191.341,211.97 192.136,217.353 192.93,222.808 193.724,228.264 194.519,233.665 195.313,238.974 196.107,244.19 196.902,249.352 197.696,254.547 198.49,259.9 199.285,265.565 200.079,271.703 200.873,278.443 201.668,285.836 202.462,293.801 203.256,302.057 204.051,310.084 204.845,317.128 205.639,322.298 206.434,324.766 207.228,324.014 208.022,320.023 208.817,313.289 209.611,304.664 210.405,295.113 211.2,285.497 211.994,276.465 212.788,268.429 213.583,261.601 214.377,256.044 215.171,251.722 215.966,248.538 216.76,246.358 217.554,245.031 218.349,244.395 219.143,244.285 219.937,244.544 220.731,245.025 221.526,245.602 222.32,246.18 223.114,246.697 223.909,247.133 224.703,247.511 225.497,247.894 226.292,248.38 227.086,249.09 227.88,250.162 228.675,251.735 229.469,253.942 230.263,256.893 231.058,260.665 231.852,265.281 232.646,270.689 233.441,276.74 234.235,283.165 235.029,289.565 235.824,295.428 236.618,300.185 237.412,303.302 238.207,304.398 239.001,303.336 239.795,300.258 240.59,295.534 241.384,289.662 242.178,283.154 242.973,276.45 243.767,269.869 244.561,263.605 245.356,257.742 246.15,252.281 246.944,247.171 247.739,242.333 248.533,237.682 249.327,233.14 250.122,228.645 250.916,224.16 251.71,219.669 252.505,215.177 253.299,210.706 254.093,206.288 254.888,201.963 255.682,197.771 256.476,193.749 257.271,189.931 258.065,186.342 258.859,183.001 259.654,179.917 260.448,177.094 261.242,174.528 262.037,172.209 262.831,170.123 263.625,168.249 264.42,166.567 265.214,165.05 266.008,163.674 266.803,162.412 267.597,161.239 268.391,160.133 269.186,159.074 269.98,158.045 270.774,157.034 271.569,156.034 272.363,155.039 273.157,154.05 273.952,153.071 274.746,152.105 275.54,151.161 276.335,150.245 277.129,149.366 277.923,148.531 278.718,147.744 279.512,147.012 280.306,146.335 281.101,145.714 281.895,145.147 282.689,144.632 283.484,144.162 284.278,143.734 285.072,143.339 285.867,142.971 286.661,142.623 287.455,142.289 288.25,141.965 289.044,141.645 289.838,141.326 290.633,141.009 291.427,140.691 292.221,140.375 293.016,140.063 293.81,139.756 294.604,139.458 295.399,139.173 296.193,138.902 296.987,138.647 297.781,138.411 298.576,138.193 299.37,137.992 300.164,137.808 300.959,137.637 301.753,137.478 302.547,137.326 303.342,137.178 304.136,137.03 304.93,136.88 305.725,136.724 306.519,136.56 307.313,136.388 308.108,136.208 308.902,136.021 309.696,135.829 310.491,135.635 311.285,135.442 312.079,135.255 312.874,135.077 313.668,134.912 314.462,134.764 315.257,134.635 316.051,134.525 316.845,134.437 317.64,134.369 318.434,134.319 319.228,134.285 320.023,134.263 320.817,134.248 321.611,134.236 322.406,134.222 323.2,134.201 323.994,134.169 324.789,134.123 325.583,134.059 326.377,133.976 327.172,133.874 327.966,133.755 328.76,133.62 329.555,133.473 330.349,133.318 331.143,133.161 331.938,133.006 332.732,132.859 333.526,132.725 334.321,132.608 335.115,132.511 335.909,132.437 336.704,132.386 337.498,132.357 338.292,132.35 339.087,132.362 339.881,132.387 340.675,132.422 341.47,132.461 342.264,132.499 343.058,132.53 343.853,132.549 344.647,132.552 345.441,132.537 346.236,132.5 347.03,132.442 347.824,132.362 348.619,132.263 349.413,132.149 350.207,132.022 351.002,131.889 351.796,131.754 352.59,131.624 353.385,131.503 354.179,131.396 354.973,131.308 355.768,131.241 356.562,131.197 357.356,131.177 358.151,131.178 358.945,131.2 359.739,131.238 360.534,131.289 361.328,131.347 362.122,131.407 362.917,131.464 363.711,131.511 364.505,131.546 365.3,131.563 366.094,131.561 366.888,131.537 367.683,131.492 368.477,131.427 369.271,131.344 370.066,131.246 370.86,131.137 371.654,131.023 372.449,130.91 373.243,130.801 374.037,130.702 374.832,130.617 375.626,130.55 376.42,130.503 377.215,130.477 378.009,130.472 378.803,130.488 379.597,130.521 380.392,130.568 381.186,130.625 381.98,130.688 382.775,130.751 383.569,130.809 384.363,130.859 385.158,130.895 385.952,130.915 386.746,130.917 387.541,130.9 388.335,130.863 389.129,130.809 389.924,130.74 390.718,130.658 391.512,130.568 392.307,130.474 393.101,130.381 393.895,130.293 394.69,130.215 395.484,130.15 396.278,130.1 397.073,130.068 397.867,130.054 398.661,130.058 399.456,130.078 400.25,130.113 401.044,130.159 401.839,130.213 402.633,130.27 403.427,130.326 404.222,130.377 405.016,130.42 405.81,130.452 406.605,130.469 407.399,130.471 408.193,130.457 408.988,130.427 409.782,130.383 410.576,130.327 411.371,130.262 412.165,130.191 412.959,130.118 413.754,130.047 414.548,129.981 415.342,129.923 416.137,129.876 416.931,129.842 417.725,129.822 418.52,129.816 419.314,129.824 420.108,129.845 420.903,129.876 421.697,129.915 422.491,129.958 423.286,130.004 424.08,130.048 424.874,130.087 425.669,130.119 426.463,130.142 427.257,130.153 428.052,130.153 428.846,130.141 429.64,130.117 430.435,130.084 431.229,130.042 432.023,129.995 432.818,129.944 433.612,129.893 434.406,129.844 435.201,129.8 435.995,129.763 436.789,129.734 437.584,129.714 438.378,129.705 439.172,129.705 439.967,129.715 440.761,129.733 441.555,129.757 442.35,129.785 443.144,129.815 443.938,129.845 444.733,129.872 445.527,129.896 446.321,129.913 447.116,129.923 447.91,129.925 448.704,129.92 449.499,129.907 450.293,129.888 451.087,129.863 451.882,129.836 452.676,129.806 453.47,129.778 454.264,129.752 455.059,129.731 455.853,129.716 456.647,129.709 457.442,129.711 458.236,129.722 459.03,129.743 459.825,129.774 460.619,129.814 461.413,129.861 462.208,129.916 463.002,129.975 463.796,130.039 464.591,130.104 465.385,130.169 466.179,130.234 466.974,130.295 467.768,130.353 468.562,130.406 469.357,130.454 470.151,130.496 470.945,130.532 471.74,130.561 472.534,130.583 473.328,130.599 474.123,130.609" stroke="#d85218" stroke-linecap="butt" stroke-linejoin="round" stroke-width="0.5"/>
   <polyline fill="none" points="68.2201,126.394 69.0145,126.422 69.8088,126.506 70.6031,126.641 71.3975,126.818 72.1918,127.028 72.9861,127.257 73.7804,127.493 74.5748,127.721 75.3691,127.928 76.1635,128.102 76.9578,128.233 77.7521,128.312 78.5464,128.336 79.3408,128.303 80.1351,128.216 80.9294,128.079 81.7238,127.9 82.5181,127.692 83.3124,127.464 84.1067,127.232 84.9011,127.009 85.6954,126.808 86.4897,126.639 87.2841,126.514 88.0784,126.44 88.8727,126.419 89.6671,126.454 90.4614,126.542 91.2557,126.678 92.05,126.853 92.8444,127.058 93.6387,127.279 94.433,127.503 95.2274,127.718 96.0217,127.909 96.816,128.067 97.6104,128.183 98.4047,128.248 99.199,128.261 99.9933,128.22 100.788,128.129 101.582,127.994 102.376,127.822 103.171,127.625 103.965,127.414 104.759,127.201 105.554,126.999 106.348,126.82 107.142,126.673 107.937,126.567 108.731,126.507 109.525,126.497 110.32,126.537 111.114,126.623 111.908,126.75 112.703,126.91 113.497,127.092 114.291,127.286 115.086,127.479 115.88,127.66 116.674,127.817 117.469,127.942 118.263,128.027 119.057,128.067 119.852,128.061 120.646,128.011 121.44,127.918 122.235,127.791 123.029,127.635 123.823,127.463 124.618,127.282 125.412,127.104 126.206,126.939 127.001,126.795 127.795,126.68 128.589,126.6 129.384,126.558 130.178,126.556 130.972,126.591 131.767,126.66 132.561,126.758 133.355,126.877 134.15,127.008 134.944,127.143 135.738,127.273 136.533,127.389 137.327,127.484 138.121,127.554 138.916,127.593 139.71,127.603 140.504,127.582 141.299,127.536 142.093,127.467 142.887,127.383 143.681,127.29 144.476,127.196 145.27,127.106 146.064,127.028 146.859,126.966 147.653,126.923 148.447,126.903 149.242,126.905 150.036,126.926 150.83,126.965 151.625,127.016 152.419,127.073 153.213,127.131 154.008,127.183 154.802,127.224 155.596,127.249 156.391,127.256 157.185,127.244 157.979,127.214 158.774,127.17 159.568,127.117 160.362,127.063 161.157,127.015 161.951,126.982 162.745,126.972 163.54,126.993 164.334,127.05 165.128,127.149 165.923,127.289 166.717,127.469 167.511,127.685 168.306,127.93 169.1,128.191 169.894,128.457 170.689,128.712 171.483,128.94 172.277,129.127 173.072,129.258 173.866,129.322 174.66,129.312 175.455,129.224 176.249,129.062 177.043,128.834 177.838,128.554 178.632,128.24 179.426,127.914 180.221,127.599 181.015,127.319 181.809,127.097 182.604,126.954 183.398,126.906 184.192,126.961 184.987,127.122 185.781,127.382 186.575,127.722 187.37,128.109 188.164,128.495 188.958,128.814 189.753,128.978 190.547,128.88 191.341,128.39 192.136,127.361 192.93,125.635 193.724,123.057 194.519,119.499 195.313,114.885 196.107,109.236 196.902,102.718 197.696,95.6992 198.49,88.7946 199.285,82.872 200.079,78.9827 200.873,78.1833 201.668,81.264 202.462,88.4664 203.256,99.3134 204.051,112.637 204.845,126.795 205.639,139.996 206.434,150.671 207.228,157.78 208.022,160.994 208.817,160.667 209.611,157.621 210.405,152.854 211.2,147.301 211.994,141.695 212.788,136.535 213.583,132.111 214.377,128.553 215.171,125.886 215.966,124.057 216.76,122.973 217.554,122.51 218.349,122.529 219.143,122.883 219.937,123.426 220.731,124.021 221.526,124.547 222.32,124.91 223.114,125.048 223.909,124.938 224.703,124.597 225.497,124.075 226.292,123.454 227.086,122.834 227.88,122.324 228.675,122.031 229.469,122.047 230.263,122.438 231.058,123.236 231.852,124.42 232.646,125.91 233.441,127.55 234.235,129.102 235.029,130.261 235.824,130.686 236.618,130.082 237.412,128.291 238.207,125.397 239.001,121.756 239.795,117.953 240.59,114.652 241.384,112.421 242.178,111.598 242.973,112.248 243.767,114.202 244.561,117.147 245.356,120.717 246.15,124.561 246.944,128.379 247.739,131.94 248.533,135.081 249.327,137.699 250.122,139.743 250.916,141.207 251.71,142.119 252.505,142.532 253.299,142.515 254.093,142.147 254.888,141.511 255.682,140.684 256.476,139.741 257.271,138.743 258.065,137.745 258.859,136.789 259.654,135.907 260.448,135.12 261.242,134.441 262.037,133.875 262.831,133.419 263.625,133.067 264.42,132.804 265.214,132.617 266.008,132.486 266.803,132.394 267.597,132.321 268.391,132.25 269.186,132.167 269.98,132.06 270.774,131.92 271.569,131.744 272.363,131.53 273.157,131.282 273.952,131.006 274.746,130.709 275.54,130.401 276.335,130.091 277.129,129.79 277.923,129.505 278.718,129.245 279.512,129.015 280.306,128.818 281.101,128.657 281.895,128.531 282.689,128.437 283.484,128.373 284.278,128.332 285.072,128.31 285.867,128.3 286.661,128.297 287.455,128.294 288.25,128.288 289.044,128.275 289.838,128.252 290.633,128.219 291.427,128.176 292.221,128.125 293.016,128.068 293.81,128.008 294.604,127.949 295.399,127.894 296.193,127.845 296.987,127.806 297.781,127.778 298.576,127.762 299.37,127.756 300.164,127.761 300.959,127.774 301.753,127.792 302.547,127.813 303.342,127.832 304.136,127.846 304.93,127.853 305.725,127.849 306.519,127.834 307.313,127.806 308.108,127.766 308.902,127.715 309.696,127.655 310.491,127.589 311.285,127.522 312.079,127.456 312.874,127.397 313.668,127.348 314.462,127.312 315.257,127.292 316.051,127.289 316.845,127.304 317.64,127.337 318.434,127.386 319.228,127.448 320.023,127.52 320.817,127.596 321.611,127.674 322.406,127.747 323.2,127.811 323.994,127.861 324.789,127.896 325.583,127.91 326.377,127.905 327.172,127.879 327.966,127.833 328.76,127.77 329.555,127.693 330.349,127.607 331.143,127.517 331.938,127.428 332.732,127.345 333.526,127.274 334.321,127.219 335.115,127.182 335.909,127.166 336.704,127.173 337.498,127.201 338.292,127.249 339.087,127.314 339.881,127.392 340.675,127.479 341.47,127.569 342.264,127.656 343.058,127.736 343.853,127.803 344.647,127.853 345.441,127.883 346.236,127.892 347.03,127.877 347.824,127.841 348.619,127.784 349.413,127.711 350.207,127.625 351.002,127.531 351.796,127.436 352.59,127.344 353.385,127.26 354.179,127.191 354.973,127.139 355.768,127.108 356.562,127.099 357.356,127.112 358.151,127.147 358.945,127.202 359.739,127.273 360.534,127.355 361.328,127.444 362.122,127.535 362.917,127.622 363.711,127.699 364.505,127.762 365.3,127.808 366.094,127.834 366.888,127.838 367.683,127.82 368.477,127.781 369.271,127.723 370.066,127.651 370.86,127.568 371.654,127.479 372.449,127.389 373.243,127.304 374.037,127.228 374.832,127.167 375.626,127.122 376.42,127.097 377.215,127.093 378.009,127.11 378.803,127.147 379.597,127.201 380.392,127.268 381.186,127.346 381.98,127.428 382.775,127.51 383.569,127.588 384.363,127.656 385.158,127.711 385.952,127.749 386.746,127.768 387.541,127.769 388.335,127.749 389.129,127.712 389.924,127.659 390.718,127.593 391.512,127.519 392.307,127.441 393.101,127.364 393.895,127.292 394.69,127.228 395.484,127.178 396.278,127.143 397.073,127.125 397.867,127.125 398.661,127.142 399.456,127.177 400.25,127.225 401.044,127.284 401.839,127.35 402.633,127.42 403.427,127.489 404.222,127.552 405.016,127.607 405.81,127.65 406.605,127.679 407.399,127.692 408.193,127.689 408.988,127.671 409.782,127.637 410.576,127.592 411.371,127.538 412.165,127.477 412.959,127.414 413.754,127.353 414.548,127.296 415.342,127.248 416.137,127.21 416.931,127.185 417.725,127.174 418.52,127.177 419.314,127.194 420.108,127.223 420.903,127.263 421.697,127.31 422.491,127.362 423.286,127.415 424.08,127.467 424.874,127.513 425.669,127.553 426.463,127.583 427.257,127.601 428.052,127.608 428.846,127.603 429.64,127.586 430.435,127.559 431.229,127.524 432.023,127.483 432.818,127.438 433.612,127.393 434.406,127.35 435.201,127.312 435.995,127.28 436.789,127.256 437.584,127.242 438.378,127.238 439.172,127.244 439.967,127.258 440.761,127.281 441.555,127.31 442.35,127.342 443.144,127.377 443.938,127.411 444.733,127.443 445.527,127.47 446.321,127.491 447.116,127.505 447.91,127.511 448.704,127.51 449.499,127.5 450.293,127.484 451.087,127.463 451.882,127.439 452.676,127.413 453.47,127.387 454.264,127.364 455.059,127.345 455.853,127.333 456.647,127.329 457.442,127.333 458.236,127.347 459.03,127.37 459.825,127.403 460.619,127.444 461.413,127.494 462.208,127.55 463.002,127.611 463.796,127.676 464.591,127.743 465.385,127.81 466.179,127.875 466.974,127.938 467.768,127.997 468.562,128.051 469.357,128.099 470.151,128.142 470.945,128.178 471.74,128.208 472.534,128.231 473.328,128.247 474.123,128.257" stroke="#ecb01f" stroke-linecap="butt" stroke-linejoin="round" stroke-width="0.5"/>
   <polyline fill="none" points="68.2201,124.355 69.0145,124.355 69.8088,124.355 70.6031,124.355 71.3975,124.355 72.1918,124.355 72.9861,124.355 73.7804,124.355 74.5748,124.355 75.3691,124.355 76.1635,124.355 76.9578,124.355 77.7521,124.355 78.5464,124.355 79.3408,124.355 80.1351,124.355 80.9294,124.355 81.7238,124.355 82.5181,124.355 83.3124,124.355 84.1067,124.355 84.9011,124.355 85.6954,124.355 86.4897,124.355 87.2841,124.355 88.0784,124.355 88.8727,124.355 89.6671,124.355 90.4614,124.355 91.2557,124.355 92.05,124.355 92.8444,124.355 93.6387,124.355 94.433,124.355 95.2274,124.355 96.0217,124.355 96.816,124.355 97.6104,124.355 98.4047,124.355 99.199,124.355 99.9933,124.355 100.788,124.355 101.582,124.355 102.376,124.355 103.171,124.355 103.965,124.355 104.759,124.355 105.554,124.355 106.348,124.355 107.142,124.355 107.937,124.355 108.731,124.355 109.525,124.355 110.32,124.355 111.114,124.355 111.908,124.355 112.703,124.355 113.497,124.355 114.291,124.355 115.086,124.355 115.88,124.355 116.674,124.355 117.469,124.355 118.263,124.355 119.057,124.355 119.852,124.355 120.646,124.355 121.44,124.355 122.235,124.355 123.029,124.355 123.823,124.355 124.618,124.355 125.412,124.355 126.206,124.355 127.001,124.355 127.795,124.355 128.589,124.355 129.384,124.355 130.178,124.355 130.972,124.355 131.767,124.355 132.561,124.355 133.355,124.355 134.15,124.355 134.944,124.355 135.738,124.355 136.533,124.355 137.327,124.355 138.121,124.355 138.916,124.355 139.71,124.355 140.504,124.355 141.299,124.355 142.093,124.355 142.887,124.355 143.681,124.355 144.476,124.355 145.27,124.355 146.064,124.355 146.859,124.355 147.653,124.355 148.447,124.355 149.242,124.355 150.036,124.355 150.83,124.355 151.625,124.355 152.419,124.355 153.213,124.355 154.008,124.355 154.802,124.355 155.596,124.355 156.391,124.355 157.185,124.355 157.979,124.355 158.774,124.355 159.568,124.355 160.362,124.355 161.157,124.355 161.951,124.355 162.745,124.355 163.54,124.355 164.334,124.355 165.128,124.355 165.923,124.355 166.717,124.355 167.511,124.355 168.306,124.355 169.1,124.355 169.894,124.355 170.689,124.355 171.483,124.355 172.277,124.355 173.072,124.355 173.866,124.355 174.66,124.355 175.455,124.355 176.249,124.355 177.043,124.355 177.838,124.355 178.632,124.355 179.426,124.355 180.221,124.355 181.015,124.355 181.809,124.355 182.604,124.355 183.398,124.355 184.192,124.355 184.987,124.355 185.781,124.355 186.575,124.355 187.37,124.355 188.164,124.355 188.958,124.355 189.753,124.355 190.547,124.355 191.341,124.355 192.136,124.355 192.93,124.355 193.724,124.355 194.519,124.355 195.313,124.355 196.107,124.355 196.902,124.355 197.696,124.355 198.49,124.355 199.285,124.355 200.079,124.355 200.873,124.355 201.668,124.355 202.462,124.355 203.256,124.355 204.051,124.355 204.845,124.355 205.639,124.355 206.434,124.355 207.228,124.355 208.022,124.355 208.817,124.355 209.611,124.355 210.405,124.355 211.2,124.355 211.994,124.355 212.788,124.355 213.583,124.355 214.377,124.355 215.171,124.355 215.966,124.355 216.76,124.355 217.554,124.355 218.349,124.355 219.143,124.355 219.937,124.355 220.731,124.355 221.526,124.355 222.32,124.355 223.114,124.355 223.909,124.355 224.703,124.355 225.497,124.355 226.292,124.355 227.086,124.355 227.88,124.355 228.675,124.355 229.469,124.355 230.263,124.355 231.058,124.355 231.852,124.355 232.646,124.355 233.441,124.355 234.235,124.355 235.029,124.355 235.824,124.355 236.618,124.355 237.412,124.355 238.207,124.355 239.001,124.355 239.795,124.355 240.59,124.355 241.384,124.355 242.178,124.355 242.973,124.355 243.767,124.355 244.561,124.355 245.356,124.355 246.15,124.355 246.944,124.355 247.739,124.355 248.533,124.355 249.327,124.355 250.122,124.355 250.916,124.355 251.71,124.355 252.505,124.355 253.299,124.355 254.093,124.355 254.888,124.355 255.682,124.355 256.476,124.355 257.271,124.355 258.065,124.355 258.859,124.355 259.654,124.355 260.448,124.355 261.242,124.355 262.037,124.355 262.831,124.355 263.625,124.355 264.42,124.355 265.214,124.355 266.008,124.355 266.803,124.355 267.597,124.355 268.391,124.355 269.186,124.355 269.98,124.355 270.774,124.355 271.569,124.355 272.363,124.355 273.157,124.355 273.952,124.355 274.746,124.355 275.54,124.355 276.335,124.355 277.129,124.355 277.923,124.355 278.718,124.355 279.512,124.355 280.306,124.355 281.101,124.355 281.895,124.355 282.689,124.355 283.484,124.355 284.278,124.355 285.072,124.355 285.867,124.355 286.661,124.355 287.455,124.355 288.25,124.355 289.044,124.355 289.838,124.355 290.633,124.355 291.427,124.355 292.221,124.355 293.016,124.355 293.81,124.355 294.604,124.355 295.399,124.355 296.193,124.355 296.987,124.355 297.781,124.355 298.576,124.355 299.37,124.355 300.164,124.355 300.959,124.355 301.753,124.355 302.547,124.355 303.342,124.355 304.136,124.355 304.93,124.355 305.725,124.355 306.519,124.355 307.313,124.355 308.108,124.355 308.902,124.355 309.696,124.355 310.491,124.355 311.285,124.355 312.079,124.355 312.874,124.355 313.668,124.355 314.462,124.355 315.257,124.355 316.051,124.355 316.845,124.355 317.64,124.355 318.434,124.355 319.228,124.355 320.023,124.355 320.817,124.355 321.611,124.355 322.406,124.355 323.2,124.355 323.994,124.355 324.789,124.355 325.583,124.355 326.377,124.355 327.172,124.355 327.966,124.355 328.76,124.355 329.555,124.355 330.349,124.355 331.143,124.355 331.938,124.355 332.732,124.355 333.526,124.355 334.321,124.355 335.115,124.355 335.909,124.355 336.704,124.355 337.498,124.355 338.292,124.355 339.087,124.355 339.881,124.355 340.675,124.355 341.47,124.355 342.264,124.355 343.058,124.355 343.853,124.355 344.647,124.355 345.441,124.355 346.236,124.355 347.03,124.355 347.824,124.355 348.619,124.355 349.413,124.355 350.207,124.355 351.002,124.355 351.796,124.355 352.59,124.355 353.385,124.355 354.179,124.355 354.973,124.355 355.768,124.355 356.562,124.355 357.356,124.355 358.151,124.355 358.945,124.355 359.739,124.355 360.534,124.355 361.328,124.355 362.122,124.355 362.917,124.355 363.711,124.355 364.505,124.355 365.3,124.355 366.094,124.355 366.888,124.355 367.683,124.355 368.477,124.355 369.271,124.355 370.066,124.355 370.86,124.355 371.654,124.355 372.449,124.355 373.243,124.355 374.037,124.355 374.832,124.355 375.626,124.355 376.42,124.355 377.215,124.355 378.009,124.355 378.803,124.355 379.597,124.355 380.392,124.355 381.186,124.355 381.98,124.355 382.775,124.355 383.569,124.355 384.363,124.355 385.158,124.355 385.952,124.355 386.746,124.355 387.541,124.355 388.335,124.355 389.129,124.355 389.924,124.355 390.718,124.355 391.512,124.355 392.307,124.355 393.101,124.355 393.895,124.355 394.69,124.355 395.484,124.355 396.278,124.355 397.073,124.355 397.867,124.355 398.661,124.355 399.456,124.355 400.25,124.355 401.044,124.355 401.839,124.355 402.633,124.355 403.427,124.355 404.222,124.355 405.016,124.355 405.81,124.355 406.605,124.355 407.399,124.355 408.193,124.355 408.988,124.355 409.782,124.355 410.576,124.355 411.371,124.355 412.165,124.355 412.959,124.355 413.754,124.355 414.548,124.355 415.342,124.355 416.137,124.355 416.931,124.355 417.725,124.355 418.52,124.355 419.314,124.355 420.108,124.355 420.903,124.355 421.697,124.355 422.491,124.355 423.286,124.355 424.08,124.355 424.874,124.355 425.669,124.355 426.463,124.355 427.257,124.355 428.052,124.355 428.846,124.355 429.64,124.355 430.435,124.355 431.229,124.355 432.023,124.355 432.818,124.355 433.612,124.355 434.406,124.355 435.201,124.355 435.995,124.355 436.789,124.355 437.584,124.355 438.378,124.355 439.172,124.355 439.967,124.355 440.761,124.355 441.555,124.355 442.35,124.355 443.144,124.355 443.938,124.355 444.733,124.355 445.527,124.355 446.321,124.355 447.116,124.355 447.91,124.355 448.704,124.355 449.499,124.355 450.293,124.355 451.087,124.355 451.882,124.355 452.676,124.355 453.47,124.355 454.264,124.355 455.059,124.355 455.853,124.355 456.647,124.355 457.442,124.355 458.236,124.355 459.03,124.355 459.825,124.355 460.619,124.355 461.413,124.355 462.208,124.355 463.002,124.355 463.796,124.355 464.591,124.355 465.385,124.355 466.179,124.355 466.974,124.355 467.768,124.355 468.562,124.355 469.357,124.355 470.151,124.355 470.945,124.355 471.74,124.355 472.534,124.355 473.328,124.355 474.123,124.355" stroke="#7d2e8d" stroke-linecap="butt" stroke-linejoin="round" stroke-width="0.5"/>
   <polyline fill="none" points="108.89,419.005 111.073,419.006 113.257,419.006 115.441,419.006 117.624,419.005 119.808,419.003 121.991,419.002 124.175,418.999 126.359,418.997 128.542,418.993 130.726,418.989 132.91,418.984 135.093,418.978 137.277,418.97 139.46,418.96 141.644,418.949 143.828,418.934 146.011,418.916 148.195,418.894 150.378,418.867 152.562,418.833 154.746,418.789 156.929,418.732 159.113,418.661 161.296,418.572 163.48,418.457 165.664,418.298 167.847,418.089 170.031,417.815 172.214,417.456 174.398,416.98 176.582,416.313 178.765,415.477 180.949,414.517 183.133,413.516 185.316,412.636 187.5,412.098 189.683,411.79 191.867,411.641 194.051,411.582 196.234,411.557 198.418,411.535 200.601,411.508 202.785,411.477 204.969,411.441 207.152,411.403 209.336,411.362 211.519,411.323 213.703,411.285 215.887,411.251 218.07,411.222 220.254,411.207 222.437,411.218 224.621,411.278 226.805,411.42 228.988,411.717 231.172,412.27 233.355,413.021 235.539,413.898 237.723,414.812 239.906,415.644 242.09,416.32 244.274,416.871 246.457,417.31 248.641,417.656 250.824,417.919 253.008,418.12 255.192,418.281 257.375,418.412 259.559,418.517 261.742,418.599 263.926,418.665 266.11,418.72 268.293,418.766 270.477,418.804 272.66,418.835 274.844,418.86 277.028,418.882 279.211,418.9 281.395,418.916 283.578,418.929 285.762,418.94 287.946,418.95 290.129,418.958 292.313,418.965 294.496,418.971 296.68,418.976 298.864,418.981 301.047,418.985 303.231,418.988 305.415,418.991 307.598,418.994 309.782,418.996 311.965,418.998 314.149,419 316.333,419.001 318.516,419.002 320.7,419.003 322.883,419.004 325.067,419.005 327.251,419.006 329.434,419.006 331.618,419.006 333.801,419.006 335.985,419.005 338.169,419.005 340.352,419.005 342.536,419.005 344.719,419.005 346.903,419.004 349.087,419.004 351.27,419.004 353.454,419.004 355.638,419.004 357.821,419.004 360.005,419.004 362.188,419.004 364.372,419.004 366.556,419.004 368.739,419.004 370.923,419.004 373.106,419.004 375.29,419.005 377.474,419.005 379.657,419.005 381.841,419.005 384.024,419.005 386.208,419.005 388.392,419.005 390.575,419.005 392.759,419.005 394.942,419.005 397.126,419.006 399.31,419.006 401.493,419.006 403.677,419.006 405.86,419.006 408.044,419.006 410.228,419.006 412.411,419.006 414.595,419.006 416.779,419.006 418.962,419.007 421.146,419.006 423.329,419.006 425.513,419.006 427.697,419.006 429.88,419.006 432.064,419.006 434.247,419.006" stroke="#76ab2f" stroke-linecap="butt" stroke-linejoin="round" stroke-width="0.5"/>
  </g>
  <clipPath id="cp00524470">
   <polygon points="0,470 524,470 524,0 0,0"/>
  </clipPath>
  <g clip-path="url(#cp00524470)">
   <polygon fill="#ffffff" points="355.9,115.324 466.914,115.324 466.914,43.313 355.9,43.313" shape-rendering="crispEdges"/>
   <polyline fill="none" points="355.9,115.324 466.914,115.324" stroke="#262626" stroke-dasharray="16,0" stroke-linecap="square" stroke-linejoin="miter" stroke-width="0.5"/>
   <polyline fill="none" points="355.9,43.313 466.914,43.313" stroke="#262626" stroke-dasharray="16,0" stroke-linecap="square" stroke-linejoin="miter" stroke-width="0.5"/>
   <polyline fill="none" points="355.9,115.324 355.9,43.313" stroke="#262626" stroke-dasharray="16,0" stroke-linecap="square" stroke-linejoin="miter" stroke-width="0.5"/>
   <polyline fill="none" points="466.914,115.324 466.914,43.313" stroke="#262626" stroke-dasharray="16,0" stroke-linecap="square" stroke-linejoin="miter" stroke-width="0.5"/>
   <polyline fill="none" points="359.901,52.3148 379.91,52.3148" stroke="#0071bc" stroke-linecap="butt" stroke-linejoin="round" stroke-width="0.5"/>
   <g font-family="FreeSans" font-size="9" font-style="normal" font-weight="normal" transform="translate(383.912,57.3148) rotate(-0,-0,-5)" xml:space="preserve">
    <text fill="rgb(0,0,0)" x="0 3 8 13 18 " y="-2">Input</text>
   </g>
   <polyline fill="none" points="359.901,66.3165 379.91,66.3165" stroke="#d85218" stroke-linecap="butt" stroke-linejoin="round" stroke-width="0.5"/>
   <g font-family="FreeSans" font-size="9" font-style="normal" font-weight="normal" transform="translate(383.912,71.3165) rotate(-0,-0,-5)" xml:space="preserve">
    <text fill="rgb(0,0,0)" x="0 6 11 18 23 28 33 37 42 45 47 52 57 59 64 66 68 71 76 " y="-2">Compensation Filter</text>
   </g>
   <polyline fill="none" points="359.901,79.8183 379.91,79.8183" stroke="#ecb01f" stroke-linecap="butt" stroke-linejoin="round" stroke-width="0.5"/>
   <g font-family="FreeSans" font-size="9" font-style="normal" font-weight="normal" transform="translate(383.912,84.3183) rotate(-0,-0,-4.5)" xml:space="preserve">
    <text fill="rgb(0,0,0)" x="0 6 11 18 23 25 30 35 " y="-1">Combined</text>
   </g>
   <polyline fill="none" points="359.901,92.82 379.91,92.82" stroke="#7d2e8d" stroke-linecap="butt" stroke-linejoin="round" stroke-width="0.5"/>
   <g font-family="FreeSans" font-size="9" font-style="normal" font-weight="normal" transform="translate(383.912,97.32) rotate(-0,-0,-4.5)" xml:space="preserve">
    <text fill="rgb(0,0,0)" x="0 3 8 11 16 21 " y="-2">target</text>
   </g>
   <polyline fill="none" points="359.901,106.322 379.91,106.322" stroke="#76ab2f" stroke-linecap="butt" stroke-linejoin="round" stroke-width="0.5"/>
   <g font-family="FreeSans" font-size="9" font-style="normal" font-weight="normal" transform="translate(383.912,111.322) rotate(-0,-0,-5)" xml:space="preserve">
    <text fill="rgb(0,0,0)" x="0 5 8 11 13 20 25 27 32 37 40 " y="-2">err weights</text>
   </g>
  </g>
 </g>
</svg>
