<?xml version='1.0' encoding='UTF-8' standalone='no'?>
<svg height="320pt" viewBox="0 0 374 320" width="374pt" xmlns="http://www.w3.org/2000/svg" xmlns:xlink="http://www.w3.org/1999/xlink">
 <title>Figure 9</title>
 <desc>
Creator: GL2PS 1.4.2, (C) 1999-2020 C. Geuzaine
For: Octave
CreationDate: Thu Feb 19 11:56:00 2026
</desc>
 <defs/>
 <polygon fill="#ffffff" points="0,0 374,0 374,320 0,320"/>
 <g>
  <polygon fill="#ffffff" points="0,320 374,320 374,0 0,0" shape-rendering="crispEdges"/>
  <clipPath id="cp00374320">
   <polygon points="0,320 374,320 374,0 0,0"/>
  </clipPath>
  <g clip-path="url(#cp00374320)">
   <polygon fill="#ffffff" points="48.7287,285.565 339.226,285.565 339.226,24.0645 48.7287,24.0645" shape-rendering="crispEdges"/>
   <polyline fill="none" points="48.7287,285.565 48.7287,282.666" stroke="#262626" stroke-linecap="butt" stroke-linejoin="miter" stroke-width="0.5"/>
   <polyline fill="none" points="48.7287,24.0645 48.7287,26.9639" stroke="#262626" stroke-linecap="butt" stroke-linejoin="miter" stroke-width="0.5"/>
   <polyline fill="none" points="106.828,285.565 106.828,282.666" stroke="#262626" stroke-linecap="butt" stroke-linejoin="miter" stroke-width="0.5"/>
   <polyline fill="none" points="106.828,24.0645 106.828,26.9639" stroke="#262626" stroke-linecap="butt" stroke-linejoin="miter" stroke-width="0.5"/>
   <polyline fill="none" points="164.928,285.565 164.928,282.666" stroke="#262626" stroke-linecap="butt" stroke-linejoin="miter" stroke-width="0.5"/>
   <polyline fill="none" points="164.928,24.0645 164.928,26.9639" stroke="#262626" stroke-linecap="butt" stroke-linejoin="miter" stroke-width="0.5"/>
   <polyline fill="none" points="223.027,285.565 223.027,282.666" stroke="#262626" stroke-linecap="butt" stroke-linejoin="miter" stroke-width="0.5"/>
   <polyline fill="none" points="223.027,24.0645 223.027,26.9639" stroke="#262626" stroke-linecap="butt" stroke-linejoin="miter" stroke-width="0.5"/>
   <polyline fill="none" points="281.127,285.565 281.127,282.666" stroke="#262626" stroke-linecap="butt" stroke-linejoin="miter" stroke-width="0.5"/>
   <polyline fill="none" points="281.127,24.0645 281.127,26.9639" stroke="#262626" stroke-linecap="butt" stroke-linejoin="miter" stroke-width="0.5"/>
   <polyline fill="none" points="339.226,285.565 339.226,282.666" stroke="#262626" stroke-linecap="butt" stroke-linejoin="miter" stroke-width="0.5"/>
   <polyline fill="none" points="339.226,24.0645 339.226,26.9639" stroke="#262626" stroke-linecap="butt" stroke-linejoin="miter" stroke-width="0.5"/>
   <g font-family="FreeSans" font-size="10" font-style="normal" font-weight="normal" transform="translate(45.7287,301.051) rotate(-0,3,-8)" xml:space="preserve">
    <text fill="rgb(38,38,38)" x="0 " y="-0">0</text>
   </g>
   <g font-family="FreeSans" font-size="10" font-style="normal" font-weight="normal" transform="translate(99.3282,301.051) rotate(-0,7.5,-8)" xml:space="preserve">
    <text fill="rgb(38,38,38)" x="0 6 9 " y="-0">0.2</text>
   </g>
   <g font-family="FreeSans" font-size="10" font-style="normal" font-weight="normal" transform="translate(157.428,301.051) rotate(-0,7.5,-8)" xml:space="preserve">
    <text fill="rgb(38,38,38)" x="0 6 9 " y="-0">0.4</text>
   </g>
   <g font-family="FreeSans" font-size="10" font-style="normal" font-weight="normal" transform="translate(215.527,301.051) rotate(-0,7.5,-8)" xml:space="preserve">
    <text fill="rgb(38,38,38)" x="0 6 9 " y="-0">0.6</text>
   </g>
   <g font-family="FreeSans" font-size="10" font-style="normal" font-weight="normal" transform="translate(273.627,301.051) rotate(-0,7.5,-8)" xml:space="preserve">
    <text fill="rgb(38,38,38)" x="0 6 9 " y="-0">0.8</text>
   </g>
   <g font-family="FreeSans" font-size="10" font-style="normal" font-weight="normal" transform="translate(336.226,301.051) rotate(-0,3,-8)" xml:space="preserve">
    <text fill="rgb(38,38,38)" x="0 " y="-0">1</text>
   </g>
   <polyline fill="none" points="48.7287,285.565 51.6386,285.565" stroke="#262626" stroke-linecap="butt" stroke-linejoin="miter" stroke-width="0.5"/>
   <polyline fill="none" points="339.226,285.565 336.316,285.565" stroke="#262626" stroke-linecap="butt" stroke-linejoin="miter" stroke-width="0.5"/>
   <polyline fill="none" points="48.7287,233.265 51.6386,233.265" stroke="#262626" stroke-linecap="butt" stroke-linejoin="miter" stroke-width="0.5"/>
   <polyline fill="none" points="339.226,233.265 336.316,233.265" stroke="#262626" stroke-linecap="butt" stroke-linejoin="miter" stroke-width="0.5"/>
   <polyline fill="none" points="48.7287,180.965 51.6386,180.965" stroke="#262626" stroke-linecap="butt" stroke-linejoin="miter" stroke-width="0.5"/>
   <polyline fill="none" points="339.226,180.965 336.316,180.965" stroke="#262626" stroke-linecap="butt" stroke-linejoin="miter" stroke-width="0.5"/>
   <polyline fill="none" points="48.7287,128.665 51.6386,128.665" stroke="#262626" stroke-linecap="butt" stroke-linejoin="miter" stroke-width="0.5"/>
   <polyline fill="none" points="339.226,128.665 336.316,128.665" stroke="#262626" stroke-linecap="butt" stroke-linejoin="miter" stroke-width="0.5"/>
   <polyline fill="none" points="48.7287,76.3645 51.6386,76.3645" stroke="#262626" stroke-linecap="butt" stroke-linejoin="miter" stroke-width="0.5"/>
   <polyline fill="none" points="339.226,76.3645 336.316,76.3645" stroke="#262626" stroke-linecap="butt" stroke-linejoin="miter" stroke-width="0.5"/>
   <polyline fill="none" points="48.7287,24.0645 51.6386,24.0645" stroke="#262626" stroke-linecap="butt" stroke-linejoin="miter" stroke-width="0.5"/>
   <polyline fill="none" points="339.226,24.0645 336.316,24.0645" stroke="#262626" stroke-linecap="butt" stroke-linejoin="miter" stroke-width="0.5"/>
   <g font-family="FreeSans" font-size="10" font-style="normal" font-weight="normal" transform="translate(37.7201,289.565) rotate(-0,6,-4)" xml:space="preserve">
    <text fill="rgb(38,38,38)" x="0 " y="-0">0</text>
   </g>
   <g font-family="FreeSans" font-size="10" font-style="normal" font-weight="normal" transform="translate(31.7201,237.265) rotate(-0,12,-4)" xml:space="preserve">
    <text fill="rgb(38,38,38)" x="0 6 " y="-0">10</text>
   </g>
   <g font-family="FreeSans" font-size="10" font-style="normal" font-weight="normal" transform="translate(31.7201,184.965) rotate(-0,12,-4)" xml:space="preserve">
    <text fill="rgb(38,38,38)" x="0 6 " y="-0">20</text>
   </g>
   <g font-family="FreeSans" font-size="10" font-style="normal" font-weight="normal" transform="translate(31.7201,132.665) rotate(-0,12,-4)" xml:space="preserve">
    <text fill="rgb(38,38,38)" x="0 6 " y="-0">30</text>
   </g>
   <g font-family="FreeSans" font-size="10" font-style="normal" font-weight="normal" transform="translate(31.7201,80.3646) rotate(-0,12,-4)" xml:space="preserve">
    <text fill="rgb(38,38,38)" x="0 6 " y="-0">40</text>
   </g>
   <g font-family="FreeSans" font-size="10" font-style="normal" font-weight="normal" transform="translate(31.7201,28.0645) rotate(-0,12,-4)" xml:space="preserve">
    <text fill="rgb(38,38,38)" x="0 6 " y="-0">50</text>
   </g>
   <polyline fill="none" points="48.7287,285.565 339.226,285.565" stroke="#262626" stroke-dasharray="16,0" stroke-linecap="square" stroke-linejoin="miter" stroke-width="0.5"/>
   <polyline fill="none" points="48.7287,24.0645 339.226,24.0645" stroke="#262626" stroke-dasharray="16,0" stroke-linecap="square" stroke-linejoin="miter" stroke-width="0.5"/>
   <polyline fill="none" points="48.7287,285.565 48.7287,24.0645" stroke="#262626" stroke-dasharray="16,0" stroke-linecap="square" stroke-linejoin="miter" stroke-width="0.5"/>
   <polyline fill="none" points="339.226,285.565 339.226,24.0645" stroke="#262626" stroke-dasharray="16,0" stroke-linecap="square" stroke-linejoin="miter" stroke-width="0.5"/>
   <g font-family="FreeSans" font-size="11" font-style="normal" font-weight="normal" transform="translate(101.978,318.051) rotate(-0,92,-12)" xml:space="preserve">
    <text fill="rgb(38,38,38)" x="0 8 14 18 27 33 35 37 42 48 54 57 64 68 74 80 86 92 98 104 109 112 116 122 124 127 131 137 143 146 151 157 166 172 174 180 " y="-3">Normalized Frequency (pi rad/sample)</text>
   </g>
   <g font-family="FreeSans" font-size="11" font-style="normal" font-weight="normal" transform="translate(14.2201,154.815) rotate(-90,12.5,0)" xml:space="preserve">
    <text fill="rgb(38,38,38)" x="0 7 11 15 21 " y="-0">Error</text>
   </g>
   <g font-family="FreeSans" font-size="11" font-style="normal" font-weight="bold" transform="translate(25.4776,14.0645) rotate(-0,168.5,0)" xml:space="preserve">
    <text fill="rgb(0,0,0)" x="0 8 12 19 22 25 32 36 40 43 46 49 56 60 67 73 77 83 89 95 98 101 111 117 123 130 133 139 143 147 150 154 157 163 167 173 179 182 188 194 200 203 206 216 222 228 235 238 244 248 252 255 264 270 273 280 287 291 297 304 310 316 319 325 331 " y="-3">Grd. Err., order=79, mean err flat=0.859, mean err weighted=0.868</text>
   </g>
   <polyline fill="none" points="48.7287,285.476 49.2961,285.481 49.8634,285.495 50.4308,285.514 50.9982,285.535 51.5656,285.553 52.1329,285.563 52.7003,285.564 53.2677,285.556 53.8351,285.54 54.4025,285.521 54.9698,285.503 55.5372,285.49 56.1046,285.486 56.672,285.492 57.2394,285.505 57.8067,285.523 58.3741,285.542 58.9415,285.557 59.5089,285.565 60.0762,285.563 60.6436,285.552 61.211,285.534 61.7784,285.514 62.3458,285.496 62.9131,285.484 63.4805,285.48 64.0479,285.486 64.6153,285.5 65.1827,285.519 65.75,285.539 66.3174,285.555 66.8848,285.564 67.4522,285.564 68.0195,285.556 68.5869,285.541 69.1543,285.525 69.7217,285.51 70.2891,285.5 70.8564,285.498 71.4238,285.505 71.9912,285.517 72.5586,285.533 73.1259,285.549 73.6933,285.56 74.2607,285.565 74.8281,285.562 75.3955,285.551 75.9628,285.536 76.5302,285.519 77.0976,285.504 77.665,285.495 78.2324,285.493 78.7997,285.5 79.3671,285.512 79.9345,285.528 80.5019,285.544 81.0692,285.557 81.6366,285.564 82.204,285.564 82.7714,285.559 83.3388,285.549 83.9061,285.538 84.4735,285.53 85.0409,285.525 85.6083,285.526 86.1757,285.531 86.743,285.541 87.3104,285.551 87.8778,285.56 88.4452,285.565 89.0126,285.564 89.5799,285.557 90.1473,285.546 90.7147,285.533 91.2821,285.52 91.8494,285.509 92.4168,285.503 92.9842,285.502 93.5516,285.508 94.1189,285.517 94.6863,285.529 95.2537,285.541 95.8211,285.552 96.3885,285.559 96.9558,285.564 97.5232,285.565 98.0906,285.564 98.658,285.563 99.2254,285.561 99.7927,285.561 100.36,285.562 100.927,285.563 101.495,285.565 102.062,285.565 102.63,285.564 103.197,285.561 103.764,285.558 104.332,285.553 104.899,285.549 105.467,285.545 106.034,285.543 106.601,285.544 107.169,285.545 107.736,285.549 108.303,285.552 108.871,285.556 109.438,285.559 110.006,285.561 110.573,285.562 111.14,285.563 111.708,285.563 112.275,285.563 112.842,285.562 113.41,285.56 113.977,285.558 114.545,285.555 115.112,285.552 115.679,285.55 116.247,285.549 116.814,285.551 117.381,285.554 117.949,285.56 118.516,285.564 119.084,285.564 119.651,285.557 120.218,285.54 120.786,285.509 121.353,285.465 121.921,285.411 122.488,285.353 123.055,285.299 123.623,285.257 124.19,285.235 124.757,285.239 125.325,285.268 125.892,285.318 126.46,285.381 127.027,285.446 127.594,285.502 128.162,285.541 128.729,285.561 129.296,285.564 129.864,285.557 130.431,285.548 130.999,285.544 131.566,285.548 132.133,285.558 132.701,285.565 133.268,285.555 133.835,285.52 134.403,285.458 134.97,285.386 135.538,285.342 136.105,285.369 136.672,285.477 137.24,285.565 137.807,285.29 138.374,283.894 138.942,280.028 139.509,271.666 140.077,256.279 140.644,231.482 141.211,196.343 141.779,153.238 142.346,109.516 142.914,77.4148 143.481,70.4837 144.048,96.5696 144.616,150.978 145.183,215.531 145.75,266.223 146.318,285.533 146.885,271.463 147.453,237.451 148.02,203.573 148.587,185.306 149.155,187.247 149.722,204.429 150.289,228.003 150.857,250.374 151.424,267.403 151.992,278.145 152.559,283.59 153.126,285.446 153.694,285.363 154.261,284.576 154.828,283.828 155.396,283.446 155.963,283.462 156.531,283.757 157.098,284.166 157.665,284.554 158.233,284.845 158.8,285.016 159.367,285.076 159.935,285.029 160.502,284.87 161.07,284.586 161.637,284.186 162.204,283.718 162.772,283.282 163.339,283.01 163.907,283.025 164.474,283.383 165.041,284.028 165.609,284.779 166.176,285.369 166.743,285.563 167.311,285.306 167.878,284.836 168.446,284.603 169.013,284.924 169.58,285.494 170.148,285.21 170.715,282.741 171.282,277.648 171.85,271.144 172.417,265.652 172.985,263.404 173.552,265.19 174.119,270.108 174.687,276.238 175.254,281.605 175.821,284.852 176.389,285.479 176.956,283.73 177.524,280.318 178.091,276.137 178.658,272.024 179.226,268.622 179.793,266.31 180.36,265.216 180.928,265.262 181.495,266.237 182.063,267.869 182.63,269.881 183.197,272.029 183.765,274.128 184.332,276.051 184.9,277.727 185.467,279.13 186.034,280.265 186.602,281.156 187.169,281.836 187.736,282.342 188.304,282.708 188.871,282.966 189.439,283.143 190.006,283.263 190.573,283.346 191.141,283.41 191.708,283.472 192.275,283.543 192.843,283.633 193.41,283.747 193.978,283.885 194.545,284.046 195.112,284.223 195.68,284.407 196.247,284.589 196.814,284.762 197.382,284.919 197.949,285.056 198.517,285.169 199.084,285.261 199.651,285.332 200.219,285.385 200.786,285.423 201.354,285.45 201.921,285.468 202.488,285.48 203.056,285.487 203.623,285.491 204.19,285.492 204.758,285.493 205.325,285.493 205.893,285.494 206.46,285.496 207.027,285.5 207.595,285.505 208.162,285.511 208.729,285.518 209.297,285.525 209.864,285.532 210.432,285.538 210.999,285.543 211.566,285.547 212.134,285.55 212.701,285.552 213.268,285.553 213.836,285.553 214.403,285.553 214.971,285.552 215.538,285.551 216.105,285.549 216.673,285.548 217.24,285.547 217.807,285.546 218.375,285.547 218.942,285.548 219.51,285.55 220.077,285.553 220.644,285.556 221.212,285.559 221.779,285.562 222.346,285.564 222.914,285.565 223.481,285.565 224.049,285.565 224.616,285.564 225.183,285.564 225.751,285.564 226.318,285.564 226.886,285.565 227.453,285.565 228.02,285.565 228.588,285.564 229.155,285.561 229.722,285.558 230.29,285.554 230.857,285.55 231.425,285.546 231.992,285.543 232.559,285.541 233.127,285.542 233.694,285.544 234.261,285.548 234.829,285.553 235.396,285.557 235.964,285.561 236.531,285.564 237.098,285.565 237.666,285.565 238.233,285.564 238.8,285.562 239.368,285.561 239.935,285.56 240.503,285.561 241.07,285.562 241.637,285.563 242.205,285.564 242.772,285.565 243.339,285.564 243.907,285.562 244.474,285.559 245.042,285.555 245.609,285.55 246.176,285.546 246.744,285.544 247.311,285.543 247.879,285.544 248.446,285.547 249.013,285.552 249.581,285.556 250.148,285.56 250.715,285.563 251.283,285.565 251.85,285.565 252.418,285.563 252.985,285.561 253.552,285.559 254.12,285.558 254.687,285.557 255.254,285.558 255.822,285.56 256.389,285.562 256.957,285.564 257.524,285.565 258.091,285.565 258.659,285.563 259.226,285.56 259.793,285.557 260.361,285.553 260.928,285.55 261.496,285.548 262.063,285.548 262.63,285.549 263.198,285.552 263.765,285.555 264.333,285.559 264.9,285.562 265.467,285.564 266.035,285.565 266.602,285.564 267.169,285.562 267.737,285.56 268.304,285.558 268.872,285.557 269.439,285.557 270.006,285.558 270.574,285.56 271.141,285.562 271.708,285.564 272.276,285.565 272.843,285.565 273.411,285.564 273.978,285.562 274.545,285.559 275.113,285.556 275.68,285.554 276.247,285.553 276.815,285.553 277.382,285.554 277.95,285.556 278.517,285.559 279.084,285.561 279.652,285.564 280.219,285.565 280.786,285.565 281.354,285.564 281.921,285.562 282.489,285.561 283.056,285.559 283.623,285.558 284.191,285.559 284.758,285.559 285.326,285.561 285.893,285.562 286.46,285.564 287.028,285.565 287.595,285.565 288.162,285.564 288.73,285.563 289.297,285.561 289.865,285.559 290.432,285.558 290.999,285.557 291.567,285.557 292.134,285.558 292.701,285.56 293.269,285.562 293.836,285.563 294.404,285.564 294.971,285.565 295.538,285.565 296.106,285.564 296.673,285.563 297.24,285.562 297.808,285.561 298.375,285.561 298.943,285.561 299.51,285.561 300.077,285.562 300.645,285.563 301.212,285.564 301.779,285.565 302.347,285.565 302.914,285.565 303.482,285.564 304.049,285.563 304.616,285.562 305.184,285.561 305.751,285.561 306.319,285.561 306.886,285.562 307.453,285.563 308.021,285.564 308.588,285.564 309.155,285.565 309.723,285.565 310.29,285.565 310.858,285.564 311.425,285.564 311.992,285.563 312.56,285.563 313.127,285.563 313.694,285.563 314.262,285.563 314.829,285.564 315.397,285.564 315.964,285.565 316.531,285.565 317.099,285.565 317.666,285.565 318.233,285.564 318.801,285.564 319.368,285.564 319.936,285.564 320.503,285.564 321.07,285.564 321.638,285.564 322.205,285.565 322.772,285.565 323.34,285.565 323.907,285.565 324.475,285.565 325.042,285.565 325.609,285.565 326.177,285.565 326.744,285.565 327.312,285.565 327.879,285.565 328.446,285.565 329.014,285.565 329.581,285.564 330.148,285.563 330.716,285.561 331.283,285.558 331.851,285.554 332.418,285.55 332.985,285.544 333.553,285.539 334.12,285.533 334.687,285.527 335.255,285.521 335.822,285.515 336.39,285.51 336.957,285.506 337.524,285.503 338.092,285.501 338.659,285.499" stroke="#0071bc" stroke-linecap="butt" stroke-linejoin="round" stroke-width="0.5"/>
   <polyline fill="none" points="77.7785,285.565 79.3382,285.565 80.8979,285.565 82.4576,285.565 84.0173,285.565 85.577,285.564 87.1368,285.564 88.6965,285.564 90.2562,285.564 91.8159,285.564 93.3757,285.564 94.9354,285.563 96.4951,285.562 98.0548,285.561 99.6145,285.559 101.174,285.559 102.734,285.558 104.294,285.558 105.853,285.557 107.413,285.554 108.973,285.55 110.533,285.544 112.092,285.539 113.652,285.534 115.212,285.53 116.771,285.52 118.331,285.494 119.891,285.434 121.451,285.319 123.01,285.152 124.57,284.989 126.13,284.919 127.689,284.99 129.249,285.118 130.809,285.15 132.369,284.935 133.928,284.36 135.488,283.785 137.048,284.685 138.608,284.693 140.167,261.156 141.727,176.501 143.287,102.328 144.846,202.155 146.406,283.446 147.966,190.591 149.526,181.314 151.085,247.09 152.645,280.739 154.205,285.565 155.764,285.262 157.324,285.515 158.884,285.537 160.444,285.556 162.003,285.436 163.563,285.111 165.123,285.462 166.682,285.06 168.242,283.374 169.802,284.981 171.362,284.167 172.921,280.747 174.481,283.515 176.041,285.559 177.601,283.952 179.16,282.263 180.72,282.175 182.28,283.099 183.839,284.089 185.399,284.747 186.959,285.097 188.519,285.264 190.078,285.344 191.638,285.389 193.198,285.426 194.757,285.462 196.317,285.494 197.877,285.519 199.437,285.536 200.996,285.545 202.556,285.55 204.116,285.553 205.675,285.555 207.235,285.556 208.795,285.558 210.355,285.56 211.914,285.561 213.474,285.562 215.034,285.562 216.594,285.562 218.153,285.563 219.713,285.563 221.273,285.564 222.832,285.564 224.392,285.564 225.952,285.564 227.512,285.565 229.071,285.565 230.631,285.565 232.191,285.565 233.75,285.565 235.31,285.565 236.87,285.565 238.43,285.565 239.989,285.565 241.549,285.565 243.109,285.565 244.668,285.565 246.228,285.565 247.788,285.565 249.348,285.565 250.907,285.565 252.467,285.565 254.027,285.565 255.587,285.565 257.146,285.565 258.706,285.565 260.266,285.565 261.825,285.565 263.385,285.565 264.945,285.565 266.505,285.565 268.064,285.565 269.624,285.565 271.184,285.565 272.743,285.565 274.303,285.565 275.863,285.565 277.423,285.565 278.982,285.565 280.542,285.565 282.102,285.565 283.661,285.565 285.221,285.565 286.781,285.565 288.341,285.565 289.9,285.565 291.46,285.565 293.02,285.565 294.579,285.565 296.139,285.565 297.699,285.565 299.259,285.565 300.818,285.565 302.378,285.565 303.938,285.565 305.498,285.565 307.057,285.565 308.617,285.565 310.177,285.565" stroke="#d85218" stroke-linecap="butt" stroke-linejoin="round" stroke-width="0.5"/>
   <polyline fill="none" points="77.7785,285.564 79.3382,285.564 80.8979,285.565 82.4576,285.565 84.0173,285.564 85.577,285.563 87.1368,285.562 88.6965,285.56 90.2562,285.558 91.8159,285.556 93.3757,285.553 94.9354,285.55 96.4951,285.545 98.0548,285.54 99.6145,285.534 101.174,285.526 102.734,285.516 104.294,285.503 105.853,285.488 107.413,285.47 108.973,285.447 110.533,285.416 112.092,285.378 113.652,285.33 115.212,285.269 116.771,285.19 118.331,285.082 119.891,284.94 121.451,284.753 123.01,284.508 124.57,284.184 126.13,283.729 127.689,283.159 129.249,282.505 130.809,281.823 132.369,281.224 133.928,280.856 135.488,280.647 137.048,280.545 138.608,280.505 140.167,280.488 141.727,280.473 143.287,280.455 144.846,280.433 146.406,280.409 147.966,280.383 149.526,280.355 151.085,280.328 152.645,280.303 154.205,280.279 155.764,280.26 157.324,280.249 158.884,280.257 160.444,280.297 162.003,280.394 163.563,280.597 165.123,280.974 166.682,281.486 168.242,282.083 169.802,282.706 171.362,283.273 172.921,283.734 174.481,284.109 176.041,284.409 177.601,284.644 179.16,284.823 180.72,284.96 182.28,285.071 183.839,285.16 185.399,285.231 186.959,285.288 188.519,285.332 190.078,285.37 191.638,285.401 193.198,285.427 194.757,285.448 196.317,285.465 197.877,285.48 199.437,285.493 200.996,285.503 202.556,285.512 204.116,285.52 205.675,285.526 207.235,285.532 208.795,285.537 210.355,285.541 211.914,285.544 213.474,285.548 215.034,285.55 216.594,285.553 218.153,285.555 219.713,285.556 221.273,285.558 222.832,285.559 224.392,285.56 225.952,285.561 227.512,285.562 229.071,285.563 230.631,285.563 232.191,285.564 233.75,285.564 235.31,285.565 236.87,285.565 238.43,285.564 239.989,285.564 241.549,285.564 243.109,285.564 244.668,285.564 246.228,285.564 247.788,285.563 249.348,285.563 250.907,285.563 252.467,285.563 254.027,285.563 255.587,285.563 257.146,285.563 258.706,285.563 260.266,285.563 261.825,285.563 263.385,285.563 264.945,285.564 266.505,285.564 268.064,285.564 269.624,285.564 271.184,285.564 272.743,285.564 274.303,285.564 275.863,285.564 277.423,285.564 278.982,285.564 280.542,285.564 282.102,285.564 283.661,285.564 285.221,285.564 286.781,285.564 288.341,285.565 289.9,285.565 291.46,285.565 293.02,285.565 294.579,285.565 296.139,285.565 297.699,285.565 299.259,285.565 300.818,285.565 302.378,285.565 303.938,285.565 305.498,285.565 307.057,285.565 308.617,285.565 310.177,285.565" stroke="#ecb01f" stroke-linecap="butt" stroke-linejoin="round" stroke-width="0.5"/>
  </g>
  <clipPath id="cp00374320">
   <polygon points="0,320 374,320 374,0 0,0"/>
  </clipPath>
  <g clip-path="url(#cp00374320)">
   <polygon fill="#ffffff" points="225.209,76.4787 331.223,76.4787 331.223,32.068 225.209,32.068" shape-rendering="crispEdges"/>
   <polyline fill="none" points="225.209,76.4787 331.223,76.4787" stroke="#262626" stroke-dasharray="16,0" stroke-linecap="square" stroke-linejoin="miter" stroke-width="0.5"/>
   <polyline fill="none" points="225.209,32.068 331.223,32.068" stroke="#262626" stroke-dasharray="16,0" stroke-linecap="square" stroke-linejoin="miter" stroke-width="0.5"/>
   <polyline fill="none" points="225.209,76.4787 225.209,32.068" stroke="#262626" stroke-dasharray="16,0" stroke-linecap="square" stroke-linejoin="miter" stroke-width="0.5"/>
   <polyline fill="none" points="331.223,76.4787 331.223,32.068" stroke="#262626" stroke-dasharray="16,0" stroke-linecap="square" stroke-linejoin="miter" stroke-width="0.5"/>
   <polyline fill="none" points="229.211,40.2715 249.219,40.2715" stroke="#0071bc" stroke-linecap="butt" stroke-linejoin="round" stroke-width="0.5"/>
   <g font-family="FreeSans" font-size="9" font-style="normal" font-weight="normal" transform="translate(253.221,44.2716) rotate(-0,-0,-4)" xml:space="preserve">
    <text fill="rgb(0,0,0)" x="0 6 9 12 14 19 21 26 " y="-0">Err Flat</text>
   </g>
   <polyline fill="none" points="229.211,53.4752 249.219,53.4752" stroke="#d85218" stroke-linecap="butt" stroke-linejoin="round" stroke-width="0.5"/>
   <g font-family="FreeSans" font-size="9" font-style="normal" font-weight="normal" transform="translate(253.221,58.4751) rotate(-0,-0,-5)" xml:space="preserve">
    <text fill="rgb(0,0,0)" x="0 6 9 12 14 22 27 29 34 39 42 47 52 54 56 58 60 62 64 66 68 70 72 " y="-2">Err Weighted           </text>
   </g>
   <polyline fill="none" points="229.211,67.4769 249.219,67.4769" stroke="#ecb01f" stroke-linecap="butt" stroke-linejoin="round" stroke-width="0.5"/>
   <g font-family="FreeSans" font-size="9" font-style="normal" font-weight="normal" transform="translate(253.221,72.4769) rotate(-0,-0,-5)" xml:space="preserve">
    <text fill="rgb(0,0,0)" x="0 6 9 12 14 22 27 29 34 39 42 " y="-2">Err Weights</text>
   </g>
  </g>
 </g>
</svg>
