<?xml version='1.0' encoding='UTF-8' standalone='no'?>
<svg height="320pt" viewBox="0 0 374 320" width="374pt" xmlns="http://www.w3.org/2000/svg" xmlns:xlink="http://www.w3.org/1999/xlink">
 <title>Figure 9</title>
 <desc>
Creator: GL2PS 1.4.2, (C) 1999-2020 C. Geuzaine
For: Octave
CreationDate: Tue Mar  3 15:32:37 2026
</desc>
 <defs/>
 <polygon fill="#ffffff" points="0,0 374,0 374,320 0,320"/>
 <g>
  <polygon fill="#ffffff" points="0,320 374,320 374,0 0,0" shape-rendering="crispEdges"/>
  <clipPath id="cp00374320">
   <polygon points="0,320 374,320 374,0 0,0"/>
  </clipPath>
  <g clip-path="url(#cp00374320)">
   <polygon fill="#ffffff" points="48.7287,285.565 339.226,285.565 339.226,24.0645 48.7287,24.0645" shape-rendering="crispEdges"/>
   <polyline fill="none" points="48.7287,285.565 48.7287,282.666" stroke="#262626" stroke-linecap="butt" stroke-linejoin="miter" stroke-width="0.5"/>
   <polyline fill="none" points="48.7287,24.0645 48.7287,26.9639" stroke="#262626" stroke-linecap="butt" stroke-linejoin="miter" stroke-width="0.5"/>
   <polyline fill="none" points="106.828,285.565 106.828,282.666" stroke="#262626" stroke-linecap="butt" stroke-linejoin="miter" stroke-width="0.5"/>
   <polyline fill="none" points="106.828,24.0645 106.828,26.9639" stroke="#262626" stroke-linecap="butt" stroke-linejoin="miter" stroke-width="0.5"/>
   <polyline fill="none" points="164.928,285.565 164.928,282.666" stroke="#262626" stroke-linecap="butt" stroke-linejoin="miter" stroke-width="0.5"/>
   <polyline fill="none" points="164.928,24.0645 164.928,26.9639" stroke="#262626" stroke-linecap="butt" stroke-linejoin="miter" stroke-width="0.5"/>
   <polyline fill="none" points="223.027,285.565 223.027,282.666" stroke="#262626" stroke-linecap="butt" stroke-linejoin="miter" stroke-width="0.5"/>
   <polyline fill="none" points="223.027,24.0645 223.027,26.9639" stroke="#262626" stroke-linecap="butt" stroke-linejoin="miter" stroke-width="0.5"/>
   <polyline fill="none" points="281.127,285.565 281.127,282.666" stroke="#262626" stroke-linecap="butt" stroke-linejoin="miter" stroke-width="0.5"/>
   <polyline fill="none" points="281.127,24.0645 281.127,26.9639" stroke="#262626" stroke-linecap="butt" stroke-linejoin="miter" stroke-width="0.5"/>
   <polyline fill="none" points="339.226,285.565 339.226,282.666" stroke="#262626" stroke-linecap="butt" stroke-linejoin="miter" stroke-width="0.5"/>
   <polyline fill="none" points="339.226,24.0645 339.226,26.9639" stroke="#262626" stroke-linecap="butt" stroke-linejoin="miter" stroke-width="0.5"/>
   <g font-family="FreeSans" font-size="10" font-style="normal" font-weight="normal" transform="translate(45.7287,301.051) rotate(-0,3,-8)" xml:space="preserve">
    <text fill="rgb(38,38,38)" x="0 " y="-0">0</text>
   </g>
   <g font-family="FreeSans" font-size="10" font-style="normal" font-weight="normal" transform="translate(99.3282,301.051) rotate(-0,7.5,-8)" xml:space="preserve">
    <text fill="rgb(38,38,38)" x="0 6 9 " y="-0">0.2</text>
   </g>
   <g font-family="FreeSans" font-size="10" font-style="normal" font-weight="normal" transform="translate(157.428,301.051) rotate(-0,7.5,-8)" xml:space="preserve">
    <text fill="rgb(38,38,38)" x="0 6 9 " y="-0">0.4</text>
   </g>
   <g font-family="FreeSans" font-size="10" font-style="normal" font-weight="normal" transform="translate(215.527,301.051) rotate(-0,7.5,-8)" xml:space="preserve">
    <text fill="rgb(38,38,38)" x="0 6 9 " y="-0">0.6</text>
   </g>
   <g font-family="FreeSans" font-size="10" font-style="normal" font-weight="normal" transform="translate(273.627,301.051) rotate(-0,7.5,-8)" xml:space="preserve">
    <text fill="rgb(38,38,38)" x="0 6 9 " y="-0">0.8</text>
   </g>
   <g font-family="FreeSans" font-size="10" font-style="normal" font-weight="normal" transform="translate(336.226,301.051) rotate(-0,3,-8)" xml:space="preserve">
    <text fill="rgb(38,38,38)" x="0 " y="-0">1</text>
   </g>
   <polyline fill="none" points="48.7287,285.565 51.6386,285.565" stroke="#262626" stroke-linecap="butt" stroke-linejoin="miter" stroke-width="0.5"/>
   <polyline fill="none" points="339.226,285.565 336.316,285.565" stroke="#262626" stroke-linecap="butt" stroke-linejoin="miter" stroke-width="0.5"/>
   <polyline fill="none" points="48.7287,237.611 51.6386,237.611" stroke="#262626" stroke-linecap="butt" stroke-linejoin="miter" stroke-width="0.5"/>
   <polyline fill="none" points="339.226,237.611 336.316,237.611" stroke="#262626" stroke-linecap="butt" stroke-linejoin="miter" stroke-width="0.5"/>
   <polyline fill="none" points="48.7287,189.657 51.6386,189.657" stroke="#262626" stroke-linecap="butt" stroke-linejoin="miter" stroke-width="0.5"/>
   <polyline fill="none" points="339.226,189.657 336.316,189.657" stroke="#262626" stroke-linecap="butt" stroke-linejoin="miter" stroke-width="0.5"/>
   <polyline fill="none" points="48.7287,141.704 51.6386,141.704" stroke="#262626" stroke-linecap="butt" stroke-linejoin="miter" stroke-width="0.5"/>
   <polyline fill="none" points="339.226,141.704 336.316,141.704" stroke="#262626" stroke-linecap="butt" stroke-linejoin="miter" stroke-width="0.5"/>
   <polyline fill="none" points="48.7287,93.7499 51.6386,93.7499" stroke="#262626" stroke-linecap="butt" stroke-linejoin="miter" stroke-width="0.5"/>
   <polyline fill="none" points="339.226,93.7499 336.316,93.7499" stroke="#262626" stroke-linecap="butt" stroke-linejoin="miter" stroke-width="0.5"/>
   <polyline fill="none" points="48.7287,45.7962 51.6386,45.7962" stroke="#262626" stroke-linecap="butt" stroke-linejoin="miter" stroke-width="0.5"/>
   <polyline fill="none" points="339.226,45.7962 336.316,45.7962" stroke="#262626" stroke-linecap="butt" stroke-linejoin="miter" stroke-width="0.5"/>
   <g font-family="FreeSans" font-size="10" font-style="normal" font-weight="normal" transform="translate(37.7201,289.565) rotate(-0,6,-4)" xml:space="preserve">
    <text fill="rgb(38,38,38)" x="0 " y="-0">0</text>
   </g>
   <g font-family="FreeSans" font-size="10" font-style="normal" font-weight="normal" transform="translate(16.7201,241.611) rotate(-0,27,-4)" xml:space="preserve">
    <text fill="rgb(38,38,38)" x="0 6 9 15 21 " y="-0">0.002</text>
   </g>
   <g font-family="FreeSans" font-size="10" font-style="normal" font-weight="normal" transform="translate(16.7201,193.657) rotate(-0,27,-4)" xml:space="preserve">
    <text fill="rgb(38,38,38)" x="0 6 9 15 21 " y="-0">0.004</text>
   </g>
   <g font-family="FreeSans" font-size="10" font-style="normal" font-weight="normal" transform="translate(16.7201,145.704) rotate(-0,27,-4)" xml:space="preserve">
    <text fill="rgb(38,38,38)" x="0 6 9 15 21 " y="-0">0.006</text>
   </g>
   <g font-family="FreeSans" font-size="10" font-style="normal" font-weight="normal" transform="translate(16.7201,97.75) rotate(-0,27,-4)" xml:space="preserve">
    <text fill="rgb(38,38,38)" x="0 6 9 15 21 " y="-0">0.008</text>
   </g>
   <g font-family="FreeSans" font-size="10" font-style="normal" font-weight="normal" transform="translate(22.7201,49.7962) rotate(-0,21,-4)" xml:space="preserve">
    <text fill="rgb(38,38,38)" x="0 6 9 15 " y="-0">0.01</text>
   </g>
   <polyline fill="none" points="48.7287,285.565 339.226,285.565" stroke="#262626" stroke-dasharray="16,0" stroke-linecap="square" stroke-linejoin="miter" stroke-width="0.5"/>
   <polyline fill="none" points="48.7287,24.0645 339.226,24.0645" stroke="#262626" stroke-dasharray="16,0" stroke-linecap="square" stroke-linejoin="miter" stroke-width="0.5"/>
   <polyline fill="none" points="48.7287,285.565 48.7287,24.0645" stroke="#262626" stroke-dasharray="16,0" stroke-linecap="square" stroke-linejoin="miter" stroke-width="0.5"/>
   <polyline fill="none" points="339.226,285.565 339.226,24.0645" stroke="#262626" stroke-dasharray="16,0" stroke-linecap="square" stroke-linejoin="miter" stroke-width="0.5"/>
   <g font-family="FreeSans" font-size="11" font-style="normal" font-weight="normal" transform="translate(101.978,318.051) rotate(-0,92,-12)" xml:space="preserve">
    <text fill="rgb(38,38,38)" x="0 8 14 18 27 33 35 37 42 48 54 57 64 68 74 80 86 92 98 104 109 112 116 122 124 127 131 137 143 146 151 157 166 172 174 180 " y="-3">Normalized Frequency (pi rad/sample)</text>
   </g>
   <g font-family="FreeSans" font-size="11" font-style="normal" font-weight="normal" transform="translate(-0.779918,154.815) rotate(-90,12.5,0)" xml:space="preserve">
    <text fill="rgb(38,38,38)" x="0 7 11 15 21 " y="-0">Error</text>
   </g>
   <g font-family="FreeSans" font-size="11" font-style="normal" font-weight="bold" transform="translate(7.47757,14.0645) rotate(-0,186.5,0)" xml:space="preserve">
    <text fill="rgb(0,0,0)" x="0 8 12 19 22 25 32 36 40 43 46 49 56 60 67 73 77 83 89 95 101 104 107 117 123 129 136 139 145 149 153 156 160 163 169 173 179 185 188 194 200 206 212 218 224 227 230 240 246 252 259 262 268 272 276 279 288 294 297 304 311 315 321 328 334 340 343 349 355 361 367 " y="-3">Grd. Err., order=241, mean err flat=0.000602, mean err weighted=0.00042</text>
   </g>
   <polyline fill="none" points="48.7287,285.167 49.2961,285.366 49.8634,285.565 50.4308,285.309 50.9982,284.96 51.5656,285.094 52.1329,285.488 52.7003,285.508 53.2677,285.216 53.8351,285.211 54.4025,285.505 54.9698,285.488 55.5372,285.069 56.1046,284.909 56.672,285.278 57.2394,285.565 57.8067,285.347 58.3741,285.113 58.9415,285.333 59.5089,285.565 60.0762,285.257 60.6436,284.819 61.211,284.968 61.7784,285.461 62.3458,285.499 62.9131,285.128 63.4805,285.111 64.0479,285.488 64.6153,285.457 65.1827,284.873 65.75,284.633 66.3174,285.142 66.8848,285.563 67.4522,285.271 68.0195,284.934 68.5869,285.24 69.1543,285.564 69.7217,285.08 70.2891,284.389 70.8564,284.602 71.4238,285.381 71.9912,285.479 72.5586,284.919 73.1259,284.884 73.6933,285.458 74.2607,285.366 74.8281,284.363 75.3955,283.933 75.9628,284.789 76.5302,285.555 77.0976,285.132 77.665,284.586 78.2324,285.078 78.7997,285.557 79.3671,284.619 79.9345,283.331 80.5019,283.691 81.0692,285.15 81.6366,285.468 82.204,284.582 82.7714,284.527 83.3388,285.445 83.9061,285.073 84.4735,283.037 85.0409,282.143 85.6083,283.801 86.1757,285.485 86.743,285.017 87.3104,284.165 87.8778,284.964 88.4452,285.466 89.0126,283.168 89.5799,280.306 90.1473,280.934 90.7147,284.161 91.2821,285.554 91.8494,284.535 92.4168,284.521 92.9842,285.562 93.5516,283.447 94.1189,277.959 94.6863,275.327 95.2537,279.01 95.8211,284.146 96.3885,285.543 96.9558,285.115 97.5232,285.565 98.0906,282.81 98.658,273.106 99.2254,263.36 99.7927,264.216 100.36,274.635 100.927,283.457 101.495,285.564 102.062,285.531 102.63,284.693 103.197,277.699 103.764,266.103 104.332,262.233 104.899,271.663 105.467,283.097 106.034,285.213 106.601,282.806 107.169,284.444 107.736,284.697 108.303,274.771 108.871,263.024 109.438,265.423 110.006,279.028 110.573,285.554 111.14,281.007 111.708,279.601 112.275,284.912 112.842,281.691 113.41,265.72 113.977,257.3 114.545,269.338 115.112,284.164 115.679,282.411 116.247,274.736 116.814,279.28 117.381,285.505 117.949,272.728 118.516,252.397 119.084,254.439 119.651,276.254 120.218,285.242 120.786,274.023 121.353,270.363 121.921,282.629 122.488,281.112 123.055,253.978 123.623,237.088 124.19,256.755 124.757,283.011 125.325,279.811 125.892,265.419 126.46,273.458 127.027,285.522 127.594,263.343 128.162,226.719 128.729,230.157 129.296,269.432 129.864,284.676 130.431,261.36 130.999,251.079 131.566,274.502 132.133,283.753 132.701,253.935 133.268,234.325 133.835,260.351 134.403,285.515 134.97,262.444 135.538,228.613 136.105,240.267 136.672,276.401 137.24,283.633 137.807,268.833 138.374,271.572 138.942,284.935 139.509,277.068 140.077,256.028 140.644,249.528 141.211,256.057 141.779,258.159 142.346,248.261 142.914,236.23 143.481,250.09 144.048,281.749 144.616,275.27 145.183,253.108 145.75,279.402 146.318,250.544 146.885,56.1886 147.007,23.8029" stroke="#0071bc" stroke-linecap="butt" stroke-linejoin="round" stroke-width="0.5"/>
   <polyline fill="none" points="147.949,23.8029 148.02,40.6967 148.587,261.535 149.155,233.832 149.722,88.3683 150.289,145.928 150.857,282.814 151.424,166.122 151.751,23.8029" stroke="#0071bc" stroke-linecap="butt" stroke-linejoin="round" stroke-width="0.5"/>
   <polyline fill="none" points="152.753,23.8029 153.126,187.376 153.694,281.299 154.261,169.037 154.828,144.664 155.396,257.669 155.963,262.24 156.531,123.594 157.098,78.2891 157.665,191.987 158.233,281.676 158.8,269.32 159.367,258.173 159.935,282.466 160.502,273.525 161.07,238.608 161.637,243.381 162.204,274.499 162.772,285.508 163.339,285.557 163.907,277.428 164.474,237.362 165.041,207.059 165.609,243.639 166.176,285.181 166.743,259.606 167.311,243.62 167.878,282.928 168.446,230.433 169.013,45.0003 169.206,23.8029" stroke="#0071bc" stroke-linecap="butt" stroke-linejoin="round" stroke-width="0.5"/>
   <polyline fill="none" points="169.714,23.8029 170.148,157.107 170.715,285.309 171.282,210.652 171.85,172.619 172.417,266.294 172.985,249.348 173.552,81.3237 174.119,32.4123 174.687,172.186 175.254,281.055 175.821,262.366 176.389,237.191 176.956,268.422 177.524,284.172 178.091,252.883 178.658,233.552 179.226,256.2 179.793,282.221 180.36,283.441 180.928,276.912 181.495,279.876 182.063,285.115 182.63,284.748 183.197,283.544 183.765,284.968 184.332,285.352 184.9,283.322 185.467,282.07 186.034,282.84 186.602,283.853 187.169,283.834 187.736,282.313 188.304,279.441 188.871,277.599 189.439,279.343 190.006,283.126 190.573,285.302 191.141,285.564 191.708,285.469 192.275,283.639 192.843,278.797 193.41,275.252 193.978,277.852 194.545,283.497 195.112,285.547 195.68,284.398 196.247,284.849 196.814,285.314 197.382,280.4 197.949,273.218 198.517,273.149 199.084,280.504 199.651,285.452 200.219,284.116 200.786,283.232 201.354,285.386 201.921,283.128 202.488,274.07 203.056,268.807 203.623,274.786 204.19,283.683 204.758,285.161 205.325,282.786 205.893,284.238 206.46,285.115 207.027,277.339 207.595,267.063 208.162,267.687 208.729,278.291 209.297,285.288 209.864,284.308 210.432,283.748 210.999,285.565 211.566,280.397 212.134,266.999 212.701,259.697 213.268,267.622 213.836,280.565 214.403,285.54 214.971,284.759 215.538,285.423 216.105,283.513 216.673,272.907 217.24,262.06 217.807,264.566 218.375,277.458 218.942,285.323 219.51,283.835 220.077,282.697 220.644,285.306 221.212,283.129 221.779,274.114 222.346,269.827 222.914,276.726 223.481,284.768 224.049,284.082 224.616,280.327 225.183,282.34 225.751,285.564 226.318,281.336 226.886,274.3 227.453,275.457 228.02,282.967 228.588,285.278 229.155,280.921 229.722,279.705 230.29,284.083 230.857,284.916 231.425,278.914 231.992,275.502 232.559,280.374 233.127,285.43 233.694,283.112 234.261,279.2 234.829,281.48 235.396,285.448 235.964,282.922 236.531,277.446 237.098,278.301 237.666,283.998 238.233,285.043 238.8,280.726 239.368,279.7 239.935,283.902 240.503,285.216 241.07,280.589 241.637,277.851 242.205,281.743 242.772,285.524 243.339,283.126 243.907,279.69 244.474,281.769 245.042,285.405 245.609,283.595 246.176,279.219 246.744,279.931 247.311,284.452 247.879,285.017 248.446,281.257 249.013,280.437 249.581,284.065 250.148,285.327 250.715,281.671 251.283,279.5 251.85,282.633 252.418,285.549 252.985,283.421 253.552,280.58 254.12,282.35 254.687,285.413 255.254,284.041 255.822,280.576 256.389,281.173 256.957,284.744 257.524,285.069 258.091,281.975 258.659,281.344 259.226,284.321 259.793,285.389 260.361,282.524 260.928,280.839 261.496,283.321 262.063,285.558 262.63,283.795 263.198,281.54 263.765,282.984 264.333,285.439 264.9,284.387 265.467,281.705 266.035,282.197 266.602,284.959 267.169,285.15 267.737,282.71 268.304,282.246 268.872,284.59 269.439,285.432 270.006,283.236 270.574,281.968 271.141,283.884 271.708,285.562 272.276,284.172 272.843,282.455 273.411,283.587 273.978,285.469 274.545,284.674 275.113,282.664 275.68,283.058 276.247,285.129 276.815,285.237 277.382,283.396 277.95,283.071 278.517,284.839 279.084,285.465 279.652,283.841 280.219,282.926 280.786,284.35 281.354,285.564 281.921,284.523 282.489,283.276 283.056,284.125 283.623,285.497 284.191,284.916 284.758,283.475 285.326,283.78 285.893,285.264 286.46,285.32 287.028,284.003 287.595,283.792 288.162,285.057 288.73,285.492 289.297,284.349 289.865,283.726 290.432,284.732 290.999,285.565 291.567,284.831 292.134,283.982 292.701,284.582 293.269,285.521 293.836,285.117 294.404,284.148 294.971,284.371 295.538,285.37 296.106,285.395 296.673,284.518 297.24,284.395 297.808,285.237 298.375,285.514 298.943,284.767 299.51,284.377 300.077,285.037 300.645,285.565 301.212,285.091 301.779,284.563 302.347,284.955 302.914,285.54 303.482,285.28 304.049,284.688 304.616,284.84 305.184,285.451 305.751,285.458 306.319,284.935 306.886,284.876 307.453,285.378 308.021,285.532 308.588,285.096 309.155,284.884 309.723,285.27 310.29,285.565 310.858,285.296 311.425,285.013 311.992,285.239 312.56,285.553 313.127,285.407 313.694,285.098 314.262,285.19 314.829,285.509 315.397,285.508 315.964,285.248 316.531,285.23 317.099,285.48 317.666,285.547 318.233,285.338 318.801,285.249 319.368,285.434 319.936,285.565 320.503,285.445 321.07,285.331 321.638,285.435 322.205,285.562 322.772,285.497 323.34,285.38 323.907,285.425 324.475,285.546 325.042,285.543 325.609,285.456 326.177,285.458 326.744,285.542 327.312,285.557 327.879,285.493 328.446,285.475 329.014,285.532 329.581,285.565 330.148,285.535 330.716,285.515 331.283,285.542 331.851,285.565 332.418,285.55 332.985,285.533 333.553,285.546 334.12,285.563 334.687,285.562 335.255,285.556 335.822,285.559 336.39,285.565 336.957,285.563 337.524,285.562 338.092,285.564 338.659,285.565" stroke="#0071bc" stroke-linecap="butt" stroke-linejoin="round" stroke-width="0.5"/>
   <polyline fill="none" points="77.7785,285.564 79.3382,285.563 80.8979,285.565 82.4576,285.565 84.0173,285.562 85.577,285.562 87.1368,285.564 88.6965,285.551 90.2562,285.548 91.8159,285.562 93.3757,285.526 94.9354,285.498 96.4951,285.554 98.0548,285.451 99.6145,285.306 101.174,285.524 102.734,285.373 104.294,285.051 105.853,285.533 107.413,285.402 108.973,284.506 110.533,285.508 112.092,285.46 113.652,283.083 115.212,285.382 116.771,285.543 118.331,279.632 119.891,284.763 121.451,285.512 123.01,272.083 124.57,281.209 126.13,284.729 127.689,254.746 129.249,267.358 130.809,276.85 132.369,253.748 133.928,256.596 135.488,259.834 137.048,278.246 138.608,266.499 140.167,274.848 141.727,276.945 143.287,270.018 144.846,242.757 146.406,256.915 147.966,99.6307 149.526,92.7463 151.085,284.761 152.645,47.8372 154.205,147.022 155.764,282.611 157.324,169.684 158.884,244.769 160.444,285.565 162.003,278.679 163.563,282.954 165.123,248.075 166.682,260.842 168.242,285.565 169.802,175.859 171.362,242.337 172.921,285.557 174.481,246.954 176.041,273.899 177.601,284.829 179.16,283.337 180.72,283.587 182.28,284.764 183.839,285.429 185.399,284.576 186.959,284.888 188.519,284.585 190.078,284.929 191.638,285.389 193.198,284.919 194.757,285.228 196.317,285.532 197.877,285.168 199.437,285.298 200.996,285.557 202.556,285.335 204.116,285.344 205.675,285.562 207.235,285.437 208.795,285.384 210.355,285.559 211.914,285.491 213.474,285.411 215.034,285.553 216.594,285.528 218.153,285.47 219.713,285.56 221.273,285.557 222.832,285.522 224.392,285.563 225.952,285.564 227.512,285.548 229.071,285.564 230.631,285.565 232.191,285.56 233.75,285.564 235.31,285.565 236.87,285.564 238.43,285.564 239.989,285.565 241.549,285.562 243.109,285.563 244.668,285.565 246.228,285.561 247.788,285.561 249.348,285.565 250.907,285.562 252.467,285.56 254.027,285.565 255.587,285.563 257.146,285.559 258.706,285.565 260.266,285.564 261.825,285.56 263.385,285.565 264.945,285.564 266.505,285.56 268.064,285.564 269.624,285.565 271.184,285.561 272.743,285.564 274.303,285.565 275.863,285.562 277.423,285.564 278.982,285.565 280.542,285.563 282.102,285.564 283.661,285.565 285.221,285.564 286.781,285.564 288.341,285.565 289.9,285.564 291.46,285.564 293.02,285.565 294.579,285.565 296.139,285.565 297.699,285.565 299.259,285.565 300.818,285.565 302.378,285.565 303.938,285.565 305.498,285.564 307.057,285.565 308.617,285.565 310.177,285.564" stroke="#d85218" stroke-linecap="butt" stroke-linejoin="round" stroke-width="0.5"/>
   <polyline fill="none" points="77.7785,280.796 79.3382,282.47 80.8979,284.314 82.4576,283.665 84.0173,280.15 85.577,275.797 87.1368,270.052 88.6965,262.979 90.2562,254.337 91.8159,243.854 93.3757,231.157 94.9354,214.809 96.4951,194.898 98.0548,170.721 99.6145,141.464 101.174,105.929 102.734,59.9722 103.733,23.8029" stroke="#ecb01f" stroke-linecap="butt" stroke-linejoin="round" stroke-width="0.5"/>
   <polyline fill="none" points="201.786,23.8029 202.556,44.0323 204.116,78.555 205.675,108.422 207.235,134.248 208.795,156.576 210.355,175.427 211.914,191.545 213.474,205.626 215.034,217.914 216.594,228.626 218.153,237.733 219.713,245.581 221.273,252.464 222.832,258.491 224.392,263.758 225.952,268.234 227.512,272.093 229.071,275.47 230.631,278.416 232.191,280.975 233.75,283.128 235.31,284.772 236.87,284.578 238.43,283.217 239.989,282.057 241.549,281.114 243.109,280.336 244.668,279.691 246.228,279.166 247.788,278.748 249.348,278.447 250.907,278.232 252.467,278.088 254.027,278.008 255.587,277.986 257.146,278.025 258.706,278.109 260.266,278.23 261.825,278.384 263.385,278.567 264.945,278.782 266.505,279.018 268.064,279.273 269.624,279.543 271.184,279.827 272.743,280.126 274.303,280.433 275.863,280.747 277.423,281.068 278.982,281.393 280.542,281.722 282.102,282.054 283.661,282.386 285.221,282.719 286.781,283.051 288.341,283.382 289.9,283.711 291.46,284.038 293.02,284.361 294.579,284.682 296.139,284.997 297.699,285.309 299.259,285.39 300.818,285.212 302.378,284.914 303.938,284.623 305.498,284.338 307.057,284.057 308.617,283.782 310.177,283.513" stroke="#ecb01f" stroke-linecap="butt" stroke-linejoin="round" stroke-width="0.5"/>
  </g>
  <clipPath id="cp00374320">
   <polygon points="0,320 374,320 374,0 0,0"/>
  </clipPath>
  <g clip-path="url(#cp00374320)">
   <polygon fill="#ffffff" points="225.209,76.4787 331.223,76.4787 331.223,32.068 225.209,32.068" shape-rendering="crispEdges"/>
   <polyline fill="none" points="225.209,76.4787 331.223,76.4787" stroke="#262626" stroke-dasharray="16,0" stroke-linecap="square" stroke-linejoin="miter" stroke-width="0.5"/>
   <polyline fill="none" points="225.209,32.068 331.223,32.068" stroke="#262626" stroke-dasharray="16,0" stroke-linecap="square" stroke-linejoin="miter" stroke-width="0.5"/>
   <polyline fill="none" points="225.209,76.4787 225.209,32.068" stroke="#262626" stroke-dasharray="16,0" stroke-linecap="square" stroke-linejoin="miter" stroke-width="0.5"/>
   <polyline fill="none" points="331.223,76.4787 331.223,32.068" stroke="#262626" stroke-dasharray="16,0" stroke-linecap="square" stroke-linejoin="miter" stroke-width="0.5"/>
   <polyline fill="none" points="229.211,40.2715 249.219,40.2715" stroke="#0071bc" stroke-linecap="butt" stroke-linejoin="round" stroke-width="0.5"/>
   <g font-family="FreeSans" font-size="9" font-style="normal" font-weight="normal" transform="translate(253.221,44.2716) rotate(-0,-0,-4)" xml:space="preserve">
    <text fill="rgb(0,0,0)" x="0 6 9 12 14 19 21 26 " y="-0">Err Flat</text>
   </g>
   <polyline fill="none" points="229.211,53.4752 249.219,53.4752" stroke="#d85218" stroke-linecap="butt" stroke-linejoin="round" stroke-width="0.5"/>
   <g font-family="FreeSans" font-size="9" font-style="normal" font-weight="normal" transform="translate(253.221,58.4751) rotate(-0,-0,-5)" xml:space="preserve">
    <text fill="rgb(0,0,0)" x="0 6 9 12 14 22 27 29 34 39 42 47 52 54 56 58 60 62 64 66 68 70 72 " y="-2">Err Weighted           </text>
   </g>
   <polyline fill="none" points="229.211,67.4769 249.219,67.4769" stroke="#ecb01f" stroke-linecap="butt" stroke-linejoin="round" stroke-width="0.5"/>
   <g font-family="FreeSans" font-size="9" font-style="normal" font-weight="normal" transform="translate(253.221,72.4769) rotate(-0,-0,-5)" xml:space="preserve">
    <text fill="rgb(0,0,0)" x="0 6 9 12 14 22 27 29 34 39 42 " y="-2">Err Weights</text>
   </g>
  </g>
 </g>
</svg>
