<?xml version='1.0' encoding='UTF-8' standalone='no'?>
<svg height="320pt" viewBox="0 0 374 320" width="374pt" xmlns="http://www.w3.org/2000/svg" xmlns:xlink="http://www.w3.org/1999/xlink">
 <title>Figure 8</title>
 <desc>
Creator: GL2PS 1.4.2, (C) 1999-2020 C. Geuzaine
For: Octave
CreationDate: Tue Mar  3 15:32:56 2026
</desc>
 <defs/>
 <polygon fill="#ffffff" points="0,0 374,0 374,320 0,320"/>
 <g>
  <polygon fill="#ffffff" points="0,320 374,320 374,0 0,0" shape-rendering="crispEdges"/>
  <clipPath id="cp00374320">
   <polygon points="0,320 374,320 374,0 0,0"/>
  </clipPath>
  <g clip-path="url(#cp00374320)">
   <polygon fill="#ffffff" points="48.7287,285.565 339.226,285.565 339.226,24.0645 48.7287,24.0645" shape-rendering="crispEdges"/>
   <polyline fill="none" points="48.7287,285.565 48.7287,282.666" stroke="#262626" stroke-linecap="butt" stroke-linejoin="miter" stroke-width="0.5"/>
   <polyline fill="none" points="48.7287,24.0645 48.7287,26.9639" stroke="#262626" stroke-linecap="butt" stroke-linejoin="miter" stroke-width="0.5"/>
   <polyline fill="none" points="106.828,285.565 106.828,282.666" stroke="#262626" stroke-linecap="butt" stroke-linejoin="miter" stroke-width="0.5"/>
   <polyline fill="none" points="106.828,24.0645 106.828,26.9639" stroke="#262626" stroke-linecap="butt" stroke-linejoin="miter" stroke-width="0.5"/>
   <polyline fill="none" points="164.928,285.565 164.928,282.666" stroke="#262626" stroke-linecap="butt" stroke-linejoin="miter" stroke-width="0.5"/>
   <polyline fill="none" points="164.928,24.0645 164.928,26.9639" stroke="#262626" stroke-linecap="butt" stroke-linejoin="miter" stroke-width="0.5"/>
   <polyline fill="none" points="223.027,285.565 223.027,282.666" stroke="#262626" stroke-linecap="butt" stroke-linejoin="miter" stroke-width="0.5"/>
   <polyline fill="none" points="223.027,24.0645 223.027,26.9639" stroke="#262626" stroke-linecap="butt" stroke-linejoin="miter" stroke-width="0.5"/>
   <polyline fill="none" points="281.127,285.565 281.127,282.666" stroke="#262626" stroke-linecap="butt" stroke-linejoin="miter" stroke-width="0.5"/>
   <polyline fill="none" points="281.127,24.0645 281.127,26.9639" stroke="#262626" stroke-linecap="butt" stroke-linejoin="miter" stroke-width="0.5"/>
   <polyline fill="none" points="339.226,285.565 339.226,282.666" stroke="#262626" stroke-linecap="butt" stroke-linejoin="miter" stroke-width="0.5"/>
   <polyline fill="none" points="339.226,24.0645 339.226,26.9639" stroke="#262626" stroke-linecap="butt" stroke-linejoin="miter" stroke-width="0.5"/>
   <g font-family="FreeSans" font-size="10" font-style="normal" font-weight="normal" transform="translate(45.7287,301.051) rotate(-0,3,-8)" xml:space="preserve">
    <text fill="rgb(38,38,38)" x="0 " y="-0">0</text>
   </g>
   <g font-family="FreeSans" font-size="10" font-style="normal" font-weight="normal" transform="translate(99.3282,301.051) rotate(-0,7.5,-8)" xml:space="preserve">
    <text fill="rgb(38,38,38)" x="0 6 9 " y="-0">0.2</text>
   </g>
   <g font-family="FreeSans" font-size="10" font-style="normal" font-weight="normal" transform="translate(157.428,301.051) rotate(-0,7.5,-8)" xml:space="preserve">
    <text fill="rgb(38,38,38)" x="0 6 9 " y="-0">0.4</text>
   </g>
   <g font-family="FreeSans" font-size="10" font-style="normal" font-weight="normal" transform="translate(215.527,301.051) rotate(-0,7.5,-8)" xml:space="preserve">
    <text fill="rgb(38,38,38)" x="0 6 9 " y="-0">0.6</text>
   </g>
   <g font-family="FreeSans" font-size="10" font-style="normal" font-weight="normal" transform="translate(273.627,301.051) rotate(-0,7.5,-8)" xml:space="preserve">
    <text fill="rgb(38,38,38)" x="0 6 9 " y="-0">0.8</text>
   </g>
   <g font-family="FreeSans" font-size="10" font-style="normal" font-weight="normal" transform="translate(336.226,301.051) rotate(-0,3,-8)" xml:space="preserve">
    <text fill="rgb(38,38,38)" x="0 " y="-0">1</text>
   </g>
   <polyline fill="none" points="48.7287,285.565 51.6386,285.565" stroke="#262626" stroke-linecap="butt" stroke-linejoin="miter" stroke-width="0.5"/>
   <polyline fill="none" points="339.226,285.565 336.316,285.565" stroke="#262626" stroke-linecap="butt" stroke-linejoin="miter" stroke-width="0.5"/>
   <polyline fill="none" points="48.7287,241.982 51.6386,241.982" stroke="#262626" stroke-linecap="butt" stroke-linejoin="miter" stroke-width="0.5"/>
   <polyline fill="none" points="339.226,241.982 336.316,241.982" stroke="#262626" stroke-linecap="butt" stroke-linejoin="miter" stroke-width="0.5"/>
   <polyline fill="none" points="48.7287,198.398 51.6386,198.398" stroke="#262626" stroke-linecap="butt" stroke-linejoin="miter" stroke-width="0.5"/>
   <polyline fill="none" points="339.226,198.398 336.316,198.398" stroke="#262626" stroke-linecap="butt" stroke-linejoin="miter" stroke-width="0.5"/>
   <polyline fill="none" points="48.7287,154.815 51.6386,154.815" stroke="#262626" stroke-linecap="butt" stroke-linejoin="miter" stroke-width="0.5"/>
   <polyline fill="none" points="339.226,154.815 336.316,154.815" stroke="#262626" stroke-linecap="butt" stroke-linejoin="miter" stroke-width="0.5"/>
   <polyline fill="none" points="48.7287,111.231 51.6386,111.231" stroke="#262626" stroke-linecap="butt" stroke-linejoin="miter" stroke-width="0.5"/>
   <polyline fill="none" points="339.226,111.231 336.316,111.231" stroke="#262626" stroke-linecap="butt" stroke-linejoin="miter" stroke-width="0.5"/>
   <polyline fill="none" points="48.7287,67.6479 51.6386,67.6479" stroke="#262626" stroke-linecap="butt" stroke-linejoin="miter" stroke-width="0.5"/>
   <polyline fill="none" points="339.226,67.6479 336.316,67.6479" stroke="#262626" stroke-linecap="butt" stroke-linejoin="miter" stroke-width="0.5"/>
   <polyline fill="none" points="48.7287,24.0645 51.6386,24.0645" stroke="#262626" stroke-linecap="butt" stroke-linejoin="miter" stroke-width="0.5"/>
   <polyline fill="none" points="339.226,24.0645 336.316,24.0645" stroke="#262626" stroke-linecap="butt" stroke-linejoin="miter" stroke-width="0.5"/>
   <g font-family="FreeSans" font-size="10" font-style="normal" font-weight="normal" transform="translate(37.7201,289.565) rotate(-0,6,-4)" xml:space="preserve">
    <text fill="rgb(38,38,38)" x="0 " y="-0">0</text>
   </g>
   <g font-family="FreeSans" font-size="10" font-style="normal" font-weight="normal" transform="translate(31.7201,245.982) rotate(-0,12,-4)" xml:space="preserve">
    <text fill="rgb(38,38,38)" x="0 6 " y="-0">20</text>
   </g>
   <g font-family="FreeSans" font-size="10" font-style="normal" font-weight="normal" transform="translate(31.7201,202.398) rotate(-0,12,-4)" xml:space="preserve">
    <text fill="rgb(38,38,38)" x="0 6 " y="-0">40</text>
   </g>
   <g font-family="FreeSans" font-size="10" font-style="normal" font-weight="normal" transform="translate(31.7201,158.815) rotate(-0,12,-4)" xml:space="preserve">
    <text fill="rgb(38,38,38)" x="0 6 " y="-0">60</text>
   </g>
   <g font-family="FreeSans" font-size="10" font-style="normal" font-weight="normal" transform="translate(31.7201,115.231) rotate(-0,12,-4)" xml:space="preserve">
    <text fill="rgb(38,38,38)" x="0 6 " y="-0">80</text>
   </g>
   <g font-family="FreeSans" font-size="10" font-style="normal" font-weight="normal" transform="translate(25.7201,71.6479) rotate(-0,18,-4)" xml:space="preserve">
    <text fill="rgb(38,38,38)" x="0 6 12 " y="-0">100</text>
   </g>
   <g font-family="FreeSans" font-size="10" font-style="normal" font-weight="normal" transform="translate(25.7201,28.0645) rotate(-0,18,-4)" xml:space="preserve">
    <text fill="rgb(38,38,38)" x="0 6 12 " y="-0">120</text>
   </g>
   <polyline fill="none" points="48.7287,285.565 339.226,285.565" stroke="#262626" stroke-dasharray="16,0" stroke-linecap="square" stroke-linejoin="miter" stroke-width="0.5"/>
   <polyline fill="none" points="48.7287,24.0645 339.226,24.0645" stroke="#262626" stroke-dasharray="16,0" stroke-linecap="square" stroke-linejoin="miter" stroke-width="0.5"/>
   <polyline fill="none" points="48.7287,285.565 48.7287,24.0645" stroke="#262626" stroke-dasharray="16,0" stroke-linecap="square" stroke-linejoin="miter" stroke-width="0.5"/>
   <polyline fill="none" points="339.226,285.565 339.226,24.0645" stroke="#262626" stroke-dasharray="16,0" stroke-linecap="square" stroke-linejoin="miter" stroke-width="0.5"/>
   <g font-family="FreeSans" font-size="11" font-style="normal" font-weight="normal" transform="translate(101.978,318.051) rotate(-0,92,-12)" xml:space="preserve">
    <text fill="rgb(38,38,38)" x="0 8 14 18 27 33 35 37 42 48 54 57 64 68 74 80 86 92 98 104 109 112 116 122 124 127 131 137 143 146 151 157 166 172 174 180 " y="-3">Normalized Frequency (pi rad/sample)</text>
   </g>
   <g font-family="FreeSans" font-size="11" font-style="normal" font-weight="normal" transform="translate(-9.27992,154.815) rotate(-90,30,0)" xml:space="preserve">
    <text fill="rgb(38,38,38)" x="0 8 12 18 24 30 33 41 47 49 55 " y="-3">Group Delay</text>
   </g>
   <g font-family="FreeSans" font-size="11" font-style="normal" font-weight="bold" transform="translate(60.9776,14.0645) rotate(-0,133,0)" xml:space="preserve">
    <text fill="rgb(0,0,0)" x="0 8 12 19 26 33 36 44 50 53 59 65 68 75 79 82 89 92 100 103 110 113 116 120 126 130 133 136 143 147 154 160 164 170 176 182 188 191 194 203 206 213 220 227 236 242 250 256 262 " y="-3">Group Delay of FIR Filter, order=241, window=Rect</text>
   </g>
   <polyline fill="none" points="48.7287,284.072 49.2961,284.072 49.8634,284.071 50.4308,284.071 50.9982,284.07 51.5656,284.069 52.1329,284.068 52.7003,284.066 53.2677,284.065 53.8351,284.063 54.4025,284.061 54.9698,284.058 55.5372,284.056 56.1046,284.053 56.672,284.05 57.2394,284.047 57.8067,284.043 58.3741,284.04 58.9415,284.036 59.5089,284.031 60.0762,284.027 60.6436,284.022 61.211,284.017 61.7784,284.012 62.3458,284.007 62.9131,284.001 63.4805,283.995 64.0479,283.989 64.6153,283.982 65.1827,283.976 65.75,283.969 66.3174,283.961 66.8848,283.954 67.4522,283.946 68.0195,283.938 68.5869,283.929 69.1543,283.92 69.7217,283.911 70.2891,283.902 70.8564,283.892 71.4238,283.882 71.9912,283.872 72.5586,283.861 73.1259,283.85 73.6933,283.839 74.2607,283.827 74.8281,283.815 75.3955,283.802 75.9628,283.789 76.5302,283.776 77.0976,283.762 77.665,283.748 78.2324,283.733 78.7997,283.718 79.3671,283.703 79.9345,283.687 80.5019,283.671 81.0692,283.654 81.6366,283.636 82.204,283.619 82.7714,283.6 83.3388,283.581 83.9061,283.562 84.4735,283.542 85.0409,283.521 85.6083,283.5 86.1757,283.478 86.743,283.455 87.3104,283.432 87.8778,283.408 88.4452,283.384 89.0126,283.358 89.5799,283.332 90.1473,283.306 90.7147,283.278 91.2821,283.25 91.8494,283.22 92.4168,283.19 92.9842,283.159 93.5516,283.127 94.1189,283.094 94.6863,283.06 95.2537,283.025 95.8211,282.989 96.3885,282.952 96.9558,282.913 97.5232,282.873 98.0906,282.832 98.658,282.79 99.2254,282.747 99.7927,282.702 100.36,282.655 100.927,282.607 101.495,282.557 102.062,282.506 102.63,282.453 103.197,282.398 103.764,282.341 104.332,282.282 104.899,282.221 105.467,282.158 106.034,282.093 106.601,282.026 107.169,281.955 107.736,281.883 108.303,281.807 108.871,281.729 109.438,281.647 110.006,281.563 110.573,281.475 111.14,281.384 111.708,281.289 112.275,281.19 112.842,281.087 113.41,280.979 113.977,280.867 114.545,280.75 115.112,280.628 115.679,280.501 116.247,280.368 116.814,280.228 117.381,280.082 117.949,279.93 118.516,279.769 119.084,279.601 119.651,279.425 120.218,279.239 120.786,279.044 121.353,278.838 121.921,278.621 122.488,278.392 123.055,278.15 123.623,277.894 124.19,277.623 124.757,277.335 125.325,277.029 125.892,276.704 126.46,276.358 127.027,275.988 127.594,275.592 128.162,275.169 128.729,274.714 129.296,274.225 129.864,273.697 130.431,273.127 130.999,272.509 131.566,271.838 132.133,271.106 132.701,270.307 133.268,269.43 133.835,268.466 134.403,267.402 134.97,266.224 135.538,264.916 136.105,263.458 136.672,261.831 137.24,260.01 137.807,257.971 138.374,255.689 138.942,253.145 139.509,250.327 140.077,247.242 140.644,243.925 141.211,240.457 141.779,236.976 142.346,233.686 142.914,230.838 143.481,228.697 144.048,227.473 144.616,227.256 145.183,227.992 145.75,229.496 146.318,231.516 146.885,233.797 147.453,236.127 148.02,238.359 148.587,240.406 149.155,242.225 149.722,243.809 150.289,245.168 150.857,246.321 151.424,247.294 151.992,248.111 152.559,248.793 153.126,249.361 153.694,249.831 154.261,250.216 154.828,250.527 155.396,250.773 155.963,250.959 156.531,251.091 157.098,251.171 157.665,251.204 158.233,251.189 158.8,251.128 159.367,251.02 159.935,250.865 160.502,250.661 161.07,250.404 161.637,250.09 162.204,249.712 162.772,249.263 163.339,248.733 163.907,248.111 164.474,247.384 165.041,246.539 165.609,245.565 166.176,244.452 166.743,243.199 167.311,241.816 167.878,240.327 168.446,238.783 169.013,237.261 169.58,235.867 170.148,234.734 170.715,234.002 171.282,233.796 171.85,234.2 172.417,235.234 172.985,236.848 173.552,238.937 174.119,241.36 174.687,243.975 175.254,246.654 175.821,249.296 176.389,251.832 176.956,254.217 177.524,256.429 178.091,258.462 178.658,260.319 179.226,262.009 179.793,263.543 180.36,264.936 180.928,266.201 181.495,267.351 182.063,268.398 182.63,269.354 183.197,270.228 183.765,271.029 184.332,271.765 184.9,272.442 185.467,273.068 186.034,273.646 186.602,274.182 187.169,274.679 187.736,275.142 188.304,275.574 188.871,275.978 189.439,276.355 190.006,276.709 190.573,277.041 191.141,277.353 191.708,277.647 192.275,277.924 192.843,278.186 193.41,278.433 193.978,278.667 194.545,278.889 195.112,279.1 195.68,279.299 196.247,279.489 196.814,279.67 197.382,279.842 197.949,280.006 198.517,280.162 199.084,280.312 199.651,280.454 200.219,280.591 200.786,280.721 201.354,280.846 201.921,280.966 202.488,281.081 203.056,281.191 203.623,281.297 204.19,281.399 204.758,281.497 205.325,281.591 205.893,281.681 206.46,281.768 207.027,281.852 207.595,281.933 208.162,282.011 208.729,282.086 209.297,282.159 209.864,282.229 210.432,282.297 210.999,282.362 211.566,282.425 212.134,282.486 212.701,282.546 213.268,282.603 213.836,282.658 214.403,282.712 214.971,282.764 215.538,282.815 216.105,282.863 216.673,282.911 217.24,282.957 217.807,283.002 218.375,283.045 218.942,283.087 219.51,283.128 220.077,283.168 220.644,283.206 221.212,283.244 221.779,283.28 222.346,283.316 222.914,283.35 223.481,283.384 224.049,283.417 224.616,283.449 225.183,283.48 225.751,283.51 226.318,283.539 226.886,283.568 227.453,283.596 228.02,283.623 228.588,283.65 229.155,283.676 229.722,283.701 230.29,283.726 230.857,283.75 231.425,283.774 231.992,283.797 232.559,283.819 233.127,283.841 233.694,283.862 234.261,283.883 234.829,283.904 235.396,283.924 235.964,283.943 236.531,283.962 237.098,283.981 237.666,283.999 238.233,284.017 238.8,284.035 239.368,284.052 239.935,284.068 240.503,284.085 241.07,284.101 241.637,284.116 242.205,284.132 242.772,284.147 243.339,284.161 243.907,284.176 244.474,284.19 245.042,284.204 245.609,284.217 246.176,284.231 246.744,284.244 247.311,284.256 247.879,284.269 248.446,284.281 249.013,284.293 249.581,284.305 250.148,284.316 250.715,284.328 251.283,284.339 251.85,284.35 252.418,284.36 252.985,284.371 253.552,284.381 254.12,284.391 254.687,284.401 255.254,284.411 255.822,284.42 256.389,284.43 256.957,284.439 257.524,284.448 258.091,284.457 258.659,284.465 259.226,284.474 259.793,284.482 260.361,284.491 260.928,284.499 261.496,284.507 262.063,284.514 262.63,284.522 263.198,284.53 263.765,284.537 264.333,284.544 264.9,284.551 265.467,284.558 266.035,284.565 266.602,284.572 267.169,284.579 267.737,284.585 268.304,284.592 268.872,284.598 269.439,284.604 270.006,284.61 270.574,284.616 271.141,284.622 271.708,284.628 272.276,284.634 272.843,284.639 273.411,284.645 273.978,284.65 274.545,284.655 275.113,284.661 275.68,284.666 276.247,284.671 276.815,284.676 277.382,284.681 277.95,284.685 278.517,284.69 279.084,284.695 279.652,284.699 280.219,284.704 280.786,284.708 281.354,284.713 281.921,284.717 282.489,284.721 283.056,284.725 283.623,284.729 284.191,284.733 284.758,284.737 285.326,284.741 285.893,284.745 286.46,284.748 287.028,284.752 287.595,284.756 288.162,284.759 288.73,284.763 289.297,284.766 289.865,284.769 290.432,284.773 290.999,284.776 291.567,284.779 292.134,284.782 292.701,284.785 293.269,284.788 293.836,284.791 294.404,284.794 294.971,284.797 295.538,284.8 296.106,284.803 296.673,284.805 297.24,284.808 297.808,284.811 298.375,284.813 298.943,284.816 299.51,284.818 300.077,284.821 300.645,284.823 301.212,284.825 301.779,284.828 302.347,284.83 302.914,284.832 303.482,284.834 304.049,284.836 304.616,284.838 305.184,284.84 305.751,284.842 306.319,284.844 306.886,284.846 307.453,284.848 308.021,284.85 308.588,284.852 309.155,284.853 309.723,284.855 310.29,284.857 310.858,284.858 311.425,284.86 311.992,284.861 312.56,284.863 313.127,284.865 313.694,284.866 314.262,284.867 314.829,284.869 315.397,284.87 315.964,284.871 316.531,284.873 317.099,284.874 317.666,284.875 318.233,284.876 318.801,284.877 319.368,284.878 319.936,284.88 320.503,284.881 321.07,284.882 321.638,284.883 322.205,284.883 322.772,284.884 323.34,284.885 323.907,284.886 324.475,284.887 325.042,284.888 325.609,284.888 326.177,284.889 326.744,284.89 327.312,284.89 327.879,284.891 328.446,284.892 329.014,284.892 329.581,284.893 330.148,284.893 330.716,284.894 331.283,284.894 331.851,284.895 332.418,284.895 332.985,284.895 333.553,284.896 334.12,284.896 334.687,284.896 335.255,284.896 335.822,284.896 336.39,284.897 336.957,284.897 337.524,284.897 338.092,284.897 338.659,284.897" stroke="#0071bc" stroke-linecap="butt" stroke-linejoin="round" stroke-width="0.5"/>
   <polyline fill="none" points="48.7287,27.7458 49.2961,27.7433 49.8634,27.7372 50.4308,27.7308 50.9982,27.7277 51.5656,27.73 52.1329,27.737 52.7003,27.7456 53.2677,27.7523 53.8351,27.7542 54.4025,27.7514 54.9698,27.7463 55.5372,27.7429 56.1046,27.7442 56.672,27.7511 57.2394,27.7616 57.8067,27.7719 58.3741,27.7785 58.9415,27.7798 59.5089,27.7771 60.0762,27.7738 60.6436,27.7742 61.211,27.7804 61.7784,27.7919 62.3458,27.8055 62.9131,27.8169 63.4805,27.823 64.0479,27.8237 64.6153,27.8216 65.1827,27.8213 65.75,27.8264 66.3174,27.8381 66.8848,27.8543 67.4522,27.8704 68.0195,27.8821 68.5869,27.8875 69.1543,27.8878 69.7217,27.8875 70.2891,27.8914 70.8564,27.9026 71.4238,27.9204 71.9912,27.9409 72.5586,27.9589 73.1259,27.9702 73.6933,27.9746 74.2607,27.9755 74.8281,27.9785 75.3955,27.9885 75.9628,28.007 76.5302,28.0313 77.0976,28.0558 77.665,28.0746 78.2324,28.085 78.7997,28.089 79.3671,28.092 79.9345,28.1006 80.5019,28.1187 81.0692,28.1458 81.6366,28.1766 82.204,28.204 82.7714,28.2228 83.3388,28.2323 83.9061,28.237 84.4735,28.2446 85.0409,28.2616 85.6083,28.2902 86.1757,28.3268 86.743,28.3637 87.3104,28.3931 87.8778,28.4112 88.4452,28.4204 89.0126,28.4283 89.5799,28.4439 90.1473,28.4727 90.7147,28.5139 91.2821,28.5605 91.8494,28.6026 92.4168,28.6328 92.9842,28.6503 93.5516,28.6611 94.1189,28.6758 94.6863,28.7036 95.2537,28.7476 95.8211,28.803 96.3885,28.8592 96.9558,28.905 97.5232,28.9351 98.0906,28.9528 98.658,28.9688 99.2254,28.9957 99.7927,29.0421 100.36,29.1071 100.927,29.1812 101.495,29.2509 102.062,29.3053 102.63,29.3426 103.197,29.3712 103.764,29.4054 104.332,29.4583 104.899,29.5346 105.467,29.628 106.034,29.7238 106.601,29.8065 107.169,29.8681 107.736,29.9129 108.303,29.9552 108.871,30.013 109.438,30.098 110.006,30.2097 110.573,30.3351 111.14,30.455 111.708,30.5544 112.275,30.6304 112.842,30.6943 113.41,30.7668 113.977,30.8666 114.545,31.0016 115.112,31.1637 115.679,31.3327 116.247,31.4872 116.814,31.6156 117.381,31.7227 117.949,31.8286 118.516,31.9583 119.084,32.1289 119.651,32.3411 120.218,32.5777 120.786,32.8129 121.353,33.0257 121.921,33.2119 122.488,33.387 123.055,33.5796 123.623,33.8167 124.19,34.1104 124.757,34.4511 125.325,34.813 125.892,35.1675 126.46,35.4998 127.027,35.8177 127.594,36.1497 128.162,36.5318 128.729,36.9898 129.296,37.5273 129.864,38.1247 130.431,38.7509 130.999,39.3822 131.566,40.0177 132.133,40.6836 132.701,41.4229 133.268,42.2779 133.835,43.2721 134.403,44.4035 134.97,45.6522 135.538,46.999 136.105,48.4449 136.672,50.0203 137.24,51.7792 137.807,53.7804 138.374,56.0667 138.942,58.6521 139.509,61.5222 140.077,64.643 140.644,67.968 141.211,71.4281 141.779,74.906 142.346,78.209 142.914,81.0694 143.481,83.1952 144.048,84.3636 144.616,84.5074 145.183,83.7365 145.75,82.2776 146.318,80.3759 146.885,78.2252 147.453,75.9562 148.02,73.6695 148.587,71.472 149.155,69.4823 149.722,67.8021 150.289,66.4748 150.857,65.464 151.424,64.668 151.992,63.9669 152.559,63.2773 153.126,62.5867 153.694,61.9484 154.261,61.4405 154.828,61.1143 155.396,60.9616 155.963,60.9178 156.531,60.8972 157.098,60.8399 157.665,60.7412 158.233,60.6476 158.8,60.6241 159.367,60.7147 159.935,60.9185 160.502,61.1965 161.07,61.5011 161.637,61.8104 162.204,62.1435 162.772,62.549 163.339,63.0743 163.907,63.7379 164.474,64.5225 165.041,65.3942 165.609,66.335 166.176,67.3651 166.743,68.5375 167.311,69.9017 167.878,71.4585 168.446,73.13 169.013,74.7661 169.58,76.1863 170.148,77.2341 170.715,77.8141 171.282,77.8909 171.85,77.459 172.417,76.5129 172.985,75.045 173.552,73.073 174.119,70.6722 174.687,67.9831 175.254,65.1844 175.821,62.4445 176.389,59.879 176.956,57.5336 177.524,55.3959 178.091,53.4265 178.658,51.5908 179.226,49.8761 179.793,48.2913 180.36,46.8522 180.928,45.5663 181.495,44.4241 182.063,43.4008 182.63,42.4672 183.197,41.6005 183.765,40.7903 184.332,40.0372 184.9,39.3452 185.467,38.7148 186.034,38.1397 186.602,37.6087 187.169,37.1109 187.736,36.6409 188.304,36.1996 188.871,35.7914 189.439,35.4185 190.006,35.0779 190.573,34.7606 191.141,34.456 191.708,34.1573 192.275,33.8649 192.843,33.5861 193.41,33.3302 193.978,33.1022 194.545,32.8992 195.112,32.7109 195.68,32.5245 196.247,32.3313 196.814,32.1317 197.382,31.9347 197.949,31.7532 198.517,31.5966 199.084,31.4652 199.651,31.3495 200.219,31.2347 200.786,31.1086 201.354,30.968 201.921,30.8203 202.488,30.6797 203.056,30.5595 203.623,30.4651 204.19,30.3903 204.758,30.3208 205.325,30.2413 205.893,30.1436 206.46,30.0309 207.027,29.916 207.595,29.815 208.162,29.7381 208.729,29.6844 209.297,29.6424 209.864,29.5955 210.432,29.531 210.999,29.4465 211.566,29.3513 212.134,29.2615 212.701,29.1914 213.268,29.1461 213.836,29.1188 214.403,29.0943 214.971,29.0571 215.538,28.9994 216.105,28.925 216.673,28.8476 217.24,28.7834 217.807,28.7425 218.375,28.7236 218.942,28.7146 219.51,28.6991 220.077,28.6647 220.644,28.6094 221.212,28.5427 221.779,28.4806 222.346,28.4368 222.914,28.4163 223.481,28.4119 224.049,28.4089 224.616,28.3921 225.183,28.3541 225.751,28.299 226.318,28.2402 226.886,28.1932 227.453,28.1677 228.02,28.1624 228.588,28.166 229.155,28.1629 229.722,28.1413 230.29,28.0997 230.857,28.0471 231.425,27.9986 231.992,27.9673 232.559,27.9574 233.127,27.9624 233.694,27.9682 234.261,27.9608 234.829,27.9333 235.396,27.8897 235.964,27.8425 236.531,27.8062 237.098,27.7897 237.666,27.7918 238.233,27.8017 238.8,27.8051 239.368,27.7911 239.935,27.7585 240.503,27.7156 241.07,27.6765 241.637,27.6532 242.205,27.6494 242.772,27.6591 243.339,27.6692 243.907,27.6669 244.474,27.6461 245.042,27.6105 245.609,27.5716 246.176,27.5426 246.744,27.5317 247.311,27.5375 247.879,27.5502 248.446,27.5568 249.013,27.5475 249.581,27.5211 250.148,27.4854 250.715,27.4532 251.283,27.4352 251.85,27.4349 252.418,27.4465 252.985,27.4584 253.552,27.459 254.12,27.4427 254.687,27.413 255.254,27.3804 255.822,27.3568 256.389,27.3494 256.957,27.357 257.524,27.3706 258.091,27.3785 258.659,27.3721 259.226,27.3503 259.793,27.3204 260.361,27.2935 260.928,27.2794 261.496,27.2809 262.063,27.2931 262.63,27.3053 263.198,27.3073 263.765,27.2943 264.333,27.2694 264.9,27.242 265.467,27.2226 266.035,27.2175 266.602,27.2256 267.169,27.239 267.737,27.2472 268.304,27.2426 268.872,27.2245 269.439,27.1993 270.006,27.1769 270.574,27.1657 271.141,27.1682 271.708,27.1799 272.276,27.1916 272.843,27.1942 273.411,27.1837 273.978,27.1628 274.545,27.1399 275.113,27.124 275.68,27.1205 276.247,27.1285 276.815,27.1409 277.382,27.1487 277.95,27.1454 278.517,27.1304 279.084,27.1093 279.652,27.0907 280.219,27.0819 280.786,27.0848 281.354,27.0956 281.921,27.1061 282.489,27.1088 283.056,27.1003 283.623,27.0831 284.191,27.0641 284.758,27.0511 285.326,27.0488 285.893,27.0562 286.46,27.0671 287.028,27.0741 287.595,27.0717 288.162,27.0594 288.73,27.0421 289.297,27.027 289.865,27.0201 290.432,27.023 290.999,27.0324 291.567,27.0415 292.134,27.044 292.701,27.0372 293.269,27.0232 293.836,27.0079 294.404,26.9977 294.971,26.9962 295.538,27.0025 296.106,27.0118 296.673,27.0177 297.24,27.0158 297.808,27.0061 298.375,26.9922 298.943,26.9803 299.51,26.9751 300.077,26.9778 300.645,26.9856 301.212,26.993 301.779,26.9952 302.347,26.9898 302.914,26.9789 303.482,26.967 304.049,26.9592 304.616,26.9583 305.184,26.9635 305.751,26.9709 306.319,26.9755 306.886,26.9742 307.453,26.9667 308.021,26.9562 308.588,26.9474 309.155,26.9436 309.723,26.9459 310.29,26.9519 310.858,26.9576 311.425,26.9591 311.992,26.9551 312.56,26.9471 313.127,26.9385 313.694,26.933 314.262,26.9326 314.829,26.9366 315.397,26.9419 315.964,26.9452 316.531,26.9441 317.099,26.9388 317.666,26.9316 318.233,26.9257 318.801,26.9233 319.368,26.925 319.936,26.9292 320.503,26.9329 321.07,26.9338 321.638,26.9312 322.205,26.9259 322.772,26.9206 323.34,26.9173 323.907,26.9172 324.475,26.9198 325.042,26.923 325.609,26.9249 326.177,26.9241 326.744,26.921 327.312,26.9169 327.879,26.9138 328.446,26.9128 329.014,26.9138 329.581,26.916 330.148,26.9178 330.716,26.9181 331.283,26.9166 331.851,26.9142 332.418,26.912 332.985,26.9109 333.553,26.9111 334.12,26.9122 334.687,26.9133 335.255,26.9137 335.822,26.9131 336.39,26.9121 336.957,26.9113 337.524,26.9109 338.092,26.9111 338.659,26.9115" stroke="#d85218" stroke-linecap="butt" stroke-linejoin="round" stroke-width="0.5"/>
   <polyline fill="none" points="48.7287,26.2525 49.2961,26.2499 49.8634,26.2434 50.4308,26.2365 50.9982,26.2327 51.5656,26.2339 52.1329,26.2397 52.7003,26.247 53.2677,26.2519 53.8351,26.252 54.4025,26.2471 54.9698,26.2397 55.5372,26.2337 56.1046,26.2322 56.672,26.2361 57.2394,26.2433 57.8067,26.2502 58.3741,26.2531 58.9415,26.2504 59.5089,26.2434 60.0762,26.2358 60.6436,26.2314 61.211,26.2327 61.7784,26.2391 62.3458,26.2472 62.9131,26.2529 63.4805,26.2531 64.0479,26.2475 64.6153,26.239 65.1827,26.2319 65.75,26.23 66.3174,26.2345 66.8848,26.243 67.4522,26.2513 68.0195,26.2548 68.5869,26.2516 69.1543,26.2432 69.7217,26.2338 70.2891,26.2284 70.8564,26.2298 71.4238,26.2376 71.9912,26.2477 72.5586,26.2549 73.1259,26.2552 73.6933,26.2482 74.2607,26.2373 74.8281,26.2282 75.3955,26.2256 75.9628,26.2312 76.5302,26.2422 77.0976,26.2529 77.665,26.2575 78.2324,26.2534 78.7997,26.2424 79.3671,26.2299 79.9345,26.2226 80.5019,26.2244 81.0692,26.2346 81.6366,26.248 82.204,26.2576 82.7714,26.258 83.3388,26.2485 83.9061,26.2338 84.4735,26.2213 85.0409,26.2176 85.6083,26.2249 86.1757,26.2397 86.743,26.254 87.3104,26.2603 87.8778,26.2545 88.4452,26.2392 89.0126,26.2218 89.5799,26.2113 90.1473,26.2133 90.7147,26.2269 91.2821,26.2451 91.8494,26.2579 92.4168,26.258 92.9842,26.2443 93.5516,26.2231 94.1189,26.2048 94.6863,26.1986 95.2537,26.2076 95.8211,26.2268 96.3885,26.2457 96.9558,26.2531 97.5232,26.2435 98.0906,26.2203 98.658,26.1939 99.2254,26.1773 99.7927,26.1786 100.36,26.1971 100.927,26.2232 101.495,26.2431 102.062,26.2462 102.63,26.2305 103.197,26.2042 103.764,26.1815 104.332,26.1757 104.899,26.1911 105.467,26.2215 106.034,26.252 106.601,26.267 107.169,26.2585 107.736,26.2305 108.303,26.1974 108.871,26.1768 109.438,26.1805 110.006,26.2076 110.573,26.2451 111.14,26.2737 111.708,26.278 112.275,26.255 112.842,26.2159 113.41,26.1809 113.977,26.1688 114.545,26.1869 115.112,26.227 115.679,26.2686 116.247,26.2899 116.814,26.2789 117.381,26.2402 117.949,26.1932 118.516,26.1626 119.084,26.1651 119.651,26.2007 120.218,26.2516 120.786,26.2914 121.353,26.2985 121.921,26.2677 122.488,26.2139 123.055,26.1645 123.623,26.1456 124.19,26.1681 124.757,26.2211 125.325,26.2774 125.892,26.3068 126.46,26.2926 127.027,26.2407 127.594,26.1773 128.162,26.1357 128.729,26.1389 129.296,26.1871 129.864,26.2569 130.431,26.3128 130.999,26.3263 131.566,26.2904 132.133,26.2247 132.701,26.1645 133.268,26.1429 133.835,26.1729 134.403,26.2405 134.97,26.3113 135.538,26.3498 136.105,26.3383 136.672,26.2862 137.24,26.2241 137.807,26.186 138.374,26.191 138.942,26.2325 139.509,26.2846 140.077,26.3201 140.644,26.3281 141.211,26.3201 141.779,26.3173 142.346,26.3296 142.914,26.3425 143.481,26.3275 144.048,26.2711 144.616,26.1985 145.183,26.1635 145.75,26.2087 146.318,26.3269 146.885,26.4568 147.453,26.5182 148.02,26.4638 148.587,26.3126 149.155,26.1424 149.722,26.046 150.289,26.0773 150.857,26.2203 151.424,26.3974 151.992,26.5129 152.559,26.5058 153.126,26.3831 153.694,26.2145 154.261,26.0917 154.828,26.0766 155.396,26.1693 155.963,26.3116 156.531,26.4227 157.098,26.4462 157.665,26.3798 158.233,26.2714 158.8,26.1869 159.367,26.17 159.935,26.2188 160.502,26.2924 161.07,26.3401 161.637,26.335 162.204,26.2904 162.772,26.247 163.339,26.2424 163.907,26.2838 164.474,26.3413 165.041,26.3683 165.609,26.3347 166.176,26.2523 166.743,26.1719 167.311,26.1525 167.878,26.2208 168.446,26.3481 169.013,26.4619 169.58,26.4886 170.148,26.4031 170.715,26.2507 171.282,26.1218 171.85,26.0941 172.417,26.1819 172.985,26.3283 173.552,26.4447 174.119,26.4675 174.687,26.3935 175.254,26.2735 175.821,26.1758 176.389,26.1457 176.956,26.1854 177.524,26.2603 178.091,26.3241 178.658,26.3451 179.226,26.3199 179.793,26.2693 180.36,26.2231 180.928,26.2022 181.495,26.2101 182.063,26.2342 182.63,26.2563 183.197,26.2636 183.765,26.2545 184.332,26.2371 184.9,26.2226 185.467,26.2173 186.034,26.2204 186.602,26.2252 187.169,26.2251 187.736,26.2182 188.304,26.2088 188.871,26.2039 189.439,26.2085 190.006,26.2216 190.573,26.2364 191.141,26.244 191.708,26.2393 192.275,26.2241 192.843,26.207 193.41,26.1984 193.978,26.2046 194.545,26.2234 195.112,26.2455 195.68,26.2588 196.247,26.2555 196.814,26.2365 197.382,26.2116 197.949,26.1942 198.517,26.194 199.084,26.2119 199.651,26.2389 200.219,26.2606 200.786,26.2651 201.354,26.2496 201.921,26.2216 202.488,26.1959 203.056,26.186 203.623,26.1974 204.19,26.2243 204.758,26.2526 205.325,26.2671 205.893,26.2598 206.46,26.2342 207.027,26.2032 207.595,26.1831 208.162,26.1841 208.729,26.2057 209.297,26.2362 209.864,26.2594 210.432,26.2626 210.999,26.2435 211.566,26.2116 212.134,26.183 212.701,26.172 213.268,26.184 213.836,26.2122 214.403,26.2414 214.971,26.2562 215.538,26.2489 216.105,26.2234 216.673,26.1935 217.24,26.1754 217.807,26.1791 218.375,26.2036 218.942,26.2367 219.51,26.2621 220.077,26.2675 220.644,26.2508 221.212,26.2216 221.779,26.196 222.346,26.1878 222.914,26.2018 223.481,26.231 224.049,26.2607 224.616,26.2758 225.183,26.2689 225.751,26.244 226.318,26.2147 226.886,26.1964 227.453,26.1989 228.02,26.2209 228.588,26.2512 229.155,26.274 229.722,26.2777 230.29,26.2607 230.857,26.2323 231.425,26.2073 231.992,26.199 232.559,26.2115 233.127,26.2385 233.694,26.2657 234.261,26.2791 234.829,26.272 235.396,26.2484 235.964,26.2207 236.531,26.2035 237.098,26.2057 237.666,26.226 238.233,26.2538 238.8,26.2746 239.368,26.2777 239.935,26.2618 240.503,26.2353 241.07,26.2122 241.637,26.2046 242.205,26.2161 242.772,26.2408 243.339,26.2656 243.907,26.2777 244.474,26.271 245.042,26.2492 245.609,26.2239 246.176,26.2082 246.744,26.2102 247.311,26.2288 247.879,26.254 248.446,26.2728 249.013,26.2755 249.581,26.2609 250.148,26.2368 250.715,26.2159 251.283,26.209 251.85,26.2195 252.418,26.2419 252.985,26.2642 253.552,26.275 254.12,26.2689 254.687,26.2491 255.254,26.2262 255.822,26.2122 256.389,26.2141 256.957,26.2308 257.524,26.2535 258.091,26.2703 258.659,26.2726 259.226,26.2593 259.793,26.2377 260.361,26.2191 260.928,26.213 261.496,26.2225 262.063,26.2425 262.63,26.2623 263.198,26.2719 263.765,26.2662 264.333,26.2486 264.9,26.2284 265.467,26.2159 266.035,26.2178 266.602,26.2327 267.169,26.2527 267.737,26.2674 268.304,26.2693 268.872,26.2575 269.439,26.2385 270.006,26.2222 270.574,26.2169 271.141,26.2254 271.708,26.2429 272.276,26.2602 272.843,26.2684 273.411,26.2634 273.978,26.248 274.545,26.2303 275.113,26.2197 275.68,26.2213 276.247,26.2343 276.815,26.2517 277.382,26.2643 277.95,26.2658 278.517,26.2556 279.084,26.2392 279.652,26.2252 280.219,26.2207 280.786,26.2281 281.354,26.2432 281.921,26.258 282.489,26.2649 283.056,26.2605 283.623,26.2473 284.191,26.2323 284.758,26.2233 285.326,26.2248 285.893,26.2359 286.46,26.2506 287.028,26.2612 287.595,26.2624 288.162,26.2536 288.73,26.2398 289.297,26.2281 289.865,26.2245 290.432,26.2308 290.999,26.2434 291.567,26.2557 292.134,26.2613 292.701,26.2576 293.269,26.2466 293.836,26.2342 294.404,26.2269 294.971,26.2283 295.538,26.2374 296.106,26.2494 296.673,26.258 297.24,26.2588 297.808,26.2517 298.375,26.2404 298.943,26.231 299.51,26.2283 300.077,26.2334 300.645,26.2435 301.212,26.2533 301.779,26.2577 302.347,26.2546 302.914,26.2458 303.482,26.2361 304.049,26.2304 304.616,26.2316 305.184,26.2389 305.751,26.2482 306.319,26.2548 306.886,26.2553 307.453,26.2497 308.021,26.2411 308.588,26.234 309.155,26.232 309.723,26.236 310.29,26.2437 310.858,26.2509 311.425,26.2541 311.992,26.2516 312.56,26.2451 313.127,26.238 313.694,26.234 314.262,26.235 314.829,26.2403 315.397,26.247 315.964,26.2516 316.531,26.2518 317.099,26.2477 317.666,26.2417 318.233,26.2369 318.801,26.2357 319.368,26.2385 319.936,26.2437 320.503,26.2485 321.07,26.2504 321.638,26.2487 322.205,26.2444 322.772,26.2399 323.34,26.2375 323.907,26.2384 324.475,26.2417 325.042,26.2457 325.609,26.2483 326.177,26.2482 326.744,26.2458 327.312,26.2424 327.879,26.2399 328.446,26.2394 329.014,26.2411 329.581,26.2438 330.148,26.246 330.716,26.2468 331.283,26.2458 331.851,26.2437 332.418,26.2419 332.985,26.2411 333.553,26.2417 334.12,26.243 334.687,26.2444 335.255,26.245 335.822,26.2447 336.39,26.2438 336.957,26.243 337.524,26.2428 338.092,26.2431 338.659,26.2436" stroke="#ecb01f" stroke-linecap="butt" stroke-linejoin="round" stroke-width="0.5"/>
   <polyline fill="none" points="48.7287,26.2754 49.2961,26.2754 49.8634,26.2754 50.4308,26.2754 50.9982,26.2754 51.5656,26.2754 52.1329,26.2754 52.7003,26.2754 53.2677,26.2754 53.8351,26.2754 54.4025,26.2754 54.9698,26.2754 55.5372,26.2754 56.1046,26.2754 56.672,26.2754 57.2394,26.2754 57.8067,26.2754 58.3741,26.2754 58.9415,26.2754 59.5089,26.2754 60.0762,26.2754 60.6436,26.2754 61.211,26.2754 61.7784,26.2754 62.3458,26.2754 62.9131,26.2754 63.4805,26.2754 64.0479,26.2754 64.6153,26.2754 65.1827,26.2754 65.75,26.2754 66.3174,26.2754 66.8848,26.2754 67.4522,26.2754 68.0195,26.2754 68.5869,26.2754 69.1543,26.2754 69.7217,26.2754 70.2891,26.2754 70.8564,26.2754 71.4238,26.2754 71.9912,26.2754 72.5586,26.2754 73.1259,26.2754 73.6933,26.2754 74.2607,26.2754 74.8281,26.2754 75.3955,26.2754 75.9628,26.2754 76.5302,26.2754 77.0976,26.2754 77.665,26.2754 78.2324,26.2754 78.7997,26.2754 79.3671,26.2754 79.9345,26.2754 80.5019,26.2754 81.0692,26.2754 81.6366,26.2754 82.204,26.2754 82.7714,26.2754 83.3388,26.2754 83.9061,26.2754 84.4735,26.2754 85.0409,26.2754 85.6083,26.2754 86.1757,26.2754 86.743,26.2754 87.3104,26.2754 87.8778,26.2754 88.4452,26.2754 89.0126,26.2754 89.5799,26.2754 90.1473,26.2754 90.7147,26.2754 91.2821,26.2754 91.8494,26.2754 92.4168,26.2754 92.9842,26.2754 93.5516,26.2754 94.1189,26.2754 94.6863,26.2754 95.2537,26.2754 95.8211,26.2754 96.3885,26.2754 96.9558,26.2754 97.5232,26.2754 98.0906,26.2754 98.658,26.2754 99.2254,26.2754 99.7927,26.2754 100.36,26.2754 100.927,26.2754 101.495,26.2754 102.062,26.2754 102.63,26.2754 103.197,26.2754 103.764,26.2754 104.332,26.2754 104.899,26.2754 105.467,26.2754 106.034,26.2754 106.601,26.2754 107.169,26.2754 107.736,26.2754 108.303,26.2754 108.871,26.2754 109.438,26.2754 110.006,26.2754 110.573,26.2754 111.14,26.2754 111.708,26.2754 112.275,26.2754 112.842,26.2754 113.41,26.2754 113.977,26.2754 114.545,26.2754 115.112,26.2754 115.679,26.2754 116.247,26.2754 116.814,26.2754 117.381,26.2754 117.949,26.2754 118.516,26.2754 119.084,26.2754 119.651,26.2754 120.218,26.2754 120.786,26.2754 121.353,26.2754 121.921,26.2754 122.488,26.2754 123.055,26.2754 123.623,26.2754 124.19,26.2754 124.757,26.2754 125.325,26.2754 125.892,26.2754 126.46,26.2754 127.027,26.2754 127.594,26.2754 128.162,26.2754 128.729,26.2754 129.296,26.2754 129.864,26.2754 130.431,26.2754 130.999,26.2754 131.566,26.2754 132.133,26.2754 132.701,26.2754 133.268,26.2754 133.835,26.2754 134.403,26.2754 134.97,26.2754 135.538,26.2754 136.105,26.2754 136.672,26.2754 137.24,26.2754 137.807,26.2754 138.374,26.2754 138.942,26.2754 139.509,26.2754 140.077,26.2754 140.644,26.2754 141.211,26.2754 141.779,26.2754 142.346,26.2754 142.914,26.2754 143.481,26.2754 144.048,26.2754 144.616,26.2754 145.183,26.2754 145.75,26.2754 146.318,26.2754 146.885,26.2754 147.453,26.2754 148.02,26.2754 148.587,26.2754 149.155,26.2754 149.722,26.2754 150.289,26.2754 150.857,26.2754 151.424,26.2754 151.992,26.2754 152.559,26.2754 153.126,26.2754 153.694,26.2754 154.261,26.2754 154.828,26.2754 155.396,26.2754 155.963,26.2754 156.531,26.2754 157.098,26.2754 157.665,26.2754 158.233,26.2754 158.8,26.2754 159.367,26.2754 159.935,26.2754 160.502,26.2754 161.07,26.2754 161.637,26.2754 162.204,26.2754 162.772,26.2754 163.339,26.2754 163.907,26.2754 164.474,26.2754 165.041,26.2754 165.609,26.2754 166.176,26.2754 166.743,26.2754 167.311,26.2754 167.878,26.2754 168.446,26.2754 169.013,26.2754 169.58,26.2754 170.148,26.2754 170.715,26.2754 171.282,26.2754 171.85,26.2754 172.417,26.2754 172.985,26.2754 173.552,26.2754 174.119,26.2754 174.687,26.2754 175.254,26.2754 175.821,26.2754 176.389,26.2754 176.956,26.2754 177.524,26.2754 178.091,26.2754 178.658,26.2754 179.226,26.2754 179.793,26.2754 180.36,26.2754 180.928,26.2754 181.495,26.2754 182.063,26.2754 182.63,26.2754 183.197,26.2754 183.765,26.2754 184.332,26.2754 184.9,26.2754 185.467,26.2754 186.034,26.2754 186.602,26.2754 187.169,26.2754 187.736,26.2754 188.304,26.2754 188.871,26.2754 189.439,26.2754 190.006,26.2754 190.573,26.2754 191.141,26.2754 191.708,26.2754 192.275,26.2754 192.843,26.2754 193.41,26.2754 193.978,26.2754 194.545,26.2754 195.112,26.2754 195.68,26.2754 196.247,26.2754 196.814,26.2754 197.382,26.2754 197.949,26.2754 198.517,26.2754 199.084,26.2754 199.651,26.2754 200.219,26.2754 200.786,26.2754 201.354,26.2754 201.921,26.2754 202.488,26.2754 203.056,26.2754 203.623,26.2754 204.19,26.2754 204.758,26.2754 205.325,26.2754 205.893,26.2754 206.46,26.2754 207.027,26.2754 207.595,26.2754 208.162,26.2754 208.729,26.2754 209.297,26.2754 209.864,26.2754 210.432,26.2754 210.999,26.2754 211.566,26.2754 212.134,26.2754 212.701,26.2754 213.268,26.2754 213.836,26.2754 214.403,26.2754 214.971,26.2754 215.538,26.2754 216.105,26.2754 216.673,26.2754 217.24,26.2754 217.807,26.2754 218.375,26.2754 218.942,26.2754 219.51,26.2754 220.077,26.2754 220.644,26.2754 221.212,26.2754 221.779,26.2754 222.346,26.2754 222.914,26.2754 223.481,26.2754 224.049,26.2754 224.616,26.2754 225.183,26.2754 225.751,26.2754 226.318,26.2754 226.886,26.2754 227.453,26.2754 228.02,26.2754 228.588,26.2754 229.155,26.2754 229.722,26.2754 230.29,26.2754 230.857,26.2754 231.425,26.2754 231.992,26.2754 232.559,26.2754 233.127,26.2754 233.694,26.2754 234.261,26.2754 234.829,26.2754 235.396,26.2754 235.964,26.2754 236.531,26.2754 237.098,26.2754 237.666,26.2754 238.233,26.2754 238.8,26.2754 239.368,26.2754 239.935,26.2754 240.503,26.2754 241.07,26.2754 241.637,26.2754 242.205,26.2754 242.772,26.2754 243.339,26.2754 243.907,26.2754 244.474,26.2754 245.042,26.2754 245.609,26.2754 246.176,26.2754 246.744,26.2754 247.311,26.2754 247.879,26.2754 248.446,26.2754 249.013,26.2754 249.581,26.2754 250.148,26.2754 250.715,26.2754 251.283,26.2754 251.85,26.2754 252.418,26.2754 252.985,26.2754 253.552,26.2754 254.12,26.2754 254.687,26.2754 255.254,26.2754 255.822,26.2754 256.389,26.2754 256.957,26.2754 257.524,26.2754 258.091,26.2754 258.659,26.2754 259.226,26.2754 259.793,26.2754 260.361,26.2754 260.928,26.2754 261.496,26.2754 262.063,26.2754 262.63,26.2754 263.198,26.2754 263.765,26.2754 264.333,26.2754 264.9,26.2754 265.467,26.2754 266.035,26.2754 266.602,26.2754 267.169,26.2754 267.737,26.2754 268.304,26.2754 268.872,26.2754 269.439,26.2754 270.006,26.2754 270.574,26.2754 271.141,26.2754 271.708,26.2754 272.276,26.2754 272.843,26.2754 273.411,26.2754 273.978,26.2754 274.545,26.2754 275.113,26.2754 275.68,26.2754 276.247,26.2754 276.815,26.2754 277.382,26.2754 277.95,26.2754 278.517,26.2754 279.084,26.2754 279.652,26.2754 280.219,26.2754 280.786,26.2754 281.354,26.2754 281.921,26.2754 282.489,26.2754 283.056,26.2754 283.623,26.2754 284.191,26.2754 284.758,26.2754 285.326,26.2754 285.893,26.2754 286.46,26.2754 287.028,26.2754 287.595,26.2754 288.162,26.2754 288.73,26.2754 289.297,26.2754 289.865,26.2754 290.432,26.2754 290.999,26.2754 291.567,26.2754 292.134,26.2754 292.701,26.2754 293.269,26.2754 293.836,26.2754 294.404,26.2754 294.971,26.2754 295.538,26.2754 296.106,26.2754 296.673,26.2754 297.24,26.2754 297.808,26.2754 298.375,26.2754 298.943,26.2754 299.51,26.2754 300.077,26.2754 300.645,26.2754 301.212,26.2754 301.779,26.2754 302.347,26.2754 302.914,26.2754 303.482,26.2754 304.049,26.2754 304.616,26.2754 305.184,26.2754 305.751,26.2754 306.319,26.2754 306.886,26.2754 307.453,26.2754 308.021,26.2754 308.588,26.2754 309.155,26.2754 309.723,26.2754 310.29,26.2754 310.858,26.2754 311.425,26.2754 311.992,26.2754 312.56,26.2754 313.127,26.2754 313.694,26.2754 314.262,26.2754 314.829,26.2754 315.397,26.2754 315.964,26.2754 316.531,26.2754 317.099,26.2754 317.666,26.2754 318.233,26.2754 318.801,26.2754 319.368,26.2754 319.936,26.2754 320.503,26.2754 321.07,26.2754 321.638,26.2754 322.205,26.2754 322.772,26.2754 323.34,26.2754 323.907,26.2754 324.475,26.2754 325.042,26.2754 325.609,26.2754 326.177,26.2754 326.744,26.2754 327.312,26.2754 327.879,26.2754 328.446,26.2754 329.014,26.2754 329.581,26.2754 330.148,26.2754 330.716,26.2754 331.283,26.2754 331.851,26.2754 332.418,26.2754 332.985,26.2754 333.553,26.2754 334.12,26.2754 334.687,26.2754 335.255,26.2754 335.822,26.2754 336.39,26.2754 336.957,26.2754 337.524,26.2754 338.092,26.2754 338.659,26.2754" stroke="#7d2e8d" stroke-linecap="butt" stroke-linejoin="round" stroke-width="0.5"/>
   <polyline fill="none" points="77.7785,285.565 79.3382,285.565 80.8979,285.565 82.4576,285.565 84.0173,285.564 85.577,285.564 87.1368,285.564 88.6965,285.563 90.2562,285.562 91.8159,285.561 93.3757,285.56 94.9354,285.559 96.4951,285.557 98.0548,285.555 99.6145,285.552 101.174,285.549 102.734,285.544 104.294,285.539 105.853,285.533 107.413,285.525 108.973,285.516 110.533,285.503 112.092,285.487 113.652,285.467 115.212,285.441 116.771,285.409 118.331,285.364 119.891,285.305 121.451,285.227 123.01,285.125 124.57,284.99 126.13,284.8 127.689,284.563 129.249,284.29 130.809,284.006 132.369,283.756 133.928,283.603 135.488,283.516 137.048,283.473 138.608,283.457 140.167,283.449 141.727,283.443 143.287,283.436 144.846,283.427 146.406,283.417 147.966,283.406 149.526,283.394 151.085,283.383 152.645,283.372 154.205,283.363 155.764,283.354 157.324,283.35 158.884,283.353 160.444,283.37 162.003,283.411 163.563,283.495 165.123,283.652 166.682,283.865 168.242,284.114 169.802,284.374 171.362,284.61 172.921,284.802 174.481,284.958 176.041,285.083 177.601,285.181 179.16,285.256 180.72,285.313 182.28,285.359 183.839,285.396 185.399,285.426 186.959,285.449 188.519,285.468 190.078,285.484 191.638,285.497 193.198,285.507 194.757,285.516 196.317,285.523 197.877,285.53 199.437,285.535 200.996,285.539 202.556,285.543 204.116,285.546 205.675,285.549 207.235,285.551 208.795,285.553 210.355,285.555 211.914,285.556 213.474,285.558 215.034,285.559 216.594,285.56 218.153,285.561 219.713,285.561 221.273,285.562 222.832,285.562 224.392,285.563 225.952,285.563 227.512,285.564 229.071,285.564 230.631,285.564 232.191,285.565 233.75,285.565 235.31,285.565 236.87,285.565 238.43,285.565 239.989,285.565 241.549,285.565 243.109,285.565 244.668,285.564 246.228,285.564 247.788,285.564 249.348,285.564 250.907,285.564 252.467,285.564 254.027,285.564 255.587,285.564 257.146,285.564 258.706,285.564 260.266,285.564 261.825,285.564 263.385,285.564 264.945,285.564 266.505,285.564 268.064,285.564 269.624,285.564 271.184,285.564 272.743,285.564 274.303,285.565 275.863,285.565 277.423,285.565 278.982,285.565 280.542,285.565 282.102,285.565 283.661,285.565 285.221,285.565 286.781,285.565 288.341,285.565 289.9,285.565 291.46,285.565 293.02,285.565 294.579,285.565 296.139,285.565 297.699,285.565 299.259,285.565 300.818,285.565 302.378,285.565 303.938,285.565 305.498,285.565 307.057,285.565 308.617,285.565 310.177,285.565" stroke="#76ab2f" stroke-linecap="butt" stroke-linejoin="round" stroke-width="0.5"/>
  </g>
  <clipPath id="cp00374320">
   <polygon points="0,320 374,320 374,0 0,0"/>
  </clipPath>
  <g clip-path="url(#cp00374320)">
   <polygon fill="#ffffff" points="204.209,277.561 331.223,277.561 331.223,204.551 204.209,204.551" shape-rendering="crispEdges"/>
   <polyline fill="none" points="204.209,277.561 331.223,277.561" stroke="#262626" stroke-dasharray="16,0" stroke-linecap="square" stroke-linejoin="miter" stroke-width="0.5"/>
   <polyline fill="none" points="204.209,204.551 331.223,204.551" stroke="#262626" stroke-dasharray="16,0" stroke-linecap="square" stroke-linejoin="miter" stroke-width="0.5"/>
   <polyline fill="none" points="204.209,277.561 204.209,204.551" stroke="#262626" stroke-dasharray="16,0" stroke-linecap="square" stroke-linejoin="miter" stroke-width="0.5"/>
   <polyline fill="none" points="331.223,277.561 331.223,204.551" stroke="#262626" stroke-dasharray="16,0" stroke-linecap="square" stroke-linejoin="miter" stroke-width="0.5"/>
   <polyline fill="none" points="208.211,213.553 228.219,213.553" stroke="#0071bc" stroke-linecap="butt" stroke-linejoin="round" stroke-width="0.5"/>
   <g font-family="FreeSans" font-size="9" font-style="normal" font-weight="normal" transform="translate(232.221,218.553) rotate(-0,-0,-5)" xml:space="preserve">
    <text fill="rgb(0,0,0)" x="0 3 8 13 18 " y="-2">Input</text>
   </g>
   <polyline fill="none" points="208.211,227.554 228.219,227.554" stroke="#d85218" stroke-linecap="butt" stroke-linejoin="round" stroke-width="0.5"/>
   <g font-family="FreeSans" font-size="9" font-style="normal" font-weight="normal" transform="translate(232.221,232.554) rotate(-0,-0,-5)" xml:space="preserve">
    <text fill="rgb(0,0,0)" x="0 6 11 18 23 28 33 37 42 45 47 52 57 59 64 66 68 71 76 79 81 83 85 87 89 91 93 " y="-2">Compensation Filter        </text>
   </g>
   <polyline fill="none" points="208.211,241.056 228.219,241.056" stroke="#ecb01f" stroke-linecap="butt" stroke-linejoin="round" stroke-width="0.5"/>
   <g font-family="FreeSans" font-size="9" font-style="normal" font-weight="normal" transform="translate(232.221,245.556) rotate(-0,-0,-4.5)" xml:space="preserve">
    <text fill="rgb(0,0,0)" x="0 6 11 18 23 25 30 35 " y="-1">Combined</text>
   </g>
   <polyline fill="none" points="208.211,254.558 228.219,254.558" stroke="#7d2e8d" stroke-linecap="butt" stroke-linejoin="round" stroke-width="0.5"/>
   <g font-family="FreeSans" font-size="9" font-style="normal" font-weight="normal" transform="translate(232.221,259.558) rotate(-0,-0,-5)" xml:space="preserve">
    <text fill="rgb(0,0,0)" x="0 6 11 14 19 24 27 29 36 39 " y="-2">Target Grd</text>
   </g>
   <polyline fill="none" points="208.211,268.56 228.219,268.56" stroke="#76ab2f" stroke-linecap="butt" stroke-linejoin="round" stroke-width="0.5"/>
   <g font-family="FreeSans" font-size="9" font-style="normal" font-weight="normal" transform="translate(232.221,273.56) rotate(-0,-0,-5)" xml:space="preserve">
    <text fill="rgb(0,0,0)" x="0 6 9 12 14 22 27 29 34 39 42 " y="-2">Err Weights</text>
   </g>
  </g>
 </g>
</svg>
