<?xml version='1.0' encoding='UTF-8' standalone='no'?>
<svg height="470pt" viewBox="0 0 524 470" width="524pt" xmlns="http://www.w3.org/2000/svg" xmlns:xlink="http://www.w3.org/1999/xlink">
 <title>Figure 5</title>
 <desc>
Creator: GL2PS 1.4.2, (C) 1999-2020 C. Geuzaine
For: Octave
CreationDate: Thu Feb 12 11:00:58 2026
</desc>
 <defs/>
 <polygon fill="#ffffff" points="0,0 524,0 524,470 0,470"/>
 <g>
  <polygon fill="#ffffff" points="0,470 524,470 524,0 0,0" shape-rendering="crispEdges"/>
  <clipPath id="cp00524470">
   <polygon points="0,470 524,470 524,0 0,0"/>
  </clipPath>
  <g clip-path="url(#cp00524470)">
   <g font-family="FreeSans" font-size="10" font-style="normal" font-weight="normal" transform="translate(65.2201,210.162) rotate(-0,3,-8)" xml:space="preserve">
    <text fill="rgb(38,38,38)" x="0 " y="-0">0</text>
   </g>
   <g font-family="FreeSans" font-size="10" font-style="normal" font-weight="normal" transform="translate(142.06,210.162) rotate(-0,7.5,-8)" xml:space="preserve">
    <text fill="rgb(38,38,38)" x="0 6 9 " y="-0">0.2</text>
   </g>
   <g font-family="FreeSans" font-size="10" font-style="normal" font-weight="normal" transform="translate(223.399,210.162) rotate(-0,7.5,-8)" xml:space="preserve">
    <text fill="rgb(38,38,38)" x="0 6 9 " y="-0">0.4</text>
   </g>
   <g font-family="FreeSans" font-size="10" font-style="normal" font-weight="normal" transform="translate(304.738,210.162) rotate(-0,7.5,-8)" xml:space="preserve">
    <text fill="rgb(38,38,38)" x="0 6 9 " y="-0">0.6</text>
   </g>
   <g font-family="FreeSans" font-size="10" font-style="normal" font-weight="normal" transform="translate(386.078,210.162) rotate(-0,7.5,-8)" xml:space="preserve">
    <text fill="rgb(38,38,38)" x="0 6 9 " y="-0">0.8</text>
   </g>
   <g font-family="FreeSans" font-size="10" font-style="normal" font-weight="normal" transform="translate(471.917,210.162) rotate(-0,3,-8)" xml:space="preserve">
    <text fill="rgb(38,38,38)" x="0 " y="-0">1</text>
   </g>
   <g font-family="FreeSans" font-size="10" font-style="normal" font-weight="normal" transform="translate(54.2239,198.647) rotate(-0,9,-4)" xml:space="preserve">
    <text fill="rgb(38,38,38)" x="0 3 " y="-0">-1</text>
   </g>
   <g font-family="FreeSans" font-size="10" font-style="normal" font-weight="normal" transform="translate(45.2239,166.985) rotate(-0,18,-4)" xml:space="preserve">
    <text fill="rgb(38,38,38)" x="0 3 9 12 " y="-0">-0.8</text>
   </g>
   <g font-family="FreeSans" font-size="10" font-style="normal" font-weight="normal" transform="translate(45.2239,135.323) rotate(-0,18,-4)" xml:space="preserve">
    <text fill="rgb(38,38,38)" x="0 3 9 12 " y="-0">-0.6</text>
   </g>
   <g font-family="FreeSans" font-size="10" font-style="normal" font-weight="normal" transform="translate(45.2239,103.662) rotate(-0,18,-4)" xml:space="preserve">
    <text fill="rgb(38,38,38)" x="0 3 9 12 " y="-0">-0.4</text>
   </g>
   <g font-family="FreeSans" font-size="10" font-style="normal" font-weight="normal" transform="translate(45.2239,71.9999) rotate(-0,18,-4)" xml:space="preserve">
    <text fill="rgb(38,38,38)" x="0 3 9 12 " y="-0">-0.2</text>
   </g>
   <g font-family="FreeSans" font-size="10" font-style="normal" font-weight="normal" transform="translate(57.2239,40.3381) rotate(-0,6,-4)" xml:space="preserve">
    <text fill="rgb(38,38,38)" x="0 " y="-0">0</text>
   </g>
   <g font-family="FreeSans" font-size="11" font-style="normal" font-weight="bold" transform="translate(203.069,26.3381) rotate(-0,68.5,0)" xml:space="preserve">
    <text fill="rgb(0,0,0)" x="0 8 15 22 28 31 39 42 48 55 59 65 75 78 85 89 92 99 102 110 113 117 120 123 127 133 " y="-3">Bode Diagram of FIR filter</text>
   </g>
   <g font-family="FreeSans" font-size="11" font-style="normal" font-weight="normal" transform="translate(4.22385,115.493) rotate(-90,36,0)" xml:space="preserve">
    <text fill="rgb(38,38,38)" x="0 9 15 21 27 29 32 38 44 50 53 56 62 69 " y="-2">Magnitude [dB]</text>
   </g>
   <polyline fill="none" points="262.756,58.8375 262.756,58.8375 262.757,58.8375 262.757,58.8376 262.757,58.8376 262.757,58.8376 262.758,58.8376 262.758,58.8377 262.759,58.8378 262.76,58.8379 262.762,58.8381 262.763,58.8382 262.763,58.8383 262.764,58.8383 262.765,58.8384 262.766,58.8386 262.767,58.8387 262.77,58.839 262.772,58.8393 262.775,58.8396 262.776,58.8398 262.777,58.8399 262.778,58.84 262.78,58.8401 262.782,58.8404 262.785,58.8408 262.789,58.8412 262.793,58.8417 262.796,58.842 262.798,58.8422 262.799,58.8424 262.801,58.8426 262.803,58.8429 262.808,58.8434 262.813,58.844 262.818,58.8446 262.823,58.8451 262.826,58.8456 262.829,58.8458 262.831,58.8461 262.834,58.8464 262.839,58.847 262.845,58.8477 262.852,58.8485 262.858,58.8493 262.864,58.8499 262.868,58.8504 262.871,58.8507 262.875,58.8512 262.88,58.8518 262.887,58.8526 262.896,58.8536 262.905,58.8546 262.913,58.8555 262.919,58.8563 262.924,58.8569 262.929,58.8574 262.935,58.8581 262.943,58.8591 262.953,58.8603 262.965,58.8616 262.975,58.8628 262.985,58.8639 262.992,58.8648 263,58.8656 263.007,58.8665 263.017,58.8676 263.029,58.869 263.043,58.8706 263.057,58.8722 263.07,58.8737 263.081,58.875 263.092,58.8763 263.102,58.8775 263.114,58.8788 263.128,58.8805 263.145,58.8824 263.163,58.8845 263.18,58.8865 263.197,58.8884 263.212,58.8902 263.226,58.8918 263.242,58.8936 263.26,58.8958 263.28,58.8981 263.303,58.9007 263.325,58.9033 263.348,58.9059 263.37,58.9084 263.391,58.9109 263.414,58.9136 263.439,58.9165 263.467,58.9197 263.498,58.9233 263.531,58.927 263.564,58.9309 263.598,58.9348 263.633,58.9388 263.669,58.943 263.707,58.9474 263.747,58.9521 263.791,58.9571 263.836,58.9623 263.883,58.9678 263.932,58.9734 263.983,58.9794 264.037,58.9856 264.094,58.9922 264.155,58.9992 264.218,59.0066 264.285,59.0143 264.354,59.0222 264.427,59.0307 264.505,59.0397 264.589,59.0495 264.68,59.06 264.777,59.0712 264.879,59.0829 264.984,59.0951 265.094,59.1079 265.211,59.1214 265.338,59.136 265.477,59.1522 265.63,59.1699 265.796,59.1891 265.973,59.2095 266.158,59.2309 266.351,59.2532 266.557,59.2771 266.782,59.3031 267.033,59.332 267.313,59.3645 267.625,59.4006 267.965,59.4399 268.33,59.4821 268.719,59.5271 269.138,59.5756 269.601,59.6291 270.123,59.6895 270.721,59.7586 271.404,59.8377 272.177,59.927 273.038,60.0266 273.993,60.1371 275.059,60.2603 276.268,60.4001 277.669,60.5623 279.322,60.7534 281.287,60.9807 283.625,61.2511 286.4,61.5721 289.697,61.9533 293.645,62.4099 298.449,62.9655 304.417,63.6559 311.997,64.5325 321.812,65.6677 334.736,67.1624 352.021,69.1616 375.541,71.8818 408.232,75.6627 454.94,81.0648 475.324,83.4223" stroke="#ff0000" stroke-linecap="butt" stroke-linejoin="round" stroke-opacity="0" stroke-width="0.5"/>
   <polyline fill="none" points="475.324,83.4223 466.542,82.4066 446.742,80.1166 431.894,78.3994 420.513,77.083 411.644,76.0573 404.691,75.2531 399.277,74.627 395.13,74.1473 392.016,73.7871 389.722,73.5219 388.081,73.3321 386.996,73.2066 386.454,73.1439 386.5,73.1493 387.195,73.2296 388.569,73.3885 390.606,73.6242 393.276,73.9329 396.58,74.3151 400.619,74.7822 405.615,75.3601 411.912,76.0883 419.93,77.0157 430.146,78.1972 443.094,79.6948 459.436,81.5848 475.324,83.4223" stroke="#ff0000" stroke-linecap="butt" stroke-linejoin="round" stroke-opacity="0" stroke-width="0.5"/>
   <polyline fill="none" points="475.324,83.4223 453.405,80.8872 414.308,76.3654 384.51,72.919 361.673,70.2779 344.015,68.2355 330.214,66.6394 319.313,65.3786 310.625,64.3737 303.65,63.567 298.014,62.9153 293.427,62.3847 289.65,61.9479 286.495,61.583 283.817,61.2732 281.516,61.0071 279.529,60.7773 277.818,60.5794 276.353,60.41 275.104,60.2656 274.032,60.1416 273.096,60.0333 272.256,59.9362 271.489,59.8474 270.785,59.766 270.147,59.6923 269.582,59.6269 269.092,59.5702 268.668,59.5212 268.295,59.4781 267.952,59.4384 267.624,59.4005 267.305,59.3636 267.001,59.3285 266.722,59.2961 266.477,59.2678 266.266,59.2434 266.084,59.2224 265.918,59.2032 265.756,59.1844 265.59,59.1653 265.424,59.146 265.264,59.1275 265.12,59.1109 264.997,59.0967 264.895,59.0848 264.804,59.0743 264.717,59.0642 264.625,59.0535 264.527,59.0422 264.427,59.0307 264.334,59.02 264.254,59.0107 264.188,59.0031 264.133,58.9967 264.082,58.9908 264.028,58.9846 263.968,58.9777 263.904,58.9702 263.841,58.9629 263.784,58.9563 263.737,58.9509 263.699,58.9465 263.666,58.9427 263.633,58.9389 263.596,58.9345 263.553,58.9297 263.509,58.9245 263.467,58.9197 263.432,58.9156 263.404,58.9124 263.381,58.9097 263.36,58.9073 263.337,58.9046 263.31,58.9015 263.28,58.898 263.251,58.8946 263.224,58.8916 263.203,58.8891 263.186,58.8872 263.172,58.8855 263.156,58.8837 263.138,58.8817 263.118,58.8793 263.097,58.8768 263.076,58.8745 263.059,58.8724 263.044,58.8708 263.032,58.8694 263.021,58.868 263.008,58.8666 262.994,58.8649 262.978,58.8631 262.963,58.8613 262.949,58.8597 262.937,58.8583 262.926,58.8571 262.917,58.856 262.906,58.8548 262.896,58.8536 262.884,58.8523 262.873,58.851 262.863,58.8498 262.853,58.8487 262.844,58.8477 262.836,58.8466 262.827,58.8456 262.818,58.8446 262.81,58.8436 262.802,58.8427 262.794,58.8419 262.787,58.841 262.78,58.8402 262.772,58.8393 262.764,58.8383 262.756,58.8374 262.749,58.8366 262.743,58.8359 262.738,58.8353 262.733,58.8348 262.728,58.8342 262.722,58.8335 262.714,58.8326 262.706,58.8317 262.699,58.8309 262.694,58.8303 262.691,58.8299 262.689,58.8296 262.686,58.8293 262.681,58.8288 262.674,58.828 262.666,58.8271 262.659,58.8262 262.654,58.8256 262.651,58.8253 262.65,58.8252 262.65,58.8251 262.647,58.8249 262.642,58.8243 262.635,58.8234 262.627,58.8225 262.62,58.8218 262.617,58.8214 262.617,58.8214 262.618,58.8215 262.618,58.8215 262.615,58.8211 262.609,58.8204 262.601,58.8195 262.593,58.8186 262.589,58.8181 262.589,58.8181 262.591,58.8183 262.593,58.8186 262.592,58.8185 262.588,58.818 262.58,58.8171 262.572,58.8161 262.566,58.8154 262.564,58.8152 262.566,58.8155 262.57,58.8159 262.572,58.8161 262.57,58.8159 262.563,58.8151 262.555,58.8141 262.547,58.8133 262.544,58.8128 262.545,58.813 262.549,58.8135 262.553,58.8139 262.553,58.814 262.549,58.8135 262.541,58.8126 262.533,58.8116 262.527,58.8109 262.526,58.8108 262.53,58.8113 262.535,58.8119 262.539,58.8123 262.537,58.8121 262.531,58.8113 262.521,58.8103 262.514,58.8094 262.511,58.8091 262.513,58.8093 262.519,58.81 262.524,58.8106 262.526,58.8108 262.522,58.8103 262.513,58.8094 262.504,58.8083 262.498,58.8076 262.498,58.8076 262.503,58.8082 262.51,58.809 262.514,58.8095 262.513,58.8094 262.507,58.8086 262.497,58.8075 262.489,58.8066 262.486,58.8063 262.49,58.8066 262.497,58.8074 262.503,58.8082 262.505,58.8084 262.501,58.808 262.493,58.807 262.483,58.8059 262.477,58.8052 262.478,58.8053 262.484,58.806 262.492,58.8069 262.497,58.8075 262.496,58.8074 262.489,58.8066 262.48,58.8055 262.471,58.8045 262.469,58.8042 262.473,58.8047 262.481,58.8056 262.488,58.8065 262.491,58.8068 262.487,58.8063 262.478,58.8053 262.468,58.8041 262.462,58.8035 262.463,58.8036 262.47,58.8044 262.479,58.8054 262.485,58.806 262.484,58.806 262.477,58.8051 262.467,58.804 262.459,58.803 262.456,58.8027 262.46,58.8033 262.469,58.8043 262.477,58.8052 262.48,58.8055 262.477,58.8051 262.467,58.804 262.457,58.8029 262.452,58.8022 262.453,58.8024 262.46,58.8032 262.47,58.8043 262.476,58.8051 262.476,58.805 262.468,58.8042 262.458,58.803 262.45,58.802 262.447,58.8017 262.452,58.8023 262.461,58.8034 262.47,58.8044 262.474,58.8048 262.47,58.8043 262.46,58.8032 262.45,58.8021 262.445,58.8014 262.446,58.8016 262.454,58.8025 262.464,58.8036 262.47,58.8044 262.47,58.8044 262.463,58.8036 262.453,58.8024 262.444,58.8014 262.442,58.8011 262.447,58.8017 262.457,58.8029 262.466,58.8039 262.47,58.8043 262.466,58.8039 262.456,58.8028 262.446,58.8016 262.441,58.801 262.443,58.8012 262.451,58.8021 262.461,58.8033 262.468,58.8041 262.468,58.8041 262.461,58.8033 262.45,58.8021 262.442,58.8011 262.44,58.8009 262.445,58.8015 262.455,58.8026 262.465,58.8037" stroke="#ff0000" stroke-linecap="butt" stroke-linejoin="round" stroke-opacity="0" stroke-width="0.5"/>
  </g>
  <clipPath id="cp00524470">
   <polygon points="0,470 524,470 524,0 0,0"/>
  </clipPath>
  <g clip-path="url(#cp00524470)">
   <g font-family="FreeSans" font-size="10" font-style="normal" font-weight="normal" transform="translate(65.2201,434.521) rotate(-0,3,-8)" xml:space="preserve">
    <text fill="rgb(38,38,38)" x="0 " y="-0">0</text>
   </g>
   <g font-family="FreeSans" font-size="10" font-style="normal" font-weight="normal" transform="translate(142.06,434.521) rotate(-0,7.5,-8)" xml:space="preserve">
    <text fill="rgb(38,38,38)" x="0 6 9 " y="-0">0.2</text>
   </g>
   <g font-family="FreeSans" font-size="10" font-style="normal" font-weight="normal" transform="translate(223.399,434.521) rotate(-0,7.5,-8)" xml:space="preserve">
    <text fill="rgb(38,38,38)" x="0 6 9 " y="-0">0.4</text>
   </g>
   <g font-family="FreeSans" font-size="10" font-style="normal" font-weight="normal" transform="translate(304.738,434.521) rotate(-0,7.5,-8)" xml:space="preserve">
    <text fill="rgb(38,38,38)" x="0 6 9 " y="-0">0.6</text>
   </g>
   <g font-family="FreeSans" font-size="10" font-style="normal" font-weight="normal" transform="translate(386.078,434.521) rotate(-0,7.5,-8)" xml:space="preserve">
    <text fill="rgb(38,38,38)" x="0 6 9 " y="-0">0.8</text>
   </g>
   <g font-family="FreeSans" font-size="10" font-style="normal" font-weight="normal" transform="translate(471.917,434.521) rotate(-0,3,-8)" xml:space="preserve">
    <text fill="rgb(38,38,38)" x="0 " y="-0">1</text>
   </g>
   <g font-family="FreeSans" font-size="10" font-style="normal" font-weight="normal" transform="translate(30.2239,423.007) rotate(-0,33,-4)" xml:space="preserve">
    <text fill="rgb(38,38,38)" x="0 3 9 15 21 27 " y="-0">-25000</text>
   </g>
   <g font-family="FreeSans" font-size="10" font-style="normal" font-weight="normal" transform="translate(30.2239,391.345) rotate(-0,33,-4)" xml:space="preserve">
    <text fill="rgb(38,38,38)" x="0 3 9 15 21 27 " y="-0">-20000</text>
   </g>
   <g font-family="FreeSans" font-size="10" font-style="normal" font-weight="normal" transform="translate(30.2239,359.683) rotate(-0,33,-4)" xml:space="preserve">
    <text fill="rgb(38,38,38)" x="0 3 9 15 21 27 " y="-0">-15000</text>
   </g>
   <g font-family="FreeSans" font-size="10" font-style="normal" font-weight="normal" transform="translate(30.2239,328.021) rotate(-0,33,-4)" xml:space="preserve">
    <text fill="rgb(38,38,38)" x="0 3 9 15 21 27 " y="-0">-10000</text>
   </g>
   <g font-family="FreeSans" font-size="10" font-style="normal" font-weight="normal" transform="translate(36.2239,296.359) rotate(-0,27,-4)" xml:space="preserve">
    <text fill="rgb(38,38,38)" x="0 3 9 15 21 " y="-0">-5000</text>
   </g>
   <g font-family="FreeSans" font-size="10" font-style="normal" font-weight="normal" transform="translate(57.2239,264.698) rotate(-0,6,-4)" xml:space="preserve">
    <text fill="rgb(38,38,38)" x="0 " y="-0">0</text>
   </g>
   <g font-family="FreeSans" font-size="11" font-style="normal" font-weight="normal" transform="translate(-4.27615,339.852) rotate(-90,29.5,0)" xml:space="preserve">
    <text fill="rgb(38,38,38)" x="0 7 13 19 24 30 33 37 43 49 55 " y="-3">Phase (deg)</text>
   </g>
   <g font-family="FreeSans" font-size="11" font-style="normal" font-weight="normal" transform="translate(177.069,451.521) rotate(-0,94.5,-12)" xml:space="preserve">
    <text fill="rgb(38,38,38)" x="0 8 14 18 27 33 35 37 42 48 54 57 64 68 74 80 86 92 98 104 109 112 116 122 129 132 136 142 148 151 156 162 171 177 179 185 " y="-3">Normalized Frequency (×π rad/sample)</text>
   </g>
  </g>
 </g>
</svg>
