<?xml version='1.0' encoding='UTF-8' standalone='no'?>
<svg height="320pt" viewBox="0 0 374 320" width="374pt" xmlns="http://www.w3.org/2000/svg" xmlns:xlink="http://www.w3.org/1999/xlink">
 <title>Figure 8</title>
 <desc>
Creator: GL2PS 1.4.2, (C) 1999-2020 C. Geuzaine
For: Octave
CreationDate: Thu Feb 19 11:57:42 2026
</desc>
 <defs/>
 <polygon fill="#ffffff" points="0,0 374,0 374,320 0,320"/>
 <g>
  <polygon fill="#ffffff" points="0,320 374,320 374,0 0,0" shape-rendering="crispEdges"/>
  <clipPath id="cp00374320">
   <polygon points="0,320 374,320 374,0 0,0"/>
  </clipPath>
  <g clip-path="url(#cp00374320)">
   <polygon fill="#ffffff" points="48.7287,285.565 339.226,285.565 339.226,24.0644 48.7287,24.0644" shape-rendering="crispEdges"/>
   <polyline fill="none" points="48.7287,285.565 48.7287,282.666" stroke="#262626" stroke-linecap="butt" stroke-linejoin="miter" stroke-width="0.5"/>
   <polyline fill="none" points="48.7287,24.0644 48.7287,26.9639" stroke="#262626" stroke-linecap="butt" stroke-linejoin="miter" stroke-width="0.5"/>
   <polyline fill="none" points="106.828,285.565 106.828,282.666" stroke="#262626" stroke-linecap="butt" stroke-linejoin="miter" stroke-width="0.5"/>
   <polyline fill="none" points="106.828,24.0644 106.828,26.9639" stroke="#262626" stroke-linecap="butt" stroke-linejoin="miter" stroke-width="0.5"/>
   <polyline fill="none" points="164.928,285.565 164.928,282.666" stroke="#262626" stroke-linecap="butt" stroke-linejoin="miter" stroke-width="0.5"/>
   <polyline fill="none" points="164.928,24.0644 164.928,26.9639" stroke="#262626" stroke-linecap="butt" stroke-linejoin="miter" stroke-width="0.5"/>
   <polyline fill="none" points="223.027,285.565 223.027,282.666" stroke="#262626" stroke-linecap="butt" stroke-linejoin="miter" stroke-width="0.5"/>
   <polyline fill="none" points="223.027,24.0644 223.027,26.9639" stroke="#262626" stroke-linecap="butt" stroke-linejoin="miter" stroke-width="0.5"/>
   <polyline fill="none" points="281.127,285.565 281.127,282.666" stroke="#262626" stroke-linecap="butt" stroke-linejoin="miter" stroke-width="0.5"/>
   <polyline fill="none" points="281.127,24.0644 281.127,26.9639" stroke="#262626" stroke-linecap="butt" stroke-linejoin="miter" stroke-width="0.5"/>
   <polyline fill="none" points="339.226,285.565 339.226,282.666" stroke="#262626" stroke-linecap="butt" stroke-linejoin="miter" stroke-width="0.5"/>
   <polyline fill="none" points="339.226,24.0644 339.226,26.9639" stroke="#262626" stroke-linecap="butt" stroke-linejoin="miter" stroke-width="0.5"/>
   <g font-family="FreeSans" font-size="10" font-style="normal" font-weight="normal" transform="translate(45.7287,301.051) rotate(-0,3,-8)" xml:space="preserve">
    <text fill="rgb(38,38,38)" x="0 " y="-0">0</text>
   </g>
   <g font-family="FreeSans" font-size="10" font-style="normal" font-weight="normal" transform="translate(99.3282,301.051) rotate(-0,7.5,-8)" xml:space="preserve">
    <text fill="rgb(38,38,38)" x="0 6 9 " y="-0">0.2</text>
   </g>
   <g font-family="FreeSans" font-size="10" font-style="normal" font-weight="normal" transform="translate(157.428,301.051) rotate(-0,7.5,-8)" xml:space="preserve">
    <text fill="rgb(38,38,38)" x="0 6 9 " y="-0">0.4</text>
   </g>
   <g font-family="FreeSans" font-size="10" font-style="normal" font-weight="normal" transform="translate(215.527,301.051) rotate(-0,7.5,-8)" xml:space="preserve">
    <text fill="rgb(38,38,38)" x="0 6 9 " y="-0">0.6</text>
   </g>
   <g font-family="FreeSans" font-size="10" font-style="normal" font-weight="normal" transform="translate(273.627,301.051) rotate(-0,7.5,-8)" xml:space="preserve">
    <text fill="rgb(38,38,38)" x="0 6 9 " y="-0">0.8</text>
   </g>
   <g font-family="FreeSans" font-size="10" font-style="normal" font-weight="normal" transform="translate(336.226,301.051) rotate(-0,3,-8)" xml:space="preserve">
    <text fill="rgb(38,38,38)" x="0 " y="-0">1</text>
   </g>
   <polyline fill="none" points="48.7287,285.565 51.6386,285.565" stroke="#262626" stroke-linecap="butt" stroke-linejoin="miter" stroke-width="0.5"/>
   <polyline fill="none" points="339.226,285.565 336.316,285.565" stroke="#262626" stroke-linecap="butt" stroke-linejoin="miter" stroke-width="0.5"/>
   <polyline fill="none" points="48.7287,248.208 51.6386,248.208" stroke="#262626" stroke-linecap="butt" stroke-linejoin="miter" stroke-width="0.5"/>
   <polyline fill="none" points="339.226,248.208 336.316,248.208" stroke="#262626" stroke-linecap="butt" stroke-linejoin="miter" stroke-width="0.5"/>
   <polyline fill="none" points="48.7287,210.851 51.6386,210.851" stroke="#262626" stroke-linecap="butt" stroke-linejoin="miter" stroke-width="0.5"/>
   <polyline fill="none" points="339.226,210.851 336.316,210.851" stroke="#262626" stroke-linecap="butt" stroke-linejoin="miter" stroke-width="0.5"/>
   <polyline fill="none" points="48.7287,173.493 51.6386,173.493" stroke="#262626" stroke-linecap="butt" stroke-linejoin="miter" stroke-width="0.5"/>
   <polyline fill="none" points="339.226,173.493 336.316,173.493" stroke="#262626" stroke-linecap="butt" stroke-linejoin="miter" stroke-width="0.5"/>
   <polyline fill="none" points="48.7287,136.136 51.6386,136.136" stroke="#262626" stroke-linecap="butt" stroke-linejoin="miter" stroke-width="0.5"/>
   <polyline fill="none" points="339.226,136.136 336.316,136.136" stroke="#262626" stroke-linecap="butt" stroke-linejoin="miter" stroke-width="0.5"/>
   <polyline fill="none" points="48.7287,98.7789 51.6386,98.7789" stroke="#262626" stroke-linecap="butt" stroke-linejoin="miter" stroke-width="0.5"/>
   <polyline fill="none" points="339.226,98.7789 336.316,98.7789" stroke="#262626" stroke-linecap="butt" stroke-linejoin="miter" stroke-width="0.5"/>
   <polyline fill="none" points="48.7287,61.4217 51.6386,61.4217" stroke="#262626" stroke-linecap="butt" stroke-linejoin="miter" stroke-width="0.5"/>
   <polyline fill="none" points="339.226,61.4217 336.316,61.4217" stroke="#262626" stroke-linecap="butt" stroke-linejoin="miter" stroke-width="0.5"/>
   <polyline fill="none" points="48.7287,24.0644 51.6386,24.0644" stroke="#262626" stroke-linecap="butt" stroke-linejoin="miter" stroke-width="0.5"/>
   <polyline fill="none" points="339.226,24.0644 336.316,24.0644" stroke="#262626" stroke-linecap="butt" stroke-linejoin="miter" stroke-width="0.5"/>
   <g font-family="FreeSans" font-size="10" font-style="normal" font-weight="normal" transform="translate(37.7201,289.565) rotate(-0,6,-4)" xml:space="preserve">
    <text fill="rgb(38,38,38)" x="0 " y="-0">0</text>
   </g>
   <g font-family="FreeSans" font-size="10" font-style="normal" font-weight="normal" transform="translate(31.7201,252.208) rotate(-0,12,-4)" xml:space="preserve">
    <text fill="rgb(38,38,38)" x="0 6 " y="-0">20</text>
   </g>
   <g font-family="FreeSans" font-size="10" font-style="normal" font-weight="normal" transform="translate(31.7201,214.851) rotate(-0,12,-4)" xml:space="preserve">
    <text fill="rgb(38,38,38)" x="0 6 " y="-0">40</text>
   </g>
   <g font-family="FreeSans" font-size="10" font-style="normal" font-weight="normal" transform="translate(31.7201,177.493) rotate(-0,12,-4)" xml:space="preserve">
    <text fill="rgb(38,38,38)" x="0 6 " y="-0">60</text>
   </g>
   <g font-family="FreeSans" font-size="10" font-style="normal" font-weight="normal" transform="translate(31.7201,140.136) rotate(-0,12,-4)" xml:space="preserve">
    <text fill="rgb(38,38,38)" x="0 6 " y="-0">80</text>
   </g>
   <g font-family="FreeSans" font-size="10" font-style="normal" font-weight="normal" transform="translate(25.7201,102.779) rotate(-0,18,-4)" xml:space="preserve">
    <text fill="rgb(38,38,38)" x="0 6 12 " y="-0">100</text>
   </g>
   <g font-family="FreeSans" font-size="10" font-style="normal" font-weight="normal" transform="translate(25.7201,65.4217) rotate(-0,18,-4)" xml:space="preserve">
    <text fill="rgb(38,38,38)" x="0 6 12 " y="-0">120</text>
   </g>
   <g font-family="FreeSans" font-size="10" font-style="normal" font-weight="normal" transform="translate(25.7201,28.0645) rotate(-0,18,-4)" xml:space="preserve">
    <text fill="rgb(38,38,38)" x="0 6 12 " y="-0">140</text>
   </g>
   <polyline fill="none" points="48.7287,285.565 339.226,285.565" stroke="#262626" stroke-dasharray="16,0" stroke-linecap="square" stroke-linejoin="miter" stroke-width="0.5"/>
   <polyline fill="none" points="48.7287,24.0644 339.226,24.0644" stroke="#262626" stroke-dasharray="16,0" stroke-linecap="square" stroke-linejoin="miter" stroke-width="0.5"/>
   <polyline fill="none" points="48.7287,285.565 48.7287,24.0644" stroke="#262626" stroke-dasharray="16,0" stroke-linecap="square" stroke-linejoin="miter" stroke-width="0.5"/>
   <polyline fill="none" points="339.226,285.565 339.226,24.0644" stroke="#262626" stroke-dasharray="16,0" stroke-linecap="square" stroke-linejoin="miter" stroke-width="0.5"/>
   <g font-family="FreeSans" font-size="11" font-style="normal" font-weight="normal" transform="translate(101.978,318.051) rotate(-0,92,-12)" xml:space="preserve">
    <text fill="rgb(38,38,38)" x="0 8 14 18 27 33 35 37 42 48 54 57 64 68 74 80 86 92 98 104 109 112 116 122 124 127 131 137 143 146 151 157 166 172 174 180 " y="-3">Normalized Frequency (pi rad/sample)</text>
   </g>
   <g font-family="FreeSans" font-size="11" font-style="normal" font-weight="normal" transform="translate(-9.27992,154.815) rotate(-90,30,0)" xml:space="preserve">
    <text fill="rgb(38,38,38)" x="0 8 12 18 24 30 33 41 47 49 55 " y="-3">Group Delay</text>
   </g>
   <g font-family="FreeSans" font-size="11" font-style="normal" font-weight="bold" transform="translate(47.4776,14.0645) rotate(-0,146.5,0)" xml:space="preserve">
    <text fill="rgb(0,0,0)" x="0 8 12 19 26 33 36 44 50 53 59 65 68 75 79 82 89 92 100 103 110 113 116 120 126 130 133 136 143 147 154 160 164 170 176 182 188 191 194 203 206 213 220 227 236 242 250 256 266 276 279 286 " y="-3">Group Delay of FIR Filter, order=241, window=Hamming</text>
   </g>
   <polyline fill="none" points="48.7287,284.285 49.2961,284.285 49.8634,284.285 50.4308,284.284 50.9982,284.284 51.5656,284.283 52.1329,284.282 52.7003,284.28 53.2677,284.279 53.8351,284.277 54.4025,284.276 54.9698,284.274 55.5372,284.271 56.1046,284.269 56.672,284.266 57.2394,284.264 57.8067,284.261 58.3741,284.257 58.9415,284.254 59.5089,284.25 60.0762,284.247 60.6436,284.243 61.211,284.238 61.7784,284.234 62.3458,284.229 62.9131,284.224 63.4805,284.219 64.0479,284.214 64.6153,284.208 65.1827,284.203 65.75,284.197 66.3174,284.19 66.8848,284.184 67.4522,284.177 68.0195,284.17 68.5869,284.163 69.1543,284.155 69.7217,284.148 70.2891,284.139 70.8564,284.131 71.4238,284.123 71.9912,284.114 72.5586,284.104 73.1259,284.095 73.6933,284.085 74.2607,284.075 74.8281,284.065 75.3955,284.054 75.9628,284.043 76.5302,284.031 77.0976,284.02 77.665,284.008 78.2324,283.995 78.7997,283.982 79.3671,283.969 79.9345,283.955 80.5019,283.941 81.0692,283.927 81.6366,283.912 82.204,283.897 82.7714,283.881 83.3388,283.865 83.9061,283.848 84.4735,283.831 85.0409,283.813 85.6083,283.795 86.1757,283.776 86.743,283.757 87.3104,283.737 87.8778,283.716 88.4452,283.695 89.0126,283.674 89.5799,283.651 90.1473,283.628 90.7147,283.605 91.2821,283.58 91.8494,283.555 92.4168,283.529 92.9842,283.503 93.5516,283.475 94.1189,283.447 94.6863,283.418 95.2537,283.388 95.8211,283.357 96.3885,283.325 96.9558,283.292 97.5232,283.258 98.0906,283.223 98.658,283.187 99.2254,283.149 99.7927,283.111 100.36,283.071 100.927,283.03 101.495,282.987 102.062,282.943 102.63,282.897 103.197,282.85 103.764,282.802 104.332,282.751 104.899,282.699 105.467,282.645 106.034,282.589 106.601,282.531 107.169,282.471 107.736,282.409 108.303,282.344 108.871,282.277 109.438,282.207 110.006,282.135 110.573,282.059 111.14,281.981 111.708,281.899 112.275,281.815 112.842,281.726 113.41,281.634 113.977,281.538 114.545,281.438 115.112,281.334 115.679,281.224 116.247,281.11 116.814,280.991 117.381,280.866 117.949,280.735 118.516,280.597 119.084,280.453 119.651,280.302 120.218,280.143 120.786,279.975 121.353,279.799 121.921,279.613 122.488,279.417 123.055,279.209 123.623,278.99 124.19,278.757 124.757,278.511 125.325,278.249 125.892,277.97 126.46,277.673 127.027,277.356 127.594,277.017 128.162,276.654 128.729,276.264 129.296,275.845 129.864,275.393 130.431,274.904 130.999,274.374 131.566,273.799 132.133,273.172 132.701,272.486 133.268,271.735 133.835,270.909 134.403,269.997 134.97,268.987 135.538,267.866 136.105,266.617 136.672,265.221 137.24,263.661 137.807,261.913 138.374,259.957 138.942,257.777 139.509,255.361 140.077,252.717 140.644,249.874 141.211,246.901 141.779,243.917 142.346,241.097 142.914,238.656 143.481,236.821 144.048,235.771 144.616,235.586 145.183,236.217 145.75,237.506 146.318,239.237 146.885,241.192 147.453,243.19 148.02,245.103 148.587,246.857 149.155,248.416 149.722,249.774 150.289,250.939 150.857,251.928 151.424,252.762 151.992,253.462 152.559,254.047 153.126,254.533 153.694,254.936 154.261,255.266 154.828,255.533 155.396,255.743 155.963,255.903 156.531,256.015 157.098,256.085 157.665,256.112 158.233,256.1 158.8,256.047 159.367,255.955 159.935,255.822 160.502,255.647 161.07,255.427 161.637,255.158 162.204,254.834 162.772,254.449 163.339,253.995 163.907,253.461 164.474,252.838 165.041,252.114 165.609,251.279 166.176,250.325 166.743,249.252 167.311,248.066 167.878,246.79 168.446,245.466 169.013,244.161 169.58,242.967 170.148,241.996 170.715,241.368 171.282,241.191 171.85,241.538 172.417,242.424 172.985,243.808 173.552,245.598 174.119,247.675 174.687,249.917 175.254,252.213 175.821,254.478 176.389,256.651 176.956,258.695 177.524,260.592 178.091,262.334 178.658,263.926 179.226,265.374 179.793,266.689 180.36,267.883 180.928,268.967 181.495,269.953 182.063,270.851 182.63,271.67 183.197,272.419 183.765,273.106 184.332,273.736 184.9,274.317 185.467,274.853 186.034,275.348 186.602,275.808 187.169,276.234 187.736,276.631 188.304,277.001 188.871,277.347 189.439,277.671 190.006,277.974 190.573,278.259 191.141,278.526 191.708,278.778 192.275,279.016 192.843,279.24 193.41,279.452 193.978,279.653 194.545,279.843 195.112,280.023 195.68,280.194 196.247,280.357 196.814,280.512 197.382,280.66 197.949,280.8 198.517,280.934 199.084,281.062 199.651,281.185 200.219,281.301 200.786,281.413 201.354,281.521 201.921,281.623 202.488,281.722 203.056,281.816 203.623,281.907 204.19,281.994 204.758,282.078 205.325,282.159 205.893,282.236 206.46,282.311 207.027,282.383 207.595,282.452 208.162,282.519 208.729,282.583 209.297,282.645 209.864,282.705 210.432,282.763 210.999,282.82 211.566,282.874 212.134,282.926 212.701,282.977 213.268,283.026 213.836,283.074 214.403,283.12 214.971,283.164 215.538,283.207 216.105,283.249 216.673,283.29 217.24,283.329 217.807,283.368 218.375,283.405 218.942,283.441 219.51,283.476 220.077,283.51 220.644,283.543 221.212,283.575 221.779,283.607 222.346,283.637 222.914,283.667 223.481,283.696 224.049,283.724 224.616,283.751 225.183,283.778 225.751,283.804 226.318,283.829 226.886,283.853 227.453,283.877 228.02,283.901 228.588,283.924 229.155,283.946 229.722,283.968 230.29,283.989 230.857,284.009 231.425,284.03 231.992,284.049 232.559,284.069 233.127,284.087 233.694,284.106 234.261,284.124 234.829,284.141 235.396,284.158 235.964,284.175 236.531,284.191 237.098,284.207 237.666,284.223 238.233,284.238 238.8,284.253 239.368,284.268 239.935,284.282 240.503,284.296 241.07,284.31 241.637,284.323 242.205,284.336 242.772,284.349 243.339,284.362 243.907,284.374 244.474,284.386 245.042,284.398 245.609,284.41 246.176,284.421 246.744,284.432 247.311,284.443 247.879,284.454 248.446,284.464 249.013,284.475 249.581,284.485 250.148,284.495 250.715,284.504 251.283,284.514 251.85,284.523 252.418,284.532 252.985,284.541 253.552,284.55 254.12,284.559 254.687,284.567 255.254,284.576 255.822,284.584 256.389,284.592 256.957,284.6 257.524,284.607 258.091,284.615 258.659,284.622 259.226,284.63 259.793,284.637 260.361,284.644 260.928,284.651 261.496,284.658 262.063,284.664 262.63,284.671 263.198,284.677 263.765,284.684 264.333,284.69 264.9,284.696 265.467,284.702 266.035,284.708 266.602,284.714 267.169,284.72 267.737,284.725 268.304,284.731 268.872,284.736 269.439,284.741 270.006,284.747 270.574,284.752 271.141,284.757 271.708,284.762 272.276,284.767 272.843,284.771 273.411,284.776 273.978,284.781 274.545,284.785 275.113,284.79 275.68,284.794 276.247,284.799 276.815,284.803 277.382,284.807 277.95,284.811 278.517,284.815 279.084,284.819 279.652,284.823 280.219,284.827 280.786,284.831 281.354,284.834 281.921,284.838 282.489,284.842 283.056,284.845 283.623,284.849 284.191,284.852 284.758,284.855 285.326,284.859 285.893,284.862 286.46,284.865 287.028,284.868 287.595,284.871 288.162,284.874 288.73,284.877 289.297,284.88 289.865,284.883 290.432,284.886 290.999,284.889 291.567,284.891 292.134,284.894 292.701,284.897 293.269,284.899 293.836,284.902 294.404,284.904 294.971,284.907 295.538,284.909 296.106,284.912 296.673,284.914 297.24,284.916 297.808,284.918 298.375,284.921 298.943,284.923 299.51,284.925 300.077,284.927 300.645,284.929 301.212,284.931 301.779,284.933 302.347,284.935 302.914,284.937 303.482,284.939 304.049,284.94 304.616,284.942 305.184,284.944 305.751,284.946 306.319,284.947 306.886,284.949 307.453,284.95 308.021,284.952 308.588,284.953 309.155,284.955 309.723,284.956 310.29,284.958 310.858,284.959 311.425,284.961 311.992,284.962 312.56,284.963 313.127,284.965 313.694,284.966 314.262,284.967 314.829,284.968 315.397,284.969 315.964,284.97 316.531,284.972 317.099,284.973 317.666,284.974 318.233,284.975 318.801,284.976 319.368,284.977 319.936,284.977 320.503,284.978 321.07,284.979 321.638,284.98 322.205,284.981 322.772,284.982 323.34,284.982 323.907,284.983 324.475,284.984 325.042,284.984 325.609,284.985 326.177,284.986 326.744,284.986 327.312,284.987 327.879,284.987 328.446,284.988 329.014,284.988 329.581,284.989 330.148,284.989 330.716,284.99 331.283,284.99 331.851,284.99 332.418,284.991 332.985,284.991 333.553,284.991 334.12,284.991 334.687,284.992 335.255,284.992 335.822,284.992 336.39,284.992 336.957,284.992 337.524,284.992 338.092,284.992 338.659,284.992" stroke="#0071bc" stroke-linecap="butt" stroke-linejoin="round" stroke-width="0.5"/>
   <polyline fill="none" points="48.7287,64.57 49.2961,64.5699 49.8634,64.5698 50.4308,64.5698 50.9982,64.5702 51.5656,64.5711 52.1329,64.5725 52.7003,64.5742 53.2677,64.576 53.8351,64.5776 54.4025,64.5791 54.9698,64.5806 55.5372,64.5824 56.1046,64.5846 56.672,64.5875 57.2394,64.5908 57.8067,64.5942 58.3741,64.5976 58.9415,64.6008 59.5089,64.6039 60.0762,64.6072 60.6436,64.6109 61.211,64.6152 61.7784,64.6201 62.3458,64.6253 62.9131,64.6305 63.4805,64.6356 64.0479,64.6405 64.6153,64.6455 65.1827,64.6508 65.75,64.6567 66.3174,64.6633 66.8848,64.6703 67.4522,64.6776 68.0195,64.6848 68.5869,64.6919 69.1543,64.6988 69.7217,64.7059 70.2891,64.7136 70.8564,64.722 71.4238,64.7311 71.9912,64.7407 72.5586,64.7504 73.1259,64.7598 73.6933,64.7691 74.2607,64.7785 74.8281,64.7882 75.3955,64.7988 75.9628,64.8102 76.5302,64.8223 77.0976,64.8348 77.665,64.8471 78.2324,64.8593 78.7997,64.8714 79.3671,64.8837 79.9345,64.8968 80.5019,64.9109 81.0692,64.9259 81.6366,64.9417 82.204,64.9576 82.7714,64.9732 83.3388,64.9887 83.9061,65.0043 84.4735,65.0205 85.0409,65.0379 85.6083,65.0564 86.1757,65.076 86.743,65.0961 87.3104,65.1161 87.8778,65.136 88.4452,65.1558 89.0126,65.1759 89.5799,65.1972 90.1473,65.22 90.7147,65.2442 91.2821,65.2693 91.8494,65.2948 92.4168,65.32 92.9842,65.3451 93.5516,65.3704 94.1189,65.3966 94.6863,65.4244 95.2537,65.454 95.8211,65.4851 96.3885,65.517 96.9558,65.5491 97.5232,65.5811 98.0906,65.6134 98.658,65.6467 99.2254,65.6819 99.7927,65.7199 100.36,65.7607 100.927,65.8036 101.495,65.8479 102.062,65.8928 102.63,65.9382 103.197,65.9847 103.764,66.0332 104.332,66.0846 104.899,66.1392 105.467,66.1966 106.034,66.2559 106.601,66.3161 107.169,66.3768 107.736,66.4383 108.303,66.5018 108.871,66.5686 109.438,66.6395 110.006,66.7147 110.573,66.7935 111.14,66.8747 111.708,66.9574 112.275,67.0417 112.842,67.1284 113.41,67.2192 113.977,67.3154 114.545,67.4179 115.112,67.5263 115.679,67.6396 116.247,67.7566 116.814,67.8768 117.381,68.0008 117.949,68.1304 118.516,68.2675 119.084,68.4137 119.651,68.5694 120.218,68.7341 120.786,68.9065 121.353,69.0859 121.921,69.2728 122.488,69.4687 123.055,69.6763 123.623,69.8984 124.19,70.1365 124.757,70.3912 125.325,70.6621 125.892,70.9489 126.46,71.2522 127.027,71.5743 127.594,71.9191 128.162,72.2909 128.729,72.6939 129.296,73.131 129.864,73.6042 130.431,74.1158 130.999,74.6687 131.566,75.2682 132.133,75.9217 132.701,76.6384 133.268,77.4281 133.835,78.3008 134.403,79.2664 134.97,80.3358 135.538,81.5214 136.105,82.8382 136.672,84.3026 137.24,85.9303 137.807,87.7328 138.374,89.7141 138.942,91.8684 139.509,94.1775 140.077,96.6099 140.644,99.1178 141.211,101.634 141.779,104.067 142.346,106.301 142.914,108.207 143.481,109.657 144.048,110.554 144.616,110.855 145.183,110.582 145.75,109.816 146.318,108.669 146.885,107.265 147.453,105.719 148.02,104.129 148.587,102.57 149.155,101.102 149.722,99.7643 150.289,98.5769 150.857,97.5441 151.424,96.6567 151.992,95.8981 152.559,95.2512 153.126,94.7026 153.694,94.2435 154.261,93.8686 154.828,93.5719 155.396,93.3452 155.963,93.1781 156.531,93.0597 157.098,92.9827 157.665,92.9444 158.233,92.9469 158.8,92.9941 159.367,93.0895 159.935,93.2339 160.502,93.4261 161.07,93.6657 161.637,93.9551 162.204,94.301 162.772,94.7132 163.339,95.2018 163.907,95.775 164.474,96.4369 165.041,97.1888 165.609,98.0295 166.176,98.956 166.743,99.961 167.311,101.029 167.878,102.129 168.446,103.216 169.013,104.224 169.58,105.079 170.148,105.705 170.715,106.032 171.282,106.008 171.85,105.605 172.417,104.817 172.985,103.667 173.552,102.2 174.119,100.48 174.687,98.5839 175.254,96.588 175.821,94.563 176.389,92.5663 176.956,90.6391 177.524,88.8083 178.091,87.0893 178.658,85.4896 179.226,84.0119 179.793,82.6554 180.36,81.4164 180.928,80.2882 181.495,79.2621 182.063,78.3276 182.63,77.4745 183.197,76.6936 183.765,75.9769 184.332,75.3185 184.9,74.7131 185.467,74.1558 186.034,73.6418 186.602,73.1666 187.169,72.7259 187.736,72.3162 188.304,71.9347 188.871,71.5794 189.439,71.2482 190.006,70.939 190.573,70.6494 191.141,70.3771 191.708,70.1203 192.275,69.8778 192.843,69.6487 193.41,69.4328 193.978,69.2295 194.545,69.0378 195.112,68.8563 195.68,68.6836 196.247,68.5183 196.814,68.3601 197.382,68.2091 197.949,68.0655 198.517,67.9298 199.084,67.8014 199.651,67.6794 200.219,67.5624 200.786,67.4495 201.354,67.34 201.921,67.2342 202.488,67.1329 203.056,67.0367 203.623,66.9457 204.19,66.8593 204.758,66.7765 205.325,66.6959 205.893,66.6169 206.46,66.5396 207.027,66.4647 207.595,66.3931 208.162,66.3254 208.729,66.2614 209.297,66.2002 209.864,66.1407 210.432,66.0818 210.999,66.0233 211.566,65.9658 212.134,65.9104 212.701,65.8579 213.268,65.8088 213.836,65.7625 214.403,65.718 214.971,65.6741 215.538,65.6304 216.105,65.587 216.673,65.5448 217.24,65.5048 217.807,65.4677 218.375,65.4331 218.942,65.4003 219.51,65.368 220.077,65.3353 220.644,65.302 221.212,65.2687 221.779,65.2365 222.346,65.2062 222.914,65.1782 223.481,65.152 224.049,65.1265 224.616,65.1007 225.183,65.074 225.751,65.0468 226.318,65.0199 226.886,64.9944 227.453,64.9708 228.02,64.9492 228.588,64.9287 229.155,64.9082 229.722,64.887 230.29,64.8648 230.857,64.8424 231.425,64.8206 231.992,64.8005 232.559,64.7822 233.127,64.7654 233.694,64.749 234.261,64.7321 234.829,64.7142 235.396,64.6956 235.964,64.677 236.531,64.6595 237.098,64.6438 237.666,64.6295 238.233,64.6162 238.8,64.6027 239.368,64.5883 239.935,64.573 240.503,64.5572 241.07,64.5419 241.637,64.528 242.205,64.5157 242.772,64.5045 243.339,64.4937 243.907,64.4822 244.474,64.4696 245.042,64.4563 245.609,64.443 246.176,64.4306 246.744,64.4196 247.311,64.41 247.879,64.401 248.446,64.3918 249.013,64.3817 249.581,64.3706 250.148,64.3591 250.715,64.348 251.283,64.338 251.85,64.3294 252.418,64.3218 252.985,64.3143 253.552,64.3063 254.12,64.2972 254.687,64.2874 255.254,64.2775 255.822,64.2684 256.389,64.2605 256.957,64.2538 257.524,64.2476 258.091,64.2412 258.659,64.2339 259.226,64.2257 259.793,64.217 260.361,64.2087 260.928,64.2014 261.496,64.1952 262.063,64.1899 262.63,64.1847 263.198,64.1789 263.765,64.1722 264.333,64.1647 264.9,64.1573 265.467,64.1504 266.035,64.1446 266.602,64.1398 267.169,64.1355 267.737,64.1309 268.304,64.1255 268.872,64.1193 269.439,64.1127 270.006,64.1064 270.574,64.1009 271.141,64.0964 271.708,64.0927 272.276,64.089 272.843,64.0847 273.411,64.0797 273.978,64.074 274.545,64.0682 275.113,64.063 275.68,64.0587 276.247,64.0553 276.815,64.0522 277.382,64.0489 277.95,64.0449 278.517,64.0401 279.084,64.035 279.652,64.0302 280.219,64.026 280.786,64.0228 281.354,64.0201 281.921,64.0175 282.489,64.0143 283.056,64.0105 283.623,64.0061 284.191,64.0017 284.758,63.9977 285.326,63.9945 285.893,63.9921 286.46,63.9899 287.028,63.9875 287.595,63.9845 288.162,63.9809 288.73,63.9769 289.297,63.9732 289.865,63.9701 290.432,63.9677 290.999,63.9658 291.567,63.9639 292.134,63.9616 292.701,63.9588 293.269,63.9554 293.836,63.952 294.404,63.949 294.971,63.9467 295.538,63.9449 296.106,63.9434 296.673,63.9416 297.24,63.9394 297.808,63.9367 298.375,63.9337 298.943,63.9309 299.51,63.9286 300.077,63.9269 300.645,63.9256 301.212,63.9243 301.779,63.9226 302.347,63.9205 302.914,63.918 303.482,63.9155 304.049,63.9133 304.616,63.9116 305.184,63.9103 305.751,63.9093 306.319,63.9081 306.886,63.9065 307.453,63.9045 308.021,63.9023 308.588,63.9003 309.155,63.8987 309.723,63.8975 310.29,63.8966 310.858,63.8957 311.425,63.8946 311.992,63.8931 312.56,63.8913 313.127,63.8896 313.694,63.888 314.262,63.8869 314.829,63.8861 315.397,63.8854 315.964,63.8846 316.531,63.8835 317.099,63.8822 317.666,63.8807 318.233,63.8794 318.801,63.8784 319.368,63.8776 319.936,63.8771 320.503,63.8765 321.07,63.8758 321.638,63.8748 322.205,63.8737 322.772,63.8727 323.34,63.8717 323.907,63.8711 324.475,63.8706 325.042,63.8702 325.609,63.8698 326.177,63.8691 326.744,63.8684 327.312,63.8676 327.879,63.8669 328.446,63.8664 329.014,63.866 329.581,63.8658 330.148,63.8655 330.716,63.8651 331.283,63.8647 331.851,63.8642 332.418,63.8638 332.985,63.8634 333.553,63.8632 334.12,63.863 334.687,63.8629 335.255,63.8628 335.822,63.8626 336.39,63.8624 336.957,63.8622 337.524,63.8621 338.092,63.8621 338.659,63.8621" stroke="#d85218" stroke-linecap="butt" stroke-linejoin="round" stroke-width="0.5"/>
   <polyline fill="none" points="48.7287,63.29 49.2961,63.2899 49.8634,63.2894 50.4308,63.2889 50.9982,63.2887 51.5656,63.2888 52.1329,63.2892 52.7003,63.2897 53.2677,63.29 53.8351,63.29 54.4025,63.2897 54.9698,63.2892 55.5372,63.2888 56.1046,63.2886 56.672,63.2889 57.2394,63.2894 57.8067,63.2899 58.3741,63.2901 58.9415,63.2899 59.5089,63.2894 60.0762,63.2888 60.6436,63.2885 61.211,63.2886 61.7784,63.2891 62.3458,63.2896 62.9131,63.29 63.4805,63.29 64.0479,63.2896 64.6153,63.289 65.1827,63.2885 65.75,63.2884 66.3174,63.2887 66.8848,63.2892 67.4522,63.2898 68.0195,63.29 68.5869,63.2898 69.1543,63.2892 69.7217,63.2885 70.2891,63.2881 70.8564,63.2882 71.4238,63.2887 71.9912,63.2894 72.5586,63.2899 73.1259,63.2899 73.6933,63.2893 74.2607,63.2886 74.8281,63.2879 75.3955,63.2877 75.9628,63.288 76.5302,63.2888 77.0976,63.2894 77.665,63.2897 78.2324,63.2894 78.7997,63.2886 79.3671,63.2877 79.9345,63.2871 80.5019,63.2871 81.0692,63.2878 81.6366,63.2886 82.204,63.2892 82.7714,63.2891 83.3388,63.2883 83.9061,63.2872 84.4735,63.2863 85.0409,63.2859 85.6083,63.2862 86.1757,63.287 86.743,63.2878 87.3104,63.288 87.8778,63.2874 88.4452,63.2861 89.0126,63.2847 89.5799,63.2836 90.1473,63.2834 90.7147,63.2839 91.2821,63.2847 91.8494,63.285 92.4168,63.2845 92.9842,63.2829 93.5516,63.2807 94.1189,63.2786 94.6863,63.2773 95.2537,63.2768 95.8211,63.2769 96.3885,63.2769 96.9558,63.276 97.5232,63.274 98.0906,63.2712 98.658,63.2682 99.2254,63.2661 99.7927,63.2656 100.36,63.2664 100.927,63.2682 101.495,63.2699 102.062,63.2708 102.63,63.2706 103.197,63.2701 103.764,63.2699 104.332,63.2708 104.899,63.2733 105.467,63.2767 106.034,63.2801 106.601,63.2823 107.169,63.2828 107.736,63.282 108.303,63.2808 108.871,63.2804 109.438,63.2816 110.006,63.2843 110.573,63.2878 111.14,63.2906 111.708,63.2919 112.275,63.2914 112.842,63.2897 113.41,63.2885 113.977,63.2887 114.545,63.291 115.112,63.2949 115.679,63.299 116.247,63.3017 116.814,63.3025 117.381,63.3015 117.949,63.3 118.516,63.2998 119.084,63.3018 119.651,63.3062 120.218,63.3117 120.786,63.3167 121.353,63.3198 121.921,63.3206 122.488,63.3203 123.055,63.3206 123.623,63.3232 124.19,63.3288 124.757,63.3369 125.325,63.3459 125.892,63.3539 126.46,63.3603 127.027,63.3654 127.594,63.3713 128.162,63.38 128.729,63.3931 129.296,63.4108 129.864,63.4319 130.431,63.4546 130.999,63.4779 131.566,63.5019 132.133,63.5284 132.701,63.5597 133.268,63.5981 133.835,63.6444 134.403,63.6981 134.97,63.7578 135.538,63.8221 136.105,63.8897 136.672,63.9591 137.24,64.0258 137.807,64.0804 138.374,64.1064 138.942,64.0801 139.509,63.9739 140.077,63.7617 140.644,63.4265 141.211,62.9697 141.779,62.419 142.346,61.8329 142.914,61.2981 143.481,60.9131 144.048,60.7602 144.616,60.8758 145.183,61.234 145.75,61.7566 146.318,62.341 146.885,62.8921 147.453,63.344 148.02,63.6667 148.587,63.8623 149.155,63.9539 149.722,63.9733 150.289,63.9505 150.857,63.9067 151.424,63.8533 151.992,63.7947 152.559,63.7328 153.126,63.6709 153.694,63.6145 154.261,63.5696 154.828,63.5395 155.396,63.5232 155.963,63.5156 156.531,63.5102 157.098,63.5024 157.665,63.4918 158.233,63.4816 158.8,63.4765 159.367,63.4798 159.935,63.4913 160.502,63.5084 161.07,63.5276 161.637,63.5477 162.204,63.5698 162.772,63.5972 163.339,63.6316 163.907,63.6714 164.474,63.7102 165.041,63.738 165.609,63.7436 166.176,63.7164 166.743,63.6476 167.311,63.5293 167.878,63.354 168.446,63.1168 169.013,62.8203 169.58,62.4813 170.148,62.1356 170.715,61.8348 171.282,61.6348 171.85,61.5776 172.417,61.6762 172.985,61.91 173.552,62.2329 174.119,62.5907 174.687,62.9357 175.254,63.2358 175.821,63.4756 176.389,63.652 176.956,63.7692 177.524,63.8349 178.091,63.8586 178.658,63.8504 179.226,63.8208 179.793,63.7795 180.36,63.7343 180.928,63.6904 181.495,63.65 182.063,63.6134 182.63,63.5795 183.197,63.5477 183.765,63.5176 184.332,63.4899 184.9,63.4651 185.467,63.4437 186.034,63.4253 186.602,63.4094 187.169,63.3952 187.736,63.3825 188.304,63.3712 188.871,63.3616 189.439,63.3539 190.006,63.3478 190.573,63.3429 191.141,63.3383 191.708,63.3335 192.275,63.3285 192.843,63.3238 193.41,63.3199 193.978,63.3172 194.545,63.3157 195.112,63.3145 195.68,63.313 196.247,63.3105 196.814,63.3072 197.382,63.3036 197.949,63.3006 198.517,63.2989 199.084,63.2986 199.651,63.2989 200.219,63.2989 200.786,63.2979 201.354,63.2956 201.921,63.2925 202.488,63.2897 203.056,63.2879 203.623,63.2877 204.19,63.2885 204.758,63.2894 205.325,63.2895 205.893,63.288 206.46,63.2853 207.027,63.2823 207.595,63.28 208.162,63.2791 208.729,63.2796 209.297,63.2806 209.864,63.2812 210.432,63.2803 210.999,63.2779 211.566,63.2746 212.134,63.2716 212.701,63.2699 213.268,63.2698 213.836,63.2711 214.403,63.2726 214.971,63.2734 215.538,63.2729 216.105,63.2714 216.673,63.2699 217.24,63.2693 217.807,63.2704 218.375,63.2731 218.942,63.2764 219.51,63.2791 220.077,63.2805 220.644,63.2803 221.212,63.2792 221.779,63.2783 222.346,63.2785 222.914,63.2801 223.481,63.2827 224.049,63.2852 224.616,63.2868 225.183,63.2867 225.751,63.2854 226.318,63.2838 226.886,63.2828 227.453,63.2833 228.02,63.2851 228.588,63.2874 229.155,63.2891 229.722,63.2896 230.29,63.2886 230.857,63.2868 231.425,63.2852 231.992,63.2848 232.559,63.2858 233.127,63.2877 233.694,63.2897 234.261,63.2907 234.829,63.2903 235.396,63.2888 235.964,63.2869 236.531,63.2858 237.098,63.286 237.666,63.2875 238.233,63.2895 238.8,63.2909 239.368,63.2912 239.935,63.2901 240.503,63.2883 241.07,63.2868 241.637,63.2863 242.205,63.2871 242.772,63.2888 243.339,63.2906 243.907,63.2914 244.474,63.291 245.042,63.2895 245.609,63.2878 246.176,63.2868 246.744,63.2869 247.311,63.2882 247.879,63.29 248.446,63.2913 249.013,63.2914 249.581,63.2905 250.148,63.2888 250.715,63.2874 251.283,63.287 251.85,63.2877 252.418,63.2892 252.985,63.2908 253.552,63.2915 254.12,63.2911 254.687,63.2898 255.254,63.2882 255.822,63.2873 256.389,63.2874 256.957,63.2885 257.524,63.2901 258.091,63.2913 258.659,63.2914 259.226,63.2905 259.793,63.289 260.361,63.2878 260.928,63.2874 261.496,63.288 262.063,63.2894 262.63,63.2907 263.198,63.2914 263.765,63.291 264.333,63.2898 264.9,63.2884 265.467,63.2876 266.035,63.2877 266.602,63.2887 267.169,63.2901 267.737,63.2911 268.304,63.2913 268.872,63.2904 269.439,63.2891 270.006,63.288 270.574,63.2877 271.141,63.2882 271.708,63.2895 272.276,63.2906 272.843,63.2912 273.411,63.2909 273.978,63.2898 274.545,63.2886 275.113,63.2879 275.68,63.288 276.247,63.2889 276.815,63.2901 277.382,63.2909 277.95,63.291 278.517,63.2903 279.084,63.2892 279.652,63.2882 280.219,63.2879 280.786,63.2885 281.354,63.2895 281.921,63.2905 282.489,63.291 283.056,63.2907 283.623,63.2898 284.191,63.2888 284.758,63.2881 285.326,63.2882 285.893,63.289 286.46,63.29 287.028,63.2907 287.595,63.2908 288.162,63.2902 288.73,63.2892 289.297,63.2885 289.865,63.2882 290.432,63.2886 290.999,63.2895 291.567,63.2903 292.134,63.2907 292.701,63.2905 293.269,63.2897 293.836,63.2889 294.404,63.2884 294.971,63.2885 295.538,63.2891 296.106,63.2899 296.673,63.2905 297.24,63.2906 297.808,63.2901 298.375,63.2893 298.943,63.2887 299.51,63.2885 300.077,63.2888 300.645,63.2895 301.212,63.2902 301.779,63.2905 302.347,63.2903 302.914,63.2897 303.482,63.289 304.049,63.2886 304.616,63.2887 305.184,63.2892 305.751,63.2899 306.319,63.2903 306.886,63.2903 307.453,63.2899 308.021,63.2894 308.588,63.2888 309.155,63.2887 309.723,63.289 310.29,63.2895 310.858,63.29 311.425,63.2903 311.992,63.2901 312.56,63.2896 313.127,63.2892 313.694,63.2889 314.262,63.2889 314.829,63.2893 315.397,63.2898 315.964,63.2901 316.531,63.2901 317.099,63.2898 317.666,63.2894 318.233,63.2891 318.801,63.289 319.368,63.2892 319.936,63.2895 320.503,63.2899 321.07,63.29 321.638,63.2899 322.205,63.2896 322.772,63.2893 323.34,63.2891 323.907,63.2892 324.475,63.2894 325.042,63.2897 325.609,63.2899 326.177,63.2899 326.744,63.2897 327.312,63.2895 327.879,63.2893 328.446,63.2892 329.014,63.2894 329.581,63.2896 330.148,63.2897 330.716,63.2897 331.283,63.2897 331.851,63.2895 332.418,63.2894 332.985,63.2894 333.553,63.2894 334.12,63.2895 334.687,63.2896 335.255,63.2896 335.822,63.2896 336.39,63.2896 336.957,63.2895 337.524,63.2895 338.092,63.2895 338.659,63.2895" stroke="#ecb01f" stroke-linecap="butt" stroke-linejoin="round" stroke-width="0.5"/>
   <polyline fill="none" points="48.7287,63.2907 49.2961,63.2907 49.8634,63.2907 50.4308,63.2907 50.9982,63.2907 51.5656,63.2907 52.1329,63.2907 52.7003,63.2907 53.2677,63.2907 53.8351,63.2907 54.4025,63.2907 54.9698,63.2907 55.5372,63.2907 56.1046,63.2907 56.672,63.2907 57.2394,63.2907 57.8067,63.2907 58.3741,63.2907 58.9415,63.2907 59.5089,63.2907 60.0762,63.2907 60.6436,63.2907 61.211,63.2907 61.7784,63.2907 62.3458,63.2907 62.9131,63.2907 63.4805,63.2907 64.0479,63.2907 64.6153,63.2907 65.1827,63.2907 65.75,63.2907 66.3174,63.2907 66.8848,63.2907 67.4522,63.2907 68.0195,63.2907 68.5869,63.2907 69.1543,63.2907 69.7217,63.2907 70.2891,63.2907 70.8564,63.2907 71.4238,63.2907 71.9912,63.2907 72.5586,63.2907 73.1259,63.2907 73.6933,63.2907 74.2607,63.2907 74.8281,63.2907 75.3955,63.2907 75.9628,63.2907 76.5302,63.2907 77.0976,63.2907 77.665,63.2907 78.2324,63.2907 78.7997,63.2907 79.3671,63.2907 79.9345,63.2907 80.5019,63.2907 81.0692,63.2907 81.6366,63.2907 82.204,63.2907 82.7714,63.2907 83.3388,63.2907 83.9061,63.2907 84.4735,63.2907 85.0409,63.2907 85.6083,63.2907 86.1757,63.2907 86.743,63.2907 87.3104,63.2907 87.8778,63.2907 88.4452,63.2907 89.0126,63.2907 89.5799,63.2907 90.1473,63.2907 90.7147,63.2907 91.2821,63.2907 91.8494,63.2907 92.4168,63.2907 92.9842,63.2907 93.5516,63.2907 94.1189,63.2907 94.6863,63.2907 95.2537,63.2907 95.8211,63.2907 96.3885,63.2907 96.9558,63.2907 97.5232,63.2907 98.0906,63.2907 98.658,63.2907 99.2254,63.2907 99.7927,63.2907 100.36,63.2907 100.927,63.2907 101.495,63.2907 102.062,63.2907 102.63,63.2907 103.197,63.2907 103.764,63.2907 104.332,63.2907 104.899,63.2907 105.467,63.2907 106.034,63.2907 106.601,63.2907 107.169,63.2907 107.736,63.2907 108.303,63.2907 108.871,63.2907 109.438,63.2907 110.006,63.2907 110.573,63.2907 111.14,63.2907 111.708,63.2907 112.275,63.2907 112.842,63.2907 113.41,63.2907 113.977,63.2907 114.545,63.2907 115.112,63.2907 115.679,63.2907 116.247,63.2907 116.814,63.2907 117.381,63.2907 117.949,63.2907 118.516,63.2907 119.084,63.2907 119.651,63.2907 120.218,63.2907 120.786,63.2907 121.353,63.2907 121.921,63.2907 122.488,63.2907 123.055,63.2907 123.623,63.2907 124.19,63.2907 124.757,63.2907 125.325,63.2907 125.892,63.2907 126.46,63.2907 127.027,63.2907 127.594,63.2907 128.162,63.2907 128.729,63.2907 129.296,63.2907 129.864,63.2907 130.431,63.2907 130.999,63.2907 131.566,63.2907 132.133,63.2907 132.701,63.2907 133.268,63.2907 133.835,63.2907 134.403,63.2907 134.97,63.2907 135.538,63.2907 136.105,63.2907 136.672,63.2907 137.24,63.2907 137.807,63.2907 138.374,63.2907 138.942,63.2907 139.509,63.2907 140.077,63.2907 140.644,63.2907 141.211,63.2907 141.779,63.2907 142.346,63.2907 142.914,63.2907 143.481,63.2907 144.048,63.2907 144.616,63.2907 145.183,63.2907 145.75,63.2907 146.318,63.2907 146.885,63.2907 147.453,63.2907 148.02,63.2907 148.587,63.2907 149.155,63.2907 149.722,63.2907 150.289,63.2907 150.857,63.2907 151.424,63.2907 151.992,63.2907 152.559,63.2907 153.126,63.2907 153.694,63.2907 154.261,63.2907 154.828,63.2907 155.396,63.2907 155.963,63.2907 156.531,63.2907 157.098,63.2907 157.665,63.2907 158.233,63.2907 158.8,63.2907 159.367,63.2907 159.935,63.2907 160.502,63.2907 161.07,63.2907 161.637,63.2907 162.204,63.2907 162.772,63.2907 163.339,63.2907 163.907,63.2907 164.474,63.2907 165.041,63.2907 165.609,63.2907 166.176,63.2907 166.743,63.2907 167.311,63.2907 167.878,63.2907 168.446,63.2907 169.013,63.2907 169.58,63.2907 170.148,63.2907 170.715,63.2907 171.282,63.2907 171.85,63.2907 172.417,63.2907 172.985,63.2907 173.552,63.2907 174.119,63.2907 174.687,63.2907 175.254,63.2907 175.821,63.2907 176.389,63.2907 176.956,63.2907 177.524,63.2907 178.091,63.2907 178.658,63.2907 179.226,63.2907 179.793,63.2907 180.36,63.2907 180.928,63.2907 181.495,63.2907 182.063,63.2907 182.63,63.2907 183.197,63.2907 183.765,63.2907 184.332,63.2907 184.9,63.2907 185.467,63.2907 186.034,63.2907 186.602,63.2907 187.169,63.2907 187.736,63.2907 188.304,63.2907 188.871,63.2907 189.439,63.2907 190.006,63.2907 190.573,63.2907 191.141,63.2907 191.708,63.2907 192.275,63.2907 192.843,63.2907 193.41,63.2907 193.978,63.2907 194.545,63.2907 195.112,63.2907 195.68,63.2907 196.247,63.2907 196.814,63.2907 197.382,63.2907 197.949,63.2907 198.517,63.2907 199.084,63.2907 199.651,63.2907 200.219,63.2907 200.786,63.2907 201.354,63.2907 201.921,63.2907 202.488,63.2907 203.056,63.2907 203.623,63.2907 204.19,63.2907 204.758,63.2907 205.325,63.2907 205.893,63.2907 206.46,63.2907 207.027,63.2907 207.595,63.2907 208.162,63.2907 208.729,63.2907 209.297,63.2907 209.864,63.2907 210.432,63.2907 210.999,63.2907 211.566,63.2907 212.134,63.2907 212.701,63.2907 213.268,63.2907 213.836,63.2907 214.403,63.2907 214.971,63.2907 215.538,63.2907 216.105,63.2907 216.673,63.2907 217.24,63.2907 217.807,63.2907 218.375,63.2907 218.942,63.2907 219.51,63.2907 220.077,63.2907 220.644,63.2907 221.212,63.2907 221.779,63.2907 222.346,63.2907 222.914,63.2907 223.481,63.2907 224.049,63.2907 224.616,63.2907 225.183,63.2907 225.751,63.2907 226.318,63.2907 226.886,63.2907 227.453,63.2907 228.02,63.2907 228.588,63.2907 229.155,63.2907 229.722,63.2907 230.29,63.2907 230.857,63.2907 231.425,63.2907 231.992,63.2907 232.559,63.2907 233.127,63.2907 233.694,63.2907 234.261,63.2907 234.829,63.2907 235.396,63.2907 235.964,63.2907 236.531,63.2907 237.098,63.2907 237.666,63.2907 238.233,63.2907 238.8,63.2907 239.368,63.2907 239.935,63.2907 240.503,63.2907 241.07,63.2907 241.637,63.2907 242.205,63.2907 242.772,63.2907 243.339,63.2907 243.907,63.2907 244.474,63.2907 245.042,63.2907 245.609,63.2907 246.176,63.2907 246.744,63.2907 247.311,63.2907 247.879,63.2907 248.446,63.2907 249.013,63.2907 249.581,63.2907 250.148,63.2907 250.715,63.2907 251.283,63.2907 251.85,63.2907 252.418,63.2907 252.985,63.2907 253.552,63.2907 254.12,63.2907 254.687,63.2907 255.254,63.2907 255.822,63.2907 256.389,63.2907 256.957,63.2907 257.524,63.2907 258.091,63.2907 258.659,63.2907 259.226,63.2907 259.793,63.2907 260.361,63.2907 260.928,63.2907 261.496,63.2907 262.063,63.2907 262.63,63.2907 263.198,63.2907 263.765,63.2907 264.333,63.2907 264.9,63.2907 265.467,63.2907 266.035,63.2907 266.602,63.2907 267.169,63.2907 267.737,63.2907 268.304,63.2907 268.872,63.2907 269.439,63.2907 270.006,63.2907 270.574,63.2907 271.141,63.2907 271.708,63.2907 272.276,63.2907 272.843,63.2907 273.411,63.2907 273.978,63.2907 274.545,63.2907 275.113,63.2907 275.68,63.2907 276.247,63.2907 276.815,63.2907 277.382,63.2907 277.95,63.2907 278.517,63.2907 279.084,63.2907 279.652,63.2907 280.219,63.2907 280.786,63.2907 281.354,63.2907 281.921,63.2907 282.489,63.2907 283.056,63.2907 283.623,63.2907 284.191,63.2907 284.758,63.2907 285.326,63.2907 285.893,63.2907 286.46,63.2907 287.028,63.2907 287.595,63.2907 288.162,63.2907 288.73,63.2907 289.297,63.2907 289.865,63.2907 290.432,63.2907 290.999,63.2907 291.567,63.2907 292.134,63.2907 292.701,63.2907 293.269,63.2907 293.836,63.2907 294.404,63.2907 294.971,63.2907 295.538,63.2907 296.106,63.2907 296.673,63.2907 297.24,63.2907 297.808,63.2907 298.375,63.2907 298.943,63.2907 299.51,63.2907 300.077,63.2907 300.645,63.2907 301.212,63.2907 301.779,63.2907 302.347,63.2907 302.914,63.2907 303.482,63.2907 304.049,63.2907 304.616,63.2907 305.184,63.2907 305.751,63.2907 306.319,63.2907 306.886,63.2907 307.453,63.2907 308.021,63.2907 308.588,63.2907 309.155,63.2907 309.723,63.2907 310.29,63.2907 310.858,63.2907 311.425,63.2907 311.992,63.2907 312.56,63.2907 313.127,63.2907 313.694,63.2907 314.262,63.2907 314.829,63.2907 315.397,63.2907 315.964,63.2907 316.531,63.2907 317.099,63.2907 317.666,63.2907 318.233,63.2907 318.801,63.2907 319.368,63.2907 319.936,63.2907 320.503,63.2907 321.07,63.2907 321.638,63.2907 322.205,63.2907 322.772,63.2907 323.34,63.2907 323.907,63.2907 324.475,63.2907 325.042,63.2907 325.609,63.2907 326.177,63.2907 326.744,63.2907 327.312,63.2907 327.879,63.2907 328.446,63.2907 329.014,63.2907 329.581,63.2907 330.148,63.2907 330.716,63.2907 331.283,63.2907 331.851,63.2907 332.418,63.2907 332.985,63.2907 333.553,63.2907 334.12,63.2907 334.687,63.2907 335.255,63.2907 335.822,63.2907 336.39,63.2907 336.957,63.2907 337.524,63.2907 338.092,63.2907 338.659,63.2907" stroke="#7d2e8d" stroke-linecap="butt" stroke-linejoin="round" stroke-width="0.5"/>
   <polyline fill="none" points="77.7785,285.565 79.3382,285.565 80.8979,285.565 82.4576,285.565 84.0173,285.565 85.577,285.564 87.1368,285.564 88.6965,285.563 90.2562,285.563 91.8159,285.562 93.3757,285.561 94.9354,285.559 96.4951,285.558 98.0548,285.556 99.6145,285.554 101.174,285.551 102.734,285.547 104.294,285.543 105.853,285.538 107.413,285.531 108.973,285.523 110.533,285.512 112.092,285.498 113.652,285.481 115.212,285.459 116.771,285.431 118.331,285.393 119.891,285.342 121.451,285.275 123.01,285.188 124.57,285.072 126.13,284.909 127.689,284.706 129.249,284.472 130.809,284.229 132.369,284.014 133.928,283.883 135.488,283.809 137.048,283.772 138.608,283.758 140.167,283.752 141.727,283.746 143.287,283.74 144.846,283.732 146.406,283.724 147.966,283.714 149.526,283.704 151.085,283.695 152.645,283.686 154.205,283.677 155.764,283.67 157.324,283.667 158.884,283.669 160.444,283.684 162.003,283.718 163.563,283.791 165.123,283.925 166.682,284.108 168.242,284.321 169.802,284.544 171.362,284.747 172.921,284.911 174.481,285.045 176.041,285.152 177.601,285.236 179.16,285.3 180.72,285.349 182.28,285.388 183.839,285.42 185.399,285.446 186.959,285.466 188.519,285.482 190.078,285.495 191.638,285.506 193.198,285.516 194.757,285.523 196.317,285.529 197.877,285.535 199.437,285.539 200.996,285.543 202.556,285.546 204.116,285.549 205.675,285.551 207.235,285.553 208.795,285.555 210.355,285.556 211.914,285.558 213.474,285.559 215.034,285.56 216.594,285.561 218.153,285.561 219.713,285.562 221.273,285.562 222.832,285.563 224.392,285.563 225.952,285.564 227.512,285.564 229.071,285.564 230.631,285.564 232.191,285.565 233.75,285.565 235.31,285.565 236.87,285.565 238.43,285.565 239.989,285.565 241.549,285.565 243.109,285.565 244.668,285.565 246.228,285.564 247.788,285.564 249.348,285.564 250.907,285.564 252.467,285.564 254.027,285.564 255.587,285.564 257.146,285.564 258.706,285.564 260.266,285.564 261.825,285.564 263.385,285.564 264.945,285.564 266.505,285.564 268.064,285.564 269.624,285.565 271.184,285.565 272.743,285.565 274.303,285.565 275.863,285.565 277.423,285.565 278.982,285.565 280.542,285.565 282.102,285.565 283.661,285.565 285.221,285.565 286.781,285.565 288.341,285.565 289.9,285.565 291.46,285.565 293.02,285.565 294.579,285.565 296.139,285.565 297.699,285.565 299.259,285.565 300.818,285.565 302.378,285.565 303.938,285.565 305.498,285.565 307.057,285.565 308.617,285.565 310.177,285.565" stroke="#76ab2f" stroke-linecap="butt" stroke-linejoin="round" stroke-width="0.5"/>
  </g>
  <clipPath id="cp00374320">
   <polygon points="0,320 374,320 374,0 0,0"/>
  </clipPath>
  <g clip-path="url(#cp00374320)">
   <polygon fill="#ffffff" points="204.209,277.561 331.223,277.561 331.223,204.551 204.209,204.551" shape-rendering="crispEdges"/>
   <polyline fill="none" points="204.209,277.561 331.223,277.561" stroke="#262626" stroke-dasharray="16,0" stroke-linecap="square" stroke-linejoin="miter" stroke-width="0.5"/>
   <polyline fill="none" points="204.209,204.551 331.223,204.551" stroke="#262626" stroke-dasharray="16,0" stroke-linecap="square" stroke-linejoin="miter" stroke-width="0.5"/>
   <polyline fill="none" points="204.209,277.561 204.209,204.551" stroke="#262626" stroke-dasharray="16,0" stroke-linecap="square" stroke-linejoin="miter" stroke-width="0.5"/>
   <polyline fill="none" points="331.223,277.561 331.223,204.551" stroke="#262626" stroke-dasharray="16,0" stroke-linecap="square" stroke-linejoin="miter" stroke-width="0.5"/>
   <polyline fill="none" points="208.211,213.553 228.219,213.553" stroke="#0071bc" stroke-linecap="butt" stroke-linejoin="round" stroke-width="0.5"/>
   <g font-family="FreeSans" font-size="9" font-style="normal" font-weight="normal" transform="translate(232.221,218.553) rotate(-0,-0,-5)" xml:space="preserve">
    <text fill="rgb(0,0,0)" x="0 3 8 13 18 " y="-2">Input</text>
   </g>
   <polyline fill="none" points="208.211,227.554 228.219,227.554" stroke="#d85218" stroke-linecap="butt" stroke-linejoin="round" stroke-width="0.5"/>
   <g font-family="FreeSans" font-size="9" font-style="normal" font-weight="normal" transform="translate(232.221,232.554) rotate(-0,-0,-5)" xml:space="preserve">
    <text fill="rgb(0,0,0)" x="0 6 11 18 23 28 33 37 42 45 47 52 57 59 64 66 68 71 76 79 81 83 85 87 89 91 93 " y="-2">Compensation Filter        </text>
   </g>
   <polyline fill="none" points="208.211,241.056 228.219,241.056" stroke="#ecb01f" stroke-linecap="butt" stroke-linejoin="round" stroke-width="0.5"/>
   <g font-family="FreeSans" font-size="9" font-style="normal" font-weight="normal" transform="translate(232.221,245.556) rotate(-0,-0,-4.5)" xml:space="preserve">
    <text fill="rgb(0,0,0)" x="0 6 11 18 23 25 30 35 " y="-1">Combined</text>
   </g>
   <polyline fill="none" points="208.211,254.558 228.219,254.558" stroke="#7d2e8d" stroke-linecap="butt" stroke-linejoin="round" stroke-width="0.5"/>
   <g font-family="FreeSans" font-size="9" font-style="normal" font-weight="normal" transform="translate(232.221,259.558) rotate(-0,-0,-5)" xml:space="preserve">
    <text fill="rgb(0,0,0)" x="0 6 11 14 19 24 27 29 36 39 " y="-2">Target Grd</text>
   </g>
   <polyline fill="none" points="208.211,268.56 228.219,268.56" stroke="#76ab2f" stroke-linecap="butt" stroke-linejoin="round" stroke-width="0.5"/>
   <g font-family="FreeSans" font-size="9" font-style="normal" font-weight="normal" transform="translate(232.221,273.56) rotate(-0,-0,-5)" xml:space="preserve">
    <text fill="rgb(0,0,0)" x="0 6 9 12 14 22 27 29 34 39 42 " y="-2">Err Weights</text>
   </g>
  </g>
 </g>
</svg>
