<?xml version='1.0' encoding='UTF-8' standalone='no'?>
<svg height="320pt" viewBox="0 0 374 320" width="374pt" xmlns="http://www.w3.org/2000/svg" xmlns:xlink="http://www.w3.org/1999/xlink">
 <title>Figure 9</title>
 <desc>
Creator: GL2PS 1.4.2, (C) 1999-2020 C. Geuzaine
For: Octave
CreationDate: Thu Feb 19 12:07:31 2026
</desc>
 <defs/>
 <polygon fill="#ffffff" points="0,0 374,0 374,320 0,320"/>
 <g>
  <polygon fill="#ffffff" points="0,320 374,320 374,0 0,0" shape-rendering="crispEdges"/>
  <clipPath id="cp00374320">
   <polygon points="0,320 374,320 374,0 0,0"/>
  </clipPath>
  <g clip-path="url(#cp00374320)">
   <polygon fill="#ffffff" points="48.7287,285.565 339.226,285.565 339.226,24.0645 48.7287,24.0645" shape-rendering="crispEdges"/>
   <polyline fill="none" points="48.7287,285.565 48.7287,282.666" stroke="#262626" stroke-linecap="butt" stroke-linejoin="miter" stroke-width="0.5"/>
   <polyline fill="none" points="48.7287,24.0645 48.7287,26.9639" stroke="#262626" stroke-linecap="butt" stroke-linejoin="miter" stroke-width="0.5"/>
   <polyline fill="none" points="106.828,285.565 106.828,282.666" stroke="#262626" stroke-linecap="butt" stroke-linejoin="miter" stroke-width="0.5"/>
   <polyline fill="none" points="106.828,24.0645 106.828,26.9639" stroke="#262626" stroke-linecap="butt" stroke-linejoin="miter" stroke-width="0.5"/>
   <polyline fill="none" points="164.928,285.565 164.928,282.666" stroke="#262626" stroke-linecap="butt" stroke-linejoin="miter" stroke-width="0.5"/>
   <polyline fill="none" points="164.928,24.0645 164.928,26.9639" stroke="#262626" stroke-linecap="butt" stroke-linejoin="miter" stroke-width="0.5"/>
   <polyline fill="none" points="223.027,285.565 223.027,282.666" stroke="#262626" stroke-linecap="butt" stroke-linejoin="miter" stroke-width="0.5"/>
   <polyline fill="none" points="223.027,24.0645 223.027,26.9639" stroke="#262626" stroke-linecap="butt" stroke-linejoin="miter" stroke-width="0.5"/>
   <polyline fill="none" points="281.127,285.565 281.127,282.666" stroke="#262626" stroke-linecap="butt" stroke-linejoin="miter" stroke-width="0.5"/>
   <polyline fill="none" points="281.127,24.0645 281.127,26.9639" stroke="#262626" stroke-linecap="butt" stroke-linejoin="miter" stroke-width="0.5"/>
   <polyline fill="none" points="339.226,285.565 339.226,282.666" stroke="#262626" stroke-linecap="butt" stroke-linejoin="miter" stroke-width="0.5"/>
   <polyline fill="none" points="339.226,24.0645 339.226,26.9639" stroke="#262626" stroke-linecap="butt" stroke-linejoin="miter" stroke-width="0.5"/>
   <g font-family="FreeSans" font-size="10" font-style="normal" font-weight="normal" transform="translate(45.7287,301.051) rotate(-0,3,-8)" xml:space="preserve">
    <text fill="rgb(38,38,38)" x="0 " y="-0">0</text>
   </g>
   <g font-family="FreeSans" font-size="10" font-style="normal" font-weight="normal" transform="translate(99.3282,301.051) rotate(-0,7.5,-8)" xml:space="preserve">
    <text fill="rgb(38,38,38)" x="0 6 9 " y="-0">0.2</text>
   </g>
   <g font-family="FreeSans" font-size="10" font-style="normal" font-weight="normal" transform="translate(157.428,301.051) rotate(-0,7.5,-8)" xml:space="preserve">
    <text fill="rgb(38,38,38)" x="0 6 9 " y="-0">0.4</text>
   </g>
   <g font-family="FreeSans" font-size="10" font-style="normal" font-weight="normal" transform="translate(215.527,301.051) rotate(-0,7.5,-8)" xml:space="preserve">
    <text fill="rgb(38,38,38)" x="0 6 9 " y="-0">0.6</text>
   </g>
   <g font-family="FreeSans" font-size="10" font-style="normal" font-weight="normal" transform="translate(273.627,301.051) rotate(-0,7.5,-8)" xml:space="preserve">
    <text fill="rgb(38,38,38)" x="0 6 9 " y="-0">0.8</text>
   </g>
   <g font-family="FreeSans" font-size="10" font-style="normal" font-weight="normal" transform="translate(336.226,301.051) rotate(-0,3,-8)" xml:space="preserve">
    <text fill="rgb(38,38,38)" x="0 " y="-0">1</text>
   </g>
   <polyline fill="none" points="48.7287,285.565 51.6386,285.565" stroke="#262626" stroke-linecap="butt" stroke-linejoin="miter" stroke-width="0.5"/>
   <polyline fill="none" points="339.226,285.565 336.316,285.565" stroke="#262626" stroke-linecap="butt" stroke-linejoin="miter" stroke-width="0.5"/>
   <polyline fill="none" points="48.7287,248.208 51.6386,248.208" stroke="#262626" stroke-linecap="butt" stroke-linejoin="miter" stroke-width="0.5"/>
   <polyline fill="none" points="339.226,248.208 336.316,248.208" stroke="#262626" stroke-linecap="butt" stroke-linejoin="miter" stroke-width="0.5"/>
   <polyline fill="none" points="48.7287,210.851 51.6386,210.851" stroke="#262626" stroke-linecap="butt" stroke-linejoin="miter" stroke-width="0.5"/>
   <polyline fill="none" points="339.226,210.851 336.316,210.851" stroke="#262626" stroke-linecap="butt" stroke-linejoin="miter" stroke-width="0.5"/>
   <polyline fill="none" points="48.7287,173.493 51.6386,173.493" stroke="#262626" stroke-linecap="butt" stroke-linejoin="miter" stroke-width="0.5"/>
   <polyline fill="none" points="339.226,173.493 336.316,173.493" stroke="#262626" stroke-linecap="butt" stroke-linejoin="miter" stroke-width="0.5"/>
   <polyline fill="none" points="48.7287,136.136 51.6386,136.136" stroke="#262626" stroke-linecap="butt" stroke-linejoin="miter" stroke-width="0.5"/>
   <polyline fill="none" points="339.226,136.136 336.316,136.136" stroke="#262626" stroke-linecap="butt" stroke-linejoin="miter" stroke-width="0.5"/>
   <polyline fill="none" points="48.7287,98.7789 51.6386,98.7789" stroke="#262626" stroke-linecap="butt" stroke-linejoin="miter" stroke-width="0.5"/>
   <polyline fill="none" points="339.226,98.7789 336.316,98.7789" stroke="#262626" stroke-linecap="butt" stroke-linejoin="miter" stroke-width="0.5"/>
   <polyline fill="none" points="48.7287,61.4216 51.6386,61.4216" stroke="#262626" stroke-linecap="butt" stroke-linejoin="miter" stroke-width="0.5"/>
   <polyline fill="none" points="339.226,61.4216 336.316,61.4216" stroke="#262626" stroke-linecap="butt" stroke-linejoin="miter" stroke-width="0.5"/>
   <polyline fill="none" points="48.7287,24.0645 51.6386,24.0645" stroke="#262626" stroke-linecap="butt" stroke-linejoin="miter" stroke-width="0.5"/>
   <polyline fill="none" points="339.226,24.0645 336.316,24.0645" stroke="#262626" stroke-linecap="butt" stroke-linejoin="miter" stroke-width="0.5"/>
   <g font-family="FreeSans" font-size="10" font-style="normal" font-weight="normal" transform="translate(37.7201,289.565) rotate(-0,6,-4)" xml:space="preserve">
    <text fill="rgb(38,38,38)" x="0 " y="-0">0</text>
   </g>
   <g font-family="FreeSans" font-size="10" font-style="normal" font-weight="normal" transform="translate(28.7201,252.208) rotate(-0,15,-4)" xml:space="preserve">
    <text fill="rgb(38,38,38)" x="0 6 9 " y="-0">0.2</text>
   </g>
   <g font-family="FreeSans" font-size="10" font-style="normal" font-weight="normal" transform="translate(28.7201,214.851) rotate(-0,15,-4)" xml:space="preserve">
    <text fill="rgb(38,38,38)" x="0 6 9 " y="-0">0.4</text>
   </g>
   <g font-family="FreeSans" font-size="10" font-style="normal" font-weight="normal" transform="translate(28.7201,177.493) rotate(-0,15,-4)" xml:space="preserve">
    <text fill="rgb(38,38,38)" x="0 6 9 " y="-0">0.6</text>
   </g>
   <g font-family="FreeSans" font-size="10" font-style="normal" font-weight="normal" transform="translate(28.7201,140.136) rotate(-0,15,-4)" xml:space="preserve">
    <text fill="rgb(38,38,38)" x="0 6 9 " y="-0">0.8</text>
   </g>
   <g font-family="FreeSans" font-size="10" font-style="normal" font-weight="normal" transform="translate(37.7201,102.779) rotate(-0,6,-4)" xml:space="preserve">
    <text fill="rgb(38,38,38)" x="0 " y="-0">1</text>
   </g>
   <g font-family="FreeSans" font-size="10" font-style="normal" font-weight="normal" transform="translate(28.7201,65.4217) rotate(-0,15,-4)" xml:space="preserve">
    <text fill="rgb(38,38,38)" x="0 6 9 " y="-0">1.2</text>
   </g>
   <g font-family="FreeSans" font-size="10" font-style="normal" font-weight="normal" transform="translate(28.7201,28.0645) rotate(-0,15,-4)" xml:space="preserve">
    <text fill="rgb(38,38,38)" x="0 6 9 " y="-0">1.4</text>
   </g>
   <polyline fill="none" points="48.7287,285.565 339.226,285.565" stroke="#262626" stroke-dasharray="16,0" stroke-linecap="square" stroke-linejoin="miter" stroke-width="0.5"/>
   <polyline fill="none" points="48.7287,24.0645 339.226,24.0645" stroke="#262626" stroke-dasharray="16,0" stroke-linecap="square" stroke-linejoin="miter" stroke-width="0.5"/>
   <polyline fill="none" points="48.7287,285.565 48.7287,24.0645" stroke="#262626" stroke-dasharray="16,0" stroke-linecap="square" stroke-linejoin="miter" stroke-width="0.5"/>
   <polyline fill="none" points="339.226,285.565 339.226,24.0645" stroke="#262626" stroke-dasharray="16,0" stroke-linecap="square" stroke-linejoin="miter" stroke-width="0.5"/>
   <g font-family="FreeSans" font-size="11" font-style="normal" font-weight="normal" transform="translate(101.978,318.051) rotate(-0,92,-12)" xml:space="preserve">
    <text fill="rgb(38,38,38)" x="0 8 14 18 27 33 35 37 42 48 54 57 64 68 74 80 86 92 98 104 109 112 116 122 124 127 131 137 143 146 151 157 166 172 174 180 " y="-3">Normalized Frequency (pi rad/sample)</text>
   </g>
   <g font-family="FreeSans" font-size="11" font-style="normal" font-weight="normal" transform="translate(11.2201,154.815) rotate(-90,12.5,0)" xml:space="preserve">
    <text fill="rgb(38,38,38)" x="0 7 11 15 21 " y="-0">Error</text>
   </g>
   <g font-family="FreeSans" font-size="11" font-style="normal" font-weight="bold" transform="translate(7.47757,14.0645) rotate(-0,186.5,0)" xml:space="preserve">
    <text fill="rgb(0,0,0)" x="0 8 12 19 22 25 32 36 40 43 46 49 56 60 67 73 77 83 89 95 101 104 107 117 123 129 136 139 145 149 153 156 160 163 169 173 179 185 188 194 200 206 212 218 224 227 230 240 246 252 259 262 268 272 276 279 288 294 297 304 311 315 321 328 334 340 343 349 355 361 367 " y="-3">Grd. Err., order=241, mean err flat=0.000602, mean err weighted=0.00042</text>
   </g>
   <polyline fill="none" points="48.7287,285.562 49.2961,285.563 49.8634,285.565 50.4308,285.563 50.9982,285.56 51.5656,285.561 52.1329,285.564 52.7003,285.565 53.2677,285.562 53.8351,285.562 54.4025,285.565 54.9698,285.564 55.5372,285.561 56.1046,285.56 56.672,285.563 57.2394,285.565 57.8067,285.563 58.3741,285.561 58.9415,285.563 59.5089,285.565 60.0762,285.563 60.6436,285.559 61.211,285.56 61.7784,285.564 62.3458,285.564 62.9131,285.562 63.4805,285.561 64.0479,285.564 64.6153,285.564 65.1827,285.56 65.75,285.558 66.3174,285.562 66.8848,285.565 67.4522,285.563 68.0195,285.56 68.5869,285.562 69.1543,285.565 69.7217,285.561 70.2891,285.556 70.8564,285.557 71.4238,285.564 71.9912,285.564 72.5586,285.56 73.1259,285.56 73.6933,285.564 74.2607,285.563 74.8281,285.556 75.3955,285.552 75.9628,285.559 76.5302,285.565 77.0976,285.562 77.665,285.557 78.2324,285.561 78.7997,285.565 79.3671,285.558 79.9345,285.548 80.5019,285.55 81.0692,285.562 81.6366,285.564 82.204,285.557 82.7714,285.557 83.3388,285.564 83.9061,285.561 84.4735,285.545 85.0409,285.538 85.6083,285.551 86.1757,285.564 86.743,285.561 87.3104,285.554 87.8778,285.56 88.4452,285.564 89.0126,285.546 89.5799,285.524 90.1473,285.529 90.7147,285.554 91.2821,285.565 91.8494,285.557 92.4168,285.557 92.9842,285.565 93.5516,285.548 94.1189,285.506 94.6863,285.485 95.2537,285.514 95.8211,285.554 96.3885,285.565 96.9558,285.561 97.5232,285.565 98.0906,285.544 98.658,285.468 99.2254,285.392 99.7927,285.399 100.36,285.48 100.927,285.549 101.495,285.565 102.062,285.565 102.63,285.558 103.197,285.504 103.764,285.413 104.332,285.383 104.899,285.457 105.467,285.546 106.034,285.562 106.601,285.543 107.169,285.556 107.736,285.558 108.303,285.481 108.871,285.389 109.438,285.408 110.006,285.514 110.573,285.565 111.14,285.529 111.708,285.519 112.275,285.56 112.842,285.535 113.41,285.41 113.977,285.345 114.545,285.439 115.112,285.554 115.679,285.54 116.247,285.481 116.814,285.516 117.381,285.565 117.949,285.465 118.516,285.307 119.084,285.323 119.651,285.492 120.218,285.562 120.786,285.475 121.353,285.447 121.921,285.542 122.488,285.53 123.055,285.319 123.623,285.187 124.19,285.341 124.757,285.545 125.325,285.52 125.892,285.408 126.46,285.471 127.027,285.565 127.594,285.392 128.162,285.107 128.729,285.133 129.296,285.439 129.864,285.558 130.431,285.376 130.999,285.296 131.566,285.479 132.133,285.551 132.701,285.319 133.268,285.166 133.835,285.369 134.403,285.565 134.97,285.385 135.538,285.121 136.105,285.212 136.672,285.494 137.24,285.55 137.807,285.435 138.374,285.456 138.942,285.56 139.509,285.499 140.077,285.335 140.644,285.284 141.211,285.335 141.779,285.351 142.346,285.274 142.914,285.181 143.481,285.289 144.048,285.535 144.616,285.485 145.183,285.312 145.75,285.517 146.318,285.292 146.885,283.778 147.453,282.6 148.02,283.657 148.587,285.378 149.155,285.162 149.722,284.029 150.289,284.477 150.857,285.544 151.424,284.634 151.992,282.712 152.559,282.862 153.126,284.8 153.694,285.532 154.261,284.657 154.828,284.467 155.396,285.348 155.963,285.383 156.531,284.303 157.098,283.95 157.665,284.836 158.233,285.535 158.8,285.438 159.367,285.352 159.935,285.541 160.502,285.471 161.07,285.199 161.637,285.236 162.204,285.479 162.772,285.565 163.339,285.565 163.907,285.502 164.474,285.189 165.041,284.953 165.609,285.238 166.176,285.562 166.743,285.363 167.311,285.238 167.878,285.544 168.446,285.135 169.013,283.691 169.58,283.205 170.148,284.564 170.715,285.563 171.282,284.981 171.85,284.685 172.417,285.415 172.985,285.283 173.552,283.974 174.119,283.593 174.687,284.682 175.254,285.53 175.821,285.384 176.389,285.188 176.956,285.431 177.524,285.554 178.091,285.31 178.658,285.16 179.226,285.336 179.793,285.539 180.36,285.548 180.928,285.498 181.495,285.521 182.063,285.561 182.63,285.559 183.197,285.549 183.765,285.56 184.332,285.563 184.9,285.548 185.467,285.538 186.034,285.544 186.602,285.552 187.169,285.551 187.736,285.54 188.304,285.517 188.871,285.503 189.439,285.517 190.006,285.546 190.573,285.563 191.141,285.565 191.708,285.564 192.275,285.55 192.843,285.512 193.41,285.485 193.978,285.505 194.545,285.549 195.112,285.565 195.68,285.556 196.247,285.559 196.814,285.563 197.382,285.525 197.949,285.469 198.517,285.468 199.084,285.526 199.651,285.564 200.219,285.554 200.786,285.547 201.354,285.564 201.921,285.546 202.488,285.475 203.056,285.434 203.623,285.481 204.19,285.55 204.758,285.562 205.325,285.543 205.893,285.555 206.46,285.561 207.027,285.501 207.595,285.421 208.162,285.426 208.729,285.508 209.297,285.563 209.864,285.555 210.432,285.551 210.999,285.565 211.566,285.525 212.134,285.42 212.701,285.363 213.268,285.425 213.836,285.526 214.403,285.565 214.971,285.559 215.538,285.564 216.105,285.549 216.673,285.466 217.24,285.382 217.807,285.401 218.375,285.502 218.942,285.563 219.51,285.552 220.077,285.543 220.644,285.563 221.212,285.546 221.779,285.476 222.346,285.442 222.914,285.496 223.481,285.559 224.049,285.553 224.616,285.524 225.183,285.54 225.751,285.565 226.318,285.532 226.886,285.477 227.453,285.486 228.02,285.545 228.588,285.563 229.155,285.529 229.722,285.519 230.29,285.553 230.857,285.56 231.425,285.513 231.992,285.487 232.559,285.525 233.127,285.564 233.694,285.546 234.261,285.515 234.829,285.533 235.396,285.564 235.964,285.544 236.531,285.502 237.098,285.508 237.666,285.553 238.233,285.561 238.8,285.527 239.368,285.519 239.935,285.552 240.503,285.562 241.07,285.526 241.637,285.505 242.205,285.535 242.772,285.565 243.339,285.546 243.907,285.519 244.474,285.535 245.042,285.564 245.609,285.55 246.176,285.516 246.744,285.521 247.311,285.556 247.879,285.561 248.446,285.531 249.013,285.525 249.581,285.553 250.148,285.563 250.715,285.535 251.283,285.518 251.85,285.542 252.418,285.565 252.985,285.548 253.552,285.526 254.12,285.54 254.687,285.564 255.254,285.553 255.822,285.526 256.389,285.531 256.957,285.559 257.524,285.561 258.091,285.537 258.659,285.532 259.226,285.555 259.793,285.564 260.361,285.541 260.928,285.528 261.496,285.547 262.063,285.565 262.63,285.551 263.198,285.534 263.765,285.545 264.333,285.564 264.9,285.556 265.467,285.535 266.035,285.539 266.602,285.56 267.169,285.562 267.737,285.543 268.304,285.539 268.872,285.557 269.439,285.564 270.006,285.547 270.574,285.537 271.141,285.552 271.708,285.565 272.276,285.554 272.843,285.541 273.411,285.55 273.978,285.564 274.545,285.558 275.113,285.542 275.68,285.545 276.247,285.562 276.815,285.562 277.382,285.548 277.95,285.546 278.517,285.559 279.084,285.564 279.652,285.552 280.219,285.544 280.786,285.556 281.354,285.565 281.921,285.557 282.489,285.547 283.056,285.554 283.623,285.564 284.191,285.56 284.758,285.549 285.326,285.551 285.893,285.563 286.46,285.563 287.028,285.553 287.595,285.551 288.162,285.561 288.73,285.564 289.297,285.556 289.865,285.551 290.432,285.558 290.999,285.565 291.567,285.559 292.134,285.553 292.701,285.557 293.269,285.565 293.836,285.561 294.404,285.554 294.971,285.556 295.538,285.563 296.106,285.564 296.673,285.557 297.24,285.556 297.808,285.562 298.375,285.565 298.943,285.559 299.51,285.556 300.077,285.561 300.645,285.565 301.212,285.561 301.779,285.557 302.347,285.56 302.914,285.565 303.482,285.563 304.049,285.558 304.616,285.559 305.184,285.564 305.751,285.564 306.319,285.56 306.886,285.56 307.453,285.564 308.021,285.565 308.588,285.561 309.155,285.56 309.723,285.563 310.29,285.565 310.858,285.563 311.425,285.561 311.992,285.562 312.56,285.565 313.127,285.564 313.694,285.561 314.262,285.562 314.829,285.565 315.397,285.565 315.964,285.562 316.531,285.562 317.099,285.564 317.666,285.565 318.233,285.563 318.801,285.562 319.368,285.564 319.936,285.565 320.503,285.564 321.07,285.563 321.638,285.564 322.205,285.565 322.772,285.564 323.34,285.564 323.907,285.564 324.475,285.565 325.042,285.565 325.609,285.564 326.177,285.564 326.744,285.565 327.312,285.565 327.879,285.564 328.446,285.564 329.014,285.565 329.581,285.565 330.148,285.565 330.716,285.565 331.283,285.565 331.851,285.565 332.418,285.565 332.985,285.565 333.553,285.565 334.12,285.565 334.687,285.565 335.255,285.565 335.822,285.565 336.39,285.565 336.957,285.565 337.524,285.565 338.092,285.565 338.659,285.565" stroke="#0071bc" stroke-linecap="butt" stroke-linejoin="round" stroke-width="0.5"/>
   <polyline fill="none" points="77.7785,285.565 79.3382,285.565 80.8979,285.565 82.4576,285.565 84.0173,285.565 85.577,285.565 87.1368,285.565 88.6965,285.565 90.2562,285.565 91.8159,285.565 93.3757,285.565 94.9354,285.564 96.4951,285.565 98.0548,285.564 99.6145,285.563 101.174,285.565 102.734,285.563 104.294,285.561 105.853,285.565 107.413,285.564 108.973,285.557 110.533,285.565 112.092,285.564 113.652,285.546 115.212,285.564 116.771,285.565 118.331,285.519 119.891,285.559 121.451,285.565 123.01,285.46 124.57,285.531 126.13,285.558 127.689,285.325 129.249,285.423 130.809,285.497 132.369,285.317 133.928,285.339 135.488,285.365 137.048,285.508 138.608,285.416 140.167,285.482 141.727,285.498 143.287,285.444 144.846,285.232 146.406,285.342 147.966,284.116 149.526,284.063 151.085,285.559 152.645,283.713 154.205,284.486 155.764,285.542 157.324,284.662 158.884,285.247 160.444,285.565 162.003,285.511 163.563,285.545 165.123,285.273 166.682,285.372 168.242,285.565 169.802,284.71 171.362,285.228 172.921,285.565 174.481,285.264 176.041,285.474 177.601,285.559 179.16,285.548 180.72,285.55 182.28,285.559 183.839,285.564 185.399,285.557 186.959,285.56 188.519,285.557 190.078,285.56 191.638,285.564 193.198,285.56 194.757,285.562 196.317,285.565 197.877,285.562 199.437,285.563 200.996,285.565 202.556,285.563 204.116,285.563 205.675,285.565 207.235,285.564 208.795,285.564 210.355,285.565 211.914,285.564 213.474,285.564 215.034,285.565 216.594,285.565 218.153,285.564 219.713,285.565 221.273,285.565 222.832,285.565 224.392,285.565 225.952,285.565 227.512,285.565 229.071,285.565 230.631,285.565 232.191,285.565 233.75,285.565 235.31,285.565 236.87,285.565 238.43,285.565 239.989,285.565 241.549,285.565 243.109,285.565 244.668,285.565 246.228,285.565 247.788,285.565 249.348,285.565 250.907,285.565 252.467,285.565 254.027,285.565 255.587,285.565 257.146,285.565 258.706,285.565 260.266,285.565 261.825,285.565 263.385,285.565 264.945,285.565 266.505,285.565 268.064,285.565 269.624,285.565 271.184,285.565 272.743,285.565 274.303,285.565 275.863,285.565 277.423,285.565 278.982,285.565 280.542,285.565 282.102,285.565 283.661,285.565 285.221,285.565 286.781,285.565 288.341,285.565 289.9,285.565 291.46,285.565 293.02,285.565 294.579,285.565 296.139,285.565 297.699,285.565 299.259,285.565 300.818,285.565 302.378,285.565 303.938,285.565 305.498,285.565 307.057,285.565 308.617,285.565 310.177,285.565" stroke="#d85218" stroke-linecap="butt" stroke-linejoin="round" stroke-width="0.5"/>
   <polyline fill="none" points="77.7785,285.528 79.3382,285.541 80.8979,285.555 82.4576,285.55 84.0173,285.523 85.577,285.489 87.1368,285.444 88.6965,285.389 90.2562,285.322 91.8159,285.24 93.3757,285.141 94.9354,285.014 96.4951,284.859 98.0548,284.67 99.6145,284.442 101.174,284.166 102.734,283.808 104.294,283.367 105.853,282.827 107.413,282.164 108.973,281.344 110.533,280.258 112.092,278.888 113.652,277.16 115.212,274.979 116.771,272.188 118.331,268.321 119.891,263.242 121.451,256.566 123.01,247.832 124.57,236.243 126.13,219.993 127.689,199.649 129.249,176.281 130.809,151.93 132.369,130.515 133.928,117.4 135.488,109.921 137.048,106.293 138.608,104.842 140.167,104.237 141.727,103.7 143.287,103.058 144.846,102.296 146.406,101.428 147.966,100.481 149.526,99.5044 151.085,98.5434 152.645,97.6276 154.205,96.7901 155.764,96.0922 157.324,95.7249 158.884,95.9827 160.444,97.4403 162.003,100.9 163.563,108.14 165.123,121.599 166.682,139.878 168.242,161.215 169.802,183.465 171.362,203.718 172.921,220.174 174.481,233.574 176.041,244.271 177.601,252.687 179.16,259.083 180.72,263.976 182.28,267.916 183.839,271.087 185.399,273.643 186.959,275.655 188.519,277.261 190.078,278.595 191.638,279.705 193.198,280.63 194.757,281.383 196.317,282.003 197.877,282.531 199.437,282.981 200.996,283.364 202.556,283.683 204.116,283.952 205.675,284.185 207.235,284.386 208.795,284.56 210.355,284.707 211.914,284.833 213.474,284.942 215.034,285.038 216.594,285.121 218.153,285.192 219.713,285.253 221.273,285.307 222.832,285.354 224.392,285.395 225.952,285.43 227.512,285.46 229.071,285.486 230.631,285.509 232.191,285.529 233.75,285.546 235.31,285.559 236.87,285.557 238.43,285.547 239.989,285.538 241.549,285.53 243.109,285.524 244.668,285.519 246.228,285.515 247.788,285.512 249.348,285.51 250.907,285.508 252.467,285.507 254.027,285.506 255.587,285.506 257.146,285.506 258.706,285.507 260.266,285.508 261.825,285.509 263.385,285.51 264.945,285.512 266.505,285.514 268.064,285.516 269.624,285.518 271.184,285.52 272.743,285.523 274.303,285.525 275.863,285.527 277.423,285.53 278.982,285.532 280.542,285.535 282.102,285.538 283.661,285.54 285.221,285.543 286.781,285.545 288.341,285.548 289.9,285.551 291.46,285.553 293.02,285.556 294.579,285.558 296.139,285.561 297.699,285.563 299.259,285.564 300.818,285.562 302.378,285.56 303.938,285.558 305.498,285.555 307.057,285.553 308.617,285.551 310.177,285.549" stroke="#ecb01f" stroke-linecap="butt" stroke-linejoin="round" stroke-width="0.5"/>
  </g>
  <clipPath id="cp00374320">
   <polygon points="0,320 374,320 374,0 0,0"/>
  </clipPath>
  <g clip-path="url(#cp00374320)">
   <polygon fill="#ffffff" points="225.209,76.4787 331.223,76.4787 331.223,32.068 225.209,32.068" shape-rendering="crispEdges"/>
   <polyline fill="none" points="225.209,76.4787 331.223,76.4787" stroke="#262626" stroke-dasharray="16,0" stroke-linecap="square" stroke-linejoin="miter" stroke-width="0.5"/>
   <polyline fill="none" points="225.209,32.068 331.223,32.068" stroke="#262626" stroke-dasharray="16,0" stroke-linecap="square" stroke-linejoin="miter" stroke-width="0.5"/>
   <polyline fill="none" points="225.209,76.4787 225.209,32.068" stroke="#262626" stroke-dasharray="16,0" stroke-linecap="square" stroke-linejoin="miter" stroke-width="0.5"/>
   <polyline fill="none" points="331.223,76.4787 331.223,32.068" stroke="#262626" stroke-dasharray="16,0" stroke-linecap="square" stroke-linejoin="miter" stroke-width="0.5"/>
   <polyline fill="none" points="229.211,40.2715 249.219,40.2715" stroke="#0071bc" stroke-linecap="butt" stroke-linejoin="round" stroke-width="0.5"/>
   <g font-family="FreeSans" font-size="9" font-style="normal" font-weight="normal" transform="translate(253.221,44.2716) rotate(-0,-0,-4)" xml:space="preserve">
    <text fill="rgb(0,0,0)" x="0 6 9 12 14 19 21 26 " y="-0">Err Flat</text>
   </g>
   <polyline fill="none" points="229.211,53.4752 249.219,53.4752" stroke="#d85218" stroke-linecap="butt" stroke-linejoin="round" stroke-width="0.5"/>
   <g font-family="FreeSans" font-size="9" font-style="normal" font-weight="normal" transform="translate(253.221,58.4751) rotate(-0,-0,-5)" xml:space="preserve">
    <text fill="rgb(0,0,0)" x="0 6 9 12 14 22 27 29 34 39 42 47 52 54 56 58 60 62 64 66 68 70 72 " y="-2">Err Weighted           </text>
   </g>
   <polyline fill="none" points="229.211,67.4769 249.219,67.4769" stroke="#ecb01f" stroke-linecap="butt" stroke-linejoin="round" stroke-width="0.5"/>
   <g font-family="FreeSans" font-size="9" font-style="normal" font-weight="normal" transform="translate(253.221,72.4769) rotate(-0,-0,-5)" xml:space="preserve">
    <text fill="rgb(0,0,0)" x="0 6 9 12 14 22 27 29 34 39 42 " y="-2">Err Weights</text>
   </g>
  </g>
 </g>
</svg>
