<?xml version='1.0' encoding='UTF-8' standalone='no'?>
<svg height="320pt" viewBox="0 0 374 320" width="374pt" xmlns="http://www.w3.org/2000/svg" xmlns:xlink="http://www.w3.org/1999/xlink">
 <title>Figure 8</title>
 <desc>
Creator: GL2PS 1.4.2, (C) 1999-2020 C. Geuzaine
For: Octave
CreationDate: Thu Feb 19 12:09:05 2026
</desc>
 <defs/>
 <polygon fill="#ffffff" points="0,0 374,0 374,320 0,320"/>
 <g>
  <polygon fill="#ffffff" points="0,320 374,320 374,0 0,0" shape-rendering="crispEdges"/>
  <clipPath id="cp00374320">
   <polygon points="0,320 374,320 374,0 0,0"/>
  </clipPath>
  <g clip-path="url(#cp00374320)">
   <polygon fill="#ffffff" points="48.7287,285.565 339.226,285.565 339.226,24.0645 48.7287,24.0645" shape-rendering="crispEdges"/>
   <polyline fill="none" points="48.7287,285.565 48.7287,282.666" stroke="#262626" stroke-linecap="butt" stroke-linejoin="miter" stroke-width="0.5"/>
   <polyline fill="none" points="48.7287,24.0645 48.7287,26.9639" stroke="#262626" stroke-linecap="butt" stroke-linejoin="miter" stroke-width="0.5"/>
   <polyline fill="none" points="106.828,285.565 106.828,282.666" stroke="#262626" stroke-linecap="butt" stroke-linejoin="miter" stroke-width="0.5"/>
   <polyline fill="none" points="106.828,24.0645 106.828,26.9639" stroke="#262626" stroke-linecap="butt" stroke-linejoin="miter" stroke-width="0.5"/>
   <polyline fill="none" points="164.928,285.565 164.928,282.666" stroke="#262626" stroke-linecap="butt" stroke-linejoin="miter" stroke-width="0.5"/>
   <polyline fill="none" points="164.928,24.0645 164.928,26.9639" stroke="#262626" stroke-linecap="butt" stroke-linejoin="miter" stroke-width="0.5"/>
   <polyline fill="none" points="223.027,285.565 223.027,282.666" stroke="#262626" stroke-linecap="butt" stroke-linejoin="miter" stroke-width="0.5"/>
   <polyline fill="none" points="223.027,24.0645 223.027,26.9639" stroke="#262626" stroke-linecap="butt" stroke-linejoin="miter" stroke-width="0.5"/>
   <polyline fill="none" points="281.127,285.565 281.127,282.666" stroke="#262626" stroke-linecap="butt" stroke-linejoin="miter" stroke-width="0.5"/>
   <polyline fill="none" points="281.127,24.0645 281.127,26.9639" stroke="#262626" stroke-linecap="butt" stroke-linejoin="miter" stroke-width="0.5"/>
   <polyline fill="none" points="339.226,285.565 339.226,282.666" stroke="#262626" stroke-linecap="butt" stroke-linejoin="miter" stroke-width="0.5"/>
   <polyline fill="none" points="339.226,24.0645 339.226,26.9639" stroke="#262626" stroke-linecap="butt" stroke-linejoin="miter" stroke-width="0.5"/>
   <g font-family="FreeSans" font-size="10" font-style="normal" font-weight="normal" transform="translate(45.7287,301.051) rotate(-0,3,-8)" xml:space="preserve">
    <text fill="rgb(38,38,38)" x="0 " y="-0">0</text>
   </g>
   <g font-family="FreeSans" font-size="10" font-style="normal" font-weight="normal" transform="translate(99.3282,301.051) rotate(-0,7.5,-8)" xml:space="preserve">
    <text fill="rgb(38,38,38)" x="0 6 9 " y="-0">0.2</text>
   </g>
   <g font-family="FreeSans" font-size="10" font-style="normal" font-weight="normal" transform="translate(157.428,301.051) rotate(-0,7.5,-8)" xml:space="preserve">
    <text fill="rgb(38,38,38)" x="0 6 9 " y="-0">0.4</text>
   </g>
   <g font-family="FreeSans" font-size="10" font-style="normal" font-weight="normal" transform="translate(215.527,301.051) rotate(-0,7.5,-8)" xml:space="preserve">
    <text fill="rgb(38,38,38)" x="0 6 9 " y="-0">0.6</text>
   </g>
   <g font-family="FreeSans" font-size="10" font-style="normal" font-weight="normal" transform="translate(273.627,301.051) rotate(-0,7.5,-8)" xml:space="preserve">
    <text fill="rgb(38,38,38)" x="0 6 9 " y="-0">0.8</text>
   </g>
   <g font-family="FreeSans" font-size="10" font-style="normal" font-weight="normal" transform="translate(336.226,301.051) rotate(-0,3,-8)" xml:space="preserve">
    <text fill="rgb(38,38,38)" x="0 " y="-0">1</text>
   </g>
   <polyline fill="none" points="48.7287,285.565 51.6386,285.565" stroke="#262626" stroke-linecap="butt" stroke-linejoin="miter" stroke-width="0.5"/>
   <polyline fill="none" points="339.226,285.565 336.316,285.565" stroke="#262626" stroke-linecap="butt" stroke-linejoin="miter" stroke-width="0.5"/>
   <polyline fill="none" points="48.7287,233.265 51.6386,233.265" stroke="#262626" stroke-linecap="butt" stroke-linejoin="miter" stroke-width="0.5"/>
   <polyline fill="none" points="339.226,233.265 336.316,233.265" stroke="#262626" stroke-linecap="butt" stroke-linejoin="miter" stroke-width="0.5"/>
   <polyline fill="none" points="48.7287,180.965 51.6386,180.965" stroke="#262626" stroke-linecap="butt" stroke-linejoin="miter" stroke-width="0.5"/>
   <polyline fill="none" points="339.226,180.965 336.316,180.965" stroke="#262626" stroke-linecap="butt" stroke-linejoin="miter" stroke-width="0.5"/>
   <polyline fill="none" points="48.7287,128.665 51.6386,128.665" stroke="#262626" stroke-linecap="butt" stroke-linejoin="miter" stroke-width="0.5"/>
   <polyline fill="none" points="339.226,128.665 336.316,128.665" stroke="#262626" stroke-linecap="butt" stroke-linejoin="miter" stroke-width="0.5"/>
   <polyline fill="none" points="48.7287,76.3645 51.6386,76.3645" stroke="#262626" stroke-linecap="butt" stroke-linejoin="miter" stroke-width="0.5"/>
   <polyline fill="none" points="339.226,76.3645 336.316,76.3645" stroke="#262626" stroke-linecap="butt" stroke-linejoin="miter" stroke-width="0.5"/>
   <polyline fill="none" points="48.7287,24.0645 51.6386,24.0645" stroke="#262626" stroke-linecap="butt" stroke-linejoin="miter" stroke-width="0.5"/>
   <polyline fill="none" points="339.226,24.0645 336.316,24.0645" stroke="#262626" stroke-linecap="butt" stroke-linejoin="miter" stroke-width="0.5"/>
   <g font-family="FreeSans" font-size="10" font-style="normal" font-weight="normal" transform="translate(37.7201,289.565) rotate(-0,6,-4)" xml:space="preserve">
    <text fill="rgb(38,38,38)" x="0 " y="-0">0</text>
   </g>
   <g font-family="FreeSans" font-size="10" font-style="normal" font-weight="normal" transform="translate(31.7201,237.265) rotate(-0,12,-4)" xml:space="preserve">
    <text fill="rgb(38,38,38)" x="0 6 " y="-0">10</text>
   </g>
   <g font-family="FreeSans" font-size="10" font-style="normal" font-weight="normal" transform="translate(31.7201,184.965) rotate(-0,12,-4)" xml:space="preserve">
    <text fill="rgb(38,38,38)" x="0 6 " y="-0">20</text>
   </g>
   <g font-family="FreeSans" font-size="10" font-style="normal" font-weight="normal" transform="translate(31.7201,132.665) rotate(-0,12,-4)" xml:space="preserve">
    <text fill="rgb(38,38,38)" x="0 6 " y="-0">30</text>
   </g>
   <g font-family="FreeSans" font-size="10" font-style="normal" font-weight="normal" transform="translate(31.7201,80.3646) rotate(-0,12,-4)" xml:space="preserve">
    <text fill="rgb(38,38,38)" x="0 6 " y="-0">40</text>
   </g>
   <g font-family="FreeSans" font-size="10" font-style="normal" font-weight="normal" transform="translate(31.7201,28.0645) rotate(-0,12,-4)" xml:space="preserve">
    <text fill="rgb(38,38,38)" x="0 6 " y="-0">50</text>
   </g>
   <polyline fill="none" points="48.7287,285.565 339.226,285.565" stroke="#262626" stroke-dasharray="16,0" stroke-linecap="square" stroke-linejoin="miter" stroke-width="0.5"/>
   <polyline fill="none" points="48.7287,24.0645 339.226,24.0645" stroke="#262626" stroke-dasharray="16,0" stroke-linecap="square" stroke-linejoin="miter" stroke-width="0.5"/>
   <polyline fill="none" points="48.7287,285.565 48.7287,24.0645" stroke="#262626" stroke-dasharray="16,0" stroke-linecap="square" stroke-linejoin="miter" stroke-width="0.5"/>
   <polyline fill="none" points="339.226,285.565 339.226,24.0645" stroke="#262626" stroke-dasharray="16,0" stroke-linecap="square" stroke-linejoin="miter" stroke-width="0.5"/>
   <g font-family="FreeSans" font-size="11" font-style="normal" font-weight="normal" transform="translate(101.978,318.051) rotate(-0,92,-12)" xml:space="preserve">
    <text fill="rgb(38,38,38)" x="0 8 14 18 27 33 35 37 42 48 54 57 64 68 74 80 86 92 98 104 109 112 116 122 124 127 131 137 143 146 151 157 166 172 174 180 " y="-3">Normalized Frequency (pi rad/sample)</text>
   </g>
   <g font-family="FreeSans" font-size="11" font-style="normal" font-weight="normal" transform="translate(-3.27992,154.815) rotate(-90,30,0)" xml:space="preserve">
    <text fill="rgb(38,38,38)" x="0 8 12 18 24 30 33 41 47 49 55 " y="-3">Group Delay</text>
   </g>
   <g font-family="FreeSans" font-size="11" font-style="normal" font-weight="bold" transform="translate(61.9776,14.0645) rotate(-0,132,0)" xml:space="preserve">
    <text fill="rgb(0,0,0)" x="0 8 12 19 26 33 36 44 50 53 59 65 68 75 79 82 89 92 100 103 110 113 116 120 126 130 133 136 143 147 154 160 164 170 176 182 185 188 197 200 207 214 221 230 236 244 251 258 " y="-3">Group Delay of FIR Filter, order=79, window=None</text>
   </g>
   <polyline fill="none" points="48.7287,281.981 49.2961,281.981 49.8634,281.98 50.4308,281.979 50.9982,281.977 51.5656,281.975 52.1329,281.972 52.7003,281.968 53.2677,281.964 53.8351,281.96 54.4025,281.955 54.9698,281.949 55.5372,281.943 56.1046,281.936 56.672,281.929 57.2394,281.921 57.8067,281.913 58.3741,281.904 58.9415,281.894 59.5089,281.884 60.0762,281.874 60.6436,281.862 61.211,281.851 61.7784,281.838 62.3458,281.825 62.9131,281.811 63.4805,281.797 64.0479,281.782 64.6153,281.767 65.1827,281.751 65.75,281.734 66.3174,281.716 66.8848,281.698 67.4522,281.679 68.0195,281.659 68.5869,281.639 69.1543,281.618 69.7217,281.596 70.2891,281.574 70.8564,281.55 71.4238,281.526 71.9912,281.501 72.5586,281.476 73.1259,281.449 73.6933,281.422 74.2607,281.393 74.8281,281.364 75.3955,281.334 75.9628,281.303 76.5302,281.271 77.0976,281.238 77.665,281.204 78.2324,281.169 78.7997,281.133 79.3671,281.096 79.9345,281.058 80.5019,281.019 81.0692,280.978 81.6366,280.936 82.204,280.893 82.7714,280.849 83.3388,280.804 83.9061,280.757 84.4735,280.709 85.0409,280.659 85.6083,280.608 86.1757,280.556 86.743,280.502 87.3104,280.446 87.8778,280.389 88.4452,280.33 89.0126,280.269 89.5799,280.207 90.1473,280.143 90.7147,280.076 91.2821,280.008 91.8494,279.938 92.4168,279.865 92.9842,279.791 93.5516,279.714 94.1189,279.635 94.6863,279.553 95.2537,279.469 95.8211,279.382 96.3885,279.293 96.9558,279.2 97.5232,279.105 98.0906,279.007 98.658,278.905 99.2254,278.801 99.7927,278.693 100.36,278.581 100.927,278.466 101.495,278.346 102.062,278.223 102.63,278.096 103.197,277.964 103.764,277.828 104.332,277.687 104.899,277.541 105.467,277.389 106.034,277.233 106.601,277.07 107.169,276.902 107.736,276.727 108.303,276.546 108.871,276.358 109.438,276.163 110.006,275.96 110.573,275.749 111.14,275.53 111.708,275.302 112.275,275.064 112.842,274.817 113.41,274.559 113.977,274.29 114.545,274.01 115.112,273.717 115.679,273.411 116.247,273.091 116.814,272.757 117.381,272.407 117.949,272.04 118.516,271.655 119.084,271.252 119.651,270.828 120.218,270.382 120.786,269.914 121.353,269.42 121.921,268.899 122.488,268.35 123.055,267.769 123.623,267.154 124.19,266.504 124.757,265.813 125.325,265.08 125.892,264.299 126.46,263.468 127.027,262.58 127.594,261.631 128.162,260.614 128.729,259.523 129.296,258.348 129.864,257.082 130.431,255.714 130.999,254.231 131.566,252.619 132.133,250.864 132.701,248.945 133.268,246.841 133.835,244.527 134.403,241.974 134.97,239.147 135.538,236.007 136.105,232.509 136.672,228.603 137.24,224.233 137.807,219.339 138.374,213.863 138.942,207.758 139.509,200.995 140.077,193.59 140.644,185.629 141.211,177.306 141.779,168.952 142.346,161.054 142.914,154.22 143.481,149.082 144.048,146.143 144.616,145.624 145.183,147.39 145.75,151 146.318,155.847 146.885,161.321 147.453,166.914 148.02,172.271 148.587,177.183 149.155,181.549 149.722,185.35 150.289,188.611 150.857,191.38 151.424,193.716 151.992,195.675 152.559,197.313 153.126,198.676 153.694,199.804 154.261,200.728 154.828,201.474 155.396,202.063 155.963,202.51 156.531,202.826 157.098,203.02 157.665,203.098 158.233,203.062 158.8,202.916 159.367,202.658 159.935,202.286 160.502,201.795 161.07,201.178 161.637,200.424 162.204,199.518 162.772,198.44 163.339,197.168 163.907,195.675 164.474,193.93 165.041,191.903 165.609,189.564 166.176,186.894 166.743,183.888 167.311,180.567 167.878,176.994 168.446,173.288 169.013,169.635 169.58,166.29 170.148,163.571 170.715,161.813 171.282,161.319 171.85,162.289 172.417,164.77 172.985,168.645 173.552,173.657 174.119,179.474 174.687,185.75 175.254,192.179 175.821,198.52 176.389,204.605 176.956,210.329 177.524,215.639 178.091,220.519 178.658,224.975 179.226,229.03 179.793,232.712 180.36,236.055 180.928,239.091 181.495,241.851 182.063,244.365 182.63,246.659 183.197,248.757 183.765,250.679 184.332,252.445 184.9,254.071 185.467,255.571 186.034,256.959 186.602,258.245 187.169,259.439 187.736,260.551 188.304,261.587 188.871,262.555 189.439,263.461 190.006,264.31 190.573,265.107 191.141,265.856 191.708,266.562 192.275,267.227 192.843,267.855 193.41,268.449 193.978,269.011 194.545,269.543 195.112,270.048 195.68,270.527 196.247,270.983 196.814,271.417 197.382,271.83 197.949,272.223 198.517,272.599 199.084,272.957 199.651,273.3 200.219,273.627 200.786,273.941 201.354,274.241 201.921,274.528 202.488,274.804 203.056,275.069 203.623,275.323 204.19,275.567 204.758,275.801 205.325,276.027 205.893,276.244 206.46,276.453 207.027,276.654 207.595,276.848 208.162,277.035 208.729,277.216 209.297,277.39 209.864,277.558 210.432,277.721 210.999,277.878 211.566,278.03 212.134,278.176 212.701,278.318 213.268,278.456 213.836,278.589 214.403,278.718 214.971,278.843 215.538,278.964 216.105,279.081 216.673,279.195 217.24,279.306 217.807,279.413 218.375,279.517 218.942,279.618 219.51,279.716 220.077,279.812 220.644,279.904 221.212,279.994 221.779,280.082 222.346,280.167 222.914,280.25 223.481,280.331 224.049,280.41 224.616,280.486 225.183,280.561 225.751,280.633 226.318,280.704 226.886,280.773 227.453,280.84 228.02,280.905 228.588,280.969 229.155,281.031 229.722,281.092 230.29,281.152 230.857,281.209 231.425,281.266 231.992,281.321 232.559,281.375 233.127,281.427 233.694,281.479 234.261,281.529 234.829,281.578 235.396,281.626 235.964,281.673 236.531,281.719 237.098,281.763 237.666,281.807 238.233,281.85 238.8,281.892 239.368,281.933 239.935,281.973 240.503,282.012 241.07,282.051 241.637,282.088 242.205,282.125 242.772,282.161 243.339,282.196 243.907,282.231 244.474,282.265 245.042,282.298 245.609,282.33 246.176,282.362 246.744,282.393 247.311,282.424 247.879,282.454 248.446,282.483 249.013,282.512 249.581,282.541 250.148,282.568 250.715,282.595 251.283,282.622 251.85,282.648 252.418,282.674 252.985,282.699 253.552,282.724 254.12,282.748 254.687,282.772 255.254,282.795 255.822,282.818 256.389,282.84 256.957,282.862 257.524,282.884 258.091,282.905 258.659,282.926 259.226,282.947 259.793,282.967 260.361,282.986 260.928,283.006 261.496,283.025 262.063,283.044 262.63,283.062 263.198,283.08 263.765,283.098 264.333,283.115 264.9,283.132 265.467,283.149 266.035,283.166 266.602,283.182 267.169,283.198 267.737,283.214 268.304,283.229 268.872,283.244 269.439,283.259 270.006,283.274 270.574,283.288 271.141,283.302 271.708,283.316 272.276,283.33 272.843,283.343 273.411,283.356 273.978,283.369 274.545,283.382 275.113,283.395 275.68,283.407 276.247,283.419 276.815,283.431 277.382,283.443 277.95,283.454 278.517,283.465 279.084,283.477 279.652,283.488 280.219,283.498 280.786,283.509 281.354,283.519 281.921,283.529 282.489,283.54 283.056,283.549 283.623,283.559 284.191,283.569 284.758,283.578 285.326,283.587 285.893,283.596 286.46,283.605 287.028,283.614 287.595,283.623 288.162,283.631 288.73,283.639 289.297,283.648 289.865,283.656 290.432,283.664 290.999,283.671 291.567,283.679 292.134,283.686 292.701,283.694 293.269,283.701 293.836,283.708 294.404,283.715 294.971,283.722 295.538,283.729 296.106,283.735 296.673,283.742 297.24,283.748 297.808,283.754 298.375,283.761 298.943,283.767 299.51,283.773 300.077,283.778 300.645,283.784 301.212,283.79 301.779,283.795 302.347,283.8 302.914,283.806 303.482,283.811 304.049,283.816 304.616,283.821 305.184,283.826 305.751,283.831 306.319,283.835 306.886,283.84 307.453,283.844 308.021,283.849 308.588,283.853 309.155,283.857 309.723,283.861 310.29,283.865 310.858,283.869 311.425,283.873 311.992,283.877 312.56,283.88 313.127,283.884 313.694,283.887 314.262,283.891 314.829,283.894 315.397,283.897 315.964,283.9 316.531,283.903 317.099,283.906 317.666,283.909 318.233,283.912 318.801,283.915 319.368,283.917 319.936,283.92 320.503,283.922 321.07,283.925 321.638,283.927 322.205,283.929 322.772,283.931 323.34,283.934 323.907,283.936 324.475,283.938 325.042,283.939 325.609,283.941 326.177,283.943 326.744,283.945 327.312,283.946 327.879,283.948 328.446,283.949 329.014,283.95 329.581,283.952 330.148,283.953 330.716,283.954 331.283,283.955 331.851,283.956 332.418,283.957 332.985,283.958 333.553,283.958 334.12,283.959 334.687,283.96 335.255,283.96 335.822,283.961 336.39,283.961 336.957,283.961 337.524,283.962 338.092,283.962 338.659,283.962" stroke="#0071bc" stroke-linecap="butt" stroke-linejoin="round" stroke-width="0.5"/>
   <polyline fill="none" points="48.7287,81.8757 49.2961,82.123 49.8634,82.8512 50.4308,84.0187 50.9982,85.559 51.5656,87.3839 52.1329,89.3879 52.7003,91.4538 53.2677,93.4591 53.8351,95.2831 54.4025,96.8147 54.9698,97.9602 55.5372,98.6505 56.1046,98.8461 56.672,98.54 57.2394,97.7577 57.8067,96.5535 58.3741,95.0056 58.9415,93.2092 59.5089,91.27 60.0762,89.298 60.6436,87.4025 61.211,85.687 61.7784,84.2458 62.3458,83.1602 62.9131,82.4942 63.4805,82.2909 64.0479,82.5692 64.6153,83.3202 65.1827,84.5068 65.75,86.0634 66.3174,87.8986 66.8848,89.9008 67.4522,91.9446 68.0195,93.9001 68.5869,95.6428 69.1543,97.0637 69.7217,98.0781 70.2891,98.6317 70.8564,98.7041 71.4238,98.3081 71.9912,97.4855 72.5586,96.3012 73.1259,94.8363 73.6933,93.1812 74.2607,91.43 74.8281,89.6763 75.3955,88.0106 75.9628,86.5182 76.5302,85.2771 77.0976,84.3561 77.665,83.8119 78.2324,83.6848 78.7997,83.9948 79.3671,84.7372 79.9345,85.8791 80.5019,87.3582 81.0692,89.0851 81.6366,90.9478 82.204,92.821 82.7714,94.5772 83.3388,96.0988 83.9061,97.2901 84.4735,98.0852 85.0409,98.453 85.6083,98.3963 86.1757,97.9476 86.743,97.162 87.3104,96.1092 87.8778,94.866 88.4452,93.5109 89.0126,92.1193 89.5799,90.7625 90.1473,89.5063 90.7147,88.4111 91.2821,87.5314 91.8494,86.9153 92.4168,86.6026 92.9842,86.6212 93.5516,86.9834 94.1189,87.6816 94.6863,88.6836 95.2537,89.9319 95.8211,91.3446 96.3885,92.8218 96.9558,94.2553 97.5232,95.5407 98.0906,96.5906 98.658,97.3443 99.2254,97.7735 99.7927,97.882 100.36,97.7009 100.927,97.2812 101.495,96.6848 102.062,95.9772 102.63,95.2212 103.197,94.4738 103.764,93.7847 104.332,93.1953 104.899,92.7396 105.467,92.4443 106.034,92.3289 106.601,92.405 107.169,92.6749 107.736,93.1293 108.303,93.7449 108.871,94.4835 109.438,95.2913 110.006,96.1026 110.573,96.8465 111.14,97.4563 111.708,97.8806 112.275,98.0923 112.842,98.094 113.41,97.9168 113.977,97.6145 114.545,97.254 115.112,96.9061 115.679,96.6373 116.247,96.5052 116.814,96.5561 117.381,96.8253 117.949,97.3379 118.516,98.1098 119.084,99.1482 119.651,100.45 120.218,101.999 120.786,103.763 121.353,105.686 121.921,107.682 122.488,109.633 123.055,111.386 123.623,112.767 124.19,113.597 124.757,113.728 125.325,113.076 125.892,111.659 126.46,109.602 127.027,107.129 127.594,104.528 128.162,102.101 128.729,100.121 129.296,98.8074 129.864,98.309 130.431,98.7142 130.999,100.064 131.566,102.37 132.133,105.635 132.701,109.861 133.268,115.058 133.835,121.241 134.403,128.417 134.97,136.558 135.538,145.559 136.105,155.182 136.672,164.997 137.24,174.351 137.807,182.408 138.374,188.318 138.942,191.465 139.509,191.714 140.077,189.483 140.644,185.598 141.211,181.04 141.779,176.713 142.346,173.33 142.914,171.402 143.481,171.284 144.048,173.228 144.616,177.401 145.183,183.869 145.75,192.498 146.318,202.791 146.885,213.669 147.453,223.371 148.02,229.723 148.587,230.921 149.155,226.461 149.722,217.435 150.289,205.899 150.857,193.916 151.424,182.97 151.992,173.872 152.559,166.946 153.126,162.233 153.694,159.646 154.261,159.051 154.828,160.293 155.396,163.182 155.963,167.465 156.531,172.769 157.098,178.555 157.665,184.11 158.233,188.612 158.8,191.292 159.367,191.654 159.935,189.652 160.502,185.707 161.07,180.553 161.637,175.02 162.204,169.849 162.772,165.608 163.339,162.687 163.907,161.34 164.474,161.727 165.041,163.952 165.609,168.06 166.176,174.021 166.743,181.653 167.311,190.527 167.878,199.848 168.446,208.416 169.013,214.78 169.58,217.66 170.148,216.467 170.715,211.596 171.282,204.22 171.85,195.787 172.417,187.549 172.985,180.363 173.552,174.689 174.119,170.7 174.687,168.382 175.254,167.602 175.821,168.14 176.389,169.69 176.956,171.851 177.524,174.123 178.091,175.932 178.658,176.698 179.226,175.94 179.793,173.389 180.36,169.052 180.928,163.199 181.495,156.271 182.063,148.766 182.63,141.144 183.197,133.764 183.765,126.886 184.332,120.674 184.9,115.227 185.467,110.599 186.034,106.82 186.602,103.903 187.169,101.848 187.736,100.639 188.304,100.239 188.871,100.582 189.439,101.563 190.006,103.04 190.573,104.832 191.141,106.733 191.708,108.532 192.275,110.035 192.843,111.091 193.41,111.607 193.978,111.557 194.545,110.977 195.112,109.948 195.68,108.579 196.247,106.989 196.814,105.291 197.382,103.583 197.949,101.943 198.517,100.433 199.084,99.0959 199.651,97.9596 200.219,97.0403 200.786,96.3438 201.354,95.867 201.921,95.5974 202.488,95.5142 203.056,95.5872 203.623,95.778 204.19,96.0411 204.758,96.3268 205.325,96.5854 205.893,96.7724 206.46,96.8532 207.027,96.8077 207.595,96.632 208.162,96.3377 208.729,95.9495 209.297,95.5005 209.864,95.0275 210.432,94.5662 210.999,94.1486 211.566,93.7998 212.134,93.5377 212.701,93.3724 213.268,93.3064 213.836,93.3357 214.403,93.4496 214.971,93.6318 215.538,93.8606 216.105,94.1099 216.673,94.3503 217.24,94.5504 217.807,94.6792 218.375,94.7089 218.942,94.6177 219.51,94.3928 220.077,94.0332 220.644,93.5502 221.212,92.9678 221.779,92.3201 222.346,91.648 222.914,90.9954 223.481,90.4044 224.049,89.9118 224.616,89.5463 225.183,89.3271 225.751,89.2635 226.318,89.3549 226.886,89.5926 227.453,89.9599 228.02,90.4342 228.588,90.9876 229.155,91.5879 229.722,92.1996 230.29,92.7853 230.857,93.3066 231.425,93.7268 231.992,94.0122 232.559,94.1354 233.127,94.0778 233.694,93.8322 234.261,93.404 234.829,92.8125 235.396,92.0897 235.964,91.2781 236.531,90.4275 237.098,89.5907 237.666,88.8194 238.233,88.1598 238.8,87.6497 239.368,87.3161 239.935,87.1742 240.503,87.2274 241.07,87.4679 241.637,87.8778 242.205,88.4306 242.772,89.093 243.339,89.8263 243.907,90.5883 244.474,91.3347 245.042,92.0216 245.609,92.607 246.176,93.0533 246.744,93.3298 247.311,93.4152 247.879,93.2992 248.446,92.984 249.013,92.485 249.581,91.8296 250.148,91.0562 250.715,90.2113 251.283,89.3456 251.85,88.5113 252.418,87.7576 252.985,87.1281 253.552,86.6577 254.12,86.3709 254.687,86.2807 255.254,86.3885 255.822,86.6842 256.389,87.1475 256.957,87.7491 257.524,88.4524 258.091,89.2156 258.659,89.9937 259.226,90.741 259.793,91.4131 260.361,91.9698 260.928,92.3771 261.496,92.6097 262.063,92.6525 262.63,92.5021 263.198,92.1666 263.765,91.666 264.333,91.03 264.9,90.2968 265.467,89.5101 266.035,88.7161 266.602,87.9613 267.169,87.2887 267.737,86.7359 268.304,86.3332 268.872,86.1012 269.439,86.0507 270.006,86.1818 270.574,86.4839 271.141,86.9372 271.708,87.5128 272.276,88.1754 272.843,88.8846 273.411,89.5976 273.978,90.2716 274.545,90.8664 275.113,91.3468 275.68,91.6845 276.247,91.8605 276.815,91.8657 277.382,91.7013 277.95,91.379 278.517,90.9196 279.084,90.3515 279.652,89.7092 280.219,89.0306 280.786,88.3548 281.354,87.7203 281.921,87.1622 282.489,86.711 283.056,86.3908 283.623,86.2179 284.191,86.2001 284.758,86.3363 285.326,86.6162 285.893,87.0215 286.46,87.5262 287.028,88.0986 287.595,88.7031 288.162,89.3024 288.73,89.8601 289.297,90.3427 289.865,90.722 290.432,90.9769 290.999,91.0945 291.567,91.0706 292.134,90.9099 292.701,90.6247 293.269,90.2347 293.836,89.7648 294.404,89.2435 294.971,88.7014 295.538,88.1693 296.106,87.6768 296.673,87.2505 297.24,86.9131 297.808,86.6819 298.375,86.5684 298.943,86.5771 299.51,86.7055 300.077,86.9441 300.645,87.2769 301.212,87.682 301.779,88.1335 302.347,88.6027 302.914,89.0602 303.482,89.4777 304.049,89.8306 304.616,90.0988 305.184,90.2683 305.751,90.3322 306.319,90.2899 306.886,90.1478 307.453,89.9176 308.021,89.6158 308.588,89.2622 309.155,88.8785 309.723,88.487 310.29,88.1099 310.858,87.7675 311.425,87.4779 311.992,87.2557 312.56,87.1119 313.127,87.0526 313.694,87.0793 314.262,87.1886 314.829,87.3718 315.397,87.6163 315.964,87.9056 316.531,88.2206 317.099,88.541 317.666,88.8465 318.233,89.1187 318.801,89.3417 319.368,89.5039 319.936,89.598 320.503,89.6213 321.07,89.5759 321.638,89.4679 322.205,89.3067 322.772,89.1041 323.34,88.8736 323.907,88.6291 324.475,88.3846 325.042,88.1531 325.609,87.9465 326.177,87.7746 326.744,87.6451 327.312,87.5633 327.879,87.5319 328.446,87.5506 329.014,87.6169 329.581,87.7256 330.148,87.8694 330.716,88.0396 331.283,88.2266 331.851,88.4205 332.418,88.6121 332.985,88.7931 333.553,88.9571 334.12,89.0997 334.687,89.2186 335.255,89.3136 335.822,89.3859 336.39,89.4384 336.957,89.4743 337.524,89.4975 338.092,89.5112 338.659,89.5182" stroke="#d85218" stroke-linecap="butt" stroke-linejoin="round" stroke-width="0.5"/>
   <polyline fill="none" points="48.7287,78.2918 49.2961,78.5389 49.8634,79.2662 50.4308,80.4324 50.9982,81.9709 51.5656,83.7935 52.1329,85.7945 52.7003,87.857 53.2677,89.8583 53.8351,91.6778 54.4025,93.2043 54.9698,94.3443 55.5372,95.0284 56.1046,95.2173 56.672,94.904 57.2394,94.1139 57.8067,92.9014 58.3741,91.3445 58.9415,89.5386 59.5089,87.5893 60.0762,85.6068 60.6436,83.6999 61.211,81.9726 61.7784,80.519 62.3458,79.4204 62.9131,78.7407 63.4805,78.5232 64.0479,78.7865 64.6153,79.522 65.1827,80.6924 65.75,82.2321 66.3174,84.0498 66.8848,86.0338 67.4522,88.0586 68.0195,89.9945 68.5869,91.7169 69.1543,93.1168 69.7217,94.1093 70.2891,94.6404 70.8564,94.6895 71.4238,94.2694 71.9912,93.4218 72.5586,92.2118 73.1259,90.7204 73.6933,89.0378 74.2607,87.2583 74.8281,85.4754 75.3955,83.7797 75.9628,82.2562 76.5302,80.9831 77.0976,80.0292 77.665,79.451 78.2324,79.289 78.7997,79.563 79.3671,80.2683 79.9345,81.3719 80.5019,82.8118 81.0692,84.4982 81.6366,86.3193 82.204,88.1496 82.7714,89.8615 83.3388,91.3377 83.9061,92.4822 84.4735,93.2292 85.0409,93.5475 85.6083,93.4397 86.1757,92.9385 86.743,92.0988 87.3104,90.9904 87.8778,89.69 88.4452,88.2759 89.0126,86.8236 89.5799,85.4044 90.1473,84.0839 90.7147,82.9224 91.2821,81.9745 91.8494,81.2881 92.4168,80.9029 92.9842,80.8469 93.5516,81.1324 94.1189,81.7513 94.6863,82.6717 95.2537,83.8358 95.8211,85.1617 96.3885,86.5495 96.9558,87.8906 97.5232,89.0808 98.0906,90.0325 98.658,90.6848 99.2254,91.0093 99.7927,91.0096 100.36,90.7169 100.927,90.1819 101.495,89.4663 102.062,88.6354 102.63,87.752 103.197,86.8729 103.764,86.0475 104.332,85.317 104.899,84.7152 105.467,84.2686 106.034,83.9966 106.601,83.9103 107.169,84.0119 107.736,84.2916 108.303,84.7261 108.871,85.2766 109.438,85.8891 110.006,86.4976 110.573,87.0306 111.14,87.4211 111.708,87.6172 112.275,87.5914 112.842,87.3457 113.41,86.9108 113.977,86.3396 114.545,85.6987 115.112,85.058 115.679,84.4834 116.247,84.0316 116.814,83.748 117.381,83.6671 117.949,83.8129 118.516,84.2003 119.084,84.835 119.651,85.7129 120.218,86.8167 120.786,88.1119 121.353,89.5407 121.921,91.0161 122.488,92.4172 123.055,93.5899 123.623,94.3564 124.19,94.5357 124.757,93.9758 125.325,92.591 125.892,90.3931 126.46,87.5044 127.027,84.1443 127.594,80.5943 128.162,77.1501 128.729,74.0791 129.296,71.5908 129.864,69.8263 130.431,68.863 130.999,68.7297 131.566,69.4249 132.133,70.9338 132.701,73.2407 133.268,76.3339 133.835,80.2032 134.403,84.8258 134.97,90.1396 135.538,96.0007 136.105,102.126 136.672,108.035 137.24,113.018 137.807,116.182 138.374,116.616 138.942,113.658 139.509,107.144 140.077,97.5077 140.644,85.6622 141.211,72.7808 141.779,60.1002 142.346,48.8192 142.914,40.0572 143.481,34.8018 144.048,33.8059 144.616,37.4597 145.183,45.6934 145.75,57.9332 146.318,73.0735 146.885,89.4246 147.453,104.72 148.02,116.43 148.587,122.539 149.155,122.445 149.722,117.22 150.289,108.945 150.857,99.7316 151.424,91.1204 151.992,83.9827 152.559,78.6942 153.126,75.3439 153.694,73.8848 154.261,74.2143 154.828,76.2021 155.396,79.6808 155.963,84.4105 156.531,90.0299 157.098,96.0097 157.665,101.643 158.233,106.11 158.8,108.642 159.367,108.746 159.935,106.373 160.502,101.937 161.07,96.1667 161.637,89.8795 162.204,83.8021 162.772,78.4832 163.339,74.2903 163.907,71.4497 164.474,70.0926 165.041,70.2894 165.609,72.0596 166.176,75.3498 166.743,79.9759 167.311,85.5291 167.878,91.2773 168.446,96.139 169.013,98.8499 169.58,98.3849 170.148,94.4731 170.715,87.8441 171.282,79.9744 171.85,72.5105 172.417,66.7547 172.985,63.4427 173.552,62.7809 174.119,64.6087 174.687,68.5666 175.254,74.2157 175.821,81.095 176.389,88.7299 176.956,96.6151 177.524,104.197 178.091,110.886 178.658,116.108 179.226,119.405 179.793,120.537 180.36,119.542 180.928,116.725 181.495,112.557 182.063,107.567 182.63,102.238 183.197,96.956 183.765,92 184.332,87.5538 184.9,83.7324 185.467,80.6052 186.034,78.214 186.602,76.5828 187.169,75.7217 187.736,75.6241 188.304,76.2608 188.871,77.5716 189.439,79.4591 190.006,81.7849 190.573,84.3737 191.141,87.0241 191.708,89.5285 192.275,91.6968 192.843,93.3806 193.41,94.4904 193.978,95.0027 194.545,94.9548 195.112,94.4308 195.68,93.5416 196.247,92.4075 196.814,91.1429 197.382,89.8472 197.949,88.6014 198.517,87.467 199.084,86.4881 199.651,85.6942 200.219,85.1024 200.786,84.7194 201.354,84.5426 201.921,84.5607 202.488,84.7532 203.056,85.0908 203.623,85.5356 204.19,86.0428 204.758,86.5631 205.325,87.0473 205.893,87.4513 206.46,87.7412 207.027,87.8971 207.595,87.9154 208.162,87.8082 208.729,87.6005 209.297,87.3257 209.864,87.0208 210.432,86.7221 210.999,86.4615 211.566,86.2645 212.134,86.1492 212.701,86.1259 213.268,86.1974 213.836,86.3598 214.403,86.6026 214.971,86.9097 215.538,87.2595 216.105,87.6263 216.673,87.9805 217.24,88.291 217.807,88.5271 218.375,88.6609 218.942,88.6707 219.51,88.544 220.077,88.2797 220.644,87.8895 221.212,87.3972 221.779,86.8371 222.346,86.2503 222.914,85.6807 223.481,85.1704 224.049,84.7563 224.616,84.4674 225.183,84.3227 225.751,84.3316 226.318,84.4937 226.886,84.8003 227.453,85.2348 228.02,85.7746 228.588,86.3919 229.155,87.0544 229.722,87.7269 230.29,88.3719 230.857,88.9511 231.425,89.4277 231.992,89.7682 232.559,89.9453 233.127,89.9403 233.694,89.746 234.261,89.3681 234.829,88.8256 235.396,88.1507 235.964,87.3859 236.531,86.5811 237.098,85.7891 237.666,85.0616 238.233,84.4448 238.8,83.9766 239.368,83.6839 239.935,83.5822 240.503,83.6747 241.07,83.9536 241.637,84.401 242.205,84.9906 242.772,85.6891 243.339,86.4577 243.907,87.2542 244.474,88.0346 245.042,88.7546 245.609,89.3725 246.176,89.8506 246.744,90.1584 247.311,90.2744 247.879,90.1883 248.446,89.9025 249.013,89.4323 249.581,88.8051 250.148,88.0595 250.715,87.2417 251.283,86.4026 251.85,85.5944 252.418,84.8664 252.985,84.2621 253.552,83.8164 254.12,83.5538 254.687,83.4873 255.254,83.6184 255.822,83.937 256.389,84.4228 256.957,85.0464 257.524,85.7713 258.091,86.5558 258.659,87.3548 259.226,88.1226 259.793,88.8148 260.361,89.3912 260.928,89.8179 261.496,90.0695 262.063,90.1311 262.63,89.999 263.198,89.6816 263.765,89.1987 264.333,88.5802 264.9,87.8641 265.467,87.0942 266.035,86.3168 266.602,85.5782 267.169,84.9215 267.737,84.3845 268.304,83.9971 268.872,83.7803 269.439,83.7447 270.006,83.8904 270.574,84.2069 271.141,84.6743 271.708,85.2639 272.276,85.9401 272.843,86.6627 273.411,87.3889 273.978,88.0759 274.545,88.6835 275.113,89.1763 275.68,89.5264 276.247,89.7146 276.815,89.7316 277.382,89.5789 277.95,89.2682 278.517,88.82 279.084,88.2631 279.652,87.6318 280.219,86.9639 280.786,86.2987 281.354,85.6746 281.921,85.1267 282.489,84.6856 283.056,84.3753 283.623,84.2121 284.191,84.2039 284.758,84.3494 285.326,84.6385 285.893,85.0529 286.46,85.5665 287.028,86.1477 287.595,86.7608 288.162,87.3686 288.73,87.9346 289.297,88.4253 289.865,88.8127 290.432,89.0755 290.999,89.2009 291.567,89.1846 292.134,89.0313 292.701,88.7536 293.269,88.3708 293.836,87.908 294.404,87.3936 294.971,86.8584 295.538,86.333 296.106,85.8471 296.673,85.4273 297.24,85.0963 297.808,84.8714 298.375,84.764 298.943,84.7787 299.51,84.913 300.077,85.1574 300.645,85.4959 301.212,85.9066 301.779,86.3637 302.347,86.8382 302.914,87.3009 303.482,87.7236 304.049,88.0815 304.616,88.3547 305.184,88.5291 305.751,88.5977 306.319,88.5601 306.886,88.4225 307.453,88.1968 308.021,87.8995 308.588,87.5501 309.155,87.1706 309.723,86.7832 310.29,86.41 310.858,86.0716 311.425,85.7858 311.992,85.5674 312.56,85.4272 313.127,85.3714 313.694,85.4016 314.262,85.5142 314.829,85.7008 315.397,85.9485 315.964,86.241 316.531,86.559 317.099,86.8823 317.666,87.1907 318.233,87.4657 318.801,87.6915 319.368,87.8563 319.936,87.9529 320.503,87.9787 321.07,87.9357 321.638,87.83 322.205,87.6711 322.772,87.4707 323.34,87.2422 323.907,86.9997 324.475,86.7571 325.042,86.5275 325.609,86.3227 326.177,86.1525 326.744,86.0246 327.312,85.9444 327.879,85.9144 328.446,85.9346 329.014,86.0022 329.581,86.1121 330.148,86.2571 330.716,86.4285 331.283,86.6165 331.851,86.8114 332.418,87.0038 332.985,87.1857 333.553,87.3504 334.12,87.4937 334.687,87.6132 335.255,87.7087 335.822,87.7815 336.39,87.8344 336.957,87.8707 337.524,87.8941 338.092,87.9079 338.659,87.9151" stroke="#ecb01f" stroke-linecap="butt" stroke-linejoin="round" stroke-width="0.5"/>
   <polyline fill="none" points="48.7287,85.5976 49.2961,85.5976 49.8634,85.5976 50.4308,85.5976 50.9982,85.5976 51.5656,85.5976 52.1329,85.5976 52.7003,85.5976 53.2677,85.5976 53.8351,85.5976 54.4025,85.5976 54.9698,85.5976 55.5372,85.5976 56.1046,85.5976 56.672,85.5976 57.2394,85.5976 57.8067,85.5976 58.3741,85.5976 58.9415,85.5976 59.5089,85.5976 60.0762,85.5976 60.6436,85.5976 61.211,85.5976 61.7784,85.5976 62.3458,85.5976 62.9131,85.5976 63.4805,85.5976 64.0479,85.5976 64.6153,85.5976 65.1827,85.5976 65.75,85.5976 66.3174,85.5976 66.8848,85.5976 67.4522,85.5976 68.0195,85.5976 68.5869,85.5976 69.1543,85.5976 69.7217,85.5976 70.2891,85.5976 70.8564,85.5976 71.4238,85.5976 71.9912,85.5976 72.5586,85.5976 73.1259,85.5976 73.6933,85.5976 74.2607,85.5976 74.8281,85.5976 75.3955,85.5976 75.9628,85.5976 76.5302,85.5976 77.0976,85.5976 77.665,85.5976 78.2324,85.5976 78.7997,85.5976 79.3671,85.5976 79.9345,85.5976 80.5019,85.5976 81.0692,85.5976 81.6366,85.5976 82.204,85.5976 82.7714,85.5976 83.3388,85.5976 83.9061,85.5976 84.4735,85.5976 85.0409,85.5976 85.6083,85.5976 86.1757,85.5976 86.743,85.5976 87.3104,85.5976 87.8778,85.5976 88.4452,85.5976 89.0126,85.5976 89.5799,85.5976 90.1473,85.5976 90.7147,85.5976 91.2821,85.5976 91.8494,85.5976 92.4168,85.5976 92.9842,85.5976 93.5516,85.5976 94.1189,85.5976 94.6863,85.5976 95.2537,85.5976 95.8211,85.5976 96.3885,85.5976 96.9558,85.5976 97.5232,85.5976 98.0906,85.5976 98.658,85.5976 99.2254,85.5976 99.7927,85.5976 100.36,85.5976 100.927,85.5976 101.495,85.5976 102.062,85.5976 102.63,85.5976 103.197,85.5976 103.764,85.5976 104.332,85.5976 104.899,85.5976 105.467,85.5976 106.034,85.5976 106.601,85.5976 107.169,85.5976 107.736,85.5976 108.303,85.5976 108.871,85.5976 109.438,85.5976 110.006,85.5976 110.573,85.5976 111.14,85.5976 111.708,85.5976 112.275,85.5976 112.842,85.5976 113.41,85.5976 113.977,85.5976 114.545,85.5976 115.112,85.5976 115.679,85.5976 116.247,85.5976 116.814,85.5976 117.381,85.5976 117.949,85.5976 118.516,85.5976 119.084,85.5976 119.651,85.5976 120.218,85.5976 120.786,85.5976 121.353,85.5976 121.921,85.5976 122.488,85.5976 123.055,85.5976 123.623,85.5976 124.19,85.5976 124.757,85.5976 125.325,85.5976 125.892,85.5976 126.46,85.5976 127.027,85.5976 127.594,85.5976 128.162,85.5976 128.729,85.5976 129.296,85.5976 129.864,85.5976 130.431,85.5976 130.999,85.5976 131.566,85.5976 132.133,85.5976 132.701,85.5976 133.268,85.5976 133.835,85.5976 134.403,85.5976 134.97,85.5976 135.538,85.5976 136.105,85.5976 136.672,85.5976 137.24,85.5976 137.807,85.5976 138.374,85.5976 138.942,85.5976 139.509,85.5976 140.077,85.5976 140.644,85.5976 141.211,85.5976 141.779,85.5976 142.346,85.5976 142.914,85.5976 143.481,85.5976 144.048,85.5976 144.616,85.5976 145.183,85.5976 145.75,85.5976 146.318,85.5976 146.885,85.5976 147.453,85.5976 148.02,85.5976 148.587,85.5976 149.155,85.5976 149.722,85.5976 150.289,85.5976 150.857,85.5976 151.424,85.5976 151.992,85.5976 152.559,85.5976 153.126,85.5976 153.694,85.5976 154.261,85.5976 154.828,85.5976 155.396,85.5976 155.963,85.5976 156.531,85.5976 157.098,85.5976 157.665,85.5976 158.233,85.5976 158.8,85.5976 159.367,85.5976 159.935,85.5976 160.502,85.5976 161.07,85.5976 161.637,85.5976 162.204,85.5976 162.772,85.5976 163.339,85.5976 163.907,85.5976 164.474,85.5976 165.041,85.5976 165.609,85.5976 166.176,85.5976 166.743,85.5976 167.311,85.5976 167.878,85.5976 168.446,85.5976 169.013,85.5976 169.58,85.5976 170.148,85.5976 170.715,85.5976 171.282,85.5976 171.85,85.5976 172.417,85.5976 172.985,85.5976 173.552,85.5976 174.119,85.5976 174.687,85.5976 175.254,85.5976 175.821,85.5976 176.389,85.5976 176.956,85.5976 177.524,85.5976 178.091,85.5976 178.658,85.5976 179.226,85.5976 179.793,85.5976 180.36,85.5976 180.928,85.5976 181.495,85.5976 182.063,85.5976 182.63,85.5976 183.197,85.5976 183.765,85.5976 184.332,85.5976 184.9,85.5976 185.467,85.5976 186.034,85.5976 186.602,85.5976 187.169,85.5976 187.736,85.5976 188.304,85.5976 188.871,85.5976 189.439,85.5976 190.006,85.5976 190.573,85.5976 191.141,85.5976 191.708,85.5976 192.275,85.5976 192.843,85.5976 193.41,85.5976 193.978,85.5976 194.545,85.5976 195.112,85.5976 195.68,85.5976 196.247,85.5976 196.814,85.5976 197.382,85.5976 197.949,85.5976 198.517,85.5976 199.084,85.5976 199.651,85.5976 200.219,85.5976 200.786,85.5976 201.354,85.5976 201.921,85.5976 202.488,85.5976 203.056,85.5976 203.623,85.5976 204.19,85.5976 204.758,85.5976 205.325,85.5976 205.893,85.5976 206.46,85.5976 207.027,85.5976 207.595,85.5976 208.162,85.5976 208.729,85.5976 209.297,85.5976 209.864,85.5976 210.432,85.5976 210.999,85.5976 211.566,85.5976 212.134,85.5976 212.701,85.5976 213.268,85.5976 213.836,85.5976 214.403,85.5976 214.971,85.5976 215.538,85.5976 216.105,85.5976 216.673,85.5976 217.24,85.5976 217.807,85.5976 218.375,85.5976 218.942,85.5976 219.51,85.5976 220.077,85.5976 220.644,85.5976 221.212,85.5976 221.779,85.5976 222.346,85.5976 222.914,85.5976 223.481,85.5976 224.049,85.5976 224.616,85.5976 225.183,85.5976 225.751,85.5976 226.318,85.5976 226.886,85.5976 227.453,85.5976 228.02,85.5976 228.588,85.5976 229.155,85.5976 229.722,85.5976 230.29,85.5976 230.857,85.5976 231.425,85.5976 231.992,85.5976 232.559,85.5976 233.127,85.5976 233.694,85.5976 234.261,85.5976 234.829,85.5976 235.396,85.5976 235.964,85.5976 236.531,85.5976 237.098,85.5976 237.666,85.5976 238.233,85.5976 238.8,85.5976 239.368,85.5976 239.935,85.5976 240.503,85.5976 241.07,85.5976 241.637,85.5976 242.205,85.5976 242.772,85.5976 243.339,85.5976 243.907,85.5976 244.474,85.5976 245.042,85.5976 245.609,85.5976 246.176,85.5976 246.744,85.5976 247.311,85.5976 247.879,85.5976 248.446,85.5976 249.013,85.5976 249.581,85.5976 250.148,85.5976 250.715,85.5976 251.283,85.5976 251.85,85.5976 252.418,85.5976 252.985,85.5976 253.552,85.5976 254.12,85.5976 254.687,85.5976 255.254,85.5976 255.822,85.5976 256.389,85.5976 256.957,85.5976 257.524,85.5976 258.091,85.5976 258.659,85.5976 259.226,85.5976 259.793,85.5976 260.361,85.5976 260.928,85.5976 261.496,85.5976 262.063,85.5976 262.63,85.5976 263.198,85.5976 263.765,85.5976 264.333,85.5976 264.9,85.5976 265.467,85.5976 266.035,85.5976 266.602,85.5976 267.169,85.5976 267.737,85.5976 268.304,85.5976 268.872,85.5976 269.439,85.5976 270.006,85.5976 270.574,85.5976 271.141,85.5976 271.708,85.5976 272.276,85.5976 272.843,85.5976 273.411,85.5976 273.978,85.5976 274.545,85.5976 275.113,85.5976 275.68,85.5976 276.247,85.5976 276.815,85.5976 277.382,85.5976 277.95,85.5976 278.517,85.5976 279.084,85.5976 279.652,85.5976 280.219,85.5976 280.786,85.5976 281.354,85.5976 281.921,85.5976 282.489,85.5976 283.056,85.5976 283.623,85.5976 284.191,85.5976 284.758,85.5976 285.326,85.5976 285.893,85.5976 286.46,85.5976 287.028,85.5976 287.595,85.5976 288.162,85.5976 288.73,85.5976 289.297,85.5976 289.865,85.5976 290.432,85.5976 290.999,85.5976 291.567,85.5976 292.134,85.5976 292.701,85.5976 293.269,85.5976 293.836,85.5976 294.404,85.5976 294.971,85.5976 295.538,85.5976 296.106,85.5976 296.673,85.5976 297.24,85.5976 297.808,85.5976 298.375,85.5976 298.943,85.5976 299.51,85.5976 300.077,85.5976 300.645,85.5976 301.212,85.5976 301.779,85.5976 302.347,85.5976 302.914,85.5976 303.482,85.5976 304.049,85.5976 304.616,85.5976 305.184,85.5976 305.751,85.5976 306.319,85.5976 306.886,85.5976 307.453,85.5976 308.021,85.5976 308.588,85.5976 309.155,85.5976 309.723,85.5976 310.29,85.5976 310.858,85.5976 311.425,85.5976 311.992,85.5976 312.56,85.5976 313.127,85.5976 313.694,85.5976 314.262,85.5976 314.829,85.5976 315.397,85.5976 315.964,85.5976 316.531,85.5976 317.099,85.5976 317.666,85.5976 318.233,85.5976 318.801,85.5976 319.368,85.5976 319.936,85.5976 320.503,85.5976 321.07,85.5976 321.638,85.5976 322.205,85.5976 322.772,85.5976 323.34,85.5976 323.907,85.5976 324.475,85.5976 325.042,85.5976 325.609,85.5976 326.177,85.5976 326.744,85.5976 327.312,85.5976 327.879,85.5976 328.446,85.5976 329.014,85.5976 329.581,85.5976 330.148,85.5976 330.716,85.5976 331.283,85.5976 331.851,85.5976 332.418,85.5976 332.985,85.5976 333.553,85.5976 334.12,85.5976 334.687,85.5976 335.255,85.5976 335.822,85.5976 336.39,85.5976 336.957,85.5976 337.524,85.5976 338.092,85.5976 338.659,85.5976" stroke="#7d2e8d" stroke-linecap="butt" stroke-linejoin="round" stroke-width="0.5"/>
   <polyline fill="none" points="77.7785,285.564 79.3382,285.564 80.8979,285.565 82.4576,285.565 84.0173,285.564 85.577,285.563 87.1368,285.562 88.6965,285.56 90.2562,285.558 91.8159,285.556 93.3757,285.553 94.9354,285.55 96.4951,285.545 98.0548,285.54 99.6145,285.534 101.174,285.526 102.734,285.516 104.294,285.503 105.853,285.488 107.413,285.47 108.973,285.447 110.533,285.416 112.092,285.378 113.652,285.33 115.212,285.269 116.771,285.19 118.331,285.082 119.891,284.94 121.451,284.753 123.01,284.508 124.57,284.184 126.13,283.729 127.689,283.159 129.249,282.505 130.809,281.823 132.369,281.224 133.928,280.856 135.488,280.647 137.048,280.545 138.608,280.505 140.167,280.488 141.727,280.473 143.287,280.455 144.846,280.433 146.406,280.409 147.966,280.383 149.526,280.355 151.085,280.328 152.645,280.303 154.205,280.279 155.764,280.26 157.324,280.249 158.884,280.257 160.444,280.297 162.003,280.394 163.563,280.597 165.123,280.974 166.682,281.486 168.242,282.083 169.802,282.706 171.362,283.273 172.921,283.734 174.481,284.109 176.041,284.409 177.601,284.644 179.16,284.823 180.72,284.96 182.28,285.071 183.839,285.16 185.399,285.231 186.959,285.288 188.519,285.332 190.078,285.37 191.638,285.401 193.198,285.427 194.757,285.448 196.317,285.465 197.877,285.48 199.437,285.493 200.996,285.503 202.556,285.512 204.116,285.52 205.675,285.526 207.235,285.532 208.795,285.537 210.355,285.541 211.914,285.544 213.474,285.548 215.034,285.55 216.594,285.553 218.153,285.555 219.713,285.556 221.273,285.558 222.832,285.559 224.392,285.56 225.952,285.561 227.512,285.562 229.071,285.563 230.631,285.563 232.191,285.564 233.75,285.564 235.31,285.565 236.87,285.565 238.43,285.564 239.989,285.564 241.549,285.564 243.109,285.564 244.668,285.564 246.228,285.564 247.788,285.563 249.348,285.563 250.907,285.563 252.467,285.563 254.027,285.563 255.587,285.563 257.146,285.563 258.706,285.563 260.266,285.563 261.825,285.563 263.385,285.563 264.945,285.564 266.505,285.564 268.064,285.564 269.624,285.564 271.184,285.564 272.743,285.564 274.303,285.564 275.863,285.564 277.423,285.564 278.982,285.564 280.542,285.564 282.102,285.564 283.661,285.564 285.221,285.564 286.781,285.564 288.341,285.565 289.9,285.565 291.46,285.565 293.02,285.565 294.579,285.565 296.139,285.565 297.699,285.565 299.259,285.565 300.818,285.565 302.378,285.565 303.938,285.565 305.498,285.565 307.057,285.565 308.617,285.565 310.177,285.565" stroke="#76ab2f" stroke-linecap="butt" stroke-linejoin="round" stroke-width="0.5"/>
  </g>
  <clipPath id="cp00374320">
   <polygon points="0,320 374,320 374,0 0,0"/>
  </clipPath>
  <g clip-path="url(#cp00374320)">
   <polygon fill="#ffffff" points="204.209,277.561 331.223,277.561 331.223,204.551 204.209,204.551" shape-rendering="crispEdges"/>
   <polyline fill="none" points="204.209,277.561 331.223,277.561" stroke="#262626" stroke-dasharray="16,0" stroke-linecap="square" stroke-linejoin="miter" stroke-width="0.5"/>
   <polyline fill="none" points="204.209,204.551 331.223,204.551" stroke="#262626" stroke-dasharray="16,0" stroke-linecap="square" stroke-linejoin="miter" stroke-width="0.5"/>
   <polyline fill="none" points="204.209,277.561 204.209,204.551" stroke="#262626" stroke-dasharray="16,0" stroke-linecap="square" stroke-linejoin="miter" stroke-width="0.5"/>
   <polyline fill="none" points="331.223,277.561 331.223,204.551" stroke="#262626" stroke-dasharray="16,0" stroke-linecap="square" stroke-linejoin="miter" stroke-width="0.5"/>
   <polyline fill="none" points="208.211,213.553 228.219,213.553" stroke="#0071bc" stroke-linecap="butt" stroke-linejoin="round" stroke-width="0.5"/>
   <g font-family="FreeSans" font-size="9" font-style="normal" font-weight="normal" transform="translate(232.221,218.553) rotate(-0,-0,-5)" xml:space="preserve">
    <text fill="rgb(0,0,0)" x="0 3 8 13 18 " y="-2">Input</text>
   </g>
   <polyline fill="none" points="208.211,227.554 228.219,227.554" stroke="#d85218" stroke-linecap="butt" stroke-linejoin="round" stroke-width="0.5"/>
   <g font-family="FreeSans" font-size="9" font-style="normal" font-weight="normal" transform="translate(232.221,232.554) rotate(-0,-0,-5)" xml:space="preserve">
    <text fill="rgb(0,0,0)" x="0 6 11 18 23 28 33 37 42 45 47 52 57 59 64 66 68 71 76 79 81 83 85 87 89 91 93 " y="-2">Compensation Filter        </text>
   </g>
   <polyline fill="none" points="208.211,241.056 228.219,241.056" stroke="#ecb01f" stroke-linecap="butt" stroke-linejoin="round" stroke-width="0.5"/>
   <g font-family="FreeSans" font-size="9" font-style="normal" font-weight="normal" transform="translate(232.221,245.556) rotate(-0,-0,-4.5)" xml:space="preserve">
    <text fill="rgb(0,0,0)" x="0 6 11 18 23 25 30 35 " y="-1">Combined</text>
   </g>
   <polyline fill="none" points="208.211,254.558 228.219,254.558" stroke="#7d2e8d" stroke-linecap="butt" stroke-linejoin="round" stroke-width="0.5"/>
   <g font-family="FreeSans" font-size="9" font-style="normal" font-weight="normal" transform="translate(232.221,259.558) rotate(-0,-0,-5)" xml:space="preserve">
    <text fill="rgb(0,0,0)" x="0 6 11 14 19 24 27 29 36 39 " y="-2">Target Grd</text>
   </g>
   <polyline fill="none" points="208.211,268.56 228.219,268.56" stroke="#76ab2f" stroke-linecap="butt" stroke-linejoin="round" stroke-width="0.5"/>
   <g font-family="FreeSans" font-size="9" font-style="normal" font-weight="normal" transform="translate(232.221,273.56) rotate(-0,-0,-5)" xml:space="preserve">
    <text fill="rgb(0,0,0)" x="0 6 9 12 14 22 27 29 34 39 42 " y="-2">Err Weights</text>
   </g>
  </g>
 </g>
</svg>
