<?xml version='1.0' encoding='UTF-8' standalone='no'?>
<svg height="320pt" viewBox="0 0 374 320" width="374pt" xmlns="http://www.w3.org/2000/svg" xmlns:xlink="http://www.w3.org/1999/xlink">
 <title>Figure 9</title>
 <desc>
Creator: GL2PS 1.4.2, (C) 1999-2020 C. Geuzaine
For: Octave
CreationDate: Tue Mar  3 15:31:27 2026
</desc>
 <defs/>
 <polygon fill="#ffffff" points="0,0 374,0 374,320 0,320"/>
 <g>
  <polygon fill="#ffffff" points="0,320 374,320 374,0 0,0" shape-rendering="crispEdges"/>
  <clipPath id="cp00374320">
   <polygon points="0,320 374,320 374,0 0,0"/>
  </clipPath>
  <g clip-path="url(#cp00374320)">
   <polygon fill="#ffffff" points="48.7287,285.565 339.226,285.565 339.226,24.0645 48.7287,24.0645" shape-rendering="crispEdges"/>
   <polyline fill="none" points="48.7287,285.565 48.7287,282.666" stroke="#262626" stroke-linecap="butt" stroke-linejoin="miter" stroke-width="0.5"/>
   <polyline fill="none" points="48.7287,24.0645 48.7287,26.9639" stroke="#262626" stroke-linecap="butt" stroke-linejoin="miter" stroke-width="0.5"/>
   <polyline fill="none" points="106.828,285.565 106.828,282.666" stroke="#262626" stroke-linecap="butt" stroke-linejoin="miter" stroke-width="0.5"/>
   <polyline fill="none" points="106.828,24.0645 106.828,26.9639" stroke="#262626" stroke-linecap="butt" stroke-linejoin="miter" stroke-width="0.5"/>
   <polyline fill="none" points="164.928,285.565 164.928,282.666" stroke="#262626" stroke-linecap="butt" stroke-linejoin="miter" stroke-width="0.5"/>
   <polyline fill="none" points="164.928,24.0645 164.928,26.9639" stroke="#262626" stroke-linecap="butt" stroke-linejoin="miter" stroke-width="0.5"/>
   <polyline fill="none" points="223.027,285.565 223.027,282.666" stroke="#262626" stroke-linecap="butt" stroke-linejoin="miter" stroke-width="0.5"/>
   <polyline fill="none" points="223.027,24.0645 223.027,26.9639" stroke="#262626" stroke-linecap="butt" stroke-linejoin="miter" stroke-width="0.5"/>
   <polyline fill="none" points="281.127,285.565 281.127,282.666" stroke="#262626" stroke-linecap="butt" stroke-linejoin="miter" stroke-width="0.5"/>
   <polyline fill="none" points="281.127,24.0645 281.127,26.9639" stroke="#262626" stroke-linecap="butt" stroke-linejoin="miter" stroke-width="0.5"/>
   <polyline fill="none" points="339.226,285.565 339.226,282.666" stroke="#262626" stroke-linecap="butt" stroke-linejoin="miter" stroke-width="0.5"/>
   <polyline fill="none" points="339.226,24.0645 339.226,26.9639" stroke="#262626" stroke-linecap="butt" stroke-linejoin="miter" stroke-width="0.5"/>
   <g font-family="FreeSans" font-size="10" font-style="normal" font-weight="normal" transform="translate(45.7287,301.051) rotate(-0,3,-8)" xml:space="preserve">
    <text fill="rgb(38,38,38)" x="0 " y="-0">0</text>
   </g>
   <g font-family="FreeSans" font-size="10" font-style="normal" font-weight="normal" transform="translate(99.3282,301.051) rotate(-0,7.5,-8)" xml:space="preserve">
    <text fill="rgb(38,38,38)" x="0 6 9 " y="-0">0.2</text>
   </g>
   <g font-family="FreeSans" font-size="10" font-style="normal" font-weight="normal" transform="translate(157.428,301.051) rotate(-0,7.5,-8)" xml:space="preserve">
    <text fill="rgb(38,38,38)" x="0 6 9 " y="-0">0.4</text>
   </g>
   <g font-family="FreeSans" font-size="10" font-style="normal" font-weight="normal" transform="translate(215.527,301.051) rotate(-0,7.5,-8)" xml:space="preserve">
    <text fill="rgb(38,38,38)" x="0 6 9 " y="-0">0.6</text>
   </g>
   <g font-family="FreeSans" font-size="10" font-style="normal" font-weight="normal" transform="translate(273.627,301.051) rotate(-0,7.5,-8)" xml:space="preserve">
    <text fill="rgb(38,38,38)" x="0 6 9 " y="-0">0.8</text>
   </g>
   <g font-family="FreeSans" font-size="10" font-style="normal" font-weight="normal" transform="translate(336.226,301.051) rotate(-0,3,-8)" xml:space="preserve">
    <text fill="rgb(38,38,38)" x="0 " y="-0">1</text>
   </g>
   <polyline fill="none" points="48.7287,285.565 51.6386,285.565" stroke="#262626" stroke-linecap="butt" stroke-linejoin="miter" stroke-width="0.5"/>
   <polyline fill="none" points="339.226,285.565 336.316,285.565" stroke="#262626" stroke-linecap="butt" stroke-linejoin="miter" stroke-width="0.5"/>
   <polyline fill="none" points="48.7287,230.912 51.6386,230.912" stroke="#262626" stroke-linecap="butt" stroke-linejoin="miter" stroke-width="0.5"/>
   <polyline fill="none" points="339.226,230.912 336.316,230.912" stroke="#262626" stroke-linecap="butt" stroke-linejoin="miter" stroke-width="0.5"/>
   <polyline fill="none" points="48.7287,176.26 51.6386,176.26" stroke="#262626" stroke-linecap="butt" stroke-linejoin="miter" stroke-width="0.5"/>
   <polyline fill="none" points="339.226,176.26 336.316,176.26" stroke="#262626" stroke-linecap="butt" stroke-linejoin="miter" stroke-width="0.5"/>
   <polyline fill="none" points="48.7287,121.607 51.6386,121.607" stroke="#262626" stroke-linecap="butt" stroke-linejoin="miter" stroke-width="0.5"/>
   <polyline fill="none" points="339.226,121.607 336.316,121.607" stroke="#262626" stroke-linecap="butt" stroke-linejoin="miter" stroke-width="0.5"/>
   <polyline fill="none" points="48.7287,66.9542 51.6386,66.9542" stroke="#262626" stroke-linecap="butt" stroke-linejoin="miter" stroke-width="0.5"/>
   <polyline fill="none" points="339.226,66.9542 336.316,66.9542" stroke="#262626" stroke-linecap="butt" stroke-linejoin="miter" stroke-width="0.5"/>
   <g font-family="FreeSans" font-size="10" font-style="normal" font-weight="normal" transform="translate(37.7201,289.565) rotate(-0,6,-4)" xml:space="preserve">
    <text fill="rgb(38,38,38)" x="0 " y="-0">0</text>
   </g>
   <g font-family="FreeSans" font-size="10" font-style="normal" font-weight="normal" transform="translate(31.7201,234.912) rotate(-0,12,-4)" xml:space="preserve">
    <text fill="rgb(38,38,38)" x="0 6 " y="-0">20</text>
   </g>
   <g font-family="FreeSans" font-size="10" font-style="normal" font-weight="normal" transform="translate(31.7201,180.26) rotate(-0,12,-4)" xml:space="preserve">
    <text fill="rgb(38,38,38)" x="0 6 " y="-0">40</text>
   </g>
   <g font-family="FreeSans" font-size="10" font-style="normal" font-weight="normal" transform="translate(31.7201,125.607) rotate(-0,12,-4)" xml:space="preserve">
    <text fill="rgb(38,38,38)" x="0 6 " y="-0">60</text>
   </g>
   <g font-family="FreeSans" font-size="10" font-style="normal" font-weight="normal" transform="translate(31.7201,70.9542) rotate(-0,12,-4)" xml:space="preserve">
    <text fill="rgb(38,38,38)" x="0 6 " y="-0">80</text>
   </g>
   <polyline fill="none" points="48.7287,285.565 339.226,285.565" stroke="#262626" stroke-dasharray="16,0" stroke-linecap="square" stroke-linejoin="miter" stroke-width="0.5"/>
   <polyline fill="none" points="48.7287,24.0645 339.226,24.0645" stroke="#262626" stroke-dasharray="16,0" stroke-linecap="square" stroke-linejoin="miter" stroke-width="0.5"/>
   <polyline fill="none" points="48.7287,285.565 48.7287,24.0645" stroke="#262626" stroke-dasharray="16,0" stroke-linecap="square" stroke-linejoin="miter" stroke-width="0.5"/>
   <polyline fill="none" points="339.226,285.565 339.226,24.0645" stroke="#262626" stroke-dasharray="16,0" stroke-linecap="square" stroke-linejoin="miter" stroke-width="0.5"/>
   <g font-family="FreeSans" font-size="11" font-style="normal" font-weight="normal" transform="translate(101.978,318.051) rotate(-0,92,-12)" xml:space="preserve">
    <text fill="rgb(38,38,38)" x="0 8 14 18 27 33 35 37 42 48 54 57 64 68 74 80 86 92 98 104 109 112 116 122 124 127 131 137 143 146 151 157 166 172 174 180 " y="-3">Normalized Frequency (pi rad/sample)</text>
   </g>
   <g font-family="FreeSans" font-size="11" font-style="normal" font-weight="normal" transform="translate(14.2201,154.815) rotate(-90,12.5,0)" xml:space="preserve">
    <text fill="rgb(38,38,38)" x="0 7 11 15 21 " y="-0">Error</text>
   </g>
   <g font-family="FreeSans" font-size="11" font-style="normal" font-weight="bold" transform="translate(31.4776,14.0645) rotate(-0,162.5,0)" xml:space="preserve">
    <text fill="rgb(0,0,0)" x="0 8 12 19 22 25 32 36 40 43 46 49 56 60 67 73 77 83 89 95 98 101 111 117 123 130 133 139 143 147 150 154 157 163 167 173 179 182 188 194 197 200 210 216 222 229 232 238 242 246 249 258 264 267 274 281 285 291 298 304 310 313 319 " y="-3">Grd. Err., order=79, mean err flat=3.39, mean err weighted=2.86</text>
   </g>
   <polyline fill="none" points="48.7287,278.307 49.2961,278.722 49.8634,279.872 50.4308,281.495 50.9982,283.221 51.5656,284.653 52.1329,285.461 52.7003,285.457 53.2677,284.64 53.8351,283.203 54.4025,281.487 54.9698,279.902 55.5372,278.826 56.1046,278.512 56.672,279.028 57.2394,280.243 57.8067,281.864 58.3741,283.516 58.9415,284.824 59.5089,285.505 60.0762,285.419 60.6436,284.595 61.211,283.222 61.7784,281.605 62.3458,280.102 62.9131,279.052 63.4805,278.696 64.0479,279.125 64.6153,280.251 65.1827,281.82 65.75,283.467 66.3174,284.801 66.8848,285.504 67.4522,285.411 68.0195,284.555 68.5869,283.165 69.1543,281.598 69.7217,280.25 70.2891,279.448 70.8564,279.371 71.4238,280.014 71.9912,281.204 72.5586,282.655 73.1259,284.041 73.6933,285.071 74.2607,285.545 74.8281,285.386 75.3955,284.644 75.9628,283.489 76.5302,282.167 77.0976,280.965 77.665,280.147 78.2324,279.906 78.7997,280.311 79.3671,281.283 79.9345,282.605 80.5019,283.964 81.0692,285.029 81.6366,285.54 82.204,285.387 82.7714,284.638 83.3388,283.522 83.9061,282.357 84.4735,281.455 85.0409,281.037 85.6083,281.181 86.1757,281.819 86.743,282.776 87.3104,283.823 87.8778,284.739 88.4452,285.352 89.0126,285.565 89.5799,285.366 90.1473,284.82 90.7147,284.051 91.2821,283.224 91.8494,282.513 92.4168,282.073 92.9842,282.006 93.5516,282.339 94.1189,283.003 94.6863,283.85 95.2537,284.678 95.8211,285.292 96.3885,285.558 96.9558,285.449 97.5232,285.052 98.0906,284.531 98.658,284.069 99.2254,283.808 99.7927,283.807 100.36,284.044 100.927,284.433 101.495,284.863 102.062,285.234 102.63,285.477 103.197,285.565 103.764,285.506 104.332,285.341 104.899,285.124 105.467,284.917 106.034,284.771 106.601,284.722 107.169,284.78 107.736,284.929 108.303,285.129 108.871,285.328 109.438,285.479 110.006,285.555 110.573,285.56 111.14,285.528 111.708,285.501 112.275,285.505 112.842,285.537 113.41,285.564 113.977,285.542 114.545,285.44 115.112,285.257 115.679,285.022 116.247,284.791 116.814,284.625 117.381,284.575 117.949,284.664 118.516,284.882 119.084,285.173 119.651,285.444 120.218,285.565 120.786,285.397 121.353,284.823 121.921,283.802 122.488,282.43 123.055,280.98 123.623,279.883 124.19,279.61 124.757,280.442 125.325,282.232 125.892,284.286 126.46,285.518 127.027,284.852 127.594,281.699 128.162,276.233 128.729,269.36 129.296,262.41 129.864,256.731 130.431,253.368 130.999,252.888 131.566,255.352 132.133,260.368 132.701,267.156 133.268,274.59 133.835,281.197 134.403,285.17 134.97,284.461 135.538,277.136 136.105,262.145 136.672,240.579 137.24,216.973 137.807,199.409 138.374,196.843 138.942,213.583 139.509,244.278 140.077,274.143 140.644,285.432 141.211,265.888 141.779,214.266 142.346,141.336 142.914,67.1474 143.388,23.8029" stroke="#0071bc" stroke-linecap="butt" stroke-linejoin="round" stroke-width="0.5"/>
   <polyline fill="none" points="144.336,23.8029 144.616,42.2065 145.183,116.63 145.75,202.229 146.318,266.7 146.885,284.885 147.453,253.537 148.02,197.948 148.587,158.073 149.155,158.738 149.722,193.209 150.289,236.641 150.857,268.898 151.424,283.713 151.992,284.763 152.559,278.976 153.126,272.419 153.694,268.862 154.261,269.702 154.828,274.312 155.396,280.48 155.963,284.987 156.531,284.533 157.098,277.119 157.665,263.601 158.233,248.374 158.8,237.969 159.367,237.514 159.935,247.351 160.502,262.72 161.07,276.828 161.637,284.627 162.204,284.658 162.772,278.629 163.339,269.893 163.907,261.978 164.474,257.628 165.041,258.281 165.609,263.813 166.176,272.432 166.743,280.892 167.311,285.4 167.878,283.576 168.446,276.88 169.013,271.096 169.58,272.192 170.148,279.706 170.715,285.459 171.282,280.89 171.85,265.123 172.417,245.362 172.985,230.991 173.552,227.857 174.119,236.3 174.687,252.296 175.254,269.706 175.821,282.296 176.389,285.199 176.956,275.97 177.524,255.381 178.091,227.681 178.658,199.84 179.226,179.458 179.793,171.963 180.36,178.562 180.928,196.194 181.495,219.366 182.063,242.544 182.63,261.803 183.197,275.291 183.765,282.879 184.332,285.51 184.9,284.616 185.467,281.712 186.034,278.174 186.602,275.105 187.169,273.271 187.736,273.053 188.304,274.436 188.871,277.029 189.439,280.159 190.006,283.037 190.573,284.969 191.141,285.561 191.708,284.829 192.275,283.184 192.843,281.259 193.41,279.68 193.978,278.868 194.545,278.946 195.112,279.771 195.68,281.045 196.247,282.441 196.814,283.694 197.382,284.647 197.949,285.246 198.517,285.523 199.084,285.554 199.651,285.439 200.219,285.272 200.786,285.126 201.354,285.049 201.921,285.057 202.488,285.14 203.056,285.268 203.623,285.401 204.19,285.505 204.758,285.559 205.325,285.56 205.893,285.525 206.46,285.479 207.027,285.448 207.595,285.444 208.162,285.466 208.729,285.503 209.297,285.539 209.864,285.561 210.432,285.564 210.999,285.552 211.566,285.535 212.134,285.521 212.701,285.518 213.268,285.527 213.836,285.544 214.403,285.56 214.971,285.564 215.538,285.545 216.105,285.499 216.673,285.429 217.24,285.347 217.807,285.272 218.375,285.225 218.942,285.221 219.51,285.266 220.077,285.351 220.644,285.45 221.212,285.531 221.779,285.565 222.346,285.533 222.914,285.436 223.481,285.295 224.049,285.142 224.616,285.014 225.183,284.944 225.751,284.949 226.318,285.027 226.886,285.159 227.453,285.315 228.02,285.457 228.588,285.547 229.155,285.559 229.722,285.482 230.29,285.323 230.857,285.109 231.425,284.883 231.992,284.694 232.559,284.586 233.127,284.589 233.694,284.707 234.261,284.914 234.829,285.161 235.396,285.387 235.964,285.532 236.531,285.56 237.098,285.46 237.666,285.258 238.233,285.004 238.8,284.76 239.368,284.585 239.935,284.521 240.503,284.58 241.07,284.747 241.637,284.983 242.205,285.232 242.772,285.438 243.339,285.552 243.907,285.546 244.474,285.416 245.042,285.189 245.609,284.912 246.176,284.645 246.744,284.448 247.311,284.37 247.879,284.428 248.446,284.613 249.013,284.881 249.581,285.169 250.148,285.41 250.715,285.547 251.283,285.548 251.85,285.416 252.418,285.186 252.985,284.914 253.552,284.667 254.12,284.502 254.687,284.459 255.254,284.544 255.822,284.737 256.389,284.993 256.957,285.252 257.524,285.456 258.091,285.558 258.659,285.536 259.226,285.394 259.793,285.166 260.361,284.902 260.928,284.664 261.496,284.507 262.063,284.467 262.63,284.552 263.198,284.744 263.765,284.997 264.333,285.254 264.9,285.455 265.467,285.557 266.035,285.54 266.602,285.412 267.169,285.207 267.737,284.975 268.304,284.772 268.872,284.645 269.439,284.623 270.006,284.71 270.574,284.885 271.141,285.107 271.708,285.325 272.276,285.488 272.843,285.563 273.411,285.532 273.978,285.406 274.545,285.216 275.113,285.008 275.68,284.831 276.247,284.725 276.815,284.715 277.382,284.802 277.95,284.964 278.517,285.163 279.084,285.356 279.652,285.498 280.219,285.563 280.786,285.538 281.354,285.435 281.921,285.28 282.489,285.112 283.056,284.97 283.623,284.888 284.191,284.884 284.758,284.958 285.326,285.092 285.893,285.255 286.46,285.409 287.028,285.52 287.595,285.565 288.162,285.534 288.73,285.44 289.297,285.306 289.865,285.166 290.432,285.055 290.999,284.996 291.567,285.004 292.134,285.074 292.701,285.19 293.269,285.323 293.836,285.446 294.404,285.532 294.971,285.565 295.538,285.542 296.106,285.471 296.673,285.373 297.24,285.27 297.808,285.188 298.375,285.145 298.943,285.151 299.51,285.204 300.077,285.29 300.645,285.391 301.212,285.483 301.779,285.545 302.347,285.565 302.914,285.541 303.482,285.483 304.049,285.405 304.616,285.328 305.184,285.271 305.751,285.248 306.319,285.261 306.886,285.307 307.453,285.374 308.021,285.448 308.588,285.511 309.155,285.552 309.723,285.565 310.29,285.549 310.858,285.51 311.425,285.459 311.992,285.409 312.56,285.372 313.127,285.357 313.694,285.365 314.262,285.396 314.829,285.441 315.397,285.49 315.964,285.532 316.531,285.558 317.099,285.565 317.666,285.551 318.233,285.523 318.801,285.488 319.368,285.457 319.936,285.436 320.503,285.43 321.07,285.44 321.638,285.462 322.205,285.492 322.772,285.522 323.34,285.547 323.907,285.562 324.475,285.565 325.042,285.557 325.609,285.541 326.177,285.521 326.744,285.503 327.312,285.489 327.879,285.484 328.446,285.488 329.014,285.499 329.581,285.516 330.148,285.534 330.716,285.55 331.283,285.561 331.851,285.565 332.418,285.561 332.985,285.551 333.553,285.536 334.12,285.519 334.687,285.501 335.255,285.485 335.822,285.472 336.39,285.461 336.957,285.454 337.524,285.449 338.092,285.446 338.659,285.444" stroke="#0071bc" stroke-linecap="butt" stroke-linejoin="round" stroke-width="0.5"/>
   <polyline fill="none" points="77.7785,285.564 79.3382,285.565 80.8979,285.565 82.4576,285.565 84.0173,285.564 85.577,285.563 87.1368,285.563 88.6965,285.565 90.2562,285.564 91.8159,285.561 93.3757,285.561 94.9354,285.564 96.4951,285.563 98.0548,285.554 99.6145,285.548 101.174,285.554 102.734,285.563 104.294,285.565 105.853,285.561 107.413,285.562 108.973,285.565 110.533,285.558 112.092,285.551 113.652,285.562 115.212,285.561 116.771,285.54 118.331,285.547 119.891,285.554 121.451,285.229 123.01,284.222 124.57,283.7 126.13,285.283 127.689,283.675 129.249,273.687 130.809,265.269 132.369,270.961 133.928,284.237 135.488,274.579 137.048,218.65 138.608,201.732 140.167,278.038 141.727,222.749 143.287,47.8372 144.846,92.5022 146.406,276.767 147.966,197.13 149.526,174.244 151.085,273.812 152.645,280.229 154.205,272.365 155.764,284.536 157.324,270.573 158.884,231.697 160.444,255.27 162.003,285.417 163.563,271.958 165.123,264.996 166.682,281.726 168.242,281.552 169.802,277.494 171.362,284.566 172.921,270.273 174.481,274.903 176.041,285.24 177.601,280.347 179.16,270.765 180.72,272.875 182.28,281.039 183.839,285.11 185.399,285.493 186.959,285.117 188.519,285.175 190.078,285.487 191.638,285.546 193.198,285.399 194.757,285.369 196.317,285.464 197.877,285.541 199.437,285.564 200.996,285.564 202.556,285.564 204.116,285.565 205.675,285.563 207.235,285.562 208.795,285.563 210.355,285.564 211.914,285.565 213.474,285.565 215.034,285.565 216.594,285.564 218.153,285.563 219.713,285.563 221.273,285.564 222.832,285.565 224.392,285.565 225.952,285.565 227.512,285.565 229.071,285.565 230.631,285.565 232.191,285.565 233.75,285.565 235.31,285.565 236.87,285.565 238.43,285.565 239.989,285.565 241.549,285.565 243.109,285.565 244.668,285.565 246.228,285.565 247.788,285.564 249.348,285.564 250.907,285.565 252.467,285.565 254.027,285.565 255.587,285.565 257.146,285.565 258.706,285.565 260.266,285.565 261.825,285.564 263.385,285.564 264.945,285.565 266.505,285.565 268.064,285.565 269.624,285.565 271.184,285.565 272.743,285.565 274.303,285.565 275.863,285.565 277.423,285.565 278.982,285.565 280.542,285.565 282.102,285.565 283.661,285.565 285.221,285.565 286.781,285.565 288.341,285.565 289.9,285.565 291.46,285.565 293.02,285.565 294.579,285.565 296.139,285.565 297.699,285.565 299.259,285.565 300.818,285.565 302.378,285.565 303.938,285.565 305.498,285.565 307.057,285.565 308.617,285.565 310.177,285.565" stroke="#d85218" stroke-linecap="butt" stroke-linejoin="round" stroke-width="0.5"/>
   <polyline fill="none" points="77.7785,285.564 79.3382,285.565 80.8979,285.565 82.4576,285.565 84.0173,285.564 85.577,285.564 87.1368,285.563 88.6965,285.562 90.2562,285.561 91.8159,285.56 93.3757,285.559 94.9354,285.557 96.4951,285.555 98.0548,285.552 99.6145,285.549 101.174,285.544 102.734,285.539 104.294,285.533 105.853,285.525 107.413,285.515 108.973,285.503 110.533,285.487 112.092,285.467 113.652,285.442 115.212,285.41 116.771,285.369 118.331,285.313 119.891,285.238 121.451,285.141 123.01,285.013 124.57,284.843 126.13,284.606 127.689,284.308 129.249,283.966 130.809,283.61 132.369,283.297 133.928,283.105 135.488,282.995 137.048,282.942 138.608,282.921 140.167,282.912 141.727,282.904 143.287,282.895 144.846,282.884 146.406,282.871 147.966,282.857 149.526,282.843 151.085,282.829 152.645,282.815 154.205,282.803 155.764,282.793 157.324,282.788 158.884,282.791 160.444,282.813 162.003,282.863 163.563,282.969 165.123,283.166 166.682,283.434 168.242,283.746 169.802,284.071 171.362,284.368 172.921,284.608 174.481,284.804 176.041,284.961 177.601,285.084 179.16,285.178 180.72,285.249 182.28,285.307 183.839,285.353 185.399,285.391 186.959,285.42 188.519,285.443 190.078,285.463 191.638,285.479 193.198,285.493 194.757,285.504 196.317,285.513 197.877,285.521 199.437,285.527 200.996,285.533 202.556,285.537 204.116,285.541 205.675,285.545 207.235,285.548 208.795,285.55 210.355,285.552 211.914,285.554 213.474,285.556 215.034,285.557 216.594,285.559 218.153,285.56 219.713,285.56 221.273,285.561 222.832,285.562 224.392,285.562 225.952,285.563 227.512,285.563 229.071,285.564 230.631,285.564 232.191,285.564 233.75,285.565 235.31,285.565 236.87,285.565 238.43,285.565 239.989,285.565 241.549,285.564 243.109,285.564 244.668,285.564 246.228,285.564 247.788,285.564 249.348,285.564 250.907,285.564 252.467,285.564 254.027,285.564 255.587,285.564 257.146,285.564 258.706,285.564 260.266,285.564 261.825,285.564 263.385,285.564 264.945,285.564 266.505,285.564 268.064,285.564 269.624,285.564 271.184,285.564 272.743,285.564 274.303,285.564 275.863,285.564 277.423,285.564 278.982,285.565 280.542,285.565 282.102,285.565 283.661,285.565 285.221,285.565 286.781,285.565 288.341,285.565 289.9,285.565 291.46,285.565 293.02,285.565 294.579,285.565 296.139,285.565 297.699,285.565 299.259,285.565 300.818,285.565 302.378,285.565 303.938,285.565 305.498,285.565 307.057,285.565 308.617,285.565 310.177,285.565" stroke="#ecb01f" stroke-linecap="butt" stroke-linejoin="round" stroke-width="0.5"/>
  </g>
  <clipPath id="cp00374320">
   <polygon points="0,320 374,320 374,0 0,0"/>
  </clipPath>
  <g clip-path="url(#cp00374320)">
   <polygon fill="#ffffff" points="225.209,76.4787 331.223,76.4787 331.223,32.068 225.209,32.068" shape-rendering="crispEdges"/>
   <polyline fill="none" points="225.209,76.4787 331.223,76.4787" stroke="#262626" stroke-dasharray="16,0" stroke-linecap="square" stroke-linejoin="miter" stroke-width="0.5"/>
   <polyline fill="none" points="225.209,32.068 331.223,32.068" stroke="#262626" stroke-dasharray="16,0" stroke-linecap="square" stroke-linejoin="miter" stroke-width="0.5"/>
   <polyline fill="none" points="225.209,76.4787 225.209,32.068" stroke="#262626" stroke-dasharray="16,0" stroke-linecap="square" stroke-linejoin="miter" stroke-width="0.5"/>
   <polyline fill="none" points="331.223,76.4787 331.223,32.068" stroke="#262626" stroke-dasharray="16,0" stroke-linecap="square" stroke-linejoin="miter" stroke-width="0.5"/>
   <polyline fill="none" points="229.211,40.2715 249.219,40.2715" stroke="#0071bc" stroke-linecap="butt" stroke-linejoin="round" stroke-width="0.5"/>
   <g font-family="FreeSans" font-size="9" font-style="normal" font-weight="normal" transform="translate(253.221,44.2716) rotate(-0,-0,-4)" xml:space="preserve">
    <text fill="rgb(0,0,0)" x="0 6 9 12 14 19 21 26 " y="-0">Err Flat</text>
   </g>
   <polyline fill="none" points="229.211,53.4752 249.219,53.4752" stroke="#d85218" stroke-linecap="butt" stroke-linejoin="round" stroke-width="0.5"/>
   <g font-family="FreeSans" font-size="9" font-style="normal" font-weight="normal" transform="translate(253.221,58.4751) rotate(-0,-0,-5)" xml:space="preserve">
    <text fill="rgb(0,0,0)" x="0 6 9 12 14 22 27 29 34 39 42 47 52 54 56 58 60 62 64 66 68 70 72 " y="-2">Err Weighted           </text>
   </g>
   <polyline fill="none" points="229.211,67.4769 249.219,67.4769" stroke="#ecb01f" stroke-linecap="butt" stroke-linejoin="round" stroke-width="0.5"/>
   <g font-family="FreeSans" font-size="9" font-style="normal" font-weight="normal" transform="translate(253.221,72.4769) rotate(-0,-0,-5)" xml:space="preserve">
    <text fill="rgb(0,0,0)" x="0 6 9 12 14 22 27 29 34 39 42 " y="-2">Err Weights</text>
   </g>
  </g>
 </g>
</svg>
