<?xml version='1.0' encoding='UTF-8' standalone='no'?>
<svg height="320pt" viewBox="0 0 374 320" width="374pt" xmlns="http://www.w3.org/2000/svg" xmlns:xlink="http://www.w3.org/1999/xlink">
 <title>Figure 5</title>
 <desc>
Creator: GL2PS 1.4.2, (C) 1999-2020 C. Geuzaine
For: Octave
CreationDate: Thu Feb 19 11:53:28 2026
</desc>
 <defs/>
 <polygon fill="#ffffff" points="0,0 374,0 374,320 0,320"/>
 <g>
  <polygon fill="#ffffff" points="0,320 374,320 374,0 0,0" shape-rendering="crispEdges"/>
  <clipPath id="cp00374320">
   <polygon points="0,320 374,320 374,0 0,0"/>
  </clipPath>
  <g clip-path="url(#cp00374320)">
   <polygon fill="#ffffff" points="49.0086,132.657 339.226,132.657 339.226,27.9502 49.0086,27.9502" shape-rendering="crispEdges"/>
   <polyline fill="none" points="49.0086,132.657 49.0086,129.763" stroke="#262626" stroke-linecap="butt" stroke-linejoin="miter" stroke-width="0.5"/>
   <polyline fill="none" points="49.0086,27.9502 49.0086,30.8443" stroke="#262626" stroke-linecap="butt" stroke-linejoin="miter" stroke-width="0.5"/>
   <polyline fill="none" points="107.052,132.657 107.052,129.763" stroke="#262626" stroke-linecap="butt" stroke-linejoin="miter" stroke-width="0.5"/>
   <polyline fill="none" points="107.052,27.9502 107.052,30.8443" stroke="#262626" stroke-linecap="butt" stroke-linejoin="miter" stroke-width="0.5"/>
   <polyline fill="none" points="165.096,132.657 165.096,129.763" stroke="#262626" stroke-linecap="butt" stroke-linejoin="miter" stroke-width="0.5"/>
   <polyline fill="none" points="165.096,27.9502 165.096,30.8443" stroke="#262626" stroke-linecap="butt" stroke-linejoin="miter" stroke-width="0.5"/>
   <polyline fill="none" points="223.139,132.657 223.139,129.763" stroke="#262626" stroke-linecap="butt" stroke-linejoin="miter" stroke-width="0.5"/>
   <polyline fill="none" points="223.139,27.9502 223.139,30.8443" stroke="#262626" stroke-linecap="butt" stroke-linejoin="miter" stroke-width="0.5"/>
   <polyline fill="none" points="281.183,132.657 281.183,129.763" stroke="#262626" stroke-linecap="butt" stroke-linejoin="miter" stroke-width="0.5"/>
   <polyline fill="none" points="281.183,27.9502 281.183,30.8443" stroke="#262626" stroke-linecap="butt" stroke-linejoin="miter" stroke-width="0.5"/>
   <polyline fill="none" points="339.226,132.657 339.226,129.763" stroke="#262626" stroke-linecap="butt" stroke-linejoin="miter" stroke-width="0.5"/>
   <polyline fill="none" points="339.226,27.9502 339.226,30.8443" stroke="#262626" stroke-linecap="butt" stroke-linejoin="miter" stroke-width="0.5"/>
   <g font-family="FreeSans" font-size="10" font-style="normal" font-weight="normal" transform="translate(46.0086,148.137) rotate(-0,3,-8)" xml:space="preserve">
    <text fill="rgb(38,38,38)" x="0 " y="-0">0</text>
   </g>
   <g font-family="FreeSans" font-size="10" font-style="normal" font-weight="normal" transform="translate(99.5522,148.137) rotate(-0,7.5,-8)" xml:space="preserve">
    <text fill="rgb(38,38,38)" x="0 6 9 " y="-0">0.2</text>
   </g>
   <g font-family="FreeSans" font-size="10" font-style="normal" font-weight="normal" transform="translate(157.596,148.137) rotate(-0,7.5,-8)" xml:space="preserve">
    <text fill="rgb(38,38,38)" x="0 6 9 " y="-0">0.4</text>
   </g>
   <g font-family="FreeSans" font-size="10" font-style="normal" font-weight="normal" transform="translate(215.639,148.137) rotate(-0,7.5,-8)" xml:space="preserve">
    <text fill="rgb(38,38,38)" x="0 6 9 " y="-0">0.6</text>
   </g>
   <g font-family="FreeSans" font-size="10" font-style="normal" font-weight="normal" transform="translate(273.683,148.137) rotate(-0,7.5,-8)" xml:space="preserve">
    <text fill="rgb(38,38,38)" x="0 6 9 " y="-0">0.8</text>
   </g>
   <g font-family="FreeSans" font-size="10" font-style="normal" font-weight="normal" transform="translate(336.226,148.137) rotate(-0,3,-8)" xml:space="preserve">
    <text fill="rgb(38,38,38)" x="0 " y="-0">1</text>
   </g>
   <polyline fill="none" points="49.0086,132.657 51.9129,132.657" stroke="#262626" stroke-linecap="butt" stroke-linejoin="miter" stroke-width="0.5"/>
   <polyline fill="none" points="339.226,132.657 336.322,132.657" stroke="#262626" stroke-linecap="butt" stroke-linejoin="miter" stroke-width="0.5"/>
   <polyline fill="none" points="49.0086,106.481 51.9129,106.481" stroke="#262626" stroke-linecap="butt" stroke-linejoin="miter" stroke-width="0.5"/>
   <polyline fill="none" points="339.226,106.481 336.322,106.481" stroke="#262626" stroke-linecap="butt" stroke-linejoin="miter" stroke-width="0.5"/>
   <polyline fill="none" points="49.0086,80.3038 51.9129,80.3038" stroke="#262626" stroke-linecap="butt" stroke-linejoin="miter" stroke-width="0.5"/>
   <polyline fill="none" points="339.226,80.3038 336.322,80.3038" stroke="#262626" stroke-linecap="butt" stroke-linejoin="miter" stroke-width="0.5"/>
   <polyline fill="none" points="49.0086,54.127 51.9129,54.127" stroke="#262626" stroke-linecap="butt" stroke-linejoin="miter" stroke-width="0.5"/>
   <polyline fill="none" points="339.226,54.127 336.322,54.127" stroke="#262626" stroke-linecap="butt" stroke-linejoin="miter" stroke-width="0.5"/>
   <polyline fill="none" points="49.0086,27.9502 51.9129,27.9502" stroke="#262626" stroke-linecap="butt" stroke-linejoin="miter" stroke-width="0.5"/>
   <polyline fill="none" points="339.226,27.9502 336.322,27.9502" stroke="#262626" stroke-linecap="butt" stroke-linejoin="miter" stroke-width="0.5"/>
   <g font-family="FreeSans" font-size="10" font-style="normal" font-weight="normal" transform="translate(35.0048,136.657) rotate(-0,9,-4)" xml:space="preserve">
    <text fill="rgb(38,38,38)" x="0 3 " y="-0">-8</text>
   </g>
   <g font-family="FreeSans" font-size="10" font-style="normal" font-weight="normal" transform="translate(35.0048,110.481) rotate(-0,9,-4)" xml:space="preserve">
    <text fill="rgb(38,38,38)" x="0 3 " y="-0">-6</text>
   </g>
   <g font-family="FreeSans" font-size="10" font-style="normal" font-weight="normal" transform="translate(35.0048,84.3038) rotate(-0,9,-4)" xml:space="preserve">
    <text fill="rgb(38,38,38)" x="0 3 " y="-0">-4</text>
   </g>
   <g font-family="FreeSans" font-size="10" font-style="normal" font-weight="normal" transform="translate(35.0048,58.127) rotate(-0,9,-4)" xml:space="preserve">
    <text fill="rgb(38,38,38)" x="0 3 " y="-0">-2</text>
   </g>
   <g font-family="FreeSans" font-size="10" font-style="normal" font-weight="normal" transform="translate(38.0048,31.9502) rotate(-0,6,-4)" xml:space="preserve">
    <text fill="rgb(38,38,38)" x="0 " y="-0">0</text>
   </g>
   <polyline fill="none" points="49.0086,132.657 339.226,132.657" stroke="#262626" stroke-dasharray="16,0" stroke-linecap="square" stroke-linejoin="miter" stroke-width="0.5"/>
   <polyline fill="none" points="49.0086,27.9502 339.226,27.9502" stroke="#262626" stroke-dasharray="16,0" stroke-linecap="square" stroke-linejoin="miter" stroke-width="0.5"/>
   <polyline fill="none" points="49.0086,132.657 49.0086,27.9502" stroke="#262626" stroke-dasharray="16,0" stroke-linecap="square" stroke-linejoin="miter" stroke-width="0.5"/>
   <polyline fill="none" points="339.226,132.657 339.226,27.9502" stroke="#262626" stroke-dasharray="16,0" stroke-linecap="square" stroke-linejoin="miter" stroke-width="0.5"/>
   <g font-family="FreeSans" font-size="11" font-style="normal" font-weight="bold" transform="translate(45.6175,17.9502) rotate(-0,148.5,0)" xml:space="preserve">
    <text fill="rgb(0,0,0)" x="0 8 15 22 28 31 39 42 48 55 59 65 75 78 85 89 92 99 102 110 113 120 123 126 130 136 140 143 146 153 157 164 170 174 180 186 192 195 198 207 210 217 224 231 240 246 254 260 270 280 283 290 " y="-3">Bode Diagram of FIR Filter, order=79, window=Hamming</text>
   </g>
   <g font-family="FreeSans" font-size="11" font-style="normal" font-weight="normal" transform="translate(-5.99517,80.3038) rotate(-90,36,0)" xml:space="preserve">
    <text fill="rgb(38,38,38)" x="0 9 15 21 27 29 32 38 44 50 53 56 62 69 " y="-2">Magnitude [dB]</text>
   </g>
   <polyline fill="none" points="49.0086,28.4277 49.5754,28.4288 50.1422,28.432 50.7091,28.4369 51.2759,28.443 51.8427,28.4496 52.4096,28.4559 52.9764,28.4611 53.5432,28.4643 54.1101,28.465 54.6769,28.4626 55.2437,28.4568 55.8106,28.4479 56.3774,28.436 56.9442,28.422 57.5111,28.4067 58.0779,28.3913 58.6447,28.377 59.2116,28.3651 59.7784,28.3569 60.3452,28.3535 60.912,28.3554 61.4789,28.3634 62.0457,28.3773 62.6125,28.3968 63.1794,28.4211 63.7462,28.4491 64.313,28.4792 64.8799,28.5099 65.4467,28.5391 66.0135,28.565 66.5804,28.5859 67.1472,28.6002 67.714,28.6067 68.2809,28.6046 68.8477,28.5935 69.4145,28.5739 69.9813,28.5467 70.5482,28.5131 71.115,28.4752 71.6818,28.4352 72.2487,28.3957 72.8155,28.3594 73.3823,28.3289 73.9492,28.3065 74.516,28.2943 75.0828,28.2937 75.6497,28.3053 76.2165,28.3293 76.7833,28.365 77.3502,28.4108 77.917,28.4646 78.4838,28.5237 79.0507,28.5849 79.6175,28.6448 80.1843,28.7001 80.7512,28.7475 81.318,28.784 81.8848,28.8073 82.4517,28.8158 83.0185,28.8087 83.5853,28.7863 84.1521,28.7495 84.719,28.7007 85.2858,28.6424 85.8526,28.5784 86.4195,28.5126 86.9863,28.4494 87.5531,28.3929 88.12,28.3473 88.6868,28.316 89.2536,28.3016 89.8205,28.3061 90.3873,28.3301 90.9541,28.3732 91.521,28.4339 92.0878,28.5096 92.6546,28.5965 93.2215,28.6905 93.7883,28.7866 94.3551,28.8797 94.922,28.9648 95.4888,29.0371 96.0556,29.0927 96.6225,29.1285 97.1893,29.1425 97.7561,29.1342 98.3229,29.1044 98.8898,29.055 99.4566,28.9896 100.023,28.9126 100.59,28.8293 101.157,28.7456 101.724,28.6675 102.291,28.601 102.858,28.5513 103.424,28.5229 103.991,28.5192 104.558,28.5422 105.125,28.5924 105.692,28.6688 106.259,28.7688 106.825,28.8883 107.392,29.0223 107.959,29.1648 108.526,29.3091 109.093,29.4486 109.66,29.5768 110.226,29.688 110.793,29.7776 111.36,29.8423 111.927,29.8806 112.494,29.8929 113.061,29.8811 113.627,29.8493 114.194,29.8028 114.761,29.7482 115.328,29.693 115.895,29.6451 116.462,29.6121 117.028,29.6011 117.595,29.6184 118.162,29.6685 118.729,29.7545 119.296,29.8773 119.863,30.036 120.429,30.2278 120.996,30.4482 121.563,30.6911 122.13,30.95 122.697,31.2177 123.264,31.4874 123.83,31.7538 124.397,32.0129 124.964,32.2636 125.531,32.5077 126.098,32.7503 126.665,33.0004 127.231,33.2706 127.798,33.577 128.365,33.9388 128.932,34.3777 129.499,34.9173 130.066,35.5821 130.632,36.3968 131.199,37.3852 131.766,38.5697 132.333,39.9697 132.9,41.6014 133.467,43.4769 134.033,45.6033 134.6,47.9823 135.167,50.6098 135.734,53.4759 136.301,56.5649 136.868,59.8562 137.434,63.3248 138.001,66.9438 138.568,70.6855 139.135,74.5241 139.702,78.4377 140.268,82.4098 140.835,86.4302 141.402,90.494 141.969,94.599 142.536,98.7407 143.103,102.906 143.669,107.065 144.236,111.162 144.803,115.105 145.37,118.766 145.937,121.974 146.504,124.534 147.07,126.251 147.637,126.961 148.204,126.577 148.771,125.113 149.338,122.681 149.905,119.478 150.471,115.739 151.038,111.705 151.605,107.595 152.172,103.586 152.739,99.8127 153.306,96.3682 153.872,93.31 154.439,90.6659 155.006,88.4408 155.573,86.622 156.14,85.1842 156.707,84.0938 157.273,83.3129 157.84,82.8033 158.407,82.5297 158.974,82.4629 159.541,82.5821 160.108,82.8765 160.674,83.3453 161.241,83.9971 161.808,84.8483 162.375,85.9193 162.942,87.2317 163.509,88.8041 164.075,90.6474 164.642,92.7604 165.209,95.1257 165.776,97.7046 166.343,100.434 166.91,103.224 167.476,105.955 168.043,108.488 168.61,110.664 169.177,112.328 169.744,113.344 170.311,113.617 170.877,113.107 171.444,111.837 172.011,109.882 172.578,107.356 173.145,104.389 173.712,101.109 174.278,97.6312 174.845,94.0483 175.412,90.4297 175.979,86.8234 176.546,83.26 177.113,79.7572 177.679,76.3248 178.246,72.9685 178.813,69.6926 179.38,66.5029 179.947,63.4074 180.514,60.4165 181.08,57.5428 181.647,54.8004 182.214,52.2036 182.781,49.766 183.348,47.4991 183.915,45.412 184.481,43.5107 185.048,41.7973 185.615,40.2706 186.182,38.9256 186.749,37.7541 187.316,36.7448 187.882,35.8841 188.449,35.1566 189.016,34.5457 189.583,34.0338 190.15,33.6037 190.717,33.2388 191.283,32.9237 191.85,32.6446 192.417,32.39 192.984,32.1504 193.551,31.9191 194.118,31.6915 194.684,31.4657 195.251,31.2413 195.818,31.0201 196.385,30.8047 196.952,30.5988 197.519,30.4061 198.085,30.2306 198.652,30.0753 199.219,29.9427 199.786,29.8344 200.353,29.7506 200.919,29.6903 201.486,29.6515 202.053,29.631 202.62,29.6249 203.187,29.6288 203.754,29.6377 204.32,29.647 204.887,29.652 205.454,29.6489 206.021,29.6345 206.588,29.6065 207.155,29.5638 207.721,29.5066 208.288,29.4357 208.855,29.3533 209.422,29.2623 209.989,29.166 210.556,29.0685 211.122,28.9734 211.689,28.8849 212.256,28.8062 212.823,28.7401 213.39,28.6889 213.957,28.6537 214.523,28.6349 215.09,28.632 215.657,28.6434 216.224,28.6671 216.791,28.7 217.358,28.7391 217.924,28.7808 218.491,28.8215 219.058,28.858 219.625,28.8873 220.192,28.907 220.759,28.9153 221.325,28.9113 221.892,28.8947 222.459,28.8662 223.026,28.8271 223.593,28.7792 224.16,28.725 224.726,28.6673 225.293,28.6089 225.86,28.5526 226.427,28.5012 226.994,28.4569 227.561,28.4216 228.127,28.3966 228.694,28.3824 229.261,28.3791 229.828,28.3861 230.395,28.4021 230.962,28.4256 231.528,28.4543 232.095,28.4862 232.662,28.5189 233.229,28.5499 233.796,28.5772 234.363,28.5991 234.929,28.614 235.496,28.621 236.063,28.6197 236.63,28.6102 237.197,28.593 237.764,28.5692 238.33,28.5402 238.897,28.5074 239.464,28.4729 240.031,28.4383 240.598,28.4054 241.165,28.3759 241.731,28.351 242.298,28.3317 242.865,28.3187 243.432,28.3122 243.999,28.312 244.566,28.3177 245.132,28.3284 245.699,28.3429 246.266,28.36 246.833,28.3784 247.4,28.3967 247.967,28.4136 248.533,28.428 249.1,28.439 249.667,28.446 250.234,28.4485 250.801,28.4466 251.368,28.4404 251.934,28.4304 252.501,28.4173 253.068,28.4019 253.635,28.3852 254.202,28.368 254.769,28.3513 255.335,28.336 255.902,28.3227 256.469,28.3119 257.036,28.304 257.603,28.2992 258.17,28.2972 258.736,28.298 259.303,28.301 259.87,28.3058 260.437,28.3117 261.004,28.3181 261.571,28.3245 262.137,28.3301 262.704,28.3347 263.271,28.338 263.838,28.3395 264.405,28.3395 264.971,28.3379 265.538,28.3349 266.105,28.3308 266.672,28.326 267.239,28.3209 267.806,28.3158 268.372,28.3111 268.939,28.307 269.506,28.3038 270.073,28.3015 270.64,28.3002 271.207,28.2998 271.773,28.3 272.34,28.3007 272.907,28.3015 273.474,28.3022 274.041,28.3023 274.608,28.3018 275.174,28.3003 275.741,28.2978 276.308,28.2942 276.875,28.2897 277.442,28.2845 278.009,28.2788 278.575,28.273 279.142,28.2675 279.709,28.2626 280.276,28.2589 280.843,28.2565 281.41,28.2557 281.976,28.2567 282.543,28.2595 283.11,28.2639 283.677,28.2698 284.244,28.2766 284.811,28.2841 285.377,28.2917 285.944,28.2987 286.511,28.3047 287.078,28.3091 287.645,28.3114 288.212,28.3115 288.778,28.309 289.345,28.3039 289.912,28.2965 290.479,28.2869 291.046,28.2757 291.613,28.2634 292.179,28.2507 292.746,28.2384 293.313,28.2271 293.88,28.2177 294.447,28.2107 295.014,28.2065 295.58,28.2057 296.147,28.2081 296.714,28.2139 297.281,28.2227 297.848,28.2339 298.415,28.2471 298.981,28.2614 299.548,28.2758 300.115,28.2896 300.682,28.3018 301.249,28.3117 301.816,28.3184 302.382,28.3216 302.949,28.3208 303.516,28.316 304.083,28.3074 304.65,28.2953 305.217,28.2805 305.783,28.2636 306.35,28.2457 306.917,28.2278 307.484,28.2108 308.051,28.1959 308.618,28.184 309.184,28.1757 309.751,28.1716 310.318,28.1721 310.885,28.1771 311.452,28.1864 312.019,28.1996 312.585,28.2158 313.152,28.2341 313.719,28.2534 314.286,28.2727 314.853,28.2907 315.42,28.3063 315.986,28.3185 316.553,28.3266 317.12,28.33 317.687,28.3283 318.254,28.3218 318.821,28.3105 319.387,28.2952 319.954,28.2766 320.521,28.2558 321.088,28.234 321.655,28.2126 322.222,28.1925 322.788,28.1752 323.355,28.1617 323.922,28.1526 324.489,28.1487 325.056,28.1502 325.623,28.1571 326.189,28.1691 326.756,28.1855 327.323,28.2054 327.89,28.2278 328.457,28.2515 329.023,28.2751 329.59,28.2974 330.157,28.3172 330.724,28.3335 331.291,28.3454 331.858,28.3523 332.424,28.354 332.991,28.3506 333.558,28.3423 334.125,28.3299 334.692,28.3142 335.259,28.2962 335.825,28.2773 336.392,28.2585 336.959,28.2411 337.526,28.2263 338.093,28.215 338.66,28.2079" stroke="#0071bc" stroke-linecap="butt" stroke-linejoin="round" stroke-width="0.5"/>
  </g>
  <clipPath id="cp00374320">
   <polygon points="0,320 374,320 374,0 0,0"/>
  </clipPath>
  <g clip-path="url(#cp00374320)">
   <polygon fill="#ffffff" points="49.0086,285.565 339.226,285.565 339.226,180.858 49.0086,180.858" shape-rendering="crispEdges"/>
   <polyline fill="none" points="49.0086,285.565 49.0086,282.671" stroke="#262626" stroke-linecap="butt" stroke-linejoin="miter" stroke-width="0.5"/>
   <polyline fill="none" points="49.0086,180.858 49.0086,183.752" stroke="#262626" stroke-linecap="butt" stroke-linejoin="miter" stroke-width="0.5"/>
   <polyline fill="none" points="107.052,285.565 107.052,282.671" stroke="#262626" stroke-linecap="butt" stroke-linejoin="miter" stroke-width="0.5"/>
   <polyline fill="none" points="107.052,180.858 107.052,183.752" stroke="#262626" stroke-linecap="butt" stroke-linejoin="miter" stroke-width="0.5"/>
   <polyline fill="none" points="165.096,285.565 165.096,282.671" stroke="#262626" stroke-linecap="butt" stroke-linejoin="miter" stroke-width="0.5"/>
   <polyline fill="none" points="165.096,180.858 165.096,183.752" stroke="#262626" stroke-linecap="butt" stroke-linejoin="miter" stroke-width="0.5"/>
   <polyline fill="none" points="223.139,285.565 223.139,282.671" stroke="#262626" stroke-linecap="butt" stroke-linejoin="miter" stroke-width="0.5"/>
   <polyline fill="none" points="223.139,180.858 223.139,183.752" stroke="#262626" stroke-linecap="butt" stroke-linejoin="miter" stroke-width="0.5"/>
   <polyline fill="none" points="281.183,285.565 281.183,282.671" stroke="#262626" stroke-linecap="butt" stroke-linejoin="miter" stroke-width="0.5"/>
   <polyline fill="none" points="281.183,180.858 281.183,183.752" stroke="#262626" stroke-linecap="butt" stroke-linejoin="miter" stroke-width="0.5"/>
   <polyline fill="none" points="339.226,285.565 339.226,282.671" stroke="#262626" stroke-linecap="butt" stroke-linejoin="miter" stroke-width="0.5"/>
   <polyline fill="none" points="339.226,180.858 339.226,183.752" stroke="#262626" stroke-linecap="butt" stroke-linejoin="miter" stroke-width="0.5"/>
   <g font-family="FreeSans" font-size="10" font-style="normal" font-weight="normal" transform="translate(46.0086,301.044) rotate(-0,3,-8)" xml:space="preserve">
    <text fill="rgb(38,38,38)" x="0 " y="-0">0</text>
   </g>
   <g font-family="FreeSans" font-size="10" font-style="normal" font-weight="normal" transform="translate(99.5522,301.044) rotate(-0,7.5,-8)" xml:space="preserve">
    <text fill="rgb(38,38,38)" x="0 6 9 " y="-0">0.2</text>
   </g>
   <g font-family="FreeSans" font-size="10" font-style="normal" font-weight="normal" transform="translate(157.596,301.044) rotate(-0,7.5,-8)" xml:space="preserve">
    <text fill="rgb(38,38,38)" x="0 6 9 " y="-0">0.4</text>
   </g>
   <g font-family="FreeSans" font-size="10" font-style="normal" font-weight="normal" transform="translate(215.639,301.044) rotate(-0,7.5,-8)" xml:space="preserve">
    <text fill="rgb(38,38,38)" x="0 6 9 " y="-0">0.6</text>
   </g>
   <g font-family="FreeSans" font-size="10" font-style="normal" font-weight="normal" transform="translate(273.683,301.044) rotate(-0,7.5,-8)" xml:space="preserve">
    <text fill="rgb(38,38,38)" x="0 6 9 " y="-0">0.8</text>
   </g>
   <g font-family="FreeSans" font-size="10" font-style="normal" font-weight="normal" transform="translate(336.226,301.044) rotate(-0,3,-8)" xml:space="preserve">
    <text fill="rgb(38,38,38)" x="0 " y="-0">1</text>
   </g>
   <polyline fill="none" points="49.0086,285.565 51.9129,285.565" stroke="#262626" stroke-linecap="butt" stroke-linejoin="miter" stroke-width="0.5"/>
   <polyline fill="none" points="339.226,285.565 336.322,285.565" stroke="#262626" stroke-linecap="butt" stroke-linejoin="miter" stroke-width="0.5"/>
   <polyline fill="none" points="49.0086,264.624 51.9129,264.624" stroke="#262626" stroke-linecap="butt" stroke-linejoin="miter" stroke-width="0.5"/>
   <polyline fill="none" points="339.226,264.624 336.322,264.624" stroke="#262626" stroke-linecap="butt" stroke-linejoin="miter" stroke-width="0.5"/>
   <polyline fill="none" points="49.0086,243.682 51.9129,243.682" stroke="#262626" stroke-linecap="butt" stroke-linejoin="miter" stroke-width="0.5"/>
   <polyline fill="none" points="339.226,243.682 336.322,243.682" stroke="#262626" stroke-linecap="butt" stroke-linejoin="miter" stroke-width="0.5"/>
   <polyline fill="none" points="49.0086,222.741 51.9129,222.741" stroke="#262626" stroke-linecap="butt" stroke-linejoin="miter" stroke-width="0.5"/>
   <polyline fill="none" points="339.226,222.741 336.322,222.741" stroke="#262626" stroke-linecap="butt" stroke-linejoin="miter" stroke-width="0.5"/>
   <polyline fill="none" points="49.0086,201.799 51.9129,201.799" stroke="#262626" stroke-linecap="butt" stroke-linejoin="miter" stroke-width="0.5"/>
   <polyline fill="none" points="339.226,201.799 336.322,201.799" stroke="#262626" stroke-linecap="butt" stroke-linejoin="miter" stroke-width="0.5"/>
   <polyline fill="none" points="49.0086,180.858 51.9129,180.858" stroke="#262626" stroke-linecap="butt" stroke-linejoin="miter" stroke-width="0.5"/>
   <polyline fill="none" points="339.226,180.858 336.322,180.858" stroke="#262626" stroke-linecap="butt" stroke-linejoin="miter" stroke-width="0.5"/>
   <g font-family="FreeSans" font-size="10" font-style="normal" font-weight="normal" transform="translate(17.0048,289.565) rotate(-0,27,-4)" xml:space="preserve">
    <text fill="rgb(38,38,38)" x="0 3 9 15 21 " y="-0">-8000</text>
   </g>
   <g font-family="FreeSans" font-size="10" font-style="normal" font-weight="normal" transform="translate(17.0048,268.624) rotate(-0,27,-4)" xml:space="preserve">
    <text fill="rgb(38,38,38)" x="0 3 9 15 21 " y="-0">-6000</text>
   </g>
   <g font-family="FreeSans" font-size="10" font-style="normal" font-weight="normal" transform="translate(17.0048,247.682) rotate(-0,27,-4)" xml:space="preserve">
    <text fill="rgb(38,38,38)" x="0 3 9 15 21 " y="-0">-4000</text>
   </g>
   <g font-family="FreeSans" font-size="10" font-style="normal" font-weight="normal" transform="translate(17.0048,226.741) rotate(-0,27,-4)" xml:space="preserve">
    <text fill="rgb(38,38,38)" x="0 3 9 15 21 " y="-0">-2000</text>
   </g>
   <g font-family="FreeSans" font-size="10" font-style="normal" font-weight="normal" transform="translate(38.0048,205.799) rotate(-0,6,-4)" xml:space="preserve">
    <text fill="rgb(38,38,38)" x="0 " y="-0">0</text>
   </g>
   <g font-family="FreeSans" font-size="10" font-style="normal" font-weight="normal" transform="translate(20.0048,184.858) rotate(-0,24,-4)" xml:space="preserve">
    <text fill="rgb(38,38,38)" x="0 6 12 18 " y="-0">2000</text>
   </g>
   <polyline fill="none" points="49.0086,285.565 339.226,285.565" stroke="#262626" stroke-dasharray="16,0" stroke-linecap="square" stroke-linejoin="miter" stroke-width="0.5"/>
   <polyline fill="none" points="49.0086,180.858 339.226,180.858" stroke="#262626" stroke-dasharray="16,0" stroke-linecap="square" stroke-linejoin="miter" stroke-width="0.5"/>
   <polyline fill="none" points="49.0086,285.565 49.0086,180.858" stroke="#262626" stroke-dasharray="16,0" stroke-linecap="square" stroke-linejoin="miter" stroke-width="0.5"/>
   <polyline fill="none" points="339.226,285.565 339.226,180.858" stroke="#262626" stroke-dasharray="16,0" stroke-linecap="square" stroke-linejoin="miter" stroke-width="0.5"/>
   <g font-family="FreeSans" font-size="11" font-style="normal" font-weight="normal" transform="translate(-17.4952,233.211) rotate(-90,29.5,0)" xml:space="preserve">
    <text fill="rgb(38,38,38)" x="0 7 13 19 24 30 33 37 43 49 55 " y="-3">Phase (deg)</text>
   </g>
   <g font-family="FreeSans" font-size="11" font-style="normal" font-weight="normal" transform="translate(102.118,318.044) rotate(-0,92,-12)" xml:space="preserve">
    <text fill="rgb(38,38,38)" x="0 8 14 18 27 33 35 37 42 48 54 57 64 68 74 80 86 92 98 104 109 112 116 122 124 127 131 137 143 146 151 157 166 172 174 180 " y="-3">Normalized Frequency (pi rad/sample)</text>
   </g>
   <polyline fill="none" points="49.0086,201.799 49.5754,201.937 50.1422,202.075 50.7091,202.213 51.2759,202.35 51.8427,202.488 52.4096,202.625 52.9764,202.763 53.5432,202.9 54.1101,203.037 54.6769,203.174 55.2437,203.311 55.8106,203.448 56.3774,203.585 56.9442,203.722 57.5111,203.859 58.0779,203.996 58.6447,204.133 59.2116,204.27 59.7784,204.407 60.3452,204.544 60.912,204.682 61.4789,204.819 62.0457,204.957 62.6125,205.094 63.1794,205.232 63.7462,205.37 64.313,205.507 64.8799,205.645 65.4467,205.783 66.0135,205.92 66.5804,206.058 67.1472,206.195 67.714,206.332 68.2809,206.469 68.8477,206.606 69.4145,206.743 69.9813,206.88 70.5482,207.016 71.115,207.153 71.6818,207.29 72.2487,207.426 72.8155,207.563 73.3823,207.7 73.9492,207.836 74.516,207.973 75.0828,208.11 75.6497,208.247 76.2165,208.385 76.7833,208.522 77.3502,208.659 77.917,208.796 78.4838,208.933 79.0507,209.071 79.6175,209.208 80.1843,209.345 80.7512,209.482 81.318,209.619 81.8848,209.755 82.4517,209.892 83.0185,210.029 83.5853,210.165 84.1521,210.301 84.719,210.437 85.2858,210.574 85.8526,210.71 86.4195,210.846 86.9863,210.982 87.5531,211.118 88.12,211.254 88.6868,211.39 89.2536,211.526 89.8205,211.662 90.3873,211.799 90.9541,211.935 91.521,212.071 92.0878,212.208 92.6546,212.344 93.2215,212.48 93.7883,212.616 94.3551,212.753 94.922,212.889 95.4888,213.024 96.0556,213.16 96.6225,213.296 97.1893,213.431 97.7561,213.567 98.3229,213.702 98.8898,213.837 99.4566,213.972 100.023,214.107 100.59,214.242 101.157,214.377 101.724,214.512 102.291,214.647 102.858,214.781 103.424,214.916 103.991,215.051 104.558,215.185 105.125,215.32 105.692,215.454 106.259,215.588 106.825,215.722 107.392,215.857 107.959,215.99 108.526,216.124 109.093,216.258 109.66,216.391 110.226,216.525 110.793,216.658 111.36,216.791 111.927,216.924 112.494,217.056 113.061,217.189 113.627,217.321 114.194,217.453 114.761,217.585 115.328,217.717 115.895,217.849 116.462,217.98 117.028,218.111 117.595,218.242 118.162,218.373 118.729,218.503 119.296,218.633 119.863,218.763 120.429,218.892 120.996,219.021 121.563,219.149 122.13,219.277 122.697,219.404 123.264,219.531 123.83,219.657 124.397,219.783 124.964,219.908 125.531,220.033 126.098,220.157 126.665,220.281 127.231,220.404 127.798,220.527 128.365,220.65 128.932,220.771 129.499,220.893 130.066,221.013 130.632,221.133 131.199,221.251 131.766,221.369 132.333,221.485 132.9,221.6 133.467,221.713 134.033,221.825 134.6,221.934 135.167,222.042 135.734,222.147 136.301,222.25 136.868,222.351 137.434,222.449 138.001,222.544 138.568,222.637 139.135,222.727 139.702,222.815 140.268,222.9 140.835,222.983 141.402,223.063 141.969,223.14 142.536,223.215 143.103,223.288 143.669,223.357 144.236,223.422 144.803,223.484 145.37,223.542 145.937,223.597 146.504,223.647 147.07,223.695 147.637,223.74 148.204,223.786 148.771,223.832 149.338,223.881 149.905,223.934 150.471,223.991 151.038,224.053 151.605,224.119 152.172,224.189 152.739,224.263 153.306,224.34 153.872,224.419 154.439,224.5 155.006,224.583 155.573,224.666 156.14,224.749 156.707,224.833 157.273,224.917 157.84,225.001 158.407,225.084 158.974,225.167 159.541,225.25 160.108,225.332 160.674,225.415 161.241,225.497 161.808,225.579 162.375,225.66 162.942,225.742 163.509,225.822 164.075,225.902 164.642,225.981 165.209,226.057 165.776,226.132 166.343,226.205 166.91,226.275 167.476,226.341 168.043,226.405 168.61,226.465 169.177,226.524 169.744,226.58 170.311,226.635 170.877,226.69 171.444,226.746 172.011,226.804 172.578,226.865 173.145,226.928 173.712,226.995 174.278,227.065 174.845,227.138 175.412,227.214 175.979,227.293 176.546,227.374 177.113,227.458 177.679,227.544 178.246,227.632 178.813,227.722 179.38,227.814 179.947,227.909 180.514,228.006 181.08,228.104 181.647,228.205 182.214,228.308 182.781,228.414 183.348,228.521 183.915,228.63 184.481,228.74 185.048,228.853 185.615,228.967 186.182,229.082 186.749,229.199 187.316,229.317 187.882,229.436 188.449,229.555 189.016,229.676 189.583,229.798 190.15,229.92 190.717,230.042 191.283,230.166 191.85,230.29 192.417,230.414 192.984,230.539 193.551,230.665 194.118,230.79 194.684,230.917 195.251,231.044 195.818,231.171 196.385,231.299 196.952,231.427 197.519,231.556 198.085,231.685 198.652,231.814 199.219,231.944 199.786,232.075 200.353,232.205 200.919,232.336 201.486,232.468 202.053,232.599 202.62,232.731 203.187,232.863 203.754,232.995 204.32,233.127 204.887,233.26 205.454,233.392 206.021,233.525 206.588,233.658 207.155,233.791 207.721,233.925 208.288,234.058 208.855,234.192 209.422,234.325 209.989,234.459 210.556,234.593 211.122,234.727 211.689,234.862 212.256,234.996 212.823,235.131 213.39,235.265 213.957,235.4 214.523,235.535 215.09,235.67 215.657,235.805 216.224,235.94 216.791,236.075 217.358,236.21 217.924,236.346 218.491,236.481 219.058,236.616 219.625,236.752 220.192,236.888 220.759,237.023 221.325,237.159 221.892,237.295 222.459,237.431 223.026,237.567 223.593,237.703 224.16,237.839 224.726,237.976 225.293,238.112 225.86,238.248 226.427,238.385 226.994,238.521 227.561,238.658 228.127,238.795 228.694,238.931 229.261,239.068 229.828,239.204 230.395,239.341 230.962,239.478 231.528,239.614 232.095,239.751 232.662,239.888 233.229,240.024 233.796,240.161 234.363,240.298 234.929,240.435 235.496,240.572 236.063,240.709 236.63,240.846 237.197,240.983 237.764,241.12 238.33,241.257 238.897,241.395 239.464,241.532 240.031,241.67 240.598,241.807 241.165,241.945 241.731,242.082 242.298,242.22 242.865,242.357 243.432,242.495 243.999,242.632 244.566,242.769 245.132,242.907 245.699,243.044 246.266,243.182 246.833,243.319 247.4,243.456 247.967,243.594 248.533,243.731 249.1,243.869 249.667,244.007 250.234,244.144 250.801,244.282 251.368,244.42 251.934,244.557 252.501,244.695 253.068,244.833 253.635,244.971 254.202,245.109 254.769,245.247 255.335,245.385 255.902,245.523 256.469,245.662 257.036,245.8 257.603,245.938 258.17,246.076 258.736,246.214 259.303,246.352 259.87,246.489 260.437,246.627 261.004,246.765 261.571,246.903 262.137,247.041 262.704,247.179 263.271,247.317 263.838,247.455 264.405,247.593 264.971,247.731 265.538,247.869 266.105,248.007 266.672,248.145 267.239,248.284 267.806,248.422 268.372,248.56 268.939,248.699 269.506,248.837 270.073,248.976 270.64,249.114 271.207,249.252 271.773,249.391 272.34,249.529 272.907,249.667 273.474,249.806 274.041,249.944 274.608,250.082 275.174,250.22 275.741,250.359 276.308,250.497 276.875,250.635 277.442,250.773 278.009,250.911 278.575,251.05 279.142,251.188 279.709,251.326 280.276,251.465 280.843,251.603 281.41,251.742 281.976,251.88 282.543,252.019 283.11,252.157 283.677,252.296 284.244,252.434 284.811,252.573 285.377,252.712 285.944,252.85 286.511,252.989 287.078,253.127 287.645,253.266 288.212,253.404 288.778,253.543 289.345,253.681 289.912,253.82 290.479,253.958 291.046,254.096 291.613,254.235 292.179,254.373 292.746,254.512 293.313,254.65 293.88,254.789 294.447,254.927 295.014,255.066 295.58,255.204 296.147,255.343 296.714,255.482 297.281,255.62 297.848,255.759 298.415,255.898 298.981,256.036 299.548,256.175 300.115,256.314 300.682,256.453 301.249,256.591 301.816,256.73 302.382,256.869 302.949,257.007 303.516,257.146 304.083,257.284 304.65,257.423 305.217,257.562 305.783,257.7 306.35,257.839 306.917,257.977 307.484,258.116 308.051,258.254 308.618,258.393 309.184,258.532 309.751,258.67 310.318,258.809 310.885,258.948 311.452,259.087 312.019,259.225 312.585,259.364 313.152,259.503 313.719,259.642 314.286,259.78 314.853,259.919 315.42,260.058 315.986,260.197 316.553,260.335 317.12,260.474 317.687,260.613 318.254,260.751 318.821,260.89 319.387,261.029 319.954,261.167 320.521,261.306 321.088,261.445 321.655,261.584 322.222,261.722 322.788,261.861 323.355,262 323.922,262.138 324.489,262.277 325.056,262.416 325.623,262.555 326.189,262.693 326.756,262.832 327.323,262.971 327.89,263.11 328.457,263.248 329.023,263.387 329.59,263.526 330.157,263.665 330.724,263.803 331.291,263.942 331.858,264.081 332.424,264.219 332.991,264.358 333.558,264.496 334.125,264.635 334.692,264.773 335.259,264.911 335.825,265.05 336.392,265.188 336.959,265.327 337.526,265.465 338.093,265.603 338.66,265.742" stroke="#0071bc" stroke-linecap="butt" stroke-linejoin="round" stroke-width="0.5"/>
  </g>
 </g>
</svg>
