<?xml version='1.0' encoding='UTF-8' standalone='no'?>
<svg height="470pt" viewBox="0 0 524 470" width="524pt" xmlns="http://www.w3.org/2000/svg" xmlns:xlink="http://www.w3.org/1999/xlink">
 <title>Figure 8</title>
 <desc>
Creator: GL2PS 1.4.2, (C) 1999-2020 C. Geuzaine
For: Octave
CreationDate: Thu Feb 12 12:40:22 2026
</desc>
 <defs/>
 <polygon fill="#ffffff" points="0,0 524,0 524,470 0,470"/>
 <g>
  <polygon fill="#ffffff" points="0,470 524,470 524,0 0,0" shape-rendering="crispEdges"/>
  <clipPath id="cp00524470">
   <polygon points="0,470 524,470 524,0 0,0"/>
  </clipPath>
  <g clip-path="url(#cp00524470)">
   <polygon fill="#ffffff" points="68.2201,419.007 474.917,419.007 474.917,35.3095 68.2201,35.3095" shape-rendering="crispEdges"/>
   <polyline fill="none" points="68.2201,419.007 68.2201,414.943" stroke="#262626" stroke-linecap="butt" stroke-linejoin="miter" stroke-width="0.5"/>
   <polyline fill="none" points="68.2201,35.3095 68.2201,39.3733" stroke="#262626" stroke-linecap="butt" stroke-linejoin="miter" stroke-width="0.5"/>
   <polyline fill="none" points="149.56,419.007 149.56,414.943" stroke="#262626" stroke-linecap="butt" stroke-linejoin="miter" stroke-width="0.5"/>
   <polyline fill="none" points="149.56,35.3095 149.56,39.3733" stroke="#262626" stroke-linecap="butt" stroke-linejoin="miter" stroke-width="0.5"/>
   <polyline fill="none" points="230.899,419.007 230.899,414.943" stroke="#262626" stroke-linecap="butt" stroke-linejoin="miter" stroke-width="0.5"/>
   <polyline fill="none" points="230.899,35.3095 230.899,39.3733" stroke="#262626" stroke-linecap="butt" stroke-linejoin="miter" stroke-width="0.5"/>
   <polyline fill="none" points="312.238,419.007 312.238,414.943" stroke="#262626" stroke-linecap="butt" stroke-linejoin="miter" stroke-width="0.5"/>
   <polyline fill="none" points="312.238,35.3095 312.238,39.3733" stroke="#262626" stroke-linecap="butt" stroke-linejoin="miter" stroke-width="0.5"/>
   <polyline fill="none" points="393.578,419.007 393.578,414.943" stroke="#262626" stroke-linecap="butt" stroke-linejoin="miter" stroke-width="0.5"/>
   <polyline fill="none" points="393.578,35.3095 393.578,39.3733" stroke="#262626" stroke-linecap="butt" stroke-linejoin="miter" stroke-width="0.5"/>
   <polyline fill="none" points="474.917,419.007 474.917,414.943" stroke="#262626" stroke-linecap="butt" stroke-linejoin="miter" stroke-width="0.5"/>
   <polyline fill="none" points="474.917,35.3095 474.917,39.3733" stroke="#262626" stroke-linecap="butt" stroke-linejoin="miter" stroke-width="0.5"/>
   <g font-family="FreeSans" font-size="10" font-style="normal" font-weight="normal" transform="translate(65.2201,434.501) rotate(-0,3,-8)" xml:space="preserve">
    <text fill="rgb(38,38,38)" x="0 " y="-0">0</text>
   </g>
   <g font-family="FreeSans" font-size="10" font-style="normal" font-weight="normal" transform="translate(142.06,434.501) rotate(-0,7.5,-8)" xml:space="preserve">
    <text fill="rgb(38,38,38)" x="0 6 9 " y="-0">0.2</text>
   </g>
   <g font-family="FreeSans" font-size="10" font-style="normal" font-weight="normal" transform="translate(223.399,434.501) rotate(-0,7.5,-8)" xml:space="preserve">
    <text fill="rgb(38,38,38)" x="0 6 9 " y="-0">0.4</text>
   </g>
   <g font-family="FreeSans" font-size="10" font-style="normal" font-weight="normal" transform="translate(304.738,434.501) rotate(-0,7.5,-8)" xml:space="preserve">
    <text fill="rgb(38,38,38)" x="0 6 9 " y="-0">0.6</text>
   </g>
   <g font-family="FreeSans" font-size="10" font-style="normal" font-weight="normal" transform="translate(386.078,434.501) rotate(-0,7.5,-8)" xml:space="preserve">
    <text fill="rgb(38,38,38)" x="0 6 9 " y="-0">0.8</text>
   </g>
   <g font-family="FreeSans" font-size="10" font-style="normal" font-weight="normal" transform="translate(471.917,434.501) rotate(-0,3,-8)" xml:space="preserve">
    <text fill="rgb(38,38,38)" x="0 " y="-0">1</text>
   </g>
   <polyline fill="none" points="68.2201,419.007 72.2841,419.007" stroke="#262626" stroke-linecap="butt" stroke-linejoin="miter" stroke-width="0.5"/>
   <polyline fill="none" points="474.917,419.007 470.853,419.007" stroke="#262626" stroke-linecap="butt" stroke-linejoin="miter" stroke-width="0.5"/>
   <polyline fill="none" points="68.2201,364.193 72.2841,364.193" stroke="#262626" stroke-linecap="butt" stroke-linejoin="miter" stroke-width="0.5"/>
   <polyline fill="none" points="474.917,364.193 470.853,364.193" stroke="#262626" stroke-linecap="butt" stroke-linejoin="miter" stroke-width="0.5"/>
   <polyline fill="none" points="68.2201,309.379 72.2841,309.379" stroke="#262626" stroke-linecap="butt" stroke-linejoin="miter" stroke-width="0.5"/>
   <polyline fill="none" points="474.917,309.379 470.853,309.379" stroke="#262626" stroke-linecap="butt" stroke-linejoin="miter" stroke-width="0.5"/>
   <polyline fill="none" points="68.2201,254.565 72.2841,254.565" stroke="#262626" stroke-linecap="butt" stroke-linejoin="miter" stroke-width="0.5"/>
   <polyline fill="none" points="474.917,254.565 470.853,254.565" stroke="#262626" stroke-linecap="butt" stroke-linejoin="miter" stroke-width="0.5"/>
   <polyline fill="none" points="68.2201,199.751 72.2841,199.751" stroke="#262626" stroke-linecap="butt" stroke-linejoin="miter" stroke-width="0.5"/>
   <polyline fill="none" points="474.917,199.751 470.853,199.751" stroke="#262626" stroke-linecap="butt" stroke-linejoin="miter" stroke-width="0.5"/>
   <polyline fill="none" points="68.2201,144.937 72.2841,144.937" stroke="#262626" stroke-linecap="butt" stroke-linejoin="miter" stroke-width="0.5"/>
   <polyline fill="none" points="474.917,144.937 470.853,144.937" stroke="#262626" stroke-linecap="butt" stroke-linejoin="miter" stroke-width="0.5"/>
   <polyline fill="none" points="68.2201,90.1234 72.2841,90.1234" stroke="#262626" stroke-linecap="butt" stroke-linejoin="miter" stroke-width="0.5"/>
   <polyline fill="none" points="474.917,90.1234 470.853,90.1234" stroke="#262626" stroke-linecap="butt" stroke-linejoin="miter" stroke-width="0.5"/>
   <polyline fill="none" points="68.2201,35.3095 72.2841,35.3095" stroke="#262626" stroke-linecap="butt" stroke-linejoin="miter" stroke-width="0.5"/>
   <polyline fill="none" points="474.917,35.3095 470.853,35.3095" stroke="#262626" stroke-linecap="butt" stroke-linejoin="miter" stroke-width="0.5"/>
   <g font-family="FreeSans" font-size="10" font-style="normal" font-weight="normal" transform="translate(57.2239,423.007) rotate(-0,6,-4)" xml:space="preserve">
    <text fill="rgb(38,38,38)" x="0 " y="-0">0</text>
   </g>
   <g font-family="FreeSans" font-size="10" font-style="normal" font-weight="normal" transform="translate(51.2239,368.193) rotate(-0,12,-4)" xml:space="preserve">
    <text fill="rgb(38,38,38)" x="0 6 " y="-0">20</text>
   </g>
   <g font-family="FreeSans" font-size="10" font-style="normal" font-weight="normal" transform="translate(51.2239,313.379) rotate(-0,12,-4)" xml:space="preserve">
    <text fill="rgb(38,38,38)" x="0 6 " y="-0">40</text>
   </g>
   <g font-family="FreeSans" font-size="10" font-style="normal" font-weight="normal" transform="translate(51.2239,258.565) rotate(-0,12,-4)" xml:space="preserve">
    <text fill="rgb(38,38,38)" x="0 6 " y="-0">60</text>
   </g>
   <g font-family="FreeSans" font-size="10" font-style="normal" font-weight="normal" transform="translate(51.2239,203.751) rotate(-0,12,-4)" xml:space="preserve">
    <text fill="rgb(38,38,38)" x="0 6 " y="-0">80</text>
   </g>
   <g font-family="FreeSans" font-size="10" font-style="normal" font-weight="normal" transform="translate(45.2239,148.937) rotate(-0,18,-4)" xml:space="preserve">
    <text fill="rgb(38,38,38)" x="0 6 12 " y="-0">100</text>
   </g>
   <g font-family="FreeSans" font-size="10" font-style="normal" font-weight="normal" transform="translate(45.2239,94.1234) rotate(-0,18,-4)" xml:space="preserve">
    <text fill="rgb(38,38,38)" x="0 6 12 " y="-0">120</text>
   </g>
   <g font-family="FreeSans" font-size="10" font-style="normal" font-weight="normal" transform="translate(45.2239,39.3095) rotate(-0,18,-4)" xml:space="preserve">
    <text fill="rgb(38,38,38)" x="0 6 12 " y="-0">140</text>
   </g>
   <polyline fill="none" points="68.2201,419.007 474.917,419.007" stroke="#262626" stroke-dasharray="16,0" stroke-linecap="square" stroke-linejoin="miter" stroke-width="0.5"/>
   <polyline fill="none" points="68.2201,35.3095 474.917,35.3095" stroke="#262626" stroke-dasharray="16,0" stroke-linecap="square" stroke-linejoin="miter" stroke-width="0.5"/>
   <polyline fill="none" points="68.2201,419.007 68.2201,35.3095" stroke="#262626" stroke-dasharray="16,0" stroke-linecap="square" stroke-linejoin="miter" stroke-width="0.5"/>
   <polyline fill="none" points="474.917,419.007 474.917,35.3095" stroke="#262626" stroke-dasharray="16,0" stroke-linecap="square" stroke-linejoin="miter" stroke-width="0.5"/>
   <g font-family="FreeSans" font-size="11" font-style="normal" font-weight="bold" transform="translate(35.5686,25.3095) rotate(-0,236,0)" xml:space="preserve">
    <text fill="rgb(0,0,0)" x="0 8 12 19 26 33 36 44 50 53 59 65 68 75 79 82 89 92 100 103 110 113 116 120 126 130 133 136 143 147 154 160 164 170 176 182 188 191 194 204 210 216 223 226 232 236 240 243 247 250 256 260 266 272 275 281 287 293 299 305 311 317 320 323 333 339 345 352 355 361 365 369 372 381 387 390 397 404 408 414 421 427 433 436 442 448 454 460 466 " y="-3">Group Delay of FIR Filter, order=241, mean err flat=0.0347462, mean err weighted=0.033691</text>
   </g>
   <polyline fill="none" points="68.2201,417.128 69.0145,417.128 69.8088,417.128 70.6031,417.127 71.3975,417.126 72.1918,417.125 72.9861,417.124 73.7804,417.122 74.5748,417.12 75.3691,417.117 76.1635,417.115 76.9578,417.112 77.7521,417.108 78.5464,417.105 79.3408,417.101 80.1351,417.097 80.9294,417.093 81.7238,417.088 82.5181,417.083 83.3124,417.078 84.1067,417.072 84.9011,417.066 85.6954,417.06 86.4897,417.054 87.2841,417.047 88.0784,417.04 88.8727,417.032 89.6671,417.024 90.4614,417.016 91.2557,417.008 92.05,416.999 92.8444,416.99 93.6387,416.98 94.433,416.97 95.2274,416.96 96.0217,416.949 96.816,416.938 97.6104,416.927 98.4047,416.915 99.199,416.903 99.9933,416.89 100.788,416.877 101.582,416.864 102.376,416.85 103.171,416.835 103.965,416.82 104.759,416.805 105.554,416.789 106.348,416.773 107.142,416.756 107.937,416.739 108.731,416.721 109.525,416.703 110.32,416.684 111.114,416.665 111.908,416.645 112.703,416.624 113.497,416.603 114.291,416.581 115.086,416.559 115.88,416.535 116.674,416.512 117.469,416.487 118.263,416.462 119.057,416.436 119.852,416.409 120.646,416.382 121.44,416.353 122.235,416.324 123.029,416.294 123.823,416.263 124.618,416.231 125.412,416.199 126.206,416.165 127.001,416.13 127.795,416.095 128.589,416.058 129.384,416.02 130.178,415.981 130.972,415.94 131.767,415.899 132.561,415.856 133.355,415.812 134.15,415.767 134.944,415.72 135.738,415.671 136.533,415.621 137.327,415.57 138.121,415.517 138.916,415.462 139.71,415.405 140.504,415.347 141.299,415.286 142.093,415.224 142.887,415.159 143.681,415.092 144.476,415.023 145.27,414.952 146.064,414.878 146.859,414.802 147.653,414.722 148.447,414.64 149.242,414.555 150.036,414.467 150.83,414.375 151.625,414.28 152.419,414.182 153.213,414.08 154.008,413.973 154.802,413.863 155.596,413.748 156.391,413.628 157.185,413.504 157.979,413.374 158.774,413.239 159.568,413.098 160.362,412.951 161.157,412.798 161.951,412.638 162.745,412.47 163.54,412.295 164.334,412.111 165.128,411.919 165.923,411.717 166.717,411.506 167.511,411.284 168.306,411.05 169.1,410.805 169.894,410.546 170.689,410.273 171.483,409.985 172.277,409.681 173.072,409.359 173.866,409.018 174.66,408.656 175.455,408.272 176.249,407.863 177.043,407.427 177.838,406.962 178.632,406.464 179.426,405.932 180.221,405.36 181.015,404.744 181.809,404.081 182.604,403.364 183.398,402.586 184.192,401.742 184.987,400.822 185.781,399.816 186.575,398.714 187.37,397.501 188.164,396.163 188.958,394.682 189.753,393.037 190.547,391.204 191.341,389.157 192.136,386.866 192.93,384.302 193.724,381.433 194.519,378.233 195.313,374.689 196.107,370.809 196.902,366.637 197.696,362.275 198.49,357.898 199.285,353.759 200.079,350.178 200.873,347.485 201.668,345.945 202.462,345.673 203.256,346.598 204.051,348.49 204.845,351.03 205.639,353.899 206.434,356.83 207.228,359.637 208.022,362.211 208.817,364.499 209.611,366.491 210.405,368.2 211.2,369.651 211.994,370.875 212.788,371.902 213.583,372.76 214.377,373.474 215.171,374.065 215.966,374.549 216.76,374.94 217.554,375.249 218.349,375.483 219.143,375.649 219.937,375.75 220.731,375.791 221.526,375.772 222.32,375.696 223.114,375.56 223.909,375.366 224.703,375.109 225.497,374.785 226.292,374.39 227.086,373.915 227.88,373.35 228.675,372.684 229.469,371.901 230.263,370.987 231.058,369.925 231.852,368.699 232.646,367.3 233.441,365.724 234.235,363.984 235.029,362.112 235.824,360.17 236.618,358.255 237.412,356.503 238.207,355.078 239.001,354.157 239.795,353.898 240.59,354.406 241.384,355.706 242.178,357.737 242.973,360.363 243.767,363.411 244.561,366.7 245.356,370.069 246.15,373.392 246.944,376.581 247.739,379.581 248.533,382.363 249.327,384.92 250.122,387.256 250.916,389.38 251.71,391.31 252.505,393.062 253.299,394.653 254.093,396.099 254.888,397.417 255.682,398.619 256.476,399.718 257.271,400.725 258.065,401.651 258.859,402.503 259.654,403.289 260.448,404.016 261.242,404.69 262.037,405.316 262.831,405.898 263.625,406.441 264.42,406.949 265.214,407.423 266.008,407.868 266.803,408.286 267.597,408.679 268.391,409.048 269.186,409.397 269.98,409.726 270.774,410.037 271.569,410.332 272.363,410.611 273.157,410.875 273.952,411.126 274.746,411.365 275.54,411.592 276.335,411.809 277.129,412.015 277.923,412.212 278.718,412.4 279.512,412.579 280.306,412.751 281.101,412.915 281.895,413.072 282.689,413.223 283.484,413.367 284.278,413.506 285.072,413.639 285.867,413.767 286.661,413.89 287.455,414.008 288.25,414.122 289.044,414.232 289.838,414.337 290.633,414.439 291.427,414.537 292.221,414.631 293.016,414.723 293.81,414.811 294.604,414.896 295.399,414.978 296.193,415.058 296.987,415.135 297.781,415.209 298.576,415.281 299.37,415.351 300.164,415.418 300.959,415.484 301.753,415.547 302.547,415.609 303.342,415.669 304.136,415.726 304.93,415.783 305.725,415.837 306.519,415.89 307.313,415.942 308.108,415.992 308.902,416.04 309.696,416.087 310.491,416.133 311.285,416.178 312.079,416.221 312.874,416.264 313.668,416.305 314.462,416.345 315.257,416.384 316.051,416.422 316.845,416.459 317.64,416.495 318.434,416.53 319.228,416.565 320.023,416.598 320.817,416.631 321.611,416.663 322.406,416.694 323.2,416.724 323.994,416.754 324.789,416.783 325.583,416.811 326.377,416.838 327.172,416.865 327.966,416.892 328.76,416.917 329.555,416.942 330.349,416.967 331.143,416.991 331.938,417.014 332.732,417.037 333.526,417.06 334.321,417.082 335.115,417.103 335.909,417.124 336.704,417.145 337.498,417.165 338.292,417.185 339.087,417.204 339.881,417.223 340.675,417.241 341.47,417.259 342.264,417.277 343.058,417.295 343.853,417.312 344.647,417.328 345.441,417.345 346.236,417.361 347.03,417.376 347.824,417.392 348.619,417.407 349.413,417.422 350.207,417.436 351.002,417.45 351.796,417.464 352.59,417.478 353.385,417.491 354.179,417.505 354.973,417.518 355.768,417.53 356.562,417.543 357.356,417.555 358.151,417.567 358.945,417.579 359.739,417.59 360.534,417.602 361.328,417.613 362.122,417.624 362.917,417.634 363.711,417.645 364.505,417.655 365.3,417.665 366.094,417.675 366.888,417.685 367.683,417.695 368.477,417.704 369.271,417.714 370.066,417.723 370.86,417.732 371.654,417.741 372.449,417.749 373.243,417.758 374.037,417.766 374.832,417.774 375.626,417.782 376.42,417.79 377.215,417.798 378.009,417.806 378.803,417.813 379.597,417.821 380.392,417.828 381.186,417.835 381.98,417.842 382.775,417.849 383.569,417.856 384.363,417.863 385.158,417.869 385.952,417.876 386.746,417.882 387.541,417.888 388.335,417.894 389.129,417.9 389.924,417.906 390.718,417.912 391.512,417.918 392.307,417.924 393.101,417.929 393.895,417.935 394.69,417.94 395.484,417.945 396.278,417.95 397.073,417.955 397.867,417.96 398.661,417.965 399.456,417.97 400.25,417.975 401.044,417.98 401.839,417.984 402.633,417.989 403.427,417.993 404.222,417.998 405.016,418.002 405.81,418.006 406.605,418.01 407.399,418.014 408.193,418.018 408.988,418.022 409.782,418.026 410.576,418.03 411.371,418.034 412.165,418.037 412.959,418.041 413.754,418.044 414.548,418.048 415.342,418.051 416.137,418.055 416.931,418.058 417.725,418.061 418.52,418.064 419.314,418.067 420.108,418.07 420.903,418.073 421.697,418.076 422.491,418.079 423.286,418.082 424.08,418.085 424.874,418.087 425.669,418.09 426.463,418.093 427.257,418.095 428.052,418.098 428.846,418.1 429.64,418.102 430.435,418.105 431.229,418.107 432.023,418.109 432.818,418.112 433.612,418.114 434.406,418.116 435.201,418.118 435.995,418.12 436.789,418.122 437.584,418.124 438.378,418.126 439.172,418.127 439.967,418.129 440.761,418.131 441.555,418.133 442.35,418.134 443.144,418.136 443.938,418.137 444.733,418.139 445.527,418.14 446.321,418.142 447.116,418.143 447.91,418.144 448.704,418.146 449.499,418.147 450.293,418.148 451.087,418.149 451.882,418.151 452.676,418.152 453.47,418.153 454.264,418.154 455.059,418.155 455.853,418.156 456.647,418.157 457.442,418.157 458.236,418.158 459.03,418.159 459.825,418.16 460.619,418.16 461.413,418.161 462.208,418.162 463.002,418.162 463.796,418.163 464.591,418.163 465.385,418.164 466.179,418.164 466.974,418.165 467.768,418.165 468.562,418.165 469.357,418.166 470.151,418.166 470.945,418.166 471.74,418.166 472.534,418.166 473.328,418.166 474.123,418.166" stroke="#0071bc" stroke-linecap="butt" stroke-linejoin="round" stroke-width="0.5"/>
   <polyline fill="none" points="68.2201,94.743 69.0145,94.7428 69.8088,94.7426 70.6031,94.7426 71.3975,94.7431 72.1918,94.7445 72.9861,94.7466 73.7804,94.7492 74.5748,94.7517 75.3691,94.7541 76.1635,94.7563 76.9578,94.7584 77.7521,94.761 78.5464,94.7644 79.3408,94.7686 80.1351,94.7734 80.9294,94.7784 81.7238,94.7834 82.5181,94.7881 83.3124,94.7927 84.1067,94.7975 84.9011,94.8029 85.6954,94.8092 86.4897,94.8164 87.2841,94.824 88.0784,94.8317 88.8727,94.8392 89.6671,94.8465 90.4614,94.8537 91.2557,94.8615 92.05,94.8701 92.8444,94.8798 93.6387,94.8901 94.433,94.9008 95.2274,94.9114 96.0217,94.9218 96.816,94.9319 97.6104,94.9424 98.4047,94.9536 99.199,94.966 99.9933,94.9794 100.788,94.9934 101.582,95.0076 102.376,95.0215 103.171,95.0351 103.965,95.0488 104.759,95.0631 105.554,95.0786 106.348,95.0953 107.142,95.1131 107.937,95.1314 108.731,95.1496 109.525,95.1674 110.32,95.1851 111.114,95.2032 111.908,95.2224 112.703,95.2431 113.497,95.2652 114.291,95.2883 115.086,95.3116 115.88,95.3346 116.674,95.3573 117.469,95.3802 118.263,95.404 119.057,95.4294 119.852,95.4566 120.646,95.4854 121.44,95.5148 122.235,95.5443 123.029,95.5734 123.823,95.6024 124.618,95.632 125.412,95.6633 126.206,95.6967 127.001,95.7321 127.795,95.769 128.589,95.8064 129.384,95.8434 130.178,95.8802 130.972,95.9173 131.767,95.9557 132.561,95.9965 133.355,96.0399 134.15,96.0856 134.944,96.1325 135.738,96.1796 136.533,96.2266 137.327,96.2739 138.121,96.3227 138.916,96.3745 139.71,96.4302 140.504,96.4901 141.299,96.553 142.093,96.618 142.887,96.6838 143.681,96.7505 144.476,96.8187 145.27,96.8898 146.064,96.9652 146.859,97.0453 147.653,97.1296 148.447,97.2166 149.242,97.305 150.036,97.394 150.83,97.4843 151.625,97.5775 152.419,97.6754 153.213,97.7794 154.008,97.8899 154.802,98.0054 155.596,98.1245 156.391,98.2459 157.185,98.3696 157.979,98.4969 158.774,98.63 159.568,98.7713 160.362,98.9217 161.157,99.0807 161.951,99.2469 162.745,99.4186 163.54,99.5949 164.334,99.7769 165.128,99.967 165.923,100.168 166.717,100.383 167.511,100.611 168.306,100.853 169.1,101.106 169.894,101.369 170.689,101.643 171.483,101.931 172.277,102.235 173.072,102.561 173.866,102.911 174.66,103.284 175.455,103.682 176.249,104.103 177.043,104.548 177.838,105.02 178.632,105.526 179.426,106.072 180.221,106.663 181.015,107.304 181.809,107.999 182.604,108.749 183.398,109.561 184.192,110.44 184.987,111.399 185.781,112.451 186.575,113.61 187.37,114.89 188.164,116.307 188.958,117.876 189.753,119.616 190.547,121.548 191.341,123.696 192.136,126.085 192.93,128.729 193.724,131.637 194.519,134.798 195.313,138.186 196.107,141.755 196.902,145.435 197.696,149.126 198.49,152.696 199.285,155.974 200.079,158.771 200.873,160.898 201.668,162.214 202.462,162.656 203.256,162.256 204.051,161.131 204.845,159.449 205.639,157.389 206.434,155.121 207.228,152.787 208.022,150.5 208.817,148.346 209.611,146.383 210.405,144.641 211.2,143.126 211.994,141.823 212.788,140.71 213.583,139.761 214.377,138.956 215.171,138.283 215.966,137.732 216.76,137.297 217.554,136.965 218.349,136.719 219.143,136.546 219.937,136.433 220.731,136.376 221.526,136.38 222.32,136.449 223.114,136.589 223.909,136.801 224.703,137.083 225.497,137.435 226.292,137.859 227.086,138.367 227.88,138.972 228.675,139.689 229.469,140.53 230.263,141.501 231.058,142.604 231.852,143.838 232.646,145.197 233.441,146.672 234.235,148.238 235.029,149.853 235.824,151.447 236.618,152.927 237.412,154.182 238.207,155.1 239.001,155.58 239.795,155.545 240.59,154.953 241.384,153.797 242.178,152.11 242.973,149.957 243.767,147.434 244.561,144.651 245.356,141.723 246.15,138.751 246.944,135.822 247.739,132.994 248.533,130.308 249.327,127.785 250.122,125.438 250.916,123.27 251.71,121.279 252.505,119.461 253.299,117.806 254.093,116.3 254.888,114.929 255.682,113.678 256.476,112.532 257.271,111.48 258.065,110.514 258.859,109.626 259.654,108.808 260.448,108.054 261.242,107.357 262.037,106.71 262.831,106.109 263.625,105.549 264.42,105.028 265.214,104.542 266.008,104.088 266.803,103.663 267.597,103.264 268.391,102.887 269.186,102.531 269.98,102.195 270.774,101.878 271.569,101.58 272.363,101.299 273.157,101.032 273.952,100.779 274.746,100.536 275.54,100.304 276.335,100.082 277.129,99.8719 277.923,99.6727 278.718,99.4843 279.512,99.3052 280.306,99.1337 281.101,98.968 281.895,98.8073 282.689,98.6521 283.484,98.5034 284.278,98.3622 285.072,98.2287 285.867,98.102 286.661,97.9805 287.455,97.8623 288.25,97.7464 289.044,97.6329 289.838,97.5229 290.633,97.4179 291.427,97.3185 292.221,97.2247 293.016,97.1349 293.81,97.0475 294.604,96.9611 295.399,96.8753 296.193,96.791 296.987,96.7096 297.781,96.6327 298.576,96.5605 299.37,96.4926 300.164,96.4273 300.959,96.363 301.753,96.2989 302.547,96.2352 303.342,96.1733 304.136,96.1146 304.93,96.0601 305.725,96.0094 306.519,95.9612 307.313,95.9138 308.108,95.8658 308.902,95.817 309.696,95.7681 310.491,95.7208 311.285,95.6764 312.079,95.6354 312.874,95.5969 313.668,95.5595 314.462,95.5216 315.257,95.4825 316.051,95.4426 316.845,95.4031 317.64,95.3656 318.434,95.3311 319.228,95.2994 320.023,95.2693 320.817,95.2392 321.611,95.208 322.406,95.1755 323.2,95.1425 323.994,95.1107 324.789,95.0811 325.583,95.0544 326.377,95.0297 327.172,95.0056 327.966,94.9808 328.76,94.9545 329.555,94.9271 330.349,94.8999 331.143,94.8743 331.938,94.8512 332.732,94.8303 333.526,94.8108 334.321,94.791 335.115,94.7699 335.909,94.7473 336.704,94.7242 337.498,94.7018 338.292,94.6813 339.087,94.6632 339.881,94.6469 340.675,94.6309 341.47,94.614 342.264,94.5957 343.058,94.5761 343.853,94.5566 344.647,94.5384 345.441,94.5222 346.236,94.5081 347.03,94.495 347.824,94.4814 348.619,94.4667 349.413,94.4504 350.207,94.4335 351.002,94.4172 351.796,94.4026 352.59,94.3899 353.385,94.3787 354.179,94.3678 354.973,94.356 355.768,94.3427 356.562,94.3283 357.356,94.3138 358.151,94.3004 358.945,94.2888 359.739,94.2789 360.534,94.2699 361.328,94.2605 362.122,94.2498 362.917,94.2377 363.711,94.225 364.505,94.2128 365.3,94.202 366.094,94.193 366.888,94.1852 367.683,94.1776 368.477,94.1691 369.271,94.1592 370.066,94.1483 370.86,94.1373 371.654,94.1273 372.449,94.1188 373.243,94.1118 374.037,94.1054 374.832,94.0987 375.626,94.0908 376.42,94.0817 377.215,94.072 378.009,94.0627 378.803,94.0546 379.597,94.0481 380.392,94.0425 381.186,94.0371 381.98,94.0309 382.775,94.0235 383.569,94.0151 384.363,94.0067 385.158,93.999 385.952,93.9928 386.746,93.9877 387.541,93.9832 388.335,93.9784 389.129,93.9725 389.924,93.9655 390.718,93.958 391.512,93.9509 392.307,93.9448 393.101,93.94 393.895,93.9361 394.69,93.9322 395.484,93.9276 396.278,93.922 397.073,93.9156 397.867,93.9091 398.661,93.9033 399.456,93.8986 400.25,93.8949 401.044,93.8917 401.839,93.8882 402.633,93.8838 403.427,93.8785 404.222,93.8727 405.016,93.8673 405.81,93.8627 406.605,93.8592 407.399,93.8564 408.193,93.8536 408.988,93.8503 409.782,93.8461 410.576,93.8411 411.371,93.8362 412.165,93.8318 412.959,93.8283 413.754,93.8257 414.548,93.8235 415.342,93.821 416.137,93.8177 416.931,93.8137 417.725,93.8094 418.52,93.8053 419.314,93.8018 420.108,93.7993 420.903,93.7974 421.697,93.7954 422.491,93.793 423.286,93.7899 424.08,93.7862 424.874,93.7826 425.669,93.7793 426.463,93.7769 427.257,93.775 428.052,93.7735 428.846,93.7717 429.64,93.7694 430.435,93.7664 431.229,93.7633 432.023,93.7603 432.818,93.7579 433.612,93.7562 434.406,93.7549 435.201,93.7535 435.995,93.7519 436.789,93.7497 437.584,93.7471 438.378,93.7445 439.172,93.7423 439.967,93.7406 440.761,93.7394 441.555,93.7384 442.35,93.7372 443.144,93.7357 443.938,93.7337 444.733,93.7316 445.527,93.7296 446.321,93.7281 447.116,93.727 447.91,93.7262 448.704,93.7254 449.499,93.7243 450.293,93.7229 451.087,93.7213 451.882,93.7198 452.676,93.7184 453.47,93.7174 454.264,93.7168 455.059,93.7162 455.853,93.7155 456.647,93.7146 457.442,93.7135 458.236,93.7123 459.03,93.7113 459.825,93.7105 460.619,93.71 461.413,93.7096 462.208,93.7092 463.002,93.7087 463.796,93.708 464.591,93.7073 465.385,93.7067 466.179,93.7062 466.974,93.7059 467.768,93.7056 468.562,93.7054 469.357,93.7052 470.151,93.705 470.945,93.7047 471.74,93.7044 472.534,93.7042 473.328,93.7042 474.123,93.7042" stroke="#d85218" stroke-linecap="butt" stroke-linejoin="round" stroke-width="0.5"/>
   <polyline fill="none" points="68.2201,92.8649 69.0145,92.8646 69.8088,92.864 70.6031,92.8633 71.3975,92.8629 72.1918,92.863 72.9861,92.8636 73.7804,92.8643 74.5748,92.8648 75.3691,92.8648 76.1635,92.8643 76.9578,92.8636 77.7521,92.863 78.5464,92.8628 79.3408,92.8632 80.1351,92.8639 80.9294,92.8646 81.7238,92.8649 82.5181,92.8646 83.3124,92.8639 84.1067,92.8631 84.9011,92.8627 85.6954,92.8628 86.4897,92.8634 87.2841,92.8642 88.0784,92.8648 88.8727,92.8648 89.6671,92.8642 90.4614,92.8633 91.2557,92.8626 92.05,92.8624 92.8444,92.8628 93.6387,92.8637 94.433,92.8644 95.2274,92.8648 96.0217,92.8644 96.816,92.8636 97.6104,92.8627 98.4047,92.8621 99.199,92.8622 99.9933,92.8629 100.788,92.8639 101.582,92.8646 102.376,92.8646 103.171,92.8638 103.965,92.8627 104.759,92.8617 105.554,92.8614 106.348,92.8619 107.142,92.863 107.937,92.864 108.731,92.8644 109.525,92.8639 110.32,92.8627 111.114,92.8614 111.908,92.8605 112.703,92.8606 113.497,92.8615 114.291,92.8627 115.086,92.8636 115.88,92.8635 116.674,92.8624 117.469,92.8607 118.263,92.8593 119.057,92.8587 119.852,92.8592 120.646,92.8604 121.44,92.8616 122.235,92.8619 123.029,92.861 123.823,92.8591 124.618,92.857 125.412,92.8554 126.206,92.8551 127.001,92.8559 127.795,92.857 128.589,92.8575 129.384,92.8567 130.178,92.8543 130.972,92.8511 131.767,92.8481 132.561,92.8461 133.355,92.8454 134.15,92.8456 134.944,92.8456 135.738,92.8443 136.533,92.8414 137.327,92.8372 138.121,92.8329 138.916,92.8298 139.71,92.8289 140.504,92.8302 141.299,92.8328 142.093,92.8353 142.887,92.8365 143.681,92.8364 144.476,92.8355 145.27,92.8353 146.064,92.8367 146.859,92.8403 147.653,92.8453 148.447,92.8502 149.242,92.8535 150.036,92.8543 150.83,92.8531 151.625,92.8513 152.419,92.8507 153.213,92.8524 154.008,92.8565 154.802,92.8616 155.596,92.8658 156.391,92.8676 157.185,92.8668 157.979,92.8644 158.774,92.8625 159.568,92.8629 160.362,92.8664 161.157,92.872 161.951,92.8779 162.745,92.882 163.54,92.8831 164.334,92.8816 165.128,92.8795 165.923,92.8791 166.717,92.8821 167.511,92.8885 168.306,92.8966 169.1,92.904 169.894,92.9085 170.689,92.9098 171.483,92.9093 172.277,92.9096 173.072,92.9135 173.866,92.9217 174.66,92.9336 175.455,92.9467 176.249,92.9586 177.043,92.9679 177.838,92.9755 178.632,92.9841 179.426,92.9968 180.221,93.0161 181.015,93.042 181.809,93.0729 182.604,93.1064 183.398,93.1405 184.192,93.1757 184.987,93.2145 185.781,93.2605 186.575,93.3168 187.37,93.3848 188.164,93.4637 188.958,93.5512 189.753,93.6455 190.547,93.7448 191.341,93.8465 192.136,93.9444 192.93,94.0246 193.724,94.0627 194.519,94.0242 195.313,93.8683 196.107,93.5569 196.902,93.0651 197.696,92.3949 198.49,91.5868 199.285,90.7269 200.079,89.9422 200.873,89.3771 201.668,89.1529 202.462,89.3224 203.256,89.8481 204.051,90.6149 204.845,91.4723 205.639,92.281 206.434,92.9441 207.228,93.4176 208.022,93.7045 208.817,93.8389 209.611,93.8674 210.405,93.834 211.2,93.7697 211.994,93.6913 212.788,93.6053 213.583,93.5145 214.377,93.4237 215.171,93.341 215.966,93.2751 216.76,93.2309 217.554,93.207 218.349,93.1958 219.143,93.1879 219.937,93.1765 220.731,93.1609 221.526,93.1459 222.32,93.1385 223.114,93.1432 223.909,93.1602 224.703,93.1852 225.497,93.2135 226.292,93.2429 227.086,93.2754 227.88,93.3155 228.675,93.366 229.469,93.4244 230.263,93.4814 231.058,93.5222 231.852,93.5304 232.646,93.4904 233.441,93.3896 234.235,93.2159 235.029,92.9587 235.824,92.6106 236.618,92.1755 237.412,91.6782 238.207,91.171 239.001,90.7297 239.795,90.4362 240.59,90.3523 241.384,90.4969 242.178,90.8399 242.973,91.3138 243.767,91.8387 244.561,92.3449 245.356,92.7852 246.15,93.1371 246.944,93.396 247.739,93.5679 248.533,93.6643 249.327,93.6991 250.122,93.6871 250.916,93.6437 251.71,93.583 252.505,93.5167 253.299,93.4523 254.093,93.3931 254.888,93.3393 255.682,93.2896 256.476,93.2429 257.271,93.1988 258.065,93.1581 258.859,93.1218 259.654,93.0903 260.448,93.0633 261.242,93.04 262.037,93.0192 262.831,93.0005 263.625,92.9839 264.42,92.9698 265.214,92.9586 266.008,92.9497 266.803,92.9424 267.597,92.9357 268.391,92.9286 269.186,92.9213 269.98,92.9143 270.774,92.9087 271.569,92.9048 272.363,92.9025 273.157,92.9008 273.952,92.8986 274.746,92.8949 275.54,92.89 276.335,92.8847 277.129,92.8804 277.923,92.8779 278.718,92.8774 279.512,92.8778 280.306,92.8779 281.101,92.8764 281.895,92.873 282.689,92.8685 283.484,92.8643 284.278,92.8617 285.072,92.8614 285.867,92.8626 286.661,92.864 287.455,92.864 288.25,92.8619 289.044,92.8579 289.838,92.8535 290.633,92.8501 291.427,92.8488 292.221,92.8495 293.016,92.8511 293.81,92.8518 294.604,92.8505 295.399,92.847 296.193,92.8422 296.987,92.8378 297.781,92.8353 298.576,92.8352 299.37,92.837 300.164,92.8393 300.959,92.8404 301.753,92.8397 302.547,92.8376 303.342,92.8353 304.136,92.8345 304.93,92.8361 305.725,92.84 306.519,92.8448 307.313,92.8488 308.108,92.8508 308.902,92.8506 309.696,92.849 310.491,92.8476 311.285,92.8479 312.079,92.8503 312.874,92.8541 313.668,92.8578 314.462,92.8601 315.257,92.86 316.051,92.8581 316.845,92.8557 317.64,92.8543 318.434,92.855 319.228,92.8576 320.023,92.8609 320.817,92.8635 321.611,92.8642 322.406,92.8627 323.2,92.8601 323.994,92.8578 324.789,92.8572 325.583,92.8586 326.377,92.8615 327.172,92.8643 327.966,92.8658 328.76,92.8652 329.555,92.863 330.349,92.8603 331.143,92.8587 331.938,92.859 332.732,92.8611 333.526,92.864 334.321,92.8661 335.115,92.8665 335.909,92.865 336.704,92.8624 337.498,92.8601 338.292,92.8594 339.087,92.8606 339.881,92.8631 340.675,92.8657 341.47,92.8669 342.264,92.8663 343.058,92.8641 343.853,92.8616 344.647,92.86 345.441,92.8603 346.236,92.8622 347.03,92.8647 347.824,92.8666 348.619,92.8669 349.413,92.8655 350.207,92.8631 351.002,92.861 351.796,92.8603 352.59,92.8614 353.385,92.8637 354.179,92.8659 354.973,92.867 355.768,92.8664 356.562,92.8644 357.356,92.8622 358.151,92.8607 358.945,92.861 359.739,92.8627 360.534,92.865 361.328,92.8666 362.122,92.8669 362.917,92.8655 363.711,92.8634 364.505,92.8615 365.3,92.8609 366.094,92.8619 366.888,92.8639 367.683,92.8659 368.477,92.8669 369.271,92.8663 370.066,92.8645 370.86,92.8625 371.654,92.8613 372.449,92.8614 373.243,92.8629 374.037,92.865 374.832,92.8665 375.626,92.8666 376.42,92.8654 377.215,92.8635 378.009,92.8619 378.803,92.8614 379.597,92.8622 380.392,92.864 381.186,92.8658 381.98,92.8665 382.775,92.8661 383.569,92.8645 384.363,92.8627 385.158,92.8617 385.952,92.8618 386.746,92.8631 387.541,92.8649 388.335,92.8661 389.129,92.8663 389.924,92.8653 390.718,92.8636 391.512,92.8622 392.307,92.8618 393.101,92.8625 393.895,92.8641 394.69,92.8655 395.484,92.8662 396.278,92.8658 397.073,92.8644 397.867,92.863 398.661,92.862 399.456,92.8622 400.25,92.8633 401.044,92.8648 401.839,92.8658 402.633,92.866 403.427,92.8651 404.222,92.8637 405.016,92.8625 405.81,92.8622 406.605,92.8628 407.399,92.8641 408.193,92.8653 408.988,92.8659 409.782,92.8655 410.576,92.8644 411.371,92.8631 412.165,92.8624 412.959,92.8626 413.754,92.8635 414.548,92.8647 415.342,92.8655 416.137,92.8656 416.931,92.8649 417.725,92.8638 418.52,92.8628 419.314,92.8626 420.108,92.8631 420.903,92.8641 421.697,92.8651 422.491,92.8655 423.286,92.8652 424.08,92.8643 424.874,92.8634 425.669,92.8628 426.463,92.8629 427.257,92.8636 428.052,92.8646 428.846,92.8652 429.64,92.8653 430.435,92.8647 431.229,92.8639 432.023,92.8631 432.818,92.8629 433.612,92.8633 434.406,92.8641 435.201,92.8648 435.995,92.8651 436.789,92.8649 437.584,92.8643 438.378,92.8636 439.172,92.8631 439.967,92.8632 440.761,92.8638 441.555,92.8644 442.35,92.8649 443.144,92.8649 443.938,92.8645 444.733,92.8639 445.527,92.8634 446.321,92.8633 447.116,92.8636 447.91,92.8641 448.704,92.8646 449.499,92.8648 450.293,92.8646 451.087,92.8642 451.882,92.8637 452.676,92.8635 453.47,92.8636 454.264,92.8639 455.059,92.8643 455.853,92.8646 456.647,92.8646 457.442,92.8643 458.236,92.864 459.03,92.8637 459.825,92.8637 460.619,92.8639 461.413,92.8641 462.208,92.8643 463.002,92.8644 463.796,92.8643 464.591,92.8641 465.385,92.8639 466.179,92.8639 466.974,92.8639 467.768,92.8641 468.562,92.8642 469.357,92.8642 470.151,92.8642 470.945,92.8641 471.74,92.8641 472.534,92.864 473.328,92.8641 474.123,92.8641" stroke="#ecb01f" stroke-linecap="butt" stroke-linejoin="round" stroke-width="0.5"/>
   <polyline fill="none" points="68.2201,92.8658 69.0145,92.8658 69.8088,92.8658 70.6031,92.8658 71.3975,92.8658 72.1918,92.8658 72.9861,92.8658 73.7804,92.8658 74.5748,92.8658 75.3691,92.8658 76.1635,92.8658 76.9578,92.8658 77.7521,92.8658 78.5464,92.8658 79.3408,92.8658 80.1351,92.8658 80.9294,92.8658 81.7238,92.8658 82.5181,92.8658 83.3124,92.8658 84.1067,92.8658 84.9011,92.8658 85.6954,92.8658 86.4897,92.8658 87.2841,92.8658 88.0784,92.8658 88.8727,92.8658 89.6671,92.8658 90.4614,92.8658 91.2557,92.8658 92.05,92.8658 92.8444,92.8658 93.6387,92.8658 94.433,92.8658 95.2274,92.8658 96.0217,92.8658 96.816,92.8658 97.6104,92.8658 98.4047,92.8658 99.199,92.8658 99.9933,92.8658 100.788,92.8658 101.582,92.8658 102.376,92.8658 103.171,92.8658 103.965,92.8658 104.759,92.8658 105.554,92.8658 106.348,92.8658 107.142,92.8658 107.937,92.8658 108.731,92.8658 109.525,92.8658 110.32,92.8658 111.114,92.8658 111.908,92.8658 112.703,92.8658 113.497,92.8658 114.291,92.8658 115.086,92.8658 115.88,92.8658 116.674,92.8658 117.469,92.8658 118.263,92.8658 119.057,92.8658 119.852,92.8658 120.646,92.8658 121.44,92.8658 122.235,92.8658 123.029,92.8658 123.823,92.8658 124.618,92.8658 125.412,92.8658 126.206,92.8658 127.001,92.8658 127.795,92.8658 128.589,92.8658 129.384,92.8658 130.178,92.8658 130.972,92.8658 131.767,92.8658 132.561,92.8658 133.355,92.8658 134.15,92.8658 134.944,92.8658 135.738,92.8658 136.533,92.8658 137.327,92.8658 138.121,92.8658 138.916,92.8658 139.71,92.8658 140.504,92.8658 141.299,92.8658 142.093,92.8658 142.887,92.8658 143.681,92.8658 144.476,92.8658 145.27,92.8658 146.064,92.8658 146.859,92.8658 147.653,92.8658 148.447,92.8658 149.242,92.8658 150.036,92.8658 150.83,92.8658 151.625,92.8658 152.419,92.8658 153.213,92.8658 154.008,92.8658 154.802,92.8658 155.596,92.8658 156.391,92.8658 157.185,92.8658 157.979,92.8658 158.774,92.8658 159.568,92.8658 160.362,92.8658 161.157,92.8658 161.951,92.8658 162.745,92.8658 163.54,92.8658 164.334,92.8658 165.128,92.8658 165.923,92.8658 166.717,92.8658 167.511,92.8658 168.306,92.8658 169.1,92.8658 169.894,92.8658 170.689,92.8658 171.483,92.8658 172.277,92.8658 173.072,92.8658 173.866,92.8658 174.66,92.8658 175.455,92.8658 176.249,92.8658 177.043,92.8658 177.838,92.8658 178.632,92.8658 179.426,92.8658 180.221,92.8658 181.015,92.8658 181.809,92.8658 182.604,92.8658 183.398,92.8658 184.192,92.8658 184.987,92.8658 185.781,92.8658 186.575,92.8658 187.37,92.8658 188.164,92.8658 188.958,92.8658 189.753,92.8658 190.547,92.8658 191.341,92.8658 192.136,92.8658 192.93,92.8658 193.724,92.8658 194.519,92.8658 195.313,92.8658 196.107,92.8658 196.902,92.8658 197.696,92.8658 198.49,92.8658 199.285,92.8658 200.079,92.8658 200.873,92.8658 201.668,92.8658 202.462,92.8658 203.256,92.8658 204.051,92.8658 204.845,92.8658 205.639,92.8658 206.434,92.8658 207.228,92.8658 208.022,92.8658 208.817,92.8658 209.611,92.8658 210.405,92.8658 211.2,92.8658 211.994,92.8658 212.788,92.8658 213.583,92.8658 214.377,92.8658 215.171,92.8658 215.966,92.8658 216.76,92.8658 217.554,92.8658 218.349,92.8658 219.143,92.8658 219.937,92.8658 220.731,92.8658 221.526,92.8658 222.32,92.8658 223.114,92.8658 223.909,92.8658 224.703,92.8658 225.497,92.8658 226.292,92.8658 227.086,92.8658 227.88,92.8658 228.675,92.8658 229.469,92.8658 230.263,92.8658 231.058,92.8658 231.852,92.8658 232.646,92.8658 233.441,92.8658 234.235,92.8658 235.029,92.8658 235.824,92.8658 236.618,92.8658 237.412,92.8658 238.207,92.8658 239.001,92.8658 239.795,92.8658 240.59,92.8658 241.384,92.8658 242.178,92.8658 242.973,92.8658 243.767,92.8658 244.561,92.8658 245.356,92.8658 246.15,92.8658 246.944,92.8658 247.739,92.8658 248.533,92.8658 249.327,92.8658 250.122,92.8658 250.916,92.8658 251.71,92.8658 252.505,92.8658 253.299,92.8658 254.093,92.8658 254.888,92.8658 255.682,92.8658 256.476,92.8658 257.271,92.8658 258.065,92.8658 258.859,92.8658 259.654,92.8658 260.448,92.8658 261.242,92.8658 262.037,92.8658 262.831,92.8658 263.625,92.8658 264.42,92.8658 265.214,92.8658 266.008,92.8658 266.803,92.8658 267.597,92.8658 268.391,92.8658 269.186,92.8658 269.98,92.8658 270.774,92.8658 271.569,92.8658 272.363,92.8658 273.157,92.8658 273.952,92.8658 274.746,92.8658 275.54,92.8658 276.335,92.8658 277.129,92.8658 277.923,92.8658 278.718,92.8658 279.512,92.8658 280.306,92.8658 281.101,92.8658 281.895,92.8658 282.689,92.8658 283.484,92.8658 284.278,92.8658 285.072,92.8658 285.867,92.8658 286.661,92.8658 287.455,92.8658 288.25,92.8658 289.044,92.8658 289.838,92.8658 290.633,92.8658 291.427,92.8658 292.221,92.8658 293.016,92.8658 293.81,92.8658 294.604,92.8658 295.399,92.8658 296.193,92.8658 296.987,92.8658 297.781,92.8658 298.576,92.8658 299.37,92.8658 300.164,92.8658 300.959,92.8658 301.753,92.8658 302.547,92.8658 303.342,92.8658 304.136,92.8658 304.93,92.8658 305.725,92.8658 306.519,92.8658 307.313,92.8658 308.108,92.8658 308.902,92.8658 309.696,92.8658 310.491,92.8658 311.285,92.8658 312.079,92.8658 312.874,92.8658 313.668,92.8658 314.462,92.8658 315.257,92.8658 316.051,92.8658 316.845,92.8658 317.64,92.8658 318.434,92.8658 319.228,92.8658 320.023,92.8658 320.817,92.8658 321.611,92.8658 322.406,92.8658 323.2,92.8658 323.994,92.8658 324.789,92.8658 325.583,92.8658 326.377,92.8658 327.172,92.8658 327.966,92.8658 328.76,92.8658 329.555,92.8658 330.349,92.8658 331.143,92.8658 331.938,92.8658 332.732,92.8658 333.526,92.8658 334.321,92.8658 335.115,92.8658 335.909,92.8658 336.704,92.8658 337.498,92.8658 338.292,92.8658 339.087,92.8658 339.881,92.8658 340.675,92.8658 341.47,92.8658 342.264,92.8658 343.058,92.8658 343.853,92.8658 344.647,92.8658 345.441,92.8658 346.236,92.8658 347.03,92.8658 347.824,92.8658 348.619,92.8658 349.413,92.8658 350.207,92.8658 351.002,92.8658 351.796,92.8658 352.59,92.8658 353.385,92.8658 354.179,92.8658 354.973,92.8658 355.768,92.8658 356.562,92.8658 357.356,92.8658 358.151,92.8658 358.945,92.8658 359.739,92.8658 360.534,92.8658 361.328,92.8658 362.122,92.8658 362.917,92.8658 363.711,92.8658 364.505,92.8658 365.3,92.8658 366.094,92.8658 366.888,92.8658 367.683,92.8658 368.477,92.8658 369.271,92.8658 370.066,92.8658 370.86,92.8658 371.654,92.8658 372.449,92.8658 373.243,92.8658 374.037,92.8658 374.832,92.8658 375.626,92.8658 376.42,92.8658 377.215,92.8658 378.009,92.8658 378.803,92.8658 379.597,92.8658 380.392,92.8658 381.186,92.8658 381.98,92.8658 382.775,92.8658 383.569,92.8658 384.363,92.8658 385.158,92.8658 385.952,92.8658 386.746,92.8658 387.541,92.8658 388.335,92.8658 389.129,92.8658 389.924,92.8658 390.718,92.8658 391.512,92.8658 392.307,92.8658 393.101,92.8658 393.895,92.8658 394.69,92.8658 395.484,92.8658 396.278,92.8658 397.073,92.8658 397.867,92.8658 398.661,92.8658 399.456,92.8658 400.25,92.8658 401.044,92.8658 401.839,92.8658 402.633,92.8658 403.427,92.8658 404.222,92.8658 405.016,92.8658 405.81,92.8658 406.605,92.8658 407.399,92.8658 408.193,92.8658 408.988,92.8658 409.782,92.8658 410.576,92.8658 411.371,92.8658 412.165,92.8658 412.959,92.8658 413.754,92.8658 414.548,92.8658 415.342,92.8658 416.137,92.8658 416.931,92.8658 417.725,92.8658 418.52,92.8658 419.314,92.8658 420.108,92.8658 420.903,92.8658 421.697,92.8658 422.491,92.8658 423.286,92.8658 424.08,92.8658 424.874,92.8658 425.669,92.8658 426.463,92.8658 427.257,92.8658 428.052,92.8658 428.846,92.8658 429.64,92.8658 430.435,92.8658 431.229,92.8658 432.023,92.8658 432.818,92.8658 433.612,92.8658 434.406,92.8658 435.201,92.8658 435.995,92.8658 436.789,92.8658 437.584,92.8658 438.378,92.8658 439.172,92.8658 439.967,92.8658 440.761,92.8658 441.555,92.8658 442.35,92.8658 443.144,92.8658 443.938,92.8658 444.733,92.8658 445.527,92.8658 446.321,92.8658 447.116,92.8658 447.91,92.8658 448.704,92.8658 449.499,92.8658 450.293,92.8658 451.087,92.8658 451.882,92.8658 452.676,92.8658 453.47,92.8658 454.264,92.8658 455.059,92.8658 455.853,92.8658 456.647,92.8658 457.442,92.8658 458.236,92.8658 459.03,92.8658 459.825,92.8658 460.619,92.8658 461.413,92.8658 462.208,92.8658 463.002,92.8658 463.796,92.8658 464.591,92.8658 465.385,92.8658 466.179,92.8658 466.974,92.8658 467.768,92.8658 468.562,92.8658 469.357,92.8658 470.151,92.8658 470.945,92.8658 471.74,92.8658 472.534,92.8658 473.328,92.8658 474.123,92.8658" stroke="#7d2e8d" stroke-linecap="butt" stroke-linejoin="round" stroke-width="0.5"/>
   <polyline fill="none" points="108.89,419.006 111.073,419.006 113.257,419.006 115.441,419.006 117.624,419.006 119.808,419.005 121.991,419.005 124.175,419.004 126.359,419.003 128.542,419.002 130.726,419 132.91,418.998 135.093,418.996 137.277,418.993 139.46,418.99 141.644,418.986 143.828,418.981 146.011,418.974 148.195,418.966 150.378,418.957 152.562,418.945 154.746,418.929 156.929,418.909 159.113,418.883 161.296,418.851 163.48,418.81 165.664,418.754 167.847,418.679 170.031,418.581 172.214,418.453 174.398,418.283 176.582,418.044 178.765,417.746 180.949,417.403 183.133,417.046 185.316,416.732 187.5,416.539 189.683,416.429 191.867,416.376 194.051,416.355 196.234,416.346 198.418,416.338 200.601,416.329 202.785,416.317 204.969,416.305 207.152,416.291 209.336,416.276 211.519,416.262 213.703,416.249 215.887,416.237 218.07,416.226 220.254,416.221 222.437,416.225 224.621,416.246 226.805,416.297 228.988,416.403 231.172,416.601 233.355,416.869 235.539,417.182 237.723,417.508 239.906,417.806 242.09,418.047 244.274,418.244 246.457,418.401 248.641,418.524 250.824,418.618 253.008,418.69 255.192,418.748 257.375,418.794 259.559,418.832 261.742,418.861 263.926,418.885 266.11,418.904 268.293,418.921 270.477,418.934 272.66,418.945 274.844,418.954 277.028,418.962 279.211,418.969 281.395,418.974 283.578,418.979 285.762,418.983 287.946,418.986 290.129,418.989 292.313,418.992 294.496,418.994 296.68,418.996 298.864,418.997 301.047,418.999 303.231,419 305.415,419.001 307.598,419.002 309.782,419.003 311.965,419.003 314.149,419.004 316.333,419.005 318.516,419.005 320.7,419.005 322.883,419.006 325.067,419.006 327.251,419.006 329.434,419.006 331.618,419.006 333.801,419.006 335.985,419.006 338.169,419.006 340.352,419.006 342.536,419.006 344.719,419.006 346.903,419.006 349.087,419.006 351.27,419.006 353.454,419.006 355.638,419.006 357.821,419.006 360.005,419.006 362.188,419.006 364.372,419.006 366.556,419.006 368.739,419.006 370.923,419.006 373.106,419.006 375.29,419.006 377.474,419.006 379.657,419.006 381.841,419.006 384.024,419.006 386.208,419.006 388.392,419.006 390.575,419.006 392.759,419.006 394.942,419.006 397.126,419.006 399.31,419.006 401.493,419.006 403.677,419.006 405.86,419.006 408.044,419.006 410.228,419.006 412.411,419.006 414.595,419.006 416.779,419.007 418.962,419.007 421.146,419.007 423.329,419.006 425.513,419.006 427.697,419.006 429.88,419.006 432.064,419.006 434.247,419.006" stroke="#76ab2f" stroke-linecap="butt" stroke-linejoin="round" stroke-width="0.5"/>
  </g>
  <clipPath id="cp00524470">
   <polygon points="0,470 524,470 524,0 0,0"/>
  </clipPath>
  <g clip-path="url(#cp00524470)">
   <polygon fill="#ffffff" points="355.9,115.324 466.914,115.324 466.914,43.313 355.9,43.313" shape-rendering="crispEdges"/>
   <polyline fill="none" points="355.9,115.324 466.914,115.324" stroke="#262626" stroke-dasharray="16,0" stroke-linecap="square" stroke-linejoin="miter" stroke-width="0.5"/>
   <polyline fill="none" points="355.9,43.313 466.914,43.313" stroke="#262626" stroke-dasharray="16,0" stroke-linecap="square" stroke-linejoin="miter" stroke-width="0.5"/>
   <polyline fill="none" points="355.9,115.324 355.9,43.313" stroke="#262626" stroke-dasharray="16,0" stroke-linecap="square" stroke-linejoin="miter" stroke-width="0.5"/>
   <polyline fill="none" points="466.914,115.324 466.914,43.313" stroke="#262626" stroke-dasharray="16,0" stroke-linecap="square" stroke-linejoin="miter" stroke-width="0.5"/>
   <polyline fill="none" points="359.901,52.3148 379.91,52.3148" stroke="#0071bc" stroke-linecap="butt" stroke-linejoin="round" stroke-width="0.5"/>
   <g font-family="FreeSans" font-size="9" font-style="normal" font-weight="normal" transform="translate(383.912,57.3148) rotate(-0,-0,-5)" xml:space="preserve">
    <text fill="rgb(0,0,0)" x="0 3 8 13 18 " y="-2">Input</text>
   </g>
   <polyline fill="none" points="359.901,66.3165 379.91,66.3165" stroke="#d85218" stroke-linecap="butt" stroke-linejoin="round" stroke-width="0.5"/>
   <g font-family="FreeSans" font-size="9" font-style="normal" font-weight="normal" transform="translate(383.912,71.3165) rotate(-0,-0,-5)" xml:space="preserve">
    <text fill="rgb(0,0,0)" x="0 6 11 18 23 28 33 37 42 45 47 52 57 59 64 66 68 71 76 " y="-2">Compensation Filter</text>
   </g>
   <polyline fill="none" points="359.901,79.8183 379.91,79.8183" stroke="#ecb01f" stroke-linecap="butt" stroke-linejoin="round" stroke-width="0.5"/>
   <g font-family="FreeSans" font-size="9" font-style="normal" font-weight="normal" transform="translate(383.912,84.3183) rotate(-0,-0,-4.5)" xml:space="preserve">
    <text fill="rgb(0,0,0)" x="0 6 11 18 23 25 30 35 " y="-1">Combined</text>
   </g>
   <polyline fill="none" points="359.901,92.82 379.91,92.82" stroke="#7d2e8d" stroke-linecap="butt" stroke-linejoin="round" stroke-width="0.5"/>
   <g font-family="FreeSans" font-size="9" font-style="normal" font-weight="normal" transform="translate(383.912,97.32) rotate(-0,-0,-4.5)" xml:space="preserve">
    <text fill="rgb(0,0,0)" x="0 3 8 11 16 21 " y="-2">target</text>
   </g>
   <polyline fill="none" points="359.901,106.322 379.91,106.322" stroke="#76ab2f" stroke-linecap="butt" stroke-linejoin="round" stroke-width="0.5"/>
   <g font-family="FreeSans" font-size="9" font-style="normal" font-weight="normal" transform="translate(383.912,111.322) rotate(-0,-0,-5)" xml:space="preserve">
    <text fill="rgb(0,0,0)" x="0 5 8 11 13 20 25 27 32 37 40 " y="-2">err weights</text>
   </g>
  </g>
 </g>
</svg>
