<?xml version='1.0' encoding='UTF-8' standalone='no'?>
<svg height="470pt" viewBox="0 0 524 470" width="524pt" xmlns="http://www.w3.org/2000/svg" xmlns:xlink="http://www.w3.org/1999/xlink">
 <title>Figure 5</title>
 <desc>
Creator: GL2PS 1.4.2, (C) 1999-2020 C. Geuzaine
For: Octave
CreationDate: Thu Feb 12 12:53:37 2026
</desc>
 <defs/>
 <polygon fill="#ffffff" points="0,0 524,0 524,470 0,470"/>
 <g>
  <polygon fill="#ffffff" points="0,470 524,470 524,0 0,0" shape-rendering="crispEdges"/>
  <clipPath id="cp00524470">
   <polygon points="0,470 524,470 524,0 0,0"/>
  </clipPath>
  <g clip-path="url(#cp00524470)">
   <polygon fill="#ffffff" points="68.2201,194.647 474.917,194.647 474.917,36.3381 68.2201,36.3381" shape-rendering="crispEdges"/>
   <polyline fill="none" points="68.2201,194.647 68.2201,190.572" stroke="#262626" stroke-linecap="butt" stroke-linejoin="miter" stroke-width="0.5"/>
   <polyline fill="none" points="68.2201,36.3381 68.2201,40.413" stroke="#262626" stroke-linecap="butt" stroke-linejoin="miter" stroke-width="0.5"/>
   <polyline fill="none" points="149.56,194.647 149.56,190.572" stroke="#262626" stroke-linecap="butt" stroke-linejoin="miter" stroke-width="0.5"/>
   <polyline fill="none" points="149.56,36.3381 149.56,40.413" stroke="#262626" stroke-linecap="butt" stroke-linejoin="miter" stroke-width="0.5"/>
   <polyline fill="none" points="230.899,194.647 230.899,190.572" stroke="#262626" stroke-linecap="butt" stroke-linejoin="miter" stroke-width="0.5"/>
   <polyline fill="none" points="230.899,36.3381 230.899,40.413" stroke="#262626" stroke-linecap="butt" stroke-linejoin="miter" stroke-width="0.5"/>
   <polyline fill="none" points="312.238,194.647 312.238,190.572" stroke="#262626" stroke-linecap="butt" stroke-linejoin="miter" stroke-width="0.5"/>
   <polyline fill="none" points="312.238,36.3381 312.238,40.413" stroke="#262626" stroke-linecap="butt" stroke-linejoin="miter" stroke-width="0.5"/>
   <polyline fill="none" points="393.578,194.647 393.578,190.572" stroke="#262626" stroke-linecap="butt" stroke-linejoin="miter" stroke-width="0.5"/>
   <polyline fill="none" points="393.578,36.3381 393.578,40.413" stroke="#262626" stroke-linecap="butt" stroke-linejoin="miter" stroke-width="0.5"/>
   <polyline fill="none" points="474.917,194.647 474.917,190.572" stroke="#262626" stroke-linecap="butt" stroke-linejoin="miter" stroke-width="0.5"/>
   <polyline fill="none" points="474.917,36.3381 474.917,40.413" stroke="#262626" stroke-linecap="butt" stroke-linejoin="miter" stroke-width="0.5"/>
   <g font-family="FreeSans" font-size="10" font-style="normal" font-weight="normal" transform="translate(65.2201,210.162) rotate(-0,3,-8)" xml:space="preserve">
    <text fill="rgb(38,38,38)" x="0 " y="-0">0</text>
   </g>
   <g font-family="FreeSans" font-size="10" font-style="normal" font-weight="normal" transform="translate(142.06,210.162) rotate(-0,7.5,-8)" xml:space="preserve">
    <text fill="rgb(38,38,38)" x="0 6 9 " y="-0">0.2</text>
   </g>
   <g font-family="FreeSans" font-size="10" font-style="normal" font-weight="normal" transform="translate(223.399,210.162) rotate(-0,7.5,-8)" xml:space="preserve">
    <text fill="rgb(38,38,38)" x="0 6 9 " y="-0">0.4</text>
   </g>
   <g font-family="FreeSans" font-size="10" font-style="normal" font-weight="normal" transform="translate(304.738,210.162) rotate(-0,7.5,-8)" xml:space="preserve">
    <text fill="rgb(38,38,38)" x="0 6 9 " y="-0">0.6</text>
   </g>
   <g font-family="FreeSans" font-size="10" font-style="normal" font-weight="normal" transform="translate(386.078,210.162) rotate(-0,7.5,-8)" xml:space="preserve">
    <text fill="rgb(38,38,38)" x="0 6 9 " y="-0">0.8</text>
   </g>
   <g font-family="FreeSans" font-size="10" font-style="normal" font-weight="normal" transform="translate(471.917,210.162) rotate(-0,3,-8)" xml:space="preserve">
    <text fill="rgb(38,38,38)" x="0 " y="-0">1</text>
   </g>
   <polyline fill="none" points="68.2201,194.647 72.2841,194.647" stroke="#262626" stroke-linecap="butt" stroke-linejoin="miter" stroke-width="0.5"/>
   <polyline fill="none" points="474.917,194.647 470.853,194.647" stroke="#262626" stroke-linecap="butt" stroke-linejoin="miter" stroke-width="0.5"/>
   <polyline fill="none" points="68.2201,155.07 72.2841,155.07" stroke="#262626" stroke-linecap="butt" stroke-linejoin="miter" stroke-width="0.5"/>
   <polyline fill="none" points="474.917,155.07 470.853,155.07" stroke="#262626" stroke-linecap="butt" stroke-linejoin="miter" stroke-width="0.5"/>
   <polyline fill="none" points="68.2201,115.492 72.2841,115.492" stroke="#262626" stroke-linecap="butt" stroke-linejoin="miter" stroke-width="0.5"/>
   <polyline fill="none" points="474.917,115.492 470.853,115.492" stroke="#262626" stroke-linecap="butt" stroke-linejoin="miter" stroke-width="0.5"/>
   <polyline fill="none" points="68.2201,75.9153 72.2841,75.9153" stroke="#262626" stroke-linecap="butt" stroke-linejoin="miter" stroke-width="0.5"/>
   <polyline fill="none" points="474.917,75.9153 470.853,75.9153" stroke="#262626" stroke-linecap="butt" stroke-linejoin="miter" stroke-width="0.5"/>
   <polyline fill="none" points="68.2201,36.3381 72.2841,36.3381" stroke="#262626" stroke-linecap="butt" stroke-linejoin="miter" stroke-width="0.5"/>
   <polyline fill="none" points="474.917,36.3381 470.853,36.3381" stroke="#262626" stroke-linecap="butt" stroke-linejoin="miter" stroke-width="0.5"/>
   <g font-family="FreeSans" font-size="10" font-style="normal" font-weight="normal" transform="translate(54.2239,198.647) rotate(-0,9,-4)" xml:space="preserve">
    <text fill="rgb(38,38,38)" x="0 3 " y="-0">-8</text>
   </g>
   <g font-family="FreeSans" font-size="10" font-style="normal" font-weight="normal" transform="translate(54.2239,159.07) rotate(-0,9,-4)" xml:space="preserve">
    <text fill="rgb(38,38,38)" x="0 3 " y="-0">-6</text>
   </g>
   <g font-family="FreeSans" font-size="10" font-style="normal" font-weight="normal" transform="translate(54.2239,119.493) rotate(-0,9,-4)" xml:space="preserve">
    <text fill="rgb(38,38,38)" x="0 3 " y="-0">-4</text>
   </g>
   <g font-family="FreeSans" font-size="10" font-style="normal" font-weight="normal" transform="translate(54.2239,79.9153) rotate(-0,9,-4)" xml:space="preserve">
    <text fill="rgb(38,38,38)" x="0 3 " y="-0">-2</text>
   </g>
   <g font-family="FreeSans" font-size="10" font-style="normal" font-weight="normal" transform="translate(57.2239,40.3381) rotate(-0,6,-4)" xml:space="preserve">
    <text fill="rgb(38,38,38)" x="0 " y="-0">0</text>
   </g>
   <polyline fill="none" points="68.2201,194.647 474.917,194.647" stroke="#262626" stroke-dasharray="16,0" stroke-linecap="square" stroke-linejoin="miter" stroke-width="0.5"/>
   <polyline fill="none" points="68.2201,36.3381 474.917,36.3381" stroke="#262626" stroke-dasharray="16,0" stroke-linecap="square" stroke-linejoin="miter" stroke-width="0.5"/>
   <polyline fill="none" points="68.2201,194.647 68.2201,36.3381" stroke="#262626" stroke-dasharray="16,0" stroke-linecap="square" stroke-linejoin="miter" stroke-width="0.5"/>
   <polyline fill="none" points="474.917,194.647 474.917,36.3381" stroke="#262626" stroke-dasharray="16,0" stroke-linecap="square" stroke-linejoin="miter" stroke-width="0.5"/>
   <g font-family="FreeSans" font-size="11" font-style="normal" font-weight="bold" transform="translate(203.069,26.3381) rotate(-0,68.5,0)" xml:space="preserve">
    <text fill="rgb(0,0,0)" x="0 8 15 22 28 31 39 42 48 55 59 65 75 78 85 89 92 99 102 110 113 117 120 123 127 133 " y="-3">Bode Diagram of FIR filter</text>
   </g>
   <g font-family="FreeSans" font-size="11" font-style="normal" font-weight="normal" transform="translate(13.2239,115.493) rotate(-90,36,0)" xml:space="preserve">
    <text fill="rgb(38,38,38)" x="0 9 15 21 27 29 32 38 44 50 53 56 62 69 " y="-2">Magnitude [dB]</text>
   </g>
   <polyline fill="none" points="68.2201,37.0601 69.0145,37.0618 69.8088,37.0666 70.6031,37.074 71.3975,37.0833 72.1918,37.0932 72.9861,37.1028 73.7804,37.1105 74.5748,37.1154 75.3691,37.1164 76.1635,37.1128 76.9578,37.1041 77.7521,37.0905 78.5464,37.0727 79.3408,37.0515 80.1351,37.0283 80.9294,37.005 81.7238,36.9834 82.5181,36.9655 83.3124,36.9531 84.1067,36.9478 84.9011,36.9508 85.6954,36.9628 86.4897,36.9838 87.2841,37.0133 88.0784,37.0501 88.8727,37.0924 89.6671,37.138 90.4614,37.1843 91.2557,37.2285 92.05,37.2677 92.8444,37.2993 93.6387,37.3209 94.433,37.3307 95.2274,37.3274 96.0217,37.3108 96.816,37.2812 97.6104,37.2399 98.4047,37.1892 99.199,37.1318 99.9933,37.0714 100.788,37.0117 101.582,36.9568 102.376,36.9107 103.171,36.8769 103.965,36.8584 104.759,36.8574 105.554,36.875 106.348,36.9113 107.142,36.9652 107.937,37.0345 108.731,37.1158 109.525,37.2051 110.32,37.2977 111.114,37.3884 111.908,37.472 112.703,37.5435 113.497,37.5987 114.291,37.6339 115.086,37.6468 115.88,37.6361 116.674,37.6022 117.469,37.5467 118.263,37.4727 119.057,37.3847 119.852,37.2879 120.646,37.1884 121.44,37.0929 122.235,37.0075 123.029,36.9385 123.823,36.8911 124.618,36.8695 125.412,36.8762 126.206,36.9125 127.001,36.9777 127.795,37.0695 128.589,37.1838 129.384,37.3153 130.178,37.4574 130.972,37.6027 131.767,37.7434 132.561,37.872 133.355,37.9814 134.15,38.0655 134.944,38.1196 135.738,38.1408 136.533,38.1283 137.327,38.0831 138.121,38.0085 138.916,37.9096 139.71,37.7932 140.504,37.6672 141.299,37.5407 142.093,37.4227 142.887,37.322 143.681,37.2469 144.476,37.204 145.27,37.1984 146.064,37.2332 146.859,37.3091 147.653,37.4246 148.447,37.5757 149.242,37.7565 150.036,37.9591 150.83,38.1745 151.625,38.3927 152.419,38.6036 153.213,38.7974 154.008,38.9655 154.802,39.1009 155.596,39.1988 156.391,39.2567 157.185,39.2753 157.979,39.2575 158.774,39.2094 159.568,39.1391 160.362,39.0566 161.157,38.9731 161.951,38.9006 162.745,38.8507 163.54,38.8342 164.334,38.8603 165.128,38.9361 165.923,39.066 166.717,39.2517 167.511,39.4916 168.306,39.7816 169.1,40.1148 169.894,40.4822 170.689,40.8736 171.483,41.2782 172.277,41.6861 173.072,42.0888 173.866,42.4807 174.66,42.8597 175.455,43.2287 176.249,43.5955 177.043,43.9737 177.838,44.3821 178.632,44.8454 179.426,45.3924 180.221,46.056 181.015,46.8718 181.809,47.8769 182.604,49.1086 183.398,50.6031 184.192,52.3939 184.987,54.5105 185.781,56.9776 186.575,59.8132 187.37,63.0281 188.164,66.625 188.958,70.5976 189.753,74.9309 190.547,79.6013 191.341,84.5773 192.136,89.8217 192.93,95.2933 193.724,100.95 194.519,106.754 195.313,112.671 196.107,118.677 196.902,124.755 197.696,130.899 198.49,137.106 199.285,143.368 200.079,149.665 200.873,155.953 201.668,162.147 202.462,168.11 203.256,173.644 204.051,178.494 204.845,182.366 205.639,184.96 206.434,186.034 207.228,185.454 208.022,183.24 208.817,179.564 209.611,174.72 210.405,169.067 211.2,162.969 211.994,156.755 212.788,150.693 213.583,144.988 214.377,139.781 215.171,135.157 215.966,131.159 216.76,127.795 217.554,125.045 218.349,122.871 219.143,121.223 219.937,120.042 220.731,119.271 221.526,118.858 222.32,118.757 223.114,118.937 223.909,119.382 224.703,120.091 225.497,121.076 226.292,122.363 227.086,123.983 227.88,125.967 228.675,128.344 229.469,131.131 230.263,134.326 231.058,137.902 231.852,141.801 232.646,145.928 233.441,150.145 234.235,154.276 235.029,158.104 235.824,161.394 236.618,163.91 237.412,165.446 238.207,165.859 239.001,165.088 239.795,163.168 240.59,160.213 241.384,156.393 242.178,151.907 242.973,146.948 243.767,141.69 244.561,136.273 245.356,130.802 246.15,125.35 246.944,119.962 247.739,114.666 248.533,109.477 249.327,104.402 250.122,99.4492 250.916,94.6267 251.71,89.9465 252.505,85.4244 253.299,81.0797 254.093,76.9335 254.888,73.0074 255.682,69.3218 256.476,65.8944 257.271,62.739 258.065,59.8643 258.859,57.2738 259.654,54.9656 260.448,52.932 261.242,51.1607 262.037,49.6348 262.831,48.3336 263.625,47.2337 264.42,46.3099 265.214,45.5359 266.008,44.8857 266.803,44.334 267.597,43.8576 268.391,43.4357 269.186,43.0507 269.98,42.6885 270.774,42.3387 271.569,41.9947 272.363,41.6532 273.157,41.3141 273.952,40.9796 274.746,40.6539 275.54,40.3426 276.335,40.0513 277.129,39.7858 277.923,39.551 278.718,39.3507 279.512,39.187 280.306,39.0602 281.101,38.969 281.895,38.9103 282.689,38.8793 283.484,38.8701 284.278,38.876 285.072,38.8895 285.867,38.9035 286.661,38.9112 287.455,38.9064 288.25,38.8846 289.044,38.8423 289.838,38.7778 290.633,38.6912 291.427,38.5841 292.221,38.4595 293.016,38.3219 293.81,38.1764 294.604,38.0288 295.399,37.8852 296.193,37.7513 296.987,37.6323 297.781,37.5324 298.576,37.455 299.37,37.4018 300.164,37.3734 300.959,37.3689 301.753,37.3862 302.547,37.4219 303.342,37.4718 304.136,37.5308 304.93,37.5938 305.725,37.6555 306.519,37.7107 307.313,37.755 308.108,37.7847 308.902,37.7973 309.696,37.7912 310.491,37.7662 311.285,37.7231 312.079,37.6639 312.874,37.5915 313.668,37.5096 314.462,37.4223 315.257,37.334 316.051,37.2489 316.845,37.1712 317.64,37.1043 318.434,37.0509 319.228,37.013 320.023,36.9916 320.817,36.9866 321.611,36.9971 322.406,37.0214 323.2,37.0568 323.994,37.1004 324.789,37.1486 325.583,37.1979 326.377,37.2448 327.172,37.2862 327.966,37.3192 328.76,37.3417 329.555,37.3523 330.349,37.3504 331.143,37.336 331.938,37.3101 332.732,37.274 333.526,37.2301 334.321,37.1806 335.115,37.1284 335.909,37.0761 336.704,37.0264 337.498,36.9817 338.292,36.944 339.087,36.9149 339.881,36.8952 340.675,36.8854 341.47,36.8852 342.264,36.8938 343.058,36.9099 343.853,36.9319 344.647,36.9578 345.441,36.9856 346.236,37.0132 347.03,37.0388 347.824,37.0606 348.619,37.0772 349.413,37.0877 350.207,37.0916 351.002,37.0886 351.796,37.0793 352.59,37.0642 353.385,37.0444 354.179,37.0211 354.973,36.9958 355.768,36.9698 356.562,36.9446 357.356,36.9214 358.151,36.9012 358.945,36.885 359.739,36.8731 360.534,36.8657 361.328,36.8628 362.122,36.864 362.917,36.8685 363.711,36.8758 364.505,36.8847 365.3,36.8944 366.094,36.904 366.888,36.9126 367.683,36.9196 368.477,36.9244 369.271,36.9268 370.066,36.9267 370.86,36.9243 371.654,36.9197 372.449,36.9136 373.243,36.9063 374.037,36.8986 374.832,36.8908 375.626,36.8837 376.42,36.8776 377.215,36.8727 378.009,36.8693 378.803,36.8673 379.597,36.8666 380.392,36.867 381.186,36.868 381.98,36.8693 382.775,36.8702 383.569,36.8705 384.363,36.8696 385.158,36.8674 385.952,36.8636 386.746,36.8582 387.541,36.8514 388.335,36.8435 389.129,36.8349 389.924,36.8261 390.718,36.8178 391.512,36.8105 392.307,36.8048 393.101,36.8012 393.895,36.8 394.69,36.8016 395.484,36.8058 396.278,36.8125 397.073,36.8213 397.867,36.8317 398.661,36.843 399.456,36.8544 400.25,36.865 401.044,36.874 401.839,36.8807 402.633,36.8843 403.427,36.8843 404.222,36.8806 405.016,36.873 405.81,36.8617 406.605,36.8472 407.399,36.8302 408.193,36.8116 408.988,36.7924 409.782,36.7738 410.576,36.7568 411.371,36.7426 412.165,36.7319 412.959,36.7257 413.754,36.7244 414.548,36.7281 415.342,36.7368 416.137,36.75 416.931,36.7671 417.725,36.787 418.52,36.8085 419.314,36.8304 420.108,36.8513 420.903,36.8698 421.697,36.8846 422.491,36.8948 423.286,36.8996 424.08,36.8984 424.874,36.8912 425.669,36.8782 426.463,36.86 427.257,36.8375 428.052,36.812 428.846,36.7849 429.64,36.7578 430.435,36.7322 431.229,36.7097 432.023,36.6916 432.818,36.679 433.612,36.6729 434.406,36.6736 435.201,36.6812 435.995,36.6953 436.789,36.7151 437.584,36.7397 438.378,36.7674 439.172,36.7966 439.967,36.8257 440.761,36.8529 441.555,36.8765 442.35,36.895 443.144,36.9072 443.938,36.9123 444.733,36.9099 445.527,36.8999 446.321,36.8828 447.116,36.8596 447.91,36.8316 448.704,36.8002 449.499,36.7673 450.293,36.7348 451.087,36.7045 451.882,36.6783 452.676,36.6578 453.47,36.6441 454.264,36.6382 455.059,36.6405 455.853,36.651 456.647,36.6691 457.442,36.6938 458.236,36.724 459.03,36.7578 459.825,36.7936 460.619,36.8294 461.413,36.8631 462.208,36.8931 463.002,36.9176 463.796,36.9356 464.591,36.9461 465.385,36.9487 466.179,36.9435 466.974,36.931 467.768,36.9122 468.562,36.8885 469.357,36.8613 470.151,36.8326 470.945,36.8042 471.74,36.778 472.534,36.7556 473.328,36.7385 474.123,36.7278" stroke="#0071bc" stroke-linecap="butt" stroke-linejoin="round" stroke-width="0.5"/>
  </g>
  <clipPath id="cp00524470">
   <polygon points="0,470 524,470 524,0 0,0"/>
  </clipPath>
  <g clip-path="url(#cp00524470)">
   <polygon fill="#ffffff" points="68.2201,419.007 474.917,419.007 474.917,260.698 68.2201,260.698" shape-rendering="crispEdges"/>
   <polyline fill="none" points="68.2201,419.007 68.2201,414.932" stroke="#262626" stroke-linecap="butt" stroke-linejoin="miter" stroke-width="0.5"/>
   <polyline fill="none" points="68.2201,260.698 68.2201,264.773" stroke="#262626" stroke-linecap="butt" stroke-linejoin="miter" stroke-width="0.5"/>
   <polyline fill="none" points="149.56,419.007 149.56,414.932" stroke="#262626" stroke-linecap="butt" stroke-linejoin="miter" stroke-width="0.5"/>
   <polyline fill="none" points="149.56,260.698 149.56,264.773" stroke="#262626" stroke-linecap="butt" stroke-linejoin="miter" stroke-width="0.5"/>
   <polyline fill="none" points="230.899,419.007 230.899,414.932" stroke="#262626" stroke-linecap="butt" stroke-linejoin="miter" stroke-width="0.5"/>
   <polyline fill="none" points="230.899,260.698 230.899,264.773" stroke="#262626" stroke-linecap="butt" stroke-linejoin="miter" stroke-width="0.5"/>
   <polyline fill="none" points="312.238,419.007 312.238,414.932" stroke="#262626" stroke-linecap="butt" stroke-linejoin="miter" stroke-width="0.5"/>
   <polyline fill="none" points="312.238,260.698 312.238,264.773" stroke="#262626" stroke-linecap="butt" stroke-linejoin="miter" stroke-width="0.5"/>
   <polyline fill="none" points="393.578,419.007 393.578,414.932" stroke="#262626" stroke-linecap="butt" stroke-linejoin="miter" stroke-width="0.5"/>
   <polyline fill="none" points="393.578,260.698 393.578,264.773" stroke="#262626" stroke-linecap="butt" stroke-linejoin="miter" stroke-width="0.5"/>
   <polyline fill="none" points="474.917,419.007 474.917,414.932" stroke="#262626" stroke-linecap="butt" stroke-linejoin="miter" stroke-width="0.5"/>
   <polyline fill="none" points="474.917,260.698 474.917,264.773" stroke="#262626" stroke-linecap="butt" stroke-linejoin="miter" stroke-width="0.5"/>
   <g font-family="FreeSans" font-size="10" font-style="normal" font-weight="normal" transform="translate(65.2201,434.521) rotate(-0,3,-8)" xml:space="preserve">
    <text fill="rgb(38,38,38)" x="0 " y="-0">0</text>
   </g>
   <g font-family="FreeSans" font-size="10" font-style="normal" font-weight="normal" transform="translate(142.06,434.521) rotate(-0,7.5,-8)" xml:space="preserve">
    <text fill="rgb(38,38,38)" x="0 6 9 " y="-0">0.2</text>
   </g>
   <g font-family="FreeSans" font-size="10" font-style="normal" font-weight="normal" transform="translate(223.399,434.521) rotate(-0,7.5,-8)" xml:space="preserve">
    <text fill="rgb(38,38,38)" x="0 6 9 " y="-0">0.4</text>
   </g>
   <g font-family="FreeSans" font-size="10" font-style="normal" font-weight="normal" transform="translate(304.738,434.521) rotate(-0,7.5,-8)" xml:space="preserve">
    <text fill="rgb(38,38,38)" x="0 6 9 " y="-0">0.6</text>
   </g>
   <g font-family="FreeSans" font-size="10" font-style="normal" font-weight="normal" transform="translate(386.078,434.521) rotate(-0,7.5,-8)" xml:space="preserve">
    <text fill="rgb(38,38,38)" x="0 6 9 " y="-0">0.8</text>
   </g>
   <g font-family="FreeSans" font-size="10" font-style="normal" font-weight="normal" transform="translate(471.917,434.521) rotate(-0,3,-8)" xml:space="preserve">
    <text fill="rgb(38,38,38)" x="0 " y="-0">1</text>
   </g>
   <polyline fill="none" points="68.2201,419.007 72.2841,419.007" stroke="#262626" stroke-linecap="butt" stroke-linejoin="miter" stroke-width="0.5"/>
   <polyline fill="none" points="474.917,419.007 470.853,419.007" stroke="#262626" stroke-linecap="butt" stroke-linejoin="miter" stroke-width="0.5"/>
   <polyline fill="none" points="68.2201,387.345 72.2841,387.345" stroke="#262626" stroke-linecap="butt" stroke-linejoin="miter" stroke-width="0.5"/>
   <polyline fill="none" points="474.917,387.345 470.853,387.345" stroke="#262626" stroke-linecap="butt" stroke-linejoin="miter" stroke-width="0.5"/>
   <polyline fill="none" points="68.2201,355.683 72.2841,355.683" stroke="#262626" stroke-linecap="butt" stroke-linejoin="miter" stroke-width="0.5"/>
   <polyline fill="none" points="474.917,355.683 470.853,355.683" stroke="#262626" stroke-linecap="butt" stroke-linejoin="miter" stroke-width="0.5"/>
   <polyline fill="none" points="68.2201,324.021 72.2841,324.021" stroke="#262626" stroke-linecap="butt" stroke-linejoin="miter" stroke-width="0.5"/>
   <polyline fill="none" points="474.917,324.021 470.853,324.021" stroke="#262626" stroke-linecap="butt" stroke-linejoin="miter" stroke-width="0.5"/>
   <polyline fill="none" points="68.2201,292.359 72.2841,292.359" stroke="#262626" stroke-linecap="butt" stroke-linejoin="miter" stroke-width="0.5"/>
   <polyline fill="none" points="474.917,292.359 470.853,292.359" stroke="#262626" stroke-linecap="butt" stroke-linejoin="miter" stroke-width="0.5"/>
   <polyline fill="none" points="68.2201,260.698 72.2841,260.698" stroke="#262626" stroke-linecap="butt" stroke-linejoin="miter" stroke-width="0.5"/>
   <polyline fill="none" points="474.917,260.698 470.853,260.698" stroke="#262626" stroke-linecap="butt" stroke-linejoin="miter" stroke-width="0.5"/>
   <g font-family="FreeSans" font-size="10" font-style="normal" font-weight="normal" transform="translate(36.2239,423.007) rotate(-0,27,-4)" xml:space="preserve">
    <text fill="rgb(38,38,38)" x="0 3 9 15 21 " y="-0">-8000</text>
   </g>
   <g font-family="FreeSans" font-size="10" font-style="normal" font-weight="normal" transform="translate(36.2239,391.345) rotate(-0,27,-4)" xml:space="preserve">
    <text fill="rgb(38,38,38)" x="0 3 9 15 21 " y="-0">-6000</text>
   </g>
   <g font-family="FreeSans" font-size="10" font-style="normal" font-weight="normal" transform="translate(36.2239,359.683) rotate(-0,27,-4)" xml:space="preserve">
    <text fill="rgb(38,38,38)" x="0 3 9 15 21 " y="-0">-4000</text>
   </g>
   <g font-family="FreeSans" font-size="10" font-style="normal" font-weight="normal" transform="translate(36.2239,328.021) rotate(-0,27,-4)" xml:space="preserve">
    <text fill="rgb(38,38,38)" x="0 3 9 15 21 " y="-0">-2000</text>
   </g>
   <g font-family="FreeSans" font-size="10" font-style="normal" font-weight="normal" transform="translate(57.2239,296.359) rotate(-0,6,-4)" xml:space="preserve">
    <text fill="rgb(38,38,38)" x="0 " y="-0">0</text>
   </g>
   <g font-family="FreeSans" font-size="10" font-style="normal" font-weight="normal" transform="translate(39.2239,264.698) rotate(-0,24,-4)" xml:space="preserve">
    <text fill="rgb(38,38,38)" x="0 6 12 18 " y="-0">2000</text>
   </g>
   <polyline fill="none" points="68.2201,419.007 474.917,419.007" stroke="#262626" stroke-dasharray="16,0" stroke-linecap="square" stroke-linejoin="miter" stroke-width="0.5"/>
   <polyline fill="none" points="68.2201,260.698 474.917,260.698" stroke="#262626" stroke-dasharray="16,0" stroke-linecap="square" stroke-linejoin="miter" stroke-width="0.5"/>
   <polyline fill="none" points="68.2201,419.007 68.2201,260.698" stroke="#262626" stroke-dasharray="16,0" stroke-linecap="square" stroke-linejoin="miter" stroke-width="0.5"/>
   <polyline fill="none" points="474.917,419.007 474.917,260.698" stroke="#262626" stroke-dasharray="16,0" stroke-linecap="square" stroke-linejoin="miter" stroke-width="0.5"/>
   <g font-family="FreeSans" font-size="11" font-style="normal" font-weight="normal" transform="translate(1.72385,339.852) rotate(-90,29.5,0)" xml:space="preserve">
    <text fill="rgb(38,38,38)" x="0 7 13 19 24 30 33 37 43 49 55 " y="-3">Phase (deg)</text>
   </g>
   <g font-family="FreeSans" font-size="11" font-style="normal" font-weight="normal" transform="translate(177.069,451.521) rotate(-0,94.5,-12)" xml:space="preserve">
    <text fill="rgb(38,38,38)" x="0 8 14 18 27 33 35 37 42 48 54 57 64 68 74 80 86 92 98 104 109 112 116 122 129 132 136 142 148 151 156 162 171 177 179 185 " y="-3">Normalized Frequency (×π rad/sample)</text>
   </g>
   <polyline fill="none" points="68.2201,292.359 69.0145,292.568 69.8088,292.776 70.6031,292.984 71.3975,293.193 72.1918,293.401 72.9861,293.609 73.7804,293.816 74.5748,294.024 75.3691,294.231 76.1635,294.438 76.9578,294.645 77.7521,294.852 78.5464,295.059 79.3408,295.266 80.1351,295.473 80.9294,295.68 81.7238,295.887 82.5181,296.095 83.3124,296.302 84.1067,296.51 84.9011,296.718 85.6954,296.925 86.4897,297.134 87.2841,297.342 88.0784,297.55 88.8727,297.758 89.6671,297.966 90.4614,298.174 91.2557,298.382 92.05,298.59 92.8444,298.798 93.6387,299.005 94.433,299.213 95.2274,299.42 96.0217,299.627 96.816,299.834 97.6104,300.041 98.4047,300.247 99.199,300.454 99.9933,300.661 100.788,300.867 101.582,301.074 102.376,301.281 103.171,301.487 103.965,301.694 104.759,301.901 105.554,302.109 106.348,302.316 107.142,302.523 107.937,302.731 108.731,302.938 109.525,303.146 110.32,303.353 111.114,303.561 111.908,303.768 112.703,303.975 113.497,304.182 114.291,304.389 115.086,304.595 115.88,304.802 116.674,305.008 117.469,305.214 118.263,305.42 119.057,305.626 119.852,305.831 120.646,306.037 121.44,306.243 122.235,306.448 123.029,306.654 123.823,306.86 124.618,307.066 125.412,307.272 126.206,307.478 127.001,307.684 127.795,307.89 128.589,308.096 129.384,308.302 130.178,308.508 130.972,308.714 131.767,308.92 132.561,309.126 133.355,309.331 134.15,309.536 134.944,309.742 135.738,309.946 136.533,310.151 137.327,310.356 138.121,310.56 138.916,310.764 139.71,310.968 140.504,311.172 141.299,311.376 142.093,311.58 142.887,311.784 143.681,311.987 144.476,312.191 145.27,312.394 146.064,312.598 146.859,312.801 147.653,313.004 148.447,313.207 149.242,313.41 150.036,313.613 150.83,313.816 151.625,314.018 152.419,314.22 153.213,314.422 154.008,314.623 154.802,314.825 155.596,315.026 156.391,315.226 157.185,315.427 157.979,315.627 158.774,315.827 159.568,316.027 160.362,316.227 161.157,316.426 161.951,316.625 162.745,316.824 163.54,317.022 164.334,317.22 165.128,317.418 165.923,317.615 166.717,317.811 167.511,318.007 168.306,318.202 169.1,318.397 169.894,318.591 170.689,318.784 171.483,318.976 172.277,319.168 173.072,319.359 173.866,319.549 174.66,319.739 175.455,319.927 176.249,320.115 177.043,320.303 177.838,320.489 178.632,320.675 179.426,320.86 180.221,321.044 181.015,321.227 181.809,321.409 182.604,321.59 183.398,321.769 184.192,321.947 184.987,322.123 185.781,322.296 186.575,322.468 187.37,322.636 188.164,322.802 188.958,322.965 189.753,323.124 190.547,323.28 191.341,323.432 192.136,323.58 192.93,323.725 193.724,323.865 194.519,324.001 195.313,324.134 196.107,324.262 196.902,324.387 197.696,324.508 198.49,324.626 199.285,324.739 200.079,324.848 200.873,324.953 201.668,325.052 202.462,325.146 203.256,325.234 204.051,325.315 204.845,325.392 205.639,325.464 206.434,325.533 207.228,325.601 208.022,325.671 208.817,325.745 209.611,325.825 210.405,325.911 211.2,326.005 211.994,326.105 212.788,326.211 213.583,326.323 214.377,326.439 215.171,326.559 215.966,326.682 216.76,326.806 217.554,326.932 218.349,327.058 219.143,327.185 219.937,327.312 220.731,327.438 221.526,327.564 222.32,327.69 223.114,327.815 223.909,327.94 224.703,328.064 225.497,328.188 226.292,328.312 227.086,328.436 227.88,328.559 228.675,328.681 229.469,328.801 230.263,328.92 231.058,329.036 231.852,329.149 232.646,329.259 233.441,329.364 234.235,329.465 235.029,329.561 235.824,329.653 236.618,329.741 237.412,329.826 238.207,329.909 239.001,329.992 239.795,330.077 240.59,330.165 241.384,330.257 242.178,330.353 242.973,330.454 243.767,330.56 244.561,330.67 245.356,330.785 246.15,330.904 246.944,331.027 247.739,331.153 248.533,331.283 249.327,331.416 250.122,331.552 250.916,331.692 251.71,331.835 252.505,331.981 253.299,332.131 254.093,332.283 254.888,332.439 255.682,332.598 256.476,332.76 257.271,332.925 258.065,333.092 258.859,333.262 259.654,333.435 260.448,333.609 261.242,333.785 262.037,333.964 262.831,334.143 263.625,334.325 264.42,334.507 265.214,334.691 266.008,334.875 266.803,335.061 267.597,335.248 268.391,335.435 269.186,335.623 269.98,335.812 270.774,336.002 271.569,336.192 272.363,336.383 273.157,336.575 273.952,336.767 274.746,336.961 275.54,337.154 276.335,337.349 277.129,337.544 277.923,337.74 278.718,337.937 279.512,338.134 280.306,338.331 281.101,338.529 281.895,338.728 282.689,338.926 283.484,339.126 284.278,339.325 285.072,339.525 285.867,339.725 286.661,339.925 287.455,340.126 288.25,340.327 289.044,340.528 289.838,340.729 290.633,340.93 291.427,341.132 292.221,341.334 293.016,341.536 293.81,341.739 294.604,341.941 295.399,342.144 296.193,342.347 296.987,342.55 297.781,342.754 298.576,342.957 299.37,343.161 300.164,343.365 300.959,343.569 301.753,343.773 302.547,343.977 303.342,344.182 304.136,344.386 304.93,344.591 305.725,344.795 306.519,345 307.313,345.205 308.108,345.41 308.902,345.615 309.696,345.821 310.491,346.026 311.285,346.232 312.079,346.437 312.874,346.643 313.668,346.849 314.462,347.055 315.257,347.262 316.051,347.468 316.845,347.674 317.64,347.881 318.434,348.087 319.228,348.294 320.023,348.5 320.817,348.707 321.611,348.913 322.406,349.12 323.2,349.326 323.994,349.533 324.789,349.739 325.583,349.946 326.377,350.153 327.172,350.359 327.966,350.566 328.76,350.773 329.555,350.98 330.349,351.187 331.143,351.395 331.938,351.602 332.732,351.809 333.526,352.017 334.321,352.225 335.115,352.432 335.909,352.64 336.704,352.848 337.498,353.056 338.292,353.264 339.087,353.472 339.881,353.68 340.675,353.888 341.47,354.095 342.264,354.303 343.058,354.511 343.853,354.719 344.647,354.926 345.441,355.134 346.236,355.342 347.03,355.55 347.824,355.758 348.619,355.966 349.413,356.174 350.207,356.382 351.002,356.59 351.796,356.798 352.59,357.006 353.385,357.215 354.179,357.424 354.973,357.632 355.768,357.841 356.562,358.05 357.356,358.258 358.151,358.467 358.945,358.676 359.739,358.884 360.534,359.093 361.328,359.302 362.122,359.51 362.917,359.719 363.711,359.928 364.505,360.136 365.3,360.344 366.094,360.553 366.888,360.761 367.683,360.97 368.477,361.178 369.271,361.387 370.066,361.596 370.86,361.804 371.654,362.013 372.449,362.222 373.243,362.431 374.037,362.64 374.832,362.849 375.626,363.059 376.42,363.268 377.215,363.477 378.009,363.686 378.803,363.896 379.597,364.105 380.392,364.314 381.186,364.523 381.98,364.732 382.775,364.941 383.569,365.15 384.363,365.359 385.158,365.568 385.952,365.777 386.746,365.986 387.541,366.195 388.335,366.404 389.129,366.613 389.924,366.822 390.718,367.031 391.512,367.24 392.307,367.45 393.101,367.659 393.895,367.868 394.69,368.078 395.484,368.287 396.278,368.497 397.073,368.706 397.867,368.916 398.661,369.125 399.456,369.335 400.25,369.544 401.044,369.754 401.839,369.963 402.633,370.173 403.427,370.382 404.222,370.592 405.016,370.801 405.81,371.01 406.605,371.219 407.399,371.429 408.193,371.638 408.988,371.847 409.782,372.057 410.576,372.266 411.371,372.475 412.165,372.685 412.959,372.894 413.754,373.104 414.548,373.313 415.342,373.523 416.137,373.733 416.931,373.942 417.725,374.152 418.52,374.362 419.314,374.572 420.108,374.781 420.903,374.991 421.697,375.201 422.491,375.41 423.286,375.62 424.08,375.83 424.874,376.039 425.669,376.249 426.463,376.458 427.257,376.668 428.052,376.877 428.846,377.087 429.64,377.296 430.435,377.506 431.229,377.715 432.023,377.925 432.818,378.134 433.612,378.344 434.406,378.554 435.201,378.763 435.995,378.973 436.789,379.183 437.584,379.393 438.378,379.603 439.172,379.812 439.967,380.022 440.761,380.232 441.555,380.442 442.35,380.652 443.144,380.861 443.938,381.071 444.733,381.281 445.527,381.491 446.321,381.7 447.116,381.91 447.91,382.12 448.704,382.329 449.499,382.539 450.293,382.749 451.087,382.958 451.882,383.168 452.676,383.378 453.47,383.587 454.264,383.797 455.059,384.007 455.853,384.217 456.647,384.427 457.442,384.636 458.236,384.846 459.03,385.056 459.825,385.266 460.619,385.476 461.413,385.685 462.208,385.895 463.002,386.105 463.796,386.314 464.591,386.524 465.385,386.733 466.179,386.943 466.974,387.152 467.768,387.361 468.562,387.571 469.357,387.78 470.151,387.989 470.945,388.199 471.74,388.408 472.534,388.617 473.328,388.826 474.123,389.035" stroke="#0071bc" stroke-linecap="butt" stroke-linejoin="round" stroke-width="0.5"/>
  </g>
 </g>
</svg>
