<?xml version='1.0' encoding='UTF-8' standalone='no'?>
<svg height="320pt" viewBox="0 0 374 320" width="374pt" xmlns="http://www.w3.org/2000/svg" xmlns:xlink="http://www.w3.org/1999/xlink">
 <title>Figure 9</title>
 <desc>
Creator: GL2PS 1.4.2, (C) 1999-2020 C. Geuzaine
For: Octave
CreationDate: Tue Mar  3 15:27:10 2026
</desc>
 <defs/>
 <polygon fill="#ffffff" points="0,0 374,0 374,320 0,320"/>
 <g>
  <polygon fill="#ffffff" points="0,320 374,320 374,0 0,0" shape-rendering="crispEdges"/>
  <clipPath id="cp00374320">
   <polygon points="0,320 374,320 374,0 0,0"/>
  </clipPath>
  <g clip-path="url(#cp00374320)">
   <polygon fill="#ffffff" points="48.7287,285.565 339.226,285.565 339.226,24.0645 48.7287,24.0645" shape-rendering="crispEdges"/>
   <polyline fill="none" points="48.7287,285.565 48.7287,282.666" stroke="#262626" stroke-linecap="butt" stroke-linejoin="miter" stroke-width="0.5"/>
   <polyline fill="none" points="48.7287,24.0645 48.7287,26.9639" stroke="#262626" stroke-linecap="butt" stroke-linejoin="miter" stroke-width="0.5"/>
   <polyline fill="none" points="106.828,285.565 106.828,282.666" stroke="#262626" stroke-linecap="butt" stroke-linejoin="miter" stroke-width="0.5"/>
   <polyline fill="none" points="106.828,24.0645 106.828,26.9639" stroke="#262626" stroke-linecap="butt" stroke-linejoin="miter" stroke-width="0.5"/>
   <polyline fill="none" points="164.928,285.565 164.928,282.666" stroke="#262626" stroke-linecap="butt" stroke-linejoin="miter" stroke-width="0.5"/>
   <polyline fill="none" points="164.928,24.0645 164.928,26.9639" stroke="#262626" stroke-linecap="butt" stroke-linejoin="miter" stroke-width="0.5"/>
   <polyline fill="none" points="223.027,285.565 223.027,282.666" stroke="#262626" stroke-linecap="butt" stroke-linejoin="miter" stroke-width="0.5"/>
   <polyline fill="none" points="223.027,24.0645 223.027,26.9639" stroke="#262626" stroke-linecap="butt" stroke-linejoin="miter" stroke-width="0.5"/>
   <polyline fill="none" points="281.127,285.565 281.127,282.666" stroke="#262626" stroke-linecap="butt" stroke-linejoin="miter" stroke-width="0.5"/>
   <polyline fill="none" points="281.127,24.0645 281.127,26.9639" stroke="#262626" stroke-linecap="butt" stroke-linejoin="miter" stroke-width="0.5"/>
   <polyline fill="none" points="339.226,285.565 339.226,282.666" stroke="#262626" stroke-linecap="butt" stroke-linejoin="miter" stroke-width="0.5"/>
   <polyline fill="none" points="339.226,24.0645 339.226,26.9639" stroke="#262626" stroke-linecap="butt" stroke-linejoin="miter" stroke-width="0.5"/>
   <g font-family="FreeSans" font-size="10" font-style="normal" font-weight="normal" transform="translate(45.7287,301.051) rotate(-0,3,-8)" xml:space="preserve">
    <text fill="rgb(38,38,38)" x="0 " y="-0">0</text>
   </g>
   <g font-family="FreeSans" font-size="10" font-style="normal" font-weight="normal" transform="translate(99.3282,301.051) rotate(-0,7.5,-8)" xml:space="preserve">
    <text fill="rgb(38,38,38)" x="0 6 9 " y="-0">0.2</text>
   </g>
   <g font-family="FreeSans" font-size="10" font-style="normal" font-weight="normal" transform="translate(157.428,301.051) rotate(-0,7.5,-8)" xml:space="preserve">
    <text fill="rgb(38,38,38)" x="0 6 9 " y="-0">0.4</text>
   </g>
   <g font-family="FreeSans" font-size="10" font-style="normal" font-weight="normal" transform="translate(215.527,301.051) rotate(-0,7.5,-8)" xml:space="preserve">
    <text fill="rgb(38,38,38)" x="0 6 9 " y="-0">0.6</text>
   </g>
   <g font-family="FreeSans" font-size="10" font-style="normal" font-weight="normal" transform="translate(273.627,301.051) rotate(-0,7.5,-8)" xml:space="preserve">
    <text fill="rgb(38,38,38)" x="0 6 9 " y="-0">0.8</text>
   </g>
   <g font-family="FreeSans" font-size="10" font-style="normal" font-weight="normal" transform="translate(336.226,301.051) rotate(-0,3,-8)" xml:space="preserve">
    <text fill="rgb(38,38,38)" x="0 " y="-0">1</text>
   </g>
   <polyline fill="none" points="48.7287,285.565 51.6386,285.565" stroke="#262626" stroke-linecap="butt" stroke-linejoin="miter" stroke-width="0.5"/>
   <polyline fill="none" points="339.226,285.565 336.316,285.565" stroke="#262626" stroke-linecap="butt" stroke-linejoin="miter" stroke-width="0.5"/>
   <polyline fill="none" points="48.7287,203.319 51.6386,203.319" stroke="#262626" stroke-linecap="butt" stroke-linejoin="miter" stroke-width="0.5"/>
   <polyline fill="none" points="339.226,203.319 336.316,203.319" stroke="#262626" stroke-linecap="butt" stroke-linejoin="miter" stroke-width="0.5"/>
   <polyline fill="none" points="48.7287,121.073 51.6386,121.073" stroke="#262626" stroke-linecap="butt" stroke-linejoin="miter" stroke-width="0.5"/>
   <polyline fill="none" points="339.226,121.073 336.316,121.073" stroke="#262626" stroke-linecap="butt" stroke-linejoin="miter" stroke-width="0.5"/>
   <polyline fill="none" points="48.7287,38.8277 51.6386,38.8277" stroke="#262626" stroke-linecap="butt" stroke-linejoin="miter" stroke-width="0.5"/>
   <polyline fill="none" points="339.226,38.8277 336.316,38.8277" stroke="#262626" stroke-linecap="butt" stroke-linejoin="miter" stroke-width="0.5"/>
   <g font-family="FreeSans" font-size="10" font-style="normal" font-weight="normal" transform="translate(37.7201,289.565) rotate(-0,6,-4)" xml:space="preserve">
    <text fill="rgb(38,38,38)" x="0 " y="-0">0</text>
   </g>
   <g font-family="FreeSans" font-size="10" font-style="normal" font-weight="normal" transform="translate(28.7201,207.319) rotate(-0,15,-4)" xml:space="preserve">
    <text fill="rgb(38,38,38)" x="0 6 9 " y="-0">0.5</text>
   </g>
   <g font-family="FreeSans" font-size="10" font-style="normal" font-weight="normal" transform="translate(37.7201,125.073) rotate(-0,6,-4)" xml:space="preserve">
    <text fill="rgb(38,38,38)" x="0 " y="-0">1</text>
   </g>
   <g font-family="FreeSans" font-size="10" font-style="normal" font-weight="normal" transform="translate(28.7201,42.8277) rotate(-0,15,-4)" xml:space="preserve">
    <text fill="rgb(38,38,38)" x="0 6 9 " y="-0">1.5</text>
   </g>
   <polyline fill="none" points="48.7287,285.565 339.226,285.565" stroke="#262626" stroke-dasharray="16,0" stroke-linecap="square" stroke-linejoin="miter" stroke-width="0.5"/>
   <polyline fill="none" points="48.7287,24.0645 339.226,24.0645" stroke="#262626" stroke-dasharray="16,0" stroke-linecap="square" stroke-linejoin="miter" stroke-width="0.5"/>
   <polyline fill="none" points="48.7287,285.565 48.7287,24.0645" stroke="#262626" stroke-dasharray="16,0" stroke-linecap="square" stroke-linejoin="miter" stroke-width="0.5"/>
   <polyline fill="none" points="339.226,285.565 339.226,24.0645" stroke="#262626" stroke-dasharray="16,0" stroke-linecap="square" stroke-linejoin="miter" stroke-width="0.5"/>
   <g font-family="FreeSans" font-size="11" font-style="normal" font-weight="normal" transform="translate(101.978,318.051) rotate(-0,92,-12)" xml:space="preserve">
    <text fill="rgb(38,38,38)" x="0 8 14 18 27 33 35 37 42 48 54 57 64 68 74 80 86 92 98 104 109 112 116 122 124 127 131 137 143 146 151 157 166 172 174 180 " y="-3">Normalized Frequency (pi rad/sample)</text>
   </g>
   <g font-family="FreeSans" font-size="11" font-style="normal" font-weight="normal" transform="translate(11.2201,154.815) rotate(-90,12.5,0)" xml:space="preserve">
    <text fill="rgb(38,38,38)" x="0 7 11 15 21 " y="-0">Error</text>
   </g>
   <g font-family="FreeSans" font-size="11" font-style="normal" font-weight="bold" transform="translate(16.4776,14.0645) rotate(-0,177.5,0)" xml:space="preserve">
    <text fill="rgb(0,0,0)" x="0 8 12 19 22 25 32 36 40 43 46 49 56 60 67 73 77 83 89 95 101 104 107 117 123 129 136 139 145 149 153 156 160 163 169 173 179 185 188 194 200 206 212 215 218 228 234 240 247 250 256 260 264 267 276 282 285 292 299 303 309 316 322 328 331 337 343 349 " y="-3">Grd. Err., order=241, mean err flat=0.0347, mean err weighted=0.0337</text>
   </g>
   <polyline fill="none" points="48.7287,285.565 49.2961,285.565 49.8634,285.565 50.4308,285.565 50.9982,285.565 51.5656,285.565 52.1329,285.565 52.7003,285.565 53.2677,285.565 53.8351,285.565 54.4025,285.565 54.9698,285.565 55.5372,285.565 56.1046,285.565 56.672,285.565 57.2394,285.565 57.8067,285.565 58.3741,285.565 58.9415,285.565 59.5089,285.565 60.0762,285.565 60.6436,285.565 61.211,285.565 61.7784,285.565 62.3458,285.565 62.9131,285.565 63.4805,285.565 64.0479,285.565 64.6153,285.565 65.1827,285.565 65.75,285.565 66.3174,285.565 66.8848,285.565 67.4522,285.565 68.0195,285.565 68.5869,285.565 69.1543,285.565 69.7217,285.565 70.2891,285.565 70.8564,285.565 71.4238,285.565 71.9912,285.565 72.5586,285.565 73.1259,285.565 73.6933,285.565 74.2607,285.565 74.8281,285.565 75.3955,285.565 75.9628,285.565 76.5302,285.565 77.0976,285.565 77.665,285.565 78.2324,285.565 78.7997,285.565 79.3671,285.565 79.9345,285.565 80.5019,285.565 81.0692,285.565 81.6366,285.565 82.204,285.565 82.7714,285.565 83.3388,285.565 83.9061,285.565 84.4735,285.564 85.0409,285.564 85.6083,285.564 86.1757,285.565 86.743,285.565 87.3104,285.565 87.8778,285.565 88.4452,285.564 89.0126,285.564 89.5799,285.563 90.1473,285.563 90.7147,285.564 91.2821,285.564 91.8494,285.564 92.4168,285.564 92.9842,285.563 93.5516,285.561 94.1189,285.559 94.6863,285.558 95.2537,285.557 95.8211,285.557 96.3885,285.557 96.9558,285.556 97.5232,285.554 98.0906,285.549 98.658,285.544 99.2254,285.539 99.7927,285.538 100.36,285.54 100.927,285.543 101.495,285.547 102.062,285.548 102.63,285.548 103.197,285.547 103.764,285.547 104.332,285.549 104.899,285.553 105.467,285.557 106.034,285.561 106.601,285.562 107.169,285.563 107.736,285.562 108.303,285.561 108.871,285.561 109.438,285.562 110.006,285.564 110.573,285.565 111.14,285.565 111.708,285.565 112.275,285.565 112.842,285.565 113.41,285.565 113.977,285.565 114.545,285.565 115.112,285.564 115.679,285.561 116.247,285.558 116.814,285.557 117.381,285.558 117.949,285.56 118.516,285.56 119.084,285.558 119.651,285.552 120.218,285.542 120.786,285.53 121.353,285.522 121.921,285.519 122.488,285.52 123.055,285.52 123.623,285.512 124.19,285.492 124.757,285.459 125.325,285.415 125.892,285.369 126.46,285.329 127.027,285.293 127.594,285.25 128.162,285.179 128.729,285.059 129.296,284.872 129.864,284.61 130.431,284.28 130.999,283.892 131.566,283.438 132.133,282.876 132.701,282.124 133.268,281.076 133.835,279.627 134.403,277.693 134.97,275.225 135.538,272.193 136.105,268.581 136.672,264.429 137.24,260.005 137.807,256.071 138.374,254.102 138.942,256.094 139.509,263.48 140.077,275.055 140.644,284.68 141.211,280.744 141.779,249.838 142.346,185.54 142.914,98.5986 143.449,23.8029" stroke="#0071bc" stroke-linecap="butt" stroke-linejoin="round" stroke-width="0.5"/>
   <polyline fill="none" points="144.713,23.8029 145.183,86.3633 145.75,174.777 146.318,243.146 146.885,278.12 147.453,285.425 148.02,278.855 148.587,270.097 149.155,264.757 149.722,263.521 150.289,264.967 150.857,267.606 151.424,270.578 151.992,273.533 152.559,276.3 153.126,278.706 153.694,280.584 154.261,281.866 154.828,282.618 155.396,282.99 155.963,283.155 156.531,283.269 157.098,283.428 157.665,283.636 158.233,283.826 158.8,283.916 159.367,283.858 159.935,283.645 160.502,283.307 161.07,282.892 161.637,282.423 162.204,281.86 162.772,281.103 163.339,280.048 163.907,278.689 164.474,277.221 165.041,276.081 165.609,275.845 166.176,276.973 166.743,279.518 167.311,282.855 167.878,285.369 168.446,284.158 169.013,275.182 169.58,254.768 170.148,222.788 170.715,185.798 171.282,156.476 171.85,147.398 172.417,162.857 172.985,195.835 173.552,232.934 174.119,262.542 174.687,279.661 175.254,285.429 175.821,283.932 176.389,279.37 176.956,274.717 177.524,271.54 178.091,270.297 178.658,270.732 179.226,272.256 179.793,274.245 180.36,276.237 180.928,277.988 181.495,279.437 182.063,280.62 182.63,281.599 183.197,282.423 183.765,283.111 184.332,283.672 184.9,284.111 185.467,284.445 186.034,284.696 186.602,284.887 187.169,285.038 187.736,285.157 188.304,285.251 188.871,285.32 189.439,285.37 190.006,285.404 190.573,285.431 191.141,285.453 191.708,285.474 192.275,285.493 192.843,285.51 193.41,285.521 193.978,285.529 194.545,285.533 195.112,285.535 195.68,285.539 196.247,285.544 196.814,285.55 197.382,285.556 197.949,285.559 198.517,285.561 199.084,285.561 199.651,285.561 200.219,285.561 200.786,285.562 201.354,285.563 201.921,285.565 202.488,285.565 203.056,285.565 203.623,285.565 204.19,285.565 204.758,285.565 205.325,285.565 205.893,285.565 206.46,285.564 207.027,285.562 207.595,285.561 208.162,285.56 208.729,285.56 209.297,285.561 209.864,285.562 210.432,285.561 210.999,285.559 211.566,285.554 212.134,285.55 212.701,285.547 213.268,285.547 213.836,285.549 214.403,285.551 214.971,285.553 215.538,285.552 216.105,285.55 216.673,285.547 217.24,285.546 217.807,285.548 218.375,285.552 218.942,285.557 219.51,285.56 220.077,285.561 220.644,285.561 221.212,285.56 221.779,285.559 222.346,285.559 222.914,285.561 223.481,285.563 224.049,285.564 224.616,285.565 225.183,285.565 225.751,285.564 226.318,285.563 226.886,285.563 227.453,285.563 228.02,285.564 228.588,285.565 229.155,285.565 229.722,285.565 230.29,285.565 230.857,285.565 231.425,285.564 231.992,285.564 232.559,285.564 233.127,285.565 233.694,285.565 234.261,285.565 234.829,285.565 235.396,285.565 235.964,285.565 236.531,285.564 237.098,285.564 237.666,285.565 238.233,285.565 238.8,285.565 239.368,285.565 239.935,285.565 240.503,285.565 241.07,285.565 241.637,285.564 242.205,285.565 242.772,285.565 243.339,285.565 243.907,285.565 244.474,285.565 245.042,285.565 245.609,285.565 246.176,285.565 246.744,285.565 247.311,285.565 247.879,285.565 248.446,285.565 249.013,285.565 249.581,285.565 250.148,285.565 250.715,285.565 251.283,285.565 251.85,285.565 252.418,285.565 252.985,285.565 253.552,285.565 254.12,285.565 254.687,285.565 255.254,285.565 255.822,285.565 256.389,285.565 256.957,285.565 257.524,285.565 258.091,285.565 258.659,285.565 259.226,285.565 259.793,285.565 260.361,285.565 260.928,285.565 261.496,285.565 262.063,285.565 262.63,285.565 263.198,285.565 263.765,285.565 264.333,285.565 264.9,285.565 265.467,285.565 266.035,285.565 266.602,285.565 267.169,285.565 267.737,285.565 268.304,285.565 268.872,285.565 269.439,285.565 270.006,285.565 270.574,285.565 271.141,285.565 271.708,285.565 272.276,285.565 272.843,285.565 273.411,285.565 273.978,285.565 274.545,285.565 275.113,285.565 275.68,285.565 276.247,285.565 276.815,285.565 277.382,285.565 277.95,285.565 278.517,285.565 279.084,285.565 279.652,285.565 280.219,285.565 280.786,285.565 281.354,285.565 281.921,285.565 282.489,285.565 283.056,285.565 283.623,285.565 284.191,285.565 284.758,285.565 285.326,285.565 285.893,285.565 286.46,285.565 287.028,285.565 287.595,285.565 288.162,285.565 288.73,285.565 289.297,285.565 289.865,285.565 290.432,285.565 290.999,285.565 291.567,285.565 292.134,285.565 292.701,285.565 293.269,285.565 293.836,285.565 294.404,285.565 294.971,285.565 295.538,285.565 296.106,285.565 296.673,285.565 297.24,285.565 297.808,285.565 298.375,285.565 298.943,285.565 299.51,285.565 300.077,285.565 300.645,285.565 301.212,285.565 301.779,285.565 302.347,285.565 302.914,285.565 303.482,285.565 304.049,285.565 304.616,285.565 305.184,285.565 305.751,285.565 306.319,285.565 306.886,285.565 307.453,285.565 308.021,285.565 308.588,285.565 309.155,285.565 309.723,285.565 310.29,285.565 310.858,285.565 311.425,285.565 311.992,285.565 312.56,285.565 313.127,285.565 313.694,285.565 314.262,285.565 314.829,285.565 315.397,285.565 315.964,285.565 316.531,285.565 317.099,285.565 317.666,285.565 318.233,285.565 318.801,285.565 319.368,285.565 319.936,285.565 320.503,285.565 321.07,285.565 321.638,285.565 322.205,285.565 322.772,285.565 323.34,285.565 323.907,285.565 324.475,285.565 325.042,285.565 325.609,285.565 326.177,285.565 326.744,285.565 327.312,285.565 327.879,285.565 328.446,285.565 329.014,285.565 329.581,285.565 330.148,285.565 330.716,285.565 331.283,285.565 331.851,285.565 332.418,285.565 332.985,285.565 333.553,285.565 334.12,285.565 334.687,285.565 335.255,285.565 335.822,285.565 336.39,285.565 336.957,285.565 337.524,285.565 338.092,285.565 338.659,285.565" stroke="#0071bc" stroke-linecap="butt" stroke-linejoin="round" stroke-width="0.5"/>
   <polyline fill="none" points="77.7785,285.565 79.3382,285.565 80.8979,285.565 82.4576,285.565 84.0173,285.565 85.577,285.565 87.1368,285.565 88.6965,285.565 90.2562,285.565 91.8159,285.565 93.3757,285.565 94.9354,285.565 96.4951,285.565 98.0548,285.565 99.6145,285.565 101.174,285.565 102.734,285.565 104.294,285.565 105.853,285.565 107.413,285.565 108.973,285.565 110.533,285.565 112.092,285.565 113.652,285.565 115.212,285.565 116.771,285.565 118.331,285.565 119.891,285.563 121.451,285.559 123.01,285.556 124.57,285.539 126.13,285.489 127.689,285.411 129.249,285.147 130.809,284.42 132.369,282.988 133.928,279.699 135.488,272.832 137.048,261.998 138.608,256.239 140.167,278.843 141.727,250.98 143.287,47.8372 144.846,51.0776 146.406,252.289 147.966,279.84 149.526,264.115 151.085,268.82 152.645,276.586 154.205,281.672 155.764,283.076 157.324,283.483 158.884,283.91 160.444,283.395 162.003,282.214 163.563,280.071 165.123,277.317 166.682,280.319 168.242,285.518 169.802,266.279 171.362,230.379 172.921,249.967 174.481,281.192 176.041,285.147 177.601,283.213 179.16,283.591 180.72,284.552 182.28,285.102 183.839,285.364 185.399,285.484 186.959,285.531 188.519,285.551 190.078,285.559 191.638,285.562 193.198,285.564 194.757,285.564 196.317,285.565 197.877,285.565 199.437,285.565 200.996,285.565 202.556,285.565 204.116,285.565 205.675,285.565 207.235,285.565 208.795,285.565 210.355,285.565 211.914,285.565 213.474,285.565 215.034,285.565 216.594,285.565 218.153,285.565 219.713,285.565 221.273,285.565 222.832,285.565 224.392,285.565 225.952,285.565 227.512,285.565 229.071,285.565 230.631,285.565 232.191,285.565 233.75,285.565 235.31,285.565 236.87,285.565 238.43,285.565 239.989,285.565 241.549,285.565 243.109,285.565 244.668,285.565 246.228,285.565 247.788,285.565 249.348,285.565 250.907,285.565 252.467,285.565 254.027,285.565 255.587,285.565 257.146,285.565 258.706,285.565 260.266,285.565 261.825,285.565 263.385,285.565 264.945,285.565 266.505,285.565 268.064,285.565 269.624,285.565 271.184,285.565 272.743,285.565 274.303,285.565 275.863,285.565 277.423,285.565 278.982,285.565 280.542,285.565 282.102,285.565 283.661,285.565 285.221,285.565 286.781,285.565 288.341,285.565 289.9,285.565 291.46,285.565 293.02,285.565 294.579,285.565 296.139,285.565 297.699,285.565 299.259,285.565 300.818,285.565 302.378,285.565 303.938,285.565 305.498,285.565 307.057,285.565 308.617,285.565 310.177,285.565" stroke="#d85218" stroke-linecap="butt" stroke-linejoin="round" stroke-width="0.5"/>
   <polyline fill="none" points="77.7785,285.532 79.3382,285.544 80.8979,285.556 82.4576,285.552 84.0173,285.528 85.577,285.498 87.1368,285.459 88.6965,285.41 90.2562,285.351 91.8159,285.279 93.3757,285.192 94.9354,285.08 96.4951,284.943 98.0548,284.777 99.6145,284.576 101.174,284.333 102.734,284.017 104.294,283.63 105.853,283.154 107.413,282.57 108.973,281.848 110.533,280.891 112.092,279.685 113.652,278.163 115.212,276.242 116.771,273.784 118.331,270.38 119.891,265.906 121.451,260.027 123.01,252.336 124.57,242.13 126.13,227.82 127.689,209.904 129.249,189.325 130.809,167.88 132.369,149.021 133.928,137.472 135.488,130.886 137.048,127.69 138.608,126.413 140.167,125.88 141.727,125.408 143.287,124.842 144.846,124.171 146.406,123.407 147.966,122.573 149.526,121.712 151.085,120.866 152.645,120.06 154.205,119.322 155.764,118.707 157.324,118.384 158.884,118.611 160.444,119.895 162.003,122.941 163.563,129.317 165.123,141.17 166.682,157.267 168.242,176.057 169.802,195.651 171.362,213.487 172.921,227.979 174.481,239.78 176.041,249.2 177.601,256.611 179.16,262.244 180.72,266.553 182.28,270.023 183.839,272.815 185.399,275.066 186.959,276.838 188.519,278.252 190.078,279.427 191.638,280.405 193.198,281.219 194.757,281.882 196.317,282.428 197.877,282.893 199.437,283.289 200.996,283.627 202.556,283.908 204.116,284.145 205.675,284.35 207.235,284.527 208.795,284.68 210.355,284.809 211.914,284.92 213.474,285.017 215.034,285.101 216.594,285.174 218.153,285.237 219.713,285.291 221.273,285.338 222.832,285.379 224.392,285.415 225.952,285.446 227.512,285.473 229.071,285.496 230.631,285.516 232.191,285.533 233.75,285.548 235.31,285.56 236.87,285.558 238.43,285.549 239.989,285.541 241.549,285.534 243.109,285.529 244.668,285.525 246.228,285.521 247.788,285.518 249.348,285.516 250.907,285.515 252.467,285.514 254.027,285.513 255.587,285.513 257.146,285.513 258.706,285.514 260.266,285.515 261.825,285.516 263.385,285.517 264.945,285.518 266.505,285.52 268.064,285.522 269.624,285.524 271.184,285.526 272.743,285.528 274.303,285.53 275.863,285.532 277.423,285.534 278.982,285.536 280.542,285.539 282.102,285.541 283.661,285.543 285.221,285.545 286.781,285.548 288.341,285.55 289.9,285.552 291.46,285.555 293.02,285.557 294.579,285.559 296.139,285.561 297.699,285.563 299.259,285.564 300.818,285.563 302.378,285.561 303.938,285.559 305.498,285.557 307.057,285.555 308.617,285.553 310.177,285.551" stroke="#ecb01f" stroke-linecap="butt" stroke-linejoin="round" stroke-width="0.5"/>
  </g>
  <clipPath id="cp00374320">
   <polygon points="0,320 374,320 374,0 0,0"/>
  </clipPath>
  <g clip-path="url(#cp00374320)">
   <polygon fill="#ffffff" points="225.209,76.4787 331.223,76.4787 331.223,32.068 225.209,32.068" shape-rendering="crispEdges"/>
   <polyline fill="none" points="225.209,76.4787 331.223,76.4787" stroke="#262626" stroke-dasharray="16,0" stroke-linecap="square" stroke-linejoin="miter" stroke-width="0.5"/>
   <polyline fill="none" points="225.209,32.068 331.223,32.068" stroke="#262626" stroke-dasharray="16,0" stroke-linecap="square" stroke-linejoin="miter" stroke-width="0.5"/>
   <polyline fill="none" points="225.209,76.4787 225.209,32.068" stroke="#262626" stroke-dasharray="16,0" stroke-linecap="square" stroke-linejoin="miter" stroke-width="0.5"/>
   <polyline fill="none" points="331.223,76.4787 331.223,32.068" stroke="#262626" stroke-dasharray="16,0" stroke-linecap="square" stroke-linejoin="miter" stroke-width="0.5"/>
   <polyline fill="none" points="229.211,40.2715 249.219,40.2715" stroke="#0071bc" stroke-linecap="butt" stroke-linejoin="round" stroke-width="0.5"/>
   <g font-family="FreeSans" font-size="9" font-style="normal" font-weight="normal" transform="translate(253.221,44.2716) rotate(-0,-0,-4)" xml:space="preserve">
    <text fill="rgb(0,0,0)" x="0 6 9 12 14 19 21 26 " y="-0">Err Flat</text>
   </g>
   <polyline fill="none" points="229.211,53.4752 249.219,53.4752" stroke="#d85218" stroke-linecap="butt" stroke-linejoin="round" stroke-width="0.5"/>
   <g font-family="FreeSans" font-size="9" font-style="normal" font-weight="normal" transform="translate(253.221,58.4751) rotate(-0,-0,-5)" xml:space="preserve">
    <text fill="rgb(0,0,0)" x="0 6 9 12 14 22 27 29 34 39 42 47 52 54 56 58 60 62 64 66 68 70 72 " y="-2">Err Weighted           </text>
   </g>
   <polyline fill="none" points="229.211,67.4769 249.219,67.4769" stroke="#ecb01f" stroke-linecap="butt" stroke-linejoin="round" stroke-width="0.5"/>
   <g font-family="FreeSans" font-size="9" font-style="normal" font-weight="normal" transform="translate(253.221,72.4769) rotate(-0,-0,-5)" xml:space="preserve">
    <text fill="rgb(0,0,0)" x="0 6 9 12 14 22 27 29 34 39 42 " y="-2">Err Weights</text>
   </g>
  </g>
 </g>
</svg>
