<?xml version='1.0' encoding='UTF-8' standalone='no'?>
<svg height="470pt" viewBox="0 0 524 470" width="524pt" xmlns="http://www.w3.org/2000/svg" xmlns:xlink="http://www.w3.org/1999/xlink">
 <title>Figure 9</title>
 <desc>
Creator: GL2PS 1.4.2, (C) 1999-2020 C. Geuzaine
For: Octave
CreationDate: Thu Feb 12 12:53:03 2026
</desc>
 <defs/>
 <polygon fill="#ffffff" points="0,0 524,0 524,470 0,470"/>
 <g>
  <polygon fill="#ffffff" points="0,470 524,470 524,0 0,0" shape-rendering="crispEdges"/>
  <clipPath id="cp00524470">
   <polygon points="0,470 524,470 524,0 0,0"/>
  </clipPath>
  <g clip-path="url(#cp00524470)">
   <polygon fill="#ffffff" points="68.2201,419.007 474.917,419.007 474.917,35.3095 68.2201,35.3095" shape-rendering="crispEdges"/>
   <polyline fill="none" points="68.2201,419.007 68.2201,414.943" stroke="#262626" stroke-linecap="butt" stroke-linejoin="miter" stroke-width="0.5"/>
   <polyline fill="none" points="68.2201,35.3095 68.2201,39.3733" stroke="#262626" stroke-linecap="butt" stroke-linejoin="miter" stroke-width="0.5"/>
   <polyline fill="none" points="149.56,419.007 149.56,414.943" stroke="#262626" stroke-linecap="butt" stroke-linejoin="miter" stroke-width="0.5"/>
   <polyline fill="none" points="149.56,35.3095 149.56,39.3733" stroke="#262626" stroke-linecap="butt" stroke-linejoin="miter" stroke-width="0.5"/>
   <polyline fill="none" points="230.899,419.007 230.899,414.943" stroke="#262626" stroke-linecap="butt" stroke-linejoin="miter" stroke-width="0.5"/>
   <polyline fill="none" points="230.899,35.3095 230.899,39.3733" stroke="#262626" stroke-linecap="butt" stroke-linejoin="miter" stroke-width="0.5"/>
   <polyline fill="none" points="312.238,419.007 312.238,414.943" stroke="#262626" stroke-linecap="butt" stroke-linejoin="miter" stroke-width="0.5"/>
   <polyline fill="none" points="312.238,35.3095 312.238,39.3733" stroke="#262626" stroke-linecap="butt" stroke-linejoin="miter" stroke-width="0.5"/>
   <polyline fill="none" points="393.578,419.007 393.578,414.943" stroke="#262626" stroke-linecap="butt" stroke-linejoin="miter" stroke-width="0.5"/>
   <polyline fill="none" points="393.578,35.3095 393.578,39.3733" stroke="#262626" stroke-linecap="butt" stroke-linejoin="miter" stroke-width="0.5"/>
   <polyline fill="none" points="474.917,419.007 474.917,414.943" stroke="#262626" stroke-linecap="butt" stroke-linejoin="miter" stroke-width="0.5"/>
   <polyline fill="none" points="474.917,35.3095 474.917,39.3733" stroke="#262626" stroke-linecap="butt" stroke-linejoin="miter" stroke-width="0.5"/>
   <g font-family="FreeSans" font-size="10" font-style="normal" font-weight="normal" transform="translate(65.2201,434.501) rotate(-0,3,-8)" xml:space="preserve">
    <text fill="rgb(38,38,38)" x="0 " y="-0">0</text>
   </g>
   <g font-family="FreeSans" font-size="10" font-style="normal" font-weight="normal" transform="translate(142.06,434.501) rotate(-0,7.5,-8)" xml:space="preserve">
    <text fill="rgb(38,38,38)" x="0 6 9 " y="-0">0.2</text>
   </g>
   <g font-family="FreeSans" font-size="10" font-style="normal" font-weight="normal" transform="translate(223.399,434.501) rotate(-0,7.5,-8)" xml:space="preserve">
    <text fill="rgb(38,38,38)" x="0 6 9 " y="-0">0.4</text>
   </g>
   <g font-family="FreeSans" font-size="10" font-style="normal" font-weight="normal" transform="translate(304.738,434.501) rotate(-0,7.5,-8)" xml:space="preserve">
    <text fill="rgb(38,38,38)" x="0 6 9 " y="-0">0.6</text>
   </g>
   <g font-family="FreeSans" font-size="10" font-style="normal" font-weight="normal" transform="translate(386.078,434.501) rotate(-0,7.5,-8)" xml:space="preserve">
    <text fill="rgb(38,38,38)" x="0 6 9 " y="-0">0.8</text>
   </g>
   <g font-family="FreeSans" font-size="10" font-style="normal" font-weight="normal" transform="translate(471.917,434.501) rotate(-0,3,-8)" xml:space="preserve">
    <text fill="rgb(38,38,38)" x="0 " y="-0">1</text>
   </g>
   <polyline fill="none" points="68.2201,419.007 72.2841,419.007" stroke="#262626" stroke-linecap="butt" stroke-linejoin="miter" stroke-width="0.5"/>
   <polyline fill="none" points="474.917,419.007 470.853,419.007" stroke="#262626" stroke-linecap="butt" stroke-linejoin="miter" stroke-width="0.5"/>
   <polyline fill="none" points="68.2201,342.267 72.2841,342.267" stroke="#262626" stroke-linecap="butt" stroke-linejoin="miter" stroke-width="0.5"/>
   <polyline fill="none" points="474.917,342.267 470.853,342.267" stroke="#262626" stroke-linecap="butt" stroke-linejoin="miter" stroke-width="0.5"/>
   <polyline fill="none" points="68.2201,265.528 72.2841,265.528" stroke="#262626" stroke-linecap="butt" stroke-linejoin="miter" stroke-width="0.5"/>
   <polyline fill="none" points="474.917,265.528 470.853,265.528" stroke="#262626" stroke-linecap="butt" stroke-linejoin="miter" stroke-width="0.5"/>
   <polyline fill="none" points="68.2201,188.788 72.2841,188.788" stroke="#262626" stroke-linecap="butt" stroke-linejoin="miter" stroke-width="0.5"/>
   <polyline fill="none" points="474.917,188.788 470.853,188.788" stroke="#262626" stroke-linecap="butt" stroke-linejoin="miter" stroke-width="0.5"/>
   <polyline fill="none" points="68.2201,112.049 72.2841,112.049" stroke="#262626" stroke-linecap="butt" stroke-linejoin="miter" stroke-width="0.5"/>
   <polyline fill="none" points="474.917,112.049 470.853,112.049" stroke="#262626" stroke-linecap="butt" stroke-linejoin="miter" stroke-width="0.5"/>
   <polyline fill="none" points="68.2201,35.3095 72.2841,35.3095" stroke="#262626" stroke-linecap="butt" stroke-linejoin="miter" stroke-width="0.5"/>
   <polyline fill="none" points="474.917,35.3095 470.853,35.3095" stroke="#262626" stroke-linecap="butt" stroke-linejoin="miter" stroke-width="0.5"/>
   <g font-family="FreeSans" font-size="10" font-style="normal" font-weight="normal" transform="translate(57.2239,423.007) rotate(-0,6,-4)" xml:space="preserve">
    <text fill="rgb(38,38,38)" x="0 " y="-0">0</text>
   </g>
   <g font-family="FreeSans" font-size="10" font-style="normal" font-weight="normal" transform="translate(51.2239,346.267) rotate(-0,12,-4)" xml:space="preserve">
    <text fill="rgb(38,38,38)" x="0 6 " y="-0">10</text>
   </g>
   <g font-family="FreeSans" font-size="10" font-style="normal" font-weight="normal" transform="translate(51.2239,269.528) rotate(-0,12,-4)" xml:space="preserve">
    <text fill="rgb(38,38,38)" x="0 6 " y="-0">20</text>
   </g>
   <g font-family="FreeSans" font-size="10" font-style="normal" font-weight="normal" transform="translate(51.2239,192.788) rotate(-0,12,-4)" xml:space="preserve">
    <text fill="rgb(38,38,38)" x="0 6 " y="-0">30</text>
   </g>
   <g font-family="FreeSans" font-size="10" font-style="normal" font-weight="normal" transform="translate(51.2239,116.049) rotate(-0,12,-4)" xml:space="preserve">
    <text fill="rgb(38,38,38)" x="0 6 " y="-0">40</text>
   </g>
   <g font-family="FreeSans" font-size="10" font-style="normal" font-weight="normal" transform="translate(51.2239,39.3095) rotate(-0,12,-4)" xml:space="preserve">
    <text fill="rgb(38,38,38)" x="0 6 " y="-0">50</text>
   </g>
   <polyline fill="none" points="68.2201,419.007 474.917,419.007" stroke="#262626" stroke-dasharray="16,0" stroke-linecap="square" stroke-linejoin="miter" stroke-width="0.5"/>
   <polyline fill="none" points="68.2201,35.3095 474.917,35.3095" stroke="#262626" stroke-dasharray="16,0" stroke-linecap="square" stroke-linejoin="miter" stroke-width="0.5"/>
   <polyline fill="none" points="68.2201,419.007 68.2201,35.3095" stroke="#262626" stroke-dasharray="16,0" stroke-linecap="square" stroke-linejoin="miter" stroke-width="0.5"/>
   <polyline fill="none" points="474.917,419.007 474.917,35.3095" stroke="#262626" stroke-dasharray="16,0" stroke-linecap="square" stroke-linejoin="miter" stroke-width="0.5"/>
   <g font-family="FreeSans" font-size="11" font-style="normal" font-weight="bold" transform="translate(62.5686,25.3095) rotate(-0,209,0)" xml:space="preserve">
    <text fill="rgb(0,0,0)" x="0 8 12 19 26 33 36 44 50 53 59 65 68 75 79 83 90 94 97 100 107 111 118 124 128 134 140 146 149 152 162 168 174 181 184 190 194 198 201 205 208 214 218 224 230 233 239 245 251 257 263 266 269 279 285 291 298 301 307 311 315 318 327 333 336 343 350 354 360 367 373 379 382 388 394 400 406 412 " y="-3">Group Delay Error, order=79, mean err flat=0.85924, mean err weighted=0.868369</text>
   </g>
   <polyline fill="none" points="68.2201,418.876 69.0145,418.883 69.8088,418.904 70.6031,418.932 71.3975,418.963 72.1918,418.989 72.9861,419.004 73.7804,419.005 74.5748,418.993 75.3691,418.97 76.1635,418.941 76.9578,418.915 77.7521,418.897 78.5464,418.891 79.3408,418.899 80.1351,418.919 80.9294,418.946 81.7238,418.973 82.5181,418.995 83.3124,419.006 84.1067,419.003 84.9011,418.987 85.6954,418.962 86.4897,418.932 87.2841,418.906 88.0784,418.888 88.8727,418.882 89.6671,418.891 90.4614,418.912 91.2557,418.94 92.05,418.968 92.8444,418.992 93.6387,419.005 94.433,419.005 95.2274,418.993 96.0217,418.972 96.816,418.948 97.6104,418.926 98.4047,418.912 99.199,418.909 99.9933,418.918 100.788,418.936 101.582,418.96 102.376,418.983 103.171,419 103.965,419.007 104.759,419.002 105.554,418.986 106.348,418.963 107.142,418.939 107.937,418.917 108.731,418.904 109.525,418.902 110.32,418.911 111.114,418.929 111.908,418.952 112.703,418.976 113.497,418.995 114.291,419.005 115.086,419.006 115.88,418.997 116.674,418.983 117.469,418.968 118.263,418.955 119.057,418.948 119.852,418.949 120.646,418.957 121.44,418.971 122.235,418.986 123.029,418.999 123.823,419.006 124.618,419.005 125.412,418.996 126.206,418.979 127.001,418.96 127.795,418.94 128.589,418.924 129.384,418.915 130.178,418.915 130.972,418.922 131.767,418.936 132.561,418.954 133.355,418.972 134.15,418.987 134.944,418.998 135.738,419.005 136.533,419.007 137.327,419.006 138.121,419.003 138.916,419.001 139.71,419.001 140.504,419.002 141.299,419.004 142.093,419.006 142.887,419.007 143.681,419.005 144.476,419.001 145.27,418.996 146.064,418.989 146.859,418.983 147.653,418.978 148.447,418.975 149.242,418.975 150.036,418.978 150.83,418.982 151.625,418.988 152.419,418.993 153.213,418.997 154.008,419.001 154.802,419.003 155.596,419.004 156.391,419.004 157.185,419.004 157.979,419.002 158.774,419 159.568,418.996 160.362,418.992 161.157,418.988 161.951,418.984 162.745,418.983 163.54,418.985 164.334,418.991 165.128,418.999 165.923,419.005 166.717,419.006 167.511,418.996 168.306,418.969 169.1,418.924 169.894,418.86 170.689,418.781 171.483,418.695 172.277,418.616 173.072,418.554 173.866,418.523 174.66,418.528 175.455,418.571 176.249,418.644 177.043,418.737 177.838,418.831 178.632,418.913 179.426,418.971 180.221,419.001 181.015,419.006 181.809,418.995 182.604,418.981 183.398,418.975 184.192,418.982 184.987,418.997 185.781,419.007 186.575,418.993 187.37,418.94 188.164,418.849 188.958,418.744 189.753,418.68 190.547,418.719 191.341,418.877 192.136,419.006 192.93,418.603 193.724,416.555 194.519,410.883 195.313,398.613 196.107,376.035 196.902,339.651 197.696,288.092 198.49,224.844 199.285,160.692 200.079,113.59 200.873,103.42 201.668,141.696 202.462,221.528 203.256,316.247 204.051,390.626 204.845,418.96 205.639,398.315 206.434,348.41 207.228,298.7 208.022,271.898 208.817,274.746 209.611,299.956 210.405,334.546 211.2,367.372 211.994,392.358 212.788,408.12 213.583,416.109 214.377,418.832 215.171,418.71 215.966,417.555 216.76,416.458 217.554,415.897 218.349,415.921 219.143,416.354 219.937,416.954 220.731,417.523 221.526,417.95 222.32,418.202 223.114,418.289 223.909,418.22 224.703,417.986 225.497,417.57 226.292,416.983 227.086,416.296 227.88,415.656 228.675,415.258 229.469,415.28 230.263,415.805 231.058,416.752 231.852,417.853 232.646,418.719 233.441,419.003 234.235,418.627 235.029,417.936 235.824,417.595 236.618,418.066 237.412,418.902 238.207,418.486 239.001,414.863 239.795,407.39 240.59,397.847 241.384,389.788 242.178,386.49 242.973,389.111 243.767,396.326 244.561,405.322 245.356,413.196 246.15,417.96 246.944,418.88 247.739,416.314 248.533,411.308 249.327,405.172 250.122,399.138 250.916,394.146 251.71,390.754 252.505,389.149 253.299,389.216 254.093,390.647 254.888,393.042 255.682,395.993 256.476,399.146 257.271,402.225 258.065,405.046 258.859,407.506 259.654,409.565 260.448,411.23 261.242,412.537 262.037,413.535 262.831,414.277 263.625,414.815 264.42,415.194 265.214,415.453 266.008,415.629 266.803,415.75 267.597,415.845 268.391,415.935 269.186,416.039 269.98,416.171 270.774,416.338 271.569,416.542 272.363,416.778 273.157,417.037 273.952,417.307 274.746,417.575 275.54,417.829 276.335,418.059 277.129,418.259 277.923,418.426 278.718,418.56 279.512,418.665 280.306,418.742 281.101,418.799 281.895,418.838 282.689,418.865 283.484,418.882 284.278,418.892 285.072,418.897 285.867,418.9 286.661,418.901 287.455,418.901 288.25,418.903 289.044,418.906 289.838,418.911 290.633,418.918 291.427,418.927 292.221,418.937 293.016,418.948 293.81,418.958 294.604,418.967 295.399,418.974 296.193,418.98 296.987,418.984 297.781,418.987 298.576,418.989 299.37,418.99 300.164,418.989 300.959,418.988 301.753,418.986 302.547,418.984 303.342,418.982 304.136,418.98 304.93,418.979 305.725,418.98 306.519,418.981 307.313,418.984 308.108,418.989 308.902,418.993 309.696,418.998 310.491,419.002 311.285,419.004 312.079,419.006 312.874,419.007 313.668,419.006 314.462,419.006 315.257,419.005 316.051,419.005 316.845,419.005 317.64,419.006 318.434,419.007 319.228,419.006 320.023,419.005 320.817,419.001 321.611,418.996 322.406,418.99 323.2,418.984 323.994,418.978 324.789,418.974 325.583,418.972 326.377,418.973 327.172,418.976 327.966,418.982 328.76,418.988 329.555,418.995 330.349,419.001 331.143,419.005 331.938,419.006 332.732,419.006 333.526,419.005 334.321,419.003 335.115,419.001 335.909,419 336.704,419 337.498,419.002 338.292,419.004 339.087,419.006 339.881,419.007 340.675,419.006 341.47,419.003 342.264,418.998 343.058,418.991 343.853,418.985 344.647,418.979 345.441,418.975 346.236,418.974 347.03,418.976 347.824,418.981 348.619,418.987 349.413,418.994 350.207,419 351.002,419.004 351.796,419.006 352.59,419.006 353.385,419.004 354.179,419.001 354.973,418.998 355.768,418.996 356.562,418.995 357.356,418.996 358.151,418.999 358.945,419.002 359.739,419.005 360.534,419.006 361.328,419.006 362.122,419.004 362.917,419 363.711,418.995 364.505,418.989 365.3,418.984 366.094,418.981 366.888,418.981 367.683,418.983 368.477,418.987 369.271,418.992 370.066,418.998 370.86,419.003 371.654,419.006 372.449,419.007 373.243,419.005 374.037,419.003 374.832,419 375.626,418.997 376.42,418.995 377.215,418.995 378.009,418.996 378.803,418.999 379.597,419.002 380.392,419.004 381.186,419.006 381.98,419.006 382.775,419.005 383.569,419.002 384.363,418.998 385.158,418.994 385.952,418.99 386.746,418.988 387.541,418.988 388.335,418.99 389.129,418.993 389.924,418.997 390.718,419.001 391.512,419.005 392.307,419.006 393.101,419.006 393.895,419.005 394.69,419.003 395.484,419 396.278,418.998 397.073,418.997 397.867,418.997 398.661,418.998 399.456,419 400.25,419.003 401.044,419.005 401.839,419.006 402.633,419.006 403.427,419.005 404.222,419.003 405.016,419.001 405.81,418.998 406.605,418.996 407.399,418.995 408.193,418.995 408.988,418.997 409.782,418.999 410.576,419.001 411.371,419.004 412.165,419.006 412.959,419.007 413.754,419.006 414.548,419.005 415.342,419.004 416.137,419.002 416.931,419.001 417.725,419 418.52,419 419.314,419.001 420.108,419.003 420.903,419.004 421.697,419.006 422.491,419.006 423.286,419.007 424.08,419.006 424.874,419.005 425.669,419.003 426.463,419.002 427.257,419.001 428.052,419.001 428.846,419.001 429.64,419.002 430.435,419.003 431.229,419.004 432.023,419.006 432.818,419.006 433.612,419.007 434.406,419.006 435.201,419.006 435.995,419.005 436.789,419.004 437.584,419.004 438.378,419.003 439.172,419.004 439.967,419.004 440.761,419.005 441.555,419.006 442.35,419.006 443.144,419.007 443.938,419.007 444.733,419.006 445.527,419.006 446.321,419.005 447.116,419.005 447.91,419.005 448.704,419.005 449.499,419.005 450.293,419.006 451.087,419.006 451.882,419.006 452.676,419.007 453.47,419.007 454.264,419.006 455.059,419.006 455.853,419.006 456.647,419.006 457.442,419.006 458.236,419.006 459.03,419.006 459.825,419.007 460.619,419.006 461.413,419.005 462.208,419.003 463.002,419 463.796,418.996 464.591,418.991 465.385,418.984 466.179,418.977 466.974,418.968 467.768,418.959 468.562,418.95 469.357,418.942 470.151,418.934 470.945,418.927 471.74,418.921 472.534,418.916 473.328,418.912 474.123,418.91" stroke="#0071bc" stroke-linecap="butt" stroke-linejoin="round" stroke-width="0.5"/>
   <polyline fill="none" points="108.89,419.006 111.073,419.006 113.257,419.007 115.441,419.006 117.624,419.006 119.808,419.006 121.991,419.006 124.175,419.006 126.359,419.006 128.542,419.005 130.726,419.005 132.91,419.004 135.093,419.002 137.277,419 139.46,418.998 141.644,418.997 143.828,418.996 146.011,418.996 148.195,418.994 150.378,418.99 152.562,418.984 154.746,418.976 156.929,418.968 159.113,418.962 161.296,418.955 163.48,418.941 165.664,418.903 167.847,418.814 170.031,418.646 172.214,418.4 174.398,418.161 176.582,418.059 178.765,418.163 180.949,418.351 183.133,418.397 185.316,418.082 187.5,417.238 189.683,416.395 191.867,417.716 194.051,417.728 196.234,383.192 198.418,258.978 200.601,150.144 202.785,296.621 204.969,415.897 207.152,279.653 209.336,266.04 211.519,362.552 213.703,411.925 215.887,419.007 218.07,418.562 220.254,418.933 222.437,418.965 224.621,418.993 226.805,418.817 228.988,418.34 231.172,418.856 233.355,418.266 235.539,415.791 237.723,418.149 239.906,416.955 242.09,411.938 244.274,415.999 246.457,418.998 248.641,416.64 250.824,414.162 253.008,414.033 255.192,415.388 257.375,416.841 259.559,417.806 261.742,418.32 263.926,418.565 266.11,418.682 268.293,418.749 270.477,418.803 272.66,418.855 274.844,418.902 277.028,418.939 279.211,418.964 281.395,418.978 283.578,418.985 285.762,418.989 287.946,418.992 290.129,418.994 292.313,418.996 294.496,418.999 296.68,419 298.864,419.001 301.047,419.002 303.231,419.003 305.415,419.003 307.598,419.004 309.782,419.005 311.965,419.005 314.149,419.005 316.333,419.006 318.516,419.006 320.7,419.006 322.883,419.006 325.067,419.006 327.251,419.006 329.434,419.007 331.618,419.007 333.801,419.006 335.985,419.006 338.169,419.006 340.352,419.006 342.536,419.006 344.719,419.006 346.903,419.006 349.087,419.006 351.27,419.006 353.454,419.006 355.638,419.006 357.821,419.006 360.005,419.006 362.188,419.006 364.372,419.006 366.556,419.006 368.739,419.006 370.923,419.006 373.106,419.006 375.29,419.006 377.474,419.006 379.657,419.006 381.841,419.006 384.024,419.006 386.208,419.006 388.392,419.006 390.575,419.006 392.759,419.006 394.942,419.006 397.126,419.006 399.31,419.006 401.493,419.006 403.677,419.006 405.86,419.006 408.044,419.006 410.228,419.006 412.411,419.007 414.595,419.007 416.779,419.007 418.962,419.007 421.146,419.007 423.329,419.007 425.513,419.007 427.697,419.006 429.88,419.006 432.064,419.006 434.247,419.006" stroke="#d85218" stroke-linecap="butt" stroke-linejoin="round" stroke-width="0.5"/>
   <polyline fill="none" points="108.89,419.005 111.073,419.006 113.257,419.006 115.441,419.006 117.624,419.005 119.808,419.003 121.991,419.002 124.175,418.999 126.359,418.997 128.542,418.993 130.726,418.989 132.91,418.984 135.093,418.978 137.277,418.97 139.46,418.96 141.644,418.949 143.828,418.934 146.011,418.916 148.195,418.894 150.378,418.867 152.562,418.833 154.746,418.789 156.929,418.732 159.113,418.661 161.296,418.572 163.48,418.457 165.664,418.298 167.847,418.089 170.031,417.815 172.214,417.456 174.398,416.98 176.582,416.313 178.765,415.477 180.949,414.517 183.133,413.516 185.316,412.636 187.5,412.098 189.683,411.79 191.867,411.641 194.051,411.582 196.234,411.557 198.418,411.535 200.601,411.508 202.785,411.477 204.969,411.441 207.152,411.403 209.336,411.362 211.519,411.323 213.703,411.285 215.887,411.251 218.07,411.222 220.254,411.207 222.437,411.218 224.621,411.278 226.805,411.42 228.988,411.717 231.172,412.27 233.355,413.021 235.539,413.898 237.723,414.812 239.906,415.644 242.09,416.32 244.274,416.871 246.457,417.31 248.641,417.656 250.824,417.919 253.008,418.12 255.192,418.281 257.375,418.412 259.559,418.517 261.742,418.599 263.926,418.665 266.11,418.72 268.293,418.766 270.477,418.804 272.66,418.835 274.844,418.86 277.028,418.882 279.211,418.9 281.395,418.916 283.578,418.929 285.762,418.94 287.946,418.95 290.129,418.958 292.313,418.965 294.496,418.971 296.68,418.976 298.864,418.981 301.047,418.985 303.231,418.988 305.415,418.991 307.598,418.994 309.782,418.996 311.965,418.998 314.149,419 316.333,419.001 318.516,419.002 320.7,419.003 322.883,419.004 325.067,419.005 327.251,419.006 329.434,419.006 331.618,419.006 333.801,419.006 335.985,419.005 338.169,419.005 340.352,419.005 342.536,419.005 344.719,419.005 346.903,419.004 349.087,419.004 351.27,419.004 353.454,419.004 355.638,419.004 357.821,419.004 360.005,419.004 362.188,419.004 364.372,419.004 366.556,419.004 368.739,419.004 370.923,419.004 373.106,419.004 375.29,419.005 377.474,419.005 379.657,419.005 381.841,419.005 384.024,419.005 386.208,419.005 388.392,419.005 390.575,419.005 392.759,419.005 394.942,419.005 397.126,419.006 399.31,419.006 401.493,419.006 403.677,419.006 405.86,419.006 408.044,419.006 410.228,419.006 412.411,419.006 414.595,419.006 416.779,419.006 418.962,419.007 421.146,419.006 423.329,419.006 425.513,419.006 427.697,419.006 429.88,419.006 432.064,419.006 434.247,419.006" stroke="#ecb01f" stroke-linecap="butt" stroke-linejoin="round" stroke-width="0.5"/>
  </g>
  <clipPath id="cp00524470">
   <polygon points="0,470 524,470 524,0 0,0"/>
  </clipPath>
  <g clip-path="url(#cp00524470)">
   <polygon fill="#ffffff" points="384.9,87.7237 466.914,87.7237 466.914,43.313 384.9,43.313" shape-rendering="crispEdges"/>
   <polyline fill="none" points="384.9,87.7237 466.914,87.7237" stroke="#262626" stroke-dasharray="16,0" stroke-linecap="square" stroke-linejoin="miter" stroke-width="0.5"/>
   <polyline fill="none" points="384.9,43.313 466.914,43.313" stroke="#262626" stroke-dasharray="16,0" stroke-linecap="square" stroke-linejoin="miter" stroke-width="0.5"/>
   <polyline fill="none" points="384.9,87.7237 384.9,43.313" stroke="#262626" stroke-dasharray="16,0" stroke-linecap="square" stroke-linejoin="miter" stroke-width="0.5"/>
   <polyline fill="none" points="466.914,87.7237 466.914,43.313" stroke="#262626" stroke-dasharray="16,0" stroke-linecap="square" stroke-linejoin="miter" stroke-width="0.5"/>
   <polyline fill="none" points="388.901,51.5166 408.91,51.5166" stroke="#0071bc" stroke-linecap="butt" stroke-linejoin="round" stroke-width="0.5"/>
   <g font-family="FreeSans" font-size="9" font-style="normal" font-weight="normal" transform="translate(412.912,55.5166) rotate(-0,-0,-4)" xml:space="preserve">
    <text fill="rgb(0,0,0)" x="0 5 8 11 13 16 18 23 " y="-0">err flat</text>
   </g>
   <polyline fill="none" points="388.901,64.7202 408.91,64.7202" stroke="#d85218" stroke-linecap="butt" stroke-linejoin="round" stroke-width="0.5"/>
   <g font-family="FreeSans" font-size="9" font-style="normal" font-weight="normal" transform="translate(412.912,69.7202) rotate(-0,-0,-5)" xml:space="preserve">
    <text fill="rgb(0,0,0)" x="0 5 8 11 13 20 25 27 32 37 40 45 " y="-2">err weighted</text>
   </g>
   <polyline fill="none" points="388.901,78.722 408.91,78.722" stroke="#ecb01f" stroke-linecap="butt" stroke-linejoin="round" stroke-width="0.5"/>
   <g font-family="FreeSans" font-size="9" font-style="normal" font-weight="normal" transform="translate(412.912,83.722) rotate(-0,-0,-5)" xml:space="preserve">
    <text fill="rgb(0,0,0)" x="0 5 8 11 13 20 25 27 32 37 40 " y="-2">err weights</text>
   </g>
  </g>
 </g>
</svg>
