<?xml version='1.0' encoding='UTF-8' standalone='no'?>
<svg height="320pt" viewBox="0 0 374 320" width="374pt" xmlns="http://www.w3.org/2000/svg" xmlns:xlink="http://www.w3.org/1999/xlink">
 <title>Figure 5</title>
 <desc>
Creator: GL2PS 1.4.2, (C) 1999-2020 C. Geuzaine
For: Octave
CreationDate: Thu Feb 19 11:57:57 2026
</desc>
 <defs/>
 <polygon fill="#ffffff" points="0,0 374,0 374,320 0,320"/>
 <g>
  <polygon fill="#ffffff" points="0,320 374,320 374,0 0,0" shape-rendering="crispEdges"/>
  <clipPath id="cp00374320">
   <polygon points="0,320 374,320 374,0 0,0"/>
  </clipPath>
  <g clip-path="url(#cp00374320)">
   <polygon fill="#ffffff" points="55.0086,132.657 339.226,132.657 339.226,27.9502 55.0086,27.9502" shape-rendering="crispEdges"/>
   <polyline fill="none" points="55.0086,132.657 55.0086,129.823" stroke="#262626" stroke-linecap="butt" stroke-linejoin="miter" stroke-width="0.5"/>
   <polyline fill="none" points="55.0086,27.9502 55.0086,30.7844" stroke="#262626" stroke-linecap="butt" stroke-linejoin="miter" stroke-width="0.5"/>
   <polyline fill="none" points="111.852,132.657 111.852,129.823" stroke="#262626" stroke-linecap="butt" stroke-linejoin="miter" stroke-width="0.5"/>
   <polyline fill="none" points="111.852,27.9502 111.852,30.7844" stroke="#262626" stroke-linecap="butt" stroke-linejoin="miter" stroke-width="0.5"/>
   <polyline fill="none" points="168.696,132.657 168.696,129.823" stroke="#262626" stroke-linecap="butt" stroke-linejoin="miter" stroke-width="0.5"/>
   <polyline fill="none" points="168.696,27.9502 168.696,30.7844" stroke="#262626" stroke-linecap="butt" stroke-linejoin="miter" stroke-width="0.5"/>
   <polyline fill="none" points="225.539,132.657 225.539,129.823" stroke="#262626" stroke-linecap="butt" stroke-linejoin="miter" stroke-width="0.5"/>
   <polyline fill="none" points="225.539,27.9502 225.539,30.7844" stroke="#262626" stroke-linecap="butt" stroke-linejoin="miter" stroke-width="0.5"/>
   <polyline fill="none" points="282.383,132.657 282.383,129.823" stroke="#262626" stroke-linecap="butt" stroke-linejoin="miter" stroke-width="0.5"/>
   <polyline fill="none" points="282.383,27.9502 282.383,30.7844" stroke="#262626" stroke-linecap="butt" stroke-linejoin="miter" stroke-width="0.5"/>
   <polyline fill="none" points="339.226,132.657 339.226,129.823" stroke="#262626" stroke-linecap="butt" stroke-linejoin="miter" stroke-width="0.5"/>
   <polyline fill="none" points="339.226,27.9502 339.226,30.7844" stroke="#262626" stroke-linecap="butt" stroke-linejoin="miter" stroke-width="0.5"/>
   <g font-family="FreeSans" font-size="10" font-style="normal" font-weight="normal" transform="translate(52.0086,148.137) rotate(-0,3,-8)" xml:space="preserve">
    <text fill="rgb(38,38,38)" x="0 " y="-0">0</text>
   </g>
   <g font-family="FreeSans" font-size="10" font-style="normal" font-weight="normal" transform="translate(104.352,148.137) rotate(-0,7.5,-8)" xml:space="preserve">
    <text fill="rgb(38,38,38)" x="0 6 9 " y="-0">0.2</text>
   </g>
   <g font-family="FreeSans" font-size="10" font-style="normal" font-weight="normal" transform="translate(161.196,148.137) rotate(-0,7.5,-8)" xml:space="preserve">
    <text fill="rgb(38,38,38)" x="0 6 9 " y="-0">0.4</text>
   </g>
   <g font-family="FreeSans" font-size="10" font-style="normal" font-weight="normal" transform="translate(218.039,148.137) rotate(-0,7.5,-8)" xml:space="preserve">
    <text fill="rgb(38,38,38)" x="0 6 9 " y="-0">0.6</text>
   </g>
   <g font-family="FreeSans" font-size="10" font-style="normal" font-weight="normal" transform="translate(274.883,148.137) rotate(-0,7.5,-8)" xml:space="preserve">
    <text fill="rgb(38,38,38)" x="0 6 9 " y="-0">0.8</text>
   </g>
   <g font-family="FreeSans" font-size="10" font-style="normal" font-weight="normal" transform="translate(336.226,148.137) rotate(-0,3,-8)" xml:space="preserve">
    <text fill="rgb(38,38,38)" x="0 " y="-0">1</text>
   </g>
   <polyline fill="none" points="55.0086,132.657 57.8529,132.657" stroke="#262626" stroke-linecap="butt" stroke-linejoin="miter" stroke-width="0.5"/>
   <polyline fill="none" points="339.226,132.657 336.382,132.657" stroke="#262626" stroke-linecap="butt" stroke-linejoin="miter" stroke-width="0.5"/>
   <polyline fill="none" points="55.0086,111.716 57.8529,111.716" stroke="#262626" stroke-linecap="butt" stroke-linejoin="miter" stroke-width="0.5"/>
   <polyline fill="none" points="339.226,111.716 336.382,111.716" stroke="#262626" stroke-linecap="butt" stroke-linejoin="miter" stroke-width="0.5"/>
   <polyline fill="none" points="55.0086,90.7746 57.8529,90.7746" stroke="#262626" stroke-linecap="butt" stroke-linejoin="miter" stroke-width="0.5"/>
   <polyline fill="none" points="339.226,90.7746 336.382,90.7746" stroke="#262626" stroke-linecap="butt" stroke-linejoin="miter" stroke-width="0.5"/>
   <polyline fill="none" points="55.0086,69.8331 57.8529,69.8331" stroke="#262626" stroke-linecap="butt" stroke-linejoin="miter" stroke-width="0.5"/>
   <polyline fill="none" points="339.226,69.8331 336.382,69.8331" stroke="#262626" stroke-linecap="butt" stroke-linejoin="miter" stroke-width="0.5"/>
   <polyline fill="none" points="55.0086,48.8916 57.8529,48.8916" stroke="#262626" stroke-linecap="butt" stroke-linejoin="miter" stroke-width="0.5"/>
   <polyline fill="none" points="339.226,48.8916 336.382,48.8916" stroke="#262626" stroke-linecap="butt" stroke-linejoin="miter" stroke-width="0.5"/>
   <polyline fill="none" points="55.0086,27.9502 57.8529,27.9502" stroke="#262626" stroke-linecap="butt" stroke-linejoin="miter" stroke-width="0.5"/>
   <polyline fill="none" points="339.226,27.9502 336.382,27.9502" stroke="#262626" stroke-linecap="butt" stroke-linejoin="miter" stroke-width="0.5"/>
   <g font-family="FreeSans" font-size="10" font-style="normal" font-weight="normal" transform="translate(41.0047,136.657) rotate(-0,9,-4)" xml:space="preserve">
    <text fill="rgb(38,38,38)" x="0 3 " y="-0">-1</text>
   </g>
   <g font-family="FreeSans" font-size="10" font-style="normal" font-weight="normal" transform="translate(32.0047,115.716) rotate(-0,18,-4)" xml:space="preserve">
    <text fill="rgb(38,38,38)" x="0 3 9 12 " y="-0">-0.8</text>
   </g>
   <g font-family="FreeSans" font-size="10" font-style="normal" font-weight="normal" transform="translate(32.0047,94.7745) rotate(-0,18,-4)" xml:space="preserve">
    <text fill="rgb(38,38,38)" x="0 3 9 12 " y="-0">-0.6</text>
   </g>
   <g font-family="FreeSans" font-size="10" font-style="normal" font-weight="normal" transform="translate(32.0047,73.8331) rotate(-0,18,-4)" xml:space="preserve">
    <text fill="rgb(38,38,38)" x="0 3 9 12 " y="-0">-0.4</text>
   </g>
   <g font-family="FreeSans" font-size="10" font-style="normal" font-weight="normal" transform="translate(32.0047,52.8916) rotate(-0,18,-4)" xml:space="preserve">
    <text fill="rgb(38,38,38)" x="0 3 9 12 " y="-0">-0.2</text>
   </g>
   <g font-family="FreeSans" font-size="10" font-style="normal" font-weight="normal" transform="translate(44.0047,31.9502) rotate(-0,6,-4)" xml:space="preserve">
    <text fill="rgb(38,38,38)" x="0 " y="-0">0</text>
   </g>
   <polyline fill="none" points="55.0086,132.657 339.226,132.657" stroke="#262626" stroke-dasharray="16,0" stroke-linecap="square" stroke-linejoin="miter" stroke-width="0.5"/>
   <polyline fill="none" points="55.0086,27.9502 339.226,27.9502" stroke="#262626" stroke-dasharray="16,0" stroke-linecap="square" stroke-linejoin="miter" stroke-width="0.5"/>
   <polyline fill="none" points="55.0086,132.657 55.0086,27.9502" stroke="#262626" stroke-dasharray="16,0" stroke-linecap="square" stroke-linejoin="miter" stroke-width="0.5"/>
   <polyline fill="none" points="339.226,132.657 339.226,27.9502" stroke="#262626" stroke-dasharray="16,0" stroke-linecap="square" stroke-linejoin="miter" stroke-width="0.5"/>
   <g font-family="FreeSans" font-size="11" font-style="normal" font-weight="bold" transform="translate(45.6175,17.9502) rotate(-0,151.5,0)" xml:space="preserve">
    <text fill="rgb(0,0,0)" x="0 8 15 22 28 31 39 42 48 55 59 65 75 78 85 89 92 99 102 110 113 120 123 126 130 136 140 143 146 153 157 164 170 174 180 186 192 198 201 204 213 216 223 230 237 246 252 260 266 276 286 289 296 " y="-3">Bode Diagram of FIR Filter, order=241, window=Hamming</text>
   </g>
   <g font-family="FreeSans" font-size="11" font-style="normal" font-weight="normal" transform="translate(-8.99525,80.3038) rotate(-90,36,0)" xml:space="preserve">
    <text fill="rgb(38,38,38)" x="0 9 15 21 27 29 32 38 44 50 53 56 62 69 " y="-2">Magnitude [dB]</text>
   </g>
   <polyline fill="none" points="55.0086,28.3573 55.5637,28.3573 56.1188,28.3575 56.6739,28.3576 57.229,28.3577 57.7841,28.3578 58.3393,28.3579 58.8944,28.3582 59.4495,28.3587 60.0046,28.3594 60.5597,28.3601 61.1148,28.3607 61.6699,28.3611 62.225,28.3614 62.7802,28.3617 63.3353,28.3622 63.8904,28.3632 64.4455,28.3644 65.0006,28.3658 65.5557,28.367 66.1108,28.3679 66.666,28.3685 67.2211,28.369 67.7762,28.3697 68.3313,28.3709 68.8864,28.3727 69.4415,28.3748 69.9966,28.3768 70.5518,28.3784 71.1069,28.3795 71.662,28.3802 72.2171,28.3811 72.7722,28.3826 73.3273,28.3847 73.8824,28.3875 74.4375,28.3903 74.9927,28.3928 75.5478,28.3947 76.1029,28.396 76.658,28.3972 77.2131,28.3988 77.7682,28.4013 78.3233,28.4046 78.8784,28.4084 79.4335,28.4119 79.9887,28.4149 80.5438,28.417 81.0989,28.4188 81.654,28.4207 82.2091,28.4236 82.7642,28.4274 83.3194,28.432 83.8745,28.4367 84.4296,28.4409 84.9847,28.4443 85.5398,28.4471 86.0949,28.4497 86.65,28.453 87.2051,28.4573 87.7603,28.4628 88.3154,28.4688 88.8705,28.4746 89.4256,28.4796 89.9807,28.4837 90.5358,28.4875 91.0909,28.4916 91.646,28.4968 92.2012,28.5032 92.7563,28.5105 93.3114,28.518 93.8665,28.525 94.4216,28.5312 94.9767,28.5367 95.5318,28.5423 96.0869,28.5487 96.6421,28.5564 97.1972,28.5652 97.7523,28.5747 98.3074,28.5841 98.8625,28.5928 99.4176,28.6009 99.9727,28.6087 100.528,28.6171 101.083,28.6266 101.638,28.6375 102.193,28.6493 102.748,28.6615 103.303,28.6735 103.859,28.6851 104.414,28.6967 104.969,28.7088 105.524,28.7222 106.079,28.7371 106.634,28.7535 107.189,28.7708 107.744,28.7886 108.299,28.8067 108.855,28.825 109.41,28.8441 109.965,28.8643 110.52,28.886 111.075,28.9089 111.63,28.933 112.185,28.958 112.74,28.9839 113.295,29.011 113.851,29.0395 114.406,29.0697 114.961,29.1017 115.516,29.1352 116.071,29.1703 116.626,29.2068 117.181,29.2454 117.736,29.2865 118.291,29.3309 118.847,29.3787 119.402,29.4296 119.957,29.4828 120.512,29.5382 121.067,29.5959 121.622,29.657 122.177,29.7232 122.732,29.7959 123.287,29.8756 123.843,29.962 124.398,30.0536 124.953,30.1495 125.508,30.2497 126.063,30.356 126.618,30.4719 127.173,30.6006 127.728,30.7446 128.284,30.9041 128.839,31.0773 129.394,31.2624 129.949,31.459 130.504,31.6702 131.059,31.9022 131.614,32.1629 132.169,32.4596 132.724,32.7966 133.28,33.1747 133.835,33.5931 134.39,34.0529 134.945,34.5609 135.5,35.1309 136.055,35.7835 136.61,36.542 137.165,37.4286 137.72,38.4622 138.276,39.6602 138.831,41.0444 139.386,42.6489 139.941,44.5269 140.496,46.754 141.051,49.425 141.606,52.6464 142.161,56.5262 142.716,61.1632 143.272,66.6348 143.827,72.9826 144.382,80.1902 144.937,88.1521 145.492,96.6389 146.047,105.272 146.602,113.524 147.157,120.774 147.712,126.399 148.268,129.908 148.823,131.053 149.378,129.884 149.933,126.718 150.488,122.047 151.043,116.426 151.598,110.376 152.153,104.325 152.708,98.5934 153.264,93.3912 153.819,88.8336 154.374,84.9533 154.929,81.7184 155.484,79.0537 156.039,76.8653 156.594,75.0629 157.149,73.5754 157.704,72.3546 158.26,71.3685 158.815,70.591 159.37,69.9939 159.925,69.5469 160.48,69.2231 161.035,69.0073 161.59,68.8988 162.145,68.9081 162.701,69.0469 163.256,69.3197 163.811,69.72 164.366,70.2369 164.921,70.8651 165.476,71.6158 166.031,72.5198 166.586,73.6215 167.141,74.9674 167.697,76.5958 168.252,78.5322 168.807,80.7932 169.362,83.3922 169.917,86.341 170.472,89.6395 171.027,93.2546 171.582,97.0944 172.137,100.99 172.693,104.696 173.248,107.908 173.803,110.307 174.358,111.606 174.913,111.593 175.468,110.163 176.023,107.333 176.578,103.244 177.133,98.1379 177.689,92.3323 178.244,86.1712 178.799,79.981 179.354,74.0303 179.909,68.5069 180.464,63.5147 181.019,59.0876 181.574,55.2122 182.129,51.8501 182.685,48.9537 183.24,46.4738 183.795,44.3604 184.35,42.5617 184.905,41.025 185.46,39.7003 186.015,38.5457 186.57,37.5304 187.125,36.636 187.681,35.8521 188.236,35.171 188.791,34.5825 189.346,34.0717 189.901,33.6208 190.456,33.2133 191.011,32.8381 191.566,32.4911 192.122,32.1747 192.677,31.8927 193.232,31.6468 193.787,31.4335 194.342,31.2447 194.897,31.0705 195.452,30.9033 196.007,30.7405 196.562,30.5847 197.118,30.4411 197.673,30.3145 198.228,30.2058 198.783,30.1116 199.338,30.0254 199.893,29.941 200.448,29.855 201.003,29.7682 201.558,29.6847 202.114,29.6094 202.669,29.5451 203.224,29.4912 203.779,29.4438 204.334,29.3978 204.889,29.3494 205.444,29.2979 205.999,29.2456 206.554,29.1965 207.11,29.1541 207.665,29.1192 208.22,29.0901 208.775,29.0631 209.33,29.0347 209.885,29.0031 210.44,28.9691 210.995,28.9355 211.55,28.9052 212.106,28.8802 212.661,28.8602 213.216,28.8429 213.771,28.8253 214.326,28.8054 214.881,28.7828 215.436,28.7592 215.991,28.737 216.546,28.7181 217.102,28.7032 217.657,28.6912 218.212,28.6799 218.767,28.6676 219.322,28.6532 219.877,28.6374 220.432,28.6216 220.987,28.6076 221.542,28.5962 222.098,28.5872 222.653,28.5794 223.208,28.5713 223.763,28.5618 224.318,28.5508 224.873,28.5393 225.428,28.5285 225.983,28.5191 226.539,28.5115 227.094,28.5051 227.649,28.4989 228.204,28.492 228.759,28.4843 229.314,28.476 229.869,28.4678 230.424,28.4603 230.979,28.4539 231.535,28.4483 232.09,28.4431 232.645,28.4377 233.2,28.4319 233.755,28.4259 234.31,28.42 234.865,28.4144 235.42,28.4092 235.975,28.4044 236.531,28.3997 237.086,28.395 237.641,28.3903 238.196,28.3858 238.751,28.3815 239.306,28.3776 239.861,28.3738 240.416,28.3699 240.971,28.3657 241.527,28.3614 242.082,28.3571 242.637,28.3532 243.192,28.35 243.747,28.3474 244.302,28.345 244.857,28.3422 245.412,28.3387 245.967,28.3346 246.523,28.3304 247.078,28.3267 247.633,28.3239 248.188,28.3221 248.743,28.3209 249.298,28.3194 249.853,28.3169 250.408,28.3133 250.964,28.3091 251.519,28.3051 252.074,28.3022 252.629,28.3008 253.184,28.3004 253.739,28.3 254.294,28.2987 254.849,28.2959 255.404,28.2919 255.96,28.2877 256.515,28.2844 257.07,28.2827 257.625,28.2827 258.18,28.2832 258.735,28.2832 259.29,28.2815 259.845,28.2781 260.4,28.2738 260.956,28.2698 261.511,28.2675 262.066,28.2673 262.621,28.2684 263.176,28.2695 263.731,28.2692 264.286,28.2667 264.841,28.2626 265.396,28.2582 265.952,28.2551 266.507,28.2541 267.062,28.2552 267.617,28.2572 268.172,28.2582 268.727,28.257 269.282,28.2536 269.837,28.249 270.392,28.245 270.948,28.2431 271.503,28.2437 272.058,28.2459 272.613,28.248 273.168,28.2484 273.723,28.2461 274.278,28.2418 274.833,28.2372 275.388,28.2341 275.944,28.2336 276.499,28.2357 277.054,28.2386 277.609,28.2404 278.164,28.2395 278.719,28.2361 279.274,28.2312 279.829,28.2271 280.384,28.2253 280.94,28.2266 281.495,28.2297 282.05,28.2326 282.605,28.2334 283.16,28.2313 283.715,28.2267 284.27,28.2219 284.825,28.2188 285.381,28.2187 285.936,28.2214 286.491,28.2251 287.046,28.2274 287.601,28.2269 288.156,28.2233 288.711,28.2182 289.266,28.2139 289.821,28.2123 290.377,28.2141 290.932,28.2178 291.487,28.2214 292.042,28.2226 292.597,28.2204 293.152,28.2157 293.707,28.2106 294.262,28.2076 294.817,28.2078 295.373,28.211 295.928,28.2153 296.483,28.2181 297.038,28.2177 297.593,28.214 298.148,28.2087 298.703,28.2043 299.258,28.2029 299.813,28.2049 300.369,28.2092 300.924,28.2133 301.479,28.2147 302.034,28.2126 302.589,28.2077 303.144,28.2025 303.699,28.1994 304.254,28.1998 304.809,28.2035 305.365,28.2082 305.92,28.2113 306.475,28.2111 307.03,28.2073 307.585,28.2018 308.14,28.1974 308.695,28.196 309.25,28.1984 309.806,28.2031 310.361,28.2075 310.916,28.2092 311.471,28.207 312.026,28.2021 312.581,28.1967 313.136,28.1936 313.691,28.1943 314.246,28.1982 314.802,28.2033 315.357,28.2067 315.912,28.2065 316.467,28.2027 317.022,28.1971 317.577,28.1926 318.132,28.1913 318.687,28.194 319.242,28.1989 319.798,28.2036 320.353,28.2054 320.908,28.2033 321.463,28.1983 322.018,28.1929 322.573,28.1898 323.128,28.1906 323.683,28.1948 324.238,28.2001 324.794,28.2037 325.349,28.2036 325.904,28.1998 326.459,28.1942 327.014,28.1897 327.569,28.1885 328.124,28.1913 328.679,28.1965 329.234,28.2014 329.79,28.2033 330.345,28.2013 330.9,28.1962 331.455,28.1908 332.01,28.1878 332.565,28.1888 333.12,28.1931 333.675,28.1986 334.23,28.2023 334.786,28.2023 335.341,28.1985 335.896,28.1929 336.451,28.1884 337.006,28.1874 337.561,28.1903 338.116,28.1956 338.671,28.2006" stroke="#0071bc" stroke-linecap="butt" stroke-linejoin="round" stroke-width="0.5"/>
  </g>
  <clipPath id="cp00374320">
   <polygon points="0,320 374,320 374,0 0,0"/>
  </clipPath>
  <g clip-path="url(#cp00374320)">
   <polygon fill="#ffffff" points="55.0086,285.565 339.226,285.565 339.226,180.858 55.0086,180.858" shape-rendering="crispEdges"/>
   <polyline fill="none" points="55.0086,285.565 55.0086,282.731" stroke="#262626" stroke-linecap="butt" stroke-linejoin="miter" stroke-width="0.5"/>
   <polyline fill="none" points="55.0086,180.858 55.0086,183.692" stroke="#262626" stroke-linecap="butt" stroke-linejoin="miter" stroke-width="0.5"/>
   <polyline fill="none" points="111.852,285.565 111.852,282.731" stroke="#262626" stroke-linecap="butt" stroke-linejoin="miter" stroke-width="0.5"/>
   <polyline fill="none" points="111.852,180.858 111.852,183.692" stroke="#262626" stroke-linecap="butt" stroke-linejoin="miter" stroke-width="0.5"/>
   <polyline fill="none" points="168.696,285.565 168.696,282.731" stroke="#262626" stroke-linecap="butt" stroke-linejoin="miter" stroke-width="0.5"/>
   <polyline fill="none" points="168.696,180.858 168.696,183.692" stroke="#262626" stroke-linecap="butt" stroke-linejoin="miter" stroke-width="0.5"/>
   <polyline fill="none" points="225.539,285.565 225.539,282.731" stroke="#262626" stroke-linecap="butt" stroke-linejoin="miter" stroke-width="0.5"/>
   <polyline fill="none" points="225.539,180.858 225.539,183.692" stroke="#262626" stroke-linecap="butt" stroke-linejoin="miter" stroke-width="0.5"/>
   <polyline fill="none" points="282.383,285.565 282.383,282.731" stroke="#262626" stroke-linecap="butt" stroke-linejoin="miter" stroke-width="0.5"/>
   <polyline fill="none" points="282.383,180.858 282.383,183.692" stroke="#262626" stroke-linecap="butt" stroke-linejoin="miter" stroke-width="0.5"/>
   <polyline fill="none" points="339.226,285.565 339.226,282.731" stroke="#262626" stroke-linecap="butt" stroke-linejoin="miter" stroke-width="0.5"/>
   <polyline fill="none" points="339.226,180.858 339.226,183.692" stroke="#262626" stroke-linecap="butt" stroke-linejoin="miter" stroke-width="0.5"/>
   <g font-family="FreeSans" font-size="10" font-style="normal" font-weight="normal" transform="translate(52.0086,301.044) rotate(-0,3,-8)" xml:space="preserve">
    <text fill="rgb(38,38,38)" x="0 " y="-0">0</text>
   </g>
   <g font-family="FreeSans" font-size="10" font-style="normal" font-weight="normal" transform="translate(104.352,301.044) rotate(-0,7.5,-8)" xml:space="preserve">
    <text fill="rgb(38,38,38)" x="0 6 9 " y="-0">0.2</text>
   </g>
   <g font-family="FreeSans" font-size="10" font-style="normal" font-weight="normal" transform="translate(161.196,301.044) rotate(-0,7.5,-8)" xml:space="preserve">
    <text fill="rgb(38,38,38)" x="0 6 9 " y="-0">0.4</text>
   </g>
   <g font-family="FreeSans" font-size="10" font-style="normal" font-weight="normal" transform="translate(218.039,301.044) rotate(-0,7.5,-8)" xml:space="preserve">
    <text fill="rgb(38,38,38)" x="0 6 9 " y="-0">0.6</text>
   </g>
   <g font-family="FreeSans" font-size="10" font-style="normal" font-weight="normal" transform="translate(274.883,301.044) rotate(-0,7.5,-8)" xml:space="preserve">
    <text fill="rgb(38,38,38)" x="0 6 9 " y="-0">0.8</text>
   </g>
   <g font-family="FreeSans" font-size="10" font-style="normal" font-weight="normal" transform="translate(336.226,301.044) rotate(-0,3,-8)" xml:space="preserve">
    <text fill="rgb(38,38,38)" x="0 " y="-0">1</text>
   </g>
   <polyline fill="none" points="55.0086,285.565 57.8529,285.565" stroke="#262626" stroke-linecap="butt" stroke-linejoin="miter" stroke-width="0.5"/>
   <polyline fill="none" points="339.226,285.565 336.382,285.565" stroke="#262626" stroke-linecap="butt" stroke-linejoin="miter" stroke-width="0.5"/>
   <polyline fill="none" points="55.0086,264.624 57.8529,264.624" stroke="#262626" stroke-linecap="butt" stroke-linejoin="miter" stroke-width="0.5"/>
   <polyline fill="none" points="339.226,264.624 336.382,264.624" stroke="#262626" stroke-linecap="butt" stroke-linejoin="miter" stroke-width="0.5"/>
   <polyline fill="none" points="55.0086,243.682 57.8529,243.682" stroke="#262626" stroke-linecap="butt" stroke-linejoin="miter" stroke-width="0.5"/>
   <polyline fill="none" points="339.226,243.682 336.382,243.682" stroke="#262626" stroke-linecap="butt" stroke-linejoin="miter" stroke-width="0.5"/>
   <polyline fill="none" points="55.0086,222.741 57.8529,222.741" stroke="#262626" stroke-linecap="butt" stroke-linejoin="miter" stroke-width="0.5"/>
   <polyline fill="none" points="339.226,222.741 336.382,222.741" stroke="#262626" stroke-linecap="butt" stroke-linejoin="miter" stroke-width="0.5"/>
   <polyline fill="none" points="55.0086,201.799 57.8529,201.799" stroke="#262626" stroke-linecap="butt" stroke-linejoin="miter" stroke-width="0.5"/>
   <polyline fill="none" points="339.226,201.799 336.382,201.799" stroke="#262626" stroke-linecap="butt" stroke-linejoin="miter" stroke-width="0.5"/>
   <polyline fill="none" points="55.0086,180.858 57.8529,180.858" stroke="#262626" stroke-linecap="butt" stroke-linejoin="miter" stroke-width="0.5"/>
   <polyline fill="none" points="339.226,180.858 336.382,180.858" stroke="#262626" stroke-linecap="butt" stroke-linejoin="miter" stroke-width="0.5"/>
   <g font-family="FreeSans" font-size="10" font-style="normal" font-weight="normal" transform="translate(17.0047,289.565) rotate(-0,33,-4)" xml:space="preserve">
    <text fill="rgb(38,38,38)" x="0 3 9 15 21 27 " y="-0">-25000</text>
   </g>
   <g font-family="FreeSans" font-size="10" font-style="normal" font-weight="normal" transform="translate(17.0047,268.624) rotate(-0,33,-4)" xml:space="preserve">
    <text fill="rgb(38,38,38)" x="0 3 9 15 21 27 " y="-0">-20000</text>
   </g>
   <g font-family="FreeSans" font-size="10" font-style="normal" font-weight="normal" transform="translate(17.0047,247.682) rotate(-0,33,-4)" xml:space="preserve">
    <text fill="rgb(38,38,38)" x="0 3 9 15 21 27 " y="-0">-15000</text>
   </g>
   <g font-family="FreeSans" font-size="10" font-style="normal" font-weight="normal" transform="translate(17.0047,226.741) rotate(-0,33,-4)" xml:space="preserve">
    <text fill="rgb(38,38,38)" x="0 3 9 15 21 27 " y="-0">-10000</text>
   </g>
   <g font-family="FreeSans" font-size="10" font-style="normal" font-weight="normal" transform="translate(23.0047,205.799) rotate(-0,27,-4)" xml:space="preserve">
    <text fill="rgb(38,38,38)" x="0 3 9 15 21 " y="-0">-5000</text>
   </g>
   <g font-family="FreeSans" font-size="10" font-style="normal" font-weight="normal" transform="translate(44.0047,184.858) rotate(-0,6,-4)" xml:space="preserve">
    <text fill="rgb(38,38,38)" x="0 " y="-0">0</text>
   </g>
   <polyline fill="none" points="55.0086,285.565 339.226,285.565" stroke="#262626" stroke-dasharray="16,0" stroke-linecap="square" stroke-linejoin="miter" stroke-width="0.5"/>
   <polyline fill="none" points="55.0086,180.858 339.226,180.858" stroke="#262626" stroke-dasharray="16,0" stroke-linecap="square" stroke-linejoin="miter" stroke-width="0.5"/>
   <polyline fill="none" points="55.0086,285.565 55.0086,180.858" stroke="#262626" stroke-dasharray="16,0" stroke-linecap="square" stroke-linejoin="miter" stroke-width="0.5"/>
   <polyline fill="none" points="339.226,285.565 339.226,180.858" stroke="#262626" stroke-dasharray="16,0" stroke-linecap="square" stroke-linejoin="miter" stroke-width="0.5"/>
   <g font-family="FreeSans" font-size="11" font-style="normal" font-weight="normal" transform="translate(-17.4953,233.211) rotate(-90,29.5,0)" xml:space="preserve">
    <text fill="rgb(38,38,38)" x="0 7 13 19 24 30 33 37 43 49 55 " y="-3">Phase (deg)</text>
   </g>
   <g font-family="FreeSans" font-size="11" font-style="normal" font-weight="normal" transform="translate(105.118,318.044) rotate(-0,92,-12)" xml:space="preserve">
    <text fill="rgb(38,38,38)" x="0 8 14 18 27 33 35 37 42 48 54 57 64 68 74 80 86 92 98 104 109 112 116 122 124 127 131 137 143 146 151 157 166 172 174 180 " y="-3">Normalized Frequency (pi rad/sample)</text>
   </g>
   <polyline fill="none" points="55.0086,180.858 55.5637,181.032 56.1188,181.206 56.6739,181.38 57.229,181.555 57.7841,181.729 58.3393,181.903 58.8944,182.077 59.4495,182.251 60.0046,182.426 60.5597,182.6 61.1148,182.774 61.6699,182.948 62.225,183.122 62.7802,183.297 63.3353,183.471 63.8904,183.645 64.4455,183.819 65.0006,183.993 65.5557,184.168 66.1108,184.342 66.666,184.516 67.2211,184.69 67.7762,184.864 68.3313,185.038 68.8864,185.213 69.4415,185.387 69.9966,185.561 70.5518,185.735 71.1069,185.909 71.662,186.083 72.2171,186.258 72.7722,186.432 73.3273,186.606 73.8824,186.78 74.4375,186.954 74.9927,187.128 75.5478,187.302 76.1029,187.476 76.658,187.65 77.2131,187.825 77.7682,187.999 78.3233,188.173 78.8784,188.347 79.4335,188.521 79.9887,188.695 80.5438,188.869 81.0989,189.043 81.654,189.217 82.2091,189.391 82.7642,189.565 83.3194,189.739 83.8745,189.913 84.4296,190.087 84.9847,190.261 85.5398,190.435 86.0949,190.609 86.65,190.783 87.2051,190.957 87.7603,191.131 88.3154,191.305 88.8705,191.478 89.4256,191.652 89.9807,191.826 90.5358,192 91.0909,192.174 91.646,192.348 92.2012,192.521 92.7563,192.695 93.3114,192.869 93.8665,193.043 94.4216,193.217 94.9767,193.39 95.5318,193.564 96.0869,193.738 96.6421,193.911 97.1972,194.085 97.7523,194.259 98.3074,194.432 98.8625,194.606 99.4176,194.779 99.9727,194.953 100.528,195.126 101.083,195.3 101.638,195.473 102.193,195.647 102.748,195.82 103.303,195.994 103.859,196.167 104.414,196.34 104.969,196.514 105.524,196.687 106.079,196.86 106.634,197.034 107.189,197.207 107.744,197.38 108.299,197.553 108.855,197.726 109.41,197.899 109.965,198.072 110.52,198.245 111.075,198.418 111.63,198.591 112.185,198.764 112.74,198.936 113.295,199.109 113.851,199.282 114.406,199.454 114.961,199.627 115.516,199.799 116.071,199.972 116.626,200.144 117.181,200.316 117.736,200.489 118.291,200.661 118.847,200.833 119.402,201.005 119.957,201.177 120.512,201.349 121.067,201.52 121.622,201.692 122.177,201.864 122.732,202.035 123.287,202.206 123.843,202.378 124.398,202.549 124.953,202.72 125.508,202.891 126.063,203.061 126.618,203.232 127.173,203.402 127.728,203.573 128.284,203.743 128.839,203.913 129.394,204.082 129.949,204.252 130.504,204.421 131.059,204.59 131.614,204.759 132.169,204.928 132.724,205.096 133.28,205.264 133.835,205.432 134.39,205.599 134.945,205.766 135.5,205.932 136.055,206.098 136.61,206.264 137.165,206.429 137.72,206.593 138.276,206.757 138.831,206.92 139.386,207.082 139.941,207.243 140.496,207.404 141.051,207.563 141.606,207.721 142.161,207.878 142.716,208.033 143.272,208.186 143.827,208.338 144.382,208.488 144.937,208.636 145.492,208.782 146.047,208.926 146.602,209.068 147.157,209.209 147.712,209.348 148.268,209.486 148.823,209.624 149.378,209.762 149.933,209.9 150.488,210.039 151.043,210.179 151.598,210.32 152.153,210.463 152.708,210.606 153.264,210.751 153.819,210.897 154.374,211.044 154.929,211.192 155.484,211.34 156.039,211.49 156.594,211.639 157.149,211.79 157.704,211.94 158.26,212.091 158.815,212.243 159.37,212.394 159.925,212.546 160.48,212.697 161.035,212.849 161.59,213.001 162.145,213.153 162.701,213.305 163.256,213.456 163.811,213.608 164.366,213.76 164.921,213.911 165.476,214.062 166.031,214.213 166.586,214.364 167.141,214.514 167.697,214.664 168.252,214.813 168.807,214.962 169.362,215.11 169.917,215.258 170.472,215.404 171.027,215.55 171.582,215.695 172.137,215.839 172.693,215.983 173.248,216.125 173.803,216.267 174.358,216.409 174.913,216.551 175.468,216.692 176.023,216.834 176.578,216.977 177.133,217.121 177.689,217.266 178.244,217.413 178.799,217.561 179.354,217.711 179.909,217.862 180.464,218.015 181.019,218.17 181.574,218.325 182.129,218.483 182.685,218.641 183.24,218.8 183.795,218.961 184.35,219.122 184.905,219.284 185.46,219.447 186.015,219.611 186.57,219.775 187.125,219.94 187.681,220.106 188.236,220.272 188.791,220.438 189.346,220.605 189.901,220.772 190.456,220.94 191.011,221.108 191.566,221.276 192.122,221.445 192.677,221.614 193.232,221.783 193.787,221.952 194.342,222.121 194.897,222.291 195.452,222.461 196.007,222.631 196.562,222.802 197.118,222.972 197.673,223.143 198.228,223.313 198.783,223.484 199.338,223.655 199.893,223.826 200.448,223.998 201.003,224.169 201.558,224.341 202.114,224.512 202.669,224.684 203.224,224.856 203.779,225.028 204.334,225.2 204.889,225.372 205.444,225.544 205.999,225.716 206.554,225.888 207.11,226.061 207.665,226.233 208.22,226.406 208.775,226.578 209.33,226.751 209.885,226.924 210.44,227.096 210.995,227.269 211.55,227.442 212.106,227.615 212.661,227.788 213.216,227.961 213.771,228.134 214.326,228.307 214.881,228.48 215.436,228.653 215.991,228.827 216.546,229 217.102,229.173 217.657,229.346 218.212,229.52 218.767,229.693 219.322,229.867 219.877,230.04 220.432,230.214 220.987,230.387 221.542,230.561 222.098,230.734 222.653,230.908 223.208,231.081 223.763,231.255 224.318,231.429 224.873,231.602 225.428,231.776 225.983,231.95 226.539,232.124 227.094,232.297 227.649,232.471 228.204,232.645 228.759,232.819 229.314,232.993 229.869,233.167 230.424,233.341 230.979,233.514 231.535,233.688 232.09,233.862 232.645,234.036 233.2,234.21 233.755,234.384 234.31,234.558 234.865,234.732 235.42,234.906 235.975,235.08 236.531,235.255 237.086,235.429 237.641,235.603 238.196,235.777 238.751,235.951 239.306,236.125 239.861,236.299 240.416,236.473 240.971,236.648 241.527,236.822 242.082,236.996 242.637,237.17 243.192,237.345 243.747,237.519 244.302,237.693 244.857,237.867 245.412,238.042 245.967,238.216 246.523,238.39 247.078,238.564 247.633,238.739 248.188,238.913 248.743,239.087 249.298,239.262 249.853,239.436 250.408,239.61 250.964,239.785 251.519,239.959 252.074,240.133 252.629,240.308 253.184,240.482 253.739,240.657 254.294,240.831 254.849,241.005 255.404,241.18 255.96,241.354 256.515,241.529 257.07,241.703 257.625,241.878 258.18,242.052 258.735,242.227 259.29,242.401 259.845,242.575 260.4,242.75 260.956,242.924 261.511,243.099 262.066,243.273 262.621,243.448 263.176,243.622 263.731,243.797 264.286,243.971 264.841,244.146 265.396,244.32 265.952,244.495 266.507,244.669 267.062,244.844 267.617,245.019 268.172,245.193 268.727,245.368 269.282,245.542 269.837,245.717 270.392,245.891 270.948,246.066 271.503,246.241 272.058,246.415 272.613,246.59 273.168,246.764 273.723,246.939 274.278,247.113 274.833,247.288 275.388,247.463 275.944,247.637 276.499,247.812 277.054,247.986 277.609,248.161 278.164,248.336 278.719,248.51 279.274,248.685 279.829,248.86 280.384,249.034 280.94,249.209 281.495,249.383 282.05,249.558 282.605,249.733 283.16,249.907 283.715,250.082 284.27,250.257 284.825,250.431 285.381,250.606 285.936,250.781 286.491,250.955 287.046,251.13 287.601,251.305 288.156,251.479 288.711,251.654 289.266,251.829 289.821,252.003 290.377,252.178 290.932,252.353 291.487,252.527 292.042,252.702 292.597,252.877 293.152,253.051 293.707,253.226 294.262,253.401 294.817,253.576 295.373,253.75 295.928,253.925 296.483,254.1 297.038,254.274 297.593,254.449 298.148,254.624 298.703,254.799 299.258,254.973 299.813,255.148 300.369,255.323 300.924,255.497 301.479,255.672 302.034,255.847 302.589,256.022 303.144,256.196 303.699,256.371 304.254,256.546 304.809,256.72 305.365,256.895 305.92,257.07 306.475,257.245 307.03,257.419 307.585,257.594 308.14,257.769 308.695,257.944 309.25,258.118 309.806,258.293 310.361,258.468 310.916,258.643 311.471,258.817 312.026,258.992 312.581,259.167 313.136,259.341 313.691,259.516 314.246,259.691 314.802,259.866 315.357,260.041 315.912,260.215 316.467,260.39 317.022,260.565 317.577,260.74 318.132,260.914 318.687,261.089 319.242,261.264 319.798,261.439 320.353,261.613 320.908,261.788 321.463,261.963 322.018,262.138 322.573,262.312 323.128,262.487 323.683,262.662 324.238,262.837 324.794,263.011 325.349,263.186 325.904,263.361 326.459,263.536 327.014,263.71 327.569,263.885 328.124,264.06 328.679,264.235 329.234,264.41 329.79,264.584 330.345,264.759 330.9,264.934 331.455,265.109 332.01,265.283 332.565,265.458 333.12,265.633 333.675,265.808 334.23,265.982 334.786,266.157 335.341,266.332 335.896,266.507 336.451,266.681 337.006,266.856 337.561,267.031 338.116,267.206 338.671,267.381" stroke="#0071bc" stroke-linecap="butt" stroke-linejoin="round" stroke-width="0.5"/>
  </g>
 </g>
</svg>
