<?xml version='1.0' encoding='UTF-8' standalone='no'?>
<svg xmlns:xlink="http://www.w3.org/1999/xlink" width="1170pt" xmlns="http://www.w3.org/2000/svg" height="581pt" viewBox="0 0 1170 581">
 <title>Figure 1</title>
 <desc>
Creator: GL2PS 1.4.2, (C) 1999-2020 C. Geuzaine
For: Octave
CreationDate: Tue Sep 10 14:20:54 2024
</desc>
 <defs/>
 <polygon fill="#ffffff" points="0,0 1170,0 1170,581 0,581"/>
 <g>
  <polygon fill="#ffffff" shape-rendering="crispEdges" points="0,581 1170,581 1170,0 0,0"/>
  <clipPath id="cp001170581">
   <polygon points="0,581 1170,581 1170,0 0,0"/>
  </clipPath>
  <g clip-path="url(#cp001170581)">
   <polygon fill="#ffffff" shape-rendering="crispEdges" points="152.173,517.559 1059.36,517.559 1059.36,43.6146 152.173,43.6146"/>
   <polyline fill="none" stroke-dasharray="16,0" stroke-width="0.5" stroke-opacity="0.15" stroke-linecap="butt" stroke-linejoin="miter" stroke="#262626" points="152.173,517.559 152.173,43.6146"/>
   <polyline fill="none" stroke-dasharray="16,0" stroke-width="0.5" stroke-opacity="0.15" stroke-linecap="butt" stroke-linejoin="miter" stroke="#262626" points="333.609,517.559 333.609,43.6146"/>
   <polyline fill="none" stroke-dasharray="16,0" stroke-width="0.5" stroke-opacity="0.15" stroke-linecap="butt" stroke-linejoin="miter" stroke="#262626" points="515.046,517.559 515.046,43.6146"/>
   <polyline fill="none" stroke-dasharray="16,0" stroke-width="0.5" stroke-opacity="0.15" stroke-linecap="butt" stroke-linejoin="miter" stroke="#262626" points="696.482,517.559 696.482,43.6146"/>
   <polyline fill="none" stroke-dasharray="16,0" stroke-width="0.5" stroke-opacity="0.15" stroke-linecap="butt" stroke-linejoin="miter" stroke="#262626" points="877.919,517.559 877.919,43.6146"/>
   <polyline fill="none" stroke-dasharray="16,0" stroke-width="0.5" stroke-opacity="0.15" stroke-linecap="butt" stroke-linejoin="miter" stroke="#262626" points="1059.36,517.559 1059.36,43.6146"/>
   <polyline fill="none" stroke-width="0.5" stroke-linecap="butt" stroke-linejoin="miter" stroke="#262626" points="152.173,517.559 152.173,508.489"/>
   <polyline fill="none" stroke-width="0.5" stroke-linecap="butt" stroke-linejoin="miter" stroke="#262626" points="152.173,43.6146 152.173,52.6853"/>
   <polyline fill="none" stroke-width="0.5" stroke-linecap="butt" stroke-linejoin="miter" stroke="#262626" points="333.609,517.559 333.609,508.489"/>
   <polyline fill="none" stroke-width="0.5" stroke-linecap="butt" stroke-linejoin="miter" stroke="#262626" points="333.609,43.6146 333.609,52.6853"/>
   <polyline fill="none" stroke-width="0.5" stroke-linecap="butt" stroke-linejoin="miter" stroke="#262626" points="515.046,517.559 515.046,508.489"/>
   <polyline fill="none" stroke-width="0.5" stroke-linecap="butt" stroke-linejoin="miter" stroke="#262626" points="515.046,43.6146 515.046,52.6853"/>
   <polyline fill="none" stroke-width="0.5" stroke-linecap="butt" stroke-linejoin="miter" stroke="#262626" points="696.482,517.559 696.482,508.489"/>
   <polyline fill="none" stroke-width="0.5" stroke-linecap="butt" stroke-linejoin="miter" stroke="#262626" points="696.482,43.6146 696.482,52.6853"/>
   <polyline fill="none" stroke-width="0.5" stroke-linecap="butt" stroke-linejoin="miter" stroke="#262626" points="877.919,517.559 877.919,508.489"/>
   <polyline fill="none" stroke-width="0.5" stroke-linecap="butt" stroke-linejoin="miter" stroke="#262626" points="877.919,43.6146 877.919,52.6853"/>
   <polyline fill="none" stroke-width="0.5" stroke-linecap="butt" stroke-linejoin="miter" stroke="#262626" points="1059.36,517.559 1059.36,508.489"/>
   <polyline fill="none" stroke-width="0.5" stroke-linecap="butt" stroke-linejoin="miter" stroke="#262626" points="1059.36,43.6146 1059.36,52.6853"/>
   <g transform="translate(149.173,533.058) rotate(-0,3,-8)" font-family="FreeSans" font-style="normal" font-size="10" xml:space="preserve" font-weight="normal">
    <text y="-0" fill="rgb(38,38,38)" x="0 ">0</text>
   </g>
   <g transform="translate(326.109,533.058) rotate(-0,7.5,-8)" font-family="FreeSans" font-style="normal" font-size="10" xml:space="preserve" font-weight="normal">
    <text y="-0" fill="rgb(38,38,38)" x="0 6 9 ">0.2</text>
   </g>
   <g transform="translate(507.546,533.058) rotate(-0,7.5,-8)" font-family="FreeSans" font-style="normal" font-size="10" xml:space="preserve" font-weight="normal">
    <text y="-0" fill="rgb(38,38,38)" x="0 6 9 ">0.4</text>
   </g>
   <g transform="translate(688.982,533.058) rotate(-0,7.5,-8)" font-family="FreeSans" font-style="normal" font-size="10" xml:space="preserve" font-weight="normal">
    <text y="-0" fill="rgb(38,38,38)" x="0 6 9 ">0.6</text>
   </g>
   <g transform="translate(870.419,533.058) rotate(-0,7.5,-8)" font-family="FreeSans" font-style="normal" font-size="10" xml:space="preserve" font-weight="normal">
    <text y="-0" fill="rgb(38,38,38)" x="0 6 9 ">0.8</text>
   </g>
   <g transform="translate(1056.36,533.058) rotate(-0,3,-8)" font-family="FreeSans" font-style="normal" font-size="10" xml:space="preserve" font-weight="normal">
    <text y="-0" fill="rgb(38,38,38)" x="0 ">1</text>
   </g>
   <polyline fill="none" stroke-dasharray="16,0" stroke-width="0.5" stroke-opacity="0.15" stroke-linecap="butt" stroke-linejoin="miter" stroke="#262626" points="152.173,517.559 1059.36,517.559"/>
   <polyline fill="none" stroke-dasharray="16,0" stroke-width="0.5" stroke-opacity="0.15" stroke-linecap="butt" stroke-linejoin="miter" stroke="#262626" points="152.173,422.77 1059.36,422.77"/>
   <polyline fill="none" stroke-dasharray="16,0" stroke-width="0.5" stroke-opacity="0.15" stroke-linecap="butt" stroke-linejoin="miter" stroke="#262626" points="152.173,327.981 1059.36,327.981"/>
   <polyline fill="none" stroke-dasharray="16,0" stroke-width="0.5" stroke-opacity="0.15" stroke-linecap="butt" stroke-linejoin="miter" stroke="#262626" points="152.173,233.192 1059.36,233.192"/>
   <polyline fill="none" stroke-dasharray="16,0" stroke-width="0.5" stroke-opacity="0.15" stroke-linecap="butt" stroke-linejoin="miter" stroke="#262626" points="152.173,138.403 1059.36,138.403"/>
   <polyline fill="none" stroke-dasharray="16,0" stroke-width="0.5" stroke-opacity="0.15" stroke-linecap="butt" stroke-linejoin="miter" stroke="#262626" points="152.173,43.6146 1059.36,43.6146"/>
   <polyline fill="none" stroke-width="0.5" stroke-linecap="butt" stroke-linejoin="miter" stroke="#262626" points="152.173,517.559 161.246,517.559"/>
   <polyline fill="none" stroke-width="0.5" stroke-linecap="butt" stroke-linejoin="miter" stroke="#262626" points="1059.36,517.559 1050.28,517.559"/>
   <polyline fill="none" stroke-width="0.5" stroke-linecap="butt" stroke-linejoin="miter" stroke="#262626" points="152.173,422.77 161.246,422.77"/>
   <polyline fill="none" stroke-width="0.5" stroke-linecap="butt" stroke-linejoin="miter" stroke="#262626" points="1059.36,422.77 1050.28,422.77"/>
   <polyline fill="none" stroke-width="0.5" stroke-linecap="butt" stroke-linejoin="miter" stroke="#262626" points="152.173,327.981 161.246,327.981"/>
   <polyline fill="none" stroke-width="0.5" stroke-linecap="butt" stroke-linejoin="miter" stroke="#262626" points="1059.36,327.981 1050.28,327.981"/>
   <polyline fill="none" stroke-width="0.5" stroke-linecap="butt" stroke-linejoin="miter" stroke="#262626" points="152.173,233.192 161.246,233.192"/>
   <polyline fill="none" stroke-width="0.5" stroke-linecap="butt" stroke-linejoin="miter" stroke="#262626" points="1059.36,233.192 1050.28,233.192"/>
   <polyline fill="none" stroke-width="0.5" stroke-linecap="butt" stroke-linejoin="miter" stroke="#262626" points="152.173,138.403 161.246,138.403"/>
   <polyline fill="none" stroke-width="0.5" stroke-linecap="butt" stroke-linejoin="miter" stroke="#262626" points="1059.36,138.403 1050.28,138.403"/>
   <polyline fill="none" stroke-width="0.5" stroke-linecap="butt" stroke-linejoin="miter" stroke="#262626" points="152.173,43.6146 161.246,43.6146"/>
   <polyline fill="none" stroke-width="0.5" stroke-linecap="butt" stroke-linejoin="miter" stroke="#262626" points="1059.36,43.6146 1050.28,43.6146"/>
   <g transform="translate(138.172,521.559) rotate(-0,9,-4)" font-family="FreeSans" font-style="normal" font-size="10" xml:space="preserve" font-weight="normal">
    <text y="-0" fill="rgb(38,38,38)" x="0 3 ">-5</text>
   </g>
   <g transform="translate(141.172,426.77) rotate(-0,6,-4)" font-family="FreeSans" font-style="normal" font-size="10" xml:space="preserve" font-weight="normal">
    <text y="-0" fill="rgb(38,38,38)" x="0 ">0</text>
   </g>
   <g transform="translate(141.172,331.981) rotate(-0,6,-4)" font-family="FreeSans" font-style="normal" font-size="10" xml:space="preserve" font-weight="normal">
    <text y="-0" fill="rgb(38,38,38)" x="0 ">5</text>
   </g>
   <g transform="translate(135.172,237.192) rotate(-0,12,-4)" font-family="FreeSans" font-style="normal" font-size="10" xml:space="preserve" font-weight="normal">
    <text y="-0" fill="rgb(38,38,38)" x="0 6 ">10</text>
   </g>
   <g transform="translate(135.172,142.404) rotate(-0,12,-4)" font-family="FreeSans" font-style="normal" font-size="10" xml:space="preserve" font-weight="normal">
    <text y="-0" fill="rgb(38,38,38)" x="0 6 ">15</text>
   </g>
   <g transform="translate(135.172,47.6146) rotate(-0,12,-4)" font-family="FreeSans" font-style="normal" font-size="10" xml:space="preserve" font-weight="normal">
    <text y="-0" fill="rgb(38,38,38)" x="0 6 ">20</text>
   </g>
   <polyline fill="none" stroke-dasharray="16,0" stroke-width="0.5" stroke-linecap="square" stroke-linejoin="miter" stroke="#262626" points="152.173,517.559 1059.36,517.559"/>
   <polyline fill="none" stroke-dasharray="16,0" stroke-width="0.5" stroke-linecap="square" stroke-linejoin="miter" stroke="#262626" points="152.173,43.6146 1059.36,43.6146"/>
   <polyline fill="none" stroke-dasharray="16,0" stroke-width="0.5" stroke-linecap="square" stroke-linejoin="miter" stroke="#262626" points="152.173,517.559 152.173,43.6146"/>
   <polyline fill="none" stroke-dasharray="16,0" stroke-width="0.5" stroke-linecap="square" stroke-linejoin="miter" stroke="#262626" points="1059.36,517.559 1059.36,43.6146"/>
   <polyline fill="none" stroke-width="0.5" stroke-linecap="butt" stroke-linejoin="round" stroke="#0071bc" points="152.173,445.979 158.261,445.912 164.35,445.845 170.438,445.73 176.526,445.564 182.615,445.34 188.703,445.051 194.792,444.687 200.88,444.236 206.969,443.686 213.057,443.019 219.146,442.219 225.234,441.266 231.323,440.14 237.411,438.816 243.5,437.271 249.588,435.48 255.677,433.42 261.765,431.067 267.854,428.403 273.942,425.411 280.031,422.085 286.119,418.426 292.207,414.446 298.296,410.173 304.384,405.652 310.473,400.945 316.561,396.133 322.65,391.317 328.738,386.611 334.827,382.141 340.915,378.036 347.004,374.42 353.092,371.406 359.181,369.082 365.269,367.507 371.358,366.708 377.446,366.676 383.535,367.368 389.623,368.716 395.712,370.631 401.8,373.011 407.888,375.753 413.977,378.755 420.065,381.924 426.154,385.181 432.242,388.458 438.331,391.705 444.419,394.883 450.508,397.967 456.596,400.945 462.685,403.812 468.773,406.571 474.862,409.233 480.95,411.81 487.039,414.322 493.127,416.786 499.216,419.225 505.304,421.658 511.393,424.105 517.481,426.584 523.569,429.108 529.658,431.688 535.746,434.329 541.835,437.026 547.923,439.771 554.012,442.541 560.1,445.308 566.189,448.03 572.277,450.658 578.366,453.132 584.454,455.389 590.543,457.363 596.631,458.991 602.72,460.218 608.808,460.999 614.897,461.31 620.985,461.143 627.074,460.51 633.162,459.444 639.25,457.994 645.339,456.221 651.427,454.194 657.516,451.983 663.604,449.66 669.693,447.289 675.781,444.925 681.87,442.616 687.958,440.399 694.047,438.302 700.135,436.344 706.224,434.535 712.312,432.882 718.401,431.383 724.489,430.035 730.578,428.831 736.666,427.763 742.755,426.819 748.843,425.992 754.932,425.269 761.02,424.64 767.108,424.097 773.197,423.629 779.285,423.228 785.374,422.887 791.462,422.597 797.551,422.354 803.639,422.15 809.728,421.981 815.816,421.843 821.905,421.731 827.993,421.641 834.082,421.571 840.17,421.518 846.259,421.478 852.347,421.451 858.436,421.435 864.524,421.427 870.613,421.426 876.701,421.432 882.789,421.442 888.878,421.456 894.966,421.474 901.055,421.495 907.143,421.517 913.232,421.541 919.32,421.565 925.409,421.591 931.497,421.616 937.586,421.642 943.674,421.667 949.763,421.692 955.851,421.716 961.94,421.74 968.028,421.762 974.117,421.783 980.205,421.803 986.294,421.822 992.382,421.84 998.471,421.856 1004.56,421.871 1010.65,421.884 1016.74,421.896 1022.82,421.907 1028.91,421.915 1035,421.923 1041.09,421.928 1047.18,421.932 1053.27,421.935 1059.36,421.937"/>
   <polyline fill="none" stroke-width="0.5" stroke-linecap="butt" stroke-linejoin="round" stroke="#d85218" points="152.173,136.373 158.261,136.328 164.35,136.195 170.438,135.986 176.526,135.72 182.615,135.422 188.703,135.128 194.792,134.878 200.88,134.72 206.969,134.708 213.057,134.899 219.146,135.349 225.234,136.115 231.323,137.243 237.411,138.774 243.5,140.73 249.588,143.12 255.677,145.936 261.765,149.15 267.854,152.719 273.942,156.588 280.031,160.691 286.119,164.955 292.207,169.306 298.296,173.671 304.384,177.981 310.473,182.172 316.561,186.189 322.65,189.981 328.738,193.508 334.827,196.733 340.915,199.629 347.004,202.172 353.092,204.343 359.181,206.127 365.269,207.511 371.358,208.488 377.446,209.05 383.535,209.192 389.623,208.912 395.712,208.211 401.8,207.092 407.888,205.561 413.977,203.632 420.065,201.32 426.154,198.652 432.242,195.658 438.331,192.38 444.419,188.869 450.508,185.184 456.596,181.393 462.685,177.571 468.773,173.795 474.862,170.14 480.95,166.675 487.039,163.457 493.127,160.522 499.216,157.886 505.304,155.539 511.393,153.447 517.481,151.553 523.569,149.783 529.658,148.054 535.746,146.282 541.835,144.387 547.923,142.307 554.012,139.999 560.1,137.45 566.189,134.681 572.277,131.745 578.366,128.735 584.454,125.77 590.543,122.996 596.631,120.569 602.72,118.637 608.808,117.33 614.897,116.733 620.985,116.886 627.074,117.768 633.162,119.306 639.25,121.386 645.339,123.864 651.427,126.587 657.516,129.407 663.604,132.193 669.693,134.842 675.781,137.281 681.87,139.467 687.958,141.384 694.047,143.042 700.135,144.47 706.224,145.709 712.312,146.807 718.401,147.814 724.489,148.776 730.578,149.729 736.666,150.702 742.755,151.706 748.843,152.743 754.932,153.799 761.02,154.852 767.108,155.873 773.197,156.829 779.285,157.685 785.374,158.413 791.462,158.988 797.551,159.396 803.639,159.629 809.728,159.694 815.816,159.605 821.905,159.387 827.993,159.073 834.082,158.701 840.17,158.312 846.259,157.946 852.347,157.641 858.436,157.427 864.524,157.324 870.613,157.342 876.701,157.481 882.789,157.726 888.878,158.055 894.966,158.438 901.055,158.84 907.143,159.225 913.232,159.557 919.32,159.809 925.409,159.956 931.497,159.986 937.586,159.895 943.674,159.689 949.763,159.385 955.851,159.008 961.94,158.587 968.028,158.159 974.117,157.757 980.205,157.417 986.294,157.165 992.382,157.021 998.471,156.997 1004.56,157.093 1010.65,157.296 1016.74,157.587 1022.82,157.938 1028.91,158.316 1035,158.686 1041.09,159.015 1047.18,159.274 1053.27,159.438 1059.36,159.495"/>
   <polyline fill="none" stroke-width="0.5" stroke-linecap="butt" stroke-linejoin="round" stroke="#ecb01f" points="152.173,159.582 158.261,159.469 164.35,159.269 170.438,158.946 176.526,158.514 182.615,157.993 188.703,157.409 194.792,156.795 200.88,156.186 206.969,155.623 213.057,155.147 219.146,154.798 225.234,154.611 231.323,154.613 237.411,154.819 243.5,155.23 249.588,155.83 255.677,156.585 261.765,157.446 267.854,158.351 273.942,159.229 280.031,160.005 286.119,160.61 292.207,160.981 298.296,161.073 304.384,160.862 310.473,160.347 316.561,159.552 322.65,158.528 328.738,157.349 334.827,156.104 340.915,154.895 347.004,153.822 353.092,152.978 359.181,152.438 365.269,152.248 371.358,152.426 377.446,152.955 383.535,153.79 389.623,154.858 395.712,156.072 401.8,157.333 407.888,158.544 413.977,159.616 420.065,160.475 426.154,161.062 432.242,161.346 438.331,161.315 444.419,160.981 450.508,160.381 456.596,159.568 462.685,158.612 468.773,157.595 474.862,156.602 480.95,155.715 487.039,155.008 493.127,154.538 499.216,154.341 505.304,154.427 511.393,154.782 517.481,155.366 523.569,156.121 529.658,156.972 535.746,157.84 541.835,158.643 547.923,159.307 554.012,159.77 560.1,159.988 566.189,159.941 572.277,159.633 578.366,159.096 584.454,158.389 590.543,157.589 596.631,156.79 602.72,156.085 608.808,155.559 614.897,155.273 620.985,155.258 627.074,155.507 633.162,155.98 639.25,156.61 645.339,157.315 651.427,158.01 657.516,158.62 663.604,159.083 669.693,159.361 675.781,159.436 681.87,159.312 687.958,159.012 694.047,158.574 700.135,158.044 706.224,157.474 712.312,156.919 718.401,156.427 724.489,156.041 730.578,155.79 736.666,155.694 742.755,155.755 748.843,155.964 754.932,156.297 761.02,156.722 767.108,157.199 773.197,157.687 779.285,158.143 785.374,158.529 791.462,158.815 797.551,158.979 803.639,159.009 809.728,158.905 815.816,158.677 821.905,158.347 827.993,157.944 834.082,157.502 840.17,157.059 846.259,156.654 852.347,156.322 858.436,156.091 864.524,155.98 870.613,155.998 876.701,156.142 882.789,156.398 888.878,156.741 894.966,157.142 901.055,157.564 907.143,157.971 913.232,158.328 919.32,158.604 925.409,158.776 931.497,158.832 937.586,158.766 943.674,158.586 949.763,158.307 955.851,157.954 961.94,157.557 968.028,157.15 974.117,156.77 980.205,156.45 986.294,156.217 992.382,156.091 998.471,156.083 1004.56,156.193 1010.65,156.41 1016.74,156.713 1022.82,157.074 1028.91,157.461 1035,157.839 1041.09,158.173 1047.18,158.435 1053.27,158.602 1059.36,158.661"/>
   <polyline fill="none" stroke-width="0.5" stroke-linecap="butt" stroke-linejoin="round" stroke="#7d2e8d" points="152.173,422.507 158.261,422.533 164.35,422.575 170.438,422.635 176.526,422.698 182.615,422.748 188.703,422.77 194.792,422.754 200.88,422.698 206.969,422.61 213.057,422.508 219.146,422.415 225.234,422.358 231.323,422.355 237.411,422.413 243.5,422.517 249.588,422.639 255.677,422.737 261.765,422.77 267.854,422.711 273.942,422.558 280.031,422.341 286.119,422.114 292.207,421.944 298.296,421.888 304.384,421.974 310.473,422.181 316.561,422.447 322.65,422.676 328.738,422.77 334.827,422.664 340.915,422.35 347.004,421.894 353.092,421.414 359.181,421.046 365.269,420.902 371.358,421.026 377.446,421.38 383.535,421.86 389.623,422.326 395.712,422.654 401.8,422.77 407.888,422.67 413.977,422.412 420.065,422.096 426.154,421.83 432.242,421.695 438.331,421.725 444.419,421.905 450.508,422.176 456.596,422.456 462.685,422.67 468.773,422.767 474.862,422.737 480.95,422.611 487.039,422.447 493.127,422.311 499.216,422.253 505.304,422.289 511.393,422.405 517.481,422.555 523.569,422.689 529.658,422.763 535.746,422.758 541.835,422.683 547.923,422.574 554.012,422.475 560.1,422.424 566.189,422.441 572.277,422.517 578.366,422.624 584.454,422.719 590.543,422.768 596.631,422.756 602.72,422.697 608.808,422.624 614.897,422.574 620.985,422.572 627.074,422.616 633.162,422.685 639.25,422.746 645.339,422.77 651.427,422.75 657.516,422.696 663.604,422.631 669.693,422.583 675.781,422.567 681.87,422.59 687.958,422.64 694.047,422.699 700.135,422.747 706.224,422.77 712.312,422.762 718.401,422.73 724.489,422.688 730.578,422.652 736.666,422.636 742.755,422.646 748.843,422.676 754.932,422.716 761.02,422.751 767.108,422.769 773.197,422.765 779.285,422.738 785.374,422.699 791.462,422.661 797.551,422.635 803.639,422.629 809.728,422.646 815.816,422.68 821.905,422.719 827.993,422.752 834.082,422.769 840.17,422.766 846.259,422.746 852.347,422.716 858.436,422.689 864.524,422.673 870.613,422.676 876.701,422.695 882.789,422.723 888.878,422.751 894.966,422.768 901.055,422.768 907.143,422.75 913.232,422.72 919.32,422.688 925.409,422.663 931.497,422.655 937.586,422.664 943.674,422.69 949.763,422.722 955.851,422.751 961.94,422.768 968.028,422.768 974.117,422.753 980.205,422.728 986.294,422.703 992.382,422.687 998.471,422.686 1004.56,422.7 1010.65,422.724 1016.74,422.749 1022.82,422.766 1028.91,422.77 1035,422.758 1041.09,422.734 1047.18,422.708 1053.27,422.687 1059.36,422.679"/>
   <polyline fill="none" stroke-width="0.5" stroke-linecap="butt" stroke-linejoin="round" stroke="#76ab2f" points="152.173,157.346 158.261,157.346 164.35,157.346 170.438,157.346 176.526,157.346 182.615,157.346 188.703,157.346 194.792,157.346 200.88,157.346 206.969,157.346 213.057,157.346 219.146,157.346 225.234,157.346 231.323,157.346 237.411,157.346 243.5,157.346 249.588,157.346 255.677,157.346 261.765,157.346 267.854,157.346 273.942,157.346 280.031,157.346 286.119,157.346 292.207,157.346 298.296,157.346 304.384,157.346 310.473,157.346 316.561,157.346 322.65,157.346 328.738,157.346 334.827,157.346 340.915,157.346 347.004,157.346 353.092,157.346 359.181,157.346 365.269,157.346 371.358,157.346 377.446,157.346 383.535,157.346 389.623,157.346 395.712,157.346 401.8,157.346 407.888,157.346 413.977,157.346 420.065,157.346 426.154,157.346 432.242,157.346 438.331,157.346 444.419,157.346 450.508,157.346 456.596,157.346 462.685,157.346 468.773,157.346 474.862,157.346 480.95,157.346 487.039,157.346 493.127,157.346 499.216,157.346 505.304,157.346 511.393,157.346 517.481,157.346 523.569,157.346 529.658,157.346 535.746,157.346 541.835,157.346 547.923,157.346 554.012,157.346 560.1,157.346 566.189,157.346 572.277,157.346 578.366,157.346 584.454,157.346 590.543,157.346 596.631,157.346 602.72,157.346 608.808,157.346 614.897,157.346 620.985,157.346 627.074,157.346 633.162,157.346 639.25,157.346 645.339,157.346 651.427,157.346 657.516,157.346 663.604,157.346 669.693,157.346 675.781,157.346 681.87,157.346 687.958,157.346 694.047,157.346 700.135,157.346 706.224,157.346 712.312,157.346 718.401,157.346 724.489,157.346 730.578,157.346 736.666,157.346 742.755,157.346 748.843,157.346 754.932,157.346 761.02,157.346 767.108,157.346 773.197,157.346 779.285,157.346 785.374,157.346 791.462,157.346 797.551,157.346 803.639,157.346 809.728,157.346 815.816,157.346 821.905,157.346 827.993,157.346 834.082,157.346 840.17,157.346 846.259,157.346 852.347,157.346 858.436,157.346 864.524,157.346 870.613,157.346 876.701,157.346 882.789,157.346 888.878,157.346 894.966,157.346 901.055,157.346 907.143,157.346 913.232,157.346 919.32,157.346 925.409,157.346 931.497,157.346 937.586,157.346 943.674,157.346 949.763,157.346 955.851,157.346 961.94,157.346 968.028,157.346 974.117,157.346 980.205,157.346 986.294,157.346 992.382,157.346 998.471,157.346 1004.56,157.346 1010.65,157.346 1016.74,157.346 1022.82,157.346 1028.91,157.346 1035,157.346 1041.09,157.346 1047.18,157.346 1053.27,157.346 1059.36,157.346"/>
  </g>
  <clipPath id="cp001170581">
   <polygon points="0,581 1170,581 1170,0 0,0"/>
  </clipPath>
  <g clip-path="url(#cp001170581)">
   <polygon fill="#ffffff" shape-rendering="crispEdges" points="990.374,121.995 1051.36,121.995 1051.36,51.6107 990.374,51.6107"/>
   <polyline fill="none" stroke-dasharray="16,0" stroke-width="0.5" stroke-linecap="square" stroke-linejoin="miter" stroke="#262626" points="990.374,121.995 1051.36,121.995"/>
   <polyline fill="none" stroke-dasharray="16,0" stroke-width="0.5" stroke-linecap="square" stroke-linejoin="miter" stroke="#262626" points="990.374,51.6107 1051.36,51.6107"/>
   <polyline fill="none" stroke-dasharray="16,0" stroke-width="0.5" stroke-linecap="square" stroke-linejoin="miter" stroke="#262626" points="990.374,121.995 990.374,51.6107"/>
   <polyline fill="none" stroke-dasharray="16,0" stroke-width="0.5" stroke-linecap="square" stroke-linejoin="miter" stroke="#262626" points="1051.36,121.995 1051.36,51.6107"/>
   <polyline fill="none" stroke-width="0.5" stroke-linecap="butt" stroke-linejoin="round" stroke="#0071bc" points="994.372,60.6088 1014.36,60.6088"/>
   <g transform="translate(1018.36,65.6088) rotate(-0,-0,-5)" font-family="FreeSans" font-style="normal" font-size="9" xml:space="preserve" font-weight="normal">
    <text y="-2" fill="rgb(0,0,0)" x="0 5 8 13 15 18 23 ">grd ref</text>
   </g>
   <polyline fill="none" stroke-width="0.5" stroke-linecap="butt" stroke-linejoin="round" stroke="#d85218" points="994.372,74.1069 1014.36,74.1069"/>
   <g transform="translate(1018.36,78.6069) rotate(-0,-0,-4.5)" font-family="FreeSans" font-style="normal" font-size="9" xml:space="preserve" font-weight="normal">
    <text y="-2" fill="rgb(0,0,0)" x="0 5 10 ">opt</text>
   </g>
   <polyline fill="none" stroke-width="0.5" stroke-linecap="butt" stroke-linejoin="round" stroke="#ecb01f" points="994.372,87.605 1014.36,87.605"/>
   <g transform="translate(1018.36,92.605) rotate(-0,-0,-5)" font-family="FreeSans" font-style="normal" font-size="9" xml:space="preserve" font-weight="normal">
    <text y="-2" fill="rgb(0,0,0)" x="0 3 8 11 16 21 26 ">ref+opt</text>
   </g>
   <polyline fill="none" stroke-width="0.5" stroke-linecap="butt" stroke-linejoin="round" stroke="#7d2e8d" points="994.372,100.801 1014.36,100.801"/>
   <g transform="translate(1018.36,103.801) rotate(-0,-0,-3)" font-family="FreeSans" font-style="normal" font-size="9" xml:space="preserve" font-weight="normal">
    <text y="-0" fill="rgb(0,0,0)" x="0 5 8 ">err</text>
   </g>
   <polyline fill="none" stroke-width="0.5" stroke-linecap="butt" stroke-linejoin="round" stroke="#76ab2f" points="994.372,113.497 1014.36,113.497"/>
   <g transform="translate(1018.36,117.997) rotate(-0,-0,-4.5)" font-family="FreeSans" font-style="normal" font-size="9" xml:space="preserve" font-weight="normal">
    <text y="-2" fill="rgb(0,0,0)" x="0 3 8 11 16 21 ">target</text>
   </g>
  </g>
 </g>
</svg>
