<?xml version='1.0' encoding='UTF-8' standalone='no'?>
<svg height="320pt" viewBox="0 0 374 320" width="374pt" xmlns="http://www.w3.org/2000/svg" xmlns:xlink="http://www.w3.org/1999/xlink">
 <title>Figure 3</title>
 <desc>
Creator: GL2PS 1.4.2, (C) 1999-2020 C. Geuzaine
For: Octave
CreationDate: Thu Mar 12 11:47:46 2026
</desc>
 <defs/>
 <polygon fill="#ffffff" points="0,0 374,0 374,320 0,320"/>
 <g>
  <polygon fill="#ffffff" points="0,320 374,320 374,0 0,0" shape-rendering="crispEdges"/>
  <clipPath id="cp00374320">
   <polygon points="0,320 374,320 374,0 0,0"/>
  </clipPath>
  <g clip-path="url(#cp00374320)">
   <polygon fill="#ffffff" points="48.7287,285.565 339.226,285.565 339.226,24.0644 48.7287,24.0644" shape-rendering="crispEdges"/>
   <polyline fill="none" points="48.7287,285.565 48.7287,24.0644" stroke="#262626" stroke-dasharray="16,0" stroke-linecap="butt" stroke-linejoin="miter" stroke-opacity="0.15" stroke-width="0.5"/>
   <polyline fill="none" points="106.828,285.565 106.828,24.0644" stroke="#262626" stroke-dasharray="16,0" stroke-linecap="butt" stroke-linejoin="miter" stroke-opacity="0.15" stroke-width="0.5"/>
   <polyline fill="none" points="164.928,285.565 164.928,24.0644" stroke="#262626" stroke-dasharray="16,0" stroke-linecap="butt" stroke-linejoin="miter" stroke-opacity="0.15" stroke-width="0.5"/>
   <polyline fill="none" points="223.027,285.565 223.027,24.0644" stroke="#262626" stroke-dasharray="16,0" stroke-linecap="butt" stroke-linejoin="miter" stroke-opacity="0.15" stroke-width="0.5"/>
   <polyline fill="none" points="281.127,285.565 281.127,24.0644" stroke="#262626" stroke-dasharray="16,0" stroke-linecap="butt" stroke-linejoin="miter" stroke-opacity="0.15" stroke-width="0.5"/>
   <polyline fill="none" points="339.226,285.565 339.226,24.0644" stroke="#262626" stroke-dasharray="16,0" stroke-linecap="butt" stroke-linejoin="miter" stroke-opacity="0.15" stroke-width="0.5"/>
   <polyline fill="none" points="48.7287,285.565 48.7287,282.666" stroke="#262626" stroke-linecap="butt" stroke-linejoin="miter" stroke-width="0.5"/>
   <polyline fill="none" points="48.7287,24.0644 48.7287,26.9639" stroke="#262626" stroke-linecap="butt" stroke-linejoin="miter" stroke-width="0.5"/>
   <polyline fill="none" points="106.828,285.565 106.828,282.666" stroke="#262626" stroke-linecap="butt" stroke-linejoin="miter" stroke-width="0.5"/>
   <polyline fill="none" points="106.828,24.0644 106.828,26.9639" stroke="#262626" stroke-linecap="butt" stroke-linejoin="miter" stroke-width="0.5"/>
   <polyline fill="none" points="164.928,285.565 164.928,282.666" stroke="#262626" stroke-linecap="butt" stroke-linejoin="miter" stroke-width="0.5"/>
   <polyline fill="none" points="164.928,24.0644 164.928,26.9639" stroke="#262626" stroke-linecap="butt" stroke-linejoin="miter" stroke-width="0.5"/>
   <polyline fill="none" points="223.027,285.565 223.027,282.666" stroke="#262626" stroke-linecap="butt" stroke-linejoin="miter" stroke-width="0.5"/>
   <polyline fill="none" points="223.027,24.0644 223.027,26.9639" stroke="#262626" stroke-linecap="butt" stroke-linejoin="miter" stroke-width="0.5"/>
   <polyline fill="none" points="281.127,285.565 281.127,282.666" stroke="#262626" stroke-linecap="butt" stroke-linejoin="miter" stroke-width="0.5"/>
   <polyline fill="none" points="281.127,24.0644 281.127,26.9639" stroke="#262626" stroke-linecap="butt" stroke-linejoin="miter" stroke-width="0.5"/>
   <polyline fill="none" points="339.226,285.565 339.226,282.666" stroke="#262626" stroke-linecap="butt" stroke-linejoin="miter" stroke-width="0.5"/>
   <polyline fill="none" points="339.226,24.0644 339.226,26.9639" stroke="#262626" stroke-linecap="butt" stroke-linejoin="miter" stroke-width="0.5"/>
   <g font-family="FreeSans" font-size="10" font-style="normal" font-weight="normal" transform="translate(45.7287,301.051) rotate(-0,3,-8)" xml:space="preserve">
    <text fill="rgb(38,38,38)" x="0 " y="-0">0</text>
   </g>
   <g font-family="FreeSans" font-size="10" font-style="normal" font-weight="normal" transform="translate(99.3282,301.051) rotate(-0,7.5,-8)" xml:space="preserve">
    <text fill="rgb(38,38,38)" x="0 6 9 " y="-0">0.2</text>
   </g>
   <g font-family="FreeSans" font-size="10" font-style="normal" font-weight="normal" transform="translate(157.428,301.051) rotate(-0,7.5,-8)" xml:space="preserve">
    <text fill="rgb(38,38,38)" x="0 6 9 " y="-0">0.4</text>
   </g>
   <g font-family="FreeSans" font-size="10" font-style="normal" font-weight="normal" transform="translate(215.527,301.051) rotate(-0,7.5,-8)" xml:space="preserve">
    <text fill="rgb(38,38,38)" x="0 6 9 " y="-0">0.6</text>
   </g>
   <g font-family="FreeSans" font-size="10" font-style="normal" font-weight="normal" transform="translate(273.627,301.051) rotate(-0,7.5,-8)" xml:space="preserve">
    <text fill="rgb(38,38,38)" x="0 6 9 " y="-0">0.8</text>
   </g>
   <g font-family="FreeSans" font-size="10" font-style="normal" font-weight="normal" transform="translate(336.226,301.051) rotate(-0,3,-8)" xml:space="preserve">
    <text fill="rgb(38,38,38)" x="0 " y="-0">1</text>
   </g>
   <polyline fill="none" points="48.7287,285.565 339.226,285.565" stroke="#262626" stroke-dasharray="16,0" stroke-linecap="butt" stroke-linejoin="miter" stroke-opacity="0.15" stroke-width="0.5"/>
   <polyline fill="none" points="48.7287,248.208 339.226,248.208" stroke="#262626" stroke-dasharray="16,0" stroke-linecap="butt" stroke-linejoin="miter" stroke-opacity="0.15" stroke-width="0.5"/>
   <polyline fill="none" points="48.7287,210.851 339.226,210.851" stroke="#262626" stroke-dasharray="16,0" stroke-linecap="butt" stroke-linejoin="miter" stroke-opacity="0.15" stroke-width="0.5"/>
   <polyline fill="none" points="48.7287,173.493 339.226,173.493" stroke="#262626" stroke-dasharray="16,0" stroke-linecap="butt" stroke-linejoin="miter" stroke-opacity="0.15" stroke-width="0.5"/>
   <polyline fill="none" points="48.7287,136.136 339.226,136.136" stroke="#262626" stroke-dasharray="16,0" stroke-linecap="butt" stroke-linejoin="miter" stroke-opacity="0.15" stroke-width="0.5"/>
   <polyline fill="none" points="48.7287,98.7789 339.226,98.7789" stroke="#262626" stroke-dasharray="16,0" stroke-linecap="butt" stroke-linejoin="miter" stroke-opacity="0.15" stroke-width="0.5"/>
   <polyline fill="none" points="48.7287,61.4217 339.226,61.4217" stroke="#262626" stroke-dasharray="16,0" stroke-linecap="butt" stroke-linejoin="miter" stroke-opacity="0.15" stroke-width="0.5"/>
   <polyline fill="none" points="48.7287,24.0644 339.226,24.0644" stroke="#262626" stroke-dasharray="16,0" stroke-linecap="butt" stroke-linejoin="miter" stroke-opacity="0.15" stroke-width="0.5"/>
   <polyline fill="none" points="48.7287,285.565 51.6386,285.565" stroke="#262626" stroke-linecap="butt" stroke-linejoin="miter" stroke-width="0.5"/>
   <polyline fill="none" points="339.226,285.565 336.316,285.565" stroke="#262626" stroke-linecap="butt" stroke-linejoin="miter" stroke-width="0.5"/>
   <polyline fill="none" points="48.7287,248.208 51.6386,248.208" stroke="#262626" stroke-linecap="butt" stroke-linejoin="miter" stroke-width="0.5"/>
   <polyline fill="none" points="339.226,248.208 336.316,248.208" stroke="#262626" stroke-linecap="butt" stroke-linejoin="miter" stroke-width="0.5"/>
   <polyline fill="none" points="48.7287,210.851 51.6386,210.851" stroke="#262626" stroke-linecap="butt" stroke-linejoin="miter" stroke-width="0.5"/>
   <polyline fill="none" points="339.226,210.851 336.316,210.851" stroke="#262626" stroke-linecap="butt" stroke-linejoin="miter" stroke-width="0.5"/>
   <polyline fill="none" points="48.7287,173.493 51.6386,173.493" stroke="#262626" stroke-linecap="butt" stroke-linejoin="miter" stroke-width="0.5"/>
   <polyline fill="none" points="339.226,173.493 336.316,173.493" stroke="#262626" stroke-linecap="butt" stroke-linejoin="miter" stroke-width="0.5"/>
   <polyline fill="none" points="48.7287,136.136 51.6386,136.136" stroke="#262626" stroke-linecap="butt" stroke-linejoin="miter" stroke-width="0.5"/>
   <polyline fill="none" points="339.226,136.136 336.316,136.136" stroke="#262626" stroke-linecap="butt" stroke-linejoin="miter" stroke-width="0.5"/>
   <polyline fill="none" points="48.7287,98.7789 51.6386,98.7789" stroke="#262626" stroke-linecap="butt" stroke-linejoin="miter" stroke-width="0.5"/>
   <polyline fill="none" points="339.226,98.7789 336.316,98.7789" stroke="#262626" stroke-linecap="butt" stroke-linejoin="miter" stroke-width="0.5"/>
   <polyline fill="none" points="48.7287,61.4217 51.6386,61.4217" stroke="#262626" stroke-linecap="butt" stroke-linejoin="miter" stroke-width="0.5"/>
   <polyline fill="none" points="339.226,61.4217 336.316,61.4217" stroke="#262626" stroke-linecap="butt" stroke-linejoin="miter" stroke-width="0.5"/>
   <polyline fill="none" points="48.7287,24.0644 51.6386,24.0644" stroke="#262626" stroke-linecap="butt" stroke-linejoin="miter" stroke-width="0.5"/>
   <polyline fill="none" points="339.226,24.0644 336.316,24.0644" stroke="#262626" stroke-linecap="butt" stroke-linejoin="miter" stroke-width="0.5"/>
   <g font-family="FreeSans" font-size="10" font-style="normal" font-weight="normal" transform="translate(34.7201,289.565) rotate(-0,9,-4)" xml:space="preserve">
    <text fill="rgb(38,38,38)" x="0 3 " y="-0">-2</text>
   </g>
   <g font-family="FreeSans" font-size="10" font-style="normal" font-weight="normal" transform="translate(37.7201,252.208) rotate(-0,6,-4)" xml:space="preserve">
    <text fill="rgb(38,38,38)" x="0 " y="-0">0</text>
   </g>
   <g font-family="FreeSans" font-size="10" font-style="normal" font-weight="normal" transform="translate(37.7201,214.851) rotate(-0,6,-4)" xml:space="preserve">
    <text fill="rgb(38,38,38)" x="0 " y="-0">2</text>
   </g>
   <g font-family="FreeSans" font-size="10" font-style="normal" font-weight="normal" transform="translate(37.7201,177.493) rotate(-0,6,-4)" xml:space="preserve">
    <text fill="rgb(38,38,38)" x="0 " y="-0">4</text>
   </g>
   <g font-family="FreeSans" font-size="10" font-style="normal" font-weight="normal" transform="translate(37.7201,140.136) rotate(-0,6,-4)" xml:space="preserve">
    <text fill="rgb(38,38,38)" x="0 " y="-0">6</text>
   </g>
   <g font-family="FreeSans" font-size="10" font-style="normal" font-weight="normal" transform="translate(37.7201,102.779) rotate(-0,6,-4)" xml:space="preserve">
    <text fill="rgb(38,38,38)" x="0 " y="-0">8</text>
   </g>
   <g font-family="FreeSans" font-size="10" font-style="normal" font-weight="normal" transform="translate(31.7201,65.4217) rotate(-0,12,-4)" xml:space="preserve">
    <text fill="rgb(38,38,38)" x="0 6 " y="-0">10</text>
   </g>
   <g font-family="FreeSans" font-size="10" font-style="normal" font-weight="normal" transform="translate(31.7201,28.0645) rotate(-0,12,-4)" xml:space="preserve">
    <text fill="rgb(38,38,38)" x="0 6 " y="-0">12</text>
   </g>
   <polyline fill="none" points="48.7287,285.565 339.226,285.565" stroke="#262626" stroke-dasharray="16,0" stroke-linecap="square" stroke-linejoin="miter" stroke-width="0.5"/>
   <polyline fill="none" points="48.7287,24.0644 339.226,24.0644" stroke="#262626" stroke-dasharray="16,0" stroke-linecap="square" stroke-linejoin="miter" stroke-width="0.5"/>
   <polyline fill="none" points="48.7287,285.565 48.7287,24.0644" stroke="#262626" stroke-dasharray="16,0" stroke-linecap="square" stroke-linejoin="miter" stroke-width="0.5"/>
   <polyline fill="none" points="339.226,285.565 339.226,24.0644" stroke="#262626" stroke-dasharray="16,0" stroke-linecap="square" stroke-linejoin="miter" stroke-width="0.5"/>
   <g font-family="FreeSans" font-size="11" font-style="normal" font-weight="normal" transform="translate(101.978,318.051) rotate(-0,92,-12)" xml:space="preserve">
    <text fill="rgb(38,38,38)" x="0 8 14 18 27 33 35 37 42 48 54 57 64 68 74 80 86 92 98 104 109 112 116 122 124 127 131 137 143 146 151 157 166 172 174 180 " y="-3">Normalized Frequency (pi rad/sample)</text>
   </g>
   <g font-family="FreeSans" font-size="11" font-style="normal" font-weight="normal" transform="translate(-3.27992,154.815) rotate(-90,30,0)" xml:space="preserve">
    <text fill="rgb(38,38,38)" x="0 8 12 18 24 30 33 41 47 49 55 " y="-3">Group Delay</text>
   </g>
   <g font-family="FreeSans" font-size="11" font-style="normal" font-weight="bold" transform="translate(92.4776,14.0645) rotate(-0,101.5,0)" xml:space="preserve">
    <text fill="rgb(0,0,0)" x="0 7 13 19 25 28 36 39 47 50 57 60 63 69 76 83 86 93 97 104 110 114 117 123 126 129 133 140 146 152 158 161 165 168 171 175 181 185 191 194 197 " y="-3">Peak &amp; Dip, 2nd order all-pass filters: 5</text>
   </g>
   <polyline fill="none" points="48.7287,262.741 51.663,262.697 54.5973,262.588 57.5316,262.404 60.466,262.131 63.4003,261.747 66.3346,261.227 69.2689,260.538 72.2032,259.638 75.1376,258.484 78.0719,257.027 81.0062,255.213 83.9405,252.995 86.8748,250.329 89.8092,247.191 92.7435,243.586 95.6778,239.556 98.6121,235.196 101.546,230.66 104.481,226.159 107.415,221.947 110.349,218.303 113.284,215.475 116.218,213.649 119.152,212.915 122.087,213.251 125.021,214.538 127.955,216.59 130.89,219.185 133.824,222.108 136.758,225.178 139.693,228.254 142.627,231.244 145.561,234.095 148.496,236.789 151.43,239.333 154.364,241.754 157.299,244.089 160.233,246.38 163.167,248.67 166.102,251 169.036,253.398 171.97,255.882 174.904,258.444 177.839,261.053 180.773,263.644 183.707,266.12 186.642,268.359 189.576,270.22 192.51,271.573 195.445,272.31 198.379,272.378 201.313,271.782 204.248,270.588 207.182,268.913 210.116,266.906 213.051,264.715 215.985,262.477 218.919,260.302 221.854,258.267 224.788,256.423 227.722,254.794 230.657,253.384 233.591,252.185 236.525,251.179 239.46,250.347 242.394,249.667 245.328,249.117 248.263,248.677 251.197,248.329 254.131,248.057 257.065,247.847 260,247.688 262.934,247.571 265.868,247.486 268.803,247.429 271.737,247.392 274.671,247.371 277.606,247.364 280.54,247.366 283.474,247.376 286.409,247.391 289.343,247.41 292.277,247.432 295.212,247.455 298.146,247.479 301.08,247.503 304.015,247.527 306.949,247.55 309.883,247.571 312.818,247.592 315.752,247.61 318.686,247.627 321.621,247.641 324.555,247.654 327.489,247.664 330.424,247.673 333.358,247.679 336.292,247.683 339.226,247.684" stroke="#0071bc" stroke-linecap="butt" stroke-linejoin="round" stroke-width="0.5"/>
   <polyline fill="none" points="48.7287,50.4529 51.663,50.2376 54.5973,49.6257 57.5316,48.717 60.466,47.6701 63.4003,46.6891 66.3346,46.002 69.2689,45.833 72.2032,46.3694 75.1376,47.732 78.0719,49.9551 81.0062,52.9822 83.9405,56.6786 86.8748,60.8555 89.8092,65.3001 92.7435,69.8026 95.6778,74.1762 98.6121,78.2677 101.546,81.9611 104.481,85.1756 107.415,87.8602 110.349,89.988 113.284,91.5504 116.218,92.552 119.152,93.0077 122.087,92.939 125.021,92.3737 127.955,91.344 130.89,89.8868 133.824,88.0439 136.758,85.8612 139.693,83.3896 142.627,80.6835 145.561,77.8006 148.496,74.7994 151.43,71.7374 154.364,68.668 157.299,65.6378 160.233,62.6843 163.167,59.8342 166.102,57.1036 169.036,54.4998 171.97,52.0244 174.904,49.6783 177.839,47.4666 180.773,45.404 183.707,43.5179 186.642,41.8497 189.576,40.4531 192.51,39.3888 195.445,38.7163 198.379,38.4849 201.313,38.7237 204.248,39.4347 207.182,40.5895 210.116,42.1305 213.051,43.976 215.985,46.0297 218.919,48.1892 221.854,50.3562 224.788,52.4431 227.722,54.3786 230.657,56.1098 233.591,57.6031 236.525,58.8429 239.46,59.83 242.394,60.5786 245.328,61.1135 248.263,61.4669 251.197,61.6752 254.131,61.7765 257.065,61.807 260,61.7993 262.934,61.7805 265.868,61.7702 268.803,61.7811 271.737,61.8183 274.671,61.8808 277.606,61.9625 280.54,62.0541 283.474,62.145 286.409,62.2249 289.343,62.2854 292.277,62.3206 295.212,62.3282 298.146,62.309 301.08,62.2669 304.015,62.208 306.949,62.1398 309.883,62.0698 312.818,62.0048 315.752,61.9502 318.686,61.9091 321.621,61.8827 324.555,61.8696 327.489,61.8671 330.424,61.8712 333.358,61.8779 336.292,61.8836 339.226,61.8857" stroke="#d85218" stroke-linecap="butt" stroke-linejoin="round" stroke-width="0.5"/>
   <polyline fill="none" points="48.7287,64.9856 51.663,64.727 54.5973,64.0059 57.5316,62.9132 60.466,61.593 63.4003,60.2286 66.3346,59.0218 69.2689,58.163 72.2032,57.7999 75.1376,58.0087 78.0719,58.774 81.0062,59.9876 83.9405,61.4654 86.8748,62.9772 89.8092,64.2838 92.7435,65.1804 95.6778,65.524 98.6121,65.2561 101.546,64.4135 104.481,63.1264 107.415,61.5999 110.349,60.0836 113.284,58.8179 116.218,57.9937 119.152,57.7148 122.087,57.9822 125.021,58.704 127.955,59.726 130.89,60.8639 133.824,61.9445 136.758,62.8315 139.693,63.4362 142.627,63.7199 145.561,63.688 148.496,63.3803 151.43,62.8628 154.364,62.2145 157.299,61.5191 160.233,60.8564 163.167,60.2966 166.102,59.8954 169.036,59.6905 171.97,59.6986 174.904,59.9149 177.839,60.3117 180.773,60.8398 183.707,61.4306 186.642,62.0007 189.576,62.4657 192.51,62.7536 195.445,62.819 198.379,62.6553 201.313,62.2974 204.248,61.8148 207.182,61.295 210.116,60.8283 213.051,60.4833 215.985,60.299 218.919,60.283 221.854,60.4154 224.788,60.6587 227.722,60.9652 230.657,61.2863 233.591,61.5799 236.525,61.8142 239.46,61.9694 242.394,62.0376 245.328,62.0228 248.263,61.9362 251.197,61.7964 254.131,61.6255 257.065,61.4463 260,61.2798 262.934,61.1434 265.868,61.0489 268.803,61.0019 271.737,61.0023 274.671,61.0444 277.606,61.1185 280.54,61.2125 283.474,61.3132 286.409,61.4084 289.343,61.488 292.277,61.5449 295.212,61.5757 298.146,61.5805 301.08,61.5626 304.015,61.5274 306.949,61.4819 309.883,61.4335 312.818,61.3886 315.752,61.3524 318.686,61.328 321.621,61.3162 324.555,61.3157 327.489,61.3236 330.424,61.3361 333.358,61.3489 336.292,61.3584 339.226,61.3621" stroke="#ecb01f" stroke-linecap="butt" stroke-linejoin="round" stroke-width="0.5"/>
   <polyline fill="none" points="48.7287,247.515 51.663,247.61 54.5973,247.839 57.5316,248.082 60.466,248.205 63.4003,248.133 66.3346,247.893 69.2689,247.613 72.2032,247.455 75.1376,247.524 78.0719,247.787 81.0062,248.083 83.9405,248.207 86.8748,248.035 89.8092,247.611 92.7435,247.139 95.6778,246.878 98.6121,246.991 101.546,247.43 104.481,247.94 107.415,248.204 110.349,248.046 113.284,247.564 116.218,247.065 119.152,246.859 122.087,247.05 125.021,247.495 127.955,247.939 130.89,248.182 133.824,248.179 136.758,248.023 139.693,247.849 142.627,247.761 145.561,247.792 148.496,247.909 151.43,248.051 154.364,248.161 157.299,248.207 160.233,248.19 163.167,248.136 166.102,248.08 169.036,248.049 171.97,248.058 174.904,248.098 177.839,248.152 180.773,248.194 183.707,248.208 186.642,248.191 189.576,248.159 192.51,248.131 195.445,248.125 198.379,248.143 201.313,248.175 204.248,248.201 207.182,248.207 210.116,248.195 213.051,248.174 215.985,248.158 218.919,248.156 221.854,248.167 224.788,248.185 227.722,248.2 230.657,248.207 233.591,248.206 236.525,248.199 239.46,248.192 242.394,248.188 245.328,248.188 248.263,248.193 251.197,248.2 254.131,248.205 257.065,248.208 260,248.207 262.934,248.205 265.868,248.202 268.803,248.2 271.737,248.2 274.671,248.202 277.606,248.204 280.54,248.206 283.474,248.207 286.409,248.208 289.343,248.207 292.277,248.206 295.212,248.206 298.146,248.206 301.08,248.206 304.015,248.207 306.949,248.207 309.883,248.208 312.818,248.208 315.752,248.208 318.686,248.208 321.621,248.207 324.555,248.207 327.489,248.208 330.424,248.208 333.358,248.208 336.292,248.208 339.226,248.208" stroke="#7d2e8d" stroke-linecap="butt" stroke-linejoin="round" stroke-width="0.5"/>
   <polyline fill="none" points="48.7287,61.3882 51.663,61.3882 54.5973,61.3882 57.5316,61.3882 60.466,61.3882 63.4003,61.3882 66.3346,61.3882 69.2689,61.3882 72.2032,61.3882 75.1376,61.3882 78.0719,61.3882 81.0062,61.3882 83.9405,61.3882 86.8748,61.3882 89.8092,61.3882 92.7435,61.3882 95.6778,61.3882 98.6121,61.3882 101.546,61.3882 104.481,61.3882 107.415,61.3882 110.349,61.3882 113.284,61.3882 116.218,61.3882 119.152,61.3882 122.087,61.3882 125.021,61.3882 127.955,61.3882 130.89,61.3882 133.824,61.3882 136.758,61.3882 139.693,61.3882 142.627,61.3882 145.561,61.3882 148.496,61.3882 151.43,61.3882 154.364,61.3882 157.299,61.3882 160.233,61.3882 163.167,61.3882 166.102,61.3882 169.036,61.3882 171.97,61.3882 174.904,61.3882 177.839,61.3882 180.773,61.3882 183.707,61.3882 186.642,61.3882 189.576,61.3882 192.51,61.3882 195.445,61.3882 198.379,61.3882 201.313,61.3882 204.248,61.3882 207.182,61.3882 210.116,61.3882 213.051,61.3882 215.985,61.3882 218.919,61.3882 221.854,61.3882 224.788,61.3882 227.722,61.3882 230.657,61.3882 233.591,61.3882 236.525,61.3882 239.46,61.3882 242.394,61.3882 245.328,61.3882 248.263,61.3882 251.197,61.3882 254.131,61.3882 257.065,61.3882 260,61.3882 262.934,61.3882 265.868,61.3882 268.803,61.3882 271.737,61.3882 274.671,61.3882 277.606,61.3882 280.54,61.3882 283.474,61.3882 286.409,61.3882 289.343,61.3882 292.277,61.3882 295.212,61.3882 298.146,61.3882 301.08,61.3882 304.015,61.3882 306.949,61.3882 309.883,61.3882 312.818,61.3882 315.752,61.3882 318.686,61.3882 321.621,61.3882 324.555,61.3882 327.489,61.3882 330.424,61.3882 333.358,61.3882 336.292,61.3882 339.226,61.3882" stroke="#76ab2f" stroke-linecap="butt" stroke-linejoin="round" stroke-width="0.5"/>
   <polyline fill="none" points="48.7287,229.529 51.663,229.505 54.5973,229.431 57.5316,229.308 60.466,229.131 63.4003,228.898 66.3346,228.605 69.2689,228.246 72.2032,227.816 75.1376,227.308 78.0719,226.714 81.0062,226.028 83.9405,225.243 86.8748,224.354 89.8092,223.361 92.7435,222.267 95.6778,221.084 98.6121,219.834 101.546,218.551 104.481,217.284 107.415,216.091 110.349,215.039 113.284,214.196 116.218,213.616 119.152,213.338 122.087,213.374 125.021,213.71 127.955,214.311 130.89,215.129 133.824,216.111 136.758,217.205 139.693,218.366 142.627,219.556 145.561,220.749 148.496,221.926 151.43,223.072 154.364,224.18 157.299,225.246 160.233,226.267 163.167,227.242 166.102,228.17 169.036,229.048 171.97,229.875 174.904,230.647 177.839,231.36 180.773,232.007 183.707,232.584 186.642,233.084 189.576,233.501 192.51,233.833 195.445,234.076 198.379,234.233 201.313,234.306 204.248,234.303 207.182,234.232 210.116,234.102 213.051,233.926 215.985,233.714 218.919,233.477 221.854,233.225 224.788,232.965 227.722,232.705 230.657,232.45 233.591,232.203 236.525,231.968 239.46,231.746 242.394,231.538 245.328,231.345 248.263,231.167 251.197,231.003 254.131,230.853 257.065,230.715 260,230.59 262.934,230.476 265.868,230.373 268.803,230.279 271.737,230.194 274.671,230.118 277.606,230.048 280.54,229.985 283.474,229.929 286.409,229.878 289.343,229.832 292.277,229.79 295.212,229.753 298.146,229.72 301.08,229.69 304.015,229.664 306.949,229.64 309.883,229.619 312.818,229.601 315.752,229.585 318.686,229.572 321.621,229.56 324.555,229.55 327.489,229.543 330.424,229.537 333.358,229.533 336.292,229.53 339.226,229.529" stroke="#4cbded" stroke-linecap="butt" stroke-linejoin="round" stroke-width="0.5"/>
  </g>
  <clipPath id="cp00374320">
   <polygon points="0,320 374,320 374,0 0,0"/>
  </clipPath>
  <g clip-path="url(#cp00374320)">
   <polygon fill="#ffffff" points="245.209,277.561 331.223,277.561 331.223,193.146 245.209,193.146" shape-rendering="crispEdges"/>
   <polyline fill="none" points="245.209,277.561 331.223,277.561" stroke="#262626" stroke-dasharray="16,0" stroke-linecap="square" stroke-linejoin="miter" stroke-width="0.5"/>
   <polyline fill="none" points="245.209,193.146 331.223,193.146" stroke="#262626" stroke-dasharray="16,0" stroke-linecap="square" stroke-linejoin="miter" stroke-width="0.5"/>
   <polyline fill="none" points="245.209,277.561 245.209,193.146" stroke="#262626" stroke-dasharray="16,0" stroke-linecap="square" stroke-linejoin="miter" stroke-width="0.5"/>
   <polyline fill="none" points="331.223,277.561 331.223,193.146" stroke="#262626" stroke-dasharray="16,0" stroke-linecap="square" stroke-linejoin="miter" stroke-width="0.5"/>
   <polyline fill="none" points="249.211,202.147 269.219,202.147" stroke="#0071bc" stroke-linecap="butt" stroke-linejoin="round" stroke-width="0.5"/>
   <g font-family="FreeSans" font-size="9" font-style="normal" font-weight="normal" transform="translate(273.221,207.147) rotate(-0,-0,-5)" xml:space="preserve">
    <text fill="rgb(0,0,0)" x="0 5 8 13 15 18 23 " y="-2">grd ref</text>
   </g>
   <polyline fill="none" points="249.211,215.649 269.219,215.649" stroke="#d85218" stroke-linecap="butt" stroke-linejoin="round" stroke-width="0.5"/>
   <g font-family="FreeSans" font-size="9" font-style="normal" font-weight="normal" transform="translate(273.221,220.149) rotate(-0,-0,-4.5)" xml:space="preserve">
    <text fill="rgb(0,0,0)" x="0 5 10 " y="-2">opt</text>
   </g>
   <polyline fill="none" points="249.211,229.151 269.219,229.151" stroke="#ecb01f" stroke-linecap="butt" stroke-linejoin="round" stroke-width="0.5"/>
   <g font-family="FreeSans" font-size="9" font-style="normal" font-weight="normal" transform="translate(273.221,234.151) rotate(-0,-0,-5)" xml:space="preserve">
    <text fill="rgb(0,0,0)" x="0 3 8 11 16 21 26 " y="-2">ref+opt</text>
   </g>
   <polyline fill="none" points="249.211,242.354 269.219,242.354" stroke="#7d2e8d" stroke-linecap="butt" stroke-linejoin="round" stroke-width="0.5"/>
   <g font-family="FreeSans" font-size="9" font-style="normal" font-weight="normal" transform="translate(273.221,245.354) rotate(-0,-0,-3)" xml:space="preserve">
    <text fill="rgb(0,0,0)" x="0 5 8 " y="-0">err</text>
   </g>
   <polyline fill="none" points="249.211,255.058 269.219,255.058" stroke="#76ab2f" stroke-linecap="butt" stroke-linejoin="round" stroke-width="0.5"/>
   <g font-family="FreeSans" font-size="9" font-style="normal" font-weight="normal" transform="translate(273.221,259.558) rotate(-0,-0,-4.5)" xml:space="preserve">
    <text fill="rgb(0,0,0)" x="0 3 8 11 16 21 " y="-2">target</text>
   </g>
   <polyline fill="none" points="249.211,268.56 269.219,268.56" stroke="#4cbded" stroke-linecap="butt" stroke-linejoin="round" stroke-width="0.5"/>
   <g font-family="FreeSans" font-size="9" font-style="normal" font-weight="normal" transform="translate(273.221,273.56) rotate(-0,-0,-5)" xml:space="preserve">
    <text fill="rgb(0,0,0)" x="0 5 8 11 13 20 25 27 32 37 40 44 46 48 50 52 " y="-2">err weights     </text>
   </g>
  </g>
 </g>
</svg>
