<?xml version='1.0' encoding='UTF-8' standalone='no'?>
<svg height="320pt" viewBox="0 0 374 320" width="374pt" xmlns="http://www.w3.org/2000/svg" xmlns:xlink="http://www.w3.org/1999/xlink">
 <title>Figure 3</title>
 <desc>
Creator: GL2PS 1.4.2, (C) 1999-2020 C. Geuzaine
For: Octave
CreationDate: Thu Mar 12 12:00:05 2026
</desc>
 <defs/>
 <polygon fill="#ffffff" points="0,0 374,0 374,320 0,320"/>
 <g>
  <polygon fill="#ffffff" points="0,320 374,320 374,0 0,0" shape-rendering="crispEdges"/>
  <clipPath id="cp00374320">
   <polygon points="0,320 374,320 374,0 0,0"/>
  </clipPath>
  <g clip-path="url(#cp00374320)">
   <polygon fill="#ffffff" points="48.7287,285.565 339.226,285.565 339.226,24.0645 48.7287,24.0645" shape-rendering="crispEdges"/>
   <polyline fill="none" points="48.7287,285.565 48.7287,24.0645" stroke="#262626" stroke-dasharray="16,0" stroke-linecap="butt" stroke-linejoin="miter" stroke-opacity="0.15" stroke-width="0.5"/>
   <polyline fill="none" points="106.828,285.565 106.828,24.0645" stroke="#262626" stroke-dasharray="16,0" stroke-linecap="butt" stroke-linejoin="miter" stroke-opacity="0.15" stroke-width="0.5"/>
   <polyline fill="none" points="164.928,285.565 164.928,24.0645" stroke="#262626" stroke-dasharray="16,0" stroke-linecap="butt" stroke-linejoin="miter" stroke-opacity="0.15" stroke-width="0.5"/>
   <polyline fill="none" points="223.027,285.565 223.027,24.0645" stroke="#262626" stroke-dasharray="16,0" stroke-linecap="butt" stroke-linejoin="miter" stroke-opacity="0.15" stroke-width="0.5"/>
   <polyline fill="none" points="281.127,285.565 281.127,24.0645" stroke="#262626" stroke-dasharray="16,0" stroke-linecap="butt" stroke-linejoin="miter" stroke-opacity="0.15" stroke-width="0.5"/>
   <polyline fill="none" points="339.226,285.565 339.226,24.0645" stroke="#262626" stroke-dasharray="16,0" stroke-linecap="butt" stroke-linejoin="miter" stroke-opacity="0.15" stroke-width="0.5"/>
   <polyline fill="none" points="48.7287,285.565 48.7287,282.666" stroke="#262626" stroke-linecap="butt" stroke-linejoin="miter" stroke-width="0.5"/>
   <polyline fill="none" points="48.7287,24.0645 48.7287,26.9639" stroke="#262626" stroke-linecap="butt" stroke-linejoin="miter" stroke-width="0.5"/>
   <polyline fill="none" points="106.828,285.565 106.828,282.666" stroke="#262626" stroke-linecap="butt" stroke-linejoin="miter" stroke-width="0.5"/>
   <polyline fill="none" points="106.828,24.0645 106.828,26.9639" stroke="#262626" stroke-linecap="butt" stroke-linejoin="miter" stroke-width="0.5"/>
   <polyline fill="none" points="164.928,285.565 164.928,282.666" stroke="#262626" stroke-linecap="butt" stroke-linejoin="miter" stroke-width="0.5"/>
   <polyline fill="none" points="164.928,24.0645 164.928,26.9639" stroke="#262626" stroke-linecap="butt" stroke-linejoin="miter" stroke-width="0.5"/>
   <polyline fill="none" points="223.027,285.565 223.027,282.666" stroke="#262626" stroke-linecap="butt" stroke-linejoin="miter" stroke-width="0.5"/>
   <polyline fill="none" points="223.027,24.0645 223.027,26.9639" stroke="#262626" stroke-linecap="butt" stroke-linejoin="miter" stroke-width="0.5"/>
   <polyline fill="none" points="281.127,285.565 281.127,282.666" stroke="#262626" stroke-linecap="butt" stroke-linejoin="miter" stroke-width="0.5"/>
   <polyline fill="none" points="281.127,24.0645 281.127,26.9639" stroke="#262626" stroke-linecap="butt" stroke-linejoin="miter" stroke-width="0.5"/>
   <polyline fill="none" points="339.226,285.565 339.226,282.666" stroke="#262626" stroke-linecap="butt" stroke-linejoin="miter" stroke-width="0.5"/>
   <polyline fill="none" points="339.226,24.0645 339.226,26.9639" stroke="#262626" stroke-linecap="butt" stroke-linejoin="miter" stroke-width="0.5"/>
   <g font-family="FreeSans" font-size="10" font-style="normal" font-weight="normal" transform="translate(45.7287,301.051) rotate(-0,3,-8)" xml:space="preserve">
    <text fill="rgb(38,38,38)" x="0 " y="-0">0</text>
   </g>
   <g font-family="FreeSans" font-size="10" font-style="normal" font-weight="normal" transform="translate(99.3282,301.051) rotate(-0,7.5,-8)" xml:space="preserve">
    <text fill="rgb(38,38,38)" x="0 6 9 " y="-0">0.2</text>
   </g>
   <g font-family="FreeSans" font-size="10" font-style="normal" font-weight="normal" transform="translate(157.428,301.051) rotate(-0,7.5,-8)" xml:space="preserve">
    <text fill="rgb(38,38,38)" x="0 6 9 " y="-0">0.4</text>
   </g>
   <g font-family="FreeSans" font-size="10" font-style="normal" font-weight="normal" transform="translate(215.527,301.051) rotate(-0,7.5,-8)" xml:space="preserve">
    <text fill="rgb(38,38,38)" x="0 6 9 " y="-0">0.6</text>
   </g>
   <g font-family="FreeSans" font-size="10" font-style="normal" font-weight="normal" transform="translate(273.627,301.051) rotate(-0,7.5,-8)" xml:space="preserve">
    <text fill="rgb(38,38,38)" x="0 6 9 " y="-0">0.8</text>
   </g>
   <g font-family="FreeSans" font-size="10" font-style="normal" font-weight="normal" transform="translate(336.226,301.051) rotate(-0,3,-8)" xml:space="preserve">
    <text fill="rgb(38,38,38)" x="0 " y="-0">1</text>
   </g>
   <polyline fill="none" points="48.7287,285.565 339.226,285.565" stroke="#262626" stroke-dasharray="16,0" stroke-linecap="butt" stroke-linejoin="miter" stroke-opacity="0.15" stroke-width="0.5"/>
   <polyline fill="none" points="48.7287,220.19 339.226,220.19" stroke="#262626" stroke-dasharray="16,0" stroke-linecap="butt" stroke-linejoin="miter" stroke-opacity="0.15" stroke-width="0.5"/>
   <polyline fill="none" points="48.7287,154.815 339.226,154.815" stroke="#262626" stroke-dasharray="16,0" stroke-linecap="butt" stroke-linejoin="miter" stroke-opacity="0.15" stroke-width="0.5"/>
   <polyline fill="none" points="48.7287,89.4396 339.226,89.4396" stroke="#262626" stroke-dasharray="16,0" stroke-linecap="butt" stroke-linejoin="miter" stroke-opacity="0.15" stroke-width="0.5"/>
   <polyline fill="none" points="48.7287,24.0645 339.226,24.0645" stroke="#262626" stroke-dasharray="16,0" stroke-linecap="butt" stroke-linejoin="miter" stroke-opacity="0.15" stroke-width="0.5"/>
   <polyline fill="none" points="48.7287,285.565 51.6386,285.565" stroke="#262626" stroke-linecap="butt" stroke-linejoin="miter" stroke-width="0.5"/>
   <polyline fill="none" points="339.226,285.565 336.316,285.565" stroke="#262626" stroke-linecap="butt" stroke-linejoin="miter" stroke-width="0.5"/>
   <polyline fill="none" points="48.7287,220.19 51.6386,220.19" stroke="#262626" stroke-linecap="butt" stroke-linejoin="miter" stroke-width="0.5"/>
   <polyline fill="none" points="339.226,220.19 336.316,220.19" stroke="#262626" stroke-linecap="butt" stroke-linejoin="miter" stroke-width="0.5"/>
   <polyline fill="none" points="48.7287,154.815 51.6386,154.815" stroke="#262626" stroke-linecap="butt" stroke-linejoin="miter" stroke-width="0.5"/>
   <polyline fill="none" points="339.226,154.815 336.316,154.815" stroke="#262626" stroke-linecap="butt" stroke-linejoin="miter" stroke-width="0.5"/>
   <polyline fill="none" points="48.7287,89.4396 51.6386,89.4396" stroke="#262626" stroke-linecap="butt" stroke-linejoin="miter" stroke-width="0.5"/>
   <polyline fill="none" points="339.226,89.4396 336.316,89.4396" stroke="#262626" stroke-linecap="butt" stroke-linejoin="miter" stroke-width="0.5"/>
   <polyline fill="none" points="48.7287,24.0645 51.6386,24.0645" stroke="#262626" stroke-linecap="butt" stroke-linejoin="miter" stroke-width="0.5"/>
   <polyline fill="none" points="339.226,24.0645 336.316,24.0645" stroke="#262626" stroke-linecap="butt" stroke-linejoin="miter" stroke-width="0.5"/>
   <g font-family="FreeSans" font-size="10" font-style="normal" font-weight="normal" transform="translate(37.7201,289.565) rotate(-0,6,-4)" xml:space="preserve">
    <text fill="rgb(38,38,38)" x="0 " y="-0">0</text>
   </g>
   <g font-family="FreeSans" font-size="10" font-style="normal" font-weight="normal" transform="translate(31.7201,224.19) rotate(-0,12,-4)" xml:space="preserve">
    <text fill="rgb(38,38,38)" x="0 6 " y="-0">10</text>
   </g>
   <g font-family="FreeSans" font-size="10" font-style="normal" font-weight="normal" transform="translate(31.7201,158.815) rotate(-0,12,-4)" xml:space="preserve">
    <text fill="rgb(38,38,38)" x="0 6 " y="-0">20</text>
   </g>
   <g font-family="FreeSans" font-size="10" font-style="normal" font-weight="normal" transform="translate(31.7201,93.4396) rotate(-0,12,-4)" xml:space="preserve">
    <text fill="rgb(38,38,38)" x="0 6 " y="-0">30</text>
   </g>
   <g font-family="FreeSans" font-size="10" font-style="normal" font-weight="normal" transform="translate(31.7201,28.0645) rotate(-0,12,-4)" xml:space="preserve">
    <text fill="rgb(38,38,38)" x="0 6 " y="-0">40</text>
   </g>
   <polyline fill="none" points="48.7287,285.565 339.226,285.565" stroke="#262626" stroke-dasharray="16,0" stroke-linecap="square" stroke-linejoin="miter" stroke-width="0.5"/>
   <polyline fill="none" points="48.7287,24.0645 339.226,24.0645" stroke="#262626" stroke-dasharray="16,0" stroke-linecap="square" stroke-linejoin="miter" stroke-width="0.5"/>
   <polyline fill="none" points="48.7287,285.565 48.7287,24.0645" stroke="#262626" stroke-dasharray="16,0" stroke-linecap="square" stroke-linejoin="miter" stroke-width="0.5"/>
   <polyline fill="none" points="339.226,285.565 339.226,24.0645" stroke="#262626" stroke-dasharray="16,0" stroke-linecap="square" stroke-linejoin="miter" stroke-width="0.5"/>
   <g font-family="FreeSans" font-size="11" font-style="normal" font-weight="normal" transform="translate(101.978,318.051) rotate(-0,92,-12)" xml:space="preserve">
    <text fill="rgb(38,38,38)" x="0 8 14 18 27 33 35 37 42 48 54 57 64 68 74 80 86 92 98 104 109 112 116 122 124 127 131 137 143 146 151 157 166 172 174 180 " y="-3">Normalized Frequency (pi rad/sample)</text>
   </g>
   <g font-family="FreeSans" font-size="11" font-style="normal" font-weight="normal" transform="translate(-3.27992,154.815) rotate(-90,30,0)" xml:space="preserve">
    <text fill="rgb(38,38,38)" x="0 8 12 18 24 30 33 41 47 49 55 " y="-3">Group Delay</text>
   </g>
   <g font-family="FreeSans" font-size="11" font-style="normal" font-weight="bold" transform="translate(94.4776,14.0645) rotate(-0,99.5,0)" xml:space="preserve">
    <text fill="rgb(0,0,0)" x="0 7 11 18 25 28 36 39 46 53 56 59 65 72 79 82 89 93 100 106 110 113 119 122 125 129 136 142 148 154 157 161 164 167 171 177 181 187 190 193 " y="-3">Stop &amp; LP, 2nd order all-pass filters: 8</text>
   </g>
   <polyline fill="none" points="48.7287,239.396 50.6783,239.134 52.628,238.54 54.5776,237.581 56.5273,236.214 58.4769,234.371 60.4266,231.933 62.3762,228.758 64.3259,224.59 66.2755,219.163 68.2252,212.134 70.1748,203.342 72.1245,193.261 74.0741,183.743 76.0238,178.131 77.9734,179.56 79.9231,187.495 81.8727,198.653 83.8224,209.818 85.772,219.465 87.7217,227.248 89.6713,233.446 91.621,238.359 93.5706,242.307 95.5203,245.521 97.4699,248.168 99.4196,250.384 101.369,252.248 103.319,253.836 105.269,255.195 107.218,256.362 109.168,257.369 111.117,258.234 113.067,258.98 115.017,259.615 116.966,260.157 118.916,260.609 120.866,260.98 122.815,261.276 124.765,261.499 126.715,261.653 128.664,261.736 130.614,261.75 132.564,261.692 134.513,261.557 136.463,261.341 138.413,261.033 140.362,260.624 142.312,260.095 144.262,259.425 146.211,258.584 148.161,257.53 150.11,256.208 152.06,254.526 154.01,252.375 155.959,249.566 157.909,245.832 159.859,240.763 161.808,233.685 163.758,223.736 165.708,209.7 167.657,191.37 169.607,172.126 171.557,161.806 173.506,168 175.456,185.045 177.406,202.336 179.355,215.51 181.305,224.659 183.255,230.87 185.204,235.147 187.154,238.232 189.103,240.576 191.053,242.509 193.003,244.22 194.952,245.833 196.902,247.415 198.852,248.997 200.801,250.584 202.751,252.17 204.701,253.738 206.65,255.273 208.6,256.757 210.55,258.179 212.499,259.528 214.449,260.801 216.399,261.992 218.348,263.104 220.298,264.138 222.247,265.097 224.197,265.986 226.147,266.807 228.096,267.568 230.046,268.271 231.996,268.922 233.945,269.525 235.895,270.084 237.845,270.603 239.794,271.084 241.744,271.533 243.694,271.95 245.643,272.339 247.593,272.703 249.543,273.042 251.492,273.36 253.442,273.658 255.392,273.938 257.341,274.2 259.291,274.447 261.24,274.679 263.19,274.897 265.14,275.103 267.089,275.297 269.039,275.48 270.989,275.653 272.938,275.816 274.888,275.971 276.838,276.116 278.787,276.254 280.737,276.384 282.687,276.508 284.636,276.624 286.586,276.734 288.536,276.838 290.485,276.936 292.435,277.029 294.385,277.116 296.334,277.198 298.284,277.276 300.233,277.349 302.183,277.417 304.133,277.481 306.082,277.541 308.032,277.597 309.982,277.649 311.931,277.697 313.881,277.741 315.831,277.782 317.78,277.819 319.73,277.853 321.68,277.884 323.629,277.911 325.579,277.935 327.529,277.956 329.478,277.974 331.428,277.989 333.378,278 335.327,278.009 337.277,278.014 339.226,278.017" stroke="#0071bc" stroke-linecap="butt" stroke-linejoin="round" stroke-width="0.5"/>
   <polyline fill="none" points="48.7287,168.513 50.6783,169.026 52.628,170.541 54.5776,172.986 56.5273,176.242 58.4769,180.147 60.4266,184.51 62.3762,189.127 64.3259,193.799 66.2755,198.35 68.2252,202.629 70.1748,206.514 72.1245,209.91 74.0741,212.735 76.0238,214.916 77.9734,216.37 79.9231,216.995 81.8727,216.649 83.8224,215.13 85.772,212.142 87.7217,207.255 89.6713,199.862 91.621,189.149 93.5706,174.192 95.5203,154.448 97.4699,131.142 99.4196,109.558 101.369,99.1253 103.319,106.311 105.269,127.112 107.218,151.9 109.168,174.065 111.117,191.533 113.067,204.564 115.017,214.055 116.966,220.865 118.916,225.645 120.866,228.853 122.815,230.783 124.765,231.611 126.715,231.418 128.664,230.202 130.614,227.883 132.564,224.296 134.513,219.183 136.463,212.181 138.413,202.838 140.362,190.699 142.312,175.576 144.262,158.163 146.211,140.959 148.161,128.623 150.11,125.955 152.06,134.009 154.01,149.052 155.959,165.941 157.909,181.24 159.859,193.629 161.808,203.022 163.758,209.8 165.708,214.419 167.657,217.266 169.607,218.629 171.557,218.7 173.506,217.595 175.456,215.372 177.406,212.05 179.355,207.627 181.305,202.117 183.255,195.59 185.204,188.232 187.154,180.411 189.103,172.726 191.053,165.965 193.003,160.937 194.952,158.187 196.902,157.744 198.852,159.084 200.801,161.33 202.751,163.551 204.701,164.983 206.65,165.126 208.6,163.75 210.55,160.886 212.499,156.827 214.449,152.142 216.399,147.638 218.348,144.207 220.298,142.561 222.247,142.933 224.197,144.971 226.147,147.879 228.096,150.719 230.046,152.678 231.996,153.211 233.945,152.082 235.895,149.378 237.845,145.532 239.794,141.32 241.744,137.769 243.694,135.879 245.643,136.244 247.593,138.762 249.543,142.677 251.492,146.905 253.442,150.406 255.392,152.408 257.341,152.482 259.291,150.549 261.24,146.907 263.19,142.285 265.14,137.844 267.089,134.971 269.039,134.795 270.989,137.647 272.938,142.871 274.888,149.16 276.838,155.11 278.787,159.604 280.737,161.924 282.687,161.711 284.636,158.946 286.586,154.033 288.536,147.983 290.485,142.545 292.435,139.951 294.385,142.032 296.334,149.186 298.284,160.167 300.233,172.938 302.183,185.7 304.133,197.362 306.082,207.477 308.032,216.004 309.982,223.088 311.931,228.94 313.881,233.767 315.831,237.755 317.78,241.054 319.73,243.79 321.68,246.058 323.629,247.936 325.579,249.483 327.529,250.748 329.478,251.766 331.428,252.565 333.378,253.166 335.327,253.585 337.277,253.833 339.226,253.915" stroke="#d85218" stroke-linecap="butt" stroke-linejoin="round" stroke-width="0.5"/>
   <polyline fill="none" points="48.7287,122.343 50.6783,122.594 52.628,123.516 54.5776,125.002 56.5273,126.891 58.4769,128.953 60.4266,130.878 62.3762,132.32 64.3259,132.825 66.2755,131.948 68.2252,129.197 70.1748,124.291 72.1245,117.605 74.0741,110.914 76.0238,107.482 77.9734,110.365 79.9231,118.925 81.8727,129.737 83.8224,139.383 85.772,146.042 87.7217,148.938 89.6713,147.743 91.621,141.943 93.5706,130.934 95.5203,114.404 97.4699,93.7455 99.4196,74.3774 101.369,65.8079 103.319,74.5827 105.269,96.7415 107.218,122.697 109.168,145.869 111.117,164.202 113.067,177.979 115.017,188.106 116.966,195.456 118.916,200.689 120.866,204.268 122.815,206.494 124.765,207.545 126.715,207.506 128.664,206.373 130.614,204.068 132.564,200.423 134.513,195.175 136.463,187.957 138.413,178.306 140.362,165.758 142.312,150.106 144.262,132.023 146.211,113.979 148.161,100.587 150.11,96.5985 152.06,102.97 154.01,115.862 155.959,129.942 157.909,141.507 159.859,148.827 161.808,151.142 163.758,147.971 165.708,138.554 167.657,123.071 169.607,105.19 171.557,94.9407 173.506,100.03 175.456,114.852 177.406,128.82 179.355,137.572 181.305,141.212 183.255,140.896 185.204,137.813 187.154,133.078 189.103,127.737 191.053,122.909 193.003,119.593 194.952,118.455 196.902,119.594 198.852,122.515 200.801,126.349 202.751,130.156 204.701,133.156 206.65,134.833 208.6,134.942 210.55,133.499 212.499,130.79 214.449,127.378 216.399,124.065 218.348,121.746 220.298,121.134 222.247,122.465 224.197,125.392 226.147,129.121 228.096,132.722 230.046,135.384 231.996,136.568 233.945,136.042 235.895,133.897 237.845,130.569 239.794,126.84 241.744,123.736 243.694,122.264 245.643,123.018 247.593,125.9 249.543,130.154 251.492,134.7 253.442,138.499 255.392,140.781 257.341,141.118 259.291,139.431 261.24,136.02 263.19,131.617 265.14,127.382 267.089,124.703 269.039,124.71 270.989,127.735 272.938,133.122 274.888,139.565 276.838,145.661 278.787,150.293 280.737,152.743 282.687,152.654 284.636,150.005 286.586,145.202 288.536,139.256 290.485,133.916 292.435,131.414 294.385,133.583 296.334,140.819 298.284,151.878 300.233,164.722 302.183,177.552 304.133,189.278 306.082,199.453 308.032,208.036 309.982,215.172 311.931,221.072 313.881,225.944 315.831,229.972 317.78,233.309 319.73,236.078 321.68,238.377 323.629,240.282 325.579,241.854 327.529,243.139 329.478,244.175 331.428,244.988 333.378,245.601 335.327,246.029 337.277,246.282 339.226,246.366" stroke="#ecb01f" stroke-linecap="butt" stroke-linejoin="round" stroke-width="0.5"/>
   <polyline fill="none" points="48.7287,282.953 50.6783,283.261 52.628,284.228 54.5776,285.237 56.5273,285.536 58.4769,284.6 60.4266,282.531 62.3762,280.217 64.3259,279.245 66.2755,280.863 68.2252,284.398 70.1748,284.842 72.1245,273.804 74.0741,251.207 76.0238,239.21 77.9734,257.151 79.9231,280.582 81.8727,284.848 83.8224,277.398 85.772,272.135 87.7217,273.086 89.6713,277.774 91.621,282.73 93.5706,285.404 95.5203,284.79 97.4699,281.844 99.4196,279.589 101.369,280.607 103.319,283.444 105.269,285.182 107.218,285.562 109.168,285.527 111.117,285.511 113.067,285.536 115.017,285.56 116.966,285.562 118.916,285.561 120.866,285.562 122.815,285.553 124.765,285.489 126.715,285.323 128.664,284.997 130.614,284.463 132.564,283.718 134.513,282.842 136.463,282.049 138.413,281.713 140.362,282.27 142.312,283.838 144.262,285.43 146.211,284.618 148.161,279.985 150.11,275.483 152.06,277.171 154.01,283.279 155.959,285.235 157.909,277.358 159.859,261.341 161.808,246.027 163.758,245.151 165.708,268.351 167.657,283.764 169.607,194.008 171.557,44.5844 173.506,101.487 175.456,250.03 177.406,284.154 179.355,256.042 181.305,236.408 183.255,240.917 185.204,259.256 187.154,277.019 189.103,285.26 191.053,283.314 193.003,277.5 194.952,275.091 196.902,278.215 198.852,283.257 200.801,285.563 202.751,283.738 204.701,279.891 206.65,277.185 208.6,277.454 210.55,280.299 212.499,283.688 214.449,285.485 216.399,285.058 218.348,283.715 220.298,283.343 222.247,284.39 224.197,285.486 226.147,285.103 228.096,283.157 230.046,280.963 231.996,280.008 233.945,280.866 235.895,282.9 237.845,284.799 239.794,285.559 241.744,285.267 243.694,284.9 245.643,285.144 247.593,285.555 249.543,285.135 251.492,283.553 253.442,281.528 255.392,280.197 257.341,280.284 259.291,281.683 261.24,283.586 263.19,285.025 265.14,285.549 267.089,285.51 269.039,285.514 270.989,285.54 272.938,284.922 274.888,283.247 276.838,280.937 278.787,278.942 280.737,278.095 282.687,278.698 284.636,280.439 286.586,282.571 288.536,284.281 290.485,285.165 292.435,285.403 294.385,285.261 296.334,284.441 298.284,282.378 300.233,279.055 302.183,275.15 304.133,271.512 306.082,268.727 308.032,267.027 309.982,266.384 311.931,266.64 313.881,267.594 315.831,269.047 317.78,270.825 319.73,272.782 321.68,274.802 323.629,276.79 325.579,278.675 327.529,280.399 329.478,281.919 331.428,283.202 333.378,284.223 335.327,284.965 337.277,285.414 339.226,285.565" stroke="#7d2e8d" stroke-linecap="butt" stroke-linejoin="round" stroke-width="0.5"/>
   <polyline fill="none" points="48.7287,126.458 50.6783,126.458 52.628,126.458 54.5776,126.458 56.5273,126.458 58.4769,126.458 60.4266,126.458 62.3762,126.458 64.3259,126.458 66.2755,126.458 68.2252,126.458 70.1748,126.458 72.1245,126.458 74.0741,126.458 76.0238,126.458 77.9734,126.458 79.9231,126.458 81.8727,126.458 83.8224,126.458 85.772,126.458 87.7217,126.458 89.6713,126.458 91.621,126.458 93.5706,126.458 95.5203,126.458 97.4699,126.458 99.4196,126.458 101.369,126.458 103.319,126.458 105.269,126.458 107.218,126.458 109.168,126.458 111.117,126.458 113.067,126.458 115.017,126.458 116.966,126.458 118.916,126.458 120.866,126.458 122.815,126.458 124.765,126.458 126.715,126.458 128.664,126.458 130.614,126.458 132.564,126.458 134.513,126.458 136.463,126.458 138.413,126.458 140.362,126.458 142.312,126.458 144.262,126.458 146.211,126.458 148.161,126.458 150.11,126.458 152.06,126.458 154.01,126.458 155.959,126.458 157.909,126.458 159.859,126.458 161.808,126.458 163.758,126.458 165.708,126.458 167.657,126.458 169.607,126.458 171.557,126.458 173.506,126.458 175.456,126.458 177.406,126.458 179.355,126.458 181.305,126.458 183.255,126.458 185.204,126.458 187.154,126.458 189.103,126.458 191.053,126.458 193.003,126.458 194.952,126.458 196.902,126.458 198.852,126.458 200.801,126.458 202.751,126.458 204.701,126.458 206.65,126.458 208.6,126.458 210.55,126.458 212.499,126.458 214.449,126.458 216.399,126.458 218.348,126.458 220.298,126.458 222.247,126.458 224.197,126.458 226.147,126.458 228.096,126.458 230.046,126.458 231.996,126.458 233.945,126.458 235.895,126.458 237.845,126.458 239.794,126.458 241.744,126.458 243.694,126.458 245.643,126.458 247.593,126.458 249.543,126.458 251.492,126.458 253.442,126.458 255.392,126.458 257.341,126.458 259.291,126.458 261.24,126.458 263.19,126.458 265.14,126.458 267.089,126.458 269.039,126.458 270.989,126.458 272.938,126.458 274.888,126.458 276.838,126.458 278.787,126.458 280.737,126.458 282.687,126.458 284.636,126.458 286.586,126.458 288.536,126.458 290.485,126.458 292.435,126.458 294.385,126.458 296.334,126.458 298.284,126.458 300.233,126.458 302.183,126.458 304.133,126.458 306.082,126.458 308.032,126.458 309.982,126.458 311.931,126.458 313.881,126.458 315.831,126.458 317.78,126.458 319.73,126.458 321.68,126.458 323.629,126.458 325.579,126.458 327.529,126.458 329.478,126.458 331.428,126.458 333.378,126.458 335.327,126.458 337.277,126.458 339.226,126.458" stroke="#76ab2f" stroke-linecap="butt" stroke-linejoin="round" stroke-width="0.5"/>
   <polyline fill="none" points="48.7287,278.972 50.6783,278.97 52.628,278.967 54.5776,278.96 56.5273,278.951 58.4769,278.94 60.4266,278.927 62.3762,278.913 64.3259,278.902 66.2755,278.898 68.2252,278.917 70.1748,278.985 72.1245,279.151 74.0741,279.488 76.0238,280.063 77.9734,280.876 79.9231,281.812 81.8727,282.714 83.8224,283.475 85.772,284.068 87.7217,284.51 89.6713,284.83 91.621,285.06 93.5706,285.222 95.5203,285.337 97.4699,285.416 99.4196,285.471 101.369,285.507 103.319,285.531 105.269,285.546 107.218,285.556 109.168,285.561 111.117,285.563 113.067,285.565 115.017,285.565 116.966,285.565 118.916,285.565 120.866,285.565 122.815,285.565 124.765,285.564 126.715,285.563 128.664,285.561 130.614,285.557 132.564,285.551 134.513,285.54 136.463,285.525 138.413,285.504 140.362,285.474 142.312,285.433 144.262,285.378 146.211,285.305 148.161,285.209 150.11,285.082 152.06,284.915 154.01,284.695 155.959,284.404 157.909,284.016 159.859,283.496 161.808,282.792 163.758,281.833 165.708,280.537 167.657,278.855 169.607,276.914 171.557,275.197 173.506,274.301 175.456,274.29 177.406,274.757 179.355,275.349 181.305,275.913 183.255,276.41 185.204,276.844 187.154,277.231 189.103,277.587 191.053,277.924 193.003,278.252 194.952,278.576 196.902,278.898 198.852,279.219 200.801,279.538 202.751,279.852 204.701,280.16 206.65,280.459 208.6,280.748 210.55,281.026 212.499,281.29 214.449,281.542 216.399,281.78 218.348,282.004 220.298,282.216 222.247,282.414 224.197,282.601 226.147,282.777 228.096,282.942 230.046,283.096 231.996,283.242 233.945,283.378 235.895,283.507 237.845,283.627 239.794,283.741 241.744,283.848 243.694,283.949 245.643,284.044 247.593,284.134 249.543,284.219 251.492,284.299 253.442,284.375 255.392,284.447 257.341,284.515 259.291,284.579 261.24,284.64 263.19,284.698 265.14,284.753 267.089,284.805 269.039,284.855 270.989,284.901 272.938,284.946 274.888,284.988 276.838,285.029 278.787,285.067 280.737,285.103 282.687,285.137 284.636,285.17 286.586,285.201 288.536,285.23 290.485,285.258 292.435,285.284 294.385,285.309 296.334,285.332 298.284,285.354 300.233,285.375 302.183,285.394 304.133,285.413 306.082,285.43 308.032,285.446 309.982,285.461 311.931,285.475 313.881,285.487 315.831,285.499 317.78,285.51 319.73,285.52 321.68,285.528 323.629,285.536 325.579,285.543 327.529,285.549 329.478,285.554 331.428,285.558 333.378,285.561 335.327,285.563 337.277,285.565 339.226,285.565" stroke="#4cbded" stroke-linecap="butt" stroke-linejoin="round" stroke-width="0.5"/>
  </g>
  <clipPath id="cp00374320">
   <polygon points="0,320 374,320 374,0 0,0"/>
  </clipPath>
  <g clip-path="url(#cp00374320)">
   <polygon fill="#ffffff" points="245.209,277.561 331.223,277.561 331.223,193.146 245.209,193.146" shape-rendering="crispEdges"/>
   <polyline fill="none" points="245.209,277.561 331.223,277.561" stroke="#262626" stroke-dasharray="16,0" stroke-linecap="square" stroke-linejoin="miter" stroke-width="0.5"/>
   <polyline fill="none" points="245.209,193.146 331.223,193.146" stroke="#262626" stroke-dasharray="16,0" stroke-linecap="square" stroke-linejoin="miter" stroke-width="0.5"/>
   <polyline fill="none" points="245.209,277.561 245.209,193.146" stroke="#262626" stroke-dasharray="16,0" stroke-linecap="square" stroke-linejoin="miter" stroke-width="0.5"/>
   <polyline fill="none" points="331.223,277.561 331.223,193.146" stroke="#262626" stroke-dasharray="16,0" stroke-linecap="square" stroke-linejoin="miter" stroke-width="0.5"/>
   <polyline fill="none" points="249.211,202.147 269.219,202.147" stroke="#0071bc" stroke-linecap="butt" stroke-linejoin="round" stroke-width="0.5"/>
   <g font-family="FreeSans" font-size="9" font-style="normal" font-weight="normal" transform="translate(273.221,207.147) rotate(-0,-0,-5)" xml:space="preserve">
    <text fill="rgb(0,0,0)" x="0 5 8 13 15 18 23 " y="-2">grd ref</text>
   </g>
   <polyline fill="none" points="249.211,215.649 269.219,215.649" stroke="#d85218" stroke-linecap="butt" stroke-linejoin="round" stroke-width="0.5"/>
   <g font-family="FreeSans" font-size="9" font-style="normal" font-weight="normal" transform="translate(273.221,220.149) rotate(-0,-0,-4.5)" xml:space="preserve">
    <text fill="rgb(0,0,0)" x="0 5 10 " y="-2">opt</text>
   </g>
   <polyline fill="none" points="249.211,229.151 269.219,229.151" stroke="#ecb01f" stroke-linecap="butt" stroke-linejoin="round" stroke-width="0.5"/>
   <g font-family="FreeSans" font-size="9" font-style="normal" font-weight="normal" transform="translate(273.221,234.151) rotate(-0,-0,-5)" xml:space="preserve">
    <text fill="rgb(0,0,0)" x="0 3 8 11 16 21 26 " y="-2">ref+opt</text>
   </g>
   <polyline fill="none" points="249.211,242.354 269.219,242.354" stroke="#7d2e8d" stroke-linecap="butt" stroke-linejoin="round" stroke-width="0.5"/>
   <g font-family="FreeSans" font-size="9" font-style="normal" font-weight="normal" transform="translate(273.221,245.354) rotate(-0,-0,-3)" xml:space="preserve">
    <text fill="rgb(0,0,0)" x="0 5 8 " y="-0">err</text>
   </g>
   <polyline fill="none" points="249.211,255.058 269.219,255.058" stroke="#76ab2f" stroke-linecap="butt" stroke-linejoin="round" stroke-width="0.5"/>
   <g font-family="FreeSans" font-size="9" font-style="normal" font-weight="normal" transform="translate(273.221,259.558) rotate(-0,-0,-4.5)" xml:space="preserve">
    <text fill="rgb(0,0,0)" x="0 3 8 11 16 21 " y="-2">target</text>
   </g>
   <polyline fill="none" points="249.211,268.56 269.219,268.56" stroke="#4cbded" stroke-linecap="butt" stroke-linejoin="round" stroke-width="0.5"/>
   <g font-family="FreeSans" font-size="9" font-style="normal" font-weight="normal" transform="translate(273.221,273.56) rotate(-0,-0,-5)" xml:space="preserve">
    <text fill="rgb(0,0,0)" x="0 5 8 11 13 20 25 27 32 37 40 44 46 48 50 52 " y="-2">err weights     </text>
   </g>
  </g>
 </g>
</svg>
